<svg width="24" height="24" viewBox="0 0 24 24" fill="none" xmlns="http://www.w3.org/2000/svg">
<path fill-rule="evenodd" clip-rule="evenodd" d="M4.17149 5.42132C3.80155 5.71287 3.75 5.91409 3.75 6C3.75 6.0691 3.77982 6.20509 3.98069 6.40936C4.18446 6.61657 4.5197 6.84492 5.00447 7.06954C5.97101 7.51739 7.38643 7.884 9.08776 8.08445C9.46541 8.12894 9.75 8.44903 9.75 8.82929V14.3418C10.4716 14.2818 11.2253 14.25 12 14.25C12.7747 14.25 13.5284 14.2818 14.25 14.3418V8.82929C14.25 8.44903 14.5346 8.12894 14.9122 8.08445C16.6136 7.884 18.029 7.51739 18.9955 7.06954C19.4803 6.84492 19.8155 6.61657 20.0193 6.40936C20.2202 6.20509 20.25 6.0691 20.25 6C20.25 5.91409 20.1985 5.71287 19.8285 5.42132C19.467 5.13644 18.8975 4.84708 18.1268 4.59019C16.5933 4.07903 14.4271 3.75 12 3.75C9.5729 3.75 7.4067 4.07903 5.87321 4.59019C5.10255 4.84708 4.53298 5.13644 4.17149 5.42132ZM20.25 8.10314C20.0543 8.22009 19.8452 8.32905 19.6262 8.43054C18.6115 8.9007 17.2713 9.26185 15.75 9.4864V15.1707V19.9689C17.0794 19.7577 18.1924 19.4417 18.9955 19.0695C19.4803 18.8449 19.8155 18.6166 20.0193 18.4094C20.2202 18.2051 20.25 18.0691 20.25 18V8.10314ZM21.75 6V18C21.75 18.584 21.4668 19.0768 21.0888 19.4611C20.7138 19.8425 20.2044 20.1626 19.6262 20.4305C18.4666 20.9678 16.882 21.3628 15.0878 21.5741C14.875 21.5992 14.6617 21.5321 14.5017 21.3898C14.3416 21.2475 14.25 21.0435 14.25 20.8293V15.8474C13.5336 15.7839 12.7794 15.75 12 15.75C11.2206 15.75 10.4664 15.7839 9.75 15.8474V20.8293C9.75 21.0435 9.65842 21.2475 9.49834 21.3898C9.33826 21.5321 9.12497 21.5992 8.91224 21.5741C7.118 21.3628 5.53341 20.9678 4.37385 20.4305C3.79556 20.1626 3.28623 19.8425 2.91118 19.4611C2.53323 19.0768 2.25 18.584 2.25 18V6C2.25 5.25749 2.70213 4.66949 3.24303 4.24321C3.79239 3.81026 4.54085 3.45317 5.39887 3.16717C7.12274 2.59254 9.45654 2.25 12 2.25C14.5435 2.25 16.8773 2.59254 18.6011 3.16717C19.4591 3.45317 20.2076 3.81026 20.757 4.24321C21.2979 4.66949 21.75 5.25749 21.75 6ZM3.75 8.10314V18C3.75 18.0691 3.77982 18.2051 3.98069 18.4094C4.18446 18.6166 4.5197 18.8449 5.00447 19.0695C5.80757 19.4417 6.92058 19.7577 8.25 19.9689V15.1707V9.4864C6.7287 9.26185 5.38855 8.9007 4.37385 8.43054C4.15482 8.32905 3.94569 8.22009 3.75 8.10314Z" fill="#22282F"/>
</svg>
