<svg width="24" height="24" viewBox="0 0 24 24" fill="none" xmlns="http://www.w3.org/2000/svg">
<path fill-rule="evenodd" clip-rule="evenodd" d="M11.7639 4.80253C11.5151 5.23742 11.2423 5.91448 10.8397 6.92097L6.96963 16.5961C6.49217 17.7898 6.16463 18.6129 6.01503 19.1976C5.95376 19.437 5.935 19.5916 5.93469 19.6863C6.02791 19.6693 6.17669 19.6234 6.4015 19.5207C6.95042 19.2699 7.70253 18.8017 8.79273 18.1203L9.48278 17.689L9.51433 17.6693C10.0029 17.3639 10.4176 17.1048 10.7823 16.9264C11.1707 16.7365 11.559 16.6085 12.0003 16.6085C12.4416 16.6085 12.8299 16.7365 13.2182 16.9264C13.583 17.1048 13.9976 17.3639 14.4862 17.6693L14.5178 17.689L15.2078 18.1203C16.298 18.8017 17.0501 19.2699 17.5991 19.5207C17.8239 19.6234 17.9726 19.6693 18.0659 19.6863C18.0656 19.5916 18.0468 19.437 17.9855 19.1976C17.8359 18.6129 17.5084 17.7898 17.0309 16.5961L13.1609 6.92097C12.7583 5.91448 12.4855 5.23742 12.2367 4.80253C12.1238 4.60528 12.0453 4.51059 12.0003 4.46694C11.9553 4.51059 11.8767 4.60528 11.7639 4.80253ZM12.0459 4.43253C12.0459 4.43317 12.0422 4.43562 12.0349 4.43794C12.0423 4.43305 12.0459 4.43189 12.0459 4.43253ZM11.9657 4.43794C11.9583 4.43562 11.9546 4.43317 11.9546 4.43253C11.9546 4.43189 11.9583 4.43305 11.9657 4.43794ZM10.4619 4.05762C10.7582 3.53972 11.2182 2.94263 12.0003 2.94263C12.7823 2.94263 13.2423 3.53972 13.5386 4.05762C13.8461 4.59505 14.1569 5.37206 14.5307 6.30654L14.5536 6.36388L18.4236 16.039L18.4463 16.0957C18.8957 17.2192 19.2618 18.1342 19.4387 18.8258C19.529 19.1787 19.5887 19.5397 19.5573 19.8781C19.5235 20.2427 19.3799 20.6035 19.0578 20.8728C18.7357 21.1421 18.3552 21.2195 17.9904 21.1882C17.6518 21.1592 17.3071 21.0364 16.9757 20.885C16.3264 20.5884 15.4907 20.066 14.4646 19.4247L14.4128 19.3923L13.7228 18.961C13.1941 18.6306 12.8456 18.4139 12.5593 18.2739C12.2888 18.1416 12.1326 18.1085 12.0003 18.1085C11.868 18.1085 11.7118 18.1416 11.4412 18.2739C11.155 18.4139 10.8064 18.6306 10.2778 18.961L9.58773 19.3923L9.536 19.4247C8.50988 20.066 7.67417 20.5884 7.02487 20.885C6.69348 21.0364 6.3488 21.1592 6.01019 21.1882C5.64537 21.2195 5.26487 21.1421 4.94276 20.8728C4.62066 20.6035 4.47708 20.2427 4.44324 19.8781C4.41182 19.5397 4.47153 19.1787 4.56185 18.8258C4.7388 18.1342 5.10482 17.2192 5.55424 16.0957L5.57692 16.039L9.44697 6.36389L9.4699 6.30653C9.84366 5.37206 10.1544 4.59505 10.4619 4.05762Z" fill="#22282F"/>
</svg>
