<svg width="24" height="24" viewBox="0 0 24 24" fill="none" xmlns="http://www.w3.org/2000/svg">
<path fill-rule="evenodd" clip-rule="evenodd" d="M18.895 2.10566C18.6021 1.81276 18.1272 1.81276 17.8343 2.10566C17.5414 2.39855 17.5414 2.87342 17.8343 3.16632C19.3281 4.66009 20.2507 6.72157 20.2507 8.99995C20.2507 13.5563 16.557 17.2499 12.0007 17.2499C9.7223 17.2499 7.66083 16.3274 6.16705 14.8336C5.87416 14.5407 5.39928 14.5407 5.10639 14.8336C4.8135 15.1265 4.8135 15.6013 5.10639 15.8942C6.70467 17.4925 8.85729 18.5393 11.2507 18.7215V20.2499H9.00068C8.58647 20.2499 8.25068 20.5857 8.25068 20.9999C8.25068 21.4142 8.58647 21.7499 9.00068 21.7499H12.0007H15.0007C15.4149 21.7499 15.7507 21.4142 15.7507 20.9999C15.7507 20.5857 15.4149 20.2499 15.0007 20.2499H12.7507V18.7215C17.785 18.3386 21.7507 14.1324 21.7507 8.99995C21.7507 6.30777 20.6586 3.86924 18.895 2.10566ZM6.75068 8.99995C6.75068 6.10045 9.10118 3.74995 12.0007 3.74995C14.9002 3.74995 17.2507 6.10045 17.2507 8.99995C17.2507 11.8994 14.9002 14.2499 12.0007 14.2499C9.10118 14.2499 6.75068 11.8994 6.75068 8.99995ZM12.0007 2.24995C8.27276 2.24995 5.25068 5.27203 5.25068 8.99995C5.25068 12.7279 8.27276 15.7499 12.0007 15.7499C15.7286 15.7499 18.7507 12.7279 18.7507 8.99995C18.7507 5.27203 15.7286 2.24995 12.0007 2.24995Z" fill="#22282F"/>
</svg>
