<svg width="24" height="24" viewBox="0 0 24 24" fill="none" xmlns="http://www.w3.org/2000/svg">
<path fill-rule="evenodd" clip-rule="evenodd" d="M12 1.25C12.4142 1.25 12.75 1.58579 12.75 2V3.28169C16.9842 3.64113 20.3589 7.01581 20.7183 11.25H22C22.4142 11.25 22.75 11.5858 22.75 12C22.75 12.4142 22.4142 12.75 22 12.75H20.7183C20.6428 13.6375 20.4348 14.4881 20.1137 15.2814C19.9583 15.6654 19.521 15.8506 19.1371 15.6952C18.7531 15.5398 18.5679 15.1025 18.7233 14.7186C19.0627 13.88 19.25 12.9628 19.25 12C19.25 7.99594 16.0041 4.75 12 4.75C11.373 4.75 10.7656 4.82942 10.1869 4.97836C9.87657 5.05825 9.57425 5.15818 9.28141 5.27672C8.89746 5.43214 8.46022 5.24688 8.3048 4.86293C8.14938 4.47898 8.33464 4.04173 8.71859 3.88631C9.07248 3.74306 9.43791 3.62226 9.81306 3.52571C10.2785 3.4059 10.7587 3.32349 11.25 3.28174V2C11.25 1.58579 11.5858 1.25 12 1.25ZM3.53033 2.46967C3.23744 2.17678 2.76256 2.17678 2.46967 2.46967C2.17678 2.76256 2.17678 3.23744 2.46967 3.53033L5.30514 6.3658C4.17419 7.70846 3.43912 9.39722 3.28172 11.25H2C1.58579 11.25 1.25 11.5858 1.25 12C1.25 12.4142 1.58579 12.75 2 12.75H3.28169C3.64113 16.9842 7.01581 20.3589 11.25 20.7183V22C11.25 22.4142 11.5858 22.75 12 22.75C12.4142 22.75 12.75 22.4142 12.75 22V20.7183C14.6028 20.5609 16.2915 19.8258 17.6342 18.6949L20.4697 21.5303C20.7626 21.8232 21.2374 21.8232 21.5303 21.5303C21.8232 21.2374 21.8232 20.7626 21.5303 20.4697L18.1872 17.1265L6.87348 5.81282L3.53033 2.46967ZM12 19.25C13.7322 19.25 15.3216 18.6433 16.5689 17.6295L14.068 15.1286C13.4752 15.521 12.7638 15.75 12 15.75C9.92893 15.75 8.25 14.0711 8.25 12C8.25 11.2362 8.47895 10.5248 8.87137 9.93203L6.37045 7.43111C5.35674 8.67839 4.75 10.2678 4.75 12C4.75 16.0041 7.99594 19.25 12 19.25ZM12.9702 14.0309L9.96913 11.0298C9.82855 11.3234 9.75 11.6522 9.75 12C9.75 13.2426 10.7574 14.25 12 14.25C12.3478 14.25 12.6766 14.1715 12.9702 14.0309Z" fill="#22282F"/>
</svg>
