<svg width="24" height="24" viewBox="0 0 24 24" fill="none" xmlns="http://www.w3.org/2000/svg">
<path fill-rule="evenodd" clip-rule="evenodd" d="M6.75 8.51853C6.75 6.52849 7.43156 5.10049 8.396 4.16912C9.36949 3.22902 10.6775 2.75 12 2.75C13.3225 2.75 14.6305 3.22903 15.604 4.16914C16.5684 5.10051 17.25 6.52851 17.25 8.51853C17.25 10.5671 16.3346 12.4167 15.1941 13.9207C14.5705 14.743 14.1897 15.2337 13.7506 15.551C13.3613 15.8322 12.8805 16.004 12.0001 16.004C11.1198 16.004 10.639 15.8322 10.2497 15.551C9.81056 15.2338 9.42972 14.7431 8.80608 13.9208C7.66549 12.4168 6.75 10.5671 6.75 8.51853ZM18.75 8.51853C18.75 6.16288 17.9316 4.33162 16.646 3.09014C15.3695 1.85741 13.6775 1.25 12 1.25C10.3225 1.25 8.63051 1.85739 7.354 3.09012C6.06844 4.3316 5.25 6.16287 5.25 8.51853C5.25 11.0175 6.36272 13.1813 7.6109 14.8272L7.65887 14.8905C8.21953 15.63 8.73044 16.304 9.37139 16.767C10.0804 17.2791 10.8939 17.504 12.0002 17.504C13.1065 17.504 13.9199 17.279 14.6289 16.7669C15.2699 16.3039 15.7807 15.6299 16.3414 14.8903L16.3893 14.827C17.6374 13.1812 18.75 11.0174 18.75 8.51853ZM12 6.75C11.3096 6.75 10.75 7.30964 10.75 8C10.75 8.69036 11.3096 9.25 12 9.25C12.6904 9.25 13.25 8.69036 13.25 8C13.25 7.30964 12.6904 6.75 12 6.75ZM9.25 8C9.25 6.48122 10.4812 5.25 12 5.25C13.5188 5.25 14.75 6.48122 14.75 8C14.75 9.51878 13.5188 10.75 12 10.75C10.4812 10.75 9.25 9.51878 9.25 8ZM5.68787 15.5475C5.85294 15.9274 5.67879 16.3692 5.29889 16.5342C4.72123 16.7852 4.31008 17.0499 4.0546 17.2991C3.80118 17.5462 3.75 17.7261 3.75 17.8355C3.75 17.9612 3.8206 18.1862 4.18671 18.4905C4.54835 18.7912 5.11663 19.0955 5.88481 19.3656C7.41435 19.9034 9.57636 20.25 12 20.25C14.4236 20.25 16.5856 19.9034 18.1152 19.3656C18.8834 19.0955 19.4516 18.7912 19.8133 18.4905C20.1794 18.1862 20.25 17.9612 20.25 17.8355C20.25 17.7261 20.1988 17.5462 19.9454 17.2991C19.6899 17.0499 19.2788 16.7852 18.7011 16.5342C18.3212 16.3692 18.1471 15.9274 18.3121 15.5475C18.4772 15.1676 18.919 14.9934 19.2989 15.1585C19.972 15.451 20.5609 15.8041 20.9927 16.2252C21.4266 16.6484 21.75 17.1914 21.75 17.8355C21.75 18.5837 21.3169 19.1912 20.7722 19.644C20.223 20.1006 19.4732 20.4781 18.6127 20.7807C16.8849 21.3882 14.5469 21.75 12 21.75C9.45308 21.75 7.11508 21.3882 5.38726 20.7807C4.52677 20.4781 3.77703 20.1006 3.22782 19.644C2.68308 19.1912 2.25 18.5837 2.25 17.8355C2.25 17.1914 2.57342 16.6484 3.0073 16.2252C3.43912 15.8041 4.02797 15.451 4.70111 15.1585C5.08101 14.9934 5.5228 15.1676 5.68787 15.5475Z" fill="#22282F"/>
</svg>
