<svg width="24" height="24" viewBox="0 0 24 24" fill="none" xmlns="http://www.w3.org/2000/svg">
<path fill-rule="evenodd" clip-rule="evenodd" d="M4.75 10.1482C4.75 7.63087 5.66985 5.80032 7.00337 4.59302C8.34965 3.37416 10.1636 2.75 12 2.75C13.8364 2.75 15.6504 3.37418 16.9966 4.59304C18.3301 5.80035 19.25 7.63089 19.25 10.1482C19.25 13.4221 17.2847 16.2839 15.2683 18.3449C14.5408 19.0884 14.0747 19.5589 13.5981 19.8644C13.1668 20.1408 12.7127 20.288 12.0002 20.288C11.2877 20.288 10.8336 20.1409 10.4023 19.8644C9.9257 19.559 9.45955 19.0885 8.73207 18.345C6.71544 16.284 4.75 13.4221 4.75 10.1482ZM20.75 10.1482C20.75 7.23337 19.6699 4.98983 18.0034 3.48107C16.3496 1.98387 14.1636 1.25001 12 1.25C9.83643 1.24999 7.65035 1.98385 5.99663 3.48105C4.33015 4.98981 3.25 7.23335 3.25 10.1482C3.25 14.0136 5.5502 17.2379 7.65992 19.3941L7.70691 19.4421L7.70693 19.4421C8.37418 20.1242 8.95657 20.7195 9.59294 21.1274C10.2895 21.5738 11.0303 21.788 12.0002 21.788C12.9702 21.788 13.711 21.5737 14.4075 21.1273C15.0439 20.7194 15.6262 20.1241 16.2935 19.442L16.2935 19.4419L16.3405 19.3939C18.45 17.2377 20.75 14.0135 20.75 10.1482ZM9 10.25C8.58579 10.25 8.25 10.5858 8.25 11C8.25 11.4142 8.58579 11.75 9 11.75H15C15.4142 11.75 15.75 11.4142 15.75 11C15.75 10.5858 15.4142 10.25 15 10.25H9Z" fill="#22282F"/>
</svg>
