<svg width="24" height="24" viewBox="0 0 24 24" fill="none" xmlns="http://www.w3.org/2000/svg">
<path fill-rule="evenodd" clip-rule="evenodd" d="M8.35448 3.64372C10.5084 2.4885 13.2521 2.45252 15.4439 3.53972C17.5976 4.60801 19.25 6.77531 19.25 10.1482C19.25 11.4008 18.9632 12.5932 18.4922 13.7082C18.4255 13.8661 18.3551 14.0225 18.2813 14.1771C18.103 14.551 18.2615 14.9986 18.6354 15.177C19.0092 15.3553 19.4569 15.1968 19.6352 14.8229C19.7184 14.6484 19.7982 14.4714 19.874 14.2919C20.4094 13.0245 20.75 11.6337 20.75 10.1482C20.75 6.2024 18.772 3.51613 16.1105 2.19595C13.4871 0.894669 10.2307 0.935315 7.64552 2.32184C7.28049 2.51761 7.14328 2.97223 7.33906 3.33726C7.53483 3.70229 7.98945 3.8395 8.35448 3.64372ZM3.53033 2.4697C3.23744 2.17681 2.76256 2.17681 2.46967 2.4697C2.17678 2.76259 2.17678 3.23747 2.46967 3.53036L4.40579 5.46648C3.67309 6.75684 3.25 8.32339 3.25 10.1482C3.25 14.0136 5.5502 17.2379 7.65992 19.3941L7.70692 19.4421C8.3742 20.1242 8.95663 20.7196 9.59303 21.1274C10.2896 21.5738 11.0304 21.7881 12.0004 21.788C12.9705 21.788 13.7113 21.5736 14.408 21.127C15.0444 20.719 15.6269 20.1235 16.2943 19.4411L16.3413 19.393C16.6588 19.0685 16.9787 18.7217 17.2934 18.354L20.4697 21.5304C20.7626 21.8233 21.2374 21.8233 21.5303 21.5304C21.8232 21.2375 21.8232 20.7626 21.5303 20.4697L17.7684 16.7077L5.88634 4.82571L3.53033 2.4697ZM4.75 10.1482C4.75 8.74462 5.03617 7.55814 5.51559 6.57628L16.2292 17.2899C15.9143 17.6627 15.5913 18.0147 15.2691 18.3441C14.5414 19.0879 14.0751 19.5586 13.5984 19.8642C13.167 20.1408 12.7128 20.288 12.0004 20.288C11.2878 20.2881 10.8337 20.1409 10.4024 19.8645C9.92576 19.5591 9.45959 19.0886 8.73206 18.345C6.71544 16.284 4.75 13.4221 4.75 10.1482ZM11.2499 7.87786C11.4836 7.79529 11.7357 7.75003 12 7.75003C13.2426 7.75003 14.25 8.75739 14.25 10C14.25 10.2643 14.2047 10.5165 14.1222 10.7501C13.9841 11.1406 14.1888 11.5691 14.5794 11.7072C14.9699 11.8452 15.3984 11.6405 15.5364 11.25C15.675 10.858 15.75 10.437 15.75 10C15.75 7.92896 14.0711 6.25003 12 6.25003C11.563 6.25003 11.142 6.32508 10.7501 6.4636C10.3595 6.60164 10.1548 7.03013 10.2929 7.42067C10.4309 7.81121 10.8594 8.0159 11.2499 7.87786Z" fill="#22282F"/>
</svg>
