<svg width="24" height="24" viewBox="0 0 24 24" fill="none" xmlns="http://www.w3.org/2000/svg">
<path fill-rule="evenodd" clip-rule="evenodd" d="M12 2.75C10.2051 2.75 8.75 4.20507 8.75 6C8.75 7.79493 10.2051 9.25 12 9.25C13.7949 9.25 15.25 7.79493 15.25 6C15.25 4.20507 13.7949 2.75 12 2.75ZM12.75 10.6911C15.017 10.3315 16.75 8.36815 16.75 6C16.75 3.37665 14.6234 1.25 12 1.25C9.37665 1.25 7.25 3.37665 7.25 6C7.25 8.36815 8.98301 10.3315 11.25 10.6911V17C11.25 17.4142 11.5858 17.75 12 17.75C12.4142 17.75 12.75 17.4142 12.75 17V10.6911ZM8.73235 13.254C8.82168 13.6585 8.56622 14.0588 8.16175 14.1481C6.74115 14.4619 5.59304 14.9349 4.81985 15.4781C4.03332 16.0306 3.75 16.5655 3.75 17C3.75 17.3082 3.88743 17.6584 4.25056 18.0399C4.61737 18.4254 5.18359 18.8066 5.94064 19.1431C7.45286 19.8152 9.59454 20.25 12 20.25C14.4055 20.25 16.5471 19.8152 18.0594 19.1431C18.8164 18.8066 19.3826 18.4254 19.7494 18.0399C20.1126 17.6584 20.25 17.3082 20.25 17C20.25 16.5655 19.9667 16.0306 19.1802 15.4781C18.407 14.9349 17.2589 14.4619 15.8382 14.1481C15.4338 14.0588 15.1783 13.6585 15.2677 13.254C15.357 12.8496 15.7573 12.5941 16.1618 12.6834C17.7046 13.0242 19.0565 13.558 20.0424 14.2507C21.015 14.934 21.75 15.8639 21.75 17C21.75 17.7963 21.3838 18.4985 20.836 19.074C20.292 19.6457 19.5402 20.1264 18.6686 20.5138C16.9234 21.2894 14.5651 21.75 12 21.75C9.4349 21.75 7.07658 21.2894 5.33143 20.5138C4.45981 20.1264 3.70801 19.6457 3.16397 19.074C2.61625 18.4985 2.25 17.7963 2.25 17C2.25 15.8639 2.98496 14.934 3.95758 14.2507C4.94353 13.558 6.29541 13.0242 7.83825 12.6834C8.24271 12.5941 8.64301 12.8496 8.73235 13.254Z" fill="#22282F"/>
</svg>
