<svg width="24" height="24" viewBox="0 0 24 24" fill="none" xmlns="http://www.w3.org/2000/svg">
<path fill-rule="evenodd" clip-rule="evenodd" d="M4.75 10.1482C4.75 7.63087 5.66985 5.80032 7.00337 4.59302C8.34965 3.37416 10.1636 2.75 12 2.75C13.8364 2.75 15.6504 3.37418 16.9966 4.59304C18.3301 5.80035 19.25 7.63089 19.25 10.1482C19.25 13.4221 17.2847 16.2839 15.2683 18.3449C14.5408 19.0884 14.0747 19.5589 13.5981 19.8644C13.1668 20.1408 12.7127 20.288 12.0002 20.288C11.2877 20.288 10.8336 20.1409 10.4023 19.8644C9.9257 19.559 9.45955 19.0885 8.73207 18.345C6.71544 16.284 4.75 13.4221 4.75 10.1482ZM20.75 10.1482C20.75 7.23337 19.6699 4.98983 18.0034 3.48107C16.3496 1.98387 14.1636 1.25001 12 1.25C9.83643 1.24999 7.65035 1.98385 5.99663 3.48105C4.33015 4.98981 3.25 7.23335 3.25 10.1482C3.25 14.0136 5.5502 17.2379 7.65992 19.3941L7.70691 19.4421L7.70693 19.4421C8.37418 20.1242 8.95657 20.7195 9.59294 21.1274C10.2895 21.5738 11.0303 21.788 12.0002 21.788C12.9702 21.788 13.711 21.5737 14.4075 21.1273C15.0439 20.7194 15.6262 20.1241 16.2935 19.442L16.2935 19.4419L16.3405 19.3939C18.45 17.2377 20.75 14.0135 20.75 10.1482ZM10.0303 7.9697C9.73744 7.67681 9.26256 7.67681 8.96967 7.9697C8.67678 8.26259 8.67678 8.73747 8.96967 9.03036L10.9393 11L8.96967 12.9697C8.67678 13.2626 8.67678 13.7375 8.96967 14.0304C9.26256 14.3233 9.73744 14.3233 10.0303 14.0304L12 12.0607L13.9697 14.0304C14.2626 14.3233 14.7374 14.3233 15.0303 14.0304C15.3232 13.7375 15.3232 13.2626 15.0303 12.9697L13.0607 11L15.0303 9.03036C15.3232 8.73747 15.3232 8.26259 15.0303 7.9697C14.7374 7.67681 14.2626 7.67681 13.9697 7.9697L12 9.93937L10.0303 7.9697Z" fill="#22282F"/>
</svg>
