<svg width="24" height="24" viewBox="0 0 24 24" fill="none" xmlns="http://www.w3.org/2000/svg">
<path fill-rule="evenodd" clip-rule="evenodd" d="M9 3.75C7.20507 3.75 5.75 5.20507 5.75 7C5.75 8.79493 7.20507 10.25 9 10.25C10.7949 10.25 12.25 8.79493 12.25 7C12.25 5.20507 10.7949 3.75 9 3.75ZM4.25 7C4.25 4.37665 6.37665 2.25 9 2.25C11.6234 2.25 13.75 4.37665 13.75 7C13.75 9.62335 11.6234 11.75 9 11.75C6.37665 11.75 4.25 9.62335 4.25 7ZM6 15.75C4.20507 15.75 2.75 17.2051 2.75 19C2.75 19.6904 3.30964 20.25 4 20.25H14C14.6904 20.25 15.25 19.6904 15.25 19C15.25 17.2051 13.7949 15.75 12 15.75H6ZM1.25 19C1.25 16.3766 3.37665 14.25 6 14.25H12C14.6234 14.25 16.75 16.3766 16.75 19C16.75 20.5188 15.5188 21.75 14 21.75H4C2.48122 21.75 1.25 20.5188 1.25 19ZM17 9.25C16.5858 9.25 16.25 9.58579 16.25 10C16.25 10.4142 16.5858 10.75 17 10.75H23C23.4142 10.75 23.75 10.4142 23.75 10C23.75 9.58579 23.4142 9.25 23 9.25H17Z" fill="#22282F"/>
</svg>
