<svg width="24" height="24" viewBox="0 0 24 24" fill="none" xmlns="http://www.w3.org/2000/svg">
<path fill-rule="evenodd" clip-rule="evenodd" d="M12 2.75C6.89137 2.75 2.75 6.89137 2.75 12C2.75 17.1086 6.89137 21.25 12 21.25C17.1086 21.25 21.25 17.1086 21.25 12C21.25 6.89137 17.1086 2.75 12 2.75ZM1.25 12C1.25 6.06294 6.06294 1.25 12 1.25C17.9371 1.25 22.75 6.06294 22.75 12C22.75 17.9371 17.9371 22.75 12 22.75C6.06294 22.75 1.25 17.9371 1.25 12ZM10.6667 13.75C9.60812 13.75 8.75 14.6081 8.75 15.6667C8.75 15.9888 9.01117 16.25 9.33333 16.25H14.6667C14.9888 16.25 15.25 15.9888 15.25 15.6667C15.25 14.6081 14.3919 13.75 13.3333 13.75H10.6667ZM7.25 15.6667C7.25 13.7797 8.77969 12.25 10.6667 12.25H13.3333C15.2203 12.25 16.75 13.7797 16.75 15.6667C16.75 16.8173 15.8173 17.75 14.6667 17.75H9.33333C8.18274 17.75 7.25 16.8173 7.25 15.6667ZM10.75 8C10.75 7.30964 11.3096 6.75 12 6.75C12.6904 6.75 13.25 7.30964 13.25 8C13.25 8.69036 12.6904 9.25 12 9.25C11.3096 9.25 10.75 8.69036 10.75 8ZM12 5.25C10.4812 5.25 9.25 6.48122 9.25 8C9.25 9.51878 10.4812 10.75 12 10.75C13.5188 10.75 14.75 9.51878 14.75 8C14.75 6.48122 13.5188 5.25 12 5.25Z" fill="#22282F"/>
</svg>
