<svg width="24" height="24" viewBox="0 0 24 24" fill="none" xmlns="http://www.w3.org/2000/svg">
<path fill-rule="evenodd" clip-rule="evenodd" d="M18 0.25C18.4142 0.25 18.75 0.585786 18.75 1V3.25H21C21.4142 3.25 21.75 3.58579 21.75 4C21.75 4.41421 21.4142 4.75 21 4.75H18.75V7C18.75 7.41421 18.4142 7.75 18 7.75C17.5858 7.75 17.25 7.41421 17.25 7V4.75H15C14.5858 4.75 14.25 4.41421 14.25 4C14.25 3.58579 14.5858 3.25 15 3.25H17.25V1C17.25 0.585786 17.5858 0.25 18 0.25ZM9.94513 3.25L10 3.25H11.5C11.9142 3.25 12.25 3.58579 12.25 4C12.25 4.41421 11.9142 4.75 11.5 4.75H10C8.56458 4.75 7.56347 4.75159 6.80812 4.85315C6.07435 4.9518 5.68577 5.13225 5.40901 5.40901C5.13225 5.68577 4.9518 6.07434 4.85315 6.80812C4.75159 7.56347 4.75 8.56458 4.75 10V16C4.75 17.4354 4.75159 18.4365 4.85315 19.1919C4.9518 19.9257 5.13225 20.3142 5.40901 20.591C5.68577 20.8678 6.07435 21.0482 6.80812 21.1469C7.56347 21.2484 8.56458 21.25 10 21.25H12C13.4354 21.25 14.4365 21.2484 15.1919 21.1469C15.9257 21.0482 16.3142 20.8678 16.591 20.591C16.8678 20.3142 17.0482 19.9257 17.1469 19.1919C17.2484 18.4365 17.25 17.4354 17.25 16V10.5C17.25 10.0858 17.5858 9.75 18 9.75C18.4142 9.75 18.75 10.0858 18.75 10.5V16V16.0549V16.0549V16.0549V16.0549V16.0549C18.75 17.4225 18.75 18.5248 18.6335 19.3918C18.5125 20.2919 18.2536 21.0497 17.6517 21.6517C17.0497 22.2536 16.2919 22.5125 15.3918 22.6335C14.5248 22.75 13.4225 22.75 12.0549 22.75H12H10H9.94513C8.57754 22.75 7.47522 22.75 6.60825 22.6335C5.70814 22.5125 4.95027 22.2536 4.34835 21.6517C3.74643 21.0497 3.48754 20.2919 3.36652 19.3918C3.24996 18.5248 3.24998 17.4225 3.25 16.0549V16V10V9.94513C3.24998 8.57754 3.24996 7.47522 3.36652 6.60825C3.48754 5.70814 3.74643 4.95027 4.34835 4.34835C4.95027 3.74643 5.70814 3.48754 6.60825 3.36652C7.47522 3.24996 8.57754 3.24998 9.94513 3.25ZM8 7.25C7.58579 7.25 7.25 7.58579 7.25 8C7.25 8.41421 7.58579 8.75 8 8.75H14C14.4142 8.75 14.75 8.41421 14.75 8C14.75 7.58579 14.4142 7.25 14 7.25H8ZM7.25 12C7.25 11.5858 7.58579 11.25 8 11.25H12C12.4142 11.25 12.75 11.5858 12.75 12C12.75 12.4142 12.4142 12.75 12 12.75H8C7.58579 12.75 7.25 12.4142 7.25 12ZM8 15.25C7.58579 15.25 7.25 15.5858 7.25 16C7.25 16.4142 7.58579 16.75 8 16.75H10C10.4142 16.75 10.75 16.4142 10.75 16C10.75 15.5858 10.4142 15.25 10 15.25H8Z" fill="#22282F"/>
</svg>
