<svg width="24" height="24" viewBox="0 0 24 24" fill="none" xmlns="http://www.w3.org/2000/svg">
<path fill-rule="evenodd" clip-rule="evenodd" d="M8 2.25H7.94513C6.57754 2.24998 5.47522 2.24996 4.60825 2.36652C3.70814 2.48754 2.95027 2.74643 2.34835 3.34835C1.74643 3.95027 1.48754 4.70814 1.36652 5.60825C1.24996 6.47522 1.24998 7.57754 1.25 8.94513V9V15V15.0549C1.24998 16.4225 1.24996 17.5248 1.36652 18.3918C1.48754 19.2919 1.74643 20.0497 2.34835 20.6517C2.95027 21.2536 3.70814 21.5125 4.60825 21.6335C5.47522 21.75 6.57754 21.75 7.94513 21.75H8H10H10.0549C11.4225 21.75 12.5248 21.75 13.3918 21.6335C14.2919 21.5125 15.0497 21.2536 15.6517 20.6517C16.2536 20.0497 16.5125 19.2919 16.6335 18.3918C16.75 17.5248 16.75 16.4225 16.75 15.0549V15.0549V15.0549V15.0549V15.0549V15.0549V15V9V8.94513V8.94512V8.94511V8.94511V8.9451V8.94509C16.75 7.57752 16.75 6.47521 16.6335 5.60825C16.5125 4.70814 16.2536 3.95027 15.6517 3.34835C15.0497 2.74643 14.2919 2.48754 13.3918 2.36652C12.5248 2.24996 11.4225 2.24998 10.0549 2.25H10H8ZM3.40901 4.40901C3.68577 4.13225 4.07435 3.9518 4.80812 3.85315C5.56347 3.75159 6.56459 3.75 8 3.75H10C11.4354 3.75 12.4365 3.75159 13.1919 3.85315C13.9257 3.9518 14.3142 4.13225 14.591 4.40901C14.8678 4.68577 15.0482 5.07435 15.1469 5.80812C15.2484 6.56347 15.25 7.56458 15.25 9V15C15.25 16.4354 15.2484 17.4365 15.1469 18.1919C15.0482 18.9257 14.8678 19.3142 14.591 19.591C14.3142 19.8678 13.9257 20.0482 13.1919 20.1469C12.4365 20.2484 11.4354 20.25 10 20.25H8C6.56458 20.25 5.56347 20.2484 4.80812 20.1469C4.07435 20.0482 3.68577 19.8678 3.40901 19.591C3.13225 19.3142 2.9518 18.9257 2.85315 18.1919C2.75159 17.4365 2.75 16.4354 2.75 15V9C2.75 7.56458 2.75159 6.56347 2.85315 5.80812C2.9518 5.07435 3.13225 4.68577 3.40901 4.40901ZM6 6.25C5.58579 6.25 5.25 6.58579 5.25 7C5.25 7.41421 5.58579 7.75 6 7.75H12C12.4142 7.75 12.75 7.41421 12.75 7C12.75 6.58579 12.4142 6.25 12 6.25H6ZM5.25 11C5.25 10.5858 5.58579 10.25 6 10.25H10C10.4142 10.25 10.75 10.5858 10.75 11C10.75 11.4142 10.4142 11.75 10 11.75H6C5.58579 11.75 5.25 11.4142 5.25 11ZM6 14.25C5.58579 14.25 5.25 14.5858 5.25 15C5.25 15.4142 5.58579 15.75 6 15.75H8C8.41421 15.75 8.75 15.4142 8.75 15C8.75 14.5858 8.41421 14.25 8 14.25H6ZM19 5.25C19.4142 5.25 19.75 5.58579 19.75 6V18C19.75 18.4142 19.4142 18.75 19 18.75C18.5858 18.75 18.25 18.4142 18.25 18V6C18.25 5.58579 18.5858 5.25 19 5.25ZM22.75 8C22.75 7.58579 22.4142 7.25 22 7.25C21.5858 7.25 21.25 7.58579 21.25 8V16C21.25 16.4142 21.5858 16.75 22 16.75C22.4142 16.75 22.75 16.4142 22.75 16V8Z" fill="#22282F"/>
</svg>
