<svg width="24" height="24" viewBox="0 0 24 24" fill="none" xmlns="http://www.w3.org/2000/svg">
<path fill-rule="evenodd" clip-rule="evenodd" d="M11 2.25H10.9451C9.57754 2.24998 8.47522 2.24996 7.60825 2.36652C6.70814 2.48754 5.95027 2.74643 5.34835 3.34835C4.82762 3.86908 4.56362 4.50654 4.42352 5.25183C4.21269 5.25412 4.02346 5.25925 3.85464 5.27077C3.53754 5.29241 3.23801 5.33905 2.94762 5.45933C2.27379 5.73844 1.73844 6.27379 1.45933 6.94762C1.33905 7.23801 1.29241 7.53754 1.27077 7.85464C1.24999 8.15925 1.24999 8.53028 1.25 8.97474V8.97475V9V15V15.0253V15.0253C1.24999 15.4697 1.24999 15.8408 1.27077 16.1454C1.29241 16.4625 1.33905 16.762 1.45933 17.0524C1.73844 17.7262 2.27379 18.2616 2.94762 18.5407C3.23801 18.661 3.53754 18.7076 3.85464 18.7292C4.02346 18.7407 4.21269 18.7459 4.42352 18.7482C4.56362 19.4935 4.82762 20.1309 5.34835 20.6517C5.95027 21.2536 6.70814 21.5125 7.60825 21.6335C8.47522 21.75 9.57754 21.75 10.9451 21.75H11H13H13.0549C14.4225 21.75 15.5248 21.75 16.3918 21.6335C17.2919 21.5125 18.0497 21.2536 18.6517 20.6517C19.1724 20.1309 19.4364 19.4935 19.5765 18.7482C19.7873 18.7459 19.9765 18.7407 20.1454 18.7292C20.4625 18.7076 20.762 18.661 21.0524 18.5407C21.7262 18.2616 22.2616 17.7262 22.5407 17.0524C22.661 16.762 22.7076 16.4625 22.7292 16.1454C22.75 15.8408 22.75 15.4697 22.75 15.0253V15V9V8.97475C22.75 8.53029 22.75 8.15925 22.7292 7.85464C22.7076 7.53754 22.661 7.23801 22.5407 6.94762C22.2616 6.27379 21.7262 5.73844 21.0524 5.45933C20.762 5.33905 20.4625 5.29241 20.1454 5.27077C19.9765 5.25925 19.7873 5.25412 19.5765 5.25183C19.4364 4.50654 19.1724 3.86908 18.6517 3.34835C18.0497 2.74643 17.2919 2.48754 16.3918 2.36652C15.5248 2.24996 14.4225 2.24998 13.0549 2.25H13H11ZM19.7245 6.75428C19.75 7.39252 19.75 8.12061 19.75 8.94513V9V15V15.0549C19.75 15.8794 19.75 16.6075 19.7245 17.2457C19.8443 17.2432 19.949 17.2391 20.0433 17.2327C20.284 17.2163 20.4012 17.1868 20.4784 17.1549C20.7846 17.028 21.028 16.7846 21.1549 16.4784C21.1868 16.4012 21.2163 16.284 21.2327 16.0433C21.2496 15.7958 21.25 15.4762 21.25 15V9C21.25 8.5238 21.2496 8.20421 21.2327 7.95674C21.2163 7.71602 21.1868 7.5988 21.1549 7.52165C21.028 7.21536 20.7846 6.97202 20.4784 6.84515C20.4012 6.81319 20.284 6.78372 20.0433 6.76729C19.949 6.76086 19.8443 6.75682 19.7245 6.75428ZM3.95674 6.76729C4.05098 6.76086 4.15568 6.75682 4.27551 6.75428C4.24998 7.39251 4.24999 8.12061 4.25 8.94513L4.25 9V15L4.25 15.0549C4.24999 15.8794 4.24998 16.6075 4.27551 17.2457C4.15568 17.2432 4.05098 17.2391 3.95674 17.2327C3.71602 17.2163 3.5988 17.1868 3.52165 17.1549C3.21536 17.028 2.97202 16.7846 2.84515 16.4784C2.81319 16.4012 2.78372 16.284 2.76729 16.0433C2.75041 15.7958 2.75 15.4762 2.75 15V9C2.75 8.5238 2.75041 8.20421 2.76729 7.95674C2.78372 7.71602 2.81319 7.5988 2.84515 7.52165C2.97202 7.21536 3.21536 6.97202 3.52165 6.84515C3.5988 6.81319 3.71602 6.78372 3.95674 6.76729ZM6.40901 4.40901C6.68577 4.13225 7.07435 3.9518 7.80812 3.85315C8.56347 3.75159 9.56458 3.75 11 3.75H13C14.4354 3.75 15.4365 3.75159 16.1919 3.85315C16.9257 3.9518 17.3142 4.13225 17.591 4.40901C17.8678 4.68577 18.0482 5.07435 18.1469 5.80812C18.2484 6.56347 18.25 7.56458 18.25 9V15C18.25 16.4354 18.2484 17.4365 18.1469 18.1919C18.0482 18.9257 17.8678 19.3142 17.591 19.591C17.3142 19.8678 16.9257 20.0482 16.1919 20.1469C15.4365 20.2484 14.4354 20.25 13 20.25H11C9.56458 20.25 8.56347 20.2484 7.80812 20.1469C7.07435 20.0482 6.68577 19.8678 6.40901 19.591C6.13225 19.3142 5.9518 18.9257 5.85315 18.1919C5.75159 17.4365 5.75 16.4354 5.75 15V9C5.75 7.56458 5.75159 6.56347 5.85315 5.80812C5.9518 5.07435 6.13225 4.68577 6.40901 4.40901ZM9 6.25C8.58579 6.25 8.25 6.58579 8.25 7C8.25 7.41421 8.58579 7.75 9 7.75H15C15.4142 7.75 15.75 7.41421 15.75 7C15.75 6.58579 15.4142 6.25 15 6.25H9ZM8.25 11C8.25 10.5858 8.58579 10.25 9 10.25H13C13.4142 10.25 13.75 10.5858 13.75 11C13.75 11.4142 13.4142 11.75 13 11.75H9C8.58579 11.75 8.25 11.4142 8.25 11ZM9 14.25C8.58579 14.25 8.25 14.5858 8.25 15C8.25 15.4142 8.58579 15.75 9 15.75H11C11.4142 15.75 11.75 15.4142 11.75 15C11.75 14.5858 11.4142 14.25 11 14.25H9Z" fill="#22282F"/>
</svg>
