<svg width="24" height="24" viewBox="0 0 24 24" fill="none" xmlns="http://www.w3.org/2000/svg">
<path fill-rule="evenodd" clip-rule="evenodd" d="M9.94358 2.25H10H14H14.0564C15.8942 2.24998 17.3498 2.24997 18.489 2.40313C19.6614 2.56076 20.6104 2.89288 21.3588 3.64124C22.1071 4.38961 22.4392 5.33856 22.5969 6.51098C22.75 7.65018 22.75 9.1058 22.75 10.9435V10.9436V11V13V13.0564V13.0565C22.75 14.8942 22.75 16.3498 22.5969 17.489C22.4392 18.6614 22.1071 19.6104 21.3588 20.3588C20.6104 21.1071 19.6614 21.4392 18.489 21.5969C17.3498 21.75 15.8942 21.75 14.0565 21.75H14.0564H14H10H9.94359H9.94354C8.1058 21.75 6.65018 21.75 5.51098 21.5969C4.33856 21.4392 3.38961 21.1071 2.64124 20.3588C1.89288 19.6104 1.56076 18.6614 1.40313 17.489C1.24997 16.3498 1.24998 14.8942 1.25 13.0564V13V11V10.9436C1.24998 9.10582 1.24997 7.65019 1.40313 6.51098C1.56076 5.33856 1.89288 4.38961 2.64124 3.64124C3.38961 2.89288 4.33856 2.56076 5.51098 2.40313C6.65019 2.24997 8.10582 2.24998 9.94358 2.25ZM5.71085 3.88976C4.70476 4.02502 4.12511 4.27869 3.7019 4.7019C3.27869 5.12511 3.02502 5.70476 2.88976 6.71085C2.75159 7.73851 2.75 9.09318 2.75 11V13C2.75 14.9068 2.75159 16.2615 2.88976 17.2892C3.02502 18.2952 3.27869 18.8749 3.7019 19.2981C4.12511 19.7213 4.70476 19.975 5.71085 20.1102C6.73851 20.2484 8.09318 20.25 10 20.25H14C15.9068 20.25 17.2615 20.2484 18.2892 20.1102C19.2952 19.975 19.8749 19.7213 20.2981 19.2981C20.7213 18.8749 20.975 18.2952 21.1102 17.2892C21.2484 16.2615 21.25 14.9068 21.25 13V11C21.25 9.09318 21.2484 7.73851 21.1102 6.71085C20.975 5.70476 20.7213 5.12511 20.2981 4.7019C19.8749 4.27869 19.2952 4.02502 18.2892 3.88976C17.2615 3.75159 15.9068 3.75 14 3.75H10C8.09318 3.75 6.73851 3.75159 5.71085 3.88976ZM8.95525 8.25L9 8.25H9.5L9.52176 8.25C9.73603 8.24999 9.93288 8.24998 10.0982 8.26126C10.2759 8.27338 10.4712 8.30099 10.6697 8.38321C11.0985 8.56083 11.4392 8.90151 11.6168 9.3303C11.699 9.52881 11.7266 9.72415 11.7387 9.90179C11.75 10.0671 11.75 10.264 11.75 10.4782L11.75 10.5H10.25C10.25 10.2568 10.2496 10.1119 10.2422 10.0039C10.2377 9.93707 10.2316 9.90866 10.2297 9.90131C10.2044 9.84248 10.1575 9.79558 10.0987 9.7703C10.0913 9.76844 10.0629 9.76234 9.9961 9.75778C9.8881 9.75041 9.74323 9.75 9.5 9.75H9C8.50739 9.75 8.21339 9.75159 8.00266 9.77992C7.90611 9.79291 7.85774 9.8082 7.83596 9.81716C7.83092 9.81923 7.8276 9.82085 7.82567 9.82186L7.82324 9.82324L7.82186 9.82567C7.82085 9.8276 7.81923 9.83092 7.81716 9.83597C7.8082 9.85775 7.79291 9.90611 7.77992 10.0027C7.75159 10.2134 7.75 10.5074 7.75 11V13C7.75 13.4926 7.75159 13.7866 7.77992 13.9973C7.79291 14.0939 7.8082 14.1423 7.81716 14.164C7.81923 14.1691 7.82085 14.1724 7.82186 14.1743L7.82317 14.1767C7.82277 14.1763 7.8228 14.1763 7.82307 14.1766L7.82283 14.1765L7.82317 14.1767L7.82319 14.1768L7.82359 14.1771C7.8236 14.1771 7.82353 14.1771 7.8234 14.177L7.82322 14.1768L7.82317 14.1767L7.82324 14.1768L7.82567 14.1781C7.8276 14.1791 7.83092 14.1808 7.83596 14.1828C7.85774 14.1918 7.90611 14.2071 8.00266 14.2201C8.21339 14.2484 8.50739 14.25 9 14.25H9.5C9.74323 14.25 9.8881 14.2496 9.9961 14.2422C10.0629 14.2377 10.0913 14.2316 10.0987 14.2297C10.1575 14.2044 10.2044 14.1575 10.2297 14.0987C10.2316 14.0913 10.2377 14.0629 10.2422 13.9961C10.2496 13.8881 10.25 13.7432 10.25 13.5H11.75L11.75 13.5218C11.75 13.736 11.75 13.9329 11.7387 14.0982C11.7266 14.2759 11.699 14.4712 11.6168 14.6697C11.4392 15.0985 11.0985 15.4392 10.6697 15.6168C10.4712 15.699 10.2759 15.7266 10.0982 15.7387C9.93288 15.75 9.73604 15.75 9.52176 15.75L9.5 15.75H9L8.95526 15.75C8.52244 15.7501 8.12561 15.7501 7.80279 15.7067C7.44731 15.6589 7.07159 15.5465 6.76256 15.2374C6.45354 14.9284 6.34109 14.5527 6.2933 14.1972C6.2499 13.8744 6.24995 13.4776 6.25 13.0447L6.25 13V11L6.25 10.9553C6.24995 10.5224 6.2499 10.1256 6.2933 9.80279C6.34109 9.44731 6.45354 9.07159 6.76256 8.76256C7.07159 8.45354 7.44731 8.34109 7.80279 8.2933C8.1256 8.2499 8.52243 8.24995 8.95524 8.25H8.95525ZM15.5 8.25L15.4553 8.25H15.4552C15.0224 8.24995 14.6256 8.2499 14.3028 8.2933C13.9473 8.34109 13.5716 8.45354 13.2626 8.76256C12.9535 9.07159 12.8411 9.44731 12.7933 9.80279C12.7499 10.1256 12.7499 10.5224 12.75 10.9552V10.9553L12.75 11V13L12.75 13.0447V13.0448C12.7499 13.4776 12.7499 13.8744 12.7933 14.1972C12.8411 14.5527 12.9535 14.9284 13.2626 15.2374C13.5716 15.5465 13.9473 15.6589 14.3028 15.7067C14.6256 15.7501 15.0224 15.7501 15.4553 15.75L15.5 15.75H16L16.0218 15.75C16.236 15.75 16.4329 15.75 16.5982 15.7387C16.7759 15.7266 16.9712 15.699 17.1697 15.6168C17.5985 15.4392 17.9392 15.0985 18.1168 14.6697C18.199 14.4712 18.2266 14.2759 18.2387 14.0982C18.25 13.9329 18.25 13.736 18.25 13.5218V13.5H16.75C16.75 13.7432 16.7496 13.8881 16.7422 13.9961C16.7377 14.0629 16.7316 14.0913 16.7297 14.0987C16.7044 14.1575 16.6575 14.2044 16.5987 14.2297C16.5913 14.2316 16.5629 14.2377 16.4961 14.2422C16.3881 14.2496 16.2432 14.25 16 14.25H15.5C15.0074 14.25 14.7134 14.2484 14.5027 14.2201C14.4061 14.2071 14.3577 14.1918 14.336 14.1828C14.3332 14.1817 14.331 14.1807 14.3292 14.1799C14.3277 14.1792 14.3266 14.1786 14.3257 14.1781L14.3232 14.1768L14.3232 14.1767L14.3219 14.1743C14.3209 14.1724 14.3192 14.1691 14.3172 14.164C14.3082 14.1423 14.2929 14.0939 14.2799 13.9973C14.2516 13.7866 14.25 13.4926 14.25 13V11C14.25 10.5074 14.2516 10.2134 14.2799 10.0027C14.2929 9.90611 14.3082 9.85775 14.3172 9.83597C14.3192 9.83092 14.3209 9.8276 14.3219 9.82567L14.3232 9.82324L14.3257 9.82186C14.3276 9.82085 14.3309 9.81923 14.336 9.81716C14.3577 9.8082 14.4061 9.79291 14.5027 9.77992C14.7134 9.75159 15.0074 9.75 15.5 9.75H16C16.2432 9.75 16.3881 9.75041 16.4961 9.75778C16.5629 9.76234 16.5913 9.76844 16.5987 9.7703C16.6575 9.79558 16.7044 9.84248 16.7297 9.90131C16.7316 9.90866 16.7377 9.93707 16.7422 10.0039C16.7496 10.1119 16.75 10.2568 16.75 10.5H18.25V10.4782C18.25 10.264 18.25 10.0671 18.2387 9.90179C18.2266 9.72415 18.199 9.52881 18.1168 9.3303C17.9392 8.90151 17.5985 8.56083 17.1697 8.38321C16.9712 8.30099 16.7759 8.27338 16.5982 8.26126C16.4329 8.24998 16.236 8.24999 16.0218 8.25L16 8.25H15.5ZM14.3232 14.1767L14.3228 14.1765L14.3231 14.1766C14.3228 14.1763 14.3228 14.1763 14.3232 14.1767ZM14.3232 14.1767L14.3232 14.1768L14.3235 14.177C14.3234 14.177 14.3233 14.1769 14.3232 14.1768L14.3232 14.1767Z" fill="#22282F"/>
</svg>
