<svg width="24" height="24" viewBox="0 0 24 24" fill="none" xmlns="http://www.w3.org/2000/svg">
<path fill-rule="evenodd" clip-rule="evenodd" d="M10 2.25L9.94358 2.25L9.94356 2.25C8.10581 2.24999 6.65018 2.24997 5.51098 2.40314C4.33855 2.56077 3.3896 2.89288 2.64124 3.64125C1.89288 4.38961 1.56076 5.33856 1.40313 6.51098C1.24997 7.65019 1.24998 9.10582 1.25 10.9436L1.25 10.9436L1.25 11L1.25 13L1.25 13.0564L1.25 13.0564C1.24998 14.8942 1.24997 16.3498 1.40313 17.489C1.56076 18.6614 1.89288 19.6104 2.64124 20.3588C3.38961 21.1071 4.33855 21.4392 5.51098 21.5969C6.65018 21.75 8.1058 21.75 9.94354 21.75L9.94359 21.75L10 21.75L14 21.75L14.0564 21.75L14.0565 21.75C15.8942 21.75 17.3498 21.75 18.489 21.5969C19.6614 21.4392 20.6104 21.1071 21.3588 20.3588C22.1071 19.6104 22.4392 18.6614 22.5969 17.489C22.75 16.3498 22.75 14.8942 22.75 13.0564L22.75 13L22.75 11L22.75 10.9436L22.75 10.9435C22.75 9.10581 22.75 7.65019 22.5969 6.51098C22.4392 5.33856 22.1071 4.38961 21.3588 3.64125C20.6104 2.89288 19.6614 2.56077 18.489 2.40314C17.3498 2.24997 15.8942 2.24999 14.0564 2.25L14 2.25L10 2.25ZM3.7019 4.70191C4.12511 4.2787 4.70476 4.02503 5.71085 3.88976C6.73851 3.7516 8.09318 3.75 10 3.75L14 3.75C15.9068 3.75 17.2615 3.7516 18.2892 3.88976C19.2952 4.02503 19.8749 4.2787 20.2981 4.70191C20.7213 5.12512 20.975 5.70476 21.1102 6.71085C21.2484 7.73852 21.25 9.09318 21.25 11L21.25 13C21.25 14.9068 21.2484 16.2615 21.1102 17.2892C20.975 18.2952 20.7213 18.8749 20.2981 19.2981C19.8749 19.7213 19.2952 19.975 18.2892 20.1102C17.2615 20.2484 15.9068 20.25 14 20.25L10 20.25C8.09318 20.25 6.73851 20.2484 5.71085 20.1102C4.70476 19.975 4.12511 19.7213 3.7019 19.2981C3.27869 18.8749 3.02502 18.2952 2.88976 17.2892C2.75159 16.2615 2.75 14.9068 2.75 13L2.75 11C2.75 9.09318 2.75159 7.73852 2.88976 6.71085C3.02502 5.70476 3.27869 5.12512 3.7019 4.70191ZM7.75 8C7.75 7.58579 7.41421 7.25 7 7.25C6.58579 7.25 6.25 7.58579 6.25 8L6.25 16C6.25 16.4142 6.58579 16.75 7 16.75C7.41421 16.75 7.75 16.4142 7.75 16L7.75 8ZM12 10.25C12.4142 10.25 12.75 10.5858 12.75 11L12.75 16C12.75 16.4142 12.4142 16.75 12 16.75C11.5858 16.75 11.25 16.4142 11.25 16L11.25 11C11.25 10.5858 11.5858 10.25 12 10.25ZM17.75 9C17.75 8.58579 17.4142 8.25 17 8.25C16.5858 8.25 16.25 8.58579 16.25 9L16.25 16C16.25 16.4142 16.5858 16.75 17 16.75C17.4142 16.75 17.75 16.4142 17.75 16L17.75 9Z" fill="#22282F"/>
</svg>
