<svg width="24" height="24" viewBox="0 0 24 24" fill="none" xmlns="http://www.w3.org/2000/svg">
<path fill-rule="evenodd" clip-rule="evenodd" d="M14.4759 5.41584L14.5254 5.44886L20.9199 9.71183L20.966 9.74258C21.4909 10.0924 21.953 10.4005 22.2767 10.693C22.6209 11.004 22.9472 11.4189 22.9472 12C22.9472 12.581 22.6209 12.9959 22.2767 13.3069C21.953 13.5995 21.4909 13.9075 20.966 14.2574L20.9199 14.2881L14.5254 18.5511L14.4759 18.5841C13.834 19.0121 13.2825 19.3798 12.8238 19.5964C12.3527 19.819 11.7611 19.9885 11.1742 19.6744C10.5874 19.3603 10.4003 18.7741 10.3241 18.2586C10.2499 17.7568 10.2499 17.094 10.25 16.3224L10.25 16.2629V15.4014L5.52541 18.5511L5.47588 18.5841C4.83392 19.0121 4.28246 19.3798 3.82383 19.5964C3.35265 19.819 2.76112 19.9885 2.17424 19.6744C1.58737 19.3603 1.40028 18.7741 1.32408 18.2586C1.24991 17.7569 1.24995 17.094 1.25 16.3225L1.25 16.263V7.73702C1.25 7.71711 1.25 7.69728 1.25 7.67752C1.24995 6.90593 1.24991 6.24311 1.32408 5.74135C1.40028 5.22585 1.58737 4.63965 2.17425 4.32556C2.76114 4.01147 3.35266 4.18098 3.82385 4.40352C4.28248 4.62013 4.83395 4.98783 5.47592 5.41588C5.49237 5.42684 5.50887 5.43785 5.52544 5.44889L10.25 8.59863V7.737L10.25 7.6775C10.2499 6.90591 10.2499 6.24309 10.3241 5.74134C10.4003 5.22584 10.5874 4.63964 11.1742 4.32555C11.7611 4.01146 12.3527 4.18097 12.8238 4.4035C13.2825 4.62011 13.8339 4.98781 14.4759 5.41584ZM11.8556 5.65574C11.8552 5.6551 11.859 5.65385 11.8685 5.65392C11.8608 5.65642 11.8561 5.65638 11.8556 5.65574ZM11.8858 5.65508C11.9275 5.65982 12.0171 5.68136 12.1833 5.75984C12.5293 5.92327 12.9878 6.22655 13.6934 6.69694L20.0878 10.9599C20.6729 11.3499 21.0397 11.5969 21.271 11.8059C21.3802 11.9045 21.4247 11.9653 21.4417 11.9948C21.4429 11.9967 21.4438 11.9984 21.4446 12C21.4438 12.0015 21.4429 12.0032 21.4417 12.0051C21.4247 12.0346 21.3802 12.0954 21.271 12.194C21.0397 12.4031 20.6729 12.65 20.0878 13.04L13.6934 17.303C12.9878 17.7734 12.5293 18.0767 12.1833 18.2401C12.0171 18.3186 11.9275 18.3401 11.8858 18.3449C11.8666 18.3075 11.8348 18.221 11.808 18.0392C11.752 17.6607 11.75 17.1109 11.75 16.2629V14C11.75 13.7234 11.5978 13.4693 11.3539 13.3388C11.11 13.2083 10.8141 13.2226 10.584 13.376L4.69337 17.303C3.9878 17.7734 3.52928 18.0767 3.18325 18.2401C3.01708 18.3186 2.92748 18.3401 2.88579 18.3449C2.8666 18.3075 2.83483 18.221 2.80795 18.0393C2.75199 17.6607 2.75 17.1109 2.75 16.263V7.73702C2.75 6.88902 2.75199 6.33927 2.80796 5.9607C2.83483 5.7789 2.86661 5.6924 2.88579 5.65509C2.92748 5.65983 3.01708 5.68137 3.18325 5.75985C3.52928 5.92328 3.98781 6.22657 4.69338 6.69696L10.584 10.6241C10.8141 10.7775 11.11 10.7918 11.3539 10.6613C11.5978 10.5308 11.75 10.2766 11.75 10V7.737C11.75 6.889 11.752 6.33926 11.808 5.96069C11.8348 5.7789 11.8666 5.69239 11.8858 5.65508ZM2.90308 5.63035C2.90336 5.63109 2.90074 5.63507 2.8944 5.64008C2.89963 5.63212 2.9028 5.62962 2.90308 5.63035ZM2.86853 5.65393C2.86084 5.65643 2.85608 5.65639 2.85562 5.65575C2.85516 5.65511 2.85901 5.65386 2.86853 5.65393ZM2.85562 18.3442C2.85608 18.3436 2.86084 18.3435 2.86853 18.346C2.85901 18.3461 2.85516 18.3448 2.85562 18.3442ZM2.8944 18.3599C2.90074 18.3649 2.90335 18.3689 2.90308 18.3696C2.9028 18.3703 2.89962 18.3678 2.8944 18.3599ZM11.8556 18.3442C11.8561 18.3435 11.8608 18.3435 11.8685 18.346C11.859 18.3461 11.8552 18.3448 11.8556 18.3442ZM11.8944 18.3599C11.9007 18.3649 11.9034 18.3689 11.9031 18.3696C11.9028 18.3703 11.8996 18.3678 11.8944 18.3599ZM11.8944 5.64007C11.8996 5.63211 11.9028 5.62961 11.9031 5.63034C11.9034 5.63108 11.9007 5.63506 11.8944 5.64007Z" fill="#22282F"/>
</svg>
