<svg width="24" height="24" viewBox="0 0 24 24" fill="none" xmlns="http://www.w3.org/2000/svg">
<path fill-rule="evenodd" clip-rule="evenodd" d="M11.8167 5.75981C11.4707 5.92324 11.0122 6.22652 10.3066 6.69691L3.91213 10.9599C3.3271 11.3499 2.96025 11.5968 2.72894 11.8059C2.61979 11.9045 2.57523 11.9653 2.55821 11.9948C2.5571 11.9967 2.55615 11.9984 2.55534 11.9999C2.55615 12.0015 2.5571 12.0032 2.55821 12.0051C2.57523 12.0346 2.61979 12.0954 2.72894 12.194C2.96025 12.403 3.3271 12.65 3.91213 13.04L10.3066 17.303C11.0122 17.7733 11.4707 18.0766 11.8167 18.2401C11.9829 18.3185 12.0725 18.3401 12.1142 18.3448C12.1334 18.3075 12.1651 18.221 12.192 18.0392C12.248 17.6606 12.25 17.1109 12.25 16.2629V14C12.25 13.7234 12.4022 13.4693 12.6461 13.3387C12.8899 13.2082 13.1858 13.2225 13.416 13.376L19.3066 17.303C20.0122 17.7734 20.4707 18.0766 20.8167 18.2401C20.9829 18.3186 21.0725 18.3401 21.1142 18.3448C21.1334 18.3075 21.1651 18.221 21.192 18.0392C21.248 17.6607 21.25 17.1109 21.25 16.2629V7.73699C21.25 6.88899 21.248 6.33924 21.192 5.96067C21.1651 5.77888 21.1334 5.69238 21.1142 5.65506C21.0725 5.6598 20.9829 5.68134 20.8167 5.75982C20.4707 5.92325 20.0122 6.22654 19.3066 6.69693L13.416 10.624C13.1858 10.7775 12.8899 10.7918 12.6461 10.6613C12.4022 10.5307 12.25 10.2766 12.25 10V7.73697C12.25 6.88897 12.248 6.33923 12.192 5.96066C12.1651 5.77887 12.1333 5.69236 12.1142 5.65505C12.0725 5.65979 11.9829 5.68133 11.8167 5.75981ZM12.1443 5.65571C12.1439 5.65635 12.1391 5.65638 12.1314 5.65389C12.141 5.65382 12.1448 5.65507 12.1443 5.65571ZM12.1056 5.64004C12.0992 5.63503 12.0966 5.63105 12.0969 5.63031C12.0972 5.62958 12.1003 5.63208 12.1056 5.64004ZM21.1443 5.65572C21.1439 5.65636 21.1391 5.6564 21.1314 5.6539C21.141 5.65383 21.1448 5.65508 21.1443 5.65572ZM21.1056 5.64005C21.0992 5.63504 21.0966 5.63106 21.0969 5.63032C21.0972 5.62959 21.1003 5.63209 21.1056 5.64005ZM21.0969 18.3696C21.0966 18.3688 21.0992 18.3649 21.1056 18.3598C21.1003 18.3678 21.0972 18.3703 21.0969 18.3696ZM21.1314 18.346C21.1391 18.3435 21.1439 18.3435 21.1443 18.3442C21.1448 18.3448 21.1409 18.3461 21.1314 18.346ZM12.0969 18.3696C12.0966 18.3688 12.0992 18.3648 12.1056 18.3598C12.1003 18.3678 12.0972 18.3703 12.0969 18.3696ZM12.1314 18.346C12.1391 18.3435 12.1439 18.3435 12.1443 18.3442C12.1448 18.3448 12.141 18.346 12.1314 18.346ZM11.1761 4.40347C11.6473 4.18094 12.2388 4.01143 12.8257 4.32552C13.4126 4.63961 13.5997 5.22581 13.6759 5.74131C13.7501 6.24306 13.75 6.90588 13.75 7.67746L13.75 7.73697V8.5986L18.4745 5.44886L18.5241 5.41583C19.166 4.9878 19.7175 4.6201 20.1761 4.40349C20.6473 4.18095 21.2388 4.01144 21.8257 4.32553C22.4126 4.63962 22.5997 5.22582 22.6759 5.74132C22.7501 6.24307 22.75 6.90588 22.75 7.67746L22.75 7.73699V16.2629L22.75 16.3225C22.75 17.094 22.7501 17.7568 22.6759 18.2586C22.5997 18.7741 22.4126 19.3603 21.8257 19.6744C21.2388 19.9884 20.6473 19.8189 20.1761 19.5964C19.7175 19.3798 19.166 19.0121 18.5241 18.5841L18.4745 18.5511L13.75 15.4014V16.2629L13.75 16.3224C13.75 17.094 13.7501 17.7568 13.6759 18.2586C13.5997 18.7741 13.4126 19.3603 12.8257 19.6743C12.2388 19.9884 11.6473 19.8189 11.1761 19.5964C10.7175 19.3798 10.166 19.0121 9.52402 18.584L9.47453 18.551L3.08008 14.2881C3.06465 14.2778 3.04927 14.2675 3.03394 14.2573C2.50909 13.9075 2.04691 13.5994 1.72322 13.3069C1.3791 12.9959 1.05273 12.581 1.05273 11.9999C1.05273 11.4189 1.3791 11.004 1.72322 10.693C2.04691 10.4005 2.50909 10.0924 3.03393 9.74256C3.04926 9.73234 3.06465 9.72209 3.08008 9.7118L9.47453 5.44883L9.52406 5.41581C10.166 4.98778 10.7175 4.62008 11.1761 4.40347Z" fill="#22282F"/>
</svg>
