<svg width="24" height="24" viewBox="0 0 24 24" fill="none" xmlns="http://www.w3.org/2000/svg">
<path fill-rule="evenodd" clip-rule="evenodd" d="M9 2.25H8.94513C8.63161 2.25 8.33204 2.24999 8.04605 2.25139C8.03082 2.25047 8.01546 2.25 8 2.25C7.98169 2.25 7.96353 2.25066 7.94555 2.25195C7.02806 2.25763 6.25306 2.27983 5.60825 2.36652C4.70814 2.48754 3.95027 2.74643 3.34835 3.34835C2.74643 3.95027 2.48754 4.70814 2.36652 5.60825C2.31805 5.9688 2.28974 6.37005 2.2732 6.81417C2.25805 6.87359 2.25 6.93586 2.25 7C2.25 7.04818 2.25454 7.0953 2.26323 7.14096C2.24998 7.68236 2.24999 8.28262 2.25 8.94513V9V12V15V15.0549C2.24999 15.7174 2.24998 16.3176 2.26323 16.859C2.25454 16.9047 2.25 16.9518 2.25 17C2.25 17.0641 2.25805 17.1264 2.2732 17.1858C2.28974 17.6299 2.31805 18.0312 2.36652 18.3918C2.48754 19.2919 2.74643 20.0497 3.34835 20.6517C3.95027 21.2536 4.70814 21.5125 5.60825 21.6335C6.25306 21.7202 7.02806 21.7424 7.94555 21.7481C7.96353 21.7493 7.98169 21.75 8 21.75C8.01546 21.75 8.03082 21.7495 8.04605 21.7486C8.33204 21.75 8.63162 21.75 8.94513 21.75H9H15H15.0549C15.3684 21.75 15.668 21.75 15.9539 21.7486C15.9692 21.7495 15.9845 21.75 16 21.75C16.0183 21.75 16.0365 21.7493 16.0544 21.7481C16.9719 21.7424 17.7469 21.7202 18.3918 21.6335C19.2919 21.5125 20.0497 21.2536 20.6517 20.6517C21.2536 20.0497 21.5125 19.2919 21.6335 18.3918C21.682 18.0312 21.7103 17.6299 21.7268 17.1858C21.7419 17.1264 21.75 17.0641 21.75 17C21.75 16.9518 21.7455 16.9047 21.7368 16.8591C21.75 16.3177 21.75 15.7175 21.75 15.055V15.0549V15V12V9V8.94513V8.945V8.94486C21.75 8.28245 21.75 7.68228 21.7368 7.14095C21.7455 7.09529 21.75 7.04818 21.75 7C21.75 6.93586 21.7419 6.87359 21.7268 6.81417C21.7103 6.37006 21.682 5.9688 21.6335 5.60825C21.5125 4.70814 21.2536 3.95027 20.6517 3.34835C20.0497 2.74643 19.2919 2.48754 18.3918 2.36652C17.7469 2.27983 16.9719 2.25763 16.0544 2.25195C16.0365 2.25066 16.0183 2.25 16 2.25C15.9845 2.25 15.9692 2.25047 15.9539 2.25139C15.668 2.24999 15.3684 2.25 15.0549 2.25H15H9ZM3.80673 17.75C3.81924 17.9063 3.83451 18.0533 3.85315 18.1919C3.9518 18.9257 4.13225 19.3142 4.40901 19.591C4.68577 19.8678 5.07435 20.0482 5.80812 20.1469C6.2098 20.2009 6.68097 20.2266 7.25 20.2389V17.75H3.80673ZM7.25 16.25H3.75371C3.75016 15.8736 3.75 15.459 3.75 15V12.75H7.25V16.25ZM8.75 17V20.25L9 20.25H15L15.25 20.25V17V12.75H8.75V17ZM20.25 15C20.25 15.459 20.2498 15.8736 20.2463 16.25H16.75V12.75H20.25V15ZM20.1933 17.75H16.75V20.2389C17.319 20.2266 17.7902 20.2009 18.1919 20.1469C18.9257 20.0482 19.3142 19.8678 19.591 19.591C19.8678 19.3142 20.0482 18.9257 20.1469 18.1919C20.1655 18.0533 20.1808 17.9063 20.1933 17.75ZM20.1933 6.25C20.1808 6.09365 20.1655 5.94675 20.1469 5.80812C20.0482 5.07435 19.8678 4.68577 19.591 4.40901C19.3142 4.13225 18.9257 3.9518 18.1919 3.85315C17.7902 3.79914 17.319 3.77341 16.75 3.76115V6.25H20.1933ZM15.25 7V3.75004L15 3.75H9L8.75 3.75004V7V11.25H15.25V7ZM16.75 7.75H20.2463C20.2498 8.12636 20.25 8.54098 20.25 9V11.25H16.75V7.75ZM3.75 9C3.75 8.54098 3.75016 8.12636 3.75371 7.75H7.25V11.25H3.75V9ZM3.80673 6.25H7.25V3.76115C6.68097 3.77341 6.2098 3.79914 5.80812 3.85315C5.07435 3.9518 4.68577 4.13225 4.40901 4.40901C4.13225 4.68577 3.9518 5.07435 3.85315 5.80812C3.83451 5.94675 3.81924 6.09365 3.80673 6.25Z" fill="#22282F"/>
</svg>
