<svg width="24" height="24" viewBox="0 0 24 24" fill="none" xmlns="http://www.w3.org/2000/svg">
<path fill-rule="evenodd" clip-rule="evenodd" d="M10 3.74999H10.0754L12.1754 7.24999H8.44131L6.53057 3.81066C7.43725 3.7509 8.56151 3.74999 10 3.74999ZM4.94063 4.03747C4.38358 4.18535 4.00312 4.40068 3.7019 4.70189C3.27869 5.1251 3.02502 5.70475 2.88976 6.71084C2.86685 6.88123 2.8477 7.0606 2.83168 7.24999H6.72537L4.94063 4.03747ZM7.98673 8.74999H2.76309C2.75032 9.40272 2.75 10.146 2.75 11V13C2.75 14.9068 2.75159 16.2615 2.88976 17.2891C3.02502 18.2952 3.27869 18.8749 3.7019 19.2981C4.12511 19.7213 4.70476 19.975 5.71085 20.1102C6.73851 20.2484 8.09318 20.25 10 20.25H14C15.9068 20.25 17.2615 20.2484 18.2892 20.1102C19.2952 19.975 19.8749 19.7213 20.2981 19.2981C20.7213 18.8749 20.975 18.2952 21.1102 17.2891C21.2484 16.2615 21.25 14.9068 21.25 13V11C21.25 10.146 21.2497 9.40272 21.2369 8.74999H19.0137C19.005 8.75014 18.9964 8.75014 18.9877 8.74999H13.5137C13.505 8.75014 13.4964 8.75014 13.4877 8.74999H8.01462C8.00532 8.75016 7.99602 8.75016 7.98673 8.74999ZM11.8246 3.74999L13.9246 7.24999H17.6754L15.5778 3.7541C15.0978 3.75014 14.5739 3.74999 14 3.74999H11.8246ZM14 2.24999H10.5123C10.5036 2.24984 10.495 2.24984 10.4863 2.24999H10L9.94358 2.24999C8.10582 2.24998 6.65019 2.24996 5.51098 2.40313C4.33856 2.56075 3.38961 2.89287 2.64124 3.64123C1.89288 4.3896 1.56076 5.33855 1.40313 6.51097C1.35276 6.88566 1.31895 7.29457 1.29627 7.74005C1.26634 7.82104 1.25 7.90861 1.25 7.99999C1.25 8.06931 1.25941 8.13644 1.27701 8.20016C1.24998 9.00213 1.24999 9.91274 1.25 10.9436V11V13V13.0564C1.24998 14.8942 1.24997 16.3498 1.40313 17.489C1.56076 18.6614 1.89288 19.6104 2.64124 20.3587C3.38961 21.1071 4.33856 21.4392 5.51098 21.5969C6.65018 21.75 8.1058 21.75 9.94354 21.75H9.94359H10H14H14.0564H14.0565C15.8942 21.75 17.3498 21.75 18.489 21.5969C19.6614 21.4392 20.6104 21.1071 21.3588 20.3587C22.1071 19.6104 22.4392 18.6614 22.5969 17.489C22.75 16.3498 22.75 14.8942 22.75 13.0564V13.0564V13V11V10.9436V10.9435V10.9434V10.9433V10.9432C22.75 9.91254 22.75 9.00204 22.723 8.20016C22.7406 8.13643 22.75 8.06931 22.75 7.99999C22.75 7.90861 22.7337 7.82105 22.7037 7.74006C22.681 7.29458 22.6472 6.88566 22.5969 6.51097C22.4392 5.33855 22.1071 4.3896 21.3588 3.64123C20.6104 2.89287 19.6614 2.56075 18.489 2.40313C17.816 2.31264 17.0325 2.27561 16.125 2.26047C16.0497 2.2477 15.9722 2.24635 15.8955 2.25712C15.3299 2.24998 14.7179 2.24999 14.0564 2.24999L14 2.24999ZM19.4246 7.24999L17.3568 3.8036C17.6958 3.82378 18.005 3.85154 18.2892 3.88975C19.2952 4.02502 19.8749 4.27868 20.2981 4.70189C20.7213 5.1251 20.975 5.70475 21.1102 6.71084C21.1331 6.88123 21.1523 7.0606 21.1683 7.24999H19.4246Z" fill="#22282F"/>
</svg>
