<svg width="24" height="24" viewBox="0 0 24 24" fill="none" xmlns="http://www.w3.org/2000/svg">
<path fill-rule="evenodd" clip-rule="evenodd" d="M12 2.25C6.58419 2.25 2.25 6.61682 2.25 12C2.25 17.3848 6.61522 21.75 12 21.75C17.3848 21.75 21.75 17.3848 21.75 12C21.75 11.5858 21.4142 11.25 21 11.25C20.5858 11.25 20.25 11.5858 20.25 12C20.25 16.5563 16.5563 20.25 12 20.25C7.44365 20.25 3.75 16.5563 3.75 12C3.75 7.44205 7.41581 3.75 12 3.75C14.7774 3.75 16.8634 4.9041 18.2699 6.07617C18.9735 6.66257 19.5014 7.24927 19.8518 7.68727C20.0267 7.90587 20.1564 8.08623 20.2408 8.2093C20.283 8.2708 20.3138 8.31788 20.3331 8.34814C20.3428 8.36326 20.3496 8.37417 20.3536 8.38056L20.3569 8.38587L20.3572 8.38637L20.3574 8.38668L20.3575 8.38694L20.3577 8.38717C20.5314 8.67535 20.8758 8.81264 21.2002 8.72279C21.5251 8.6328 21.75 8.33711 21.75 8V3.5C21.75 3.08579 21.4142 2.75 21 2.75C20.5858 2.75 20.25 3.08579 20.25 3.5V5.87217C19.9569 5.56863 19.6171 5.24627 19.2301 4.92383C17.6366 3.5959 15.2226 2.25 12 2.25ZM10 8.24997C9.58579 8.24997 9.25 8.58576 9.25 8.99997V12C9.25 12.4142 9.58579 12.75 10 12.75H13.25V14.25H10C9.58579 14.25 9.25 14.5858 9.25 15C9.25 15.4142 9.58579 15.75 10 15.75H14C14.4142 15.75 14.75 15.4142 14.75 15V12C14.75 11.5858 14.4142 11.25 14 11.25H10.75V9.74997H14C14.4142 9.74997 14.75 9.41418 14.75 8.99997C14.75 8.58576 14.4142 8.24997 14 8.24997H10Z" fill="#22282F"/>
</svg>
