<svg width="24" height="24" viewBox="0 0 24 24" fill="none" xmlns="http://www.w3.org/2000/svg">
<path fill-rule="evenodd" clip-rule="evenodd" d="M2.25 12C2.25 6.61682 6.58419 2.25 12 2.25C15.2226 2.25 17.6366 3.5959 19.2301 4.92383C19.6171 5.24627 19.9569 5.56863 20.25 5.87217V3.5C20.25 3.08579 20.5858 2.75 21 2.75C21.4142 2.75 21.75 3.08579 21.75 3.5V8C21.75 8.33711 21.5251 8.6328 21.2002 8.72279C20.8758 8.81264 20.5314 8.67535 20.3577 8.38717L20.3575 8.38694L20.3574 8.38668L20.3572 8.38637L20.3569 8.38587L20.3536 8.38056C20.3496 8.37417 20.3428 8.36326 20.3331 8.34814C20.3138 8.31788 20.283 8.2708 20.2408 8.2093C20.1564 8.08623 20.0267 7.90587 19.8518 7.68727C19.5014 7.24927 18.9735 6.66257 18.2699 6.07617C16.8634 4.9041 14.7774 3.75 12 3.75C7.41581 3.75 3.75 7.44205 3.75 12C3.75 16.5563 7.44365 20.25 12 20.25C16.5563 20.25 20.25 16.5563 20.25 12C20.25 11.5858 20.5858 11.25 21 11.25C21.4142 11.25 21.75 11.5858 21.75 12C21.75 17.3848 17.3848 21.75 12 21.75C6.61522 21.75 2.25 17.3848 2.25 12ZM9 8.25C9.41421 8.25 9.75 8.58579 9.75 9V15C9.75 15.4142 9.41421 15.75 9 15.75C8.58579 15.75 8.25 15.4142 8.25 15V9C8.25 8.58579 8.58579 8.25 9 8.25ZM12 8.25C11.5858 8.25 11.25 8.58579 11.25 9V12C11.25 12.4142 11.5858 12.75 12 12.75H14.25V14.25H12C11.5858 14.25 11.25 14.5858 11.25 15C11.25 15.4142 11.5858 15.75 12 15.75H15C15.4142 15.75 15.75 15.4142 15.75 15V12C15.75 11.5858 15.4142 11.25 15 11.25H12.75V9.75H15C15.4142 9.75 15.75 9.41421 15.75 9C15.75 8.58579 15.4142 8.25 15 8.25H12Z" fill="#22282F"/>
</svg>
