<svg width="24" height="24" viewBox="0 0 24 24" fill="none" xmlns="http://www.w3.org/2000/svg">
<path fill-rule="evenodd" clip-rule="evenodd" d="M11.9506 1.25H12H12.0494C12.7142 1.24996 13.2871 1.24993 13.7458 1.31161C14.2375 1.3777 14.7087 1.52676 15.091 1.90901C15.4732 2.29126 15.6223 2.76252 15.6884 3.25416C15.7501 3.7129 15.75 4.28575 15.75 4.95061V4.95062V4.95063L15.75 5V5.75736L15.7501 5.86148C15.7509 6.37058 15.7516 6.82241 15.5787 7.23972C15.4059 7.65702 15.0859 7.97602 14.7253 8.33546L14.7253 8.33547L14.6517 8.40901L12.5303 10.5303C12.2374 10.8232 11.7626 10.8232 11.4697 10.5303L9.34835 8.40901L9.27465 8.33546C8.91411 7.97602 8.59412 7.65702 8.42127 7.23972C8.24842 6.82241 8.24911 6.37058 8.24989 5.86147L8.25 5.75736V5L8.25 4.95063C8.24996 4.28576 8.24993 3.7129 8.31161 3.25416C8.3777 2.76252 8.52676 2.29126 8.90901 1.90901C9.29126 1.52676 9.76252 1.3777 10.2542 1.31161C10.7129 1.24993 11.2858 1.24996 11.9506 1.25ZM10.454 2.79823C10.1287 2.84197 10.0268 2.91258 9.96967 2.96967C9.91258 3.02676 9.84197 3.12872 9.79823 3.45403C9.75159 3.80091 9.75 4.27169 9.75 5V5.75736C9.75 6.43168 9.76328 6.55991 9.80709 6.66569C9.85091 6.77147 9.93219 6.87153 10.409 7.34835L12 8.93934L13.591 7.34835C14.0678 6.87153 14.1491 6.77147 14.1929 6.66569C14.2367 6.55991 14.25 6.43168 14.25 5.75736V5C14.25 4.27169 14.2484 3.80091 14.2018 3.45403C14.158 3.12872 14.0874 3.02676 14.0303 2.96967C13.9732 2.91258 13.8713 2.84197 13.546 2.79823C13.1991 2.75159 12.7283 2.75 12 2.75C11.2717 2.75 10.8009 2.75159 10.454 2.79823ZM5.75736 9.75C6.43168 9.75 6.55991 9.76328 6.66569 9.80709C6.77147 9.8509 6.87153 9.93219 7.34835 10.409L8.93934 12L7.34835 13.591C6.87153 14.0678 6.77147 14.1491 6.66569 14.1929C6.55991 14.2367 6.43168 14.25 5.75736 14.25H5C4.27169 14.25 3.80091 14.2484 3.45403 14.2018C3.12872 14.158 3.02676 14.0874 2.96967 14.0303C2.91258 13.9732 2.84197 13.8713 2.79823 13.546C2.75159 13.1991 2.75 12.7283 2.75 12C2.75 11.2717 2.75159 10.8009 2.79823 10.454C2.84197 10.1287 2.91258 10.0268 2.96967 9.96967C3.02676 9.91258 3.12872 9.84196 3.45403 9.79823C3.80091 9.75159 4.27169 9.75 5 9.75H5.75736ZM7.23972 8.42127C6.82241 8.24842 6.37058 8.24911 5.86147 8.24989L5.75736 8.25H5L4.95063 8.25C4.28576 8.24996 3.7129 8.24993 3.25416 8.3116C2.76252 8.3777 2.29126 8.52676 1.90901 8.90901C1.52676 9.29126 1.3777 9.76252 1.31161 10.2542C1.24993 10.7129 1.24996 11.2858 1.25 11.9506V12V12.0494C1.24996 12.7142 1.24993 13.2871 1.31161 13.7458C1.3777 14.2375 1.52676 14.7087 1.90901 15.091C2.29126 15.4732 2.76252 15.6223 3.25416 15.6884C3.71289 15.7501 4.28573 15.75 4.95058 15.75H4.95059H4.95059H4.95063L5 15.75H5.75736L5.86148 15.7501H5.86149C6.37059 15.7509 6.82242 15.7516 7.23972 15.5787C7.65702 15.4059 7.97603 15.0859 8.33546 14.7253L8.40901 14.6516L10.5303 12.5303C10.8232 12.2374 10.8232 11.7626 10.5303 11.4697L8.40901 9.34835L8.33546 9.27465C7.97603 8.91411 7.65702 8.59412 7.23972 8.42127ZM18.2426 8.25L18.1385 8.24989C17.6294 8.24911 17.1776 8.24842 16.7603 8.42127C16.343 8.59412 16.024 8.91411 15.6645 9.27465L15.591 9.34835L13.4697 11.4697C13.1768 11.7626 13.1768 12.2374 13.4697 12.5303L15.591 14.6516L15.6645 14.7253C16.024 15.0859 16.343 15.4059 16.7603 15.5787C17.1776 15.7516 17.6294 15.7509 18.1385 15.7501L18.2426 15.75H19L19.0494 15.75H19.0494C19.7143 15.75 20.2871 15.7501 20.7458 15.6884C21.2375 15.6223 21.7087 15.4732 22.091 15.091C22.4732 14.7087 22.6223 14.2375 22.6884 13.7458C22.7501 13.2871 22.75 12.7143 22.75 12.0495V12.0494L22.75 12L22.75 11.9506V11.9505C22.75 11.2857 22.7501 10.7129 22.6884 10.2542C22.6223 9.76252 22.4732 9.29126 22.091 8.90901C21.7087 8.52676 21.2375 8.3777 20.7458 8.3116C20.2871 8.24993 19.7142 8.24996 19.0494 8.25L19 8.25H18.2426ZM17.3343 9.80709C17.4401 9.76328 17.5683 9.75 18.2426 9.75H19C19.7283 9.75 20.1991 9.75159 20.546 9.79823C20.8713 9.84196 20.9732 9.91258 21.0303 9.96967C21.0874 10.0268 21.158 10.1287 21.2018 10.454C21.2484 10.8009 21.25 11.2717 21.25 12C21.25 12.7283 21.2484 13.1991 21.2018 13.546C21.158 13.8713 21.0874 13.9732 21.0303 14.0303C20.9732 14.0874 20.8713 14.158 20.546 14.2018C20.1991 14.2484 19.7283 14.25 19 14.25H18.2426C17.5683 14.25 17.4401 14.2367 17.3343 14.1929C17.2285 14.1491 17.1285 14.0678 16.6516 13.591L15.0607 12L16.6517 10.409C17.1285 9.93219 17.2285 9.8509 17.3343 9.80709ZM14.7253 15.6645L14.6517 15.591L12.5303 13.4697C12.2374 13.1768 11.7626 13.1768 11.4697 13.4697L9.34835 15.591L9.27465 15.6645C8.91411 16.024 8.59412 16.343 8.42127 16.7603C8.24842 17.1776 8.24911 17.6294 8.24989 18.1385L8.25 18.2426V19L8.25 19.0494C8.24996 19.7142 8.24993 20.2871 8.31161 20.7458C8.3777 21.2375 8.52676 21.7087 8.90901 22.091C9.29126 22.4732 9.76252 22.6223 10.2542 22.6884C10.7129 22.7501 11.2857 22.75 11.9505 22.75H11.9506L12 22.75L12.0494 22.75H12.0495C12.7143 22.75 13.2871 22.7501 13.7458 22.6884C14.2375 22.6223 14.7087 22.4732 15.091 22.091C15.4732 21.7087 15.6223 21.2375 15.6884 20.7458C15.7501 20.2871 15.75 19.7142 15.75 19.0494L15.75 19V18.2426L15.7501 18.1385C15.7509 17.6294 15.7516 17.1776 15.5787 16.7603C15.4059 16.343 15.0859 16.024 14.7253 15.6645ZM10.409 16.6517L12 15.0607L13.591 16.6517C14.0678 17.1285 14.1491 17.2285 14.1929 17.3343C14.2367 17.4401 14.25 17.5683 14.25 18.2426V19C14.25 19.7283 14.2484 20.1991 14.2018 20.546C14.158 20.8713 14.0874 20.9732 14.0303 21.0303C13.9732 21.0874 13.8713 21.158 13.546 21.2018C13.1991 21.2484 12.7283 21.25 12 21.25C11.2717 21.25 10.8009 21.2484 10.454 21.2018C10.1287 21.158 10.0268 21.0874 9.96967 21.0303C9.91258 20.9732 9.84197 20.8713 9.79823 20.546C9.75159 20.1991 9.75 19.7283 9.75 19V18.2426C9.75 17.5683 9.76328 17.4401 9.80709 17.3343C9.85091 17.2285 9.93219 17.1285 10.409 16.6517Z" fill="#22282F"/>
</svg>
