<svg width="24" height="24" viewBox="0 0 24 24" fill="none" xmlns="http://www.w3.org/2000/svg">
<path fill-rule="evenodd" clip-rule="evenodd" d="M10 2.25H9.94358C8.10582 2.24998 6.65019 2.24997 5.51098 2.40313C4.33856 2.56076 3.38961 2.89288 2.64124 3.64124C1.89288 4.38961 1.56076 5.33856 1.40313 6.51098C1.24997 7.65019 1.24998 9.10582 1.25 10.9436V11V13V13.0564C1.24998 14.8942 1.24997 16.3498 1.40313 17.489C1.56076 18.6614 1.89288 19.6104 2.64124 20.3588C3.38961 21.1071 4.33856 21.4392 5.51098 21.5969C6.65018 21.75 8.1058 21.75 9.94354 21.75H9.94359H10H14H14.0564H14.0565C15.8942 21.75 17.3498 21.75 18.489 21.5969C19.6614 21.4392 20.6104 21.1071 21.3588 20.3588C22.1071 19.6104 22.4392 18.6614 22.5969 17.489C22.75 16.3498 22.75 14.8942 22.75 13.0565V13.0564V13V11V10.9436V10.9435C22.75 9.1058 22.75 7.65018 22.5969 6.51098C22.4392 5.33856 22.1071 4.38961 21.3588 3.64124C20.6104 2.89288 19.6614 2.56076 18.489 2.40313C17.3498 2.24997 15.8942 2.24998 14.0564 2.25H14H10ZM3.7019 4.7019C4.12511 4.27869 4.70476 4.02502 5.71085 3.88976C6.73851 3.75159 8.09318 3.75 10 3.75H14C15.9068 3.75 17.2615 3.75159 18.2892 3.88976C19.2952 4.02502 19.8749 4.27869 20.2981 4.7019C20.7213 5.12511 20.975 5.70476 21.1102 6.71085C21.2484 7.73851 21.25 9.09318 21.25 11V13C21.25 14.9068 21.2484 16.2615 21.1102 17.2892C20.975 18.2952 20.7213 18.8749 20.2981 19.2981C19.8749 19.7213 19.2952 19.975 18.2892 20.1102C17.2615 20.2484 15.9068 20.25 14 20.25H10C8.09318 20.25 6.73851 20.2484 5.71085 20.1102C4.70476 19.975 4.12511 19.7213 3.7019 19.2981C3.27869 18.8749 3.02502 18.2952 2.88976 17.2892C2.75159 16.2615 2.75 14.9068 2.75 13V11C2.75 9.09318 2.75159 7.73851 2.88976 6.71085C3.02502 5.70476 3.27869 5.12511 3.7019 4.7019ZM7.75 9C7.75 8.58579 7.41422 8.25 7 8.25C6.58579 8.25 6.25 8.58579 6.25 9V12V15C6.25 15.4142 6.58579 15.75 7 15.75C7.41422 15.75 7.75 15.4142 7.75 15V12.75H10.25V15C10.25 15.4142 10.5858 15.75 11 15.75C11.4142 15.75 11.75 15.4142 11.75 15V12V9C11.75 8.58579 11.4142 8.25 11 8.25C10.5858 8.25 10.25 8.58579 10.25 9V11.25H7.75V9ZM15.5 9.75C14.8096 9.75 14.25 10.3096 14.25 11V13C14.25 13.6904 14.8096 14.25 15.5 14.25C16.1904 14.25 16.75 13.6904 16.75 13V11C16.75 10.3096 16.1904 9.75 15.5 9.75ZM12.75 11C12.75 9.48122 13.9812 8.25 15.5 8.25C17.0188 8.25 18.25 9.48122 18.25 11V13C18.25 13.8713 17.8448 14.648 17.2125 15.1518L17.5303 15.4697C17.8232 15.7626 17.8232 16.2374 17.5303 16.5303C17.2374 16.8232 16.7626 16.8232 16.4697 16.5303L15.6833 15.744C15.6227 15.748 15.5616 15.75 15.5 15.75C13.9812 15.75 12.75 14.5188 12.75 13V11Z" fill="#22282F"/>
</svg>
