<svg width="24" height="24" viewBox="0 0 24 24" fill="none" xmlns="http://www.w3.org/2000/svg">
<path fill-rule="evenodd" clip-rule="evenodd" d="M9.94358 2.25H10H14H14.0564C15.8942 2.24998 17.3498 2.24997 18.489 2.40313C19.6614 2.56076 20.6104 2.89288 21.3588 3.64124C22.1071 4.38961 22.4392 5.33856 22.5969 6.51098C22.75 7.65018 22.75 9.1058 22.75 10.9435V10.9436V11V13V13.0564V13.0565C22.75 14.8942 22.75 16.3498 22.5969 17.489C22.4392 18.6614 22.1071 19.6104 21.3588 20.3588C20.6104 21.1071 19.6614 21.4392 18.489 21.5969C17.3498 21.75 15.8942 21.75 14.0565 21.75H14.0564H14H10H9.94359H9.94354C8.1058 21.75 6.65018 21.75 5.51098 21.5969C4.33856 21.4392 3.38961 21.1071 2.64124 20.3588C1.89288 19.6104 1.56076 18.6614 1.40313 17.489C1.24997 16.3498 1.24998 14.8942 1.25 13.0564V13V11V10.9436C1.24998 9.10582 1.24997 7.65019 1.40313 6.51098C1.56076 5.33856 1.89288 4.38961 2.64124 3.64124C3.38961 2.89288 4.33856 2.56076 5.51098 2.40313C6.65019 2.24997 8.10582 2.24998 9.94358 2.25ZM5.71085 3.88976C4.70476 4.02502 4.12511 4.27869 3.7019 4.7019C3.27869 5.12511 3.02502 5.70476 2.88976 6.71085C2.75159 7.73851 2.75 9.09318 2.75 11V13C2.75 14.9068 2.75159 16.2615 2.88976 17.2892C3.02502 18.2952 3.27869 18.8749 3.7019 19.2981C4.12511 19.7213 4.70476 19.975 5.71085 20.1102C6.73851 20.2484 8.09318 20.25 10 20.25H14C15.9068 20.25 17.2615 20.2484 18.2892 20.1102C19.2952 19.975 19.8749 19.7213 20.2981 19.2981C20.7213 18.8749 20.975 18.2952 21.1102 17.2892C21.2484 16.2615 21.25 14.9068 21.25 13V11C21.25 9.09318 21.2484 7.73851 21.1102 6.71085C20.975 5.70476 20.7213 5.12511 20.2981 4.7019C19.8749 4.27869 19.2952 4.02502 18.2892 3.88976C17.2615 3.75159 15.9068 3.75 14 3.75H10C8.09318 3.75 6.73851 3.75159 5.71085 3.88976ZM7 8.25C7.41421 8.25 7.75 8.58579 7.75 9V11.25H10.25V9C10.25 8.58579 10.5858 8.25 11 8.25C11.4142 8.25 11.75 8.58579 11.75 9V12V15C11.75 15.4142 11.4142 15.75 11 15.75C10.5858 15.75 10.25 15.4142 10.25 15V12.75H7C6.58579 12.75 6.25 12.4142 6.25 12V9C6.25 8.58579 6.58579 8.25 7 8.25ZM17.4881 9.56944C17.8026 9.29988 17.839 8.8264 17.5694 8.51191C17.2999 8.19741 16.8264 8.16099 16.5119 8.43056L14.25 10.3693V9C14.25 8.58579 13.9142 8.25 13.5 8.25C13.0858 8.25 12.75 8.58579 12.75 9V12V15C12.75 15.4142 13.0858 15.75 13.5 15.75C13.9142 15.75 14.25 15.4142 14.25 15V13.6307L16.5119 15.5694C16.8264 15.839 17.2999 15.8026 17.5694 15.4881C17.839 15.1736 17.8026 14.7001 17.4881 14.4306L14.6524 12L17.4881 9.56944Z" fill="#22282F"/>
</svg>
