<svg width="24" height="24" viewBox="0 0 24 24" fill="none" xmlns="http://www.w3.org/2000/svg">
<path fill-rule="evenodd" clip-rule="evenodd" d="M9.94358 2.25H10H14H14.0564C15.8942 2.24998 17.3498 2.24997 18.489 2.40313C19.6614 2.56076 20.6104 2.89288 21.3588 3.64124C22.1071 4.38961 22.4392 5.33856 22.5969 6.51098C22.75 7.65018 22.75 9.1058 22.75 10.9435V10.9436V11V13V13.0564V13.0565C22.75 14.8942 22.75 16.3498 22.5969 17.489C22.4392 18.6614 22.1071 19.6104 21.3588 20.3588C20.6104 21.1071 19.6614 21.4392 18.489 21.5969C17.3498 21.75 15.8942 21.75 14.0565 21.75H14.0564H14H10H9.94359H9.94354C8.1058 21.75 6.65018 21.75 5.51098 21.5969C4.33856 21.4392 3.38961 21.1071 2.64124 20.3588C1.89288 19.6104 1.56076 18.6614 1.40313 17.489C1.24997 16.3498 1.24998 14.8942 1.25 13.0564V13V11V10.9436C1.24998 9.10582 1.24997 7.65019 1.40313 6.51098C1.56076 5.33856 1.89288 4.38961 2.64124 3.64124C3.38961 2.89288 4.33856 2.56076 5.51098 2.40313C6.65019 2.24997 8.10582 2.24998 9.94358 2.25ZM5.71085 3.88976C4.70476 4.02502 4.12511 4.27869 3.7019 4.7019C3.27869 5.12511 3.02502 5.70476 2.88976 6.71085C2.75159 7.73851 2.75 9.09318 2.75 11V13C2.75 14.9068 2.75159 16.2615 2.88976 17.2892C3.02502 18.2952 3.27869 18.8749 3.7019 19.2981C4.12511 19.7213 4.70476 19.975 5.71085 20.1102C6.73851 20.2484 8.09318 20.25 10 20.25H14C15.9068 20.25 17.2615 20.2484 18.2892 20.1102C19.2952 19.975 19.8749 19.7213 20.2981 19.2981C20.7213 18.8749 20.975 18.2952 21.1102 17.2892C21.2484 16.2615 21.25 14.9068 21.25 13V11C21.25 9.09318 21.2484 7.73851 21.1102 6.71085C20.975 5.70476 20.7213 5.12511 20.2981 4.7019C19.8749 4.27869 19.2952 4.02502 18.2892 3.88976C17.2615 3.75159 15.9068 3.75 14 3.75H10C8.09318 3.75 6.73851 3.75159 5.71085 3.88976ZM7 8.25C7.41421 8.25 7.75 8.58579 7.75 9V11.25H10.25V9C10.25 8.58579 10.5858 8.25 11 8.25C11.4142 8.25 11.75 8.58579 11.75 9V12V15C11.75 15.4142 11.4142 15.75 11 15.75C10.5858 15.75 10.25 15.4142 10.25 15V12.75H7.75V15C7.75 15.4142 7.41421 15.75 7 15.75C6.58579 15.75 6.25 15.4142 6.25 15V12V9C6.25 8.58579 6.58579 8.25 7 8.25ZM14.5 9.75C14.9762 9.75 15.2958 9.75041 15.5433 9.76729C15.784 9.78372 15.9012 9.81319 15.9784 9.84515C16.2846 9.97202 16.528 10.2154 16.6549 10.5216C16.6868 10.5988 16.7163 10.716 16.7327 10.9567C16.7496 11.2042 16.75 11.5238 16.75 12C16.75 12.4762 16.7496 12.7958 16.7327 13.0433C16.7163 13.284 16.6868 13.4012 16.6549 13.4784C16.528 13.7846 16.2846 14.028 15.9784 14.1549C15.9012 14.1868 15.784 14.2163 15.5433 14.2327C15.2958 14.2496 14.9762 14.25 14.5 14.25H14.25V9.75H14.5ZM16.5524 8.45933C16.262 8.33905 15.9625 8.29241 15.6454 8.27077C15.3408 8.24999 14.9697 8.24999 14.5253 8.25H14.5H13.5C13.0858 8.25 12.75 8.58579 12.75 9V15C12.75 15.4142 13.0858 15.75 13.5 15.75H14.5H14.5253H14.5253C14.9697 15.75 15.3408 15.75 15.6454 15.7292C15.9625 15.7076 16.262 15.661 16.5524 15.5407C17.2262 15.2616 17.7616 14.7262 18.0407 14.0524C18.161 13.762 18.2076 13.4625 18.2292 13.1454C18.25 12.8408 18.25 12.4697 18.25 12.0253V12V11.9747C18.25 11.5303 18.25 11.1592 18.2292 10.8546C18.2076 10.5375 18.161 10.238 18.0407 9.94762C17.7616 9.27379 17.2262 8.73844 16.5524 8.45933Z" fill="#22282F"/>
</svg>
