<svg width="24" height="24" viewBox="0 0 24 24" fill="none" xmlns="http://www.w3.org/2000/svg">
<path fill-rule="evenodd" clip-rule="evenodd" d="M8.47337 3.25L8.5 3.25H9C9.41421 3.25 9.75 3.58579 9.75 4C9.75 4.41421 9.41421 4.75 9 4.75H8.5C7.79083 4.75 7.29651 4.75041 6.90959 4.77681C6.5294 4.80275 6.308 4.85125 6.13896 4.92127C5.58765 5.14963 5.14963 5.58765 4.92127 6.13896C4.85125 6.308 4.80275 6.5294 4.77681 6.90959C4.75041 7.29651 4.75 7.79083 4.75 8.5V9C4.75 9.41421 4.41421 9.75 4 9.75C3.58579 9.75 3.25 9.41421 3.25 9V8.5L3.25 8.47337C3.24999 7.79704 3.24999 7.25149 3.28028 6.80748C3.31144 6.35092 3.37711 5.94721 3.53545 5.56494C3.91605 4.64608 4.64608 3.91605 5.56494 3.53545C5.94721 3.37711 6.35092 3.31144 6.80748 3.28028C7.25149 3.24999 7.79704 3.24999 8.47337 3.25ZM17.0904 4.77681C16.7035 4.75041 16.2092 4.75 15.5 4.75H15C14.5858 4.75 14.25 4.41421 14.25 4C14.25 3.58579 14.5858 3.25 15 3.25H15.5L15.5266 3.25C16.203 3.24999 16.7485 3.24999 17.1925 3.28028C17.6491 3.31144 18.0528 3.37711 18.4351 3.53545C19.3539 3.91605 20.0839 4.64608 20.4645 5.56494C20.6229 5.94721 20.6886 6.35092 20.7197 6.80748C20.75 7.25148 20.75 7.79704 20.75 8.47336V8.5V9C20.75 9.41421 20.4142 9.75 20 9.75C19.5858 9.75 19.25 9.41421 19.25 9V8.5C19.25 7.79083 19.2496 7.29651 19.2232 6.90959C19.1973 6.5294 19.1487 6.308 19.0787 6.13896C18.8504 5.58765 18.4124 5.14963 17.861 4.92127C17.692 4.85125 17.4706 4.80275 17.0904 4.77681ZM4 14.25C4.41421 14.25 4.75 14.5858 4.75 15V15.5C4.75 16.2092 4.75041 16.7035 4.77681 17.0904C4.80275 17.4706 4.85125 17.692 4.92127 17.861C5.14963 18.4124 5.58765 18.8504 6.13896 19.0787C6.308 19.1487 6.5294 19.1973 6.90959 19.2232C7.29651 19.2496 7.79083 19.25 8.5 19.25H9C9.41421 19.25 9.75 19.5858 9.75 20C9.75 20.4142 9.41421 20.75 9 20.75H8.5H8.47336C7.79704 20.75 7.25148 20.75 6.80748 20.7197C6.35092 20.6886 5.94721 20.6229 5.56494 20.4645C4.64608 20.0839 3.91605 19.3539 3.53545 18.4351C3.37711 18.0528 3.31144 17.6491 3.28028 17.1925C3.24999 16.7485 3.24999 16.203 3.25 15.5266L3.25 15.5V15C3.25 14.5858 3.58579 14.25 4 14.25ZM20 14.25C20.4142 14.25 20.75 14.5858 20.75 15V15.5V15.5266C20.75 16.203 20.75 16.7485 20.7197 17.1925C20.6886 17.6491 20.6229 18.0528 20.4645 18.4351C20.0839 19.3539 19.3539 20.0839 18.4351 20.4645C18.0528 20.6229 17.6491 20.6886 17.1925 20.7197C16.7485 20.75 16.203 20.75 15.5266 20.75H15.5H15C14.5858 20.75 14.25 20.4142 14.25 20C14.25 19.5858 14.5858 19.25 15 19.25H15.5C16.2092 19.25 16.7035 19.2496 17.0904 19.2232C17.4706 19.1973 17.692 19.1487 17.861 19.0787C18.4124 18.8504 18.8504 18.4124 19.0787 17.861C19.1487 17.692 19.1973 17.4706 19.2232 17.0904C19.2496 16.7035 19.25 16.2092 19.25 15.5V15C19.25 14.5858 19.5858 14.25 20 14.25Z" fill="#22282F"/>
</svg>
