<svg width="24" height="24" viewBox="0 0 24 24" fill="none" xmlns="http://www.w3.org/2000/svg">
<path fill-rule="evenodd" clip-rule="evenodd" d="M12 1.25C9.92893 1.25 8.25 2.92893 8.25 5V5.5C8.25 5.91421 8.58579 6.25 9 6.25C9.41421 6.25 9.75 5.91421 9.75 5.5V5C9.75 3.75736 10.7574 2.75 12 2.75C13.2426 2.75 14.25 3.75736 14.25 5V11C14.25 11.4142 14.5858 11.75 15 11.75C15.4142 11.75 15.75 11.4142 15.75 11V5C15.75 2.92893 14.0711 1.25 12 1.25ZM3.53033 2.46967C3.23744 2.17678 2.76256 2.17678 2.46967 2.46967C2.17678 2.76256 2.17678 3.23744 2.46967 3.53033L8.25 9.31066V12C8.25 14.0711 9.92893 15.75 12 15.75H14.6893L15.9158 16.9765C14.7287 17.8517 13.2643 18.25 12 18.25C10.6501 18.25 9.07409 17.7961 7.84993 16.7945C6.64917 15.8121 5.75 14.2752 5.75 12C5.75 11.5858 5.41421 11.25 5 11.25C4.58579 11.25 4.25 11.5858 4.25 12C4.25 14.7248 5.35083 16.6879 6.90007 17.9555C8.19962 19.0187 9.78803 19.5726 11.25 19.7135V22C11.25 22.4142 11.5858 22.75 12 22.75C12.4142 22.75 12.75 22.4142 12.75 22V19.7135C14.1608 19.5775 15.6883 19.0571 16.9607 18.0666C16.9692 18.06 16.9775 18.0532 16.9856 18.0463L20.4697 21.5303C20.7626 21.8232 21.2374 21.8232 21.5303 21.5303C21.8232 21.2374 21.8232 20.7626 21.5303 20.4697L15.5303 14.4697L9.53033 8.46967L3.53033 2.46967ZM9.75 12V10.8107L13.1893 14.25H12C10.7574 14.25 9.75 13.2426 9.75 12ZM19.75 12C19.75 11.5858 19.4142 11.25 19 11.25C18.5858 11.25 18.25 11.5858 18.25 12C18.25 12.6708 18.1718 13.2737 18.0335 13.8141C17.9308 14.2154 18.1729 14.6239 18.5742 14.7266C18.9755 14.8293 19.384 14.5872 19.4867 14.1859C19.658 13.5165 19.75 12.7882 19.75 12Z" fill="#22282F"/>
</svg>
