<svg width="24" height="24" viewBox="0 0 24 24" fill="none" xmlns="http://www.w3.org/2000/svg">
<path fill-rule="evenodd" clip-rule="evenodd" d="M9.75 4C9.75 3.58579 9.41421 3.25 9 3.25C8.58579 3.25 8.25 3.58579 8.25 4V5C8.25 5.96401 8.24841 6.61157 8.18346 7.09461C8.12142 7.55607 8.0142 7.75357 7.88388 7.88388C7.75357 8.0142 7.55607 8.12142 7.09461 8.18346C6.61157 8.24841 5.96401 8.25 5 8.25H3C2.58579 8.25 2.25 8.58579 2.25 9C2.25 9.41421 2.58579 9.75 3 9.75H5L5.05199 9.75C5.95048 9.75003 6.6997 9.75005 7.29448 9.67009C7.92227 9.58568 8.48907 9.40001 8.94454 8.94454C9.40001 8.48907 9.58568 7.92227 9.67009 7.29448C9.75005 6.6997 9.75003 5.95048 9.75 5.05199L9.75 5V4ZM5 15.75C5.96401 15.75 6.61157 15.7516 7.09461 15.8165C7.55607 15.8786 7.75357 15.9858 7.88388 16.1161C8.0142 16.2464 8.12142 16.4439 8.18346 16.9054C8.24841 17.3884 8.25 18.036 8.25 19V20C8.25 20.4142 8.58579 20.75 9 20.75C9.41421 20.75 9.75 20.4142 9.75 20V19L9.75 18.948C9.75003 18.0495 9.75005 17.3003 9.67009 16.7055C9.58568 16.0777 9.40001 15.5109 8.94454 15.0555C8.48907 14.6 7.92227 14.4143 7.29448 14.3299C6.6997 14.2499 5.95048 14.25 5.052 14.25L5 14.25H3C2.58579 14.25 2.25 14.5858 2.25 15C2.25 15.4142 2.58579 15.75 3 15.75H5ZM15 3.25C15.4142 3.25 15.75 3.58579 15.75 4V5C15.75 5.96401 15.7516 6.61157 15.8165 7.09461C15.8786 7.55607 15.9858 7.75357 16.1161 7.88388C16.2464 8.0142 16.4439 8.12142 16.9054 8.18346C17.3884 8.24841 18.036 8.25 19 8.25H21C21.4142 8.25 21.75 8.58579 21.75 9C21.75 9.41421 21.4142 9.75 21 9.75H19L18.948 9.75C18.0495 9.75003 17.3003 9.75005 16.7055 9.67009C16.0777 9.58568 15.5109 9.40001 15.0555 8.94454C14.6 8.48907 14.4143 7.92227 14.3299 7.29448C14.2499 6.6997 14.25 5.95048 14.25 5.052L14.25 5V4C14.25 3.58579 14.5858 3.25 15 3.25ZM19 14.25L18.948 14.25C18.0495 14.25 17.3003 14.2499 16.7055 14.3299C16.0777 14.4143 15.5109 14.6 15.0555 15.0555C14.6 15.5109 14.4143 16.0777 14.3299 16.7055C14.2499 17.3003 14.25 18.0495 14.25 18.948L14.25 19V20C14.25 20.4142 14.5858 20.75 15 20.75C15.4142 20.75 15.75 20.4142 15.75 20V19C15.75 18.036 15.7516 17.3884 15.8165 16.9054C15.8786 16.4439 15.9858 16.2464 16.1161 16.1161C16.2464 15.9858 16.4439 15.8786 16.9054 15.8165C17.3884 15.7516 18.036 15.75 19 15.75H21C21.4142 15.75 21.75 15.4142 21.75 15C21.75 14.5858 21.4142 14.25 21 14.25H19Z" fill="#22282F"/>
</svg>
