<svg width="24" height="24" viewBox="0 0 24 24" fill="none" xmlns="http://www.w3.org/2000/svg">
<path fill-rule="evenodd" clip-rule="evenodd" d="M10 2.25H9.94358C8.10582 2.24998 6.65019 2.24997 5.51098 2.40313C4.33856 2.56076 3.38961 2.89288 2.64124 3.64124C1.89288 4.38961 1.56076 5.33856 1.40313 6.51098C1.24997 7.65019 1.24998 9.10582 1.25 10.9436V11V13V13.0564C1.24998 14.8942 1.24997 16.3498 1.40313 17.489C1.56076 18.6614 1.89288 19.6104 2.64124 20.3588C3.38961 21.1071 4.33856 21.4392 5.51098 21.5969C6.65018 21.75 8.1058 21.75 9.94354 21.75H9.94359H10H14H14.0564H14.0565C15.8942 21.75 17.3498 21.75 18.489 21.5969C19.6614 21.4392 20.6104 21.1071 21.3588 20.3588C22.1071 19.6104 22.4392 18.6614 22.5969 17.489C22.75 16.3498 22.75 14.8942 22.75 13.0565V13.0564V13V11V10.9436V10.9435C22.75 9.1058 22.75 7.65018 22.5969 6.51098C22.4392 5.33856 22.1071 4.38961 21.3588 3.64124C20.6104 2.89288 19.6614 2.56076 18.489 2.40313C17.3498 2.24997 15.8942 2.24998 14.0564 2.25H14H10ZM3.7019 4.7019C4.12511 4.27869 4.70476 4.02502 5.71085 3.88976C6.73851 3.75159 8.09318 3.75 10 3.75H14C15.9068 3.75 17.2615 3.75159 18.2892 3.88976C19.2952 4.02502 19.8749 4.27869 20.2981 4.7019C20.7213 5.12511 20.975 5.70476 21.1102 6.71085C21.2484 7.73851 21.25 9.09318 21.25 11V13C21.25 14.9068 21.2484 16.2615 21.1102 17.2892C20.975 18.2952 20.7213 18.8749 20.2981 19.2981C19.8749 19.7213 19.2952 19.975 18.2892 20.1102C17.2615 20.2484 15.9068 20.25 14 20.25H10C8.09318 20.25 6.73851 20.2484 5.71085 20.1102C4.70476 19.975 4.12511 19.7213 3.7019 19.2981C3.27869 18.8749 3.02502 18.2952 2.88976 17.2892C2.75159 16.2615 2.75 14.9068 2.75 13V11C2.75 9.09318 2.75159 7.73851 2.88976 6.71085C3.02502 5.70476 3.27869 5.12511 3.7019 4.7019ZM13 10.25H12.9747C12.5303 10.25 12.1592 10.25 11.8546 10.2708C11.5375 10.2924 11.238 10.339 10.9476 10.4593C10.2738 10.7384 9.73844 11.2738 9.45933 11.9476C9.33905 12.238 9.29241 12.5375 9.27077 12.8546C9.24999 13.1592 9.24999 13.5303 9.25 13.9747V14V14.0253C9.24999 14.4697 9.24999 14.8408 9.27077 15.1454C9.29241 15.4625 9.33905 15.762 9.45933 16.0524C9.73844 16.7262 10.2738 17.2616 10.9476 17.5407C11.238 17.661 11.5375 17.7076 11.8546 17.7292C12.1592 17.75 12.5303 17.75 12.9747 17.75H13H15H15.0253C15.4697 17.75 15.8408 17.75 16.1454 17.7292C16.4625 17.7076 16.762 17.661 17.0524 17.5407C17.7262 17.2616 18.2616 16.7262 18.5407 16.0524C18.661 15.762 18.7076 15.4625 18.7292 15.1454C18.75 14.8408 18.75 14.4697 18.75 14.0253V14V13.9747C18.75 13.5303 18.75 13.1592 18.7292 12.8546C18.7076 12.5375 18.661 12.238 18.5407 11.9476C18.2616 11.2738 17.7262 10.7384 17.0524 10.4593C16.762 10.339 16.4625 10.2924 16.1454 10.2708C15.8408 10.25 15.4697 10.25 15.0253 10.25H15H13ZM11.5216 11.8452C11.5988 11.8132 11.716 11.7837 11.9567 11.7673C12.2042 11.7504 12.5238 11.75 13 11.75H15C15.4762 11.75 15.7958 11.7504 16.0433 11.7673C16.284 11.7837 16.4012 11.8132 16.4784 11.8452C16.7846 11.972 17.028 12.2154 17.1549 12.5216C17.1868 12.5988 17.2163 12.716 17.2327 12.9567C17.2496 13.2042 17.25 13.5238 17.25 14C17.25 14.4762 17.2496 14.7958 17.2327 15.0433C17.2163 15.284 17.1868 15.4012 17.1549 15.4784C17.028 15.7846 16.7846 16.028 16.4784 16.1549C16.4012 16.1868 16.284 16.2163 16.0433 16.2327C15.7958 16.2496 15.4762 16.25 15 16.25H13C12.5238 16.25 12.2042 16.2496 11.9567 16.2327C11.716 16.2163 11.5988 16.1868 11.5216 16.1549C11.2154 16.028 10.972 15.7846 10.8452 15.4784C10.8132 15.4012 10.7837 15.284 10.7673 15.0433C10.7504 14.7958 10.75 14.4762 10.75 14C10.75 13.5238 10.7504 13.2042 10.7673 12.9567C10.7837 12.716 10.8132 12.5988 10.8452 12.5216C10.972 12.2154 11.2154 11.972 11.5216 11.8452Z" fill="#22282F"/>
</svg>
