<svg width="24" height="24" viewBox="0 0 24 24" fill="none" xmlns="http://www.w3.org/2000/svg">
<path fill-rule="evenodd" clip-rule="evenodd" d="M20.75 1C20.75 0.585786 20.4142 0.25 20 0.25C19.5858 0.25 19.25 0.585786 19.25 1V3.25H17C16.5858 3.25 16.25 3.58579 16.25 4C16.25 4.41421 16.5858 4.75 17 4.75H19.25V7C19.25 7.41421 19.5858 7.75 20 7.75C20.4142 7.75 20.75 7.41421 20.75 7V4.75H23C23.4142 4.75 23.75 4.41421 23.75 4C23.75 3.58579 23.4142 3.25 23 3.25H20.75V1ZM8 3.25L7.94513 3.25C6.57754 3.24998 5.47522 3.24996 4.60825 3.36652C3.70814 3.48754 2.95027 3.74643 2.34835 4.34835C1.74643 4.95027 1.48754 5.70814 1.36652 6.60825C1.24996 7.47522 1.24998 8.57754 1.25 9.94513V10V16V16.0549C1.24998 17.4225 1.24996 18.5248 1.36652 19.3918C1.48754 20.2919 1.74643 21.0497 2.34835 21.6517C2.95027 22.2536 3.70814 22.5125 4.60825 22.6335C5.47522 22.75 6.57754 22.75 7.94513 22.75H8H14H14.0549C15.4225 22.75 16.5248 22.75 17.3918 22.6335C18.2919 22.5125 19.0497 22.2536 19.6517 21.6517C20.2536 21.0497 20.5125 20.2919 20.6335 19.3918C20.75 18.5248 20.75 17.4225 20.75 16.0549V16V10.5C20.75 10.0858 20.4142 9.75 20 9.75C19.5858 9.75 19.25 10.0858 19.25 10.5V16C19.25 17.4354 19.2484 18.4365 19.1469 19.1919C19.0482 19.9257 18.8678 20.3142 18.591 20.591C18.3142 20.8678 17.9257 21.0482 17.1919 21.1469C16.4365 21.2484 15.4354 21.25 14 21.25H8C6.56458 21.25 5.56347 21.2484 4.80812 21.1469C4.07435 21.0482 3.68577 20.8678 3.40901 20.591C3.13225 20.3142 2.9518 19.9257 2.85315 19.1919C2.75159 18.4365 2.75 17.4354 2.75 16V10C2.75 8.56458 2.75159 7.56347 2.85315 6.80812C2.9518 6.07434 3.13225 5.68577 3.40901 5.40901C3.68577 5.13225 4.07435 4.9518 4.80812 4.85315C5.56347 4.75159 6.56458 4.75 8 4.75H13.5C13.9142 4.75 14.25 4.41421 14.25 4C14.25 3.58579 13.9142 3.25 13.5 3.25H8ZM8.75 16C8.75 15.3096 9.30964 14.75 10 14.75C10.6904 14.75 11.25 15.3096 11.25 16C11.25 16.6904 10.6904 17.25 10 17.25C9.30964 17.25 8.75 16.6904 8.75 16ZM10 13.25C10.4501 13.25 10.875 13.3581 11.25 13.5499V8C11.25 7.7234 11.4022 7.46926 11.6461 7.33874C11.89 7.20823 12.1859 7.22253 12.416 7.37596L15.416 9.37596C15.7607 9.60573 15.8538 10.0714 15.624 10.416C15.3943 10.7607 14.9286 10.8538 14.584 10.624L12.75 9.40139V16C12.75 17.5188 11.5188 18.75 10 18.75C8.48122 18.75 7.25 17.5188 7.25 16C7.25 14.4812 8.48122 13.25 10 13.25Z" fill="#22282F"/>
</svg>
