<svg width="24" height="24" viewBox="0 0 24 24" fill="none" xmlns="http://www.w3.org/2000/svg">
<path fill-rule="evenodd" clip-rule="evenodd" d="M18.7494 3.33194C18.3976 3.38346 17.9444 3.48944 17.2781 3.64621L12.2556 4.82797C11.4978 5.00627 10.9948 5.12593 10.6231 5.26205C10.2705 5.39118 10.1184 5.50734 10.0201 5.63146C9.92181 5.75557 9.84357 5.9302 9.79863 6.30303C9.75127 6.69603 9.75 7.2131 9.75 7.99158V8.0394L20.2489 5.41468C20.2466 5.03315 20.2398 4.7384 20.2189 4.49584C20.189 4.14718 20.1352 3.99091 20.0809 3.8974C19.9222 3.62414 19.6659 3.42112 19.3635 3.32922C19.2601 3.29777 19.0956 3.28123 18.7494 3.33194ZM20.25 16C20.25 14.7573 19.2426 13.75 18 13.75C16.7574 13.75 15.75 14.7573 15.75 16C15.75 17.2426 16.7574 18.25 18 18.25C19.2426 18.25 20.25 17.2426 20.25 16ZM20.25 6.96057V12.9997C19.6233 12.5289 18.8442 12.25 18 12.25C15.9289 12.25 14.25 13.9289 14.25 16C14.25 18.0711 15.9289 19.75 18 19.75C20.0711 19.75 21.75 18.0711 21.75 16V5.99999V5.96666C21.75 5.32385 21.75 4.79356 21.7134 4.3675C21.6757 3.92855 21.5942 3.51635 21.378 3.14406C21.0289 2.54287 20.4649 2.09624 19.7998 1.89406C19.3878 1.76885 18.9679 1.78393 18.532 1.84777C18.1089 1.90974 17.5927 2.03121 16.967 2.17845L16.967 2.17845L16.9345 2.18608L11.9121 3.36784L11.8686 3.37806C11.1658 3.5434 10.5739 3.68266 10.1073 3.85353C9.61205 4.03489 9.17811 4.2786 8.84424 4.70015C8.51037 5.1217 8.37252 5.59992 8.30941 6.12354C8.24995 6.61687 8.24997 7.22497 8.25 7.94698L8.25 7.99158V8.99999V15.9997C7.62325 15.5289 6.8442 15.25 6 15.25C3.92893 15.25 2.25 16.9289 2.25 19C2.25 21.0711 3.92893 22.75 6 22.75C8.07107 22.75 9.75 21.0711 9.75 19V9.58557L20.25 6.96057ZM6 16.75C7.24264 16.75 8.25 17.7573 8.25 19C8.25 20.2426 7.24264 21.25 6 21.25C4.75736 21.25 3.75 20.2426 3.75 19C3.75 17.7573 4.75736 16.75 6 16.75Z" fill="#22282F"/>
</svg>
