<svg width="24" height="24" viewBox="0 0 24 24" fill="none" xmlns="http://www.w3.org/2000/svg">
<path fill-rule="evenodd" clip-rule="evenodd" d="M18.7137 3.30842C19.3032 3.16972 19.6658 3.0863 19.93 3.06303C20.0529 3.0522 20.116 3.05887 20.1442 3.06467C20.1489 3.06564 20.1524 3.06653 20.1547 3.06722C20.1559 3.06936 20.1576 3.07251 20.1596 3.0769C20.1717 3.103 20.1927 3.16288 20.2103 3.28505C20.2481 3.5475 20.25 3.91959 20.25 4.52519V5.43844C20.25 5.83167 20.2488 6.06039 20.2288 6.22699C20.2198 6.30239 20.2092 6.34125 20.2028 6.35953C20.1999 6.36794 20.198 6.37158 20.1976 6.37219L20.1971 6.37306L20.1963 6.37383C20.1958 6.3743 20.1928 6.37705 20.1853 6.38195C20.1691 6.39259 20.134 6.41229 20.063 6.43932C19.9062 6.49906 19.6847 6.55574 19.3032 6.65111L9.75 9.03941V7.99158C9.75 7.2131 9.75127 6.69603 9.79863 6.30303C9.84357 5.9302 9.92181 5.75558 10.0201 5.63146C10.1184 5.50734 10.2705 5.39119 10.6231 5.26205C10.9948 5.12593 11.4978 5.00627 12.2556 4.82797L18.7137 3.30842ZM19.667 8.10633L9.75 10.5856V19C9.75 21.0711 8.07107 22.75 6 22.75C3.92893 22.75 2.25 21.0711 2.25 19C2.25 16.9289 3.92893 15.25 6 15.25C6.8442 15.25 7.62325 15.5289 8.25 15.9997V9.99999V7.99158L8.25 7.94698C8.24997 7.22497 8.24995 6.61687 8.30941 6.12355C8.37252 5.59992 8.51037 5.1217 8.84424 4.70015C9.17811 4.27861 9.61205 4.03489 10.1073 3.85353C10.5739 3.68266 11.1658 3.54341 11.8686 3.37806L11.8686 3.37806L11.9121 3.36784L18.3701 1.8483L18.42 1.83655C18.9437 1.71329 19.4133 1.60273 19.7984 1.56882C20.2155 1.53208 20.6808 1.56937 21.0865 1.89074C21.4923 2.21212 21.6352 2.65648 21.6949 3.07091C21.7501 3.45349 21.7501 3.93598 21.75 4.47393L21.75 4.52519V5.43844L21.75 5.47599C21.75 5.81856 21.7501 6.13862 21.7182 6.40509C21.6828 6.70131 21.6006 7.01282 21.3794 7.29618C21.1581 7.57954 20.8758 7.73484 20.5971 7.84105C20.3463 7.93659 20.0358 8.01418 19.7034 8.09722L19.667 8.10633ZM8.25 19C8.25 17.7573 7.24264 16.75 6 16.75C4.75736 16.75 3.75 17.7573 3.75 19C3.75 20.2426 4.75736 21.25 6 21.25C7.24264 21.25 8.25 20.2426 8.25 19Z" fill="#22282F"/>
</svg>
