<svg width="24" height="24" viewBox="0 0 24 24" fill="none" xmlns="http://www.w3.org/2000/svg">
<path fill-rule="evenodd" clip-rule="evenodd" d="M7.94513 2.25003H8H10H10.0549C11.4225 2.25001 12.5248 2.24999 13.3918 2.36655C14.2919 2.48757 15.0497 2.74646 15.6517 3.34838C16.2536 3.9503 16.5125 4.70817 16.6335 5.60828C16.75 6.47524 16.75 7.57755 16.75 8.94513V8.94514V8.94515V8.94515V8.94516V9.00003V15V15.0549V15.0549V15.0549V15.0549V15.0549C16.75 16.4225 16.75 17.5248 16.6335 18.3918C16.5125 19.2919 16.2536 20.0498 15.6517 20.6517C15.0497 21.2536 14.2919 21.5125 13.3918 21.6335C12.5248 21.7501 11.4225 21.7501 10.0549 21.75H10H8H7.94513C6.57754 21.7501 5.47522 21.7501 4.60825 21.6335C3.70814 21.5125 2.95027 21.2536 2.34835 20.6517C1.74643 20.0498 1.48754 19.2919 1.36652 18.3918C1.24996 17.5248 1.24998 16.4225 1.25 15.0549V15V9.00003V8.94516C1.24998 7.57757 1.24996 6.47525 1.36652 5.60828C1.48754 4.70817 1.74643 3.9503 2.34835 3.34838C2.95027 2.74646 3.70814 2.48757 4.60825 2.36655C5.47522 2.24999 6.57754 2.25001 7.94513 2.25003ZM4.80812 3.85318C4.07435 3.95183 3.68577 4.13228 3.40901 4.40904C3.13225 4.6858 2.9518 5.07438 2.85315 5.80815C2.75159 6.5635 2.75 7.56461 2.75 9.00003V15C2.75 16.4354 2.75159 17.4366 2.85315 18.1919C2.9518 18.9257 3.13225 19.3143 3.40901 19.591C3.68577 19.8678 4.07435 20.0482 4.80812 20.1469C5.56347 20.2484 6.56458 20.25 8 20.25H10C11.4354 20.25 12.4365 20.2484 13.1919 20.1469C13.9257 20.0482 14.3142 19.8678 14.591 19.591C14.8678 19.3143 15.0482 18.9257 15.1469 18.1919C15.2484 17.4366 15.25 16.4354 15.25 15V9.00003C15.25 7.56462 15.2484 6.5635 15.1469 5.80815C15.0482 5.07438 14.8678 4.6858 14.591 4.40904C14.3142 4.13228 13.9257 3.95183 13.1919 3.85318C12.4365 3.75162 11.4354 3.75003 10 3.75003H8C6.56458 3.75003 5.56347 3.75162 4.80812 3.85318ZM19 5.25003C19.4142 5.25003 19.75 5.58582 19.75 6.00003V18C19.75 18.4142 19.4142 18.75 19 18.75C18.5858 18.75 18.25 18.4142 18.25 18V6.00003C18.25 5.58582 18.5858 5.25003 19 5.25003ZM22.75 8.00003C22.75 7.58581 22.4142 7.25003 22 7.25003C21.5858 7.25003 21.25 7.58581 21.25 8.00003V16C21.25 16.4142 21.5858 16.75 22 16.75C22.4142 16.75 22.75 16.4142 22.75 16V8.00003ZM8 13.75C7.30964 13.75 6.75 14.3097 6.75 15C6.75 15.6904 7.30964 16.25 8 16.25C8.69036 16.25 9.25 15.6904 9.25 15C9.25 14.3097 8.69036 13.75 8 13.75ZM9.25 12.5499C8.87497 12.3582 8.45011 12.25 8 12.25C6.48122 12.25 5.25 13.4812 5.25 15C5.25 16.5188 6.48122 17.75 8 17.75C9.51878 17.75 10.75 16.5188 10.75 15V8.40142L12.584 9.62407C12.9286 9.85383 13.3943 9.7607 13.624 9.41606C13.8538 9.07141 13.7607 8.60576 13.416 8.37599L10.416 6.37599C10.1859 6.22256 9.88997 6.20826 9.64611 6.33877C9.40224 6.46929 9.25 6.72343 9.25 7.00003V12.5499Z" fill="#22282F"/>
</svg>
