<svg width="24" height="24" viewBox="0 0 24 24" fill="none" xmlns="http://www.w3.org/2000/svg">
<path fill-rule="evenodd" clip-rule="evenodd" d="M18.7942 3.37898C18.1993 3.43136 17.4117 3.61477 16.2556 3.8868L12.2556 4.82797C11.4978 5.00627 10.9948 5.12594 10.6231 5.26206C10.2705 5.39119 10.1184 5.50734 10.0201 5.63146C9.92181 5.75558 9.84357 5.93021 9.79863 6.30303C9.75127 6.69604 9.75 7.2131 9.75 7.99158V19C9.75 21.0711 8.07107 22.75 6 22.75C3.92893 22.75 2.25 21.0711 2.25 19C2.25 16.9289 3.92893 15.25 6 15.25C6.8442 15.25 7.62325 15.5289 8.25 15.9997V7.99158L8.25 7.94698C8.24997 7.22497 8.24995 6.61687 8.30941 6.12355C8.37252 5.59992 8.51037 5.1217 8.84424 4.70016C9.17811 4.27861 9.61205 4.03489 10.1073 3.85353C10.5739 3.68267 11.1658 3.54341 11.8686 3.37807L11.8686 3.37806L11.9121 3.36785L15.9121 2.42667L15.9693 2.41321C17.0538 2.158 17.9472 1.94777 18.6626 1.88476C19.4104 1.8189 20.1121 1.89792 20.7074 2.36944C21.3027 2.84095 21.5404 3.5059 21.6475 4.24891C21.7501 4.9597 21.75 5.87747 21.75 6.99154V6.99165L21.75 7.0504V16C21.75 18.0711 20.0711 19.75 18 19.75C15.9289 19.75 14.25 18.0711 14.25 16C14.25 13.9289 15.9289 12.25 18 12.25C18.8442 12.25 19.6233 12.5289 20.25 12.9997V7.0504C20.25 5.86272 20.2481 5.05407 20.1629 4.46304C20.0805 3.89176 19.939 3.67435 19.7761 3.54531C19.6132 3.41627 19.3691 3.32834 18.7942 3.37898ZM20.25 16C20.25 14.7574 19.2426 13.75 18 13.75C16.7574 13.75 15.75 14.7574 15.75 16C15.75 17.2426 16.7574 18.25 18 18.25C19.2426 18.25 20.25 17.2426 20.25 16ZM6 16.75C7.24264 16.75 8.25 17.7574 8.25 19C8.25 20.2426 7.24264 21.25 6 21.25C4.75736 21.25 3.75 20.2426 3.75 19C3.75 17.7574 4.75736 16.75 6 16.75Z" fill="#22282F"/>
</svg>
