<svg width="24" height="24" viewBox="0 0 24 24" fill="none" xmlns="http://www.w3.org/2000/svg">
<path fill-rule="evenodd" clip-rule="evenodd" d="M7 3.25H6.97475H6.97474C6.53028 3.24999 6.15925 3.24999 5.85464 3.27077C5.53754 3.29241 5.23801 3.33905 4.94762 3.45933C4.27379 3.73844 3.73844 4.27379 3.45933 4.94762C3.33905 5.23801 3.29241 5.53754 3.27077 5.85464C3.24999 6.15925 3.24999 6.53028 3.25 6.97474V6.97475V7V17V17.0253V17.0253C3.24999 17.4697 3.24999 17.8408 3.27077 18.1454C3.29241 18.4625 3.33905 18.762 3.45933 19.0524C3.73844 19.7262 4.27379 20.2616 4.94762 20.5407C5.23801 20.661 5.53754 20.7076 5.85464 20.7292C6.15925 20.75 6.53028 20.75 6.97474 20.75H7H7.02526C7.46972 20.75 7.84075 20.75 8.14537 20.7292C8.46247 20.7076 8.76199 20.661 9.05238 20.5407C9.72621 20.2616 10.2616 19.7262 10.5407 19.0524C10.661 18.762 10.7076 18.4625 10.7292 18.1454C10.75 17.8408 10.75 17.4697 10.75 17.0253V17V7V6.97474C10.75 6.53028 10.75 6.15925 10.7292 5.85464C10.7076 5.53754 10.661 5.23801 10.5407 4.94762C10.2616 4.27379 9.72621 3.73844 9.05238 3.45933C8.76199 3.33905 8.46247 3.29241 8.14537 3.27077C7.84076 3.24999 7.46972 3.24999 7.02527 3.25H7.02525H7ZM5.52165 4.84515C5.5988 4.81319 5.71602 4.78372 5.95674 4.76729C6.20421 4.75041 6.5238 4.75 7 4.75C7.4762 4.75 7.79579 4.75041 8.04326 4.76729C8.28399 4.78372 8.4012 4.81319 8.47835 4.84515C8.78464 4.97202 9.02798 5.21536 9.15485 5.52165C9.18681 5.5988 9.21629 5.71602 9.23271 5.95674C9.24959 6.20421 9.25 6.5238 9.25 7V17C9.25 17.4762 9.24959 17.7958 9.23271 18.0433C9.21629 18.284 9.18681 18.4012 9.15485 18.4784C9.02798 18.7846 8.78464 19.028 8.47835 19.1549C8.4012 19.1868 8.28399 19.2163 8.04326 19.2327C7.79579 19.2496 7.4762 19.25 7 19.25C6.5238 19.25 6.20421 19.2496 5.95674 19.2327C5.71602 19.2163 5.5988 19.1868 5.52165 19.1549C5.21536 19.028 4.97202 18.7846 4.84515 18.4784C4.81319 18.4012 4.78372 18.284 4.76729 18.0433C4.75041 17.7958 4.75 17.4762 4.75 17V7C4.75 6.5238 4.75041 6.20421 4.76729 5.95674C4.78372 5.71602 4.81319 5.5988 4.84515 5.52165C4.97202 5.21536 5.21536 4.97202 5.52165 4.84515ZM17 3.25H16.9748H16.9747C16.5303 3.24999 16.1592 3.24999 15.8546 3.27077C15.5375 3.29241 15.238 3.33905 14.9476 3.45933C14.2738 3.73844 13.7384 4.27379 13.4593 4.94762C13.339 5.23801 13.2924 5.53754 13.2708 5.85464C13.25 6.15925 13.25 6.53029 13.25 6.97475V7V17V17.0253C13.25 17.4697 13.25 17.8408 13.2708 18.1454C13.2924 18.4625 13.339 18.762 13.4593 19.0524C13.7384 19.7262 14.2738 20.2616 14.9476 20.5407C15.238 20.661 15.5375 20.7076 15.8546 20.7292C16.1592 20.75 16.5303 20.75 16.9747 20.75H17H17.0253C17.4697 20.75 17.8408 20.75 18.1454 20.7292C18.4625 20.7076 18.762 20.661 19.0524 20.5407C19.7262 20.2616 20.2616 19.7262 20.5407 19.0524C20.661 18.762 20.7076 18.4625 20.7292 18.1454C20.75 17.8408 20.75 17.4698 20.75 17.0253V17.0253V17V7V6.97474V6.97466C20.75 6.53024 20.75 6.15923 20.7292 5.85464C20.7076 5.53754 20.661 5.23801 20.5407 4.94762C20.2616 4.27379 19.7262 3.73844 19.0524 3.45933C18.762 3.33905 18.4625 3.29241 18.1454 3.27077C17.8408 3.24999 17.4697 3.24999 17.0253 3.25H17.0253H17ZM15.5216 4.84515C15.5988 4.81319 15.716 4.78372 15.9567 4.76729C16.2042 4.75041 16.5238 4.75 17 4.75C17.4762 4.75 17.7958 4.75041 18.0433 4.76729C18.284 4.78372 18.4012 4.81319 18.4784 4.84515C18.7846 4.97202 19.028 5.21536 19.1549 5.52165C19.1868 5.5988 19.2163 5.71602 19.2327 5.95674C19.2496 6.20421 19.25 6.5238 19.25 7V17C19.25 17.4762 19.2496 17.7958 19.2327 18.0433C19.2163 18.284 19.1868 18.4012 19.1549 18.4784C19.028 18.7846 18.7846 19.028 18.4784 19.1549C18.4012 19.1868 18.284 19.2163 18.0433 19.2327C17.7958 19.2496 17.4762 19.25 17 19.25C16.5238 19.25 16.2042 19.2496 15.9567 19.2327C15.716 19.2163 15.5988 19.1868 15.5216 19.1549C15.2154 19.028 14.972 18.7846 14.8452 18.4784C14.8132 18.4012 14.7837 18.284 14.7673 18.0433C14.7504 17.7958 14.75 17.4762 14.75 17V7C14.75 6.5238 14.7504 6.20421 14.7673 5.95674C14.7837 5.71602 14.8132 5.5988 14.8452 5.52165C14.972 5.21536 15.2154 4.97202 15.5216 4.84515Z" fill="#22282F"/>
</svg>
