<svg width="24" height="24" viewBox="0 0 24 24" fill="none" xmlns="http://www.w3.org/2000/svg">
<path fill-rule="evenodd" clip-rule="evenodd" d="M12 2.75C6.89137 2.75 2.75 6.89137 2.75 12C2.75 17.1086 6.89137 21.25 12 21.25C17.1086 21.25 21.25 17.1086 21.25 12C21.25 6.89137 17.1086 2.75 12 2.75ZM1.25 12C1.25 6.06294 6.06294 1.25 12 1.25C17.9371 1.25 22.75 6.06294 22.75 12C22.75 17.9371 17.9371 22.75 12 22.75C6.06294 22.75 1.25 17.9371 1.25 12ZM10 8.75C10.4142 8.75 10.75 9.08579 10.75 9.5V14.5C10.75 14.9142 10.4142 15.25 10 15.25C9.58579 15.25 9.25 14.9142 9.25 14.5V9.5C9.25 9.08579 9.58579 8.75 10 8.75ZM14.75 9.5C14.75 9.08579 14.4142 8.75 14 8.75C13.5858 8.75 13.25 9.08579 13.25 9.5V14.5C13.25 14.9142 13.5858 15.25 14 15.25C14.4142 15.25 14.75 14.9142 14.75 14.5V9.5Z" fill="#22282F"/>
</svg>
