<svg width="24" height="24" viewBox="0 0 24 24" fill="none" xmlns="http://www.w3.org/2000/svg">
<path fill-rule="evenodd" clip-rule="evenodd" d="M8.52543 5.44889L8.47592 5.41588C7.83395 4.98784 7.28247 4.62014 6.82384 4.40354C6.35266 4.181 5.76113 4.01149 5.17425 4.32558C4.58737 4.63967 4.40029 5.22587 4.32408 5.74137C4.24991 6.24312 4.24995 6.90594 4.25 7.67752V7.73703V16.263V16.3225C4.24995 17.0941 4.24991 17.7569 4.32408 18.2586C4.40029 18.7741 4.58737 19.3603 5.17425 19.6744C5.76113 19.9885 6.35266 19.819 6.82384 19.5965C7.28248 19.3798 7.83395 19.0121 8.47593 18.5841L8.52543 18.5511L14.9199 14.2881L14.966 14.2574C15.4909 13.9075 15.953 13.5995 16.2767 13.307C16.6209 12.996 16.9472 12.581 16.9472 12C16.9472 11.419 16.6209 11.004 16.2767 10.693C15.953 10.4005 15.4909 10.0925 14.966 9.74262L14.9199 9.71186L8.52543 5.44889ZM5.85562 5.65577C5.85516 5.65513 5.85901 5.65388 5.86853 5.65395C5.86084 5.65645 5.85608 5.65641 5.85562 5.65577ZM6.18325 5.75987C6.01708 5.68139 5.92748 5.65985 5.88579 5.65511C5.86661 5.69242 5.83483 5.77892 5.80796 5.96072C5.75199 6.33929 5.75 6.88903 5.75 7.73703V16.263C5.75 17.111 5.75199 17.6607 5.80796 18.0393C5.83483 18.2211 5.86661 18.3076 5.88579 18.3449C5.92748 18.3401 6.01708 18.3186 6.18325 18.2401C6.52928 18.0767 6.9878 17.7734 7.69338 17.303L14.0878 13.0401C14.6729 12.65 15.0397 12.4031 15.271 12.1941C15.3802 12.0954 15.4247 12.0347 15.4418 12.0052L15.4446 12L15.4418 11.9948C15.4247 11.9653 15.3802 11.9046 15.271 11.8059C15.0397 11.5969 14.6729 11.35 14.0878 10.9599L7.69338 6.69697C6.9878 6.22658 6.52928 5.9233 6.18325 5.75987ZM5.85562 18.3442C5.85608 18.3436 5.86084 18.3435 5.86853 18.346C5.85901 18.3461 5.85516 18.3449 5.85562 18.3442ZM5.8944 18.3599C5.90074 18.3649 5.90336 18.3689 5.90308 18.3696C5.9028 18.3704 5.89963 18.3678 5.8944 18.3599ZM5.8944 5.6401C5.89963 5.63214 5.9028 5.62964 5.90308 5.63037C5.90336 5.63111 5.90074 5.63509 5.8944 5.6401ZM20.75 5.00003C20.75 4.58582 20.4142 4.25003 20 4.25003C19.5858 4.25003 19.25 4.58582 19.25 5.00003L19.25 19C19.25 19.4142 19.5858 19.75 20 19.75C20.4142 19.75 20.75 19.4142 20.75 19V5.00003Z" fill="#22282F"/>
</svg>
