<svg width="24" height="24" viewBox="0 0 24 24" fill="none" xmlns="http://www.w3.org/2000/svg">
<path fill-rule="evenodd" clip-rule="evenodd" d="M2.75 12C2.75 6.89137 6.89137 2.75 12 2.75C17.1086 2.75 21.25 6.89137 21.25 12C21.25 17.1086 17.1086 21.25 12 21.25C6.89137 21.25 2.75 17.1086 2.75 12ZM12 1.25C6.06294 1.25 1.25 6.06294 1.25 12C1.25 17.9371 6.06294 22.75 12 22.75C17.9371 22.75 22.75 17.9371 22.75 12C22.75 6.06294 17.9371 1.25 12 1.25ZM13.5254 9.4489L13.4759 9.41588C12.8339 8.98785 12.2825 8.62015 11.8238 8.40354C11.3527 8.181 10.7611 8.0115 10.1742 8.32559C9.58737 8.63968 9.40028 9.22588 9.32408 9.74137C9.24991 10.2431 9.24995 10.9059 9.25 11.6775L9.25 11.737V12.263L9.25 12.3225C9.24995 13.0941 9.24991 13.7569 9.32408 14.2586C9.40028 14.7741 9.58737 15.3603 10.1742 15.6744C10.7611 15.9885 11.3527 15.819 11.8238 15.5965C12.2825 15.3799 12.8339 15.0122 13.4759 14.5841L13.4759 14.5841L13.5254 14.5511L13.9199 14.2881L13.966 14.2574L13.966 14.2574C14.4909 13.9075 14.953 13.5995 15.2767 13.307C15.6209 12.996 15.9472 12.581 15.9472 12C15.9472 11.419 15.6209 11.004 15.2767 10.693C14.953 10.4005 14.4909 10.0925 13.966 9.74263L13.9199 9.71186L13.5254 9.4489ZM10.8556 9.65578C10.8552 9.65513 10.859 9.65389 10.8685 9.65395C10.8608 9.65645 10.8561 9.65642 10.8556 9.65578ZM11.1833 9.75987C11.0171 9.68139 10.9275 9.65985 10.8858 9.65511C10.8666 9.69243 10.8348 9.77893 10.808 9.96073C10.752 10.3393 10.75 10.889 10.75 11.737V12.263C10.75 13.111 10.752 13.6607 10.808 14.0393C10.8348 14.2211 10.8666 14.3076 10.8858 14.3449C10.9275 14.3402 11.0171 14.3186 11.1833 14.2401C11.5293 14.0767 11.9878 13.7734 12.6934 13.303L13.0878 13.0401C13.6729 12.65 14.0397 12.4031 14.271 12.1941C14.3802 12.0954 14.4247 12.0347 14.4418 12.0052L14.4446 12L14.4418 11.9948C14.4247 11.9653 14.3802 11.9046 14.271 11.8059C14.0397 11.5969 13.6729 11.35 13.0878 10.9599L12.6934 10.697C11.9878 10.2266 11.5293 9.9233 11.1833 9.75987ZM10.8556 14.3442C10.8561 14.3436 10.8608 14.3435 10.8685 14.346C10.859 14.3461 10.8552 14.3449 10.8556 14.3442ZM10.8944 14.3599C10.9007 14.3649 10.9034 14.3689 10.9031 14.3696C10.9028 14.3704 10.8996 14.3679 10.8944 14.3599ZM10.8944 9.64011C10.8996 9.63215 10.9028 9.62964 10.9031 9.63038C10.9034 9.63111 10.9007 9.63509 10.8944 9.64011Z" fill="#22282F"/>
</svg>
