<svg width="24" height="24" viewBox="0 0 24 24" fill="none" xmlns="http://www.w3.org/2000/svg">
<path fill-rule="evenodd" clip-rule="evenodd" d="M2.25 5C2.25 4.58579 2.58579 4.25 3 4.25H19C19.4142 4.25 19.75 4.58579 19.75 5C19.75 5.41421 19.4142 5.75 19 5.75H3C2.58579 5.75 2.25 5.41421 2.25 5ZM2.25 9C2.25 8.58579 2.58579 8.25 3 8.25H15C15.4142 8.25 15.75 8.58579 15.75 9C15.75 9.41421 15.4142 9.75 15 9.75H3C2.58579 9.75 2.25 9.41421 2.25 9ZM3 12.25C2.58579 12.25 2.25 12.5858 2.25 13C2.25 13.4142 2.58579 13.75 3 13.75H11C11.4142 13.75 11.75 13.4142 11.75 13C11.75 12.5858 11.4142 12.25 11 12.25H3ZM2.25 17C2.25 16.5858 2.58579 16.25 3 16.25H9C9.41421 16.25 9.75 16.5858 9.75 17C9.75 17.4142 9.41421 17.75 9 17.75H3C2.58579 17.75 2.25 17.4142 2.25 17ZM19.5254 13.4489L19.4759 13.4159C18.8339 12.9878 18.2825 12.6201 17.8238 12.4035C17.3527 12.181 16.7611 12.0115 16.1742 12.3256C15.5874 12.6397 15.4003 13.2259 15.3241 13.7414C15.2499 14.2431 15.2499 14.9059 15.25 15.6775V15.6775L15.25 15.737V16.263L15.25 16.3225V16.3225C15.2499 17.0941 15.2499 17.7569 15.3241 18.2586C15.4003 18.7741 15.5874 19.3603 16.1742 19.6744C16.7611 19.9885 17.3527 19.819 17.8238 19.5965C18.2825 19.3799 18.8339 19.0122 19.4759 18.5841L19.4759 18.5841L19.5254 18.5511L19.9199 18.2881L19.966 18.2574L19.9661 18.2574C20.4909 17.9075 20.9531 17.5995 21.2767 17.307C21.6209 16.996 21.9472 16.581 21.9472 16C21.9472 15.419 21.6209 15.004 21.2767 14.693C20.953 14.4005 20.4909 14.0925 19.966 13.7426L19.9199 13.7119L19.5254 13.4489ZM16.8556 13.6558C16.8552 13.6551 16.859 13.6539 16.8685 13.654C16.8608 13.6565 16.8561 13.6564 16.8556 13.6558ZM17.1833 13.7599C17.0171 13.6814 16.9275 13.6599 16.8858 13.6551C16.8666 13.6924 16.8348 13.7789 16.808 13.9607C16.752 14.3393 16.75 14.889 16.75 15.737V16.263C16.75 17.111 16.752 17.6607 16.808 18.0393C16.8348 18.2211 16.8666 18.3076 16.8858 18.3449C16.9275 18.3402 17.0171 18.3186 17.1833 18.2401C17.5293 18.0767 17.9878 17.7734 18.6934 17.303L19.0878 17.0401C19.6729 16.65 20.0397 16.4031 20.271 16.1941C20.3802 16.0954 20.4247 16.0347 20.4417 16.0052L20.4446 16L20.4417 15.9948C20.4247 15.9653 20.3802 15.9046 20.271 15.8059C20.0397 15.5969 19.6729 15.35 19.0878 14.9599L18.6934 14.697C17.9878 14.2266 17.5293 13.9233 17.1833 13.7599ZM16.8556 18.3442C16.8561 18.3436 16.8608 18.3435 16.8685 18.346C16.859 18.3461 16.8552 18.3449 16.8556 18.3442ZM16.8944 18.3599C16.9007 18.3649 16.9034 18.3689 16.9031 18.3696C16.9028 18.3704 16.8996 18.3679 16.8944 18.3599ZM16.8944 13.6401C16.8996 13.6321 16.9028 13.6296 16.9031 13.6304C16.9034 13.6311 16.9007 13.6351 16.8944 13.6401Z" fill="#22282F"/>
</svg>
