<svg width="24" height="24" viewBox="0 0 24 24" fill="none" xmlns="http://www.w3.org/2000/svg">
<path fill-rule="evenodd" clip-rule="evenodd" d="M9.43727 4.31806C9.45382 4.3287 9.47042 4.33937 9.48708 4.35008L17.7886 9.68675L17.8359 9.71716C18.3845 10.0698 18.8657 10.3791 19.2025 10.6736C19.5588 10.9852 19.9007 11.4052 19.9007 12C19.9007 12.5948 19.5588 13.0148 19.2025 13.3264C18.8657 13.6209 18.3845 13.9302 17.8359 14.2828L17.7886 14.3132L9.48708 19.6499L9.43728 19.6819C8.79999 20.0917 8.25128 20.4445 7.79529 20.6505C7.32513 20.8629 6.73881 21.0195 6.16142 20.7043C5.58404 20.3891 5.39875 19.8112 5.32319 19.3008C5.24991 18.8059 5.24995 18.1535 5.25 17.3959L5.25 17.3367V6.66332C5.25 6.64352 5.25 6.62378 5.25 6.60411C5.24995 5.84646 5.24991 5.19413 5.32319 4.69916C5.39875 4.1888 5.58404 3.61089 6.16142 3.29566C6.73881 2.98044 7.32513 3.13709 7.79529 3.34951C8.25128 3.55553 8.79998 3.90831 9.43727 4.31806ZM6.85489 4.61985C6.85442 4.61922 6.85822 4.61792 6.86767 4.61784C6.86008 4.62044 6.85536 4.62048 6.85489 4.61985ZM6.88369 4.61862C6.9243 4.62242 7.01255 4.64186 7.1777 4.71647C7.52004 4.87114 7.97457 5.16097 8.67595 5.61185L16.9774 10.9485C17.5876 11.3408 17.9723 11.5904 18.2151 11.8028C18.33 11.9033 18.3772 11.9656 18.3953 11.9961C18.3961 11.9975 18.3969 11.9988 18.3975 12C18.3969 12.0012 18.3961 12.0025 18.3953 12.0039C18.3772 12.0343 18.33 12.0967 18.2151 12.1972C17.9723 12.4096 17.5876 12.6592 16.9774 13.0515L8.67595 18.3881C7.97457 18.839 7.52004 19.1288 7.1777 19.2835C7.01255 19.3581 6.9243 19.3776 6.88369 19.3814C6.86493 19.3451 6.83356 19.2604 6.80701 19.0811C6.752 18.7095 6.75 18.1705 6.75 17.3367V6.66332C6.75 5.82952 6.752 5.29045 6.80701 4.91884C6.83356 4.73958 6.86493 4.65483 6.88369 4.61862ZM6.85489 19.3801C6.85536 19.3795 6.86008 19.3795 6.86767 19.3821C6.85822 19.3821 6.85442 19.3808 6.85489 19.3801ZM6.8917 19.3953C6.89799 19.4002 6.90058 19.4042 6.9003 19.4049C6.90002 19.4057 6.89688 19.4032 6.8917 19.3953ZM6.8917 4.60472C6.89688 4.59681 6.90002 4.59432 6.9003 4.59506C6.90058 4.59579 6.89799 4.59975 6.8917 4.60472Z" fill="#22282F"/>
</svg>
