<svg width="24" height="24" viewBox="0 0 24 24" fill="none" xmlns="http://www.w3.org/2000/svg">
<path fill-rule="evenodd" clip-rule="evenodd" d="M3 4.25C2.58579 4.25 2.25 4.58579 2.25 5C2.25 5.41421 2.58579 5.75 3 5.75H19C19.4142 5.75 19.75 5.41421 19.75 5C19.75 4.58579 19.4142 4.25 19 4.25H3ZM3 8.25C2.58579 8.25 2.25 8.58579 2.25 9C2.25 9.41421 2.58579 9.75 3 9.75H15C15.4142 9.75 15.75 9.41421 15.75 9C15.75 8.58579 15.4142 8.25 15 8.25H3ZM2.25 13C2.25 12.5858 2.58579 12.25 3 12.25H11C11.4142 12.25 11.75 12.5858 11.75 13C11.75 13.4142 11.4142 13.75 11 13.75H3C2.58579 13.75 2.25 13.4142 2.25 13ZM3 16.25C2.58579 16.25 2.25 16.5858 2.25 17C2.25 17.4142 2.58579 17.75 3 17.75H9C9.41421 17.75 9.75 17.4142 9.75 17C9.75 16.5858 9.41421 16.25 9 16.25H3ZM17 17.75C16.3096 17.75 15.75 18.3096 15.75 19C15.75 19.6904 16.3096 20.25 17 20.25C17.6904 20.25 18.25 19.6904 18.25 19C18.25 18.3096 17.6904 17.75 17 17.75ZM18.25 16.5499C17.875 16.3581 17.4501 16.25 17 16.25C15.4812 16.25 14.25 17.4812 14.25 19C14.25 20.5188 15.4812 21.75 17 21.75C18.5188 21.75 19.75 20.5188 19.75 19V12.4014L21.584 13.624C21.9286 13.8538 22.3943 13.7607 22.624 13.416C22.8538 13.0714 22.7607 12.6057 22.416 12.376L19.416 10.376C19.1859 10.2225 18.89 10.2082 18.6461 10.3387C18.4022 10.4693 18.25 10.7234 18.25 11V16.5499Z" fill="#22282F"/>
</svg>
