<svg width="24" height="24" viewBox="0 0 24 24" fill="none" xmlns="http://www.w3.org/2000/svg">
<path fill-rule="evenodd" clip-rule="evenodd" d="M16.3066 6.697C17.0122 6.22661 17.4707 5.92333 17.8167 5.7599C17.9829 5.68142 18.0725 5.65988 18.1142 5.65514C18.1334 5.69246 18.1652 5.77896 18.192 5.96075C18.248 6.33932 18.25 6.88907 18.25 7.73706V16.263C18.25 17.111 18.248 17.6607 18.192 18.0393C18.1652 18.2211 18.1334 18.3076 18.1142 18.3449C18.0725 18.3402 17.9829 18.3186 17.8167 18.2402C17.4707 18.0767 17.0122 17.7734 16.3066 17.3031L9.91218 13.0401C9.32714 12.6501 8.96029 12.4031 8.72898 12.1941C8.61983 12.0955 8.57527 12.0347 8.55825 12.0052L8.55538 12L8.55825 11.9949C8.57527 11.9654 8.61983 11.9046 8.72898 11.806C8.96029 11.5969 9.32714 11.35 9.91218 10.96L16.3066 6.697ZM18.1444 5.6558C18.1439 5.65644 18.1392 5.65648 18.1315 5.65398C18.141 5.65391 18.1448 5.65516 18.1444 5.6558ZM18.1056 5.64013C18.0993 5.63512 18.0966 5.63114 18.0969 5.6304C18.0972 5.62967 18.1004 5.63217 18.1056 5.64013ZM18.0969 18.3696C18.0966 18.3689 18.0993 18.3649 18.1056 18.3599C18.1004 18.3679 18.0972 18.3704 18.0969 18.3696ZM18.1315 18.3461C18.1392 18.3436 18.1439 18.3436 18.1444 18.3443C18.1448 18.3449 18.141 18.3461 18.1315 18.3461ZM18.8258 4.32561C18.2389 4.01152 17.6473 4.18103 17.1762 4.40357C16.7175 4.62017 16.1661 4.98787 15.5241 5.4159L15.4746 5.44892L9.08013 9.71189L9.03397 9.74265L9.03396 9.74266C8.50912 10.0925 8.04695 10.4005 7.72326 10.6931C7.37914 11.004 7.05278 11.419 7.05278 12C7.05278 12.5811 7.37914 12.996 7.72326 13.307C8.04695 13.5995 8.50912 13.9076 9.03397 14.2574L9.08012 14.2882L15.4746 18.5511L15.5241 18.5841C16.166 19.0122 16.7175 19.3799 17.1762 19.5965C17.6473 19.819 18.2389 19.9885 18.8258 19.6744C19.4126 19.3604 19.5997 18.7741 19.6759 18.2587C19.7501 17.7569 19.75 17.0941 19.75 16.3225V16.3225L19.75 16.263V7.73706L19.75 7.67756V7.67753C19.75 6.90595 19.7501 6.24315 19.6759 5.7414C19.5997 5.22591 19.4126 4.6397 18.8258 4.32561ZM4.75 4.99997C4.75 4.58575 4.41421 4.24997 4 4.24997C3.58579 4.24997 3.25 4.58575 3.25 4.99997V19C3.25 19.4142 3.58579 19.75 4 19.75C4.41421 19.75 4.75 19.4142 4.75 19L4.75 4.99997Z" fill="#22282F"/>
</svg>
