<svg width="24" height="24" viewBox="0 0 24 24" fill="none" xmlns="http://www.w3.org/2000/svg">
<path fill-rule="evenodd" clip-rule="evenodd" d="M2.25 5C2.25 4.58579 2.58579 4.25 3 4.25H19C19.4142 4.25 19.75 4.58579 19.75 5C19.75 5.41421 19.4142 5.75 19 5.75H3C2.58579 5.75 2.25 5.41421 2.25 5ZM2.25 9C2.25 8.58579 2.58579 8.25 3 8.25H15C15.4142 8.25 15.75 8.58579 15.75 9C15.75 9.41421 15.4142 9.75 15 9.75H3C2.58579 9.75 2.25 9.41421 2.25 9ZM3 12.25C2.58579 12.25 2.25 12.5858 2.25 13C2.25 13.4142 2.58579 13.75 3 13.75H11C11.4142 13.75 11.75 13.4142 11.75 13C11.75 12.5858 11.4142 12.25 11 12.25H3ZM2.25 17C2.25 16.5858 2.58579 16.25 3 16.25H9C9.41421 16.25 9.75 16.5858 9.75 17C9.75 17.4142 9.41421 17.75 9 17.75H3C2.58579 17.75 2.25 17.4142 2.25 17ZM18.75 14C18.75 13.5858 18.4142 13.25 18 13.25C17.5858 13.25 17.25 13.5858 17.25 14V16.25H15C14.5858 16.25 14.25 16.5858 14.25 17C14.25 17.4142 14.5858 17.75 15 17.75H17.25V20C17.25 20.4142 17.5858 20.75 18 20.75C18.4142 20.75 18.75 20.4142 18.75 20V17.75H21C21.4142 17.75 21.75 17.4142 21.75 17C21.75 16.5858 21.4142 16.25 21 16.25H18.75V14Z" fill="#22282F"/>
</svg>
