<svg width="24" height="24" viewBox="0 0 24 24" fill="none" xmlns="http://www.w3.org/2000/svg">
<path fill-rule="evenodd" clip-rule="evenodd" d="M9 2.75C8.00535 2.75 7.16144 3.39541 6.86422 4.29029C7.7453 4.25 8.76599 4.25001 9.94358 4.25002L10 4.25002L14 4.25002L14.0564 4.25002C15.8942 4.25 17.3498 4.24999 18.489 4.40315C19.6614 4.56078 20.6104 4.8929 21.3588 5.64126C22.1071 6.38962 22.4392 7.33857 22.5969 8.51099C22.75 9.6502 22.75 11.1058 22.75 12.9436L22.75 12.9436L22.75 13L22.75 13.0564L22.75 13.0565C22.75 14.8943 22.75 16.3498 22.5969 17.489C22.4392 18.6615 22.1071 19.6104 21.3588 20.3588C20.6104 21.1071 19.6614 21.4393 18.489 21.5969C17.3498 21.75 15.8943 21.75 14.0566 21.75L14.0566 21.75L14.0565 21.75L14.0565 21.75L14.0564 21.75L14 21.75L10 21.75L9.94359 21.75L9.94354 21.75C8.1058 21.75 6.65018 21.75 5.51098 21.5969C4.33856 21.4393 3.38961 21.1071 2.64124 20.3588C1.89288 19.6104 1.56076 18.6615 1.40313 17.489C1.24997 16.3498 1.24998 14.8942 1.25 13.0564L1.25 13L1.25 12.9436C1.24998 11.1058 1.24997 9.65021 1.40313 8.51099C1.56076 7.33857 1.89288 6.38962 2.64124 5.64126C3.34251 4.93999 4.21991 4.60423 5.29228 4.43504C5.56472 2.63202 7.12097 1.25 9 1.25L17 1.25C17.4142 1.25 17.75 1.58579 17.75 2C17.75 2.41422 17.4142 2.75 17 2.75L9 2.75ZM5.71085 5.88978C4.70476 6.02504 4.12511 6.27871 3.7019 6.70192C3.27869 7.12513 3.02502 7.70478 2.88976 8.71086C2.75159 9.73853 2.75 11.0932 2.75 13C2.75 14.9068 2.75159 16.2615 2.88976 17.2892C3.02502 18.2953 3.27869 18.8749 3.7019 19.2981C4.12511 19.7213 4.70476 19.975 5.71085 20.1103C6.73851 20.2484 8.09318 20.25 10 20.25L14 20.25C15.9068 20.25 17.2615 20.2484 18.2892 20.1103C19.2952 19.975 19.8749 19.7213 20.2981 19.2981C20.7213 18.8749 20.975 18.2953 21.1102 17.2892C21.2484 16.2615 21.25 14.9068 21.25 13C21.25 11.0932 21.2484 9.73853 21.1102 8.71086C20.975 7.70478 20.7213 7.12513 20.2981 6.70192C19.8749 6.27871 19.2952 6.02504 18.2892 5.88978C17.2615 5.75161 15.9068 5.75002 14 5.75002L10 5.75002C8.09318 5.75002 6.73851 5.75161 5.71085 5.88978ZM6.75 12C6.75 11.3096 7.30964 10.75 8 10.75C8.69036 10.75 9.25 11.3096 9.25 12C9.25 12.6903 8.69036 13.25 8 13.25C7.30964 13.25 6.75 12.6903 6.75 12ZM8 9.24999C6.48122 9.24999 5.25 10.4812 5.25 12C5.25 13.5188 6.48122 14.75 8 14.75C9.51878 14.75 10.75 13.5188 10.75 12C10.75 10.4812 9.51878 9.24999 8 9.24999ZM13.25 10C13.25 9.58579 13.5858 9.25001 14 9.25001L18 9.25001C18.4142 9.25001 18.75 9.58579 18.75 10C18.75 10.4142 18.4142 10.75 18 10.75L14 10.75C13.5858 10.75 13.25 10.4142 13.25 10ZM14 13.25C13.5858 13.25 13.25 13.5858 13.25 14C13.25 14.4142 13.5858 14.75 14 14.75L18 14.75C18.4142 14.75 18.75 14.4142 18.75 14C18.75 13.5858 18.4142 13.25 18 13.25L14 13.25Z" fill="#22282F"/>
</svg>
