<svg width="24" height="24" viewBox="0 0 24 24" fill="none" xmlns="http://www.w3.org/2000/svg">
<path fill-rule="evenodd" clip-rule="evenodd" d="M16.4697 1.46967C16.7626 1.17678 17.2374 1.17678 17.5303 1.46967L20.5303 4.46967C20.8232 4.76256 20.8232 5.23744 20.5303 5.53033L17.5303 8.53033C17.2374 8.82322 16.7626 8.82322 16.4697 8.53033C16.1768 8.23744 16.1768 7.76256 16.4697 7.46967L18.1893 5.75H9.5C8.30977 5.75 7.47987 5.75112 6.84426 5.82277C6.22376 5.89272 5.88193 6.02187 5.63029 6.21495C5.47429 6.33466 5.33466 6.47429 5.21496 6.63029C5.02187 6.88193 4.89272 7.22376 4.82277 7.84426C4.75112 8.47987 4.75 9.30977 4.75 10.5V11C4.75 11.4142 4.41421 11.75 4 11.75C3.58579 11.75 3.25 11.4142 3.25 11V10.5V10.4548C3.24999 9.3204 3.24997 8.40571 3.33221 7.67622C3.41725 6.92195 3.59807 6.27343 4.02493 5.71714C4.22443 5.45715 4.45715 5.22443 4.71714 5.02492C5.27343 4.59807 5.92195 4.41725 6.67622 4.33221C7.40571 4.24997 8.3204 4.24999 9.45482 4.25L9.5 4.25H18.1893L16.4697 2.53033C16.1768 2.23744 16.1768 1.76256 16.4697 1.46967ZM12.787 8.30709C13.0673 8.42318 13.25 8.69665 13.25 9V15C13.25 15.4142 12.9142 15.75 12.5 15.75C12.0858 15.75 11.75 15.4142 11.75 15V10.8107L10.5303 12.0303C10.2374 12.3232 9.76256 12.3232 9.46967 12.0303C9.17678 11.7374 9.17678 11.2626 9.46967 10.9697L11.9697 8.46967C12.1842 8.25517 12.5068 8.191 12.787 8.30709ZM20.75 13.5V13C20.75 12.5858 20.4142 12.25 20 12.25C19.5858 12.25 19.25 12.5858 19.25 13V13.5C19.25 14.6902 19.2489 15.5201 19.1772 16.1557C19.1073 16.7762 18.9781 17.1181 18.785 17.3697C18.6653 17.5257 18.5257 17.6653 18.3697 17.785C18.1181 17.9781 17.7762 18.1073 17.1557 18.1772C16.5201 18.2489 15.6902 18.25 14.5 18.25H5.81066L7.53033 16.5303C7.82322 16.2374 7.82322 15.7626 7.53033 15.4697C7.23744 15.1768 6.76256 15.1768 6.46967 15.4697L3.46967 18.4697C3.17678 18.7626 3.17678 19.2374 3.46967 19.5303L6.46967 22.5303C6.76256 22.8232 7.23744 22.8232 7.53033 22.5303C7.82322 22.2374 7.82322 21.7626 7.53033 21.4697L5.81066 19.75H14.5H14.5452C15.6796 19.75 16.5943 19.75 17.3238 19.6678C18.0781 19.5828 18.7266 19.4019 19.2829 18.9751C19.5429 18.7756 19.7756 18.5429 19.9751 18.2829C20.4019 17.7266 20.5828 17.0781 20.6678 16.3238C20.75 15.5943 20.75 14.6796 20.75 13.5452V13.5Z" fill="#22282F"/>
</svg>
