<svg width="24" height="24" viewBox="0 0 24 24" fill="none" xmlns="http://www.w3.org/2000/svg">
<path fill-rule="evenodd" clip-rule="evenodd" d="M4.76986 4.92383C6.36338 3.5959 8.77743 2.25 12 2.25C17.4158 2.25 21.75 6.61682 21.75 12C21.75 17.3848 17.3848 21.75 12 21.75C6.61522 21.75 2.25 17.3848 2.25 12C2.25 11.5858 2.58579 11.25 3 11.25C3.41421 11.25 3.75 11.5858 3.75 12C3.75 16.5563 7.44365 20.25 12 20.25C16.5563 20.25 20.25 16.5563 20.25 12C20.25 7.44205 16.5842 3.75 12 3.75C9.22257 3.75 7.13662 4.9041 5.73014 6.07617C5.02646 6.66257 4.49856 7.24927 4.14815 7.68727C3.97327 7.90587 3.84357 8.08623 3.75917 8.2093C3.717 8.2708 3.68622 8.31788 3.66686 8.34814C3.65718 8.36326 3.65036 8.37417 3.6464 8.38056L3.64312 8.38587L3.64282 8.38637C3.46928 8.6751 3.12449 8.81272 2.7998 8.72279C2.47492 8.6328 2.25 8.33711 2.25 8V3.5C2.25 3.08579 2.58579 2.75 3 2.75C3.41421 2.75 3.75 3.08579 3.75 3.5V5.87217C4.04305 5.56863 4.38294 5.24627 4.76986 4.92383ZM9 8.25C9.41421 8.25 9.75 8.58579 9.75 9V15C9.75 15.4142 9.41421 15.75 9 15.75C8.58579 15.75 8.25 15.4142 8.25 15V9C8.25 8.58579 8.58579 8.25 9 8.25ZM12 8.25C11.5858 8.25 11.25 8.58579 11.25 9V12C11.25 12.4142 11.5858 12.75 12 12.75H14.25V14.25H12C11.5858 14.25 11.25 14.5858 11.25 15C11.25 15.4142 11.5858 15.75 12 15.75H15C15.4142 15.75 15.75 15.4142 15.75 15V12C15.75 11.5858 15.4142 11.25 15 11.25H12.75V9.75H15C15.4142 9.75 15.75 9.41421 15.75 9C15.75 8.58579 15.4142 8.25 15 8.25H12Z" fill="#22282F"/>
</svg>
