<svg width="24" height="24" viewBox="0 0 24 24" fill="none" xmlns="http://www.w3.org/2000/svg">
<path fill-rule="evenodd" clip-rule="evenodd" d="M4.76986 4.92383C6.36338 3.5959 8.77743 2.25 12 2.25C17.4158 2.25 21.75 6.61682 21.75 12C21.75 17.3848 17.3848 21.75 12 21.75C6.61522 21.75 2.25 17.3848 2.25 12C2.25 11.5858 2.58579 11.25 3 11.25C3.41421 11.25 3.75 11.5858 3.75 12C3.75 16.5563 7.44365 20.25 12 20.25C16.5563 20.25 20.25 16.5563 20.25 12C20.25 7.44205 16.5842 3.75 12 3.75C9.22257 3.75 7.13662 4.9041 5.73014 6.07617C5.02646 6.66257 4.49856 7.24927 4.14815 7.68727C3.97327 7.90587 3.84357 8.08623 3.75917 8.2093C3.717 8.2708 3.68622 8.31788 3.66686 8.34814C3.65718 8.36326 3.65036 8.37417 3.6464 8.38056L3.64312 8.38587L3.64282 8.38637C3.46928 8.6751 3.12449 8.81272 2.7998 8.72279C2.47492 8.6328 2.25 8.33711 2.25 8V3.5C2.25 3.08579 2.58579 2.75 3 2.75C3.41421 2.75 3.75 3.08579 3.75 3.5V5.87217C4.04305 5.56863 4.38294 5.24627 4.76986 4.92383ZM9 8.24997C9.41421 8.24997 9.75 8.58576 9.75 8.99997V15C9.75 15.4142 9.41421 15.75 9 15.75C8.58579 15.75 8.25 15.4142 8.25 15V8.99997C8.25 8.58576 8.58579 8.24997 9 8.24997ZM13.5 8.24997C12.2574 8.24997 11.25 9.25733 11.25 10.5V13.5C11.25 14.7426 12.2574 15.75 13.5 15.75C14.7426 15.75 15.75 14.7426 15.75 13.5V10.5C15.75 9.25733 14.7426 8.24997 13.5 8.24997ZM12.75 10.5C12.75 10.0858 13.0858 9.74997 13.5 9.74997C13.9142 9.74997 14.25 10.0858 14.25 10.5V13.5C14.25 13.9142 13.9142 14.25 13.5 14.25C13.0858 14.25 12.75 13.9142 12.75 13.5V10.5Z" fill="#22282F"/>
</svg>
