<svg width="24" height="24" viewBox="0 0 24 24" fill="none" xmlns="http://www.w3.org/2000/svg">
<path fill-rule="evenodd" clip-rule="evenodd" d="M12 2.25C8.77743 2.25 6.36338 3.5959 4.76986 4.92383C4.38294 5.24627 4.04305 5.56863 3.75 5.87217V3.5C3.75 3.08579 3.41421 2.75 3 2.75C2.58579 2.75 2.25 3.08579 2.25 3.5V8C2.25 8.33711 2.47492 8.6328 2.7998 8.72279C3.12449 8.81272 3.46928 8.6751 3.64282 8.38637L3.64312 8.38587L3.6464 8.38056C3.65036 8.37417 3.65718 8.36326 3.66686 8.34814C3.68622 8.31788 3.717 8.2708 3.75917 8.2093C3.84357 8.08623 3.97327 7.90587 4.14815 7.68727C4.49856 7.24927 5.02646 6.66257 5.73014 6.07617C7.13662 4.9041 9.22257 3.75 12 3.75C16.5842 3.75 20.25 7.44205 20.25 12C20.25 16.5563 16.5563 20.25 12 20.25C7.44365 20.25 3.75 16.5563 3.75 12C3.75 11.5858 3.41421 11.25 3 11.25C2.58579 11.25 2.25 11.5858 2.25 12C2.25 17.3848 6.61522 21.75 12 21.75C17.3848 21.75 21.75 17.3848 21.75 12C21.75 6.61682 17.4158 2.25 12 2.25ZM10 8.25C9.58579 8.25 9.25 8.58579 9.25 9V12C9.25 12.4142 9.58579 12.75 10 12.75H13.25V14.25H10C9.58579 14.25 9.25 14.5858 9.25 15C9.25 15.4142 9.58579 15.75 10 15.75H14C14.4142 15.75 14.75 15.4142 14.75 15V12C14.75 11.5858 14.4142 11.25 14 11.25H10.75V9.75H14C14.4142 9.75 14.75 9.41421 14.75 9C14.75 8.58579 14.4142 8.25 14 8.25H10Z" fill="#22282F"/>
</svg>
