<svg width="24" height="24" viewBox="0 0 24 24" fill="none" xmlns="http://www.w3.org/2000/svg">
<path fill-rule="evenodd" clip-rule="evenodd" d="M18.5303 1.46967C18.2374 1.17678 17.7626 1.17678 17.4697 1.46967C17.1768 1.76256 17.1768 2.23744 17.4697 2.53033L19.1893 4.25H16.8505L16.8026 4.25C15.6812 4.24998 14.7716 4.24997 14.042 4.33888C13.2816 4.43154 12.6303 4.6289 12.0677 5.08375C11.5051 5.5386 11.1756 6.13405 10.9257 6.85813C10.6859 7.55293 10.4953 8.44235 10.2604 9.53879L10.2503 9.58568L9.28297 14.1C9.03556 15.2546 8.86291 16.0541 8.65638 16.6525C8.45655 17.2314 8.25171 17.5376 7.98928 17.7497C7.72685 17.9619 7.38453 18.098 6.77657 18.1721C6.14824 18.2487 5.33026 18.25 4.14951 18.25H3C2.58579 18.25 2.25 18.5858 2.25 19C2.25 19.4142 2.58579 19.75 3 19.75H4.14951H4.19746C5.31879 19.75 6.22839 19.75 6.95802 19.6611C7.7184 19.5685 8.36965 19.3711 8.93229 18.9162C9.49494 18.4614 9.82437 17.866 10.0743 17.1419C10.3141 16.4471 10.5047 15.5576 10.7396 14.4612L10.7497 14.4143L11.717 9.89998C11.9644 8.74543 12.1371 7.94588 12.3436 7.34754C12.5434 6.7686 12.7483 6.4624 13.0107 6.25025C13.2732 6.0381 13.6155 5.90196 14.2234 5.82787C14.8518 5.7513 15.6697 5.75 16.8505 5.75H19.1893L17.4697 7.46967C17.1768 7.76256 17.1768 8.23744 17.4697 8.53033C17.7626 8.82322 18.2374 8.82322 18.5303 8.53033L21.5303 5.53033C21.8232 5.23744 21.8232 4.76256 21.5303 4.46967L18.5303 1.46967ZM18.5303 22.5303C18.2374 22.8232 17.7626 22.8232 17.4697 22.5303C17.1768 22.2374 17.1768 21.7626 17.4697 21.4697L19.1893 19.75H13C12.5858 19.75 12.25 19.4142 12.25 19C12.25 18.5858 12.5858 18.25 13 18.25H19.1893L17.4697 16.5303C17.1768 16.2374 17.1768 15.7626 17.4697 15.4697C17.7626 15.1768 18.2374 15.1768 18.5303 15.4697L21.5303 18.4697C21.8232 18.7626 21.8232 19.2374 21.5303 19.5303L18.5303 22.5303ZM3 5.75C2.58579 5.75 2.25 5.41421 2.25 5C2.25 4.58579 2.58579 4.25 3 4.25H8C8.41421 4.25 8.75 4.58579 8.75 5C8.75 5.41421 8.41421 5.75 8 5.75H3Z" fill="#22282F"/>
</svg>
