<svg width="24" height="24" viewBox="0 0 24 24" fill="none" xmlns="http://www.w3.org/2000/svg">
<path fill-rule="evenodd" clip-rule="evenodd" d="M12.75 4C12.75 3.58579 12.4142 3.25 12 3.25C11.5858 3.25 11.25 3.58579 11.25 4L11.25 20C11.25 20.4142 11.5858 20.75 12 20.75C12.4142 20.75 12.75 20.4142 12.75 20L12.75 4ZM7 7.25C7.41421 7.25 7.75 7.58579 7.75 8L7.75 16C7.75 16.4142 7.41421 16.75 7 16.75C6.58578 16.75 6.25 16.4142 6.25 16L6.25 8C6.25 7.58579 6.58578 7.25 7 7.25ZM2 10.25C2.41421 10.25 2.75 10.5858 2.75 11L2.75 13C2.75 13.4142 2.41421 13.75 2 13.75C1.58579 13.75 1.25 13.4142 1.25 13L1.25 11C1.25 10.5858 1.58579 10.25 2 10.25ZM17 7.25C17.4142 7.25 17.75 7.58579 17.75 8L17.75 16C17.75 16.4142 17.4142 16.75 17 16.75C16.5858 16.75 16.25 16.4142 16.25 16L16.25 8C16.25 7.58579 16.5858 7.25 17 7.25ZM22.75 11C22.75 10.5858 22.4142 10.25 22 10.25C21.5858 10.25 21.25 10.5858 21.25 11L21.25 13C21.25 13.4142 21.5858 13.75 22 13.75C22.4142 13.75 22.75 13.4142 22.75 13L22.75 11Z" fill="#22282F"/>
</svg>
