<svg width="24" height="24" viewBox="0 0 24 24" fill="none" xmlns="http://www.w3.org/2000/svg">
<path fill-rule="evenodd" clip-rule="evenodd" d="M2.75 12C2.75 6.89137 6.89137 2.75 12 2.75C17.1086 2.75 21.25 6.89137 21.25 12C21.25 17.1086 17.1086 21.25 12 21.25C6.89137 21.25 2.75 17.1086 2.75 12ZM12 1.25C6.06294 1.25 1.25 6.06294 1.25 12C1.25 17.9371 6.06294 22.75 12 22.75C17.9371 22.75 22.75 17.9371 22.75 12C22.75 6.06294 17.9371 1.25 12 1.25ZM11 8.25L10.9553 8.25C10.5224 8.24995 10.1256 8.2499 9.80279 8.2933C9.44731 8.34109 9.07159 8.45354 8.76256 8.76256C8.45354 9.07159 8.34109 9.44731 8.2933 9.80279C8.2499 10.1256 8.24995 10.5224 8.25 10.9553L8.25 11V13L8.25 13.0447C8.24995 13.4776 8.2499 13.8744 8.2933 14.1972C8.34109 14.5527 8.45354 14.9284 8.76256 15.2374C9.07159 15.5465 9.44731 15.6589 9.80279 15.7067C10.1256 15.7501 10.5224 15.7501 10.9552 15.75H10.9553L11 15.75H13L13.0447 15.75H13.0448C13.4776 15.7501 13.8744 15.7501 14.1972 15.7067C14.5527 15.6589 14.9284 15.5465 15.2374 15.2374C15.5465 14.9284 15.6589 14.5527 15.7067 14.1972C15.7501 13.8744 15.7501 13.4776 15.75 13.0448V13.0447L15.75 13V11L15.75 10.9553V10.9552C15.7501 10.5224 15.7501 10.1256 15.7067 9.80279C15.6589 9.44731 15.5465 9.07159 15.2374 8.76256C14.9284 8.45354 14.5527 8.34109 14.1972 8.2933C13.8744 8.2499 13.4776 8.24995 13.0447 8.25L13 8.25H11ZM9.82567 9.82186L9.82324 9.82324L9.82186 9.82567C9.82085 9.8276 9.81923 9.83092 9.81716 9.83596C9.8082 9.85774 9.79291 9.90611 9.77992 10.0027C9.75159 10.2134 9.75 10.5074 9.75 11V13C9.75 13.4926 9.75159 13.7866 9.77992 13.9973C9.79291 14.0939 9.8082 14.1423 9.81716 14.164C9.81923 14.1691 9.82085 14.1724 9.82186 14.1743L9.82317 14.1767C9.82277 14.1763 9.8228 14.1763 9.82307 14.1766L9.82283 14.1765L9.82317 14.1767L9.8232 14.1768L9.82359 14.1771C9.8236 14.1771 9.82353 14.1771 9.8234 14.1769C9.82335 14.1769 9.82329 14.1768 9.82322 14.1768L9.82317 14.1767L9.82324 14.1768L9.82567 14.1781C9.8276 14.1791 9.83092 14.1808 9.83596 14.1828C9.85774 14.1918 9.90611 14.2071 10.0027 14.2201C10.2134 14.2484 10.5074 14.25 11 14.25H13C13.4926 14.25 13.7866 14.2484 13.9973 14.2201C14.0939 14.2071 14.1423 14.1918 14.164 14.1828C14.1691 14.1808 14.1724 14.1791 14.1743 14.1781L14.1768 14.1768L14.1781 14.1743C14.1791 14.1724 14.1808 14.1691 14.1828 14.164C14.1918 14.1423 14.2071 14.0939 14.2201 13.9973C14.2484 13.7866 14.25 13.4926 14.25 13V11C14.25 10.5074 14.2484 10.2134 14.2201 10.0027C14.2071 9.90611 14.1918 9.85774 14.1828 9.83596C14.1808 9.83092 14.1791 9.8276 14.1781 9.82567L14.1768 9.82324L14.1743 9.82186C14.1724 9.82085 14.1691 9.81923 14.164 9.81716C14.1423 9.8082 14.0939 9.79291 13.9973 9.77992C13.7866 9.75159 13.4926 9.75 13 9.75H11C10.5074 9.75 10.2134 9.75159 10.0027 9.77992C9.90611 9.79291 9.85774 9.8082 9.83596 9.81716C9.83092 9.81923 9.8276 9.82085 9.82567 9.82186Z" fill="#22282F"/>
</svg>
