<svg width="24" height="24" viewBox="0 0 24 24" fill="none" xmlns="http://www.w3.org/2000/svg">
<path fill-rule="evenodd" clip-rule="evenodd" d="M9.94513 3.25L10 3.25H14L14.0549 3.25C15.4225 3.24998 16.5248 3.24996 17.3918 3.36652C18.2919 3.48754 19.0497 3.74643 19.6517 4.34835C20.2536 4.95027 20.5125 5.70814 20.6335 6.60825C20.75 7.47522 20.75 8.57754 20.75 9.94513V10V14V14.0549C20.75 15.4225 20.75 16.5248 20.6335 17.3918C20.5125 18.2919 20.2536 19.0497 19.6517 19.6517C19.0497 20.2536 18.2919 20.5125 17.3918 20.6335C16.5248 20.75 15.4225 20.75 14.0549 20.75H14H10H9.94513C8.57754 20.75 7.47522 20.75 6.60825 20.6335C5.70814 20.5125 4.95027 20.2536 4.34835 19.6517C3.74643 19.0497 3.48754 18.2919 3.36652 17.3918C3.24996 16.5248 3.24998 15.4225 3.25 14.0549L3.25 14V10L3.25 9.94513C3.24998 8.57754 3.24996 7.47522 3.36652 6.60825C3.48754 5.70814 3.74643 4.95027 4.34835 4.34835C4.95027 3.74643 5.70814 3.48754 6.60825 3.36652C7.47522 3.24996 8.57754 3.24998 9.94513 3.25ZM6.80812 4.85315C6.07435 4.9518 5.68577 5.13225 5.40901 5.40901C5.13225 5.68577 4.9518 6.07435 4.85315 6.80812C4.75159 7.56347 4.75 8.56458 4.75 10V14C4.75 15.4354 4.75159 16.4365 4.85315 17.1919C4.9518 17.9257 5.13225 18.3142 5.40901 18.591C5.68577 18.8678 6.07435 19.0482 6.80812 19.1469C7.56347 19.2484 8.56458 19.25 10 19.25H14C15.4354 19.25 16.4365 19.2484 17.1919 19.1469C17.9257 19.0482 18.3142 18.8678 18.591 18.591C18.8678 18.3142 19.0482 17.9257 19.1469 17.1919C19.2484 16.4365 19.25 15.4354 19.25 14V10C19.25 8.56458 19.2484 7.56347 19.1469 6.80812C19.0482 6.07435 18.8678 5.68577 18.591 5.40901C18.3142 5.13225 17.9257 4.9518 17.1919 4.85315C16.4365 4.75159 15.4354 4.75 14 4.75H10C8.56458 4.75 7.56347 4.75159 6.80812 4.85315Z" fill="#22282F"/>
</svg>
