<svg width="24" height="24" viewBox="0 0 24 24" fill="none" xmlns="http://www.w3.org/2000/svg">
<path fill-rule="evenodd" clip-rule="evenodd" d="M8.45 1.4C8.11863 1.15147 7.64853 1.21863 7.4 1.55C7.15147 1.88137 7.21863 2.35147 7.55 2.6L9.75053 4.2504C8.47301 4.25267 7.42844 4.26783 6.57525 4.36868C5.54428 4.49054 4.69558 4.74638 3.98663 5.3282C3.74612 5.52558 3.52558 5.74612 3.3282 5.98663C2.74638 6.69558 2.49054 7.54428 2.36868 8.57525C2.24998 9.57946 2.24999 10.8488 2.25 12.451L2.25 12.4511L2.25 12.5L2.25 12.5489L2.25 12.549C2.24999 14.1512 2.24998 15.4205 2.36868 16.4248C2.49054 17.4557 2.74638 18.3044 3.3282 19.0134C3.52558 19.2539 3.74612 19.4744 3.98663 19.6718C4.69558 20.2536 5.54428 20.5095 6.57525 20.6313C6.65903 20.6412 6.74466 20.6503 6.83217 20.6586L6.32918 21.6646C6.14394 22.0351 6.29411 22.4856 6.66459 22.6708C7.03507 22.8561 7.48558 22.7059 7.67082 22.3354L8.46907 20.7389C9.06537 20.75 9.7239 20.75 10.451 20.75L10.4511 20.75L10.5 20.75L13.5 20.75L13.5489 20.75L13.5489 20.75L13.549 20.75L13.549 20.75C14.2761 20.75 14.9346 20.75 15.5309 20.7389L16.3292 22.3354C16.5144 22.7059 16.9649 22.8561 17.3354 22.6708C17.7059 22.4856 17.8561 22.0351 17.6708 21.6646L17.1678 20.6586C17.2553 20.6503 17.341 20.6412 17.4248 20.6313C18.4557 20.5095 19.3044 20.2536 20.0134 19.6718C20.2539 19.4744 20.4744 19.2539 20.6718 19.0134C21.2536 18.3044 21.5095 17.4557 21.6313 16.4247C21.75 15.4206 21.75 14.1513 21.75 12.5491L21.75 12.5491L21.75 12.549L21.75 12.5489L21.75 12.5L21.75 12.4511L21.75 12.451L21.75 12.4509L21.75 12.4509C21.75 10.8487 21.75 9.57943 21.6313 8.57525C21.5095 7.54428 21.2536 6.69558 20.6718 5.98663C20.4744 5.74612 20.2539 5.52558 20.0134 5.3282C19.3044 4.74638 18.4557 4.49054 17.4248 4.36868C16.5716 4.26783 15.527 4.25267 14.2495 4.2504L16.45 2.6C16.7814 2.35147 16.8485 1.88137 16.6 1.55C16.3515 1.21863 15.8814 1.15147 15.55 1.4L12 4.0625L8.45 1.4ZM12.0019 5.75L11.9981 5.75L10.5 5.75C8.83789 5.75 7.65724 5.75123 6.75133 5.85831C5.86197 5.96343 5.33563 6.16158 4.93822 6.48772C4.77366 6.62277 4.62277 6.77366 4.48772 6.93822C4.16158 7.33563 3.96343 7.86197 3.85831 8.75133C3.75123 9.65724 3.75 10.8379 3.75 12.5C3.75 14.1621 3.75123 15.3428 3.85831 16.2487C3.96343 17.138 4.16158 17.6644 4.48772 18.0618C4.62277 18.2263 4.77366 18.3772 4.93822 18.5123C5.33563 18.8384 5.86197 19.0366 6.75133 19.1417C7.65724 19.2488 8.83789 19.25 10.5 19.25L13.5 19.25C15.1621 19.25 16.3428 19.2488 17.2487 19.1417C18.138 19.0366 18.6644 18.8384 19.0618 18.5123C19.2263 18.3772 19.3772 18.2263 19.5123 18.0618C19.8384 17.6644 20.0366 17.138 20.1417 16.2487C20.2488 15.3428 20.25 14.1621 20.25 12.5C20.25 10.8379 20.2488 9.65724 20.1417 8.75133C20.0366 7.86197 19.8384 7.33562 19.5123 6.93822C19.3772 6.77366 19.2263 6.62277 19.0618 6.48772C18.6644 6.16158 18.138 5.96343 17.2487 5.85831C16.3428 5.75123 15.1621 5.75 13.5 5.75L12.0019 5.75Z" fill="#22282F"/>
</svg>
