<svg width="24" height="24" viewBox="0 0 24 24" fill="none" xmlns="http://www.w3.org/2000/svg">
<path fill-rule="evenodd" clip-rule="evenodd" d="M11.1863 2.68509C11.5116 2.40627 11.7034 2.24368 11.8565 2.14255C11.9261 2.09658 11.9661 2.0784 11.9857 2.07123C11.9946 2.06796 11.9987 2.0672 11.9992 2.06712L11.9998 2.06708L12.0005 2.06712C12.0009 2.0672 12.005 2.06796 12.0139 2.07123C12.0335 2.0784 12.0735 2.09658 12.1431 2.14255C12.2962 2.24368 12.488 2.40627 12.8133 2.68509L14.45 4.08796L14.5042 4.13462C14.7255 4.32533 14.9641 4.53089 15.2626 4.6413C15.561 4.75171 15.876 4.75089 16.1681 4.75013L16.2397 4.75L17.9998 4.75C18.4924 4.75 18.7864 4.75159 18.9971 4.77993C19.0937 4.79291 19.1421 4.8082 19.1638 4.81716C19.1689 4.81924 19.1722 4.82085 19.1741 4.82186L19.1766 4.82323L19.1779 4.82567C19.179 4.82761 19.1806 4.83092 19.1827 4.83597C19.1916 4.85775 19.2069 4.90611 19.2199 5.00267C19.2482 5.21339 19.2498 5.50739 19.2498 6L19.2498 7.76015L19.2497 7.8317L19.2497 7.83173C19.2489 8.12388 19.2481 8.43878 19.3585 8.73723C19.4689 9.03569 19.6745 9.27426 19.8652 9.49558L19.8652 9.4956L19.9119 9.54983L21.3147 11.1865C21.5935 11.5118 21.7561 11.7036 21.8573 11.8567C21.9032 11.9263 21.9214 11.9663 21.9286 11.9859C21.9301 11.9901 21.9311 11.9933 21.9317 11.9955L21.9327 11.9994L21.9327 12L21.9327 12.0006C21.9326 12.0011 21.9318 12.0052 21.9286 12.0141C21.9214 12.0337 21.9032 12.0737 21.8573 12.1433C21.7561 12.2964 21.5935 12.4882 21.3147 12.8135L19.9119 14.4502L19.8652 14.5044L19.8652 14.5044C19.6745 14.7257 19.4689 14.9643 19.3585 15.2628C19.2481 15.5612 19.2489 15.8761 19.2497 16.1683L19.2497 16.1683L19.2498 16.2399L19.2498 18C19.2498 18.4926 19.2482 18.7866 19.2199 18.9973C19.2069 19.0939 19.1916 19.1423 19.1827 19.164C19.1816 19.1666 19.1806 19.1688 19.1798 19.1705C19.1791 19.1721 19.1784 19.1734 19.1779 19.1743L19.1766 19.1768L19.1741 19.1781C19.173 19.1787 19.1714 19.1795 19.1692 19.1805C19.1677 19.1812 19.1659 19.182 19.1638 19.1828C19.1421 19.1918 19.0937 19.2071 18.9971 19.2201C18.7864 19.2484 18.4924 19.25 17.9998 19.25L16.2397 19.25L16.1681 19.2499L16.1681 19.2499C15.8759 19.2491 15.561 19.2483 15.2626 19.3587C14.9641 19.4691 14.7256 19.6747 14.5042 19.8654L14.5042 19.8654L14.45 19.912L12.8133 21.3149C12.488 21.5937 12.2962 21.7563 12.1431 21.8575C12.0735 21.9034 12.0335 21.9216 12.0139 21.9288C12.005 21.932 12.0009 21.9328 12.0005 21.9329L11.9998 21.9329L11.9992 21.9329C11.9987 21.9328 11.9946 21.932 11.9857 21.9288C11.9661 21.9216 11.9261 21.9034 11.8565 21.8575C11.7034 21.7563 11.5116 21.5937 11.1863 21.3149L9.54964 19.912L9.4954 19.8654L9.49539 19.8654C9.27406 19.6747 9.0355 19.4691 8.73704 19.3587C8.43859 19.2483 8.12368 19.2491 7.83154 19.2499L7.83151 19.2499L7.75996 19.25L5.96559 19.25C5.47299 19.25 5.17898 19.2484 4.96826 19.2201C4.8717 19.2071 4.82334 19.1918 4.80156 19.1828C4.79651 19.1808 4.7932 19.1792 4.79126 19.1781L4.78882 19.1768L4.78745 19.1743C4.78644 19.1724 4.78483 19.1691 4.78275 19.164C4.77379 19.1423 4.7585 19.0939 4.74552 18.9973C4.71718 18.7866 4.71559 18.4926 4.71559 18L4.71559 16.2334L4.71571 16.1625C4.71646 15.8728 4.71727 15.5605 4.6086 15.2642C4.49994 14.9679 4.29746 14.7302 4.1096 14.5096L4.06365 14.4556L2.66762 12.8081C2.39354 12.4847 2.23391 12.2942 2.13463 12.1422C2.08954 12.0732 2.07169 12.0336 2.06465 12.0142C2.06144 12.0053 2.06068 12.0012 2.06059 12.0007L2.06054 12L2.06059 11.9993C2.06068 11.9988 2.06144 11.9947 2.06465 11.9858C2.07169 11.9664 2.08954 11.9268 2.13463 11.8578C2.23391 11.7058 2.39354 11.5153 2.66762 11.1919L4.06365 9.54441L4.1096 9.49038C4.29746 9.26983 4.49993 9.03213 4.6086 8.7358C4.71727 8.43947 4.71646 8.12722 4.71571 7.83752L4.71559 7.76659L4.71559 6C4.71559 5.5074 4.71718 5.21339 4.74552 5.00267C4.7585 4.90611 4.77379 4.85775 4.78275 4.83597C4.78483 4.83092 4.78644 4.82761 4.78745 4.82567L4.78883 4.82324L4.79126 4.82186C4.7932 4.82085 4.79651 4.81924 4.80156 4.81716C4.82334 4.8082 4.8717 4.79291 4.96826 4.77993C5.17898 4.75159 5.47299 4.75 5.96559 4.75L7.75996 4.75L7.83151 4.75013C8.12366 4.75089 8.43858 4.75171 8.73704 4.6413C9.0355 4.53089 9.27407 4.32533 9.49539 4.13462L9.54964 4.08796L11.1863 2.68509ZM11.9998 0.56708C11.6121 0.56708 11.2973 0.714253 11.0299 0.890897C10.7886 1.05025 10.5249 1.27638 10.2407 1.51999L10.2101 1.5462L8.57345 2.94907C8.42699 3.07461 8.34519 3.14418 8.28023 3.19252C8.25133 3.21403 8.23442 3.22467 8.22542 3.22986C8.22114 3.23233 8.21871 3.23352 8.21777 3.23397L8.21662 3.23447L8.21542 3.23484C8.21442 3.23511 8.21179 3.23579 8.20694 3.2367C8.19673 3.23862 8.17696 3.24154 8.14102 3.24402C8.06024 3.24959 7.95286 3.25 7.75996 3.25L5.96559 3.25L5.92084 3.25C5.48803 3.24995 5.0912 3.2499 4.76838 3.2933C4.4129 3.34109 4.03718 3.45354 3.72816 3.76257C3.41913 4.07159 3.30668 4.44731 3.25889 4.80279C3.21549 5.12561 3.21554 5.52244 3.21559 5.95525L3.21559 6L3.21559 7.76658C3.21559 7.95785 3.21519 8.06429 3.2097 8.14438C3.20726 8.18001 3.20439 8.19962 3.2025 8.20975C3.2016 8.21457 3.20094 8.21718 3.20067 8.21817L3.20031 8.21937L3.19981 8.22051C3.19937 8.22144 3.19819 8.22386 3.19576 8.22812C3.19065 8.23707 3.18017 8.25389 3.159 8.28265C3.11141 8.3473 3.0429 8.42876 2.91925 8.57469L1.52322 10.2222L1.49741 10.2526L1.4974 10.2526C1.25801 10.5351 1.03562 10.7975 0.878898 11.0373C0.705097 11.3034 0.560545 11.6159 0.560545 12C0.560545 12.3841 0.705097 12.6967 0.878898 12.9627C1.03563 13.2025 1.25802 13.4649 1.49741 13.7474L1.52322 13.7778L2.91925 15.4253C3.0429 15.5712 3.11141 15.6527 3.159 15.7174C3.18017 15.7461 3.19065 15.7629 3.19576 15.7719C3.19819 15.7761 3.19937 15.7786 3.19981 15.7795L3.20031 15.7806L3.20067 15.7818C3.20094 15.7828 3.2016 15.7854 3.2025 15.7903C3.20439 15.8004 3.20726 15.82 3.2097 15.8556C3.21519 15.9357 3.21559 16.0422 3.21559 16.2334L3.21559 18L3.21559 18.0448C3.21554 18.4776 3.21549 18.8744 3.25889 19.1972C3.30668 19.5527 3.41913 19.9284 3.72816 20.2374C4.03718 20.5465 4.4129 20.6589 4.76838 20.7067C5.0912 20.7501 5.48803 20.7501 5.92085 20.75L5.96559 20.75L7.75996 20.75C7.95286 20.75 8.06024 20.7504 8.14102 20.756C8.17696 20.7585 8.19673 20.7614 8.20694 20.7633C8.21179 20.7642 8.21442 20.7649 8.21542 20.7652L8.21662 20.7655L8.21777 20.766C8.2187 20.7665 8.22114 20.7677 8.22542 20.7701C8.23442 20.7753 8.25133 20.786 8.28023 20.8075C8.34519 20.8558 8.42699 20.9254 8.57345 21.0509L10.2101 22.4538L10.2407 22.48C10.5249 22.7236 10.7886 22.9498 11.0299 23.1091C11.2973 23.2858 11.6121 23.4329 11.9998 23.4329C12.3875 23.4329 12.7023 23.2858 12.9697 23.1091C13.211 22.9498 13.4747 22.7236 13.7589 22.48L13.7895 22.4538L15.4262 21.0509C15.5726 20.9254 15.6544 20.8558 15.7194 20.8075C15.7483 20.786 15.7652 20.7753 15.7742 20.7701C15.7785 20.7677 15.7809 20.7665 15.7818 20.766L15.783 20.7655L15.7842 20.7652L15.7869 20.7645L15.7927 20.7633C15.8029 20.7614 15.8227 20.7585 15.8586 20.756C15.9394 20.7504 16.0468 20.75 16.2397 20.75L17.9998 20.75L18.0446 20.75C18.4774 20.7501 18.8742 20.7501 19.197 20.7067C19.5525 20.6589 19.9282 20.5465 20.2372 20.2374C20.5463 19.9284 20.6587 19.5527 20.7065 19.1972C20.7499 18.8744 20.7499 18.4776 20.7498 18.0447L20.7498 18L20.7498 16.2398C20.7498 16.0469 20.7502 15.9396 20.7558 15.8588C20.7583 15.8228 20.7612 15.8031 20.7631 15.7929C20.7638 15.7894 20.7643 15.7871 20.7646 15.7857C20.7648 15.7851 20.7649 15.7847 20.765 15.7844L20.7653 15.7832L20.7658 15.782C20.7663 15.7811 20.7675 15.7787 20.7699 15.7744C20.7751 15.7654 20.7858 15.7485 20.8073 15.7196C20.8556 15.6546 20.9252 15.5728 21.0507 15.4264L22.4536 13.7897L22.4798 13.7591C22.7234 13.4749 22.9496 13.2112 23.1089 12.9699C23.2856 12.7025 23.4327 12.3877 23.4327 12C23.4327 11.6123 23.2856 11.2975 23.1089 11.0301C22.9496 10.7888 22.7234 10.5251 22.4798 10.2409L22.4536 10.2103L21.0507 8.57364C20.9252 8.42718 20.8556 8.34539 20.8073 8.28043C20.7858 8.25152 20.7751 8.23461 20.7699 8.22561L20.7674 8.22102L20.7658 8.21797L20.7653 8.21681L20.765 8.21561C20.7648 8.21514 20.7646 8.2143 20.7643 8.21303C20.764 8.21162 20.7636 8.20969 20.7631 8.20714C20.7612 8.19693 20.7583 8.17716 20.7558 8.14121C20.7502 8.06043 20.7498 7.95306 20.7498 7.76015L20.7498 6L20.7498 5.95526C20.7499 5.52244 20.7499 5.12561 20.7065 4.80279C20.6587 4.44731 20.5463 4.07159 20.2372 3.76257C19.9282 3.45354 19.5525 3.34109 19.197 3.2933C18.8742 3.2499 18.4774 3.24995 18.0446 3.25L17.9998 3.25L16.2397 3.25C16.0468 3.25 15.9394 3.24959 15.8586 3.24402C15.8227 3.24154 15.8029 3.23862 15.7927 3.2367C15.7878 3.23579 15.7852 3.23511 15.7842 3.23484L15.783 3.23447L15.7818 3.23397C15.7814 3.23376 15.7807 3.2334 15.7796 3.23282C15.7783 3.23215 15.7765 3.23119 15.7742 3.22986C15.7652 3.22467 15.7483 3.21403 15.7194 3.19252C15.6544 3.14418 15.5726 3.07461 15.4262 2.94907L13.7895 1.5462L13.7589 1.51999C13.4748 1.27637 13.211 1.05025 12.9697 0.890897C12.7023 0.714253 12.3875 0.56708 11.9998 0.56708ZM16.5303 9.53033C16.8232 9.23744 16.8232 8.76256 16.5303 8.46967C16.2374 8.17678 15.7626 8.17678 15.4697 8.46967L11 12.9393L9.53033 11.4697C9.23744 11.1768 8.76257 11.1768 8.46967 11.4697C8.17678 11.7626 8.17678 12.2374 8.46967 12.5303L10.4697 14.5303C10.6103 14.671 10.8011 14.75 11 14.75C11.1989 14.75 11.3897 14.671 11.5303 14.5303L16.5303 9.53033Z" fill="#22282F"/>
</svg>
