<svg width="24" height="24" viewBox="0 0 24 24" fill="none" xmlns="http://www.w3.org/2000/svg">
<path fill-rule="evenodd" clip-rule="evenodd" d="M7.97475 1.25H8H16H16.0252H16.0253C16.4697 1.24999 16.8408 1.24999 17.1454 1.27077C17.4625 1.29241 17.762 1.33905 18.0524 1.45933C18.7262 1.73844 19.2616 2.27379 19.5407 2.94762C19.661 3.23801 19.7076 3.53754 19.7292 3.85464C19.7407 4.02346 19.7459 4.21269 19.7482 4.42352C20.4935 4.56362 21.1309 4.82762 21.6517 5.34835C22.2536 5.95027 22.5125 6.70814 22.6335 7.60825C22.75 8.47522 22.75 9.57754 22.75 10.9451V11V13V13.0549C22.75 14.4225 22.75 15.5248 22.6335 16.3918C22.5125 17.2919 22.2536 18.0497 21.6517 18.6517C21.1309 19.1724 20.4935 19.4364 19.7482 19.5765C19.7459 19.7873 19.7407 19.9765 19.7292 20.1454C19.7076 20.4625 19.661 20.762 19.5407 21.0524C19.2616 21.7262 18.7262 22.2616 18.0524 22.5407C17.762 22.661 17.4625 22.7076 17.1454 22.7292C16.8408 22.75 16.4697 22.75 16.0253 22.75H16H8H7.97474C7.53028 22.75 7.15925 22.75 6.85464 22.7292C6.53754 22.7076 6.23801 22.661 5.94762 22.5407C5.27379 22.2616 4.73844 21.7262 4.45933 21.0524C4.33905 20.762 4.29241 20.4625 4.27077 20.1454C4.25925 19.9765 4.25412 19.7873 4.25183 19.5765C3.50654 19.4364 2.86908 19.1724 2.34835 18.6517C1.74643 18.0497 1.48754 17.2919 1.36652 16.3918C1.24996 15.5248 1.24998 14.4225 1.25 13.0549V13V11V10.9451C1.24998 9.57754 1.24996 8.47522 1.36652 7.60825C1.48754 6.70814 1.74643 5.95027 2.34835 5.34835C2.86908 4.82762 3.50654 4.56362 4.25183 4.42352C4.25412 4.21269 4.25925 4.02346 4.27077 3.85464C4.29241 3.53754 4.33905 3.23801 4.45933 2.94762C4.73844 2.27379 5.27379 1.73844 5.94762 1.45933C6.23801 1.33905 6.53754 1.29241 6.85464 1.27077C7.15924 1.24999 7.53028 1.24999 7.97473 1.25H7.97475ZM18.2327 3.95674C18.2391 4.05098 18.2432 4.15569 18.2457 4.27551C17.6075 4.24998 16.8794 4.24999 16.0549 4.25L16 4.25H8L7.94513 4.25C7.12061 4.24999 6.39251 4.24998 5.75428 4.27551C5.75682 4.15569 5.76086 4.05098 5.76729 3.95674C5.78372 3.71602 5.81319 3.5988 5.84515 3.52165C5.97202 3.21536 6.21536 2.97202 6.52165 2.84515C6.5988 2.81319 6.71602 2.78372 6.95674 2.76729C7.20421 2.75041 7.5238 2.75 8 2.75L16 2.75C16.4762 2.75 16.7958 2.75041 17.0433 2.76729C17.284 2.78372 17.4012 2.81319 17.4784 2.84515C17.7846 2.97202 18.028 3.21536 18.1549 3.52165C18.1868 3.5988 18.2163 3.71602 18.2327 3.95674ZM18.2457 19.7245C17.6075 19.75 16.8794 19.75 16.0549 19.75H16H8H7.94513C7.12061 19.75 6.39252 19.75 5.75428 19.7245C5.75682 19.8443 5.76086 19.949 5.76729 20.0433C5.78372 20.284 5.81319 20.4012 5.84515 20.4784C5.97202 20.7846 6.21536 21.028 6.52165 21.1549C6.5988 21.1868 6.71602 21.2163 6.95674 21.2327C7.20421 21.2496 7.5238 21.25 8 21.25H16C16.4762 21.25 16.7958 21.2496 17.0433 21.2327C17.284 21.2163 17.4012 21.1868 17.4784 21.1549C17.7846 21.028 18.028 20.7846 18.1549 20.4784C18.1868 20.4012 18.2163 20.284 18.2327 20.0433C18.2391 19.949 18.2432 19.8443 18.2457 19.7245ZM3.40901 6.40901C3.68577 6.13225 4.07435 5.9518 4.80812 5.85315C5.56347 5.75159 6.56458 5.75 8 5.75H16C17.4354 5.75 18.4365 5.75159 19.1919 5.85315C19.9257 5.9518 20.3142 6.13225 20.591 6.40901C20.8678 6.68577 21.0482 7.07435 21.1469 7.80812C21.2484 8.56347 21.25 9.56458 21.25 11V13C21.25 14.4354 21.2484 15.4365 21.1469 16.1919C21.0482 16.9257 20.8678 17.3142 20.591 17.591C20.3142 17.8678 19.9257 18.0482 19.1919 18.1469C18.4365 18.2484 17.4354 18.25 16 18.25H8C6.56458 18.25 5.56347 18.2484 4.80812 18.1469C4.07435 18.0482 3.68577 17.8678 3.40901 17.591C3.13225 17.3142 2.9518 16.9257 2.85315 16.1919C2.75159 15.4365 2.75 14.4354 2.75 13V11C2.75 9.56458 2.75159 8.56347 2.85315 7.80812C2.9518 7.07435 3.13225 6.68577 3.40901 6.40901ZM13.5254 9.4489L13.4759 9.41588C12.8339 8.98785 12.2825 8.62015 11.8238 8.40354C11.3527 8.181 10.7611 8.0115 10.1742 8.32559C9.58737 8.63968 9.40028 9.22588 9.32408 9.74137C9.24991 10.2431 9.24995 10.9059 9.25 11.6775L9.25 11.737V12.263L9.25 12.3225C9.24995 13.0941 9.24991 13.7569 9.32408 14.2586C9.40028 14.7741 9.58737 15.3603 10.1742 15.6744C10.7611 15.9885 11.3527 15.819 11.8238 15.5965C12.2825 15.3799 12.8339 15.0122 13.4759 14.5841L13.4759 14.5841L13.5254 14.5511L13.9199 14.2881L13.966 14.2574L13.966 14.2574C14.4909 13.9075 14.953 13.5995 15.2767 13.307C15.6209 12.996 15.9472 12.581 15.9472 12C15.9472 11.419 15.6209 11.004 15.2767 10.693C14.953 10.4005 14.4909 10.0925 13.966 9.74263L13.9199 9.71186L13.5254 9.4489ZM10.8556 9.65578C10.8552 9.65513 10.859 9.65389 10.8685 9.65395C10.8608 9.65645 10.8561 9.65642 10.8556 9.65578ZM11.1833 9.75987C11.0171 9.68139 10.9275 9.65985 10.8858 9.65511C10.8666 9.69243 10.8348 9.77893 10.808 9.96073C10.752 10.3393 10.75 10.889 10.75 11.737V12.263C10.75 13.111 10.752 13.6607 10.808 14.0393C10.8348 14.2211 10.8666 14.3076 10.8858 14.3449C10.9275 14.3402 11.0171 14.3186 11.1833 14.2401C11.5293 14.0767 11.9878 13.7734 12.6934 13.303L13.0878 13.0401C13.6729 12.65 14.0397 12.4031 14.271 12.1941C14.3802 12.0954 14.4247 12.0347 14.4418 12.0052L14.4446 12L14.4418 11.9948C14.4247 11.9653 14.3802 11.9046 14.271 11.8059C14.0397 11.5969 13.6729 11.35 13.0878 10.9599L12.6934 10.697C11.9878 10.2266 11.5293 9.9233 11.1833 9.75987ZM10.8556 14.3442C10.8561 14.3436 10.8608 14.3435 10.8685 14.346C10.859 14.3461 10.8552 14.3449 10.8556 14.3442ZM10.8944 14.3599C10.9007 14.3649 10.9034 14.3689 10.9031 14.3696C10.9028 14.3704 10.8996 14.3679 10.8944 14.3599ZM10.8944 9.64011C10.8996 9.63215 10.9028 9.62964 10.9031 9.63038C10.9034 9.63111 10.9007 9.63509 10.8944 9.64011Z" fill="#22282F"/>
</svg>
