<svg width="24" height="24" viewBox="0 0 24 24" fill="none" xmlns="http://www.w3.org/2000/svg">
<path fill-rule="evenodd" clip-rule="evenodd" d="M20.75 1C20.75 0.585786 20.4142 0.25 20 0.25C19.5858 0.25 19.25 0.585786 19.25 1V3.25H17C16.5858 3.25 16.25 3.58579 16.25 4C16.25 4.41421 16.5858 4.75 17 4.75H19.25V7C19.25 7.41421 19.5858 7.75 20 7.75C20.4142 7.75 20.75 7.41421 20.75 7V4.75H23C23.4142 4.75 23.75 4.41421 23.75 4C23.75 3.58579 23.4142 3.25 23 3.25H20.75V1ZM7.94513 3.25L8 3.25H13.5C13.9142 3.25 14.25 3.58579 14.25 4C14.25 4.41421 13.9142 4.75 13.5 4.75H8C6.56458 4.75 5.56347 4.75159 4.80812 4.85315C4.07435 4.9518 3.68577 5.13225 3.40901 5.40901C3.13225 5.68577 2.9518 6.07434 2.85315 6.80812C2.75159 7.56347 2.75 8.56458 2.75 10V16C2.75 17.4354 2.75159 18.4365 2.85315 19.1919C2.9518 19.9257 3.13225 20.3142 3.40901 20.591C3.68577 20.8678 4.07435 21.0482 4.80812 21.1469C5.56347 21.2484 6.56458 21.25 8 21.25H14C15.4354 21.25 16.4365 21.2484 17.1919 21.1469C17.9257 21.0482 18.3142 20.8678 18.591 20.591C18.8678 20.3142 19.0482 19.9257 19.1469 19.1919C19.2484 18.4365 19.25 17.4354 19.25 16V10.5C19.25 10.0858 19.5858 9.75 20 9.75C20.4142 9.75 20.75 10.0858 20.75 10.5V16V16.0549C20.75 17.4225 20.75 18.5248 20.6335 19.3918C20.5125 20.2919 20.2536 21.0497 19.6517 21.6517C19.0497 22.2536 18.2919 22.5125 17.3918 22.6335C16.5248 22.75 15.4225 22.75 14.0549 22.75H14H8H7.94513C6.57754 22.75 5.47522 22.75 4.60825 22.6335C3.70814 22.5125 2.95027 22.2536 2.34835 21.6517C1.74643 21.0497 1.48754 20.2919 1.36652 19.3918C1.24996 18.5248 1.24998 17.4225 1.25 16.0549V16V10V9.94513C1.24998 8.57754 1.24996 7.47522 1.36652 6.60825C1.48754 5.70814 1.74643 4.95027 2.34835 4.34835C2.95027 3.74643 3.70814 3.48754 4.60825 3.36652C5.47522 3.24996 6.57754 3.24998 7.94513 3.25ZM12.4759 10.4159L12.5254 10.4489L12.9199 10.7119L12.966 10.7426C13.4909 11.0925 13.953 11.4005 14.2767 11.693C14.6209 12.004 14.9472 12.419 14.9472 13C14.9472 13.581 14.6209 13.996 14.2767 14.307C13.9531 14.5995 13.4909 14.9075 12.9661 15.2573L12.9661 15.2574L12.966 15.2574L12.9199 15.2881L12.5254 15.5511L12.4759 15.5841L12.4759 15.5841L12.4759 15.5842C11.8339 16.0122 11.2825 16.3799 10.8238 16.5965C10.3527 16.819 9.76113 16.9885 9.17425 16.6744C8.58737 16.3603 8.40028 15.7741 8.32408 15.2586C8.24991 14.7569 8.24995 14.0941 8.25 13.3225L8.25 13.263V12.737L8.25 12.6775C8.24995 11.9059 8.24991 11.2431 8.32408 10.7414C8.40028 10.2259 8.58737 9.63968 9.17425 9.32559C9.76113 9.0115 10.3527 9.181 10.8238 9.40354C11.2825 9.62015 11.8339 9.98785 12.4759 10.4159ZM9.85562 10.6558C9.85516 10.6551 9.85901 10.6539 9.86853 10.654C9.86084 10.6565 9.85608 10.6564 9.85562 10.6558ZM9.88579 10.6551C9.92748 10.6599 10.0171 10.6814 10.1833 10.7599C10.5293 10.9233 10.9878 11.2266 11.6934 11.697L12.0878 11.9599C12.6729 12.35 13.0397 12.5969 13.271 12.8059C13.3802 12.9046 13.4247 12.9653 13.4418 12.9948L13.4446 13L13.4418 13.0052C13.4247 13.0347 13.3802 13.0954 13.271 13.1941C13.0397 13.4031 12.6729 13.65 12.0878 14.0401L11.6934 14.303C10.9878 14.7734 10.5293 15.0767 10.1833 15.2401C10.0171 15.3186 9.92748 15.3402 9.88579 15.3449C9.86661 15.3076 9.83483 15.2211 9.80796 15.0393C9.75199 14.6607 9.75 14.111 9.75 13.263V12.737C9.75 11.889 9.75199 11.3393 9.80796 10.9607C9.83483 10.7789 9.86661 10.6924 9.88579 10.6551ZM9.85562 15.3442C9.85608 15.3436 9.86084 15.3435 9.86853 15.346C9.85901 15.3461 9.85516 15.3449 9.85562 15.3442ZM9.8944 15.3599C9.90074 15.3649 9.90336 15.3689 9.90308 15.3696C9.9028 15.3704 9.89962 15.3679 9.8944 15.3599ZM9.8944 10.6401C9.89962 10.6321 9.9028 10.6296 9.90308 10.6304C9.90336 10.6311 9.90074 10.6351 9.8944 10.6401Z" fill="#22282F"/>
</svg>
