<svg width="24" height="24" viewBox="0 0 24 24" fill="none" xmlns="http://www.w3.org/2000/svg">
<path fill-rule="evenodd" clip-rule="evenodd" d="M2.53033 1.46967C2.23744 1.17678 1.76256 1.17678 1.46967 1.46967C1.17678 1.76256 1.17678 2.23744 1.46967 2.53033L2.9406 4.00126C2.44817 4.50318 2.10158 4.89383 1.84918 5.34748C1.67191 5.66611 1.53191 6.0041 1.43195 6.35476C1.24963 6.99438 1.24977 7.67021 1.24999 8.71817L1.25 8.82843L1.25 12L1.25 12.0564L1.25 12.0565C1.24998 13.8942 1.24997 15.3498 1.40313 16.489C1.56076 17.6614 1.89288 18.6104 2.64124 19.3588C3.38961 20.1071 4.33856 20.4392 5.51098 20.5969C6.65017 20.75 8.10577 20.75 9.94348 20.75L9.94359 20.75L10 20.75L16 20.75C17.0002 20.75 17.8757 20.216 18.3569 19.4176L21.4697 22.5303C21.7626 22.8232 22.2374 22.8232 22.5303 22.5303C22.8232 22.2374 22.8232 21.7626 22.5303 21.4697L18.5303 17.4697L4.53033 3.46967L2.53033 1.46967ZM3.15997 6.07676C3.31817 5.7924 3.53758 5.53694 4.00189 5.06255L17.2187 18.2793C17.0918 18.8352 16.5943 19.25 16 19.25L10 19.25C8.09318 19.25 6.73851 19.2484 5.71085 19.1102C4.70476 18.975 4.12511 18.7213 3.7019 18.2981C3.27869 17.8749 3.02502 17.2952 2.88976 16.2892C2.75159 15.2615 2.75 13.9068 2.75 12L2.75 8.82843C2.75 7.63241 2.75668 7.17926 2.8745 6.76595C2.94288 6.52602 3.03867 6.29477 3.15997 6.07676ZM10 4.75C11.9068 4.75 13.2615 4.75159 14.2892 4.88976C15.2952 5.02502 15.8749 5.27869 16.2981 5.7019C16.7213 6.12511 16.975 6.70476 17.1102 7.71085C17.2484 8.73851 17.25 10.0932 17.25 12L17.25 13C17.25 13.4142 17.5858 13.75 18 13.75C18.4142 13.75 18.75 13.4142 18.75 13L18.75 12L18.75 11.9436L18.75 11.9435C18.75 10.9936 18.75 10.1457 18.7289 9.39084L19.25 8.99999C19.9685 8.46105 20.4399 8.11001 20.798 7.91536C20.9675 7.82327 21.0616 7.79411 21.1071 7.78582C21.1277 7.82715 21.1608 7.91994 21.1888 8.11076C21.248 8.51407 21.25 9.10177 21.25 9.99998L21.25 17C21.25 17.4142 21.5858 17.75 22 17.75C22.4142 17.75 22.75 17.4142 22.75 17L22.75 9.99998L22.75 9.9396C22.75 9.11852 22.7501 8.41863 22.673 7.89298C22.5947 7.35997 22.402 6.74438 21.7826 6.43469C21.1632 6.125 20.5551 6.34017 20.0818 6.59742C19.6658 6.82351 19.1758 7.18168 18.6092 7.60571C18.6052 7.57389 18.6011 7.54231 18.5969 7.51098C18.4392 6.33856 18.1071 5.38961 17.3588 4.64124C16.6104 3.89288 15.6614 3.56076 14.489 3.40313C13.3498 3.24997 11.8942 3.24998 10.0564 3.25L10 3.25L9 3.25C8.58579 3.25 8.25 3.58579 8.25 4C8.25 4.41421 8.58579 4.75 9 4.75L10 4.75ZM21.1422 7.78416C21.1418 7.78482 21.137 7.7851 21.129 7.78299C21.1387 7.78244 21.1427 7.78349 21.1422 7.78416ZM21.0962 7.76657C21.0897 7.76145 21.087 7.75742 21.0873 7.75669C21.0876 7.75595 21.0908 7.75851 21.0962 7.76657Z" fill="#22282F"/>
</svg>
