<svg width="24" height="24" viewBox="0 0 24 24" fill="none" xmlns="http://www.w3.org/2000/svg">
<path fill-rule="evenodd" clip-rule="evenodd" d="M7.25 2C7.25 1.58579 7.58579 1.25 8 1.25H16C16.4142 1.25 16.75 1.58579 16.75 2C16.75 2.41421 16.4142 2.75 16 2.75H8C7.58579 2.75 7.25 2.41421 7.25 2ZM6 4.25C5.58579 4.25 5.25 4.58579 5.25 5C5.25 5.41421 5.58579 5.75 6 5.75H18C18.4142 5.75 18.75 5.41421 18.75 5C18.75 4.58579 18.4142 4.25 18 4.25H6ZM8 7.25L7.94513 7.25H7.94512H7.94511H7.94511C6.57753 7.24998 5.47521 7.24996 4.60825 7.36652C3.70814 7.48754 2.95027 7.74643 2.34835 8.34835C1.74643 8.95027 1.48754 9.70814 1.36652 10.6082C1.24996 11.4752 1.24998 12.5775 1.25 13.9451V13.9451V14V16V16.0549V16.0549C1.24998 17.4225 1.24996 18.5248 1.36652 19.3918C1.48754 20.2919 1.74643 21.0497 2.34835 21.6516C2.95027 22.2536 3.70814 22.5125 4.60825 22.6335C5.47522 22.75 6.57754 22.75 7.94513 22.75H8H16H16.0549C17.4225 22.75 18.5248 22.75 19.3918 22.6335C20.2919 22.5125 21.0497 22.2536 21.6517 21.6516C22.2536 21.0497 22.5125 20.2919 22.6335 19.3918C22.75 18.5248 22.75 17.4225 22.75 16.0549V16V14V13.9451C22.75 12.5775 22.75 11.4752 22.6335 10.6082C22.5125 9.70814 22.2536 8.95027 21.6517 8.34835C21.0497 7.74643 20.2919 7.48754 19.3918 7.36652C18.5248 7.24996 17.4225 7.24998 16.0549 7.25L16 7.25H8ZM3.40901 9.40901C3.68577 9.13225 4.07435 8.9518 4.80812 8.85315C5.56347 8.75159 6.56459 8.75 8 8.75H16C17.4354 8.75 18.4365 8.75159 19.1919 8.85315C19.9257 8.9518 20.3142 9.13225 20.591 9.40901C20.8678 9.68577 21.0482 10.0743 21.1469 10.8081C21.2484 11.5635 21.25 12.5646 21.25 14V16C21.25 17.4354 21.2484 18.4365 21.1469 19.1919C21.0482 19.9257 20.8678 20.3142 20.591 20.591C20.3142 20.8678 19.9257 21.0482 19.1919 21.1469C18.4365 21.2484 17.4354 21.25 16 21.25H8C6.56459 21.25 5.56347 21.2484 4.80812 21.1469C4.07435 21.0482 3.68577 20.8678 3.40901 20.591C3.13225 20.3142 2.9518 19.9257 2.85315 19.1919C2.75159 18.4365 2.75 17.4354 2.75 16V14C2.75 12.5646 2.75159 11.5635 2.85315 10.8081C2.9518 10.0743 3.13225 9.68577 3.40901 9.40901ZM13.5254 12.4489L13.4759 12.4159C12.8339 11.9878 12.2825 11.6201 11.8238 11.4035C11.3527 11.181 10.7611 11.0115 10.1742 11.3256C9.58737 11.6397 9.40028 12.2259 9.32408 12.7414C9.24991 13.2431 9.24995 13.9059 9.25 14.6775L9.25 14.737V15.263L9.25 15.3225C9.24995 16.0941 9.24991 16.7569 9.32408 17.2586C9.40028 17.7741 9.58737 18.3603 10.1742 18.6744C10.7611 18.9885 11.3527 18.819 11.8238 18.5965C12.2825 18.3799 12.8339 18.0122 13.4759 17.5841L13.4759 17.5841L13.5254 17.5511L13.9199 17.2881L13.966 17.2574C14.4909 16.9075 14.953 16.5995 15.2767 16.307C15.6209 15.996 15.9472 15.581 15.9472 15C15.9472 14.419 15.6209 14.004 15.2767 13.693C14.953 13.4005 14.4909 13.0925 13.966 12.7426L13.9199 12.7119L13.5254 12.4489ZM10.8556 12.6558C10.8552 12.6551 10.859 12.6539 10.8685 12.654C10.8608 12.6565 10.8561 12.6564 10.8556 12.6558ZM11.1833 12.7599C11.0171 12.6814 10.9275 12.6599 10.8858 12.6551C10.8666 12.6924 10.8348 12.7789 10.808 12.9607C10.752 13.3393 10.75 13.889 10.75 14.737V15.263C10.75 16.111 10.752 16.6607 10.808 17.0393C10.8348 17.2211 10.8666 17.3076 10.8858 17.3449C10.9275 17.3402 11.0171 17.3186 11.1833 17.2401C11.5293 17.0767 11.9878 16.7734 12.6934 16.303L13.0878 16.0401C13.6729 15.65 14.0397 15.4031 14.271 15.1941C14.3802 15.0954 14.4247 15.0347 14.4418 15.0052L14.4446 15L14.4418 14.9948C14.4247 14.9653 14.3802 14.9046 14.271 14.8059C14.0397 14.5969 13.6729 14.35 13.0878 13.9599L12.6934 13.697C11.9878 13.2266 11.5293 12.9233 11.1833 12.7599ZM10.8556 17.3442C10.8561 17.3436 10.8608 17.3435 10.8685 17.346C10.859 17.3461 10.8552 17.3449 10.8556 17.3442ZM10.8944 17.3599C10.9007 17.3649 10.9034 17.3689 10.9031 17.3696C10.9028 17.3704 10.8996 17.3679 10.8944 17.3599ZM10.8944 12.6401C10.8996 12.6321 10.9028 12.6296 10.9031 12.6304C10.9034 12.6311 10.9007 12.6351 10.8944 12.6401Z" fill="#22282F"/>
</svg>
