<svg width="24" height="24" viewBox="0 0 24 24" fill="none" xmlns="http://www.w3.org/2000/svg">
<path fill-rule="evenodd" clip-rule="evenodd" d="M2.53033 1.46967C2.23744 1.17678 1.76256 1.17678 1.46967 1.46967C1.17678 1.76256 1.17678 2.23744 1.46967 2.53033L6.19137 7.25203C5.62059 7.25693 5.1247 7.27355 4.70552 7.32991C4.07773 7.41432 3.51093 7.59999 3.05546 8.05546C2.59999 8.51093 2.41432 9.07773 2.32991 9.70552C2.24994 10.3003 2.24997 11.0495 2.25 11.948L2.25 12L2.25 12.052C2.24997 12.9505 2.24994 13.6997 2.32991 14.2945C2.41432 14.9223 2.59999 15.4891 3.05546 15.9445C3.51093 16.4 4.07773 16.5857 4.70552 16.6701C5.3003 16.7501 6.04951 16.75 6.94797 16.75L6.94801 16.75L7 16.75L7.1265 16.75C8.11781 16.75 8.37686 16.7666 8.59344 16.868C8.81003 16.9695 8.9886 17.1579 9.62322 17.9194L9.88739 18.2364L9.92691 18.2838L9.92696 18.2839C10.6325 19.1306 11.213 19.8272 11.7027 20.2753C12.1624 20.696 12.8225 21.1634 13.5957 20.8834C14.369 20.6035 14.5769 19.8218 14.6607 19.2043C14.7501 18.5466 14.75 17.6397 14.75 16.5376L14.75 16.5376L14.75 16.4759L14.75 15.8107L21.4697 22.5303C21.7626 22.8232 22.2374 22.8232 22.5303 22.5303C22.8232 22.2374 22.8232 21.7626 22.5303 21.4697L14.5303 13.4697L8.53033 7.46967L2.53033 1.46967ZM7 8.75L7.68934 8.75L13.25 14.3107L13.25 16.4759C13.25 17.6549 13.2483 18.4582 13.1744 19.0025C13.1414 19.2456 13.1016 19.3755 13.0737 19.4414C13.0101 19.4087 12.8963 19.3343 12.7153 19.1687C12.3101 18.7979 11.7945 18.1819 11.0397 17.2761L10.7756 16.9591L10.6881 16.854C10.1855 16.2496 9.78741 15.7709 9.22968 15.5096C8.67194 15.2484 8.04932 15.2491 7.26326 15.2499L7.1265 15.25L7 15.25C6.03599 15.25 5.38843 15.2484 4.90539 15.1835C4.44393 15.1214 4.24643 15.0142 4.11612 14.8839C3.9858 14.7536 3.87858 14.5561 3.81654 14.0946C3.75159 13.6116 3.75 12.964 3.75 12C3.75 11.036 3.75159 10.3884 3.81654 9.90539C3.87858 9.44393 3.9858 9.24643 4.11612 9.11612C4.24643 8.9858 4.44393 8.87858 4.90539 8.81654C5.38843 8.75159 6.03599 8.75 7 8.75ZM13.0389 19.5023C13.0387 19.5018 13.0409 19.4987 13.046 19.4944C13.0416 19.5006 13.0391 19.5027 13.0389 19.5023ZM13.1289 19.4644C13.1355 19.4645 13.1392 19.4654 13.1393 19.4659C13.1395 19.4664 13.1362 19.4663 13.1289 19.4644ZM12.9265 4.52446C12.9276 4.52361 12.9285 4.52288 12.9292 4.52226C13.034 4.49125 13.1472 4.53223 13.2079 4.62314C13.2081 4.6241 13.2083 4.62524 13.2085 4.62656C13.2128 4.64786 13.2265 4.71741 13.2357 4.87034C13.2497 5.1044 13.25 5.42788 13.25 5.90513L13.25 10C13.25 10.4142 13.5858 10.75 14 10.75C14.4142 10.75 14.75 10.4142 14.75 10L14.75 5.90513L14.75 5.8802C14.75 5.43413 14.75 5.06516 14.733 4.78068C14.7172 4.51705 14.6833 4.18912 14.5304 3.91337C14.1064 3.14865 13.1829 2.81432 12.3676 3.13031C12.0736 3.24426 11.8377 3.47452 11.6568 3.66694C11.4616 3.87457 11.2254 4.15801 10.9398 4.50069L10.9398 4.50071L10.9238 4.51986L10.0905 5.51986C9.82533 5.83807 9.86832 6.31099 10.1865 6.57617C10.5047 6.84134 10.9777 6.79835 11.2428 6.48014L12.0762 5.48014C12.3817 5.1135 12.589 4.86521 12.7496 4.69437C12.8546 4.58275 12.9097 4.53813 12.9265 4.52446ZM17.3763 5.5835C17.6063 5.23903 18.0721 5.14627 18.4165 5.37631C20.4358 6.7248 21.75 9.20744 21.75 12C21.75 13.1735 21.5185 14.2891 21.1018 15.2886C20.9408 15.6748 20.7521 16.0439 20.5382 16.3923C20.3216 16.7454 19.8597 16.8559 19.5067 16.6392C19.1537 16.4226 19.0432 15.9607 19.2598 15.6077C19.4325 15.3263 19.5859 15.0267 19.7173 14.7114C20.0575 13.8955 20.25 12.976 20.25 12C20.25 9.66491 19.151 7.67053 17.5835 6.62372C17.239 6.39369 17.1463 5.92796 17.3763 5.5835ZM16.3763 9.5835C16.6063 9.23903 17.0721 9.14627 17.4165 9.37631C18.2402 9.92637 18.75 10.9167 18.75 12C18.75 12.457 18.6598 12.8943 18.4955 13.2886C18.3361 13.6709 17.8969 13.8517 17.5146 13.6923C17.1323 13.5329 16.9516 13.0938 17.1109 12.7114C17.1988 12.5006 17.25 12.2595 17.25 12C17.25 11.3741 16.9554 10.8721 16.5835 10.6237C16.239 10.3937 16.1463 9.92796 16.3763 9.5835Z" fill="#22282F"/>
</svg>
