<svg width="24" height="24" viewBox="0 0 24 24" fill="none" xmlns="http://www.w3.org/2000/svg">
<path fill-rule="evenodd" clip-rule="evenodd" d="M10.0397 6.72387C10.7945 5.81813 11.3101 5.20209 11.7153 4.83132C11.8963 4.66569 12.0101 4.59134 12.0737 4.5586C12.1016 4.62446 12.1414 4.75442 12.1744 4.99753C12.2483 5.54176 12.25 6.34509 12.25 7.5241L12.25 16.4759C12.25 17.6549 12.2483 18.4582 12.1744 19.0025C12.1414 19.2456 12.1016 19.3755 12.0737 19.4414C12.0101 19.4087 11.8963 19.3343 11.7153 19.1687C11.3101 18.7979 10.7945 18.1819 10.0397 17.2761L9.77555 16.9591L9.68807 16.854C9.18549 16.2496 8.78741 15.7709 8.22968 15.5096C7.67194 15.2484 7.04932 15.2491 6.26326 15.2499L6.1265 15.25L6 15.25C5.03599 15.25 4.38843 15.2484 3.90539 15.1835C3.44393 15.1214 3.24643 15.0142 3.11612 14.8839C2.9858 14.7536 2.87858 14.5561 2.81654 14.0946C2.75159 13.6116 2.75 12.964 2.75 12C2.75 11.036 2.75159 10.3884 2.81654 9.90539C2.87858 9.44393 2.9858 9.24643 3.11612 9.11612C3.24643 8.9858 3.44393 8.87858 3.90539 8.81654C4.38843 8.75159 5.03599 8.75 6 8.75L6.1265 8.75L6.26326 8.7501L6.26326 8.7501C7.04932 8.75094 7.67194 8.7516 8.22968 8.49037C8.78741 8.22914 9.1855 7.75041 9.68807 7.146L9.77555 7.04088L10.0397 6.72387ZM12.1393 4.53409C12.1392 4.53455 12.1355 4.53552 12.1289 4.53559C12.1362 4.53366 12.1395 4.53362 12.1393 4.53409ZM12.046 4.50558C12.0409 4.50126 12.0387 4.49818 12.0389 4.49772C12.0391 4.49726 12.0416 4.49942 12.046 4.50558ZM12.0389 19.5023C12.0387 19.5018 12.0409 19.4987 12.046 19.4944C12.0416 19.5006 12.0391 19.5027 12.0389 19.5023ZM12.1289 19.4644C12.1355 19.4645 12.1392 19.4654 12.1393 19.4659C12.1395 19.4664 12.1362 19.4663 12.1289 19.4644ZM12.5957 3.11657C11.8225 2.83661 11.1624 3.30403 10.7027 3.72471C10.213 4.17283 9.63241 4.86952 8.92685 5.71624L8.88739 5.76359L8.62322 6.0806C7.9886 6.84214 7.81003 7.03054 7.59344 7.13199C7.37686 7.23343 7.11781 7.25 6.1265 7.25L6 7.25L5.94801 7.25C5.04952 7.24997 4.3003 7.24995 3.70552 7.32991C3.07773 7.41432 2.51093 7.59999 2.05546 8.05546C1.59999 8.51093 1.41432 9.07773 1.32991 9.70552C1.24995 10.3003 1.24997 11.0495 1.25 11.948L1.25 11.948L1.25 12L1.25 12.052L1.25 12.052C1.24997 12.9505 1.24995 13.6997 1.32991 14.2945C1.41432 14.9223 1.59999 15.4891 2.05546 15.9445C2.51093 16.4 3.07773 16.5857 3.70552 16.6701C4.3003 16.7501 5.04951 16.75 5.94797 16.75L5.94801 16.75L6 16.75L6.1265 16.75C7.11781 16.75 7.37686 16.7666 7.59344 16.868C7.81003 16.9695 7.9886 17.1579 8.62322 17.9194L8.88739 18.2364L8.92691 18.2838L8.92697 18.2839C9.63248 19.1306 10.213 19.8272 10.7027 20.2753C11.1624 20.696 11.8225 21.1634 12.5957 20.8834C13.369 20.6035 13.5769 19.8218 13.6607 19.2043C13.7501 18.5466 13.75 17.6397 13.75 16.5376L13.75 16.5376L13.75 16.4759L13.75 7.5241L13.75 7.46243L13.75 7.46242C13.75 6.36028 13.7501 5.45343 13.6607 4.79568C13.5769 4.1782 13.369 3.39654 12.5957 3.11657ZM17.5303 9.46967C17.2374 9.17678 16.7626 9.17678 16.4697 9.46967C16.1768 9.76256 16.1768 10.2374 16.4697 10.5303L18.4393 12.5L16.4697 14.4697C16.1768 14.7626 16.1768 15.2374 16.4697 15.5303C16.7626 15.8232 17.2374 15.8232 17.5303 15.5303L19.5 13.5607L21.4697 15.5303C21.7626 15.8232 22.2374 15.8232 22.5303 15.5303C22.8232 15.2374 22.8232 14.7626 22.5303 14.4697L20.5607 12.5L22.5303 10.5303C22.8232 10.2374 22.8232 9.76256 22.5303 9.46967C22.2374 9.17678 21.7626 9.17678 21.4697 9.46967L19.5 11.4393L17.5303 9.46967Z" fill="#22282F"/>
</svg>
