<svg width="24" height="24" viewBox="0 0 24 24" fill="none" xmlns="http://www.w3.org/2000/svg">
<path fill-rule="evenodd" clip-rule="evenodd" d="M15.7153 4.83132C15.3101 5.20209 14.7945 5.81813 14.0397 6.72387L13.7756 7.04088C13.746 7.07632 13.7169 7.11137 13.6881 7.146C13.1855 7.75041 12.7874 8.22914 12.2297 8.49037C11.6719 8.7516 11.0493 8.75094 10.2633 8.7501C10.2182 8.75005 10.1726 8.75 10.1265 8.75L10 8.75C9.03599 8.75 8.38843 8.75159 7.90539 8.81654C7.44393 8.87858 7.24643 8.9858 7.11612 9.11612C6.9858 9.24643 6.87858 9.44393 6.81654 9.90539C6.75159 10.3884 6.75 11.036 6.75 12C6.75 12.964 6.75159 13.6116 6.81654 14.0946C6.87858 14.5561 6.9858 14.7536 7.11612 14.8839C7.24643 15.0142 7.44393 15.1214 7.90539 15.1835C8.38843 15.2484 9.03599 15.25 10 15.25L10.1265 15.25C10.1726 15.25 10.2182 15.25 10.2633 15.2499C11.0493 15.2491 11.6719 15.2484 12.2297 15.5096C12.7874 15.7709 13.1855 16.2496 13.6881 16.854C13.7169 16.8886 13.746 16.9237 13.7756 16.9591L14.0397 17.2761C14.7945 18.1819 15.3101 18.7979 15.7153 19.1687C15.8963 19.3343 16.0101 19.4087 16.0737 19.4414C16.1016 19.3755 16.1414 19.2456 16.1744 19.0025C16.2483 18.4582 16.25 17.6549 16.25 16.4759L16.25 7.5241C16.25 6.34509 16.2483 5.54176 16.1744 4.99753C16.1414 4.75442 16.1016 4.62446 16.0737 4.5586C16.0101 4.59134 15.8963 4.66569 15.7153 4.83132ZM16.1393 4.53409C16.1392 4.53455 16.1355 4.53552 16.1289 4.53559C16.1362 4.53366 16.1395 4.53362 16.1393 4.53409ZM16.046 4.50558C16.0409 4.50126 16.0387 4.49818 16.0389 4.49772C16.0391 4.49726 16.0416 4.49942 16.046 4.50558ZM16.0389 19.5023C16.0387 19.5018 16.0409 19.4987 16.046 19.4944C16.0416 19.5006 16.0391 19.5027 16.0389 19.5023ZM16.1289 19.4644C16.1355 19.4645 16.1392 19.4654 16.1393 19.4659C16.1395 19.4664 16.1362 19.4663 16.1289 19.4644ZM14.7027 3.72471C15.1624 3.30403 15.8225 2.83661 16.5957 3.11657C17.369 3.39654 17.5769 4.1782 17.6607 4.79568C17.7501 5.45343 17.75 6.36029 17.75 7.46243L17.75 7.5241L17.75 16.4759L17.75 16.5376C17.75 17.6397 17.7501 18.5466 17.6607 19.2043C17.5769 19.8218 17.369 20.6035 16.5957 20.8834C15.8225 21.1634 15.1624 20.696 14.7027 20.2753C14.213 19.8272 13.6324 19.1305 12.9269 18.2838L12.8874 18.2364L12.6232 17.9194C11.9886 17.1579 11.81 16.9695 11.5934 16.868C11.3769 16.7666 11.1178 16.75 10.1265 16.75L10 16.75L9.94801 16.75C9.04952 16.75 8.3003 16.7501 7.70552 16.6701C7.07773 16.5857 6.51093 16.4 6.05546 15.9445C5.59999 15.4891 5.41432 14.9223 5.32991 14.2945C5.24994 13.6997 5.24997 12.9505 5.25 12.052L5.25 12L5.25 11.948C5.24997 11.0495 5.24994 10.3003 5.32991 9.70552C5.41432 9.07773 5.59999 8.51093 6.05546 8.05546C6.51093 7.59999 7.07773 7.41432 7.70552 7.32991C8.3003 7.24995 9.04952 7.24997 9.94801 7.25L10 7.25L10.1265 7.25C11.1178 7.25 11.3769 7.23343 11.5934 7.13199C11.81 7.03054 11.9886 6.84214 12.6232 6.0806L12.8874 5.76359L12.9269 5.71624C13.6324 4.86952 14.213 4.17283 14.7027 3.72471Z" fill="#22282F"/>
</svg>
