<svg width="24" height="24" viewBox="0 0 24 24" fill="none" xmlns="http://www.w3.org/2000/svg">
<path fill-rule="evenodd" clip-rule="evenodd" d="M13.0397 6.72387C13.7945 5.81813 14.3101 5.20209 14.7153 4.83132C14.8963 4.66569 15.0101 4.59134 15.0737 4.5586C15.1016 4.62446 15.1414 4.75442 15.1744 4.99753C15.2483 5.54176 15.25 6.34509 15.25 7.5241L15.25 16.4759C15.25 17.6549 15.2483 18.4582 15.1744 19.0025C15.1414 19.2456 15.1016 19.3755 15.0737 19.4414C15.0101 19.4087 14.8963 19.3343 14.7153 19.1687C14.3101 18.7979 13.7945 18.1819 13.0397 17.2761L12.7756 16.9591L12.6881 16.854C12.1855 16.2496 11.7874 15.7709 11.2297 15.5096C10.6719 15.2484 10.0493 15.2491 9.26326 15.2499L9.1265 15.25L9 15.25C8.03599 15.25 7.38843 15.2484 6.90539 15.1835C6.44393 15.1214 6.24643 15.0142 6.11612 14.8839C5.9858 14.7536 5.87858 14.5561 5.81654 14.0946C5.75159 13.6116 5.75 12.964 5.75 12C5.75 11.036 5.75159 10.3884 5.81654 9.90539C5.87858 9.44393 5.9858 9.24643 6.11612 9.11612C6.24643 8.9858 6.44393 8.87858 6.90539 8.81654C7.38843 8.75159 8.03599 8.75 9 8.75L9.1265 8.75L9.26326 8.7501L9.26326 8.7501C10.0493 8.75094 10.6719 8.7516 11.2297 8.49037C11.7874 8.22914 12.1855 7.75041 12.6881 7.146L12.7756 7.04088L13.0397 6.72387ZM15.1393 4.53409C15.1392 4.53455 15.1355 4.53552 15.1289 4.53559C15.1362 4.53366 15.1395 4.53362 15.1393 4.53409ZM15.046 4.50558C15.0409 4.50126 15.0387 4.49818 15.0389 4.49772C15.0391 4.49726 15.0416 4.49942 15.046 4.50558ZM15.0389 19.5023C15.0387 19.5018 15.0409 19.4987 15.046 19.4944C15.0416 19.5006 15.0391 19.5027 15.0389 19.5023ZM15.1289 19.4644C15.1355 19.4645 15.1392 19.4654 15.1393 19.4659C15.1395 19.4664 15.1362 19.4663 15.1289 19.4644ZM15.5957 3.11657C14.8225 2.83661 14.1624 3.30403 13.7027 3.72471C13.213 4.17283 12.6324 4.86952 11.9269 5.71624L11.8874 5.76359L11.6232 6.0806C10.9886 6.84214 10.81 7.03054 10.5934 7.13199C10.3769 7.23343 10.1178 7.25 9.1265 7.25L9 7.25L8.94801 7.25C8.04952 7.24997 7.3003 7.24995 6.70552 7.32991C6.07773 7.41432 5.51093 7.59999 5.05546 8.05546C4.59999 8.51093 4.41432 9.07773 4.32991 9.70552C4.24995 10.3003 4.24997 11.0495 4.25 11.948L4.25 11.948L4.25 12L4.25 12.052L4.25 12.052C4.24997 12.9505 4.24995 13.6997 4.32991 14.2945C4.41432 14.9223 4.59999 15.4891 5.05546 15.9445C5.51093 16.4 6.07773 16.5857 6.70552 16.6701C7.3003 16.7501 8.04951 16.75 8.94797 16.75L8.94801 16.75L9 16.75L9.1265 16.75C10.1178 16.75 10.3769 16.7666 10.5934 16.868C10.81 16.9695 10.9886 17.1579 11.6232 17.9194L11.8874 18.2364L11.9269 18.2838L11.927 18.2839C12.6325 19.1306 13.213 19.8272 13.7027 20.2753C14.1624 20.696 14.8225 21.1634 15.5957 20.8834C16.369 20.6035 16.5769 19.8218 16.6607 19.2043C16.7501 18.5466 16.75 17.6397 16.75 16.5376L16.75 16.5376L16.75 16.4759L16.75 7.5241L16.75 7.46243L16.75 7.46242C16.75 6.36028 16.7501 5.45343 16.6607 4.79568C16.5769 4.1782 16.369 3.39654 15.5957 3.11657ZM19.4165 9.37628C19.0721 9.14624 18.6063 9.239 18.3763 9.58347C18.1463 9.92793 18.239 10.3937 18.5835 10.6237C18.9554 10.8721 19.25 11.3741 19.25 12C19.25 12.6259 18.9554 13.1279 18.5835 13.3763C18.239 13.6063 18.1463 14.072 18.3763 14.4165C18.6063 14.761 19.0721 14.8537 19.4165 14.6237C20.2402 14.0736 20.75 13.0833 20.75 12C20.75 10.9166 20.2402 9.92634 19.4165 9.37628Z" fill="#22282F"/>
</svg>
