<svg width="24" height="24" viewBox="0 0 24 24" fill="none" xmlns="http://www.w3.org/2000/svg">
<path fill-rule="evenodd" clip-rule="evenodd" d="M11.0397 6.72385C11.7945 5.81811 12.3101 5.20208 12.7153 4.83131C12.8963 4.66568 13.0101 4.59133 13.0737 4.55858C13.1016 4.62445 13.1414 4.75441 13.1744 4.99752C13.2483 5.54175 13.25 6.34507 13.25 7.52408L13.25 16.4759C13.25 17.6549 13.2483 18.4582 13.1744 19.0025C13.1414 19.2456 13.1016 19.3755 13.0737 19.4414C13.0101 19.4086 12.8963 19.3343 12.7153 19.1687C12.3101 18.7979 11.7945 18.1819 11.0397 17.2761L10.7756 16.9591L10.6881 16.854C10.1855 16.2496 9.78741 15.7708 9.22968 15.5096C8.67194 15.2484 8.04932 15.249 7.26326 15.2499L7.1265 15.25L7 15.25C6.03599 15.25 5.38843 15.2484 4.90539 15.1835C4.44393 15.1214 4.24643 15.0142 4.11612 14.8839C3.9858 14.7536 3.87858 14.5561 3.81653 14.0946C3.75159 13.6116 3.75 12.964 3.75 12C3.75 11.036 3.75159 10.3884 3.81653 9.90538C3.87858 9.44392 3.9858 9.24642 4.11612 9.1161C4.24643 8.98579 4.44393 8.87856 4.90539 8.81652C5.38843 8.75158 6.03599 8.74999 7 8.74999L7.1265 8.74999L7.26326 8.75008L7.26326 8.75008C8.04932 8.75092 8.67194 8.75159 9.22968 8.49036C9.78741 8.22913 10.1855 7.75039 10.6881 7.14598L10.7755 7.04086L11.0397 6.72385ZM13.1393 4.53407C13.1392 4.53454 13.1355 4.5355 13.1289 4.53557C13.1362 4.53364 13.1395 4.53361 13.1393 4.53407ZM13.046 4.50557C13.0409 4.50125 13.0387 4.49817 13.0389 4.49771C13.0391 4.49725 13.0416 4.49941 13.046 4.50557ZM13.0389 19.5023C13.0387 19.5018 13.0409 19.4987 13.046 19.4944C13.0416 19.5006 13.0391 19.5027 13.0389 19.5023ZM13.1289 19.4644C13.1355 19.4645 13.1392 19.4654 13.1393 19.4659C13.1395 19.4664 13.1362 19.4663 13.1289 19.4644ZM13.5957 3.11656C12.8225 2.83659 12.1624 3.30402 11.7027 3.7247C11.213 4.17282 10.6324 4.8695 9.92686 5.71622L9.92685 5.71622L9.88739 5.76358L9.62322 6.08059C8.9886 6.84213 8.81003 7.03053 8.59344 7.13197C8.37686 7.23342 8.11781 7.24999 7.1265 7.24999L7 7.24999L6.948 7.24998C6.04952 7.24995 5.3003 7.24993 4.70552 7.3299C4.07773 7.4143 3.51093 7.59997 3.05546 8.05544C2.59999 8.51091 2.41431 9.07771 2.32991 9.70551C2.24994 10.3003 2.24997 11.0495 2.25 11.948L2.25 12L2.25 12.052C2.24997 12.9505 2.24994 13.6997 2.32991 14.2945C2.41431 14.9223 2.59999 15.4891 3.05546 15.9445C3.51093 16.4 4.07773 16.5857 4.70552 16.6701C5.30029 16.75 6.0495 16.75 6.94797 16.75L6.948 16.75L7 16.75L7.1265 16.75C8.11781 16.75 8.37686 16.7666 8.59344 16.868C8.81003 16.9694 8.9886 17.1578 9.62322 17.9194L9.88739 18.2364L9.92691 18.2838L9.92693 18.2838C10.6325 19.1305 11.213 19.8272 11.7027 20.2753C12.1624 20.696 12.8225 21.1634 13.5957 20.8834C14.369 20.6034 14.5769 19.8218 14.6607 19.2043C14.7501 18.5466 14.75 17.6397 14.75 16.5376L14.75 16.5376L14.75 16.4759L14.75 7.52408L14.75 7.46242L14.75 7.46234C14.75 6.36023 14.7501 5.4534 14.6607 4.79567C14.5769 4.17819 14.369 3.39653 13.5957 3.11656ZM17.3763 5.58348C17.6063 5.23902 18.0721 5.14625 18.4165 5.37629C20.4358 6.72479 21.75 9.20742 21.75 12C21.75 14.7926 20.4358 17.2752 18.4165 18.6237C18.0721 18.8537 17.6063 18.761 17.3763 18.4165C17.1463 18.0721 17.239 17.6063 17.5835 17.3763C19.151 16.3295 20.25 14.3351 20.25 12C20.25 9.66489 19.151 7.67052 17.5835 6.62371C17.239 6.39367 17.1463 5.92795 17.3763 5.58348ZM16.3763 9.58348C16.6063 9.23902 17.0721 9.14626 17.4165 9.37629C18.2402 9.92635 18.75 10.9167 18.75 12C18.75 13.0834 18.2402 14.0736 17.4165 14.6237C17.0721 14.8537 16.6063 14.761 16.3763 14.4165C16.1463 14.0721 16.239 13.6063 16.5835 13.3763C16.9554 13.1279 17.25 12.6259 17.25 12C17.25 11.3741 16.9554 10.8721 16.5835 10.6237C16.239 10.3937 16.1463 9.92795 16.3763 9.58348Z" fill="#22282F"/>
</svg>
