<svg width="24" height="24" viewBox="0 0 24 24" fill="none" xmlns="http://www.w3.org/2000/svg">
<path fill-rule="evenodd" clip-rule="evenodd" d="M12.0005 2.75C8.54868 2.75 5.75046 5.54822 5.75046 9C5.75046 12.4518 8.54868 15.25 12.0005 15.25C15.4522 15.25 18.2505 12.4518 18.2505 9C18.2505 5.54822 15.4522 2.75 12.0005 2.75ZM4.25046 9C4.25046 4.71979 7.72025 1.25 12.0005 1.25C16.2807 1.25 19.7505 4.71979 19.7505 9C19.7505 10.9793 19.0085 12.7853 17.7874 14.1551C18.9749 15.1037 19.8062 16.3044 20.3858 17.4553L20.4199 17.5231C20.7776 18.233 21.102 18.877 21.2428 19.4662C21.4064 20.1506 21.3336 20.7866 20.9295 21.4424C20.5022 22.1361 19.8901 22.4673 19.1444 22.6166C18.4767 22.7502 17.6325 22.7501 16.6538 22.75L16.5805 22.75L7.42041 22.75L7.34714 22.75C6.36844 22.7501 5.52418 22.7502 4.85653 22.6166C4.11079 22.4673 3.49871 22.1361 3.07137 21.4424C2.66731 20.7866 2.59451 20.1506 2.75807 19.4662C2.89891 18.877 3.22334 18.233 3.581 17.5231L3.61512 17.4553C4.19469 16.3044 5.02599 15.1037 6.21347 14.1551C4.99246 12.7853 4.25046 10.9793 4.25046 9ZM7.33183 15.1865C6.2643 15.9811 5.49929 17.0488 4.95485 18.13C4.55192 18.9301 4.31218 19.4166 4.21698 19.815C4.14003 20.1369 4.16667 20.3606 4.34847 20.6557C4.50699 20.913 4.70861 21.0572 5.15087 21.1457C5.65462 21.2465 6.34718 21.25 7.42041 21.25L16.5805 21.25C17.6537 21.25 18.3463 21.2465 18.85 21.1457C19.2923 21.0572 19.4939 20.913 19.6524 20.6557C19.8342 20.3606 19.8609 20.1369 19.7839 19.815C19.6887 19.4166 19.449 18.9301 19.0461 18.13C18.5016 17.0488 17.7366 15.9811 16.6691 15.1865C15.3706 16.1679 13.7535 16.75 12.0005 16.75C10.2474 16.75 8.63028 16.1679 7.33183 15.1865ZM12.0005 7.75C11.3101 7.75 10.7505 8.30965 10.7505 9C10.7505 9.69036 11.3101 10.25 12.0005 10.25C12.6908 10.25 13.2505 9.69036 13.2505 9C13.2505 8.30965 12.6908 7.75 12.0005 7.75ZM9.25046 9C9.25046 7.48122 10.4817 6.25 12.0005 6.25C13.5192 6.25 14.7505 7.48122 14.7505 9C14.7505 10.5188 13.5192 11.75 12.0005 11.75C10.4817 11.75 9.25046 10.5188 9.25046 9Z" fill="#22282F"/>
</svg>
