<svg width="24" height="24" viewBox="0 0 24 24" fill="none" xmlns="http://www.w3.org/2000/svg">
<path fill-rule="evenodd" clip-rule="evenodd" d="M1.46967 1.46967C1.76256 1.17678 2.23744 1.17678 2.53033 1.46967L6.31226 5.2516L15.7484 14.6877L22.5303 21.4697C22.8232 21.7626 22.8232 22.2374 22.5303 22.5303C22.2374 22.8232 21.7626 22.8232 21.4697 22.5303L20.6372 21.6979C20.4652 21.9221 20.2582 22.1333 20.0298 22.286C19.3323 22.7524 18.5623 22.7514 17.6139 22.7501L17.4641 22.75L6.53604 22.75L6.38622 22.7501C5.43784 22.7514 4.66786 22.7524 3.97041 22.286C3.67584 22.089 3.42025 21.7972 3.23097 21.5136C3.04169 21.23 2.87027 20.882 2.80142 20.5344C2.63874 19.7131 2.88693 19.1174 3.18829 18.3941L3.22422 18.3077C3.8024 16.9164 4.7311 15.339 6.21304 14.1551C4.99201 12.7854 4.25 10.9793 4.25 9C4.25 7.91397 4.47381 6.87863 4.87822 5.93888L1.46967 2.53033C1.17678 2.23744 1.17678 1.76257 1.46967 1.46967ZM7.33141 15.1866C6.01203 16.1686 5.1564 17.5669 4.60939 18.8833C4.26291 19.7171 4.206 19.9055 4.27283 20.2429C4.29134 20.3364 4.35813 20.5004 4.47864 20.6809C4.59916 20.8615 4.72497 20.9861 4.80419 21.0391C5.07965 21.2233 5.36161 21.25 6.53604 21.25L17.4641 21.25C18.6385 21.25 18.9205 21.2233 19.196 21.0391C19.2878 20.9777 19.4332 20.827 19.5601 20.6208L15.0611 16.1218C14.1214 16.5262 13.086 16.75 12 16.75C10.247 16.75 8.62985 16.168 7.33141 15.1866ZM6.04274 7.1034C5.85265 7.70106 5.75 8.3381 5.75 9C5.75 12.4518 8.54822 15.25 12 15.25C12.6619 15.25 13.2989 15.1473 13.8966 14.9573L6.04274 7.1034ZM12 2.75C10.6711 2.75 9.44113 3.1639 8.42907 3.86983C8.08934 4.1068 7.62183 4.0235 7.38486 3.68377C7.14789 3.34403 7.23119 2.87652 7.57093 2.63955C8.82654 1.76373 10.3544 1.25 12 1.25C16.2802 1.25 19.75 4.7198 19.75 9C19.75 10.6456 19.2363 12.1735 18.3604 13.4291C18.1235 13.7688 17.656 13.8521 17.3162 13.6151C16.9765 13.3782 16.8932 12.9107 17.1302 12.5709C17.8361 11.5589 18.25 10.3289 18.25 9C18.25 5.54822 15.4518 2.75 12 2.75ZM11.25 7C11.25 6.58579 11.5858 6.25 12 6.25C13.5188 6.25 14.75 7.48122 14.75 9C14.75 9.41422 14.4142 9.75 14 9.75C13.5858 9.75 13.25 9.41422 13.25 9C13.25 8.30965 12.6904 7.75 12 7.75C11.5858 7.75 11.25 7.41422 11.25 7Z" fill="#22282F"/>
</svg>
