<svg width="24" height="24" viewBox="0 0 24 24" fill="none" xmlns="http://www.w3.org/2000/svg">
<path fill-rule="evenodd" clip-rule="evenodd" d="M12 2.25C9.92896 2.25 8.25003 3.92893 8.25003 6V6.38666C7.29636 7.02503 6.51444 7.89997 5.98823 8.92754L5.28772 8.22703C4.37736 7.31667 4.0793 6.99983 3.9213 6.6184C3.76331 6.23696 3.75003 5.80217 3.75003 4.51472V4C3.75003 3.58579 3.41425 3.25 3.00003 3.25C2.58582 3.25 2.25003 3.58579 2.25003 4V4.51472L2.24999 4.65732C2.24947 5.7451 2.24911 6.50105 2.53548 7.19242C2.82186 7.8838 3.35665 8.41808 4.12619 9.18688L4.22706 9.28769L5.4214 10.482C5.30927 10.9699 5.25003 11.4781 5.25003 12V15C5.25003 15.2219 5.26074 15.4413 5.28167 15.6577L4.22706 16.7123L4.12619 16.8131C3.35665 17.5819 2.82186 18.1162 2.53548 18.8076C2.24911 19.499 2.24947 20.2549 2.24999 21.3427L2.25003 21.4853V22C2.25003 22.4142 2.58582 22.75 3.00003 22.75C3.41425 22.75 3.75003 22.4142 3.75003 22V21.4853C3.75003 20.1978 3.76331 19.763 3.9213 19.3816C4.0793 19.0002 4.37736 18.6833 5.28772 17.773L5.68134 17.3794C6.6435 19.9332 9.10961 21.75 12 21.75C14.8905 21.75 17.3566 19.9332 18.3187 17.3794L18.7123 17.773C19.6227 18.6833 19.9208 19.0002 20.0788 19.3816C20.2368 19.763 20.25 20.1978 20.25 21.4853V22C20.25 22.4142 20.5858 22.75 21 22.75C21.4142 22.75 21.75 22.4142 21.75 22V21.4853L21.7501 21.3427C21.7506 20.2549 21.751 19.499 21.4646 18.8076C21.1782 18.1162 20.6434 17.5819 19.8739 16.8131L19.773 16.7123L18.7184 15.6577C18.7393 15.4413 18.75 15.2219 18.75 15V12C18.75 11.4781 18.6908 10.9699 18.5787 10.482L19.773 9.28769L19.8739 9.18688C20.6434 8.41808 21.1782 7.8838 21.4646 7.19242C21.751 6.50105 21.7506 5.7451 21.7501 4.65732L21.75 4.51472V4C21.75 3.58579 21.4142 3.25 21 3.25C20.5858 3.25 20.25 3.58579 20.25 4V4.51472C20.25 5.80217 20.2368 6.23696 20.0788 6.6184C19.9208 6.99983 19.6227 7.31667 18.7123 8.22703L18.0118 8.92754C17.4856 7.89997 16.7037 7.02503 15.75 6.38666V6C15.75 3.92893 14.0711 2.25 12 2.25ZM14.2186 5.62307C14.0393 4.55988 13.1142 3.75 12 3.75C10.8858 3.75 9.96079 4.55988 9.78147 5.62307C10.4763 5.38135 11.2228 5.25 12 5.25C12.7772 5.25 13.5237 5.38135 14.2186 5.62307ZM12.75 15V20.1968C15.2943 19.8329 17.25 17.6449 17.25 15V12C17.25 9.10051 14.8995 6.75 12 6.75C9.10054 6.75 6.75003 9.1005 6.75003 12V15C6.75003 17.6449 8.70581 19.8329 11.25 20.1968V15C11.25 14.5858 11.5858 14.25 12 14.25C12.4142 14.25 12.75 14.5858 12.75 15Z" fill="#22282F"/>
</svg>
