<svg width="24" height="24" viewBox="0 0 24 24" fill="none" xmlns="http://www.w3.org/2000/svg">
<path fill-rule="evenodd" clip-rule="evenodd" d="M7.47337 2.25H7.5H8C8.41421 2.25 8.75 2.58579 8.75 3C8.75 3.41421 8.41421 3.75 8 3.75H7.5C6.79083 3.75 6.29651 3.75041 5.90959 3.77681C5.5294 3.80275 5.308 3.85125 5.13896 3.92127C4.58765 4.14963 4.14963 4.58765 3.92127 5.13896C3.85125 5.308 3.80275 5.5294 3.77681 5.90959C3.75041 6.29651 3.75 6.79083 3.75 7.5V8C3.75 8.41421 3.41421 8.75 3 8.75C2.58579 8.75 2.25 8.41421 2.25 8V7.5V7.47337C2.24999 6.79704 2.24999 6.25149 2.28028 5.80748C2.31144 5.35092 2.37711 4.94721 2.53545 4.56494C2.91605 3.64608 3.64608 2.91605 4.56494 2.53545C4.94721 2.37711 5.35092 2.31144 5.80748 2.28028C6.25149 2.24999 6.79704 2.24999 7.47337 2.25ZM18.0904 3.77681C17.7035 3.75041 17.2092 3.75 16.5 3.75H16C15.5858 3.75 15.25 3.41421 15.25 3C15.25 2.58579 15.5858 2.25 16 2.25H16.5H16.5266C17.203 2.24999 17.7485 2.24999 18.1925 2.28028C18.6491 2.31144 19.0528 2.37711 19.4351 2.53545C20.3539 2.91605 21.0839 3.64608 21.4645 4.56494C21.6229 4.94721 21.6886 5.35092 21.7197 5.80748C21.75 6.25148 21.75 6.79704 21.75 7.47336V7.5V8C21.75 8.41421 21.4142 8.75 21 8.75C20.5858 8.75 20.25 8.41421 20.25 8V7.5C20.25 6.79083 20.2496 6.29651 20.2232 5.90959C20.1973 5.5294 20.1487 5.308 20.0787 5.13896C19.8504 4.58765 19.4124 4.14963 18.861 3.92127C18.692 3.85125 18.4706 3.80275 18.0904 3.77681ZM3 15.25C3.41421 15.25 3.75 15.5858 3.75 16V16.5C3.75 17.2092 3.75041 17.7035 3.77681 18.0904C3.80275 18.4706 3.85125 18.692 3.92127 18.861C4.14963 19.4124 4.58765 19.8504 5.13896 20.0787C5.308 20.1487 5.5294 20.1973 5.90959 20.2232C6.29651 20.2496 6.79083 20.25 7.5 20.25H8C8.41421 20.25 8.75 20.5858 8.75 21C8.75 21.4142 8.41421 21.75 8 21.75H7.5H7.47336C6.79704 21.75 6.25148 21.75 5.80748 21.7197C5.35092 21.6886 4.94721 21.6229 4.56494 21.4645C3.64608 21.0839 2.91605 20.3539 2.53545 19.4351C2.37711 19.0528 2.31144 18.6491 2.28028 18.1925C2.24999 17.7485 2.24999 17.203 2.25 16.5266V16.5V16C2.25 15.5858 2.58579 15.25 3 15.25ZM21 15.25C21.4142 15.25 21.75 15.5858 21.75 16V16.5V16.5266C21.75 17.203 21.75 17.7485 21.7197 18.1925C21.6886 18.6491 21.6229 19.0528 21.4645 19.4351C21.0839 20.3539 20.3539 21.0839 19.4351 21.4645C19.0528 21.6229 18.6491 21.6886 18.1925 21.7197C17.7485 21.75 17.203 21.75 16.5266 21.75H16.5H16C15.5858 21.75 15.25 21.4142 15.25 21C15.25 20.5858 15.5858 20.25 16 20.25H16.5C17.2092 20.25 17.7035 20.2496 18.0904 20.2232C18.4706 20.1973 18.692 20.1487 18.861 20.0787C19.4124 19.8504 19.8504 19.4124 20.0787 18.861C20.1487 18.692 20.1973 18.4706 20.2232 18.0904C20.2496 17.7035 20.25 17.2092 20.25 16.5V16C20.25 15.5858 20.5858 15.25 21 15.25ZM12 7.25C12.4142 7.25 12.75 7.58579 12.75 8V12.0001C12.75 12.9665 11.9665 13.75 11.0001 13.75C10.5859 13.75 10.2501 13.4142 10.2501 13C10.2501 12.5858 10.5859 12.25 11.0001 12.25C11.1381 12.25 11.25 12.1381 11.25 12.0001V8C11.25 7.58579 11.5858 7.25 12 7.25ZM8.75 8C8.75 7.58579 8.41421 7.25 8 7.25C7.58579 7.25 7.25 7.58579 7.25 8V9.5C7.25 9.91421 7.58579 10.25 8 10.25C8.41421 10.25 8.75 9.91421 8.75 9.5V8ZM16 7.25C16.4142 7.25 16.75 7.58579 16.75 8V9.5C16.75 9.91421 16.4142 10.25 16 10.25C15.5858 10.25 15.25 9.91421 15.25 9.5V8C15.25 7.58579 15.5858 7.25 16 7.25ZM8.59967 14.5496C8.35091 14.2184 7.88076 14.1516 7.54957 14.4003C7.21838 14.6491 7.15156 15.1192 7.40033 15.4504C8.44809 16.8454 10.1187 17.75 12.0004 17.75C13.882 17.75 15.5526 16.8454 16.6004 15.4504C16.8492 15.1192 16.7824 14.6491 16.4512 14.4003C16.12 14.1516 15.6498 14.2184 15.4011 14.5496C14.6244 15.5835 13.3903 16.25 12.0004 16.25C10.6104 16.25 9.37632 15.5835 8.59967 14.5496Z" fill="#22282F"/>
</svg>
