<svg width="24" height="24" viewBox="0 0 24 24" fill="none" xmlns="http://www.w3.org/2000/svg">
<path fill-rule="evenodd" clip-rule="evenodd" d="M20.5303 2.46967C20.8232 2.76256 20.8232 3.23744 20.5303 3.53033L20.0607 4L22.5303 6.46967C22.8232 6.76256 22.8232 7.23744 22.5303 7.53033L19.0303 11.0303C18.7374 11.3232 18.2626 11.3232 17.9697 11.0303L15.5 8.56066L11.5617 12.499C12.3069 13.4686 12.75 14.6826 12.75 16C12.75 19.1756 10.1756 21.75 7 21.75C3.82436 21.75 1.25 19.1756 1.25 16C1.25 12.8244 3.82436 10.25 7 10.25C8.31745 10.25 9.53141 10.6931 10.501 11.4383L14.9697 6.96967L18.4697 3.46967C18.4698 3.46956 18.4699 3.46945 18.47 3.46934L19.4697 2.46967C19.7626 2.17678 20.2374 2.17678 20.5303 2.46967ZM16.5607 7.5L18.5 9.43934L20.9393 7L19 5.06066L16.5607 7.5ZM7 11.75C4.65279 11.75 2.75 13.6528 2.75 16C2.75 18.3472 4.65279 20.25 7 20.25C9.34721 20.25 11.25 18.3472 11.25 16C11.25 13.6528 9.34721 11.75 7 11.75Z" fill="#22282F"/>
</svg>
