<svg width="24" height="24" viewBox="0 0 24 24" fill="none" xmlns="http://www.w3.org/2000/svg">
<path fill-rule="evenodd" clip-rule="evenodd" d="M11.5 1.25005L11.4267 1.25002C11.034 1.24983 10.731 1.24968 10.4635 1.30289C9.3726 1.51988 8.51983 2.37265 8.30284 3.46355C8.24963 3.73105 8.24978 4.03405 8.24998 4.42677L8.25 4.50005V5.00005C8.25 5.41426 8.58579 5.75005 9 5.75005C9.41421 5.75005 9.75 5.41426 9.75 5.00005V4.50005C9.75 3.99944 9.75363 3.85867 9.77402 3.75618C9.87265 3.26032 10.2603 2.8727 10.7561 2.77407C10.8586 2.75368 10.9994 2.75005 11.5 2.75005H12C12.4762 2.75005 12.7958 2.75045 13.0433 2.76734C13.284 2.78376 13.4012 2.81324 13.4784 2.8452C13.7846 2.97207 14.028 3.21541 14.1549 3.52169C14.1868 3.59885 14.2163 3.71606 14.2327 3.95679C14.2496 4.20425 14.25 4.52384 14.25 5.00005V7.58171C13.5379 7.36602 12.7825 7.25005 12 7.25005C11.5858 7.25005 11.25 7.58583 11.25 8.00005C11.25 8.41426 11.5858 8.75005 12 8.75005C15.4518 8.75005 18.25 11.5483 18.25 15C18.25 15.4143 18.5858 15.75 19 15.75C19.4142 15.75 19.75 15.4143 19.75 15C19.75 12.0802 18.1352 9.53741 15.75 8.21609V5.00005V4.97479C15.75 4.53033 15.75 4.15929 15.7292 3.85468C15.7076 3.53758 15.661 3.23806 15.5407 2.94767C15.2616 2.27384 14.7262 1.73849 14.0524 1.45938C13.762 1.3391 13.4625 1.29245 13.1454 1.27082C12.8408 1.25003 12.4697 1.25004 12.0253 1.25005H12H11.5ZM3.53033 2.46972C3.23744 2.17682 2.76256 2.17682 2.46967 2.46972C2.17678 2.76261 2.17678 3.23748 2.46967 3.53038L7.57565 8.63636C5.56654 10.0358 4.25 12.3637 4.25 15C4.25 19.2803 7.71979 22.75 12 22.75C14.6364 22.75 16.9643 21.4335 18.3637 19.4244L21.4697 22.5304C21.7626 22.8233 22.2374 22.8233 22.5303 22.5304C22.8232 22.2375 22.8232 21.7626 22.5303 21.4697L18.7484 17.6878L9.31226 8.25165L3.53033 2.46972ZM5.75 15C5.75 12.7787 6.90865 10.827 8.65728 9.71798L17.2821 18.3428C16.1731 20.0914 14.2213 21.25 12 21.25C8.54822 21.25 5.75 18.4518 5.75 15Z" fill="#22282F"/>
</svg>
