<svg width="24" height="24" viewBox="0 0 24 24" fill="none" xmlns="http://www.w3.org/2000/svg">
<path fill-rule="evenodd" clip-rule="evenodd" d="M12 2.75C12.964 2.75 13.6116 2.75159 14.0946 2.81654C14.5561 2.87858 14.7536 2.9858 14.8839 3.11612C15.0142 3.24643 15.1214 3.44393 15.1835 3.90539C15.2484 4.38843 15.25 5.03599 15.25 6V7.28175C14.4758 7.24999 13.5815 7.24999 12.5489 7.25H12.5H12C11.5858 7.25 11.25 7.58579 11.25 8C11.25 8.41421 11.5858 8.75 12 8.75H12.5C14.1621 8.75 15.3428 8.75123 16.2487 8.85831C17.138 8.96344 17.6644 9.16158 18.0618 9.48772C18.2263 9.62277 18.3772 9.77366 18.5123 9.93822C18.8384 10.3356 19.0366 10.862 19.1417 11.7513C19.2488 12.6572 19.25 13.8379 19.25 15.5V16C19.25 16.4142 19.5858 16.75 20 16.75C20.4142 16.75 20.75 16.4142 20.75 16V15.5V15.4511V15.451C20.75 13.8488 20.75 12.5794 20.6313 11.5753C20.5095 10.5443 20.2536 9.69558 19.6718 8.98663C19.4744 8.74612 19.2539 8.52558 19.0134 8.3282C18.3804 7.80874 17.636 7.54913 16.75 7.41272V6L16.75 5.94801V5.94797C16.75 5.04951 16.7501 4.3003 16.6701 3.70552C16.5857 3.07773 16.4 2.51093 15.9445 2.05546C15.4891 1.59999 14.9223 1.41432 14.2945 1.32991C13.6997 1.24994 12.9505 1.24997 12.052 1.25H12H9.5C8.25736 1.25 7.25 2.25736 7.25 3.5V4C7.25 4.41421 7.58579 4.75 8 4.75C8.41421 4.75 8.75 4.41421 8.75 4V3.5C8.75 3.08579 9.08579 2.75 9.5 2.75H12ZM3.53033 2.46967C3.23744 2.17678 2.76256 2.17678 2.46967 2.46967C2.17678 2.76256 2.17678 3.23744 2.46967 3.53033L6.4485 7.50916C4.587 8.15216 3.25 9.91994 3.25 12V15L3.25 15.0416C3.24999 16.4108 3.24998 17.4957 3.33812 18.3621C3.42841 19.2497 3.61739 19.9907 4.05052 20.639C4.39707 21.1576 4.84239 21.6029 5.36104 21.9495C6.00926 22.3826 6.7503 22.5716 7.63794 22.6619C8.50431 22.75 9.58922 22.75 10.9584 22.75H11H15.1716L15.2818 22.75C16.3298 22.7502 17.0056 22.7504 17.6452 22.568C17.9959 22.4681 18.3339 22.3281 18.6525 22.1508C19.1062 21.8984 19.4968 21.5518 19.9987 21.0594L21.4697 22.5303C21.7626 22.8232 22.2374 22.8232 22.5303 22.5303C22.8232 22.2374 22.8232 21.7626 22.5303 21.4697L20.5303 19.4697L8.53033 7.46967L3.53033 2.46967ZM4.75 12C4.75 10.3053 6.04714 8.91353 7.70275 8.76341L18.9374 19.9981C18.4631 20.4624 18.2076 20.6818 17.9232 20.84C17.7052 20.9613 17.474 21.0571 17.2341 21.1255C16.8207 21.2433 16.3676 21.25 15.1716 21.25H11C9.57993 21.25 8.57133 21.2491 7.78975 21.1696C7.02071 21.0914 6.55507 20.9433 6.1944 20.7023C5.83953 20.4652 5.53484 20.1605 5.29772 19.8056C5.05673 19.4449 4.90865 18.9793 4.83041 18.2102C4.75091 17.4287 4.75 16.4201 4.75 15V12Z" fill="#22282F"/>
</svg>
