<svg width="24" height="24" viewBox="0 0 24 24" fill="none" xmlns="http://www.w3.org/2000/svg">
<path fill-rule="evenodd" clip-rule="evenodd" d="M11.948 1.25H12H12.052C12.9505 1.24997 13.6997 1.24994 14.2945 1.32991C14.9223 1.41432 15.4891 1.59999 15.9445 2.05546C16.4 2.51093 16.5857 3.07773 16.6701 3.70552C16.7501 4.3003 16.75 5.04951 16.75 5.94797V5.94801L16.75 6V7.38564C17.4689 7.49028 18.0875 7.68206 18.639 8.05052C19.1576 8.39707 19.6029 8.84239 19.9495 9.36104C20.3826 10.0093 20.5716 10.7503 20.6619 11.6379C20.75 12.5043 20.75 13.5892 20.75 14.9584V15V15.0416C20.75 16.4108 20.75 17.4957 20.6619 18.3621C20.5716 19.2497 20.3826 19.9907 19.9495 20.639C19.6029 21.1576 19.1576 21.6029 18.639 21.9495C17.9907 22.3826 17.2497 22.5716 16.3621 22.6619C15.4957 22.75 14.4108 22.75 13.0416 22.75H13H11H10.9584C9.5892 22.75 8.5043 22.75 7.63794 22.6619C6.7503 22.5716 6.00926 22.3826 5.36104 21.9495C4.84239 21.6029 4.39707 21.1576 4.05052 20.639C3.61739 19.9907 3.42841 19.2497 3.33812 18.3621C3.24998 17.4957 3.24999 16.4108 3.25 15.0416V15V14.9584C3.24999 13.5892 3.24998 12.5043 3.33812 11.6379C3.42841 10.7503 3.61739 10.0093 4.05052 9.36104C4.39707 8.84239 4.84239 8.39707 5.36104 8.05052C5.91248 7.68206 6.5311 7.49028 7.25 7.38564V6L7.25 5.948C7.24997 5.04952 7.24994 4.3003 7.32991 3.70552C7.41432 3.07773 7.59999 2.51093 8.05546 2.05546C8.51093 1.59999 9.07773 1.41432 9.70552 1.32991C10.3003 1.24994 11.0495 1.24997 11.948 1.25ZM15.25 6V7.27015C14.6102 7.24999 13.8791 7.24999 13.0416 7.25H13H11H10.9584C10.1209 7.24999 9.3898 7.24999 8.75 7.27015V6C8.75 5.03599 8.75159 4.38843 8.81654 3.90539C8.87858 3.44393 8.9858 3.24643 9.11612 3.11612C9.24643 2.9858 9.44393 2.87858 9.90539 2.81654C10.3884 2.75159 11.036 2.75 12 2.75C12.964 2.75 13.6116 2.75159 14.0946 2.81654C14.5561 2.87858 14.7536 2.9858 14.8839 3.11612C15.0142 3.24643 15.1214 3.44393 15.1835 3.90539C15.2484 4.38843 15.25 5.03599 15.25 6ZM7.78975 8.83041C7.02071 8.90865 6.55507 9.05673 6.1944 9.29772C5.83953 9.53484 5.53484 9.83953 5.29772 10.1944C5.05673 10.5551 4.90865 11.0207 4.83041 11.7898C4.75091 12.5713 4.75 13.5799 4.75 15C4.75 16.4201 4.75091 17.4287 4.83041 18.2102C4.90865 18.9793 5.05673 19.4449 5.29772 19.8056C5.53484 20.1605 5.83953 20.4652 6.1944 20.7023C6.55507 20.9433 7.02071 21.0914 7.78975 21.1696C8.57133 21.2491 9.57993 21.25 11 21.25H13C14.4201 21.25 15.4287 21.2491 16.2102 21.1696C16.9793 21.0914 17.4449 20.9433 17.8056 20.7023C18.1605 20.4652 18.4652 20.1605 18.7023 19.8056C18.9433 19.4449 19.0914 18.9793 19.1696 18.2102C19.2491 17.4287 19.25 16.4201 19.25 15C19.25 13.5799 19.2491 12.5713 19.1696 11.7898C19.0914 11.0207 18.9433 10.5551 18.7023 10.1944C18.4652 9.83953 18.1605 9.53484 17.8056 9.29772C17.4449 9.05673 16.9793 8.90865 16.2102 8.83041C15.4287 8.75091 14.4201 8.75 13 8.75H11C9.57993 8.75 8.57133 8.75091 7.78975 8.83041ZM12.75 14C12.75 13.5858 12.4142 13.25 12 13.25C11.5858 13.25 11.25 13.5858 11.25 14V16C11.25 16.4142 11.5858 16.75 12 16.75C12.4142 16.75 12.75 16.4142 12.75 16V14Z" fill="#22282F"/>
</svg>
