<svg width="24" height="24" viewBox="0 0 24 24" fill="none" xmlns="http://www.w3.org/2000/svg">
<path fill-rule="evenodd" clip-rule="evenodd" d="M7.5 2.25H7.47337C6.79704 2.24999 6.25149 2.24999 5.80748 2.28028C5.35092 2.31144 4.94721 2.37711 4.56494 2.53545C3.64608 2.91605 2.91605 3.64608 2.53545 4.56494C2.37711 4.94721 2.31144 5.35092 2.28028 5.80748C2.24999 6.25149 2.24999 6.79704 2.25 7.47337L2.25 7.5V8C2.25 8.41421 2.58579 8.75 3 8.75C3.41421 8.75 3.75 8.41421 3.75 8V7.5C3.75 6.79083 3.75041 6.29651 3.77681 5.90959C3.80275 5.5294 3.85125 5.308 3.92127 5.13896C4.14963 4.58765 4.58765 4.14963 5.13896 3.92127C5.308 3.85125 5.5294 3.80275 5.90959 3.77681C6.29651 3.75041 6.79083 3.75 7.5 3.75H8C8.41421 3.75 8.75 3.41421 8.75 3C8.75 2.58579 8.41421 2.25 8 2.25H7.5ZM16.5 3.75C17.2092 3.75 17.7035 3.75041 18.0904 3.77681C18.4706 3.80275 18.692 3.85125 18.861 3.92127C19.4124 4.14963 19.8504 4.58765 20.0787 5.13896C20.1487 5.308 20.1973 5.5294 20.2232 5.90959C20.2496 6.29651 20.25 6.79083 20.25 7.5V8C20.25 8.41421 20.5858 8.75 21 8.75C21.4142 8.75 21.75 8.41421 21.75 8V7.5V7.47336C21.75 6.79704 21.75 6.25148 21.7197 5.80748C21.6886 5.35092 21.6229 4.94721 21.4645 4.56494C21.0839 3.64608 20.3539 2.91605 19.4351 2.53545C19.0528 2.37711 18.6491 2.31144 18.1925 2.28028C17.7485 2.24999 17.203 2.24999 16.5266 2.25H16.5H16C15.5858 2.25 15.25 2.58579 15.25 3C15.25 3.41421 15.5858 3.75 16 3.75H16.5ZM3.75 16C3.75 15.5858 3.41421 15.25 3 15.25C2.58579 15.25 2.25 15.5858 2.25 16V16.5L2.25 16.5266C2.24999 17.203 2.24999 17.7485 2.28028 18.1925C2.31144 18.6491 2.37711 19.0528 2.53545 19.4351C2.91605 20.3539 3.64608 21.0839 4.56494 21.4645C4.94721 21.6229 5.35092 21.6886 5.80748 21.7197C6.25148 21.75 6.79704 21.75 7.47336 21.75H7.5H8C8.41421 21.75 8.75 21.4142 8.75 21C8.75 20.5858 8.41421 20.25 8 20.25H7.5C6.79083 20.25 6.29651 20.2496 5.90959 20.2232C5.5294 20.1973 5.308 20.1487 5.13896 20.0787C4.58765 19.8504 4.14963 19.4124 3.92127 18.861C3.85125 18.692 3.80275 18.4706 3.77681 18.0904C3.75041 17.7035 3.75 17.2092 3.75 16.5V16ZM21.75 16C21.75 15.5858 21.4142 15.25 21 15.25C20.5858 15.25 20.25 15.5858 20.25 16V16.5C20.25 17.2092 20.2496 17.7035 20.2232 18.0904C20.1973 18.4706 20.1487 18.692 20.0787 18.861C19.8504 19.4124 19.4124 19.8504 18.861 20.0787C18.692 20.1487 18.4706 20.1973 18.0904 20.2232C17.7035 20.2496 17.2092 20.25 16.5 20.25H16C15.5858 20.25 15.25 20.5858 15.25 21C15.25 21.4142 15.5858 21.75 16 21.75H16.5H16.5266C17.203 21.75 17.7485 21.75 18.1925 21.7197C18.6491 21.6886 19.0528 21.6229 19.4351 21.4645C20.3539 21.0839 21.0839 20.3539 21.4645 19.4351C21.6229 19.0528 21.6886 18.6491 21.7197 18.1925C21.75 17.7485 21.75 17.203 21.75 16.5266V16.5V16ZM2 11.25C1.58579 11.25 1.25 11.5858 1.25 12C1.25 12.4142 1.58579 12.75 2 12.75H22C22.4142 12.75 22.75 12.4142 22.75 12C22.75 11.5858 22.4142 11.25 22 11.25H2Z" fill="#22282F"/>
</svg>
