<svg width="24" height="24" viewBox="0 0 24 24" fill="none" xmlns="http://www.w3.org/2000/svg">
<path fill-rule="evenodd" clip-rule="evenodd" d="M4.75 6C4.75 5.8773 4.81363 5.67061 5.12623 5.39346C5.43796 5.11708 5.93183 4.83392 6.60649 4.58093C7.95026 4.07701 9.85699 3.75 12 3.75C14.143 3.75 16.0497 4.07701 17.3935 4.58093C18.0682 4.83392 18.562 5.11708 18.8738 5.39346C19.1864 5.67061 19.25 5.8773 19.25 6C19.25 6.1227 19.1864 6.32939 18.8738 6.60654C18.562 6.88292 18.0682 7.16608 17.3935 7.41907C16.0497 7.92299 14.143 8.25 12 8.25C9.85699 8.25 7.95026 7.92299 6.60649 7.41907C5.93183 7.16608 5.43796 6.88292 5.12623 6.60654C4.81363 6.32939 4.75 6.1227 4.75 6ZM19.25 8.18499C18.859 8.42795 18.4086 8.64041 17.9202 8.82357C16.3685 9.40544 14.2753 9.75 12 9.75C9.72474 9.75 7.63146 9.40544 6.0798 8.82357C5.59137 8.64041 5.14101 8.42795 4.75 8.18499V12C4.75 12.1227 4.81363 12.3294 5.12623 12.6065C5.43796 12.8829 5.93183 13.1661 6.60649 13.4191C7.95026 13.923 9.85699 14.25 12 14.25C14.143 14.25 16.0497 13.923 17.3935 13.4191C18.0682 13.1661 18.562 12.8829 18.8738 12.6065C19.1864 12.3294 19.25 12.1227 19.25 12V8.18499ZM20.75 12V6C20.75 5.29428 20.3659 4.71175 19.8689 4.27107C19.371 3.82962 18.6933 3.46633 17.9202 3.17643C16.3685 2.59456 14.2753 2.25 12 2.25C9.72474 2.25 7.63146 2.59456 6.0798 3.17643C5.30674 3.46633 4.62904 3.82962 4.13112 4.27107C3.63408 4.71175 3.25 5.29428 3.25 6V12V18C3.25 18.7057 3.63408 19.2883 4.13112 19.7289C4.62904 20.1704 5.30674 20.5337 6.0798 20.8236C7.63146 21.4054 9.72474 21.75 12 21.75C14.2753 21.75 16.3685 21.4054 17.9202 20.8236C18.6933 20.5337 19.371 20.1704 19.8689 19.7289C20.3659 19.2883 20.75 18.7057 20.75 18V12ZM19.25 14.185C18.859 14.4279 18.4086 14.6404 17.9202 14.8236C16.3685 15.4054 14.2753 15.75 12 15.75C9.72474 15.75 7.63146 15.4054 6.0798 14.8236C5.59137 14.6404 5.14101 14.4279 4.75 14.185V18C4.75 18.1227 4.81363 18.3294 5.12623 18.6065C5.43796 18.8829 5.93183 19.1661 6.60649 19.4191C7.95026 19.923 9.85699 20.25 12 20.25C14.143 20.25 16.0497 19.923 17.3935 19.4191C18.0682 19.1661 18.562 18.8829 18.8738 18.6065C19.1864 18.3294 19.25 18.1227 19.25 18V14.185Z" fill="#22282F"/>
</svg>
