<svg width="24" height="24" viewBox="0 0 24 24" fill="none" xmlns="http://www.w3.org/2000/svg">
<path fill-rule="evenodd" clip-rule="evenodd" d="M6 2.25H5.97475H5.97474C5.53028 2.24999 5.15925 2.24999 4.85464 2.27077C4.53754 2.29241 4.23801 2.33905 3.94762 2.45933C3.27379 2.73844 2.73844 3.27379 2.45933 3.94762C2.33905 4.23801 2.29241 4.53754 2.27077 4.85464C2.24999 5.15925 2.24999 5.53029 2.25 5.97475V6V6.02525C2.24999 6.46971 2.24999 6.84075 2.27077 7.14537C2.29241 7.46247 2.33905 7.76199 2.45933 8.05238C2.60923 8.41428 2.83305 8.73623 3.11254 9C2.83305 9.26377 2.60923 9.58572 2.45933 9.94762C2.33905 10.238 2.29241 10.5375 2.27077 10.8546C2.24999 11.1592 2.24999 11.5303 2.25 11.9747V12V12.0253C2.24999 12.4697 2.24999 12.8408 2.27077 13.1454C2.29241 13.4625 2.33905 13.762 2.45933 14.0524C2.60924 14.4143 2.83305 14.7362 3.11254 15C2.83305 15.2638 2.60924 15.5857 2.45933 15.9476C2.33905 16.238 2.29241 16.5375 2.27077 16.8546C2.24999 17.1592 2.24999 17.5303 2.25 17.9748V18V18.0253C2.24999 18.4697 2.24999 18.8408 2.27077 19.1454C2.29241 19.4625 2.33905 19.762 2.45933 20.0524C2.73844 20.7262 3.27379 21.2616 3.94762 21.5407C4.23801 21.661 4.53754 21.7076 4.85464 21.7292C5.15923 21.75 5.53024 21.75 5.97466 21.75H5.97474H6H18H18.0253H18.0253C18.4698 21.75 18.8408 21.75 19.1454 21.7292C19.4625 21.7076 19.762 21.661 20.0524 21.5407C20.7262 21.2616 21.2616 20.7262 21.5407 20.0524C21.661 19.762 21.7076 19.4625 21.7292 19.1454C21.75 18.8408 21.75 18.4697 21.75 18.0253V18V17.9747C21.75 17.5303 21.75 17.1592 21.7292 16.8546C21.7076 16.5375 21.661 16.238 21.5407 15.9476C21.3908 15.5857 21.1669 15.2638 20.8875 15C21.1669 14.7362 21.3908 14.4143 21.5407 14.0524C21.661 13.762 21.7076 13.4625 21.7292 13.1454C21.75 12.8408 21.75 12.4697 21.75 12.0253V12V11.9747C21.75 11.5303 21.75 11.1592 21.7292 10.8546C21.7076 10.5375 21.661 10.238 21.5407 9.94762C21.3908 9.58572 21.1669 9.26377 20.8875 9C21.1669 8.73624 21.3908 8.41428 21.5407 8.05238C21.661 7.76199 21.7076 7.46247 21.7292 7.14537C21.75 6.84075 21.75 6.46972 21.75 6.02526V6V5.97474C21.75 5.53028 21.75 5.15925 21.7292 4.85464C21.7076 4.53754 21.661 4.23801 21.5407 3.94762C21.2616 3.27379 20.7262 2.73844 20.0524 2.45933C19.762 2.33905 19.4625 2.29241 19.1454 2.27077C18.8408 2.24999 18.4697 2.24999 18.0253 2.25H18.0253H18H6ZM18 14.25H6C5.5238 14.25 5.20421 14.2496 4.95674 14.2327C4.71602 14.2163 4.5988 14.1868 4.52165 14.1549C4.21536 14.028 3.97202 13.7846 3.84515 13.4784C3.81319 13.4012 3.78372 13.284 3.76729 13.0433C3.75041 12.7958 3.75 12.4762 3.75 12C3.75 11.5238 3.75041 11.2042 3.76729 10.9567C3.78372 10.716 3.81319 10.5988 3.84515 10.5216C3.97202 10.2154 4.21536 9.97202 4.52165 9.84515C4.5988 9.81319 4.71602 9.78372 4.95674 9.76729C5.20421 9.75041 5.5238 9.75 6 9.75H18C18.4762 9.75 18.7958 9.75041 19.0433 9.76729C19.284 9.78372 19.4012 9.81319 19.4784 9.84515C19.7846 9.97202 20.028 10.2154 20.1549 10.5216C20.1868 10.5988 20.2163 10.716 20.2327 10.9567C20.2496 11.2042 20.25 11.5238 20.25 12C20.25 12.4762 20.2496 12.7958 20.2327 13.0433C20.2163 13.284 20.1868 13.4012 20.1549 13.4784C20.028 13.7846 19.7846 14.028 19.4784 14.1549C19.4012 14.1868 19.284 14.2163 19.0433 14.2327C18.7958 14.2496 18.4762 14.25 18 14.25ZM6 15.75H18C18.4762 15.75 18.7958 15.7504 19.0433 15.7673C19.284 15.7837 19.4012 15.8132 19.4784 15.8452C19.7846 15.972 20.028 16.2154 20.1549 16.5216C20.1868 16.5988 20.2163 16.716 20.2327 16.9567C20.2496 17.2042 20.25 17.5238 20.25 18C20.25 18.4762 20.2496 18.7958 20.2327 19.0433C20.2163 19.284 20.1868 19.4012 20.1549 19.4784C20.028 19.7846 19.7846 20.028 19.4784 20.1549C19.4012 20.1868 19.284 20.2163 19.0433 20.2327C18.7958 20.2496 18.4762 20.25 18 20.25H6C5.5238 20.25 5.20421 20.2496 4.95674 20.2327C4.71602 20.2163 4.5988 20.1868 4.52165 20.1549C4.21536 20.028 3.97202 19.7846 3.84515 19.4784C3.81319 19.4012 3.78372 19.284 3.76729 19.0433C3.75041 18.7958 3.75 18.4762 3.75 18C3.75 17.5238 3.75041 17.2042 3.76729 16.9567C3.78372 16.716 3.81319 16.5988 3.84515 16.5216C3.97202 16.2154 4.21536 15.972 4.52165 15.8452C4.5988 15.8132 4.71602 15.7837 4.95674 15.7673C5.20421 15.7504 5.5238 15.75 6 15.75ZM6 8.25H18C18.4762 8.25 18.7958 8.24959 19.0433 8.23271C19.284 8.21629 19.4012 8.18681 19.4784 8.15485C19.7846 8.02798 20.028 7.78464 20.1549 7.47835C20.1868 7.4012 20.2163 7.28399 20.2327 7.04326C20.2496 6.79579 20.25 6.4762 20.25 6C20.25 5.5238 20.2496 5.20421 20.2327 4.95674C20.2163 4.71602 20.1868 4.5988 20.1549 4.52165C20.028 4.21536 19.7846 3.97202 19.4784 3.84515C19.4012 3.81319 19.284 3.78372 19.0433 3.76729C18.7958 3.75041 18.4762 3.75 18 3.75H6C5.5238 3.75 5.20421 3.75041 4.95674 3.76729C4.71602 3.78372 4.5988 3.81319 4.52165 3.84515C4.21536 3.97202 3.97202 4.21536 3.84515 4.52165C3.81319 4.5988 3.78372 4.71602 3.76729 4.95674C3.75041 5.20421 3.75 5.5238 3.75 6C3.75 6.4762 3.75041 6.79579 3.76729 7.04326C3.78372 7.28399 3.81319 7.4012 3.84515 7.47835C3.97202 7.78464 4.21536 8.02798 4.52165 8.15485C4.5988 8.18681 4.71602 8.21629 4.95674 8.23271C5.20421 8.24959 5.5238 8.25 6 8.25ZM17 7C17.5523 7 18 6.55228 18 6C18 5.44772 17.5523 5 17 5C16.4477 5 16 5.44772 16 6C16 6.55228 16.4477 7 17 7ZM18 12C18 12.5523 17.5523 13 17 13C16.4477 13 16 12.5523 16 12C16 11.4477 16.4477 11 17 11C17.5523 11 18 11.4477 18 12ZM17 19C17.5523 19 18 18.5523 18 18C18 17.4477 17.5523 17 17 17C16.4477 17 16 17.4477 16 18C16 18.5523 16.4477 19 17 19Z" fill="#22282F"/>
</svg>
