<svg width="24" height="24" viewBox="0 0 24 24" fill="none" xmlns="http://www.w3.org/2000/svg">
<path fill-rule="evenodd" clip-rule="evenodd" d="M1.46967 1.46967C1.76256 1.17678 2.23744 1.17678 2.53033 1.46967L5.25759 4.19692L18.6842 17.6235L21.5303 20.4697C21.8232 20.7626 21.8232 21.2374 21.5303 21.5303C21.2374 21.8232 20.7626 21.8232 20.4697 21.5303L18.0454 19.106L15.5324 20.6766C15.5 20.6969 15.4681 20.7169 15.4365 20.7366C14.5479 21.2922 13.977 21.6492 13.3636 21.833C12.4741 22.0996 11.5259 22.0996 10.6364 21.833C10.023 21.6492 9.45209 21.2922 8.56353 20.7366C8.53195 20.7169 8.49997 20.6969 8.46757 20.6766L8.37117 20.6164C6.93109 19.7165 6.09294 19.1927 5.43569 18.5148C4.4814 17.5304 3.8053 16.3106 3.47637 14.9797C3.24982 14.063 3.24989 13.0747 3.25 11.3765C3.25 11.339 3.25 11.3011 3.25 11.2628L3.25 5.77668C3.25 5.36993 3.3816 4.98544 3.61113 4.67179L1.46967 2.53033C1.17678 2.23744 1.17678 1.76256 1.46967 1.46967ZM4.75 5.81066L4.75 11.2628C4.75 13.1075 4.75519 13.9021 4.93256 14.6198C5.19782 15.6931 5.74307 16.6769 6.51265 17.4707C7.02724 18.0014 7.69827 18.427 9.26257 19.4046C10.2802 20.0407 10.6713 20.2776 11.067 20.3962C11.6756 20.5786 12.3244 20.5786 12.933 20.3962C13.3287 20.2776 13.7198 20.0407 14.7374 19.4046L16.9568 18.0175L4.75 5.81066ZM12 3.022C11.4422 3.022 10.8949 3.21541 9.45438 3.7556L8.26334 4.20223C7.8755 4.34767 7.44319 4.15117 7.29775 3.76333C7.15231 3.37549 7.34882 2.94318 7.73666 2.79774L8.92769 2.3511C8.9723 2.33438 9.01634 2.31785 9.05986 2.30152C10.3215 1.82802 11.1369 1.522 12 1.522C12.8631 1.522 13.6785 1.82802 14.9401 2.30152C14.9837 2.31785 15.0277 2.33438 15.0723 2.3511L15.1137 2.36663C16.3341 2.82425 17.3082 3.18954 18.0623 3.57237C18.8417 3.96804 19.4516 4.41343 19.9041 5.0664L19.2877 5.4936L19.9041 5.0664C20.3567 5.71937 20.5595 6.44684 20.6563 7.31553C20.75 8.15604 20.75 9.19645 20.75 10.4998L20.75 10.544L20.75 15C20.75 15.4142 20.4142 15.75 20 15.75C19.5858 15.75 19.25 15.4142 19.25 15L19.25 10.544C19.25 9.18635 19.2489 8.2295 19.1656 7.48168C19.0843 6.75256 18.931 6.29568 18.6713 5.9208C18.4115 5.54592 18.0375 5.24199 17.3833 4.90989C16.7124 4.56928 15.8168 4.2323 14.5456 3.7556C13.1051 3.21541 12.5578 3.022 12 3.022Z" fill="#22282F"/>
</svg>
