<svg width="24" height="24" viewBox="0 0 24 24" fill="none" xmlns="http://www.w3.org/2000/svg">
<path fill-rule="evenodd" clip-rule="evenodd" d="M9.45439 3.75561C10.8949 3.21541 11.4422 3.022 12 3.022C12.5579 3.022 13.1051 3.21541 14.5456 3.75561L15.4144 4.08139C17.1401 4.72851 17.7898 4.98765 18.2436 5.42062C18.5626 5.72506 18.8164 6.09125 18.9894 6.4969C19.2355 7.07381 19.25 7.77314 19.25 9.61616L19.25 10.9674C19.25 12.5497 19.2471 13.2453 19.1296 13.8816C18.8433 15.4334 18.0585 16.8494 16.8943 17.9147C16.417 18.3515 15.8287 18.7226 14.4869 19.5613C13.7213 20.0397 13.4271 20.2194 13.1364 20.3278C12.4035 20.6014 11.5965 20.6014 10.8636 20.3278C10.573 20.2194 10.2787 20.0397 9.51316 19.5613C8.17133 18.7226 7.58306 18.3515 7.1057 17.9147C5.94153 16.8494 5.15671 15.4334 4.87037 13.8816C4.75296 13.2453 4.75001 12.5497 4.75001 10.9674L4.75001 9.61616C4.75001 7.77314 4.76452 7.07381 5.01059 6.4969C5.18361 6.09125 5.43739 5.72506 5.75646 5.42062C6.21023 4.98765 6.85994 4.72851 8.58562 4.08139L9.45439 3.75561ZM9.05988 2.30152L9.05988 2.30152L8.92771 2.35111L8.05894 2.6769L7.89517 2.73827C6.39205 3.30143 5.42479 3.66381 4.72097 4.33537C4.25464 4.78032 3.88374 5.31552 3.63086 5.9084C3.24919 6.8032 3.2495 7.83611 3.24998 9.44126L3.25001 9.61616L3.25001 10.9674L3.25001 11.0548C3.24995 12.5255 3.24992 13.366 3.39527 14.1538C3.74086 16.0266 4.68806 17.7356 6.09308 19.0213C6.68403 19.562 7.39683 20.0075 8.64395 20.7869L8.71817 20.8333L8.79041 20.8784L8.79042 20.8784C9.45923 21.2966 9.88856 21.565 10.3392 21.7332C11.4103 22.1329 12.5897 22.1329 13.6609 21.7332C14.1115 21.565 14.5408 21.2966 15.2096 20.8784L15.2819 20.8333L15.3561 20.7869L15.3561 20.7869C16.6032 20.0075 17.316 19.562 17.9069 19.0213C19.312 17.7356 20.2592 16.0266 20.6047 14.1538C20.7501 13.3661 20.7501 12.5255 20.75 11.055L20.75 11.0548L20.75 10.9674L20.75 9.61616L20.75 9.44126C20.7505 7.83611 20.7508 6.8032 20.3692 5.9084C20.1163 5.31552 19.7454 4.78032 19.2791 4.33537C18.5752 3.66381 17.608 3.30143 16.1049 2.73827L15.9411 2.6769L15.0723 2.35111L14.9401 2.30152C13.6785 1.82802 12.8631 1.522 12 1.522C11.137 1.522 10.3215 1.82802 9.05988 2.30152ZM16.0303 10.0304C16.3232 9.73747 16.3232 9.26259 16.0303 8.9697C15.7374 8.67681 15.2626 8.67681 14.9697 8.9697L11 12.9394L9.53033 11.4697C9.23744 11.1768 8.76256 11.1768 8.46967 11.4697C8.17678 11.7626 8.17678 12.2375 8.46967 12.5304L10.4697 14.5304C10.7626 14.8233 11.2374 14.8233 11.5303 14.5304L16.0303 10.0304Z" fill="#22282F"/>
</svg>
