<svg width="24" height="24" viewBox="0 0 24 24" fill="none" xmlns="http://www.w3.org/2000/svg">
<path fill-rule="evenodd" clip-rule="evenodd" d="M12 3.022C11.4422 3.022 10.8949 3.21541 9.45439 3.75561L8.58562 4.08139C6.85994 4.72851 6.21023 4.98765 5.75646 5.42062C5.43739 5.72506 5.18361 6.09125 5.01059 6.4969C4.76452 7.07381 4.75001 7.77314 4.75001 9.61616L4.75001 10.9674C4.75001 12.5497 4.75296 13.2453 4.87037 13.8816C5.15671 15.4334 5.94153 16.8494 7.1057 17.9147C7.58306 18.3515 8.17133 18.7226 9.51316 19.5613C10.2787 20.0397 10.573 20.2194 10.8636 20.3278C11.5965 20.6014 12.4035 20.6014 13.1364 20.3278C13.4271 20.2194 13.7213 20.0397 14.4869 19.5613C15.8287 18.7226 16.417 18.3515 16.8943 17.9147C18.0585 16.8494 18.8433 15.4334 19.1296 13.8816C19.2471 13.2453 19.25 12.5497 19.25 10.9674L19.25 9.61616C19.25 7.77314 19.2355 7.07381 18.9894 6.4969C18.8164 6.09125 18.5626 5.72506 18.2436 5.42062C17.7898 4.98765 17.1401 4.72851 15.4144 4.08139L14.5456 3.75561C13.1051 3.21541 12.5579 3.022 12 3.022ZM9.05988 2.30152C10.3215 1.82802 11.137 1.522 12 1.522C12.8631 1.522 13.6785 1.82802 14.9401 2.30152C14.9837 2.31786 15.0277 2.33439 15.0723 2.35111L15.9411 2.6769C15.9964 2.69763 16.051 2.71808 16.1049 2.73827C17.608 3.30143 18.5752 3.66381 19.2791 4.33537C19.7454 4.78032 20.1163 5.31552 20.3692 5.9084C20.7508 6.8032 20.7505 7.83611 20.75 9.44126C20.75 9.49881 20.75 9.55711 20.75 9.61616L20.75 10.9674L20.75 11.0548C20.7501 12.5255 20.7501 13.366 20.6047 14.1538C20.2592 16.0266 19.312 17.7356 17.9069 19.0213C17.316 19.562 16.6032 20.0075 15.3561 20.7869L15.2819 20.8333C15.2575 20.8485 15.2334 20.8636 15.2096 20.8784C14.5408 21.2966 14.1115 21.565 13.6609 21.7332C12.5897 22.1329 11.4103 22.1329 10.3392 21.7332C9.88856 21.565 9.45922 21.2966 8.79041 20.8784C8.76663 20.8636 8.74256 20.8485 8.71817 20.8333L8.64395 20.7869C7.39683 20.0075 6.68403 19.562 6.09308 19.0213C4.68806 17.7356 3.74086 16.0266 3.39527 14.1538C3.24992 13.366 3.24995 12.5255 3.25001 11.0548L3.25001 10.9674L3.25001 9.61616C3.25001 9.55711 3.24999 9.49882 3.24998 9.44126C3.2495 7.83611 3.24919 6.8032 3.63086 5.9084C3.88374 5.31552 4.25464 4.78032 4.72097 4.33537C5.42479 3.66381 6.39205 3.30143 7.89517 2.73827C7.94906 2.71808 8.00365 2.69763 8.05894 2.6769L8.92771 2.35111C8.97231 2.33439 9.01636 2.31786 9.05988 2.30152Z" fill="#22282F"/>
</svg>
