<svg width="24" height="24" viewBox="0 0 24 24" fill="none" xmlns="http://www.w3.org/2000/svg">
<path fill-rule="evenodd" clip-rule="evenodd" d="M5.52691 2.24992L5.46154 2.2499C5.07852 2.24969 4.7763 2.24953 4.47845 2.31606C3.39448 2.55819 2.48427 3.56152 2.34855 4.66388C2.31132 4.96629 2.33679 5.22615 2.36848 5.54939L2.37306 5.59617C2.6306 8.23584 3.29005 10.6115 4.32976 12.6808C5.87438 15.7549 8.24492 18.1255 11.3191 19.6701C13.3883 20.7098 15.764 21.3692 18.4037 21.6268L18.4505 21.6314L18.4505 21.6314C18.7737 21.663 19.0336 21.6885 19.336 21.6513C20.4383 21.5156 21.4417 20.6054 21.6838 19.5214C21.7503 19.2235 21.7501 18.9213 21.7499 18.5383L21.7499 18.4729L21.7499 18.4127C21.7501 18.0806 21.7502 17.8223 21.7081 17.5836C21.5494 16.6841 20.9545 15.9222 20.1204 15.5501C19.899 15.4513 19.6484 15.3888 19.3261 15.3084L19.3261 15.3084L19.2677 15.2938L17.6132 14.8802L17.5771 14.8711L17.577 14.8711C17.0168 14.731 16.5413 14.6121 16.1384 14.555C15.7095 14.4941 15.2998 14.4923 14.8792 14.6292C14.4587 14.7661 14.1285 15.0088 13.8177 15.3105C13.5257 15.5939 13.2113 15.97 12.8409 16.4131L12.817 16.4417L11.4691 18.0539C9.10973 16.7506 7.24925 14.8901 5.94594 12.5307L7.55817 11.1829L7.58678 11.1589C8.02987 10.7885 8.40593 10.4741 8.68934 10.1822C8.99105 9.8713 9.23371 9.54113 9.37061 9.12061C9.50752 8.70009 9.50576 8.29034 9.44488 7.86145C9.3877 7.45858 9.26881 6.98307 9.12872 6.4228L9.12872 6.42279L9.11967 6.3866L8.70605 4.73213L8.69147 4.67372L8.69146 4.6737C8.61105 4.35145 8.54851 4.10081 8.44975 3.87946C8.07763 3.04539 7.31569 2.45049 6.41628 2.29177C6.17758 2.24965 5.91925 2.24976 5.58711 2.24991L5.52691 2.24992ZM18.5493 20.1339C16.4398 19.9281 14.538 19.4519 12.8576 18.7317L13.9678 17.4038C14.3686 16.9244 14.6332 16.6093 14.8624 16.3869C15.079 16.1766 15.2175 16.0966 15.3436 16.0555C15.4696 16.0145 15.6287 15.9977 15.9276 16.0401C16.2439 16.085 16.6432 16.1838 17.2494 16.3354L18.9039 16.749C19.312 16.851 19.4239 16.8819 19.5092 16.9199C19.8883 17.0891 20.1588 17.4354 20.2309 17.8442C20.2471 17.9362 20.2499 18.0523 20.2499 18.4729C20.2499 18.9514 20.2458 19.0783 20.2199 19.1944C20.116 19.6593 19.6254 20.1043 19.1527 20.1625C19.0315 20.1774 18.9358 20.1716 18.5493 20.1339ZM6.59606 10.032L5.2681 11.1423C4.54795 9.46182 4.07179 7.56005 3.86597 5.45052C3.82826 5.06404 3.8224 4.96831 3.83731 4.84718C3.89552 4.3744 4.34055 3.88383 4.80545 3.77999C4.92154 3.75405 5.04848 3.74992 5.52691 3.74992C5.94754 3.74992 6.06362 3.75271 6.1556 3.76894C6.56442 3.84109 6.91076 4.1115 7.07991 4.49062C7.11796 4.57592 7.14882 4.68785 7.25084 5.09593L7.66446 6.7504C7.81601 7.35662 7.91488 7.75599 7.95977 8.07223C8.00219 8.3711 7.98534 8.5302 7.9443 8.65625C7.90326 8.7823 7.82321 8.92082 7.61297 9.13743C7.39051 9.36664 7.07547 9.63125 6.59606 10.032ZM19.5302 2.4696C19.2373 2.1767 18.7625 2.1767 18.4696 2.46959C18.1767 2.76248 18.1767 3.23735 18.4696 3.53025L20.1892 5.24994H13.9999C13.5856 5.24994 13.2499 5.58573 13.2499 5.99994C13.2499 6.41416 13.5856 6.74994 13.9999 6.74994H20.1892L18.4696 8.46957C18.1767 8.76246 18.1767 9.23734 18.4696 9.53023C18.7625 9.82312 19.2373 9.82312 19.5302 9.53023L22.5302 6.53027C22.8231 6.23738 22.8231 5.76251 22.5302 5.46962L19.5302 2.4696Z" fill="#22282F"/>
</svg>
