<svg width="24" height="24" viewBox="0 0 24 24" fill="none" xmlns="http://www.w3.org/2000/svg">
<path fill-rule="evenodd" clip-rule="evenodd" d="M5.52691 2.25005L5.46154 2.25002C5.07852 2.24982 4.7763 2.24965 4.47845 2.31618C3.39448 2.55831 2.48427 3.56164 2.34855 4.66401C2.31132 4.96642 2.33679 5.22628 2.36848 5.54952L2.37306 5.5963C2.6306 8.23596 3.29005 10.6116 4.32976 12.6809C5.87438 15.755 8.24492 18.1256 11.3191 19.6702C13.3883 20.7099 15.764 21.3694 18.4037 21.6269L18.4505 21.6315L18.4505 21.6315C18.7737 21.6632 19.0336 21.6886 19.336 21.6514C20.4383 21.5157 21.4417 20.6055 21.6838 19.5215C21.7503 19.2237 21.7501 18.9214 21.7499 18.5384L21.7499 18.4731L21.7499 18.4129C21.7501 18.0807 21.7502 17.8224 21.7081 17.5837C21.5494 16.6843 20.9545 15.9223 20.1204 15.5502C19.899 15.4515 19.6484 15.3889 19.3261 15.3085L19.3261 15.3085L19.2677 15.2939L17.6132 14.8803L17.5771 14.8713L17.577 14.8712C17.0168 14.7312 16.5413 14.6123 16.1384 14.5551C15.7095 14.4942 15.2998 14.4924 14.8792 14.6294C14.4587 14.7663 14.1285 15.0089 13.8177 15.3106C13.5257 15.594 13.2113 15.9701 12.8409 16.4132L12.817 16.4418L11.4691 18.054C9.10973 16.7507 7.24925 14.8902 5.94594 12.5308L7.55817 11.183L7.58678 11.1591C8.02987 10.7886 8.40593 10.4743 8.68934 10.1823C8.99105 9.87142 9.23371 9.54125 9.37061 9.12073C9.50752 8.70021 9.50576 8.29046 9.44488 7.86157C9.3877 7.4587 9.26881 6.98319 9.12872 6.42293L9.12872 6.42291L9.11967 6.38672L8.70605 4.73225L8.69147 4.67384L8.69146 4.67383C8.61105 4.35157 8.54851 4.10093 8.44975 3.87958C8.07763 3.04551 7.31569 2.45061 6.41628 2.29189C6.17758 2.24977 5.91925 2.24988 5.58711 2.25003L5.52691 2.25005ZM18.5493 20.134C16.4398 19.9282 14.538 19.452 12.8576 18.7319L13.9678 17.4039C14.3686 16.9245 14.6332 16.6095 14.8624 16.387C15.079 16.1768 15.2175 16.0967 15.3436 16.0557C15.4696 16.0146 15.6287 15.9978 15.9276 16.0402C16.2439 16.0851 16.6432 16.184 17.2494 16.3355L18.9039 16.7491C19.312 16.8511 19.4239 16.882 19.5092 16.9201C19.8883 17.0892 20.1588 17.4355 20.2309 17.8444C20.2471 17.9363 20.2499 18.0524 20.2499 18.4731C20.2499 18.9515 20.2458 19.0784 20.2199 19.1945C20.116 19.6594 19.6254 20.1044 19.1527 20.1627C19.0315 20.1776 18.9358 20.1717 18.5493 20.134ZM6.59606 10.0322L5.2681 11.1424C4.54795 9.46194 4.07179 7.56018 3.86597 5.45064C3.82826 5.06417 3.8224 4.96843 3.83731 4.8473C3.89552 4.37452 4.34055 3.88395 4.80545 3.78011C4.92154 3.75418 5.04848 3.75005 5.52691 3.75005C5.94754 3.75005 6.06362 3.75283 6.1556 3.76907C6.56442 3.84121 6.91076 4.11162 7.07991 4.49074C7.11796 4.57604 7.14882 4.68797 7.25084 5.09605L7.66446 6.75052C7.81601 7.35674 7.91488 7.75611 7.95977 8.07235C8.00219 8.37122 7.98534 8.53032 7.9443 8.65637C7.90326 8.78242 7.82321 8.92094 7.61297 9.13755C7.39051 9.36676 7.07547 9.63137 6.59606 10.0322ZM20.4695 2.46976C20.7624 2.17687 21.2373 2.17687 21.5302 2.46976C21.8231 2.76265 21.8231 3.23753 21.5302 3.53042L16.8105 8.25009H19.7999C20.2141 8.25009 20.5499 8.58588 20.5499 9.00009C20.5499 9.41431 20.2141 9.75009 19.7999 9.75009H14.9999C14.5856 9.75009 14.2499 9.41431 14.2499 9.00009V4.20009C14.2499 3.78588 14.5856 3.45009 14.9999 3.45009C15.4141 3.45009 15.7499 3.78588 15.7499 4.20009V7.18943L20.4695 2.46976Z" fill="#22282F"/>
</svg>
