<svg width="24" height="24" viewBox="0 0 24 24" fill="none" xmlns="http://www.w3.org/2000/svg">
<path fill-rule="evenodd" clip-rule="evenodd" d="M5.52699 2.25L5.46162 2.24998C5.0786 2.24977 4.77638 2.24961 4.47853 2.31614C3.39456 2.55826 2.48435 3.5616 2.34863 4.66396C2.3114 4.96637 2.33687 5.22623 2.36856 5.54947L2.37314 5.59625C2.63068 8.23591 3.29013 10.6116 4.32984 12.6809C4.63413 13.2865 4.97081 13.8654 5.33919 14.4167C5.56933 14.7611 6.03508 14.8537 6.37948 14.6236C6.72388 14.3934 6.8165 13.9277 6.58636 13.5833C6.36009 13.2447 6.14654 12.8938 5.94602 12.5308L7.55825 11.1829L7.58686 11.159C8.02995 10.7886 8.40601 10.4742 8.68942 10.1822C8.99113 9.87138 9.23379 9.5412 9.37069 9.12069C9.5076 8.70017 9.50584 8.29042 9.44496 7.86152C9.38778 7.45866 9.26889 6.98315 9.1288 6.42288L9.1288 6.42287L9.11975 6.38667L8.70613 4.7322L8.69155 4.67379L8.69155 4.67378C8.61113 4.35153 8.54859 4.10088 8.44983 3.87953C8.07771 3.04547 7.31578 2.45057 6.41636 2.29185C6.17766 2.24972 5.91933 2.24984 5.58719 2.24998L5.52699 2.25ZM6.59614 10.0321L5.26818 11.1423C4.54803 9.46189 4.07187 7.56013 3.86605 5.45059C3.82834 5.06412 3.82248 4.96839 3.83739 4.84725C3.8956 4.37448 4.34063 3.88391 4.80553 3.78006C4.92162 3.75413 5.04856 3.75 5.52699 3.75C5.94762 3.75 6.0637 3.75279 6.15568 3.76902C6.56451 3.84117 6.91084 4.11158 7.07999 4.4907C7.11804 4.576 7.1489 4.68793 7.25092 5.096L7.66454 6.75048C7.81609 7.35669 7.91496 7.75606 7.95985 8.07231C8.00227 8.37118 7.98542 8.53027 7.94438 8.65633C7.90334 8.78238 7.8233 8.9209 7.61305 9.13751C7.39059 9.36671 7.07555 9.63133 6.59614 10.0321ZM17.6133 14.8802L17.5772 14.8712L17.5771 14.8712C17.0169 14.7311 16.5413 14.6122 16.1385 14.555C15.7096 14.4942 15.2998 14.4924 14.8793 14.6293C14.4588 14.7662 14.1286 15.0089 13.8178 15.3106C13.5258 15.594 13.2114 15.97 12.841 16.4131L12.8171 16.4418L11.4692 18.054C10.5139 17.5263 9.64198 16.9081 8.85642 16.2042L19.5303 5.53038C19.8231 5.23748 19.8231 4.76261 19.5303 4.46972C19.2374 4.17682 18.7625 4.17682 18.4696 4.46972L3.46959 19.4697C3.1767 19.7626 3.1767 20.2375 3.46959 20.5304C3.76248 20.8233 4.23736 20.8233 4.53025 20.5304L7.79433 17.2663C8.83812 18.2118 10.0166 19.0157 11.3191 19.6702C13.3884 20.7099 15.7641 21.3693 18.4037 21.6269L18.4505 21.6314L18.4506 21.6314C18.7738 21.6631 19.0336 21.6886 19.336 21.6514C20.4384 21.5156 21.4417 20.6054 21.6839 19.5215C21.7504 19.2236 21.7502 18.9214 21.75 18.5384L21.75 18.473L21.75 18.4128C21.7502 18.0807 21.7503 17.8223 21.7082 17.5836C21.5494 16.6842 20.9545 15.9223 20.1205 15.5502C19.8991 15.4514 19.6485 15.3889 19.3262 15.3085L19.3262 15.3085L19.2678 15.2939L17.6133 14.8802ZM18.5494 20.1339C16.4399 19.9281 14.5381 19.452 12.8577 18.7318L13.9679 17.4039C14.3687 16.9245 14.6333 16.6094 14.8625 16.3869C15.0791 16.1767 15.2176 16.0967 15.3437 16.0556C15.4697 16.0146 15.6288 15.9977 15.9277 16.0402C16.2439 16.085 16.6433 16.1839 17.2495 16.3355L18.904 16.7491C19.3121 16.8511 19.424 16.882 19.5093 16.92C19.8884 17.0892 20.1588 17.4355 20.231 17.8443C20.2472 17.9363 20.25 18.0524 20.25 18.473C20.25 18.9514 20.2459 19.0784 20.2199 19.1945C20.1161 19.6594 19.6255 20.1044 19.1527 20.1626C19.0316 20.1775 18.9359 20.1717 18.5494 20.1339Z" fill="#22282F"/>
</svg>
