<svg width="24" height="24" viewBox="0 0 24 24" fill="none" xmlns="http://www.w3.org/2000/svg">
<path fill-rule="evenodd" clip-rule="evenodd" d="M7.00047 3.25C6.58626 3.25 6.25047 3.58579 6.25047 4V8C6.25047 8.41421 6.58626 8.75 7.00047 8.75C7.41468 8.75 7.75047 8.41421 7.75047 8V5.81066L8.64171 6.70191L8.67848 6.73867C9.31378 7.37402 9.84354 7.90381 10.3207 8.26784C10.8243 8.65207 11.3563 8.92157 12.0005 8.92157C12.6446 8.92157 13.1767 8.65207 13.6803 8.26784C14.1574 7.90382 14.6871 7.37404 15.3224 6.73871L15.3225 6.73868L15.3592 6.7019L17.0308 5.03033C17.3237 4.73744 17.3237 4.26256 17.0308 3.96967C16.7379 3.67678 16.263 3.67678 15.9701 3.96967L14.2986 5.64124C13.6169 6.3229 13.1579 6.77967 12.7704 7.07531C12.4002 7.35774 12.1848 7.42157 12.0005 7.42157C11.8162 7.42157 11.6007 7.35774 11.2305 7.07531C10.8431 6.77967 10.384 6.3229 9.70237 5.64125L8.81113 4.75H11.0005C11.4147 4.75 11.7505 4.41421 11.7505 4C11.7505 3.58579 11.4147 3.25 11.0005 3.25H7.00047ZM12.0005 11.25C10.6395 11.25 9.21437 11.4637 7.77673 11.9131C5.84549 12.5167 3.89241 13.5452 2.03935 15.0518L2.02445 15.0639C1.87776 15.1831 1.75978 15.279 1.61788 15.436C1.24204 15.8519 1.02866 16.3901 0.957794 16.916C0.886931 17.4418 0.950237 18.0173 1.20258 18.5178C1.29814 18.7074 1.41109 18.8654 1.55278 19.0636L1.55279 19.0636L1.57509 19.0948L1.60762 19.1404L1.60763 19.1404C1.78329 19.3865 1.91904 19.5767 2.06769 19.7289C2.8619 20.5421 4.07454 20.7828 5.11914 20.3347C5.31466 20.2508 5.51278 20.1269 5.76913 19.9665L5.81659 19.9369L6.51824 19.4983L6.59709 19.4491C7.04863 19.1673 7.40402 18.9456 7.67468 18.6348C7.87255 18.4076 8.03174 18.1494 8.14588 17.8705C8.30201 17.4891 8.34053 17.072 8.38948 16.542L8.39805 16.4495L8.70005 13.2054C9.83312 12.8956 10.9438 12.75 12.0005 12.75C13.0571 12.75 14.1678 12.8956 15.3009 13.2054L15.6029 16.4495L15.6115 16.542L15.6115 16.542C15.6604 17.072 15.6989 17.4891 15.8551 17.8706C15.9692 18.1494 16.1284 18.4076 16.3263 18.6348C16.5969 18.9456 16.9523 19.1673 17.4039 19.4491L17.4827 19.4983L18.1844 19.9369L18.2318 19.9666C18.4882 20.1269 18.6863 20.2508 18.8818 20.3347C19.9264 20.7828 21.139 20.5421 21.9333 19.7289C22.0819 19.5767 22.2177 19.3866 22.3933 19.1404L22.3933 19.1404L22.4258 19.0949L22.4481 19.0637C22.5898 18.8655 22.7028 18.7075 22.7983 18.5179C23.0507 18.0174 23.114 17.4419 23.0431 16.916C22.9723 16.3902 22.7589 15.852 22.3831 15.4361C22.2412 15.2791 22.1232 15.1832 21.9765 15.064L21.9616 15.0519C20.1086 13.5452 18.1555 12.5167 16.2242 11.9131C14.7866 11.4637 13.3615 11.25 12.0005 11.25ZM2.98562 16.2157C4.34494 15.1105 5.75074 14.2933 7.14464 13.7309L6.90451 16.3104C6.84245 16.977 6.81828 17.1543 6.75769 17.3023C6.7058 17.429 6.63344 17.5464 6.5435 17.6497C6.43846 17.7703 6.29096 17.8715 5.72324 18.2263L5.02159 18.6649C4.69542 18.8687 4.60282 18.924 4.52779 18.9562C4.05297 19.1599 3.50177 19.0504 3.14077 18.6808C3.08372 18.6224 3.01926 18.536 2.79569 18.223C2.62263 17.9807 2.57977 17.9175 2.542 17.8426C2.44916 17.6584 2.40644 17.3977 2.44436 17.1163C2.48228 16.8349 2.59251 16.5948 2.73077 16.4418C2.79007 16.3761 2.82573 16.3457 2.98562 16.2157ZM17.0964 16.3104L16.8563 13.7309C18.2502 14.2933 19.656 15.1105 21.0153 16.2157C21.1752 16.3457 21.2109 16.3762 21.2702 16.4418C21.4084 16.5948 21.5187 16.8349 21.5566 17.1164C21.5945 17.3978 21.5518 17.6585 21.4589 17.8427C21.4212 17.9176 21.3783 17.9807 21.2052 18.223C20.9817 18.536 20.9172 18.6224 20.8602 18.6808C20.4992 19.0505 19.948 19.1599 19.4732 18.9562C19.3981 18.924 19.3055 18.8687 18.9794 18.6649L18.2777 18.2263C17.71 17.8715 17.5625 17.7703 17.4574 17.6497C17.3675 17.5464 17.2951 17.429 17.2433 17.3023C17.1827 17.1543 17.1585 16.977 17.0964 16.3104Z" fill="#22282F"/>
</svg>
