<svg width="24" height="24" viewBox="0 0 24 24" fill="none" xmlns="http://www.w3.org/2000/svg">
<path fill-rule="evenodd" clip-rule="evenodd" d="M5.46154 2.2499L5.52691 2.24992L5.58711 2.24991C5.91925 2.24976 6.17758 2.24965 6.41628 2.29177C7.31569 2.45049 8.07763 3.04539 8.44975 3.87946C8.54851 4.1008 8.61105 4.35145 8.69146 4.67369L8.69146 4.6737L8.69147 4.67372L8.70605 4.73213L9.11967 6.3866L9.12872 6.42279L9.12872 6.4228C9.26881 6.98307 9.3877 7.45858 9.44488 7.86145C9.50576 8.29034 9.50752 8.70009 9.37061 9.12061C9.23371 9.54113 8.99105 9.8713 8.68934 10.1822C8.40593 10.4741 8.02987 10.7885 7.58678 11.1589L7.55817 11.1829L5.94594 12.5307C7.24925 14.8901 9.10973 16.7506 11.4691 18.0539L12.817 16.4417L12.8409 16.4131C13.2113 15.97 13.5257 15.5939 13.8177 15.3105C14.1285 15.0088 14.4587 14.7661 14.8792 14.6292C15.2998 14.4923 15.7095 14.4941 16.1384 14.555C16.5412 14.6121 17.0167 14.731 17.577 14.8711L17.577 14.8711L17.5771 14.8711L17.6132 14.8802L19.2677 15.2938L19.3261 15.3084L19.3261 15.3084C19.6484 15.3888 19.899 15.4513 20.1204 15.5501C20.9545 15.9222 21.5494 16.6841 21.7081 17.5836C21.7502 17.8223 21.7501 18.0806 21.7499 18.4127L21.7499 18.4729L21.7499 18.5383C21.7501 18.9213 21.7503 19.2235 21.6838 19.5214C21.4417 20.6054 20.4383 21.5156 19.336 21.6513C19.0336 21.6885 18.7737 21.6631 18.4506 21.6314L18.4505 21.6314L18.4505 21.6314L18.4037 21.6268C15.764 21.3692 13.3883 20.7098 11.3191 19.6701C8.24492 18.1255 5.87438 15.7549 4.32976 12.6808C3.29005 10.6115 2.6306 8.23584 2.37306 5.59617L2.36848 5.54939C2.33679 5.22615 2.31132 4.96629 2.34855 4.66388C2.48427 3.56152 3.39448 2.55819 4.47845 2.31606C4.7763 2.24953 5.07852 2.24969 5.46154 2.2499ZM12.8576 18.7317C14.538 19.4519 16.4398 19.9281 18.5493 20.1339C18.9358 20.1716 19.0315 20.1774 19.1527 20.1625C19.6254 20.1043 20.116 19.6593 20.2199 19.1944C20.2458 19.0783 20.2499 18.9514 20.2499 18.4729C20.2499 18.0523 20.2471 17.9362 20.2309 17.8442C20.1588 17.4354 19.8883 17.0891 19.5092 16.9199C19.4239 16.8819 19.312 16.851 18.9039 16.749L17.2494 16.3354C16.6432 16.1838 16.2439 16.085 15.9276 16.0401C15.6287 15.9977 15.4696 16.0145 15.3436 16.0555C15.2175 16.0966 15.079 16.1766 14.8624 16.3869C14.6332 16.6093 14.3686 16.9244 13.9678 17.4038L12.8576 18.7317ZM5.2681 11.1423L6.59606 10.032C7.07547 9.63125 7.39051 9.36664 7.61297 9.13743C7.82321 8.92082 7.90326 8.7823 7.9443 8.65625C7.98534 8.5302 8.00219 8.3711 7.95977 8.07223C7.91488 7.75599 7.81601 7.35662 7.66446 6.7504L7.25084 5.09593C7.14882 4.68785 7.11796 4.57592 7.07991 4.49062C6.91076 4.1115 6.56442 3.84109 6.1556 3.76894C6.06362 3.75271 5.94754 3.74992 5.52691 3.74992C5.04848 3.74992 4.92154 3.75405 4.80545 3.77999C4.34055 3.88383 3.89552 4.3744 3.83731 4.84718C3.8224 4.96831 3.82826 5.06404 3.86597 5.45052C4.07179 7.56005 4.54795 9.46182 5.2681 11.1423ZM15.9998 3.24987C16.414 3.24987 16.7498 3.58566 16.7498 3.99987V7.99987C16.7498 8.41408 16.414 8.74987 15.9998 8.74987C15.5856 8.74987 15.2498 8.41408 15.2498 7.99987V3.99987C15.2498 3.58566 15.5856 3.24987 15.9998 3.24987ZM20.7498 3.99987C20.7498 3.58566 20.414 3.24987 19.9998 3.24987C19.5856 3.24987 19.2498 3.58566 19.2498 3.99987V7.99987C19.2498 8.41408 19.5856 8.74987 19.9998 8.74987C20.414 8.74987 20.7498 8.41408 20.7498 7.99987V3.99987Z" fill="#22282F"/>
</svg>
