<svg width="24" height="24" viewBox="0 0 24 24" fill="none" xmlns="http://www.w3.org/2000/svg">
<path fill-rule="evenodd" clip-rule="evenodd" d="M7.77673 6.91306C9.21438 6.46371 10.6395 6.25 12.0005 6.25C13.3615 6.25 14.7866 6.46371 16.2242 6.91306C18.1555 7.51669 20.1086 8.54523 21.9616 10.0519L21.9765 10.064C22.1232 10.1832 22.2412 10.2791 22.3831 10.4361C22.7589 10.852 22.9723 11.3902 23.0431 11.916C23.114 12.4419 23.0507 13.0174 22.7983 13.5179C22.7028 13.7075 22.5898 13.8655 22.4481 14.0637C22.4408 14.074 22.4333 14.0844 22.4258 14.0949C22.4149 14.1103 22.404 14.1254 22.3933 14.1404C22.2177 14.3865 22.0819 14.5767 21.9333 14.7289C21.139 15.5421 19.9264 15.7828 18.8818 15.3347C18.6863 15.2508 18.4882 15.1269 18.2318 14.9666C18.2162 14.9568 18.2004 14.9469 18.1844 14.9369L17.4827 14.4983C17.4561 14.4817 17.4298 14.4653 17.4039 14.4491C16.9523 14.1673 16.5969 13.9456 16.3263 13.6348C16.1284 13.4076 15.9692 13.1494 15.8551 12.8706C15.6989 12.4891 15.6604 12.072 15.6115 11.542C15.6086 11.5115 15.6058 11.4807 15.6029 11.4495L15.3009 8.20537C14.1678 7.89564 13.0571 7.75 12.0005 7.75C10.9438 7.75 9.83312 7.89564 8.70005 8.20537L8.39806 11.4495C8.39515 11.4807 8.3923 11.5116 8.38948 11.542C8.34054 12.072 8.30201 12.4891 8.14589 12.8705C8.03175 13.1494 7.87256 13.4076 7.67468 13.6348C7.40402 13.9456 7.04864 14.1673 6.5971 14.4491C6.57113 14.4653 6.54485 14.4817 6.51825 14.4983L5.8166 14.9369C5.80055 14.9469 5.78474 14.9568 5.76914 14.9665C5.51278 15.1269 5.31467 15.2508 5.11914 15.3347C4.07455 15.7828 2.86191 15.5421 2.06769 14.7289C1.91904 14.5767 1.78328 14.3865 1.60762 14.1404C1.59693 14.1254 1.5861 14.1102 1.5751 14.0948C1.56759 14.0843 1.56015 14.0739 1.5528 14.0636C1.4111 13.8654 1.29814 13.7074 1.20259 13.5178C0.950241 13.0173 0.886934 12.4418 0.957798 11.916C1.02866 11.3901 1.24204 10.8519 1.61789 10.436C1.75979 10.279 1.87777 10.1831 2.02446 10.0639C2.02939 10.0599 2.03436 10.0559 2.03936 10.0518C3.89242 8.54519 5.84549 7.51668 7.77673 6.91306ZM7.14464 8.73094C5.75075 9.29327 4.34494 10.1105 2.98562 11.2157C2.82573 11.3457 2.79007 11.3761 2.73077 11.4418C2.59251 11.5948 2.48228 11.8349 2.44436 12.1163C2.40644 12.3977 2.44917 12.6584 2.542 12.8426C2.57977 12.9175 2.62264 12.9807 2.7957 13.223C3.01927 13.536 3.08373 13.6224 3.14077 13.6808C3.50178 14.0504 4.05298 14.1599 4.52779 13.9562C4.60282 13.924 4.69542 13.8687 5.0216 13.6649L5.72324 13.2263C6.29096 12.8715 6.43847 12.7703 6.54351 12.6497C6.63345 12.5464 6.70581 12.429 6.75769 12.3023C6.81828 12.1543 6.84246 11.977 6.90451 11.3104L7.14464 8.73094ZM16.8563 8.73095L17.0964 11.3104C17.1585 11.977 17.1827 12.1543 17.2433 12.3023C17.2951 12.429 17.3675 12.5464 17.4574 12.6497C17.5625 12.7703 17.71 12.8715 18.2777 13.2263L18.9794 13.6649C19.3055 13.8687 19.3981 13.924 19.4732 13.9562C19.948 14.1599 20.4992 14.0505 20.8602 13.6808C20.9172 13.6224 20.9817 13.536 21.2052 13.223C21.3783 12.9807 21.4212 12.9176 21.4589 12.8427C21.5518 12.6585 21.5945 12.3978 21.5566 12.1164C21.5187 11.8349 21.4084 11.5948 21.2702 11.4418C21.2109 11.3762 21.1752 11.3457 21.0153 11.2157C19.656 10.1105 18.2502 9.29328 16.8563 8.73095Z" fill="#22282F"/>
</svg>
