<svg width="24" height="24" viewBox="0 0 24 24" fill="none" xmlns="http://www.w3.org/2000/svg">
<path fill-rule="evenodd" clip-rule="evenodd" d="M11.9995 4.25C10.6385 4.25 9.2134 4.46371 7.77575 4.91306C5.84451 5.51668 3.89144 6.54519 2.03838 8.0518L2.02348 8.06391C1.87679 8.18313 1.75881 8.27902 1.61691 8.43603C1.24107 8.85192 1.02769 9.39011 0.956822 9.91597C0.885958 10.4418 0.949264 11.0173 1.20161 11.5178C1.29716 11.7074 1.41012 11.8654 1.55182 12.0636L1.55182 12.0636L1.57412 12.0948L1.60665 12.1404L1.60666 12.1404C1.78231 12.3865 1.91806 12.5767 2.06672 12.7289C2.86093 13.5421 4.07357 13.7828 5.11816 13.3347C5.31369 13.2508 5.5118 13.1269 5.76815 12.9665L5.76816 12.9665L5.81562 12.9369L6.51727 12.4983L6.59612 12.4491C7.04766 12.1673 7.40305 11.9456 7.67371 11.6348C7.87158 11.4076 8.03077 11.1494 8.14491 10.8705C8.30104 10.4891 8.33956 10.072 8.38851 9.54204V9.54203L8.39708 9.44947L8.69908 6.20537C9.83215 5.89564 10.9428 5.75 11.9995 5.75C13.0562 5.75 14.1668 5.89564 15.2999 6.20537L15.6019 9.44946L15.6105 9.54202L15.6105 9.54203C15.6594 10.072 15.698 10.4891 15.8541 10.8706C15.9682 11.1494 16.1274 11.4076 16.3253 11.6348C16.5959 11.9456 16.9513 12.1673 17.4029 12.4491L17.4817 12.4983L18.1834 12.9369L18.2309 12.9666C18.4872 13.1269 18.6853 13.2508 18.8808 13.3347C19.9254 13.7828 21.1381 13.5421 21.9323 12.7289C22.0809 12.5767 22.2167 12.3865 22.3924 12.1404L22.3924 12.1404L22.4249 12.0949L22.4471 12.0637L22.4472 12.0637C22.5888 11.8655 22.7018 11.7075 22.7974 11.5179C23.0497 11.0174 23.113 10.4419 23.0422 9.91605C22.9713 9.39018 22.7579 8.85199 22.3821 8.43609C22.2402 8.27908 22.1222 8.1832 21.9755 8.06399L21.9606 8.05188C20.1076 6.54523 18.1545 5.51669 16.2232 4.91306C14.7856 4.46371 13.3605 4.25 11.9995 4.25ZM2.98465 9.21567C4.34397 8.11049 5.74977 7.29327 7.14366 6.73094L6.90354 9.31043C6.84148 9.97703 6.8173 10.1543 6.75671 10.3023C6.70483 10.429 6.63247 10.5464 6.54253 10.6497C6.43749 10.7703 6.28999 10.8715 5.72227 11.2263L5.02062 11.6649C4.69444 11.8687 4.60184 11.924 4.52682 11.9562C4.052 12.1599 3.5008 12.0504 3.1398 11.6808C3.08275 11.6224 3.01829 11.536 2.79472 11.223C2.62166 10.9807 2.5788 10.9175 2.54102 10.8426C2.44819 10.6584 2.40546 10.3977 2.44338 10.1163C2.48131 9.83489 2.59153 9.59476 2.7298 9.44176C2.78909 9.37615 2.82476 9.34566 2.98465 9.21567ZM17.0955 9.31042L16.8553 6.73095C18.2492 7.29328 19.655 8.11052 21.0144 9.21573C21.1742 9.34572 21.2099 9.3762 21.2692 9.44181C21.4075 9.59481 21.5177 9.83495 21.5556 10.1164C21.5935 10.3978 21.5508 10.6585 21.458 10.8427C21.4202 10.9176 21.3773 10.9807 21.2043 11.223C20.9807 11.536 20.9163 11.6224 20.8592 11.6808C20.4982 12.0505 19.947 12.1599 19.4722 11.9562C19.3972 11.924 19.3046 11.8687 18.9784 11.6649L18.2767 11.2263C17.709 10.8715 17.5615 10.7703 17.4565 10.6497C17.3665 10.5464 17.2942 10.429 17.2423 10.3023C17.1817 10.1543 17.1575 9.97703 17.0955 9.31042ZM12.75 12C12.75 11.5858 12.4142 11.25 12 11.25C11.5858 11.25 11.25 11.5858 11.25 12V18.1893L9.5303 16.4697C9.2374 16.1768 8.76253 16.1768 8.46964 16.4697C8.17674 16.7626 8.17674 17.2374 8.46964 17.5303L11.4696 20.5303C11.7625 20.8232 12.2374 20.8232 12.5303 20.5303L15.5303 17.5303C15.8232 17.2374 15.8232 16.7626 15.5303 16.4697C15.2374 16.1768 14.7625 16.1768 14.4696 16.4697L12.75 18.1893V12Z" fill="#22282F"/>
</svg>
