<svg width="24" height="24" viewBox="0 0 24 24" fill="none" xmlns="http://www.w3.org/2000/svg">
<path fill-rule="evenodd" clip-rule="evenodd" d="M5.46155 2.25002C5.48308 2.25003 5.50486 2.25005 5.52692 2.25005C5.54726 2.25005 5.56732 2.25004 5.58712 2.25003C5.91926 2.24988 6.17759 2.24977 6.41629 2.29189C7.31571 2.45061 8.07764 3.04551 8.44976 3.87958C8.54852 4.10093 8.61107 4.35158 8.69148 4.67384C8.69627 4.69305 8.70113 4.71252 8.70606 4.73225L9.11968 6.38672L9.12873 6.42291C9.26882 6.98319 9.38771 7.4587 9.4449 7.86157C9.50577 8.29046 9.50753 8.70021 9.37063 9.12073C9.23372 9.54125 8.99106 9.87142 8.68935 10.1823C8.40595 10.4743 8.02989 10.7886 7.58679 11.1591L7.55818 11.183L5.94595 12.5308C7.24926 14.8902 9.10974 16.7507 11.4691 18.054L12.817 16.4418L12.8409 16.4132C13.2113 15.9701 13.5257 15.594 13.8177 15.3106C14.1286 15.0089 14.4587 14.7663 14.8792 14.6294C15.2998 14.4924 15.7095 14.4942 16.1384 14.5551C16.5413 14.6123 17.0168 14.7312 17.5771 14.8713L17.6133 14.8803L19.2677 15.2939C19.2875 15.2988 19.3069 15.3037 19.3261 15.3085C19.6484 15.3889 19.899 15.4515 20.1204 15.5502C20.9545 15.9223 21.5494 16.6843 21.7081 17.5837C21.7502 17.8224 21.7501 18.0807 21.75 18.4129C21.7499 18.4327 21.7499 18.4527 21.7499 18.4731C21.7499 18.4951 21.7499 18.5169 21.75 18.5384C21.7502 18.9214 21.7503 19.2237 21.6838 19.5215C21.4417 20.6055 20.4383 21.5157 19.336 21.6514C19.0336 21.6886 18.7737 21.6632 18.4505 21.6315C18.435 21.63 18.4194 21.6284 18.4037 21.6269C15.764 21.3694 13.3883 20.7099 11.3191 19.6702C8.24493 18.1256 5.87439 15.755 4.32977 12.6809C3.29006 10.6116 2.63061 8.23596 2.37307 5.5963C2.37153 5.58055 2.37001 5.56496 2.36849 5.54952C2.3368 5.22628 2.31133 4.96642 2.34856 4.66401C2.48428 3.56164 3.39449 2.55831 4.47846 2.31618C4.77631 2.24965 5.07854 2.24982 5.46155 2.25002ZM12.8576 18.7319C14.538 19.452 16.4398 19.9282 18.5493 20.134C18.9358 20.1717 19.0315 20.1776 19.1527 20.1627C19.6255 20.1044 20.116 19.6594 20.2199 19.1945C20.2458 19.0784 20.2499 18.9515 20.2499 18.4731C20.2499 18.0524 20.2471 17.9363 20.2309 17.8444C20.1588 17.4355 19.8884 17.0892 19.5092 16.9201C19.4239 16.882 19.312 16.8511 18.9039 16.7491L17.2495 16.3355C16.6432 16.184 16.2439 16.0851 15.9276 16.0402C15.6288 15.9978 15.4697 16.0146 15.3436 16.0557C15.2176 16.0967 15.079 16.1768 14.8624 16.387C14.6332 16.6095 14.3686 16.9245 13.9678 17.4039L12.8576 18.7319ZM5.26811 11.1424L6.59607 10.0322C7.07548 9.63137 7.39052 9.36676 7.61299 9.13755C7.82323 8.92094 7.90327 8.78242 7.94431 8.65637C7.98535 8.53032 8.0022 8.37122 7.95978 8.07235C7.91489 7.75611 7.81602 7.35674 7.66447 6.75052L7.25085 5.09605C7.14883 4.68797 7.11797 4.57604 7.07992 4.49074C6.91077 4.11162 6.56444 3.84121 6.15561 3.76907C6.06363 3.75283 5.94755 3.75005 5.52692 3.75005C5.04849 3.75005 4.92155 3.75418 4.80546 3.78011C4.34057 3.88395 3.89553 4.37452 3.83732 4.8473C3.82241 4.96843 3.82827 5.06417 3.86598 5.45064C4.0718 7.56018 4.54796 9.46194 5.26811 11.1424Z" fill="#22282F"/>
</svg>
