<svg width="24" height="24" viewBox="0 0 24 24" fill="none" xmlns="http://www.w3.org/2000/svg">
<path fill-rule="evenodd" clip-rule="evenodd" d="M12 3.75C7.44365 3.75 3.75 7.44365 3.75 12C3.75 12.8456 3.92871 13.7122 4.18591 14.5166L4.19182 14.5351C4.49527 15.4841 4.73048 16.2197 4.88542 16.7855C5.03609 17.3357 5.13874 17.8173 5.11816 18.2225C5.10413 18.4986 5.08857 18.6096 5.02614 18.8789C4.93921 19.254 4.76667 19.6101 4.54156 19.9941C4.49371 20.0757 4.44208 20.1609 4.38671 20.25H12C16.5564 20.25 20.25 16.5563 20.25 12C20.25 7.44365 16.5564 3.75 12 3.75ZM2.38165 20.5755C2.29861 20.6962 2.25 20.8424 2.25 21C2.25 21.4142 2.58579 21.75 3 21.75H12C17.3848 21.75 21.75 17.3848 21.75 12C21.75 6.61522 17.3848 2.25 12 2.25C6.61522 2.25 2.25 6.61522 2.25 12C2.25 13.0472 2.46937 14.0734 2.75717 14.9735C3.06774 15.9447 3.29313 16.6501 3.43869 17.1817C3.58952 17.7325 3.62723 18.0059 3.62009 18.1464C3.61436 18.2592 3.6103 18.3059 3.60482 18.345C3.59934 18.3841 3.59038 18.4302 3.56488 18.5402C3.52846 18.6974 3.44396 18.9004 3.24752 19.2355C3.05123 19.5703 2.77429 19.9865 2.38165 20.5755ZM13 16C13 16.5523 12.5523 17 12 17C11.4477 17 11 16.5523 11 16C11 15.4477 11.4477 15 12 15C12.5523 15 13 15.4477 13 16ZM12.75 8C12.75 7.58579 12.4142 7.25 12 7.25C11.5858 7.25 11.25 7.58579 11.25 8V13C11.25 13.4142 11.5858 13.75 12 13.75C12.4142 13.75 12.75 13.4142 12.75 13V8Z" fill="#22282F"/>
</svg>
