<svg width="24" height="24" viewBox="0 0 24 24" fill="none" xmlns="http://www.w3.org/2000/svg">
<path fill-rule="evenodd" clip-rule="evenodd" d="M3.53033 1.46967C3.23744 1.17678 2.76256 1.17678 2.46967 1.46967C2.17678 1.76256 2.17678 2.23744 2.46967 2.53033L5.07545 5.13611C3.32967 6.89727 2.25 9.32314 2.25 12C2.25 13.0472 2.46937 14.0734 2.75717 14.9735C3.06774 15.9447 3.29313 16.6501 3.43869 17.1817C3.58952 17.7325 3.62723 18.0059 3.62009 18.1464C3.61436 18.2592 3.6103 18.3059 3.60482 18.345C3.59934 18.3841 3.59038 18.4302 3.56488 18.5402C3.52846 18.6974 3.44396 18.9004 3.24752 19.2355C3.05123 19.5703 2.77429 19.9865 2.38165 20.5755C2.29861 20.6962 2.25 20.8424 2.25 21C2.25 21.4142 2.58579 21.75 3 21.75H12C14.6769 21.75 17.1027 20.6703 18.8639 18.9246L21.4697 21.5303C21.7626 21.8232 22.2374 21.8232 22.5303 21.5303C22.8232 21.2374 22.8232 20.7626 22.5303 20.4697L3.53033 1.46967ZM17.8032 17.8639L6.13612 6.19678C4.66012 7.68805 3.75 9.73715 3.75 12C3.75 12.8456 3.92871 13.7122 4.18591 14.5166L4.19182 14.5351C4.49527 15.4841 4.73048 16.2197 4.88542 16.7855C5.03609 17.3357 5.13874 17.8173 5.11816 18.2225C5.10413 18.4986 5.08857 18.6096 5.02614 18.8789C4.93921 19.254 4.76667 19.6101 4.54156 19.9941C4.49371 20.0757 4.44208 20.1609 4.38671 20.25H12C14.2629 20.25 16.312 19.3399 17.8032 17.8639ZM10.166 3.95442C10.7551 3.82074 11.3688 3.75 12 3.75C16.5564 3.75 20.25 7.44365 20.25 12C20.25 12.7964 20.1374 13.5652 19.9276 14.2921C19.883 14.4466 19.834 14.5994 19.7808 14.7501C19.6427 15.1406 19.8474 15.5691 20.2379 15.7071C20.6285 15.8452 21.057 15.6405 21.195 15.2499C21.258 15.0716 21.316 14.8909 21.3688 14.7079C21.6172 13.8473 21.75 12.9385 21.75 12C21.75 6.61522 17.3848 2.25 12 2.25C11.2564 2.25 10.5313 2.33338 9.83404 2.49161C9.47738 2.57254 9.12813 2.67302 8.78747 2.79185C8.39637 2.92829 8.18993 3.35594 8.32636 3.74704C8.4628 4.13814 8.89045 4.34458 9.28155 4.20815C9.5694 4.10773 9.86453 4.02282 10.166 3.95442Z" fill="#22282F"/>
</svg>
