<svg width="24" height="24" viewBox="0 0 24 24" fill="none" xmlns="http://www.w3.org/2000/svg">
<path fill-rule="evenodd" clip-rule="evenodd" d="M8 3.25H7.94513C6.57754 3.24998 5.47522 3.24996 4.60825 3.36652C3.70814 3.48754 2.95027 3.74643 2.34835 4.34835C1.74643 4.95027 1.48754 5.70814 1.36652 6.60825C1.24996 7.47522 1.24998 8.57754 1.25 9.94513V10V18C1.25 18.2766 1.40224 18.5307 1.64611 18.6613C1.88997 18.7918 2.18588 18.7775 2.41603 18.624L3.90448 17.6317C4.69111 17.1073 4.96189 16.9357 5.25631 16.8465C5.55074 16.7574 5.87124 16.75 6.81665 16.75H7C7.41421 16.75 7.75 16.4142 7.75 16C7.75 15.5858 7.41421 15.25 7 15.25H6.81665L6.71268 15.25C5.91116 15.2497 5.35476 15.2495 4.82164 15.4109C4.28852 15.5723 3.82567 15.8811 3.15893 16.326L3.07243 16.3837L2.75 16.5986V10C2.75 8.56458 2.75159 7.56347 2.85315 6.80812C2.9518 6.07435 3.13225 5.68577 3.40901 5.40901C3.68577 5.13225 4.07435 4.9518 4.80812 4.85315C5.56347 4.75159 6.56458 4.75 8 4.75H13C13.9484 4.75 14.6096 4.75072 15.1222 4.79718C15.6245 4.84271 15.9101 4.92737 16.125 5.05144C16.467 5.24892 16.7511 5.53296 16.9486 5.875C17.0726 6.0899 17.1573 6.37549 17.2028 6.87779C17.2359 7.24305 17.2458 7.68373 17.2488 8.25H14L13.948 8.25C13.0495 8.24997 12.3003 8.24995 11.7055 8.32991C11.0777 8.41432 10.5109 8.59999 10.0555 9.05546C9.59999 9.51093 9.41432 10.0777 9.32991 10.7055C9.24995 11.3003 9.24997 12.0495 9.25 12.948L9.25 13V14L9.25 14.052C9.24997 14.9505 9.24995 15.6997 9.32991 16.2945C9.41432 16.9223 9.59999 17.4891 10.0555 17.9445C10.5109 18.4 11.0777 18.5857 11.7055 18.6701C12.3003 18.7501 13.0495 18.75 13.948 18.75H13.948L14 18.75H18.7729L21.584 20.624C21.8141 20.7775 22.11 20.7918 22.3539 20.6613C22.5978 20.5307 22.75 20.2766 22.75 20V13L22.75 12.948V12.948C22.75 12.0495 22.7501 11.3003 22.6701 10.7055C22.5857 10.0777 22.4 9.51093 21.9445 9.05546C21.4891 8.59999 20.9223 8.41432 20.2945 8.32991C19.8607 8.2716 19.3449 8.25582 18.7489 8.25156C18.7459 7.66633 18.7352 7.16755 18.6967 6.7424C18.6417 6.13605 18.5254 5.60625 18.2476 5.125C17.9185 4.55493 17.4451 4.08154 16.875 3.75241C16.3937 3.47455 15.8639 3.35826 15.2576 3.3033C14.6693 3.24998 13.94 3.24999 13.0358 3.25H13H8ZM11.1161 10.1161C11.2464 9.9858 11.4439 9.87858 11.9054 9.81654C12.3884 9.75159 13.036 9.75 14 9.75H18C18.964 9.75 19.6116 9.75159 20.0946 9.81654C20.5561 9.87858 20.7536 9.9858 20.8839 10.1161C21.0142 10.2464 21.1214 10.4439 21.1835 10.9054C21.2484 11.3884 21.25 12.036 21.25 13V18.5986L19.416 17.376C19.2928 17.2938 19.1481 17.25 19 17.25H14C13.036 17.25 12.3884 17.2484 11.9054 17.1835C11.4439 17.1214 11.2464 17.0142 11.1161 16.8839C10.9858 16.7536 10.8786 16.5561 10.8165 16.0946C10.7516 15.6116 10.75 14.964 10.75 14V13C10.75 12.036 10.7516 11.3884 10.8165 10.9054C10.8786 10.4439 10.9858 10.2464 11.1161 10.1161Z" fill="#22282F"/>
</svg>
