<svg width="24" height="24" viewBox="0 0 24 24" fill="none" xmlns="http://www.w3.org/2000/svg">
<path fill-rule="evenodd" clip-rule="evenodd" d="M21.4697 1.46967C21.7626 1.17678 22.2374 1.17678 22.5303 1.46967C22.8232 1.76256 22.8232 2.23744 22.5303 2.53033L3.53033 21.5303C3.23744 21.8232 2.76256 21.8232 2.46967 21.5303C2.17678 21.2374 2.17678 20.7626 2.46967 20.4697L4.50095 18.4384C3.17602 17.8599 2.25 16.5381 2.25 15V10V9.94513C2.24998 8.57754 2.24996 7.47522 2.36652 6.60825C2.48754 5.70814 2.74643 4.95027 3.34835 4.34835C3.95027 3.74643 4.70814 3.48754 5.60825 3.36652C6.47522 3.24996 7.57754 3.24998 8.94513 3.25L9 3.25H12H19.6893L21.4697 1.46967ZM18.1893 4.75H12H9C7.56458 4.75 6.56347 4.75159 5.80812 4.85315C5.07435 4.9518 4.68577 5.13225 4.40901 5.40901C4.13225 5.68577 3.9518 6.07434 3.85315 6.80812C3.75159 7.56347 3.75 8.56458 3.75 10V15C3.75 16.1437 4.60336 17.0881 5.7081 17.2312L18.1893 4.75ZM21.75 7C21.75 6.58579 21.4142 6.25 21 6.25C20.5858 6.25 20.25 6.58579 20.25 7V18.7865L19.0246 18.1738L18.9454 18.1341C18.1803 17.7515 17.6864 17.5044 17.1471 17.3771C16.6077 17.2498 16.0554 17.2498 15.2 17.25L15.1115 17.25H10C9.58579 17.25 9.25 17.5858 9.25 18C9.25 18.4142 9.58579 18.75 10 18.75H15.1115C16.0852 18.75 16.4536 18.7546 16.8024 18.8369C17.1513 18.9193 17.4828 19.0799 18.3538 19.5154L20.6646 20.6708C20.8971 20.7871 21.1732 20.7746 21.3943 20.638C21.6154 20.5013 21.75 20.2599 21.75 20V7Z" fill="#22282F"/>
</svg>
