<svg width="24" height="24" viewBox="0 0 24 24" fill="none" xmlns="http://www.w3.org/2000/svg">
<path fill-rule="evenodd" clip-rule="evenodd" d="M9 3.25H8.94513C7.57754 3.24998 6.47522 3.24996 5.60825 3.36652C4.70814 3.48754 3.95027 3.74643 3.34835 4.34835C2.74643 4.95027 2.48754 5.70814 2.36652 6.60825C2.24996 7.47522 2.24998 8.57754 2.25 9.94513V10V12V12.0549C2.24998 13.4225 2.24996 14.5248 2.36652 15.3918C2.48754 16.2919 2.74643 17.0497 3.34835 17.6517C3.95027 18.2536 4.70814 18.5125 5.60825 18.6335C6.47521 18.75 7.57753 18.75 8.94512 18.75H8.94513H9H15.1115C16.0852 18.75 16.4536 18.7546 16.8024 18.8369C17.1513 18.9193 17.4828 19.0799 18.3538 19.5154L20.6646 20.6708C20.8971 20.7871 21.1732 20.7746 21.3943 20.638C21.6154 20.5013 21.75 20.2599 21.75 20V10V9.94513C21.75 8.57754 21.75 7.47522 21.6335 6.60825C21.5125 5.70814 21.2536 4.95027 20.6517 4.34835C20.0497 3.74643 19.2919 3.48754 18.3918 3.36652C17.5248 3.24996 16.4225 3.24998 15.0549 3.25H15H9ZM4.40901 5.40901C4.68577 5.13225 5.07434 4.9518 5.80812 4.85315C6.56347 4.75159 7.56458 4.75 9 4.75H15C16.4354 4.75 17.4365 4.75159 18.1919 4.85315C18.9257 4.9518 19.3142 5.13225 19.591 5.40901C19.8678 5.68577 20.0482 6.07434 20.1469 6.80812C20.2484 7.56347 20.25 8.56458 20.25 10V18.7865L19.0246 18.1738L18.9454 18.1341C18.1803 17.7515 17.6864 17.5044 17.1471 17.3771C16.6077 17.2498 16.0554 17.2498 15.2 17.25L15.1115 17.25H9C7.56458 17.25 6.56347 17.2484 5.80812 17.1469C5.07434 17.0482 4.68577 16.8678 4.40901 16.591C4.13225 16.3142 3.9518 15.9257 3.85315 15.1919C3.75159 14.4365 3.75 13.4354 3.75 12V10C3.75 8.56458 3.75159 7.56347 3.85315 6.80812C3.9518 6.07434 4.13225 5.68577 4.40901 5.40901ZM9 10.25C8.58579 10.25 8.25 10.5858 8.25 11C8.25 11.4142 8.58579 11.75 9 11.75H15C15.4142 11.75 15.75 11.4142 15.75 11C15.75 10.5858 15.4142 10.25 15 10.25H9Z" fill="#22282F"/>
</svg>
