<svg width="24" height="24" viewBox="0 0 24 24" fill="none" xmlns="http://www.w3.org/2000/svg">
<path fill-rule="evenodd" clip-rule="evenodd" d="M2.75 11C2.75 6.99594 5.99594 3.75 10 3.75C13.0447 3.75 15.6525 5.62743 16.7262 8.28861C16.4876 8.26309 16.2453 8.25 16 8.25C12.2721 8.25 9.25 11.2721 9.25 15C9.25 18.7279 12.2721 21.75 16 21.75H22C22.4142 21.75 22.75 21.4142 22.75 21C22.75 20.8284 22.6924 20.6703 22.5955 20.5439C22.327 20.186 22.1424 19.9394 22.0104 19.7434C21.8775 19.5458 21.8309 19.4465 21.8118 19.388C21.7691 19.2574 21.7602 19.217 21.7561 19.1901C21.752 19.1633 21.7484 19.1221 21.7501 18.9847C21.7506 18.9426 21.7719 18.8024 21.8831 18.4477C21.9877 18.1141 22.1459 17.6668 22.3663 17.0441C22.5822 16.4339 22.75 15.7289 22.75 15C22.75 12.1349 20.9649 9.68669 18.4463 8.70692C17.4386 4.9871 14.0399 2.25 10 2.25C5.16751 2.25 1.25 6.16751 1.25 11C1.25 11.942 1.44725 12.8631 1.70478 13.6685C1.95628 14.455 2.13963 15.0287 2.26281 15.4573C2.39122 15.9041 2.43168 16.1207 2.43567 16.2226C2.4446 16.4508 2.44139 16.5463 2.43035 16.625C2.41932 16.7037 2.39615 16.7964 2.32482 17.0133C2.23804 17.2773 2.01606 17.6238 1.38164 18.5755C1.2986 18.6962 1.25 18.8424 1.25 19C1.25 19.4142 1.58579 19.75 2 19.75H8C8.41421 19.75 8.75 19.4142 8.75 19C8.75 18.5858 8.41421 18.25 8 18.25H3.37965C3.54775 17.9664 3.67196 17.7186 3.74978 17.4819C3.82514 17.2527 3.88505 17.0528 3.91583 16.8332C3.94662 16.6136 3.94395 16.405 3.93452 16.1639C3.92254 15.8581 3.83002 15.4799 3.70445 15.043C3.57439 14.5904 3.3842 13.9956 3.13779 13.225L3.13774 13.2248L3.13352 13.2116C2.9066 12.5019 2.75 11.7405 2.75 11ZM21.25 15C21.25 12.1005 18.8995 9.75 16 9.75C13.1005 9.75 10.75 12.1005 10.75 15C10.75 17.8995 13.1005 20.25 16 20.25H20.5615C20.4908 20.1216 20.4306 19.9906 20.3859 19.8536C20.3394 19.7113 20.2972 19.5726 20.2734 19.4168C20.2495 19.2609 20.2484 19.116 20.2502 18.9663C20.2538 18.6775 20.3437 18.3438 20.4518 17.9989C20.5656 17.6361 20.733 17.163 20.9467 16.5593L20.9522 16.5437C21.1317 16.0365 21.25 15.5063 21.25 15Z" fill="#22282F"/>
</svg>
