<svg width="24" height="24" viewBox="0 0 24 24" fill="none" xmlns="http://www.w3.org/2000/svg">
<path fill-rule="evenodd" clip-rule="evenodd" d="M8 2.25H7.94513C6.57754 2.24998 5.47522 2.24996 4.60825 2.36652C3.70814 2.48754 2.95027 2.74643 2.34835 3.34835C1.74643 3.95027 1.48754 4.70814 1.36652 5.60825C1.24996 6.47522 1.24998 7.57754 1.25 8.94513V9V12V12.0358C1.24999 12.94 1.24998 13.6693 1.3033 14.2576C1.35826 14.8639 1.47455 15.3937 1.7524 15.875C2.08154 16.4451 2.55493 16.9185 3.125 17.2476C3.60625 17.5254 4.13605 17.6417 4.7424 17.6967C5.33069 17.75 6.05998 17.75 6.96423 17.75H7V16.25C6.05158 16.25 5.39041 16.2493 4.87779 16.2028C4.37549 16.1573 4.0899 16.0726 3.875 15.9486C3.53296 15.7511 3.24892 15.467 3.05144 15.125C2.92737 14.9101 2.8427 14.6245 2.79718 14.1222C2.75072 13.6096 2.75 12.9484 2.75 12V9C2.75 7.56458 2.75159 6.56347 2.85315 5.80812C2.9518 5.07435 3.13225 4.68577 3.40901 4.40901C3.68577 4.13225 4.07435 3.9518 4.80812 3.85315C5.56347 3.75159 6.56458 3.75 8 3.75H16C17.4354 3.75 18.4365 3.75159 19.1919 3.85315C19.9257 3.9518 20.3142 4.13225 20.591 4.40901C20.8678 4.68577 21.0482 5.07435 21.1469 5.80812C21.2484 6.56347 21.25 7.56458 21.25 9V12C21.25 12.9484 21.2493 13.6096 21.2028 14.1222C21.1573 14.6245 21.0726 14.9101 20.9486 15.125C20.7511 15.467 20.467 15.7511 20.125 15.9486C19.9101 16.0726 19.6245 16.1573 19.1222 16.2028C18.6096 16.2493 17.9484 16.25 17 16.25V17.75H17.0358C17.94 17.75 18.6693 17.75 19.2576 17.6967C19.8639 17.6417 20.3937 17.5254 20.875 17.2476C21.4451 16.9185 21.9185 16.4451 22.2476 15.875C22.5254 15.3937 22.6417 14.8639 22.6967 14.2576C22.75 13.6693 22.75 12.94 22.75 12.0358V12V9V8.94513C22.75 7.57754 22.75 6.47522 22.6335 5.60825C22.5125 4.70814 22.2536 3.95027 21.6517 3.34835C21.0497 2.74643 20.2919 2.48754 19.3918 2.36652C18.5248 2.24996 17.4225 2.24998 16.0549 2.25H16H8ZM12.5303 15.4697C12.2374 15.1768 11.7626 15.1768 11.4697 15.4697L6.46967 20.4697C6.25517 20.6842 6.191 21.0068 6.30709 21.287C6.42318 21.5673 6.69665 21.75 7 21.75H17C17.3033 21.75 17.5768 21.5673 17.6929 21.287C17.809 21.0068 17.7448 20.6842 17.5303 20.4697L12.5303 15.4697ZM12 17.0607L15.1893 20.25H8.81066L12 17.0607Z" fill="#22282F"/>
</svg>
