<svg width="24" height="24" viewBox="0 0 24 24" fill="none" xmlns="http://www.w3.org/2000/svg">
<path fill-rule="evenodd" clip-rule="evenodd" d="M8.25 5C8.25 2.92893 9.92893 1.25 12 1.25C14.0711 1.25 15.75 2.92893 15.75 5C15.75 6.81422 14.4617 8.32753 12.75 8.67499L12.75 21.2117C16.1551 20.8617 18.8617 18.1551 19.2117 14.75L17 14.75C16.5858 14.75 16.25 14.4142 16.25 14C16.25 13.5858 16.5858 13.25 17 13.25L20 13.25C20.4142 13.25 20.75 13.5858 20.75 14C20.75 18.8325 16.8325 22.75 12 22.75C7.16751 22.75 3.25 18.8325 3.25 14C3.25 13.5858 3.58578 13.25 4 13.25L7 13.25C7.41421 13.25 7.75 13.5858 7.75 14C7.75 14.4142 7.41421 14.75 7 14.75L4.78832 14.75C5.13828 18.1551 7.84488 20.8617 11.25 21.2117L11.25 8.67499C9.53832 8.32754 8.25 6.81422 8.25 5ZM14.25 5C14.25 6.24221 13.2433 7.24931 12.0013 7.25L12 7.25C10.7574 7.25 9.75 6.24264 9.75 5C9.75 3.75736 10.7574 2.75 12 2.75C13.2426 2.75 14.25 3.75736 14.25 5Z" fill="#22282F"/>
</svg>
