<svg width="24" height="24" viewBox="0 0 24 24" fill="none" xmlns="http://www.w3.org/2000/svg">
<path fill-rule="evenodd" clip-rule="evenodd" d="M3.5 2.25H3.47825H3.47824C3.26397 2.24999 3.06712 2.24998 2.90179 2.26126C2.72415 2.27338 2.52881 2.30099 2.33031 2.38321C1.90151 2.56083 1.56083 2.90151 1.38321 3.3303C1.30099 3.52881 1.27338 3.72415 1.26126 3.90179C1.24998 4.06711 1.24999 4.26394 1.25 4.4782V4.47824V4.5V4.52176V4.5218C1.24999 4.73606 1.24998 4.93289 1.26126 5.09821C1.27338 5.27585 1.30099 5.47119 1.38321 5.6697C1.56083 6.0985 1.90151 6.43918 2.33031 6.61679C2.52881 6.69901 2.72415 6.72663 2.90179 6.73875C3.00643 6.74589 3.12369 6.7485 3.25 6.74946V15L3.25 15.0549C3.24998 16.4225 3.24996 17.5248 3.36652 18.3918C3.48754 19.2919 3.74643 20.0497 4.34835 20.6517C4.95027 21.2536 5.70814 21.5125 6.60825 21.6335C7.47522 21.75 8.57754 21.75 9.94513 21.75H10H14H14.0549C15.4225 21.75 16.5248 21.75 17.3918 21.6335C18.2919 21.5125 19.0497 21.2536 19.6517 20.6517C20.2536 20.0497 20.5125 19.2919 20.6335 18.3918C20.75 17.5248 20.75 16.4225 20.75 15.0549V15V6.74946C20.8763 6.7485 20.9936 6.74589 21.0982 6.73875C21.2759 6.72663 21.4712 6.69901 21.6697 6.61679C22.0985 6.43918 22.4392 6.0985 22.6168 5.6697C22.699 5.47119 22.7266 5.27585 22.7387 5.09821C22.75 4.93288 22.75 4.73604 22.75 4.52176V4.5V4.47824C22.75 4.26396 22.75 4.06712 22.7387 3.90179C22.7266 3.72415 22.699 3.52881 22.6168 3.3303C22.4392 2.90151 22.0985 2.56083 21.6697 2.38321C21.4712 2.30099 21.2759 2.27338 21.0982 2.26126C20.9329 2.24998 20.736 2.24999 20.5218 2.25H20.5H3.5ZM19.25 6.75H4.75V15C4.75 16.4354 4.75159 17.4365 4.85315 18.1919C4.9518 18.9257 5.13225 19.3142 5.40901 19.591C5.68577 19.8678 6.07435 20.0482 6.80812 20.1469C7.56347 20.2484 8.56459 20.25 10 20.25H14C15.4354 20.25 16.4365 20.2484 17.1919 20.1469C17.9257 20.0482 18.3142 19.8678 18.591 19.591C18.8678 19.3142 19.0482 18.9257 19.1469 18.1919C19.2484 17.4365 19.25 16.4354 19.25 15V6.75ZM20 5.25H20.5C20.7432 5.25 20.8881 5.24959 20.9961 5.24223C21.0629 5.23767 21.0913 5.23156 21.0987 5.2297C21.1575 5.20442 21.2044 5.15752 21.2297 5.09869C21.2316 5.09134 21.2377 5.06293 21.2422 4.9961C21.2496 4.8881 21.25 4.74323 21.25 4.5C21.25 4.25677 21.2496 4.11191 21.2422 4.0039C21.2377 3.93706 21.2316 3.90866 21.2297 3.90131C21.2044 3.84248 21.1575 3.79558 21.0987 3.7703C21.0913 3.76844 21.0629 3.76234 20.9961 3.75778C20.8881 3.75041 20.7432 3.75 20.5 3.75H3.5C3.25677 3.75 3.11191 3.75041 3.0039 3.75778C2.93707 3.76234 2.90867 3.76844 2.90131 3.7703C2.84248 3.79558 2.79558 3.84248 2.77031 3.90131C2.76844 3.90867 2.76234 3.93707 2.75778 4.0039C2.75041 4.11191 2.75 4.25677 2.75 4.5C2.75 4.74323 2.75041 4.8881 2.75778 4.9961C2.76234 5.06293 2.76844 5.09134 2.77031 5.09869C2.79558 5.15752 2.84248 5.20442 2.90131 5.2297C2.90867 5.23157 2.93707 5.23767 3.0039 5.24223C3.11191 5.24959 3.25677 5.25 3.5 5.25H4H20ZM8.25 10C8.25 9.58579 8.58579 9.25 9 9.25H15C15.4142 9.25 15.75 9.58579 15.75 10C15.75 10.4142 15.4142 10.75 15 10.75H9C8.58579 10.75 8.25 10.4142 8.25 10Z" fill="#22282F"/>
</svg>
