<svg width="24" height="24" viewBox="0 0 24 24" fill="none" xmlns="http://www.w3.org/2000/svg">
<path fill-rule="evenodd" clip-rule="evenodd" d="M0.999908 1.25006L1.49991 1.25L1.5 2L1.50002 1.25C3.30775 1.25004 4.84036 2.5793 5.09602 4.36886L5.65047 8.25H11.5754L13.2834 5.40332L13.3063 5.3651L13.3063 5.36509C13.4779 5.079 13.5962 4.88188 13.7317 4.70656C14.3476 3.90976 15.2582 3.39421 16.2584 3.27599C16.4784 3.24997 16.7083 3.25001 17.0419 3.25006L17.0865 3.25006L17.1735 3.25005C17.939 3.24995 18.4262 3.24988 18.8474 3.32627C20.7957 3.67953 22.3205 5.20432 22.6738 7.15262C22.7502 7.5739 22.7501 8.06105 22.75 8.82657L22.75 8.91358V9C22.75 9.04687 22.7457 9.09274 22.7375 9.13723L22.7332 9.16275L22.7332 9.16279L22.7332 9.16288C22.5283 10.3926 22.3653 11.3707 22.1552 12.146C21.9391 12.9432 21.6562 13.5965 21.1701 14.1463C20.8675 14.4885 20.5172 14.7853 20.1299 15.0275C19.5077 15.4166 18.8168 15.5882 17.9948 15.6703C17.1955 15.7501 16.2039 15.7501 14.9572 15.7501H14.9172H12.0828H12.0428C10.7961 15.7501 9.80448 15.7501 9.00518 15.6703C8.18321 15.5882 7.4923 15.4166 6.87006 15.0275C6.4828 14.7853 6.13248 14.4885 5.82994 14.1463C5.34384 13.5965 5.06091 12.9432 4.84485 12.146C4.63474 11.3707 4.47174 10.3926 4.26679 9.1628L4.26678 9.16278L4.26678 9.16277L4.2602 9.1233L5 9L4.25754 9.10607L3.61109 4.581C3.46101 3.53043 2.56131 2.75008 1.50009 2.75H1.50006H1.49998L1.00009 2.75006C0.585878 2.75011 0.250051 2.41437 0.25 2.00015C0.249949 1.58594 0.585695 1.25011 0.999908 1.25006ZM21.1135 9.75H13H12H5.88654C6.02917 10.5847 6.15044 11.2289 6.29263 11.7536C6.47715 12.4345 6.6796 12.8428 6.9537 13.1528C7.1607 13.3869 7.40039 13.59 7.66536 13.7556C8.01623 13.9751 8.4522 14.1076 9.15418 14.1777C9.8703 14.2492 10.7871 14.2501 12.0828 14.2501H14.9172C16.2129 14.2501 17.1297 14.2492 17.8458 14.1777C18.5478 14.1076 18.9838 13.9751 19.3346 13.7556C19.5996 13.59 19.8393 13.3869 20.0463 13.1528C20.3204 12.8428 20.5228 12.4345 20.7074 11.7536C20.8496 11.2289 20.9708 10.5847 21.1135 9.75ZM7.75 20C7.75 19.3096 8.30964 18.75 9 18.75C9.69036 18.75 10.25 19.3096 10.25 20C10.25 20.6904 9.69036 21.25 9 21.25C8.30964 21.25 7.75 20.6904 7.75 20ZM9 17.25C7.48122 17.25 6.25 18.4812 6.25 20C6.25 21.5188 7.48122 22.75 9 22.75C10.5188 22.75 11.75 21.5188 11.75 20C11.75 18.4812 10.5188 17.25 9 17.25ZM17.75 20C17.75 19.3096 18.3096 18.75 19 18.75C19.6904 18.75 20.25 19.3096 20.25 20C20.25 20.6904 19.6904 21.25 19 21.25C18.3096 21.25 17.75 20.6904 17.75 20ZM19 17.25C17.4812 17.25 16.25 18.4812 16.25 20C16.25 21.5188 17.4812 22.75 19 22.75C20.5188 22.75 21.75 21.5188 21.75 20C21.75 18.4812 20.5188 17.25 19 17.25ZM17.0865 4.75006C17.9681 4.75006 18.309 4.75309 18.5798 4.8022C19.9129 5.04391 20.9562 6.08718 21.1979 7.42023C21.2321 7.60931 21.244 7.83252 21.248 8.25H13.3247L14.5696 6.17507C14.7728 5.83649 14.8438 5.72052 14.9184 5.62396C15.288 5.14588 15.8343 4.83655 16.4344 4.76562C16.5556 4.75129 16.6916 4.75006 17.0865 4.75006Z" fill="#22282F"/>
</svg>
