<svg width="24" height="24" viewBox="0 0 24 24" fill="none" xmlns="http://www.w3.org/2000/svg">
<path fill-rule="evenodd" clip-rule="evenodd" d="M7.94512 5.25L8 5.25L14 5.25L14.0549 5.25C15.4225 5.24998 16.5248 5.24997 17.3918 5.36653C18.2919 5.48754 19.0497 5.74644 19.6517 6.34835C20.1732 6.86992 20.4372 7.50858 20.5772 8.25542C20.7453 8.26164 20.8958 8.27486 21.0365 8.30284C22.1274 8.51983 22.9802 9.3726 23.1972 10.4635C23.2504 10.731 23.2502 11.034 23.25 11.4267L23.25 11.5L23.25 12.5L23.25 12.5733C23.2502 12.966 23.2504 13.269 23.1972 13.5365C22.9802 14.6274 22.1274 15.4802 21.0365 15.6972C20.8958 15.7251 20.7453 15.7384 20.5772 15.7446C20.4372 16.4914 20.1732 17.1301 19.6517 17.6517C19.0497 18.2536 18.2919 18.5125 17.3917 18.6335C16.5248 18.75 15.4225 18.75 14.0549 18.75L14.0549 18.75L14 18.75L8 18.75L7.94513 18.75L7.94512 18.75L7.94511 18.75L7.9451 18.75L7.9451 18.75C6.57752 18.75 5.47521 18.75 4.60825 18.6335C3.70814 18.5125 2.95027 18.2536 2.34835 17.6517C1.74643 17.0497 1.48754 16.2919 1.36652 15.3918C1.24996 14.5248 1.24998 13.4225 1.25 12.0549L1.25 12L1.25 11.9451C1.24998 10.5775 1.24996 9.47522 1.36652 8.60825C1.48754 7.70814 1.74643 6.95027 2.34835 6.34835C2.95027 5.74644 3.70814 5.48754 4.60825 5.36653C5.47521 5.24997 6.57752 5.24998 7.94509 5.25L7.94512 5.25ZM20.7251 14.2294C20.7316 14.2283 20.7378 14.2272 20.7439 14.226C21.2397 14.1273 21.6273 13.7397 21.726 13.2439C21.7464 13.1414 21.75 13.0006 21.75 12.5L21.75 11.5C21.75 10.9994 21.7464 10.8586 21.726 10.7561C21.6273 10.2603 21.2397 9.87265 20.7439 9.77402C20.7378 9.77281 20.7316 9.77166 20.7251 9.77056C20.75 10.4049 20.75 11.1276 20.75 11.9451L20.75 12L20.75 12.0549L20.75 12.0549C20.75 12.8724 20.75 13.5951 20.7251 14.2294ZM4.80812 6.85315C4.07434 6.9518 3.68577 7.13225 3.40901 7.40901C3.13225 7.68578 2.9518 8.07435 2.85315 8.80812C2.75159 9.56347 2.75 10.5646 2.75 12C2.75 13.4354 2.75159 14.4365 2.85315 15.1919C2.9518 15.9257 3.13225 16.3142 3.40901 16.591C3.68577 16.8678 4.07434 17.0482 4.80812 17.1469C5.56347 17.2484 6.56458 17.25 8 17.25L14 17.25C15.4354 17.25 16.4365 17.2484 17.1919 17.1469C17.9257 17.0482 18.3142 16.8678 18.591 16.591C18.8678 16.3142 19.0482 15.9257 19.1469 15.1919C19.2484 14.4365 19.25 13.4354 19.25 12C19.25 10.5646 19.2484 9.56347 19.1469 8.80812C19.0482 8.07435 18.8678 7.68578 18.591 7.40901C18.3142 7.13225 17.9257 6.9518 17.1919 6.85315C16.4365 6.7516 15.4354 6.75 14 6.75L8 6.75C6.56458 6.75 5.56347 6.7516 4.80812 6.85315ZM6 9.25C6.41421 9.25 6.75 9.58579 6.75 10L6.75 14C6.75 14.4142 6.41421 14.75 6 14.75C5.58579 14.75 5.25 14.4142 5.25 14L5.25 10C5.25 9.58579 5.58579 9.25 6 9.25ZM11.75 10C11.75 9.58579 11.4142 9.25 11 9.25C10.5858 9.25 10.25 9.58579 10.25 10L10.25 14C10.25 14.4142 10.5858 14.75 11 14.75C11.4142 14.75 11.75 14.4142 11.75 14L11.75 10ZM16 9.25C16.4142 9.25 16.75 9.58579 16.75 10L16.75 14C16.75 14.4142 16.4142 14.75 16 14.75C15.5858 14.75 15.25 14.4142 15.25 14L15.25 10C15.25 9.58579 15.5858 9.25 16 9.25Z" fill="#22282F"/>
</svg>
