<svg width="24" height="24" viewBox="0 0 24 24" fill="none" xmlns="http://www.w3.org/2000/svg">
<path fill-rule="evenodd" clip-rule="evenodd" d="M11.7115 6.23713C11.8425 5.84417 11.6301 5.41943 11.2372 5.28845C10.8442 5.15746 10.4195 5.36983 10.2885 5.76279L8.28849 11.7628C8.21225 11.9915 8.2506 12.2429 8.39157 12.4385C8.53253 12.6341 8.75892 12.75 9 12.75L11.9594 12.75L10.2885 17.7628C10.1575 18.1557 10.3699 18.5805 10.7628 18.7115C11.1558 18.8425 11.5805 18.6301 11.7115 18.2371L13.7115 12.2371C13.7877 12.0084 13.7494 11.757 13.6084 11.5614C13.4675 11.3659 13.2411 11.25 13 11.25L10.0406 11.25L11.7115 6.23713ZM6.47337 5.24996L6.5 5.24996L7 5.24996C7.41421 5.24996 7.75 5.58575 7.75 5.99996C7.75 6.41418 7.41421 6.74996 7 6.74996L6.5 6.74996C5.79083 6.74996 5.29651 6.75037 4.90959 6.77677C4.5294 6.80271 4.308 6.85122 4.13896 6.92123C3.58765 7.1496 3.14963 7.58761 2.92127 8.13893C2.85125 8.30796 2.80275 8.52937 2.77681 8.90955C2.75041 9.29647 2.75 9.79079 2.75 10.5L2.75 13.5C2.75 14.2091 2.75041 14.7035 2.77681 15.0904C2.80275 15.4706 2.85125 15.692 2.92127 15.861C3.14963 16.4123 3.58765 16.8503 4.13896 17.0787C4.308 17.1487 4.5294 17.1972 4.90959 17.2232C5.29651 17.2496 5.79083 17.25 6.5 17.25L7 17.25C7.41421 17.25 7.75 17.5858 7.75 18C7.75 18.4142 7.41421 18.75 7 18.75L6.5 18.75L6.47336 18.75C5.79704 18.75 5.25149 18.75 4.80748 18.7197C4.35092 18.6885 3.94721 18.6229 3.56494 18.4645C2.64608 18.0839 1.91606 17.3539 1.53545 16.435C1.37711 16.0528 1.31144 15.649 1.28029 15.1925C1.24999 14.7485 1.25 14.2029 1.25 13.5266L1.25 13.5L1.25 10.5L1.25 10.4733C1.25 9.79701 1.24999 9.25145 1.28029 8.80744C1.31144 8.35089 1.37711 7.94718 1.53545 7.5649C1.91606 6.64605 2.64608 5.91602 3.56494 5.53542C3.94721 5.37707 4.35092 5.3114 4.80748 5.28025C5.25149 5.24995 5.79705 5.24996 6.47337 5.24996ZM17.0904 6.77677C16.7035 6.75037 16.2092 6.74996 15.5 6.74996L15 6.74996C14.5858 6.74996 14.25 6.41418 14.25 5.99996C14.25 5.58575 14.5858 5.24996 15 5.24996L15.5 5.24996L15.5266 5.24996C16.203 5.24996 16.7485 5.24995 17.1925 5.28025C17.6491 5.3114 18.0528 5.37707 18.4351 5.53542C19.3539 5.91602 20.0839 6.64605 20.4645 7.5649C20.5565 7.78698 20.6173 8.0163 20.6581 8.25901C20.7942 8.26631 20.9188 8.27938 21.0365 8.3028C22.1274 8.51979 22.9802 9.37256 23.1972 10.4635C23.2504 10.731 23.2502 11.034 23.25 11.4267L23.25 11.5L23.25 12.5L23.25 12.5732C23.2502 12.966 23.2504 13.269 23.1972 13.5365C22.9802 14.6274 22.1274 15.4801 21.0365 15.6971C20.9243 15.7194 20.8058 15.7324 20.677 15.7399C20.3335 17.4566 18.8178 18.75 17 18.75L15.5 18.75L15 18.75C14.5858 18.75 14.25 18.4142 14.25 18C14.25 17.5858 14.5858 17.25 15 17.25L15.5 17.25L17 17.25C18.2426 17.25 19.25 16.2426 19.25 15L19.25 10.5C19.25 9.79079 19.2496 9.29647 19.2232 8.90955C19.1973 8.52937 19.1487 8.30796 19.0787 8.13893C18.8504 7.58761 18.4124 7.1496 17.861 6.92123C17.692 6.85122 17.4706 6.80271 17.0904 6.77677ZM20.75 10.4715C20.75 10.222 20.75 9.99027 20.7485 9.77491C21.2421 9.87502 21.6277 10.2618 21.726 10.7561C21.7464 10.8586 21.75 10.9994 21.75 11.5L21.75 12.5C21.75 13.0006 21.7464 13.1413 21.726 13.2438C21.6278 13.7376 21.2429 14.1241 20.75 14.2247L20.75 10.5L20.75 10.4733L20.75 10.4715Z" fill="#22282F"/>
</svg>
