<svg width="24" height="24" viewBox="0 0 24 24" fill="none" xmlns="http://www.w3.org/2000/svg">
<path fill-rule="evenodd" clip-rule="evenodd" d="M8 5.25L7.94512 5.25L7.94509 5.25C6.57752 5.24998 5.47521 5.24997 4.60825 5.36653C3.70814 5.48754 2.95027 5.74644 2.34835 6.34835C1.74643 6.95027 1.48754 7.70814 1.36652 8.60825C1.24996 9.47522 1.24998 10.5775 1.25 11.9451L1.25 12L1.25 12.0549C1.24998 13.4225 1.24996 14.5248 1.36652 15.3918C1.48754 16.2919 1.74643 17.0497 2.34835 17.6517C2.95027 18.2536 3.70814 18.5125 4.60825 18.6335C5.47521 18.75 6.57752 18.75 7.9451 18.75L7.94511 18.75L7.94512 18.75L7.94513 18.75L8 18.75L14 18.75L14.0549 18.75L14.0549 18.75C15.4225 18.75 16.5248 18.75 17.3917 18.6335C18.2919 18.5125 19.0497 18.2536 19.6517 17.6517C20.1732 17.1301 20.4372 16.4914 20.5772 15.7446C20.7453 15.7384 20.8958 15.7251 21.0365 15.6972C22.1274 15.4802 22.9802 14.6274 23.1972 13.5365C23.2504 13.269 23.2502 12.966 23.25 12.5733L23.25 12.5L23.25 11.5L23.25 11.4267C23.2502 11.034 23.2504 10.731 23.1972 10.4635C22.9802 9.3726 22.1274 8.51983 21.0365 8.30284C20.8958 8.27486 20.7453 8.26164 20.5772 8.25542C20.4372 7.50858 20.1732 6.86992 19.6517 6.34835C19.0497 5.74644 18.2919 5.48754 17.3918 5.36653C16.5248 5.24997 15.4225 5.24998 14.0549 5.25L14 5.25L8 5.25ZM20.7251 9.77056C20.75 10.4049 20.75 11.1276 20.75 11.9451L20.75 12L20.75 12.0549L20.75 12.0549C20.75 12.8724 20.75 13.5951 20.7251 14.2294C20.7316 14.2283 20.7378 14.2272 20.7439 14.226C21.2397 14.1273 21.6273 13.7397 21.726 13.2439C21.7464 13.1414 21.75 13.0006 21.75 12.5L21.75 11.5C21.75 10.9994 21.7464 10.8586 21.726 10.7561C21.6273 10.2603 21.2397 9.87265 20.7439 9.77402C20.7378 9.77281 20.7316 9.77166 20.7251 9.77056ZM3.40901 7.40901C3.68577 7.13225 4.07434 6.9518 4.80812 6.85315C5.56347 6.7516 6.56458 6.75 8 6.75L14 6.75C15.4354 6.75 16.4365 6.7516 17.1919 6.85315C17.9257 6.9518 18.3142 7.13225 18.591 7.40901C18.8678 7.68578 19.0482 8.07435 19.1469 8.80812C19.2484 9.56347 19.25 10.5646 19.25 12C19.25 13.4354 19.2484 14.4365 19.1469 15.1919C19.0482 15.9257 18.8678 16.3142 18.591 16.591C18.3142 16.8678 17.9257 17.0482 17.1919 17.1469C16.4365 17.2484 15.4354 17.25 14 17.25L8 17.25C6.56458 17.25 5.56347 17.2484 4.80812 17.1469C4.07434 17.0482 3.68577 16.8678 3.40901 16.591C3.13225 16.3142 2.9518 15.9257 2.85315 15.1919C2.75159 14.4365 2.75 13.4354 2.75 12C2.75 10.5646 2.75159 9.56347 2.85315 8.80812C2.9518 8.07435 3.13225 7.68578 3.40901 7.40901ZM6.75 10C6.75 9.58579 6.41421 9.25 6 9.25C5.58579 9.25 5.25 9.58579 5.25 10L5.25 14C5.25 14.4142 5.58579 14.75 6 14.75C6.41421 14.75 6.75 14.4142 6.75 14L6.75 10ZM11 9.25C11.4142 9.25 11.75 9.58579 11.75 10L11.75 14C11.75 14.4142 11.4142 14.75 11 14.75C10.5858 14.75 10.25 14.4142 10.25 14L10.25 10C10.25 9.58579 10.5858 9.25 11 9.25Z" fill="#22282F"/>
</svg>
