<svg width="24" height="24" viewBox="0 0 24 24" fill="none" xmlns="http://www.w3.org/2000/svg">
<path fill-rule="evenodd" clip-rule="evenodd" d="M3.53033 2.46967C3.23744 2.17678 2.76256 2.17678 2.46967 2.46967C2.17678 2.76256 2.17678 3.23744 2.46967 3.53033L4.26507 5.32573C4.18401 5.34016 4.10571 5.35734 4.02943 5.37778C2.73533 5.72453 1.72453 6.73533 1.37778 8.02943C1.24952 8.50809 1.24971 9.06624 1.24998 9.88421L1.25 10L1.25 12L1.25 12.0549L1.25 12.0549C1.24998 13.4225 1.24996 14.5248 1.36652 15.3918C1.48754 16.2919 1.74643 17.0497 2.34835 17.6517C2.95027 18.2536 3.70814 18.5125 4.60825 18.6335C5.47522 18.75 6.57754 18.75 7.94513 18.75L8 18.75L17.6893 18.75L20.4697 21.5303C20.7626 21.8232 21.2374 21.8232 21.5303 21.5303C21.8232 21.2374 21.8232 20.7626 21.5303 20.4697L18.5303 17.4697L6.53033 5.46967L3.53033 2.46967ZM4.41766 6.82667C4.64989 6.76444 4.94487 6.7523 5.68968 6.75034L16.1893 17.25L8 17.25C6.56458 17.25 5.56347 17.2484 4.80812 17.1469C4.07435 17.0482 3.68577 16.8678 3.40901 16.591C3.13225 16.3142 2.9518 15.9257 2.85315 15.1919C2.75159 14.4365 2.75 13.4354 2.75 12L2.75 10C2.75 9.02174 2.75644 8.67974 2.82667 8.41766C3.03472 7.6412 3.6412 7.03472 4.41766 6.82667ZM14 6.75C15.4354 6.75 16.4365 6.75159 17.1919 6.85315C17.9257 6.9518 18.3142 7.13225 18.591 7.40901C18.8678 7.68577 19.0482 8.07435 19.1469 8.80812C19.2484 9.56347 19.25 10.5646 19.25 12L19.25 15C19.25 15.4142 19.5858 15.75 20 15.75C20.0006 15.75 20.0012 15.75 20.0019 15.75L20.0733 15.75C20.466 15.7502 20.769 15.7504 21.0365 15.6972C22.1274 15.4802 22.9802 14.6274 23.1972 13.5365C23.2504 13.269 23.2502 12.966 23.25 12.5733L23.25 12.5733L23.25 12.5L23.25 11.5L23.25 11.4267L23.25 11.4267C23.2502 11.034 23.2504 10.731 23.1972 10.4635C22.9802 9.3726 22.1274 8.51983 21.0365 8.30284C20.8958 8.27486 20.7453 8.26164 20.5772 8.25541C20.4372 7.50858 20.1732 6.86991 19.6517 6.34835C19.0497 5.74643 18.2919 5.48754 17.3918 5.36652C16.5248 5.24996 15.4225 5.24998 14.0549 5.25L14 5.25L10 5.25C9.58579 5.25 9.25 5.58579 9.25 6C9.25 6.41421 9.58579 6.75 10 6.75L14 6.75ZM20.7251 9.77056C20.75 10.4049 20.75 11.1276 20.75 11.9451L20.75 12L20.75 14.2247C21.2429 14.1241 21.6278 13.7377 21.726 13.2439C21.7464 13.1414 21.75 13.0006 21.75 12.5L21.75 11.5C21.75 10.9994 21.7464 10.8586 21.726 10.7561C21.6273 10.2603 21.2397 9.87265 20.7439 9.77402C20.7378 9.7728 20.7316 9.77166 20.7251 9.77056Z" fill="#22282F"/>
</svg>
