<svg width="24" height="24" viewBox="0 0 24 24" fill="none" xmlns="http://www.w3.org/2000/svg">
<path fill-rule="evenodd" clip-rule="evenodd" d="M8 3.25H7.948C7.04952 3.24997 6.3003 3.24995 5.70552 3.32991C5.07773 3.41432 4.51093 3.59999 4.05546 4.05546C3.59999 4.51093 3.41432 5.07773 3.32991 5.70552C3.24995 6.3003 3.24997 7.04952 3.25 7.948L3.25 8V11.4141C2.80316 11.5231 2.39785 11.7131 2.05546 12.0555C1.59999 12.5109 1.41432 13.0777 1.32991 13.7055C1.28312 14.0536 1.26372 14.4545 1.25568 14.9073C1.25193 14.9377 1.25 14.9686 1.25 15V15.8587C1.25 15.8883 1.25 15.9181 1.25 15.948V16V17V21C1.25 21.4142 1.58579 21.75 2 21.75C2.41421 21.75 2.75 21.4142 2.75 21V17.75H21.25V21C21.25 21.4142 21.5858 21.75 22 21.75C22.4142 21.75 22.75 21.4142 22.75 21V17V16V15.948C22.75 15.9177 22.75 15.8876 22.75 15.8576V15C22.75 14.9686 22.7481 14.9377 22.7443 14.9073C22.7363 14.4545 22.7169 14.0536 22.6701 13.7055C22.5857 13.0777 22.4 12.5109 21.9445 12.0555C21.6021 11.7131 21.1968 11.5231 20.75 11.4141V8V7.94801C20.75 7.04952 20.7501 6.3003 20.6701 5.70552C20.5857 5.07773 20.4 4.51093 19.9445 4.05546C19.4891 3.59999 18.9223 3.41432 18.2945 3.32991C17.6997 3.24995 16.9505 3.24997 16.052 3.25H16H8ZM18 12.75H17H16H14.4L12 12.75L9.6 12.75H8H7H6C5.03599 12.75 4.38843 12.7516 3.90539 12.8165C3.44393 12.8786 3.24643 12.9858 3.11612 13.1161C2.9858 13.2464 2.87858 13.4439 2.81654 13.9054C2.75159 14.3884 2.75 15.036 2.75 16V16.25H21.25V16C21.25 15.036 21.2484 14.3884 21.1835 13.9054C21.1214 13.4439 21.0142 13.2464 20.8839 13.1161C20.7536 12.9858 20.5561 12.8786 20.0946 12.8165C19.6116 12.7516 18.964 12.75 18 12.75ZM18.1529 11.25H19.25V8C19.25 7.03599 19.2484 6.38843 19.1835 5.90539C19.1214 5.44393 19.0142 5.24643 18.8839 5.11612C18.7536 4.9858 18.5561 4.87858 18.0946 4.81654C17.6116 4.75159 16.964 4.75 16 4.75H8C7.03599 4.75 6.38843 4.75159 5.90539 4.81654C5.44393 4.87858 5.24643 4.9858 5.11612 5.11612C4.9858 5.24643 4.87858 5.44393 4.81654 5.90539C4.75159 6.38843 4.75 7.03599 4.75 8V11.25H5.84713C5.88054 11.25 5.91417 11.25 5.948 11.25L6 11.25H6.25157C6.25584 10.6545 6.27163 10.139 6.32991 9.70552C6.41432 9.07773 6.59999 8.51093 7.05546 8.05546C7.51093 7.59999 8.07773 7.41432 8.70552 7.32991C9.3003 7.24995 10.0495 7.24997 10.948 7.25L11 7.25H11.9988L12 7.25L12.0012 7.25H13L13.052 7.25C13.9505 7.24997 14.6997 7.24995 15.2945 7.32991C15.9223 7.41432 16.4891 7.59999 16.9445 8.05546C17.4 8.51093 17.5857 9.07773 17.6701 9.70552C17.7284 10.139 17.7442 10.6545 17.7484 11.25H18L18.052 11.25C18.0858 11.25 18.1195 11.25 18.1529 11.25ZM16.2482 11.25C16.244 10.6806 16.2299 10.2509 16.1835 9.90539C16.1214 9.44393 16.0142 9.24643 15.8839 9.11612C15.7536 8.9858 15.5561 8.87858 15.0946 8.81654C14.6116 8.75159 13.964 8.75 13 8.75H12.75V11.25H14.4H16H16.2482ZM11.25 11.25V8.75H11C10.036 8.75 9.38843 8.75159 8.90539 8.81654C8.44393 8.87858 8.24643 8.9858 8.11612 9.11612C7.9858 9.24643 7.87858 9.44393 7.81654 9.90539C7.77009 10.2509 7.75604 10.6806 7.75181 11.25H8H9.6H11.25Z" fill="#22282F"/>
</svg>
