<svg width="24" height="24" viewBox="0 0 24 24" fill="none" xmlns="http://www.w3.org/2000/svg">
<path fill-rule="evenodd" clip-rule="evenodd" d="M2 4.25C2.41421 4.25 2.75 4.58579 2.75 5V12.25H11.25V7C11.25 6.58579 11.5858 6.25 12 6.25H16L16.0549 6.25C17.4225 6.24998 18.5248 6.24996 19.3918 6.36652C20.2919 6.48754 21.0497 6.74643 21.6516 7.34835C22.2536 7.95027 22.5125 8.70814 22.6335 9.60825C22.75 10.4752 22.75 11.5775 22.75 12.9451V13V19C22.75 19.4142 22.4142 19.75 22 19.75C21.5858 19.75 21.25 19.4142 21.25 19V13.75H12H2.75V19C2.75 19.4142 2.41421 19.75 2 19.75C1.58579 19.75 1.25 19.4142 1.25 19V13V5C1.25 4.58579 1.58579 4.25 2 4.25ZM21.2492 12.25H12.75V7.75H16C17.4354 7.75 18.4365 7.75159 19.1919 7.85315C19.9257 7.9518 20.3142 8.13225 20.591 8.40901C20.8678 8.68577 21.0482 9.07434 21.1469 9.80812C21.2297 10.4244 21.246 11.2042 21.2492 12.25ZM5.75 8C5.75 7.30964 6.30964 6.75 7 6.75C7.69036 6.75 8.25 7.30964 8.25 8C8.25 8.69036 7.69036 9.25 7 9.25C6.30964 9.25 5.75 8.69036 5.75 8ZM7 5.25C5.48122 5.25 4.25 6.48122 4.25 8C4.25 9.51878 5.48122 10.75 7 10.75C8.51878 10.75 9.75 9.51878 9.75 8C9.75 6.48122 8.51878 5.25 7 5.25Z" fill="#22282F"/>
</svg>
