<svg width="24" height="24" viewBox="0 0 24 24" fill="none" xmlns="http://www.w3.org/2000/svg">
<path fill-rule="evenodd" clip-rule="evenodd" d="M8 3.25H7.94513H7.94512C6.57753 3.24998 5.47521 3.24996 4.60825 3.36652C3.70814 3.48754 2.95027 3.74643 2.34835 4.34835C1.74643 4.95027 1.48754 5.70814 1.36652 6.60825C1.24996 7.47522 1.24998 8.57754 1.25 9.94513V10V18L1.25 18.0447C1.24995 18.4776 1.2499 18.8744 1.2933 19.1972C1.34109 19.5527 1.45354 19.9284 1.76256 20.2374C2.07159 20.5465 2.44731 20.6589 2.80279 20.7067C3.1256 20.7501 3.52244 20.7501 3.95526 20.75L4 20.75H5.76393L5.79508 20.75C6.06892 20.75 6.3282 20.7501 6.54786 20.7274C6.79311 20.702 7.05105 20.6437 7.302 20.4886C7.55294 20.3335 7.72041 20.1289 7.85277 19.9209C7.9713 19.7346 8.08721 19.5027 8.20963 19.2578L8.20968 19.2577L8.20968 19.2577L8.22361 19.2298L9.11803 17.441C9.2594 17.1583 9.34091 16.9973 9.41277 16.8844C9.44503 16.8337 9.46566 16.8086 9.47662 16.7968L9.48163 16.7917L9.48542 16.7882L9.4866 16.7873L9.48791 16.7867L9.4918 16.7852L9.49957 16.7827C9.51501 16.7781 9.54663 16.7709 9.60641 16.7647C9.73956 16.7509 9.91997 16.75 10.2361 16.75H13.7639C14.08 16.75 14.2604 16.7509 14.3936 16.7647C14.4534 16.7709 14.485 16.7781 14.5004 16.7827C14.5046 16.7839 14.5076 16.7849 14.5095 16.7856L14.5121 16.7867L14.5134 16.7873L14.5146 16.7882C14.5154 16.7889 14.5183 16.7913 14.5234 16.7968C14.5343 16.8086 14.555 16.8337 14.5872 16.8844C14.6591 16.9973 14.7406 17.1583 14.882 17.441L15.7764 19.2298L15.7903 19.2577C15.9128 19.5027 16.0287 19.7346 16.1472 19.9209C16.2796 20.1289 16.4471 20.3335 16.698 20.4886C16.949 20.6437 17.2069 20.702 17.4521 20.7274C17.6718 20.7501 17.9311 20.75 18.2049 20.75L18.2361 20.75H20L20.0447 20.75C20.4776 20.7501 20.8744 20.7501 21.1972 20.7067C21.5527 20.6589 21.9284 20.5465 22.2374 20.2374C22.5465 19.9284 22.6589 19.5527 22.7067 19.1972C22.7501 18.8744 22.7501 18.4776 22.75 18.0447L22.75 18V10V9.94513C22.75 8.57754 22.75 7.47522 22.6335 6.60825C22.5125 5.70814 22.2536 4.95027 21.6517 4.34835C21.0497 3.74643 20.2919 3.48754 19.3918 3.36652C18.5248 3.24996 17.4225 3.24998 16.0549 3.25H16H8ZM3.40901 5.40901C3.68577 5.13225 4.07434 4.9518 4.80812 4.85315C5.56347 4.75159 6.56458 4.75 8 4.75H16C17.4354 4.75 18.4365 4.75159 19.1919 4.85315C19.9257 4.9518 20.3142 5.13225 20.591 5.40901C20.8678 5.68577 21.0482 6.07435 21.1469 6.80812C21.2484 7.56347 21.25 8.56459 21.25 10V11.25H18.75V11V10.9747C18.75 10.5303 18.75 10.1592 18.7292 9.85464C18.7076 9.53754 18.661 9.23801 18.5407 8.94762C18.2616 8.27379 17.7262 7.73844 17.0524 7.45933C16.762 7.33905 16.4625 7.29241 16.1454 7.27077C15.8408 7.24999 15.4697 7.24999 15.0253 7.25H15H14.9747C14.5303 7.24999 14.1592 7.24999 13.8546 7.27077C13.5375 7.29241 13.238 7.33905 12.9476 7.45933C12.5857 7.60924 12.2638 7.83306 12 8.11254C11.7362 7.83306 11.4143 7.60924 11.0524 7.45933C10.762 7.33905 10.4625 7.29241 10.1454 7.27077C9.84075 7.24999 9.46971 7.24999 9.02525 7.25H9H8.97475C8.53029 7.24999 8.15925 7.24999 7.85463 7.27077C7.53753 7.29241 7.23801 7.33905 6.94762 7.45933C6.27379 7.73844 5.73844 8.27379 5.45933 8.94762C5.33905 9.23801 5.2924 9.53754 5.27077 9.85464C5.24999 10.1592 5.24999 10.5303 5.25 10.9748L5.25 11V11.25H2.75V10C2.75 8.56459 2.75159 7.56347 2.85315 6.80812C2.9518 6.07435 3.13225 5.68577 3.40901 5.40901ZM18 12.75H12H6H2.75V18C2.75 18.4926 2.75159 18.7866 2.77992 18.9973C2.79291 19.0939 2.8082 19.1423 2.81716 19.164C2.81923 19.1691 2.82085 19.1724 2.82186 19.1743L2.82317 19.1767C2.82277 19.1763 2.8228 19.1763 2.82307 19.1767L2.82284 19.1765L2.82317 19.1767L2.8232 19.1768L2.82346 19.177L2.82347 19.1772L2.82355 19.1771C2.82362 19.1772 2.8236 19.1771 2.82346 19.177L2.82322 19.1768L2.82324 19.1768L2.82346 19.1769L2.82567 19.1781C2.8276 19.1792 2.83092 19.1808 2.83596 19.1828C2.85774 19.1918 2.90611 19.2071 3.00266 19.2201C3.21339 19.2484 3.50739 19.25 4 19.25H5.76393C6.08003 19.25 6.26044 19.2491 6.39359 19.2353C6.45337 19.2291 6.48499 19.2219 6.50043 19.2173C6.50534 19.2159 6.50852 19.2148 6.51035 19.214L6.51209 19.2133L6.5134 19.2127L6.51458 19.2118C6.51539 19.2111 6.51826 19.2087 6.52338 19.2032C6.53434 19.1914 6.55497 19.1663 6.58723 19.1156C6.65909 19.0027 6.7406 18.8417 6.88197 18.559L7.77639 16.7702L7.79032 16.7423C7.91276 16.4974 8.02868 16.2654 8.14723 16.0791C8.27959 15.8711 8.44706 15.6665 8.698 15.5114C8.94895 15.3563 9.20689 15.298 9.45214 15.2726C9.67179 15.2499 9.93106 15.25 10.2049 15.25H10.2049L10.2361 15.25H13.7639L13.7951 15.25H13.7951C14.0689 15.25 14.3282 15.2499 14.5479 15.2726C14.7931 15.298 15.051 15.3563 15.302 15.5114C15.5529 15.6665 15.7204 15.8711 15.8528 16.0791C15.9713 16.2654 16.0872 16.4973 16.2097 16.7423L16.2236 16.7702L17.118 18.559C17.2594 18.8417 17.3409 19.0027 17.4128 19.1156C17.445 19.1663 17.4657 19.1914 17.4766 19.2032C17.4817 19.2087 17.4846 19.2111 17.4854 19.2118L17.4866 19.2127L17.4879 19.2133L17.4909 19.2145C17.4928 19.2152 17.4956 19.2162 17.4996 19.2173C17.515 19.2219 17.5466 19.2291 17.6064 19.2353C17.7396 19.2491 17.92 19.25 18.2361 19.25H20C20.4926 19.25 20.7866 19.2484 20.9973 19.2201C21.0939 19.2071 21.1423 19.1918 21.164 19.1828C21.1691 19.1808 21.1724 19.1791 21.1743 19.1781L21.1768 19.1768L21.1781 19.1743L21.1796 19.1715L21.1828 19.164C21.1918 19.1423 21.2071 19.0939 21.2201 18.9973C21.2484 18.7866 21.25 18.4926 21.25 18V12.75H18ZM11.25 11.25V11C11.25 10.5238 11.2496 10.2042 11.2327 9.95674C11.2163 9.71602 11.1868 9.5988 11.1548 9.52165C11.028 9.21536 10.7846 8.97202 10.4784 8.84515C10.4012 8.81319 10.284 8.78372 10.0433 8.76729C9.79579 8.75041 9.4762 8.75 9 8.75C8.5238 8.75 8.20421 8.75041 7.95674 8.76729C7.71601 8.78372 7.5988 8.81319 7.52165 8.84515C7.21536 8.97202 6.97202 9.21536 6.84515 9.52165C6.81319 9.5988 6.78371 9.71602 6.76729 9.95674C6.75041 10.2042 6.75 10.5238 6.75 11V11.25H11.25ZM17.25 11.25V11C17.25 10.5238 17.2496 10.2042 17.2327 9.95674C17.2163 9.71602 17.1868 9.5988 17.1549 9.52165C17.028 9.21536 16.7846 8.97202 16.4784 8.84515C16.4012 8.81319 16.284 8.78372 16.0433 8.76729C15.7958 8.75041 15.4762 8.75 15 8.75C14.5238 8.75 14.2042 8.75041 13.9567 8.76729C13.716 8.78372 13.5988 8.81319 13.5216 8.84515C13.2154 8.97202 12.972 9.21536 12.8452 9.52165C12.8132 9.5988 12.7837 9.71602 12.7673 9.95674C12.7504 10.2042 12.75 10.5238 12.75 11V11.25H17.25Z" fill="#22282F"/>
</svg>
