<svg width="24" height="24" viewBox="0 0 24 24" fill="none" xmlns="http://www.w3.org/2000/svg">
<path fill-rule="evenodd" clip-rule="evenodd" d="M11.6949 2.31489C11.9654 2.19439 12.2816 2.24441 12.5017 2.44254L17.5017 6.94254C17.6598 7.08477 17.75 7.2874 17.75 7.50001C17.75 7.71263 17.6598 7.91525 17.5017 8.05748L13.1211 12L17.5017 15.9425C17.6598 16.0848 17.75 16.2874 17.75 16.5C17.75 16.7126 17.6598 16.9153 17.5017 17.0575L12.5017 21.5575C12.2816 21.7556 11.9654 21.8056 11.6949 21.6851C11.4243 21.5646 11.25 21.2962 11.25 21V13.8107L7.53033 17.5303C7.23744 17.8232 6.76256 17.8232 6.46967 17.5303C6.17678 17.2375 6.17678 16.7626 6.46967 16.4697L10.9393 12L6.46967 7.53034C6.17678 7.23745 6.17678 6.76258 6.46967 6.46968C6.76256 6.17679 7.23744 6.17679 7.53033 6.46968L11.25 10.1894V3.00001C11.25 2.70383 11.4243 2.43539 11.6949 2.31489ZM12.75 13.684V19.316L15.8789 16.5L12.75 13.684ZM12.75 10.316V4.68404L15.8789 7.50001L12.75 10.316Z" fill="#22282F"/>
</svg>
