<svg width="24" height="24" viewBox="0 0 24 24" fill="none" xmlns="http://www.w3.org/2000/svg">
<path fill-rule="evenodd" clip-rule="evenodd" d="M21 2.25H20.945C18.991 2.24998 17.4326 2.24996 15.9908 2.5121C14.6356 2.7585 13.3992 3.23163 12 4.10704C10.6008 3.23163 9.36438 2.7585 8.00916 2.5121C6.56741 2.24996 5.00897 2.24998 3.05503 2.25H3.05502H3C2.80109 2.25 2.61032 2.32902 2.46967 2.46967C2.32902 2.61032 2.25 2.80109 2.25 3V15C2.25 15.4142 2.58579 15.75 3 15.75C5.02025 15.75 6.4461 15.7525 7.74084 15.9879C9.0029 16.2174 10.1582 16.6735 11.584 17.624C11.8359 17.792 12.1641 17.792 12.416 17.624C13.8418 16.6735 14.9971 16.2174 16.2592 15.9879C17.5539 15.7525 18.9798 15.75 21 15.75C21.4142 15.75 21.75 15.4142 21.75 15V3C21.75 2.58579 21.4142 2.25 21 2.25ZM7.74084 3.9879C8.90291 4.19919 9.97448 4.60267 11.25 5.40729V15.6677C10.1465 15.0668 9.11756 14.7136 8.00916 14.5121C6.74252 14.2818 5.38582 14.2538 3.75 14.2505V3.75061C5.38435 3.75449 6.6124 3.78273 7.74084 3.9879ZM15.9908 14.5121C14.8824 14.7136 13.8535 15.0668 12.75 15.6677V5.40729C14.0255 4.60267 15.0971 4.19919 16.2592 3.9879C17.3876 3.78273 18.6156 3.75448 20.25 3.75061V14.2505C18.6142 14.2538 17.2575 14.2818 15.9908 14.5121ZM3 17.75C2.58579 17.75 2.25 18.0858 2.25 18.5C2.25 18.9142 2.58579 19.25 3 19.25C4.97377 19.25 6.39687 19.3743 7.67766 19.7236C8.95056 20.0707 10.1262 20.6522 11.584 21.624C11.8359 21.792 12.1641 21.792 12.416 21.624C13.8738 20.6522 15.0494 20.0707 16.3223 19.7236C17.6031 19.3743 19.0262 19.25 21 19.25C21.4142 19.25 21.75 18.9142 21.75 18.5C21.75 18.0858 21.4142 17.75 21 17.75C18.9738 17.75 17.3969 17.8757 15.9277 18.2764C14.585 18.6426 13.3686 19.2283 12 20.1041C10.6314 19.2283 9.41499 18.6426 8.07234 18.2764C6.60313 17.8757 5.02623 17.75 3 17.75Z" fill="#22282F"/>
</svg>
