<svg width="24" height="24" viewBox="0 0 24 24" fill="none" xmlns="http://www.w3.org/2000/svg">
<path fill-rule="evenodd" clip-rule="evenodd" d="M1.46967 1.46967C1.76256 1.17678 2.23744 1.17678 2.53033 1.46967L4.64306 3.5824C5.12431 2.78397 5.9998 2.25 7 2.25H13L13.0549 2.25C14.4225 2.24998 15.5248 2.24996 16.3918 2.36652C17.2919 2.48754 18.0497 2.74643 18.6517 3.34835C19.2536 3.95027 19.5125 4.70814 19.6335 5.60825C19.75 6.47522 19.75 7.57754 19.75 8.94513V9V18.6893L22.5303 21.4697C22.8232 21.7626 22.8232 22.2374 22.5303 22.5303C22.2374 22.8232 21.7626 22.8232 21.4697 22.5303L18.4697 19.5303L4.46967 5.53033L1.46967 2.53033C1.17678 2.23744 1.17678 1.76256 1.46967 1.46967ZM18.25 17.1893V9C18.25 7.56458 18.2484 6.56347 18.1469 5.80812C18.0482 5.07434 17.8678 4.68577 17.591 4.40901C17.3142 4.13225 16.9257 3.9518 16.1919 3.85315C15.4365 3.75159 14.4354 3.75 13 3.75H7C6.40567 3.75 5.90822 4.16479 5.78133 4.72067L18.25 17.1893ZM5.75 19.7076V9C5.75 8.58579 5.41421 8.25 5 8.25C4.58579 8.25 4.25 8.58579 4.25 9V21C4.25 21.2674 4.39232 21.5145 4.62355 21.6487C4.85479 21.7829 5.13998 21.7838 5.3721 21.6512L12.3721 17.6512C12.7317 17.4457 12.8567 16.9875 12.6512 16.6279C12.4457 16.2683 11.9875 16.1433 11.6279 16.3488L5.75 19.7076Z" fill="#22282F"/>
</svg>
