<svg width="24" height="24" viewBox="0 0 24 24" fill="none" xmlns="http://www.w3.org/2000/svg">
<path fill-rule="evenodd" clip-rule="evenodd" d="M11 2.25H10.9451C9.57754 2.24998 8.47522 2.24996 7.60825 2.36652C6.70814 2.48754 5.95027 2.74643 5.34835 3.34835C4.74643 3.95027 4.48754 4.70814 4.36652 5.60825C4.24996 6.47522 4.24998 7.57754 4.25 8.94513V9V21C4.25 21.2674 4.39232 21.5145 4.62356 21.6487C4.85479 21.7829 5.13998 21.7838 5.3721 21.6512L10.3875 18.7852C10.8846 18.5012 11.2113 18.3154 11.4788 18.1955C11.7314 18.0822 11.877 18.0535 12 18.0535C12.123 18.0535 12.2686 18.0822 12.5212 18.1955C12.7887 18.3154 13.1154 18.5012 13.6125 18.7852L18.6279 21.6512C18.86 21.7838 19.1452 21.7829 19.3764 21.6487C19.6077 21.5145 19.75 21.2674 19.75 21V9V8.94513V8.94512C19.75 7.57753 19.75 6.47522 19.6335 5.60825C19.5125 4.70814 19.2536 3.95027 18.6517 3.34835C18.0497 2.74643 17.2919 2.48754 16.3918 2.36652C15.5248 2.24996 14.4225 2.24998 13.0549 2.25H13H11ZM6.40901 4.40901C6.68577 4.13225 7.07435 3.9518 7.80812 3.85315C8.56347 3.75159 9.56458 3.75 11 3.75H13C14.4354 3.75 15.4365 3.75159 16.1919 3.85315C16.9257 3.9518 17.3142 4.13225 17.591 4.40901C17.8678 4.68577 18.0482 5.07435 18.1469 5.80812C18.2484 6.56347 18.25 7.56458 18.25 9V19.7076L14.3567 17.4828L14.3266 17.4657C13.8678 17.2035 13.4773 16.9803 13.135 16.8268C12.7703 16.6632 12.4082 16.5535 12 16.5535C11.5918 16.5535 11.2297 16.6632 10.865 16.8268C10.5226 16.9804 10.1322 17.2035 9.67333 17.4657L9.64334 17.4829L5.75 19.7076V9C5.75 7.56458 5.75159 6.56347 5.85315 5.80812C5.9518 5.07435 6.13225 4.68577 6.40901 4.40901ZM9.5 9.75C9.08579 9.75 8.75 10.0858 8.75 10.5C8.75 10.9142 9.08579 11.25 9.5 11.25H14.5C14.9142 11.25 15.25 10.9142 15.25 10.5C15.25 10.0858 14.9142 9.75 14.5 9.75H9.5Z" fill="#22282F"/>
</svg>
