<svg width="24" height="24" viewBox="0 0 24 24" fill="none" xmlns="http://www.w3.org/2000/svg">
<path fill-rule="evenodd" clip-rule="evenodd" d="M10.9451 2.25H11H13H13.0549C14.4225 2.24998 15.5248 2.24996 16.3918 2.36652C17.2919 2.48754 18.0497 2.74643 18.6517 3.34835C19.2536 3.95027 19.5125 4.70814 19.6335 5.60825C19.75 6.47521 19.75 7.57753 19.75 8.94511V8.94512V8.94513V9V16V16.5V17L19.75 17.052V17.052C19.75 17.9505 19.7501 18.6997 19.6701 19.2945C19.5857 19.9223 19.4 20.4891 18.9445 20.9445C18.4891 21.4 17.9223 21.5857 17.2945 21.6701C16.6997 21.7501 15.9505 21.75 15.052 21.75H15H7.5C5.70507 21.75 4.25 20.2949 4.25 18.5V9V8.94513C4.24998 7.57754 4.24996 6.47522 4.36652 5.60825C4.48754 4.70814 4.74643 3.95027 5.34835 3.34835C5.95027 2.74643 6.70814 2.48754 7.60825 2.36652C8.47522 2.24996 9.57754 2.24998 10.9451 2.25ZM5.75 18.5C5.75 19.4665 6.5335 20.25 7.5 20.25H15C15.964 20.25 16.6116 20.2484 17.0946 20.1835C17.5561 20.1214 17.7536 20.0142 17.8839 19.8839C18.0142 19.7536 18.1214 19.5561 18.1835 19.0946C18.2484 18.6116 18.25 17.964 18.25 17V16.75H7.5C6.5335 16.75 5.75 17.5335 5.75 18.5ZM5.75 15.7609V9C5.75 7.56458 5.75159 6.56347 5.85315 5.80812C5.9518 5.07435 6.13225 4.68577 6.40901 4.40901C6.68577 4.13225 7.07435 3.9518 7.80812 3.85315C8.56347 3.75159 9.56458 3.75 11 3.75H13C14.4354 3.75 15.4365 3.75159 16.1919 3.85315C16.9257 3.9518 17.3142 4.13225 17.591 4.40901C17.8678 4.68577 18.0482 5.07435 18.1469 5.80812C18.2484 6.56347 18.25 7.56458 18.25 9V15.25H7.5C6.85568 15.25 6.25515 15.4375 5.75 15.7609ZM8.25 7C8.25 6.58579 8.58579 6.25 9 6.25H15C15.4142 6.25 15.75 6.58579 15.75 7C15.75 7.41421 15.4142 7.75 15 7.75H9C8.58579 7.75 8.25 7.41421 8.25 7Z" fill="#22282F"/>
</svg>
