<svg width="24" height="24" viewBox="0 0 24 24" fill="none" xmlns="http://www.w3.org/2000/svg">
<path fill-rule="evenodd" clip-rule="evenodd" d="M14 1.75C14.9527 1.75 15.3564 1.75162 15.6853 1.79491C18.0411 2.10507 19.8949 3.95889 20.2051 6.31474C20.2484 6.64361 20.25 7.04732 20.25 8V19C20.25 19.4142 20.5858 19.75 21 19.75C21.4142 19.75 21.75 19.4142 21.75 19V8L21.75 7.92986C21.75 7.06762 21.7501 6.55809 21.6923 6.11895C21.2935 3.09 18.91 0.706517 15.8811 0.307748C15.4419 0.249933 14.9324 0.249958 14.0701 0.25H14H10C8.12776 0.25 6.57597 1.62205 6.29528 3.41551C5.53129 3.55348 4.87917 3.81753 4.34835 4.34835C3.74643 4.95027 3.48754 5.70814 3.36652 6.60825C3.24996 7.47522 3.24998 8.57754 3.25 9.94513V10V22C3.25 22.2674 3.39232 22.5145 3.62356 22.6487C3.85479 22.7829 4.13998 22.7838 4.3721 22.6512L9.38755 19.7852C9.88458 19.5012 10.2113 19.3154 10.4788 19.1955C10.7314 19.0822 10.877 19.0535 11 19.0535C11.123 19.0535 11.2686 19.0822 11.5212 19.1955C11.7887 19.3154 12.1154 19.5012 12.6125 19.7852L17.6279 22.6512C17.86 22.7838 18.1452 22.7829 18.3764 22.6487C18.6077 22.5145 18.75 22.2674 18.75 22V10V9.94513V9.94512C18.75 8.57754 18.75 7.47522 18.6335 6.60825C18.5125 5.70814 18.2536 4.95027 17.6517 4.34835C17.0497 3.74643 16.2919 3.48754 15.3918 3.36652C14.5248 3.24996 13.4225 3.24998 12.0549 3.25L12 3.25H10L9.94513 3.25C9.1703 3.24999 8.48063 3.24998 7.87067 3.27117C8.17349 2.38623 9.01244 1.75 10 1.75H14ZM5.40901 5.40901C5.68577 5.13225 6.07435 4.9518 6.80812 4.85315C7.56347 4.75159 8.56458 4.75 10 4.75H12C13.4354 4.75 14.4365 4.75159 15.1919 4.85315C15.9257 4.9518 16.3142 5.13225 16.591 5.40901C16.8678 5.68577 17.0482 6.07435 17.1469 6.80812C17.2484 7.56347 17.25 8.56458 17.25 10V20.7076L13.3567 18.4828L13.3266 18.4657L13.3266 18.4657C12.8677 18.2034 12.4773 17.9803 12.135 17.8268C11.7703 17.6632 11.4082 17.5535 11 17.5535C10.5918 17.5535 10.2297 17.6632 9.86498 17.8268C9.52264 17.9804 9.13223 18.2035 8.67333 18.4657L8.64334 18.4829L4.75 20.7076V10C4.75 8.56458 4.75159 7.56347 4.85315 6.80812C4.9518 6.07435 5.13225 5.68577 5.40901 5.40901Z" fill="#22282F"/>
</svg>
