<svg width="24" height="24" viewBox="0 0 24 24" fill="none" xmlns="http://www.w3.org/2000/svg">
<path fill-rule="evenodd" clip-rule="evenodd" d="M10.4218 3.73481C10.9089 3.46418 11.2289 3.28732 11.4906 3.17311C11.7376 3.0653 11.88 3.0379 12.0001 3.0379C12.1202 3.0379 12.2626 3.0653 12.5096 3.17311C12.7713 3.28732 13.0913 3.46418 13.5784 3.73481L18.5784 6.51259C19.0527 6.77607 19.3768 6.95694 19.6184 7.11814L12.0001 11.1514L4.3818 7.11814C4.62345 6.95694 4.94749 6.77607 5.42177 6.51259L10.4218 3.73481ZM3.75721 8.48472C3.75042 8.71788 3.75011 8.99915 3.75011 9.3536V14.6464C3.75011 15.235 3.75097 15.6219 3.78092 15.9217C3.80921 16.2048 3.85888 16.3485 3.92277 16.4571C3.98665 16.5657 4.08817 16.6789 4.32193 16.8411C4.56945 17.0129 4.90718 17.2015 5.42177 17.4874L10.4218 20.2652C10.7701 20.4587 11.0329 20.6042 11.2501 20.7132V12.4515L3.75721 8.48472ZM12.7501 20.7132C12.9673 20.6042 13.2301 20.4587 13.5784 20.2652L18.5784 17.4874C19.093 17.2015 19.4308 17.0129 19.6783 16.8411C19.912 16.6789 20.0136 16.5657 20.0774 16.4571C20.1413 16.3485 20.191 16.2048 20.2193 15.9217C20.2492 15.6219 20.2501 15.235 20.2501 14.6464V9.3536C20.2501 8.99915 20.2498 8.71788 20.243 8.48472L12.7501 12.4515V20.7132ZM12.0001 1.5379C11.602 1.5379 11.2479 1.64239 10.8905 1.79834C10.5552 1.9447 10.1724 2.15737 9.72281 2.40718L9.6933 2.42357L4.6933 5.20135L4.66234 5.21855C4.18708 5.48256 3.78304 5.70701 3.46671 5.92655C3.12977 6.16038 2.84234 6.42126 2.62996 6.78219C2.41759 7.14312 2.32913 7.52108 2.28835 7.92918C2.25007 8.31232 2.25009 8.77451 2.25011 9.31818L2.25011 9.3536V14.6464L2.25011 14.6818C2.25009 15.2255 2.25007 15.6877 2.28835 16.0708C2.32913 16.4789 2.41759 16.8568 2.62996 17.2178C2.84234 17.5787 3.12977 17.8396 3.46671 18.0734C3.78305 18.293 4.1871 18.5174 4.66237 18.7814L4.6933 18.7986L9.6933 21.5764L9.72288 21.5928C10.1725 21.8426 10.5552 22.0553 10.8905 22.2016C11.2479 22.3576 11.602 22.4621 12.0001 22.4621C12.3983 22.4621 12.7523 22.3576 13.1097 22.2016C13.445 22.0553 13.8278 21.8426 14.2774 21.5928L14.3069 21.5764L19.3069 18.7986L19.3379 18.7814C19.8131 18.5174 20.2172 18.293 20.5335 18.0734C20.8704 17.8396 21.1579 17.5787 21.3703 17.2178C21.5826 16.8568 21.6711 16.4789 21.7119 16.0708C21.7501 15.6876 21.7501 15.2255 21.7501 14.6818V14.6464V9.3536V9.31819C21.7501 8.77452 21.7501 8.31232 21.7119 7.92918C21.6711 7.52108 21.5826 7.14312 21.3703 6.78219C21.1579 6.42126 20.8704 6.16038 20.5335 5.92655C20.2172 5.70701 19.8131 5.48256 19.3379 5.21855L19.3069 5.20135L14.3069 2.42357L14.2774 2.40717C13.8278 2.15737 13.445 1.9447 13.1097 1.79834C12.7523 1.64239 12.3983 1.5379 12.0001 1.5379Z" fill="#22282F"/>
</svg>
