<svg width="24" height="24" viewBox="0 0 24 24" fill="none" xmlns="http://www.w3.org/2000/svg">
<path fill-rule="evenodd" clip-rule="evenodd" d="M8.00014 2.25003L7.96188 2.25001C7.47854 2.24978 6.60734 2.24936 5.84656 2.55366C5.43885 2.71674 5.02705 2.97979 4.72019 3.40465C4.40994 3.83421 4.25006 4.36969 4.25006 5.00003V9.30003C4.25006 9.76397 3.84223 10.2451 3.11416 10.6819C2.78369 10.8802 2.44737 11.0321 2.19022 11.1349C2.06277 11.1859 1.95749 11.2238 1.88567 11.2484C1.84982 11.2607 1.82249 11.2696 1.80511 11.2752L1.78675 11.281L1.78449 11.2817L1.78414 11.2818L1.78392 11.2818L1.78385 11.2818L1.78353 11.2819C1.46681 11.3774 1.25 11.6692 1.25 12C1.25 12.3311 1.46709 12.623 1.78414 12.7183L1.78449 12.7184L1.78675 12.7191L1.80511 12.7249C1.82249 12.7305 1.84982 12.7394 1.88567 12.7517C1.95749 12.7763 2.06277 12.8142 2.19022 12.8651C2.44737 12.968 2.78369 13.1199 3.11416 13.3181C3.84223 13.755 4.25006 14.2361 4.25006 14.7V19C4.25006 19.6304 4.40994 20.1658 4.72019 20.5954C5.02705 21.0203 5.43885 21.2833 5.84656 21.4464C6.60734 21.7507 7.47854 21.7503 7.96188 21.75L8.00014 21.75C8.41435 21.75 8.75014 21.4142 8.75014 21C8.75014 20.5858 8.41435 20.25 8.00014 20.25C7.47465 20.25 6.87237 20.2412 6.40363 20.0537C6.18632 19.9667 6.0356 19.8548 5.93619 19.7171C5.84018 19.5842 5.75006 19.3697 5.75006 19V14.7C5.75006 13.364 4.65785 12.4951 3.88589 12.0319L3.8322 12L3.88589 11.9681C4.65785 11.505 5.75006 10.6361 5.75006 9.30003V5.00003C5.75006 4.63036 5.84018 4.41584 5.93619 4.2829C6.0356 4.14527 6.18632 4.03331 6.40363 3.94639C6.87237 3.7589 7.47465 3.75003 8.00014 3.75003C8.41435 3.75003 8.75014 3.41424 8.75014 3.00003C8.75014 2.58581 8.41435 2.25003 8.00014 2.25003ZM16.0001 3.75003C16.5256 3.75003 17.1279 3.7589 17.5966 3.94639C17.814 4.03331 17.9647 4.14527 18.0641 4.2829C18.1601 4.41584 18.2502 4.63036 18.2502 5.00003V9.30003C18.2502 10.6361 19.3424 11.505 20.1143 11.9681L20.168 12L20.1143 12.0319C19.3424 12.4951 18.2502 13.364 18.2502 14.7V19C18.2502 19.3697 18.1601 19.5842 18.0641 19.7171C17.9647 19.8548 17.814 19.9667 17.5966 20.0537C17.1279 20.2412 16.5256 20.25 16.0001 20.25C15.5859 20.25 15.2501 20.5858 15.2501 21C15.2501 21.4142 15.5859 21.75 16.0001 21.75L16.0384 21.75C16.5217 21.7503 17.3929 21.7507 18.1537 21.4464C18.5614 21.2833 18.9732 21.0203 19.2801 20.5954C19.5903 20.1658 19.7502 19.6304 19.7502 19V14.7C19.7502 14.2361 20.158 13.755 20.8861 13.3181C21.2165 13.1199 21.5528 12.968 21.8099 12.8651C21.9374 12.8142 22.0427 12.7763 22.1145 12.7517C22.1503 12.7394 22.1777 12.7304 22.195 12.7249L22.2134 12.7191L22.2157 12.7184L22.216 12.7183L22.2163 12.7182L22.2166 12.7181C22.5333 12.6226 22.7501 12.3309 22.7501 12C22.7501 11.6689 22.533 11.377 22.216 11.2818L22.2157 11.2817L22.2134 11.281L22.195 11.2752C22.1777 11.2696 22.1503 11.2607 22.1145 11.2484C22.0427 11.2238 21.9374 11.1859 21.8099 11.1349C21.5528 11.0321 21.2165 10.8802 20.8861 10.6819C20.158 10.2451 19.7502 9.76399 19.7502 9.30003V5.00003C19.7502 4.36969 19.5903 3.83421 19.2801 3.40465C18.9732 2.97979 18.5614 2.71674 18.1537 2.55367C17.3929 2.24936 16.5217 2.24978 16.0384 2.25001L16.0001 2.25003C15.5859 2.25003 15.2501 2.58581 15.2501 3.00003C15.2501 3.41424 15.5859 3.75003 16.0001 3.75003ZM12.0001 9.00003C12.5524 9.00003 13.0001 8.55231 13.0001 8.00003C13.0001 7.44774 12.5524 7.00003 12.0001 7.00003C11.4479 7.00003 11.0001 7.44774 11.0001 8.00003C11.0001 8.55231 11.4479 9.00003 12.0001 9.00003ZM13.0001 12C13.0001 12.5523 12.5524 13 12.0001 13C11.4479 13 11.0001 12.5523 11.0001 12C11.0001 11.4477 11.4479 11 12.0001 11C12.5524 11 13.0001 11.4477 13.0001 12ZM12.0001 17C12.5524 17 13.0001 16.5523 13.0001 16C13.0001 15.4477 12.5524 15 12.0001 15C11.4479 15 11.0001 15.4477 11.0001 16C11.0001 16.5523 11.4479 17 12.0001 17Z" fill="#22282F"/>
</svg>
