<svg width="24" height="24" viewBox="0 0 24 24" fill="none" xmlns="http://www.w3.org/2000/svg">
<path fill-rule="evenodd" clip-rule="evenodd" d="M8.8369 5.25026C9.17539 3.81678 10.4631 2.75 12 2.75C13.5369 2.75 14.8246 3.81678 15.1631 5.25026C14.964 5.25 14.7593 5.25 14.5489 5.25L14.5 5.25H9.5L9.45109 5.25C9.24067 5.25 9.03599 5.25 8.8369 5.25026ZM7.30661 5.26442C7.66014 2.99036 9.62683 1.25 12 1.25C14.3732 1.25 16.3399 2.99036 16.6934 5.26442C17.3438 5.27911 17.918 5.30878 18.4248 5.36868C19.4557 5.49054 20.3044 5.74638 21.0134 6.3282C21.2539 6.52558 21.4744 6.74612 21.6718 6.98663C22.2536 7.69558 22.5095 8.54428 22.6313 9.57525C22.75 10.5794 22.75 11.8487 22.75 13.4509V13.4509V13.4509V13.451V13.4511V13.5V13.5489V13.549V13.5491V13.5491V13.5491C22.75 15.1513 22.75 16.4206 22.6313 17.4248C22.5095 18.4557 22.2536 19.3044 21.6718 20.0134C21.4744 20.2539 21.2539 20.4744 21.0134 20.6718C20.3044 21.2536 19.4557 21.5095 18.4248 21.6313C17.4206 21.75 16.1513 21.75 14.5491 21.75H14.549H14.549H14.549H14.5489H14.5H9.5H9.45109H9.45099H9.45097H9.45095H9.45093C7.84875 21.75 6.57944 21.75 5.57525 21.6313C4.54428 21.5095 3.69558 21.2536 2.98663 20.6718C2.74612 20.4744 2.52558 20.2539 2.3282 20.0134C1.74638 19.3044 1.49054 18.4557 1.36868 17.4248C1.24998 16.4205 1.24999 15.1512 1.25 13.5489V13.5V13.4511C1.24999 11.8488 1.24998 10.5795 1.36868 9.57525C1.49054 8.54428 1.74638 7.69558 2.3282 6.98663C2.52558 6.74612 2.74612 6.52558 2.98663 6.3282C3.69558 5.74638 4.54428 5.49054 5.57525 5.36868C6.08196 5.30878 6.65618 5.27911 7.30661 5.26442ZM5.75133 6.85831C4.86197 6.96343 4.33563 7.16158 3.93822 7.48772C3.77366 7.62277 3.62277 7.77366 3.48772 7.93822C3.16158 8.33563 2.96343 8.86197 2.85831 9.75133C2.83738 9.92842 2.82049 10.116 2.80687 10.3156L2.81317 10.3184L2.8472 10.3331C2.87821 10.3464 2.9257 10.3665 2.98869 10.3924C3.11469 10.4443 3.30258 10.5195 3.54459 10.6103C4.02889 10.7919 4.72836 11.0352 5.58104 11.2789C6.0894 11.4241 6.64997 11.5688 7.25 11.7004V11C7.25 10.5858 7.58579 10.25 8 10.25C8.41421 10.25 8.75 10.5858 8.75 11V11.9834C9.77764 12.145 10.8774 12.25 12 12.25C13.1226 12.25 14.2224 12.145 15.25 11.9834V11C15.25 10.5858 15.5858 10.25 16 10.25C16.4142 10.25 16.75 10.5858 16.75 11V11.7004C17.35 11.5688 17.9106 11.4241 18.419 11.2789C19.2716 11.0352 19.9711 10.7919 20.4554 10.6103C20.6974 10.5195 20.8853 10.4443 21.0113 10.3924C21.0743 10.3665 21.1218 10.3464 21.1528 10.3331L21.1868 10.3184L21.1931 10.3156C21.1795 10.116 21.1626 9.92842 21.1417 9.75133C21.0366 8.86197 20.8384 8.33563 20.5123 7.93822C20.3772 7.77366 20.2263 7.62277 20.0618 7.48772C19.6644 7.16158 19.138 6.96343 18.2487 6.85831C17.3428 6.75123 16.1621 6.75 14.5 6.75H9.5C7.83789 6.75 6.65724 6.75123 5.75133 6.85831ZM15.25 13.5007V14C15.25 14.4142 15.5858 14.75 16 14.75C16.4142 14.75 16.75 14.4142 16.75 14V13.2341C17.5088 13.077 18.2096 12.8987 18.831 12.7211C19.7284 12.4648 20.4664 12.2081 20.9821 12.0147C21.0774 11.979 21.1652 11.9454 21.245 11.9144C21.2498 12.3892 21.25 12.9148 21.25 13.5C21.25 15.1621 21.2488 16.3428 21.1417 17.2487C21.0366 18.138 20.8384 18.6644 20.5123 19.0618C20.3772 19.2263 20.2263 19.3772 20.0618 19.5123C19.6644 19.8384 19.138 20.0366 18.2487 20.1417C17.3428 20.2488 16.1621 20.25 14.5 20.25H9.5C7.83789 20.25 6.65724 20.2488 5.75133 20.1417C4.86197 20.0366 4.33563 19.8384 3.93822 19.5123C3.77366 19.3772 3.62277 19.2263 3.48772 19.0618C3.16158 18.6644 2.96343 18.138 2.85831 17.2487C2.75123 16.3428 2.75 15.1621 2.75 13.5C2.75 12.9148 2.75015 12.3892 2.75502 11.9144C2.83485 11.9454 2.92261 11.979 3.01791 12.0147C3.53361 12.2081 4.27164 12.4648 5.16896 12.7211C5.79037 12.8987 6.49122 13.077 7.25 13.2341V14C7.25 14.4142 7.58579 14.75 8 14.75C8.41421 14.75 8.75 14.4142 8.75 14V13.5007C9.77809 13.6527 10.8754 13.75 12 13.75C13.1246 13.75 14.2219 13.6527 15.25 13.5007Z" fill="#22282F"/>
</svg>
