<svg width="24" height="24" viewBox="0 0 24 24" fill="none" xmlns="http://www.w3.org/2000/svg">
<path fill-rule="evenodd" clip-rule="evenodd" d="M7.6727 3.66836C7.85585 4.03988 7.70315 4.48953 7.33163 4.67268C4.61229 6.01327 2.75 8.79333 2.75 12C2.75 15.2066 4.61229 17.9867 7.33163 19.3273C7.70315 19.5104 7.85585 19.9601 7.6727 20.3316C7.48954 20.7031 7.03989 20.8558 6.66837 20.6727C3.46083 19.0914 1.25 15.8043 1.25 12C1.25 8.19571 3.46083 4.90855 6.66837 3.32729C7.03989 3.14413 7.48954 3.29683 7.6727 3.66836ZM16.3273 3.66836C16.5105 3.29683 16.9601 3.14413 17.3316 3.32729C20.5392 4.90855 22.75 8.19571 22.75 12C22.75 15.8043 20.5392 19.0914 17.3316 20.6727C16.9601 20.8558 16.5105 20.7031 16.3273 20.3316C16.1441 19.9601 16.2969 19.5104 16.6684 19.3273C19.3877 17.9867 21.25 15.2066 21.25 12C21.25 8.79333 19.3877 6.01327 16.6684 4.67268C16.2969 4.48953 16.1441 4.03988 16.3273 3.66836ZM8.59913 7.54948C8.84794 7.88064 8.78118 8.3508 8.45002 8.5996C7.41628 9.37627 6.75 10.6102 6.75 12C6.75 13.3898 7.41628 14.6237 8.45002 15.4004C8.78118 15.6492 8.84794 16.1193 8.59913 16.4505C8.35033 16.7817 7.88017 16.8484 7.54901 16.5996C6.1544 15.5518 5.25 13.8814 5.25 12C5.25 10.1186 6.1544 8.44816 7.54901 7.40036C7.88017 7.15156 8.35033 7.21832 8.59913 7.54948ZM15.4009 7.54948C15.6497 7.21832 16.1198 7.15156 16.451 7.40036C17.8456 8.44816 18.75 10.1186 18.75 12C18.75 13.8814 17.8456 15.5518 16.451 16.5996C16.1198 16.8484 15.6497 16.7817 15.4009 16.4505C15.1521 16.1193 15.2188 15.6492 15.55 15.4004C16.5837 14.6237 17.25 13.3898 17.25 12C17.25 10.6102 16.5837 9.37627 15.55 8.5996C15.2188 8.3508 15.1521 7.88064 15.4009 7.54948ZM10.75 12C10.75 11.3096 11.3096 10.75 12 10.75C12.6904 10.75 13.25 11.3096 13.25 12C13.25 12.6903 12.6904 13.25 12 13.25C11.3096 13.25 10.75 12.6903 10.75 12ZM12 9.24998C10.4812 9.24998 9.25 10.4812 9.25 12C9.25 13.5188 10.4812 14.75 12 14.75C13.5188 14.75 14.75 13.5188 14.75 12C14.75 10.4812 13.5188 9.24998 12 9.24998Z" fill="#22282F"/>
</svg>
