<svg width="24" height="24" viewBox="0 0 24 24" fill="none" xmlns="http://www.w3.org/2000/svg">
<path fill-rule="evenodd" clip-rule="evenodd" d="M6.98932 1.25C5.47644 1.25 4.25 2.47644 4.25 3.98932V10V10.9203C4.25 12.474 5.06517 13.9137 6.39743 14.7131L8.03913 15.6981C8.72525 16.1098 9.08979 16.8992 8.95825 17.6885L8.7534 18.9175C8.41903 20.9237 9.96613 22.75 12 22.75C14.0339 22.75 15.581 20.9237 15.2466 18.9175L15.0418 17.6885C14.9102 16.8992 15.2748 16.1098 15.9609 15.6981L17.6026 14.7131C18.9348 13.9137 19.75 12.474 19.75 10.9203V10V3.98932C19.75 2.47644 18.5236 1.25 17.0107 1.25H13H9H6.98932ZM18.25 9.25V3.98932C18.25 3.30486 17.6951 2.75 17.0107 2.75H13.75V4C13.75 4.41421 13.4142 4.75 13 4.75C12.5858 4.75 12.25 4.41421 12.25 4V2.75H9.75V6C9.75 6.41421 9.41421 6.75 9 6.75C8.58579 6.75 8.25 6.41421 8.25 6V2.75H6.98932C6.30486 2.75 5.75 3.30486 5.75 3.98932V9.25H18.25ZM5.75 10.75H18.25V10.9203C18.25 11.9471 17.7113 12.8986 16.8308 13.4269L15.1891 14.4119C13.9746 15.1406 13.3293 16.538 13.5622 17.9351L13.767 19.1641C13.949 20.256 13.107 21.25 12 21.25C10.893 21.25 10.051 20.256 10.233 19.1641L10.4378 17.9351C10.6707 16.538 10.0254 15.1406 8.81088 14.4119L7.16918 13.4269C6.28872 12.8986 5.75 11.9471 5.75 10.9203V10.75Z" fill="#22282F"/>
</svg>
