<svg width="24" height="24" viewBox="0 0 24 24" fill="none" xmlns="http://www.w3.org/2000/svg">
<path fill-rule="evenodd" clip-rule="evenodd" d="M2.53033 1.46967C2.23744 1.17678 1.76256 1.17678 1.46967 1.46967C1.17678 1.76256 1.17678 2.23744 1.46967 2.53033L4.87822 5.93888C4.47381 6.87863 4.25 7.91396 4.25 9C4.25 11.0656 5.0591 12.9438 6.37615 14.3325C7.44473 15.4591 8.25 16.6431 8.25 17.9109V19C8.25 21.0711 9.92893 22.75 12 22.75C14.0711 22.75 15.75 21.0711 15.75 19V17.9109C15.75 17.5895 15.8016 17.2724 15.8976 16.9583L21.4697 22.5303C21.7626 22.8232 22.2374 22.8232 22.5303 22.5303C22.8232 22.2374 22.8232 21.7626 22.5303 21.4697L16.1877 15.127L6.31226 5.2516L2.53033 1.46967ZM5.75 9C5.75 8.3381 5.85265 7.70106 6.04274 7.1034L14.7396 15.8003C14.6448 16.0054 14.5607 16.2169 14.49 16.4346C14.4575 16.4543 14.4173 16.4781 14.3701 16.5051C14.2232 16.589 14.0116 16.7019 13.7579 16.8146C13.2374 17.046 12.5989 17.25 12.0002 17.25C11.4014 17.25 10.7628 17.046 10.2422 16.8146C9.98848 16.7019 9.77682 16.589 9.62992 16.505C9.58272 16.4781 9.54251 16.4543 9.51004 16.4346C9.10872 15.1981 8.26621 14.1455 7.46449 13.3002C6.40119 12.1791 5.75 10.6664 5.75 9ZM9.75 18.2363C10.346 18.49 11.1557 18.75 12.0002 18.75C12.8445 18.75 13.6541 18.4901 14.25 18.2363V19C14.25 20.2426 13.2426 21.25 12 21.25C10.7574 21.25 9.75 20.2426 9.75 19V18.2363ZM8.42907 3.86983C9.44113 3.1639 10.6711 2.75 12 2.75C15.4518 2.75 18.25 5.54822 18.25 9C18.25 10.3289 17.8361 11.5589 17.1302 12.5709C16.8932 12.9107 16.9765 13.3782 17.3162 13.6151C17.656 13.8521 18.1235 13.7688 18.3605 13.4291C19.2363 12.1735 19.75 10.6456 19.75 9C19.75 4.71979 16.2802 1.25 12 1.25C10.3544 1.25 8.82654 1.76373 7.57093 2.63955C7.23119 2.87652 7.14789 3.34403 7.38486 3.68376C7.62183 4.02349 8.08934 4.1068 8.42907 3.86983Z" fill="#22282F"/>
</svg>
