<svg width="24" height="24" viewBox="0 0 24 24" fill="none" xmlns="http://www.w3.org/2000/svg">
<path fill-rule="evenodd" clip-rule="evenodd" d="M5.75 9C5.75 5.54822 8.54822 2.75 12 2.75C15.4518 2.75 18.25 5.54822 18.25 9C18.25 10.6664 17.5988 12.1791 16.5355 13.3002C15.7338 14.1455 14.8913 15.1981 14.49 16.4347C14.4575 16.4543 14.4173 16.4781 14.3701 16.5051C14.2232 16.589 14.0116 16.7019 13.7579 16.8146C13.2374 17.046 12.5989 17.25 12.0002 17.25C11.4014 17.25 10.7628 17.046 10.2422 16.8146C9.98848 16.7019 9.77682 16.589 9.62992 16.505C9.58272 16.4781 9.54251 16.4543 9.51004 16.4346C9.10872 15.1981 8.2662 14.1455 7.46448 13.3002C6.40119 12.1791 5.75 10.6664 5.75 9ZM9.75 18.2363C10.346 18.49 11.1557 18.75 12.0002 18.75C12.8445 18.75 13.6541 18.4901 14.25 18.2363V19C14.25 20.2426 13.2426 21.25 12 21.25C10.7574 21.25 9.75 20.2426 9.75 19V18.2363ZM12 1.25C7.71979 1.25 4.25 4.71979 4.25 9C4.25 11.0656 5.0591 12.9438 6.37615 14.3325C7.44473 15.4591 8.25 16.6431 8.25 17.9109V19C8.25 21.0711 9.92893 22.75 12 22.75C14.0711 22.75 15.75 21.0711 15.75 19V17.9109C15.75 16.6431 16.5553 15.4591 17.6238 14.3325C18.9409 12.9438 19.75 11.0656 19.75 9C19.75 4.71979 16.2802 1.25 12 1.25Z" fill="#22282F"/>
</svg>
