<svg width="24" height="24" viewBox="0 0 24 24" fill="none" xmlns="http://www.w3.org/2000/svg">
<path fill-rule="evenodd" clip-rule="evenodd" d="M14 3.75C15.9068 3.75 17.2615 3.75159 18.2892 3.88976C19.2952 4.02502 19.8749 4.27869 20.2981 4.7019C20.7213 5.12511 20.975 5.70476 21.1102 6.71085C21.2484 7.73851 21.25 9.09318 21.25 11V13C21.25 14.9068 21.2484 16.2615 21.1102 17.2892C20.975 18.2952 20.7213 18.8749 20.2981 19.2981C19.8749 19.7213 19.2952 19.975 18.2892 20.1102C17.2615 20.2484 15.9068 20.25 14 20.25H13.5C13.0858 20.25 12.75 20.5858 12.75 21C12.75 21.4142 13.0858 21.75 13.5 21.75H14H14.0564H14.0565C15.8942 21.75 17.3498 21.75 18.489 21.5969C19.6614 21.4392 20.6104 21.1071 21.3588 20.3588C22.1071 19.6104 22.4392 18.6614 22.5969 17.489C22.75 16.3498 22.75 14.8942 22.75 13.0565V13.0564V13V11V10.9436V10.9435C22.75 9.1058 22.75 7.65018 22.5969 6.51098C22.4392 5.33855 22.1071 4.38961 21.3588 3.64124C20.6104 2.89288 19.6614 2.56076 18.489 2.40313C17.3498 2.24997 15.8942 2.24998 14.0564 2.25H14H8.5H8.46558C7.32743 2.24999 6.42549 2.24999 5.69952 2.31174C4.95693 2.3749 4.32985 2.50674 3.76087 2.81087C2.93233 3.25373 2.25373 3.93233 1.81087 4.76087C1.50674 5.32985 1.3749 5.95693 1.31174 6.69952C1.24999 7.42549 1.24999 8.32743 1.25 9.46558L1.25 9.5H2.75C2.75 8.31978 2.75063 7.4816 2.80634 6.82665C2.86126 6.18101 2.96557 5.78261 3.13376 5.46796C3.43676 4.90107 3.90107 4.43676 4.46796 4.13376C4.78261 3.96557 5.18101 3.86126 5.82665 3.80634C6.4816 3.75063 7.31977 3.75 8.5 3.75H14ZM2 22C2.55228 22 3 21.5523 3 21C3 20.4477 2.55228 20 2 20C1.44772 20 1 20.4477 1 21C1 21.5523 1.44772 22 2 22ZM1.25 13C1.25 12.5858 1.58579 12.25 2 12.25C6.76714 12.25 10.75 16.2804 10.75 21C10.75 21.4142 10.4142 21.75 10 21.75C9.58579 21.75 9.25 21.4142 9.25 21C9.25 17.1037 5.93358 13.75 2 13.75C1.58579 13.75 1.25 13.4142 1.25 13ZM2 16.25C1.58579 16.25 1.25 16.5858 1.25 17C1.25 17.4142 1.58579 17.75 2 17.75C3.75842 17.75 5.25 19.2576 5.25 21C5.25 21.4142 5.58579 21.75 6 21.75C6.41421 21.75 6.75 21.4142 6.75 21C6.75 18.4344 4.59198 16.25 2 16.25Z" fill="#22282F"/>
</svg>
