<svg width="24" height="24" viewBox="0 0 24 24" fill="none" xmlns="http://www.w3.org/2000/svg">
<path fill-rule="evenodd" clip-rule="evenodd" d="M3.75 12C3.75 7.44365 7.44365 3.75 12 3.75C13.3185 3.75 14.5627 4.05873 15.6662 4.60716C16.0372 4.79149 16.4873 4.64023 16.6716 4.26929C16.856 3.89836 16.7047 3.44822 16.3338 3.26388C15.0274 2.61468 13.5552 2.25 12 2.25C6.61522 2.25 2.25 6.61522 2.25 12C2.25 17.3848 6.61522 21.75 12 21.75C17.3848 21.75 21.75 17.3848 21.75 12C21.75 11.6344 21.7298 11.2732 21.6905 10.9176C21.645 10.5059 21.2744 10.209 20.8627 10.2545C20.451 10.3001 20.1541 10.6707 20.1996 11.0824C20.2329 11.3834 20.25 11.6896 20.25 12C20.25 16.5563 16.5563 20.25 12 20.25C7.44365 20.25 3.75 16.5563 3.75 12ZM21.5303 5.53033C21.8232 5.23744 21.8232 4.76256 21.5303 4.46967C21.2374 4.17678 20.7626 4.17678 20.4697 4.46967L12 12.9393L9.53033 10.4697C9.23744 10.1768 8.76256 10.1768 8.46967 10.4697C8.17678 10.7626 8.17678 11.2374 8.46967 11.5303L11.4697 14.5303C11.6103 14.671 11.8011 14.75 12 14.75C12.1989 14.75 12.3897 14.671 12.5303 14.5303L21.5303 5.53033Z" fill="#22282F"/>
</svg>
