<svg width="24" height="24" viewBox="0 0 24 24" fill="none" xmlns="http://www.w3.org/2000/svg">
<path fill-rule="evenodd" clip-rule="evenodd" d="M12.75 3.78363V6C12.75 6.41421 12.4142 6.75 12 6.75C11.5858 6.75 11.25 6.41421 11.25 6V3.78363C7.29215 4.14029 4.14029 7.29215 3.78363 11.25H6C6.41421 11.25 6.75 11.5858 6.75 12C6.75 12.4142 6.41421 12.75 6 12.75H3.78363C4.14029 16.7079 7.29215 19.8597 11.25 20.2164V18C11.25 17.5858 11.5858 17.25 12 17.25C12.4142 17.25 12.75 17.5858 12.75 18V20.2164C16.7079 19.8597 19.8597 16.7079 20.2164 12.75H18C17.5858 12.75 17.25 12.4142 17.25 12C17.25 11.5858 17.5858 11.25 18 11.25H20.2164C19.8597 7.29215 16.7079 4.14029 12.75 3.78363ZM12 21.75C17.3848 21.75 21.75 17.3848 21.75 12C21.75 6.61522 17.3848 2.25 12 2.25C6.61522 2.25 2.25 6.61522 2.25 12C2.25 17.3848 6.61522 21.75 12 21.75ZM10.75 12C10.75 11.3096 11.3096 10.75 12 10.75C12.6904 10.75 13.25 11.3096 13.25 12C13.25 12.6904 12.6904 13.25 12 13.25C11.3096 13.25 10.75 12.6904 10.75 12ZM12 9.25C10.4812 9.25 9.25 10.4812 9.25 12C9.25 13.5188 10.4812 14.75 12 14.75C13.5188 14.75 14.75 13.5188 14.75 12C14.75 10.4812 13.5188 9.25 12 9.25Z" fill="#22282F"/>
</svg>
