<svg width="24" height="24" viewBox="0 0 24 24" fill="none" xmlns="http://www.w3.org/2000/svg">
<path fill-rule="evenodd" clip-rule="evenodd" d="M6.55495 2.4955C6.27632 2.18901 5.80199 2.16642 5.49549 2.44505C5.189 2.72368 5.16641 3.19802 5.44504 3.50451L9.44504 7.90451C9.72367 8.21101 10.198 8.23359 10.5045 7.95496C10.811 7.67633 10.8336 7.202 10.555 6.8955L6.55495 2.4955ZM18.555 3.50451C18.8336 3.19802 18.811 2.72368 18.5045 2.44505C18.198 2.16642 17.7237 2.18901 17.445 2.4955L11.445 9.0955L7.44504 13.4955C7.43559 13.5059 7.42648 13.5165 7.41772 13.5273C6.98035 13.3485 6.50168 13.25 6 13.25C3.92893 13.25 2.25 14.9289 2.25 17C2.25 19.0711 3.92893 20.75 6 20.75C8.07107 20.75 9.75 19.0711 9.75 17C9.75 15.9765 9.33999 15.0488 8.67526 14.3722L12 10.715L15.3247 14.3722C14.66 15.0488 14.25 15.9765 14.25 17C14.25 19.0711 15.9289 20.75 18 20.75C20.0711 20.75 21.75 19.0711 21.75 17C21.75 14.9289 20.0711 13.25 18 13.25C17.4983 13.25 17.0196 13.3485 16.5823 13.5273C16.5735 13.5165 16.5644 13.5059 16.555 13.4955L13.0136 9.60001L18.555 3.50451ZM18 14.75C16.7574 14.75 15.75 15.7574 15.75 17C15.75 18.2426 16.7574 19.25 18 19.25C19.2426 19.25 20.25 18.2426 20.25 17C20.25 15.7574 19.2426 14.75 18 14.75ZM6 14.75C4.75736 14.75 3.75 15.7574 3.75 17C3.75 18.2426 4.75736 19.25 6 19.25C7.24264 19.25 8.25 18.2426 8.25 17C8.25 15.7574 7.24264 14.75 6 14.75Z" fill="#22282F"/>
</svg>
