<svg width="24" height="24" viewBox="0 0 24 24" fill="none" xmlns="http://www.w3.org/2000/svg">
<path fill-rule="evenodd" clip-rule="evenodd" d="M12.75 5V3.78363C14.4651 3.93819 16.0289 4.61767 17.2795 5.66018L16.4698 6.46957C16.1768 6.76241 16.1767 7.23729 16.4696 7.53023C16.7624 7.82318 17.2373 7.82327 17.5302 7.53043L18.3401 6.72087C19.3824 7.97135 20.0618 9.53501 20.2164 11.25H19C18.5858 11.25 18.25 11.5858 18.25 12C18.25 12.4142 18.5858 12.75 19 12.75H20.2164C20.0618 14.465 19.3824 16.0286 18.3401 17.2791L17.5302 16.4696C17.2373 16.1767 16.7624 16.1768 16.4696 16.4698C16.1767 16.7627 16.1768 17.2376 16.4698 17.5304L17.2795 18.3398C15.8488 19.5325 14.0082 20.25 12 20.25C9.9919 20.25 8.15136 19.5325 6.72075 18.34L7.5306 17.5304C7.82355 17.2376 7.82363 16.7627 7.53079 16.4698C7.23795 16.1768 6.76308 16.1767 6.47013 16.4696L5.66008 17.2793C4.61762 16.0288 3.93819 14.4651 3.78363 12.75H5C5.41421 12.75 5.75 12.4142 5.75 12C5.75 11.5858 5.41421 11.25 5 11.25H3.78363C3.93819 9.53493 4.61761 7.97122 5.66005 6.72071L6.46967 7.53033C6.76256 7.82322 7.23744 7.82322 7.53033 7.53033C7.82322 7.23744 7.82322 6.76256 7.53033 6.46967L6.72071 5.66005C7.97122 4.61761 9.53493 3.93819 11.25 3.78363V5C11.25 5.41421 11.5858 5.75 12 5.75C12.4142 5.75 12.75 5.41421 12.75 5ZM12 2.25C17.3848 2.25 21.75 6.61522 21.75 12C21.75 17.3848 17.3848 21.75 12 21.75C6.61522 21.75 2.25 17.3848 2.25 12C2.25 6.61522 6.61522 2.25 12 2.25ZM11.9999 9.00001L12.4463 8.39734C12.1811 8.2009 11.8186 8.2009 11.5534 8.39735L11.9999 9.00001ZM12.4126 10.4664C12.2704 10.2874 12.1277 10.1316 11.9999 10.0031C11.8721 10.1316 11.7294 10.2874 11.5872 10.4664C11.1378 11.0324 10.7499 11.7588 10.7499 12.5556C10.7499 13.2136 10.949 13.6335 11.1767 13.881C11.4072 14.1313 11.7058 14.25 11.9999 14.25C12.294 14.25 12.5927 14.1313 12.8231 13.881C13.0509 13.6335 13.2499 13.2136 13.2499 12.5556C13.2499 11.7589 12.862 11.0324 12.4126 10.4664ZM14.7499 12.5556C14.7499 11.2782 14.1378 10.2269 13.5872 9.53359C13.307 9.18068 13.0279 8.90171 12.8182 8.71018C12.713 8.61401 12.624 8.53881 12.5596 8.48629C12.5273 8.46 12.5011 8.4393 12.4819 8.42443L12.4584 8.40647L12.4509 8.40079L12.4482 8.39878L12.4472 8.39799L12.4467 8.39765C12.4465 8.39749 12.4463 8.39734 11.9999 9.00001C11.5534 8.39735 11.5532 8.3975 11.553 8.39766L11.5526 8.398L11.5515 8.3988L11.5488 8.4008L11.5413 8.40648L11.5179 8.42444C11.4987 8.43932 11.4724 8.46001 11.4402 8.4863C11.3757 8.53883 11.2868 8.61403 11.1815 8.71019C10.9719 8.90172 10.6928 9.18069 10.4126 9.53361C9.86201 10.2269 9.24992 11.2782 9.24992 12.5556C9.24992 13.5271 9.55087 14.3295 10.0731 14.8968C10.5927 15.4613 11.294 15.75 11.9999 15.75C12.7058 15.75 13.4072 15.4613 13.9267 14.8968C14.449 14.3295 14.7499 13.5271 14.7499 12.5556Z" fill="#22282F"/>
</svg>
