<svg width="24" height="24" viewBox="0 0 24 24" fill="none" xmlns="http://www.w3.org/2000/svg">
<path fill-rule="evenodd" clip-rule="evenodd" d="M5.66005 6.72071C4.61761 7.97122 3.93819 9.53493 3.78363 11.25H5C5.41421 11.25 5.75 11.5858 5.75 12C5.75 12.4142 5.41421 12.75 5 12.75H3.78363C3.90129 14.0556 4.32314 15.2736 4.97776 16.3324C6.07443 15.0505 7.66498 14.2934 9.35301 14.2518C9.6116 13.3351 10.3336 12.6127 11.25 12.3535V9C11.25 8.58579 11.5858 8.25 12 8.25C12.4142 8.25 12.75 8.58579 12.75 9V12.3535C13.6664 12.6127 14.3884 13.3351 14.647 14.2518C16.335 14.2934 17.9256 15.0505 19.0222 16.3324C19.6769 15.2736 20.0987 14.0556 20.2164 12.75H19C18.5858 12.75 18.25 12.4142 18.25 12C18.25 11.5858 18.5858 11.25 19 11.25H20.2164C20.0618 9.53501 19.3824 7.97135 18.3401 6.72087L17.5302 7.53043C17.2373 7.82327 16.7624 7.82318 16.4696 7.53023C16.1767 7.23729 16.1768 6.76241 16.4698 6.46957L17.2795 5.66018C16.0289 4.61767 14.4651 3.93819 12.75 3.78363V5C12.75 5.41421 12.4142 5.75 12 5.75C11.5858 5.75 11.25 5.41421 11.25 5V3.78363C9.53493 3.93819 7.97122 4.61761 6.72071 5.66005L7.53033 6.46967C7.82322 6.76256 7.82322 7.23744 7.53033 7.53033C7.23744 7.82322 6.76256 7.82322 6.46967 7.53033L5.66005 6.72071ZM12 13.75C11.3096 13.75 10.75 14.3096 10.75 15C10.75 15.6904 11.3096 16.25 12 16.25C12.6904 16.25 13.25 15.6904 13.25 15C13.25 14.3096 12.6904 13.75 12 13.75ZM6.02391 17.4207C6.83827 16.4027 8.05613 15.7949 9.35419 15.7524C9.68144 16.9054 10.7421 17.75 12 17.75C13.2579 17.75 14.3186 16.9054 14.6458 15.7524C15.9439 15.7949 17.1617 16.4027 17.9761 17.4207L18.091 17.5644C16.5825 19.2148 14.4122 20.25 12 20.25C9.58785 20.25 7.41748 19.2148 5.90895 17.5644L6.02391 17.4207ZM21.75 12C21.75 6.61522 17.3848 2.25 12 2.25C6.61522 2.25 2.25 6.61522 2.25 12C2.25 17.3848 6.61522 21.75 12 21.75C17.3848 21.75 21.75 17.3848 21.75 12Z" fill="#22282F"/>
</svg>
