<svg width="24" height="24" viewBox="0 0 24 24" fill="none" xmlns="http://www.w3.org/2000/svg">
<path fill-rule="evenodd" clip-rule="evenodd" d="M7 4.25H6.948C6.04952 4.24997 5.3003 4.24995 4.70552 4.32991C4.07773 4.41432 3.51093 4.59999 3.05546 5.05546C2.59999 5.51093 2.41432 6.07773 2.32991 6.70552C2.24994 7.3003 2.24997 8.04952 2.25 8.948L2.25 9V16.25H1.33333C0.735025 16.25 0.25 16.735 0.25 17.3333C0.25 19.2203 1.77969 20.75 3.66667 20.75H18.8391L18.948 20.75H18.948L19 20.75L19.052 20.75H19.052H19.0521C19.9505 20.75 20.6997 20.7501 21.2945 20.6701C21.9223 20.5857 22.4891 20.4 22.9445 19.9445C23.4 19.4891 23.5857 18.9223 23.6701 18.2945C23.7501 17.6997 23.75 16.9505 23.75 16.0521V16.052V16.052L23.75 16V12L23.75 11.948V11.948V11.9479C23.75 11.0495 23.7501 10.3003 23.6701 9.70552C23.5857 9.07773 23.4 8.51093 22.9445 8.05546C22.6017 7.71257 22.1957 7.52259 21.7481 7.4136C21.7457 7.20676 21.7406 7.02081 21.7292 6.85464C21.7076 6.53754 21.661 6.23801 21.5407 5.94762C21.2616 5.27379 20.7262 4.73844 20.0524 4.45933C19.762 4.33905 19.4625 4.29241 19.1454 4.27077C18.8408 4.24999 18.4697 4.24999 18.0253 4.25H18.0252H18H7ZM3.66667 19.25H14.5817C14.4506 18.9546 14.3755 18.6334 14.3299 18.2945C14.3072 18.1254 14.2909 17.9439 14.2793 17.75H3H1.79542C1.98566 18.6082 2.75121 19.25 3.66667 19.25ZM14.25 16.052L14.25 16.25H3.75V9C3.75 8.03599 3.75159 7.38843 3.81654 6.90539C3.87858 6.44393 3.9858 6.24643 4.11612 6.11612C4.24643 5.9858 4.44393 5.87858 4.90539 5.81654C5.38843 5.75159 6.03599 5.75 7 5.75H18C18.4762 5.75 18.7958 5.75041 19.0433 5.76729C19.284 5.78372 19.4012 5.81319 19.4784 5.84515C19.7846 5.97202 20.028 6.21536 20.1549 6.52165C20.1868 6.5988 20.2163 6.71602 20.2327 6.95674C20.2388 7.0466 20.2428 7.14597 20.2454 7.25889C19.8826 7.24997 19.4846 7.24998 19.052 7.25L19 7.25L18.948 7.25C18.0495 7.24997 17.3003 7.24994 16.7055 7.32991C16.0777 7.41432 15.5109 7.59999 15.0555 8.05546C14.6 8.51093 14.4143 9.07773 14.3299 9.70552C14.2499 10.3003 14.25 11.0495 14.25 11.948L14.25 12V16L14.25 16.052ZM21.0946 19.1835C20.6116 19.2484 19.964 19.25 19 19.25C18.036 19.25 17.3884 19.2484 16.9054 19.1835C16.4439 19.1214 16.2464 19.0142 16.1161 18.8839C15.9858 18.7536 15.8786 18.5561 15.8165 18.0946C15.7516 17.6116 15.75 16.964 15.75 16V12C15.75 11.036 15.7516 10.3884 15.8165 9.90539C15.8786 9.44393 15.9858 9.24643 16.1161 9.11612C16.2464 8.9858 16.4439 8.87858 16.9054 8.81654C17.3884 8.75159 18.036 8.75 19 8.75C19.964 8.75 20.6116 8.75159 21.0946 8.81654C21.5561 8.87858 21.7536 8.9858 21.8839 9.11612C22.0142 9.24643 22.1214 9.44393 22.1835 9.90539C22.2484 10.3884 22.25 11.036 22.25 12V16C22.25 16.964 22.2484 17.6116 22.1835 18.0946C22.1214 18.5561 22.0142 18.7536 21.8839 18.8839C21.7536 19.0142 21.5561 19.1214 21.0946 19.1835ZM19 12C19.5523 12 20 11.5523 20 11C20 10.4477 19.5523 10 19 10C18.4477 10 18 10.4477 18 11C18 11.5523 18.4477 12 19 12Z" fill="#22282F"/>
</svg>
