<svg width="24" height="24" viewBox="0 0 24 24" fill="none" xmlns="http://www.w3.org/2000/svg">
<path fill-rule="evenodd" clip-rule="evenodd" d="M16.6184 3.92124C16.237 3.76325 15.8022 3.74997 14.5147 3.74997H9C7.56458 3.74997 6.56347 3.75156 5.80812 3.85312C5.07435 3.95177 4.68577 4.13222 4.40901 4.40898C4.13225 4.68574 3.9518 5.07432 3.85315 5.80809C3.75159 6.56344 3.75 7.56456 3.75 8.99997V15C3.75 16.4354 3.75159 17.4365 3.85315 18.1919C3.9518 18.9256 4.13225 19.3142 4.40901 19.591C4.68577 19.8677 5.07435 20.0482 5.80812 20.1468C6.2098 20.2008 6.68097 20.2266 7.25 20.2388V17L7.25 16.948C7.24997 16.0495 7.24995 15.3003 7.32991 14.7055C7.41432 14.0777 7.59999 13.5109 8.05546 13.0554C8.51093 12.6 9.07773 12.4143 9.70552 12.3299C10.3003 12.2499 11.0495 12.2499 11.948 12.25L12 12.25L12.052 12.25C12.9505 12.2499 13.6997 12.2499 14.2945 12.3299C14.9223 12.4143 15.4891 12.6 15.9445 13.0554C16.4 13.5109 16.5857 14.0777 16.6701 14.7055C16.7501 15.3003 16.75 16.0495 16.75 16.9479V16.948L16.75 17V20.2388C17.319 20.2266 17.7902 20.2008 18.1919 20.1468C18.9257 20.0482 19.3142 19.8677 19.591 19.591C19.8678 19.3142 20.0482 18.9256 20.1469 18.1919C20.2484 17.4365 20.25 16.4354 20.25 15V9.48525C20.25 8.19781 20.2367 7.76301 20.0787 7.38157C19.9207 7.00014 19.6227 6.6833 18.7123 5.77294L18.227 5.28766C17.3167 4.3773 16.9998 4.07924 16.6184 3.92124ZM16.0544 21.748C16.9719 21.7423 17.7469 21.7201 18.3918 21.6334C19.2919 21.5124 20.0497 21.2535 20.6517 20.6516C21.2536 20.0497 21.5125 19.2918 21.6335 18.3917C21.75 17.5248 21.75 16.4224 21.75 15.0548V15V9.48525L21.75 9.34265C21.7506 8.25488 21.7509 7.49893 21.4645 6.80755C21.1782 6.11617 20.6434 5.58189 19.8738 4.81309L19.773 4.71228L19.2877 4.227L19.1869 4.12613C18.4181 3.35659 17.8838 2.8218 17.1924 2.53542C16.501 2.24905 15.7451 2.24941 14.6573 2.24993L14.5147 2.24997H9L8.94513 2.24997C7.57754 2.24995 6.47522 2.24993 5.60825 2.36649C4.70814 2.48751 3.95027 2.7464 3.34835 3.34832C2.74643 3.95024 2.48754 4.70811 2.36652 5.60822C2.24996 6.47519 2.24998 7.57751 2.25 8.9451V8.99997V15V15.0548C2.24998 16.4224 2.24996 17.5248 2.36652 18.3917C2.48754 19.2918 2.74643 20.0497 3.34835 20.6516C3.95027 21.2535 4.70814 21.5124 5.60825 21.6334C6.25306 21.7201 7.02806 21.7423 7.94555 21.748C7.96353 21.7493 7.98169 21.75 8 21.75C8.01546 21.75 8.03082 21.7495 8.04605 21.7486C8.33204 21.75 8.63162 21.75 8.94513 21.75H9H15H15.0549C15.3684 21.75 15.668 21.75 15.9539 21.7486C15.9692 21.7495 15.9845 21.75 16 21.75C16.0183 21.75 16.0365 21.7493 16.0544 21.748ZM15.25 20.2499V17C15.25 16.036 15.2484 15.3884 15.1835 14.9054C15.1214 14.4439 15.0142 14.2464 14.8839 14.1161C14.7536 13.9858 14.5561 13.8785 14.0946 13.8165C13.6116 13.7516 12.964 13.75 12 13.75C11.036 13.75 10.3884 13.7516 9.90539 13.8165C9.44393 13.8785 9.24643 13.9858 9.11612 14.1161C8.9858 14.2464 8.87858 14.4439 8.81654 14.9054C8.75159 15.3884 8.75 16.036 8.75 17V20.2499C8.83184 20.25 8.91516 20.25 9 20.25H15C15.0848 20.25 15.1682 20.25 15.25 20.2499ZM7.25 7.99997C7.25 7.58576 7.58579 7.24997 8 7.24997L16 7.24997C16.4142 7.24997 16.75 7.58576 16.75 7.99997C16.75 8.41419 16.4142 8.74997 16 8.74997L8 8.74997C7.58579 8.74997 7.25 8.41419 7.25 7.99997Z" fill="#22282F"/>
</svg>
