<svg width="24" height="24" viewBox="0 0 24 24" fill="none" xmlns="http://www.w3.org/2000/svg">
<path fill-rule="evenodd" clip-rule="evenodd" d="M15.5547 2.70841C15.205 2.5351 14.7944 2.5351 14.4447 2.70841C14.2887 2.78572 14.1181 2.94226 13.53 3.53033C12.942 4.1184 12.7854 4.28898 12.7081 4.44498C12.5348 4.7947 12.5348 5.2053 12.7081 5.55502C12.7854 5.71103 12.942 5.8816 13.53 6.46967L15.53 8.46967L17.53 10.4697C18.1181 11.0577 18.2887 11.2143 18.4447 11.2916C18.7944 11.4649 19.205 11.4649 19.5547 11.2916C19.7107 11.2143 19.8813 11.0577 20.4694 10.4697C21.0574 9.8816 21.214 9.71103 21.2913 9.55502C21.4646 9.2053 21.4646 8.7947 21.2913 8.44498C21.214 8.28897 21.0574 8.1184 20.4694 7.53033L18.4696 5.53059L18.4694 5.53033L18.4691 5.53008L16.4694 3.53033C15.8813 2.94226 15.7107 2.78572 15.5547 2.70841ZM11.4694 11.4697L13.939 9L12.4694 7.53033L12.3834 7.4445C11.9226 6.98442 11.5659 6.62826 11.3641 6.22105C10.9828 5.45166 10.9828 4.54835 11.3641 3.77896C11.5659 3.37175 11.9226 3.01559 12.3834 2.55551L12.4694 2.46967L12.5552 2.38374C13.0153 1.92291 13.3714 1.56617 13.7787 1.36438C14.548 0.983114 15.4514 0.983114 16.2207 1.36438C16.628 1.56617 16.9841 1.92291 17.4442 2.38374L17.53 2.46967L18.9997 3.93934L19.9694 2.96967C20.2623 2.67678 20.7371 2.67678 21.03 2.96967C21.3229 3.26257 21.3229 3.73744 21.03 4.03033L20.0604 5L21.53 6.46967L21.616 6.55551C22.0768 7.01559 22.4335 7.37175 22.6353 7.77896C23.0166 8.54835 23.0166 9.45166 22.6353 10.221C22.4335 10.6283 22.0768 10.9844 21.616 11.4445L21.616 11.4445L21.53 11.5303L21.4442 11.6163C20.9841 12.0771 20.628 12.4338 20.2207 12.6356C19.4514 13.0169 18.548 13.0169 17.7787 12.6356C17.3714 12.4338 17.0153 12.0771 16.5552 11.6163L16.4694 11.5303L14.9997 10.0607L12.53 12.5303L10.0604 15L11.53 16.4697L11.616 16.5555C12.0768 17.0156 12.4335 17.3717 12.6353 17.779C13.0166 18.5483 13.0166 19.4517 12.6353 20.221C12.4335 20.6283 12.0768 20.9844 11.616 21.4445L11.53 21.5303L11.4442 21.6163L11.4442 21.6163C10.9841 22.0771 10.6279 22.4338 10.2207 22.6356C9.45135 23.0169 8.54804 23.0169 7.77865 22.6356C7.37144 22.4338 7.01528 22.0771 6.55521 21.6163L6.46937 21.5303L4.9997 20.0607L4.03003 21.0303C3.73713 21.3232 3.26226 21.3232 2.96937 21.0303C2.67647 20.7374 2.67647 20.2626 2.96937 19.9697L3.93904 19L2.46937 17.5303L2.38344 17.4445C1.92261 16.9844 1.56586 16.6283 1.36407 16.221C0.982809 15.4517 0.982809 14.5483 1.36407 13.779C1.56586 13.3717 1.92261 13.0156 2.38344 12.5555L2.46937 12.4697L2.5552 12.3837C3.01528 11.9229 3.37144 11.5662 3.77865 11.3644C4.54804 10.9831 5.45135 10.9831 6.22074 11.3644C6.62795 11.5662 6.98411 11.9229 7.44419 12.3837L7.44419 12.3837L7.53003 12.4697L8.9997 13.9393L11.4694 11.4697ZM5.52946 18.4691C5.52965 18.4693 5.52984 18.4695 5.53003 18.4697C5.53022 18.4699 5.53041 18.4701 5.5306 18.4702L7.53003 20.4697C8.1181 21.0577 8.28867 21.2143 8.44468 21.2916C8.7944 21.4649 9.205 21.4649 9.55472 21.2916C9.71073 21.2143 9.8813 21.0577 10.4694 20.4697C11.0574 19.8816 11.214 19.711 11.2913 19.555C11.4646 19.2053 11.4646 18.7947 11.2913 18.445C11.214 18.289 11.0574 18.1184 10.4694 17.5303L8.46937 15.5303L6.46937 13.5303C5.8813 12.9423 5.71073 12.7857 5.55472 12.7084C5.205 12.5351 4.7944 12.5351 4.44468 12.7084C4.28867 12.7857 4.1181 12.9423 3.53003 13.5303C2.94196 14.1184 2.78541 14.289 2.7081 14.445C2.5348 14.7947 2.5348 15.2053 2.7081 15.555C2.78541 15.711 2.94196 15.8816 3.53003 16.4697L5.52946 18.4691Z" fill="#22282F"/>
</svg>
