<svg width="24" height="24" viewBox="0 0 24 24" fill="none" xmlns="http://www.w3.org/2000/svg">
<path fill-rule="evenodd" clip-rule="evenodd" d="M9.94513 2.25H10H16H16.0549C17.4225 2.24998 18.5248 2.24996 19.3918 2.36652C20.2919 2.48754 21.0497 2.74643 21.6517 3.34835C22.2536 3.95027 22.5125 4.70814 22.6335 5.60825C22.75 6.47522 22.75 7.57754 22.75 8.94513V9V11V11.0549C22.75 12.4225 22.75 13.5248 22.6335 14.3918C22.5125 15.2919 22.2536 16.0497 21.6517 16.6517C21.1208 17.1825 20.4687 17.4465 19.7047 17.5845C19.424 19.378 17.8722 20.75 16 20.75H10H9.97184C8.59784 20.75 7.52832 20.75 6.66601 20.6912C5.79109 20.6315 5.07482 20.5087 4.41689 20.2362C2.76295 19.5511 1.4489 18.2371 0.763813 16.5831C0.491289 15.9252 0.368526 15.2089 0.30883 14.334C0.249995 13.4717 0.249997 12.4022 0.25 11.0282V11V6C0.25 5.58579 0.585786 5.25 1 5.25C1.41421 5.25 1.75 5.58579 1.75 6V11C1.75 12.4081 1.75041 13.4266 1.80535 14.2319C1.85984 15.0304 1.96543 15.5644 2.14963 16.0091C2.68248 17.2955 3.70451 18.3175 4.99091 18.8504C5.43561 19.0346 5.96957 19.1402 6.76812 19.1947C7.57341 19.2496 8.59191 19.25 10 19.25H16C16.9876 19.25 17.8265 18.6138 18.1293 17.7288C17.5194 17.75 16.8298 17.75 16.055 17.75H16.0549H16.0549H16H10H9.94513H9.94512H9.94511C8.57753 17.75 7.47521 17.75 6.60825 17.6335C5.70814 17.5125 4.95027 17.2536 4.34835 16.6517C3.74643 16.0497 3.48754 15.2919 3.36652 14.3918C3.24996 13.5248 3.24998 12.4225 3.25 11.0549L3.25 11V9L3.25 8.94513C3.24998 7.57754 3.24996 6.47522 3.36652 5.60825C3.48754 4.70814 3.74643 3.95027 4.34835 3.34835C4.95027 2.74643 5.70814 2.48754 6.60825 2.36652C7.47522 2.24996 8.57754 2.24998 9.94513 2.25ZM6.80812 3.85315C6.07434 3.9518 5.68577 4.13225 5.40901 4.40901C5.13225 4.68577 4.9518 5.07435 4.85315 5.80812C4.75159 6.56347 4.75 7.56458 4.75 9V11C4.75 12.4354 4.75159 13.4365 4.85315 14.1919C4.9518 14.9257 5.13225 15.3142 5.40901 15.591C5.68577 15.8678 6.07434 16.0482 6.80812 16.1469C7.56347 16.2484 8.56458 16.25 10 16.25H16C17.4354 16.25 18.4365 16.2484 19.1919 16.1469C19.9257 16.0482 20.3142 15.8678 20.591 15.591C20.8678 15.3142 21.0482 14.9257 21.1469 14.1919C21.2484 13.4365 21.25 12.4354 21.25 11V9C21.25 7.56458 21.2484 6.56347 21.1469 5.80812C21.0482 5.07435 20.8678 4.68577 20.591 4.40901C20.3142 4.13225 19.9257 3.9518 19.1919 3.85315C18.4365 3.75159 17.4354 3.75 16 3.75H10C8.56458 3.75 7.56347 3.75159 6.80812 3.85315ZM8.38587 6.35688C8.03069 6.14377 7.56999 6.25894 7.35688 6.61413C7.14377 6.96931 7.25894 7.43001 7.61413 7.64312L12.6141 10.6431C12.8516 10.7856 13.1484 10.7856 13.3859 10.6431L18.3859 7.64312C18.7411 7.43001 18.8562 6.96931 18.6431 6.61413C18.43 6.25894 17.9693 6.14377 17.6141 6.35688L13 9.12536L8.38587 6.35688Z" fill="#22282F"/>
</svg>
