<svg width="24" height="24" viewBox="0 0 24 24" fill="none" xmlns="http://www.w3.org/2000/svg">
<path fill-rule="evenodd" clip-rule="evenodd" d="M12 2.25C6.61522 2.25 2.25 6.61522 2.25 12C2.25 17.3848 6.61522 21.75 12 21.75C17.3848 21.75 21.75 17.3848 21.75 12C21.75 6.61522 17.3848 2.25 12 2.25ZM3.75 12C3.75 7.44365 7.44365 3.75 12 3.75C16.5563 3.75 20.25 7.44365 20.25 12C20.25 16.5563 16.5563 20.25 12 20.25C7.44365 20.25 3.75 16.5563 3.75 12ZM7 12.25C6.76141 12.25 6.53705 12.3635 6.39572 12.5558C6.2544 12.748 6.21297 12.996 6.28415 13.2237L7 13C6.28415 13.2237 6.28425 13.2241 6.28435 13.2244L6.28458 13.2251L6.28513 13.2269L6.2866 13.2315L6.29099 13.245C6.29456 13.2559 6.29945 13.2706 6.3057 13.2888C6.31819 13.3251 6.33613 13.3755 6.35984 13.438C6.40722 13.5628 6.47797 13.7367 6.57485 13.9433C6.76772 14.3548 7.06888 14.9063 7.50281 15.4617C8.3724 16.5748 9.819 17.75 12 17.75C14.181 17.75 15.6276 16.5748 16.4972 15.4617C16.9311 14.9063 17.2323 14.3548 17.4252 13.9433C17.522 13.7367 17.5928 13.5628 17.6402 13.438C17.6639 13.3755 17.6818 13.3251 17.6943 13.2888L17.7024 13.265L17.709 13.245L17.7134 13.2315L17.7149 13.2269L17.7154 13.2251L17.7156 13.2244C17.7158 13.2241 17.7158 13.2237 17 13L17.7158 13.2237C17.787 12.996 17.7456 12.748 17.6043 12.5558C17.463 12.3635 17.2386 12.25 17 12.25H7ZM8.68483 14.5383C8.47404 14.2685 8.30067 13.9972 8.16145 13.75H15.8386C15.6993 13.9972 15.526 14.2685 15.3152 14.5383C14.6222 15.4252 13.5688 16.25 12 16.25C10.4312 16.25 9.3778 15.4252 8.68483 14.5383ZM10 9C10 9.55228 9.55228 10 9 10C8.44772 10 8 9.55228 8 9C8 8.44772 8.44772 8 9 8C9.55228 8 10 8.44772 10 9ZM15 10C15.5523 10 16 9.55228 16 9C16 8.44772 15.5523 8 15 8C14.4477 8 14 8.44772 14 9C14 9.55228 14.4477 10 15 10Z" fill="#22282F"/>
</svg>
