<svg width="24" height="24" viewBox="0 0 24 24" fill="none" xmlns="http://www.w3.org/2000/svg">
<path fill-rule="evenodd" clip-rule="evenodd" d="M12 2.25C6.61522 2.25 2.25 6.61522 2.25 12C2.25 17.3848 6.61522 21.75 12 21.75C17.3848 21.75 21.75 17.3848 21.75 12C21.75 6.61522 17.3848 2.25 12 2.25ZM3.75 12C3.75 7.44365 7.44365 3.75 12 3.75C16.5563 3.75 20.25 7.44365 20.25 12C20.25 16.5563 16.5563 20.25 12 20.25C7.44365 20.25 3.75 16.5563 3.75 12ZM8.59919 16.4504C8.35042 16.7816 7.88027 16.8484 7.54908 16.5997C7.21789 16.3509 7.15107 15.8808 7.39984 15.5496C8.4476 14.1546 10.1182 13.25 11.9999 13.25C13.8816 13.25 15.5522 14.1546 16.5999 15.5496C16.8487 15.8808 16.7819 16.3509 16.4507 16.5997C16.1195 16.8484 15.6493 16.7816 15.4006 16.4504C14.6239 15.4165 13.3898 14.75 11.9999 14.75C10.6099 14.75 9.37583 15.4165 8.59919 16.4504ZM10 10C10 10.5523 9.55228 11 9 11C8.44772 11 8 10.5523 8 10C8 9.44772 8.44772 9 9 9C9.55228 9 10 9.44772 10 10ZM15 11C15.5523 11 16 10.5523 16 10C16 9.44772 15.5523 9 15 9C14.4477 9 14 9.44772 14 10C14 10.5523 14.4477 11 15 11Z" fill="#22282F"/>
</svg>
