<svg width="24" height="24" viewBox="0 0 24 24" fill="none" xmlns="http://www.w3.org/2000/svg">
<path fill-rule="evenodd" clip-rule="evenodd" d="M12 2.25C6.61522 2.25 2.25 6.61522 2.25 12C2.25 17.3848 6.61522 21.75 12 21.75C17.3848 21.75 21.75 17.3848 21.75 12C21.75 6.61522 17.3848 2.25 12 2.25ZM3.75 12C3.75 7.44365 7.44365 3.75 12 3.75C16.5563 3.75 20.25 7.44365 20.25 12C20.25 16.5563 16.5563 20.25 12 20.25C7.44365 20.25 3.75 16.5563 3.75 12ZM9 10C9.55228 10 10 9.55228 10 9C10 8.44772 9.55228 8 9 8C8.44772 8 8 8.44772 8 9C8 9.55228 8.44772 10 9 10ZM16 9C16 9.55228 15.5523 10 15 10C14.4477 10 14 9.55228 14 9C14 8.44772 14.4477 8 15 8C15.5523 8 16 8.44772 16 9ZM12 11.25C10.4812 11.25 9.25 12.4812 9.25 14V16C9.25 17.5188 10.4812 18.75 12 18.75C13.5188 18.75 14.75 17.5188 14.75 16V14C14.75 12.4812 13.5188 11.25 12 11.25ZM10.75 14C10.75 13.3096 11.3096 12.75 12 12.75C12.6904 12.75 13.25 13.3096 13.25 14V16C13.25 16.6904 12.6904 17.25 12 17.25C11.3096 17.25 10.75 16.6904 10.75 16V14Z" fill="#22282F"/>
</svg>
