<svg width="24" height="24" viewBox="0 0 24 24" fill="none" xmlns="http://www.w3.org/2000/svg">
<path fill-rule="evenodd" clip-rule="evenodd" d="M6.39256 2.25C6.41294 2.25 6.43338 2.25 6.4539 2.25H17.5465L17.6079 2.25C18.5135 2.24996 19.2762 2.24992 19.8421 2.33146C20.4028 2.41226 21.0685 2.61224 21.3698 3.2831C21.671 3.95396 21.3783 4.58436 21.0661 5.05714C20.7511 5.53425 20.2444 6.10427 19.6427 6.78115L19.6019 6.827L16.2079 10.6453C15.5568 11.3777 15.3133 11.6585 15.1445 11.9693C15.0053 12.2255 14.9012 12.4992 14.835 12.7831C14.7547 13.1276 14.7502 13.4993 14.7502 14.4792V19C14.7502 20.5188 13.519 21.75 12.0002 21.75C10.4814 21.75 9.25021 20.5188 9.25021 19V14.4792C9.25021 13.4993 9.24568 13.1276 9.16539 12.7831C9.09922 12.4992 8.99514 12.2255 8.85597 11.9693C8.68711 11.6585 8.44358 11.3777 7.79256 10.6453L4.39852 6.827C4.38489 6.81167 4.37131 6.79639 4.35777 6.78116C3.75604 6.10428 3.24931 5.53425 2.9343 5.05714C2.62216 4.58436 2.32938 3.95396 2.63063 3.2831C2.93189 2.61224 3.59757 2.41226 4.15831 2.33146C4.72419 2.24992 5.48689 2.24996 6.39256 2.25ZM3.97616 3.92838C3.97547 3.92811 3.97804 3.9249 3.98597 3.91953C3.98083 3.92596 3.97686 3.92864 3.97616 3.92838ZM4.01371 3.90419C4.06214 3.88121 4.16591 3.84586 4.37224 3.81613C4.8179 3.75191 5.47051 3.75 6.4539 3.75H17.5465C18.5299 3.75 19.1825 3.75191 19.6282 3.81613C19.8345 3.84586 19.9383 3.88121 19.9867 3.90419C19.9717 3.95566 19.9292 4.05671 19.8143 4.23067C19.5663 4.60642 19.1341 5.09546 18.4808 5.83046L15.0867 9.64875C15.0665 9.67147 15.0466 9.69391 15.0269 9.71608C14.4558 10.3583 14.0877 10.7723 13.8264 11.2532C13.623 11.6276 13.4709 12.0277 13.3742 12.4427C13.25 12.9757 13.2501 13.5297 13.2502 14.3891C13.2502 14.4188 13.2502 14.4488 13.2502 14.4792V19C13.2502 19.6904 12.6906 20.25 12.0002 20.25C11.3099 20.25 10.7502 19.6904 10.7502 19V14.4792C10.7502 14.4488 10.7502 14.4188 10.7502 14.3891C10.7504 13.5297 10.7505 12.9757 10.6262 12.4427C10.5295 12.0277 10.3774 11.6276 10.174 11.2532C9.91275 10.7723 9.5446 10.3583 8.97354 9.71608C8.95383 9.69392 8.93388 9.67147 8.91368 9.64875L5.51964 5.83046C4.86631 5.09546 4.43417 4.60642 4.18608 4.23067C4.07122 4.0567 4.02871 3.95566 4.01371 3.90419ZM20.0243 3.92838C20.0236 3.92864 20.0196 3.92596 20.0145 3.91954C20.0224 3.9249 20.025 3.92811 20.0243 3.92838ZM19.9937 3.87327C19.9923 3.86516 19.9929 3.86041 19.9936 3.86007C19.9942 3.85972 19.9949 3.86378 19.9937 3.87327ZM4.00674 3.87327C4.00548 3.86378 4.00618 3.85972 4.00684 3.86007C4.00751 3.86041 4.00814 3.86516 4.00674 3.87327Z" fill="#22282F"/>
</svg>
