<svg width="24" height="24" viewBox="0 0 24 24" fill="none" xmlns="http://www.w3.org/2000/svg">
<path fill-rule="evenodd" clip-rule="evenodd" d="M12.3176 2.32059L12 3C12.3176 2.32059 12.318 2.32074 12.3183 2.3209L12.3191 2.32128L12.3212 2.32227L12.3274 2.32518L12.3471 2.33466C12.3635 2.34262 12.3864 2.35387 12.4154 2.36843C12.4733 2.39754 12.5555 2.43993 12.6585 2.49582C12.8644 2.60753 13.1539 2.7735 13.4993 2.99554C14.1889 3.43881 15.1079 4.11001 16.0286 5.02477C17.8706 6.85477 19.75 9.69416 19.75 13.6364C19.75 18.1069 16.314 21.75 12 21.75C7.68601 21.75 4.25 18.1069 4.25 13.6364C4.25 11.4033 5.06895 9.60298 5.87216 8.37382C6.27459 7.75798 6.67738 7.27864 6.98193 6.95101C7.13445 6.78694 7.26307 6.66013 7.35571 6.5725C7.40206 6.52866 7.43947 6.49456 7.46646 6.47043C7.47996 6.45837 7.49085 6.44879 7.49897 6.44173L7.50902 6.43303L7.51244 6.4301L7.51374 6.42899L7.51429 6.42853C7.51453 6.42832 7.51477 6.42812 8 7L7.51477 6.42812C7.73759 6.23906 8.04992 6.19663 8.3151 6.3194C8.58028 6.44217 8.75 6.70778 8.75 7C8.75 8.54681 8.75699 9.66944 8.97114 10.419C9.07218 10.7726 9.19892 10.9603 9.32389 11.0645C9.43876 11.1602 9.62939 11.25 10 11.25C10.3705 11.25 10.6532 11.0716 10.9013 10.552C11.1661 9.99706 11.3156 9.17646 11.3765 8.20322C11.4363 7.24622 11.4068 6.21747 11.3603 5.28745C11.3455 4.99056 11.3284 4.69758 11.3122 4.41943C11.2793 3.85478 11.25 3.35122 11.25 3C11.25 2.74358 11.381 2.50492 11.5973 2.36726C11.8137 2.22959 12.0854 2.21199 12.3176 2.32059ZM7.27676 8.9734C7.2273 9.04458 7.17757 9.11825 7.12784 9.19436C6.43105 10.2607 5.75 11.7785 5.75 13.6364C5.75 17.3477 8.582 20.25 12 20.25C15.418 20.25 18.25 17.3477 18.25 13.6364C18.25 10.2149 16.6294 7.73614 14.9714 6.08887C14.1951 5.31766 13.4174 4.73629 12.8101 4.33664C12.8258 4.60466 12.8427 4.89744 12.8584 5.21255C12.9057 6.15753 12.9387 7.25378 12.8735 8.29679C12.8094 9.32354 12.6464 10.3779 12.255 11.198C11.8468 12.0534 11.1295 12.75 10 12.75C9.37061 12.75 8.81124 12.5898 8.36361 12.2168C7.92608 11.8522 7.67782 11.3524 7.52886 10.831C7.37778 10.3023 7.30851 9.66825 7.27676 8.9734Z" fill="#22282F"/>
</svg>
