<svg width="24" height="24" viewBox="0 0 24 24" fill="none" xmlns="http://www.w3.org/2000/svg">
<path fill-rule="evenodd" clip-rule="evenodd" d="M5 1.25C5.41421 1.25 5.75 1.58579 5.75 2V3.25H19C19.2489 3.25 19.4815 3.37345 19.6211 3.57953C19.7606 3.78561 19.7888 4.04748 19.6964 4.27854L17.8078 9L19.6964 13.7215C19.7888 13.9525 19.7606 14.2144 19.6211 14.4205C19.4815 14.6266 19.2489 14.75 19 14.75H5.75V22C5.75 22.4142 5.41421 22.75 5 22.75C4.58579 22.75 4.25 22.4142 4.25 22V14V4V2C4.25 1.58579 4.58579 1.25 5 1.25ZM5.75 13.25H17.8922L16.3036 9.27854C16.2321 9.09973 16.2321 8.90027 16.3036 8.72146L17.8922 4.75H5.75V13.25Z" fill="#22282F"/>
</svg>
