<svg width="24" height="24" viewBox="0 0 24 24" fill="none" xmlns="http://www.w3.org/2000/svg">
<path fill-rule="evenodd" clip-rule="evenodd" d="M5 1.25C5.41421 1.25 5.75 1.58579 5.75 2V3.08515L7.49013 2.73712C9.19344 2.39646 10.9626 2.7029 12.4521 3.5966C14.0594 4.56103 16.0481 4.6374 17.7248 3.79909L18.6646 3.32918C18.8971 3.21293 19.1732 3.22536 19.3943 3.36201C19.6154 3.49867 19.75 3.74007 19.75 4V14C19.75 14.2841 19.5895 14.5438 19.3354 14.6708L18.3956 15.1407C16.2603 16.2084 13.7275 16.1111 11.6803 14.8828C10.5108 14.1811 9.12171 13.9405 7.7843 14.208L5.75 14.6149V22C5.75 22.4142 5.41421 22.75 5 22.75C4.58579 22.75 4.25 22.4142 4.25 22V14V4V2C4.25 1.58579 4.58579 1.25 5 1.25ZM5.75 13.0851L7.49013 12.7371C9.19344 12.3965 10.9626 12.7029 12.4521 13.5966C14.0594 14.561 16.0481 14.6374 17.7248 13.7991L18.25 13.5365V5.21144C16.1459 6.20341 13.6811 6.08333 11.6803 4.88284C10.5108 4.18112 9.12171 3.94051 7.7843 4.20799L5.75 4.61485V13.0851Z" fill="#22282F"/>
</svg>
