<svg width="24" height="24" viewBox="0 0 24 24" fill="none" xmlns="http://www.w3.org/2000/svg">
<path fill-rule="evenodd" clip-rule="evenodd" d="M6 1.25C6.41421 1.25 6.75 1.58579 6.75 2V3.47146L15.8385 6.71735L15.8965 6.73807C16.7901 7.05715 17.5383 7.32435 18.0623 7.60015C18.5753 7.8702 19.158 8.29354 19.2036 9.04809C19.2492 9.80264 18.7216 10.293 18.2448 10.6229C17.7578 10.9597 17.0472 11.315 16.1985 11.7393L16.1434 11.7668L6.75 16.4635V22C6.75 22.4142 6.41421 22.75 6 22.75C5.58579 22.75 5.25 22.4142 5.25 22V16V4V2C5.25 1.58579 5.58579 1.25 6 1.25ZM6.75 14.7865L15.4726 10.4252C16.3908 9.96609 17.0033 9.65775 17.3914 9.38923C17.5695 9.26608 17.6511 9.18458 17.6869 9.13967C17.6459 9.09941 17.5551 9.02832 17.3636 8.92749C16.9459 8.70763 16.3007 8.47524 15.334 8.12997L6.75 5.06425V14.7865ZM17.7178 9.17882C17.7171 9.17884 17.7144 9.17506 17.7117 9.16743C17.7172 9.175 17.7185 9.17881 17.7178 9.17882ZM17.7082 9.10914C17.7099 9.10125 17.7122 9.09717 17.7129 9.09709C17.7136 9.09702 17.7127 9.10097 17.7082 9.10914Z" fill="#22282F"/>
</svg>
