<svg width="24" height="24" viewBox="0 0 24 24" fill="none" xmlns="http://www.w3.org/2000/svg">
<path fill-rule="evenodd" clip-rule="evenodd" d="M11.2302 5.92469C10.8427 6.22033 10.3837 6.6771 9.70202 7.35875L6.53045 10.5303C5.63472 11.4261 5.01101 12.0515 4.5917 12.5848C4.18293 13.1046 4.03232 13.4597 4.00183 13.7981C3.98973 13.9324 3.98973 14.0676 4.00183 14.2019C4.03232 14.5403 4.18293 14.8954 4.5917 15.4152C5.01101 15.9485 5.63472 16.5739 6.53044 17.4697C7.42617 18.3654 8.05165 18.9891 8.58488 19.4084C9.1047 19.8172 9.45979 19.9678 9.79826 19.9983C9.93256 20.0104 10.0677 20.0104 10.202 19.9983C10.5404 19.9678 10.8955 19.8172 11.4153 19.4084C11.9486 18.9891 12.5741 18.3654 13.4698 17.4697L16.6414 14.2981C17.323 13.6164 17.7798 13.1574 18.0754 12.7699C18.3579 12.3998 18.4217 12.1843 18.4217 12C18.4217 11.8157 18.3579 11.6002 18.0754 11.2301C17.7798 10.8426 17.323 10.3836 16.6414 9.7019L14.2982 7.35876C13.6166 6.6771 13.1575 6.22033 12.7701 5.92469C12.3999 5.64226 12.1844 5.57843 12.0001 5.57843C11.8158 5.57843 11.6003 5.64226 11.2302 5.92469ZM10.3203 4.73216C10.8239 4.34793 11.356 4.07843 12.0001 4.07843C12.6442 4.07843 13.1763 4.34793 13.6799 4.73216C13.7661 4.79791 13.854 4.86908 13.9439 4.9453L15.3943 3.49484L15.4259 3.4633C15.8523 3.03685 16.2198 2.66928 16.5528 2.40908C16.9081 2.13143 17.3017 1.91185 17.7897 1.87703C17.8963 1.86942 18.0033 1.86942 18.1099 1.87703C18.5978 1.91183 18.9915 2.1314 19.3468 2.40904C19.6798 2.66923 20.0473 3.03679 20.4737 3.46323L20.5053 3.49477L20.5368 3.52631C20.9633 3.95271 21.3308 4.32023 21.591 4.6532C21.8687 5.0085 22.0883 5.40219 22.1231 5.89009C22.1307 5.99672 22.1307 6.10374 22.1231 6.21036C22.0883 6.69827 21.8687 7.09196 21.591 7.44727C21.3308 7.78024 20.9633 8.14777 20.5368 8.57417L20.5053 8.60571L19.0548 10.0562C19.131 10.1461 19.2022 10.234 19.268 10.3202C19.6522 10.8238 19.9217 11.3559 19.9217 12C19.9217 12.6441 19.6522 13.1762 19.268 13.6798C18.9039 14.1569 18.3742 14.6867 17.7388 15.3219L17.702 15.3588L14.5304 18.5303L14.4964 18.5644C13.6428 19.418 12.9546 20.1063 12.3426 20.5875C11.709 21.0857 11.0812 21.4252 10.3365 21.4922C10.1127 21.5124 9.88752 21.5124 9.66369 21.4922C8.91899 21.4252 8.29121 21.0857 7.65768 20.5875C7.04568 20.1063 6.35747 19.418 5.50386 18.5644L5.46978 18.5303L5.43568 18.4962C4.58206 17.6426 3.89385 16.9544 3.41259 16.3424C2.9144 15.7089 2.57496 15.0811 2.50788 14.3364C2.48771 14.1126 2.48771 13.8874 2.50788 13.6636C2.57496 12.9189 2.9144 12.2911 3.41259 11.6576C3.89385 11.0456 4.58207 10.3574 5.43571 9.50375L5.46978 9.46967L8.64136 6.29809L8.67813 6.26132C9.31343 5.62598 9.84319 5.09619 10.3203 4.73216ZM18.025 8.96465L19.4446 7.54505C19.9116 7.07812 20.2124 6.77545 20.4091 6.52366C20.5948 6.28602 20.6219 6.17391 20.6269 6.10362C20.6294 6.06808 20.6294 6.0324 20.6269 5.99686C20.6219 5.92656 20.5948 5.81446 20.4091 5.57682C20.2124 5.32503 19.9116 5.02237 19.4446 4.55544C18.9777 4.08852 18.675 3.78773 18.4232 3.59098C18.1856 3.40528 18.0735 3.37824 18.0032 3.37322C17.9676 3.37069 17.932 3.37069 17.8964 3.37322C17.8261 3.37824 17.714 3.40528 17.4764 3.59099C17.2246 3.78775 16.9219 4.08855 16.455 4.55548L15.0355 5.97509C15.1286 6.06784 15.2241 6.16332 15.3221 6.26132L15.3589 6.2981L17.702 8.64124L17.7388 8.67801C17.8368 8.77601 17.9323 8.87149 18.025 8.96465ZM6.46967 13.4697C6.76256 13.1768 7.23744 13.1768 7.53033 13.4697L10.5303 16.4697C10.8232 16.7626 10.8232 17.2374 10.5303 17.5303C10.2374 17.8232 9.76256 17.8232 9.46967 17.5303L6.46967 14.5303C6.17678 14.2374 6.17678 13.7626 6.46967 13.4697Z" fill="#22282F"/>
</svg>
