<svg width="24" height="24" viewBox="0 0 24 24" fill="none" xmlns="http://www.w3.org/2000/svg">
<path fill-rule="evenodd" clip-rule="evenodd" d="M12 1.25C10.4812 1.25 9.25002 2.48122 9.25002 4V4.75228C9.10444 4.80755 8.96097 4.86706 8.81976 4.93068L8.28769 4.3986C7.21375 3.32466 5.47254 3.32466 4.3986 4.3986C3.32466 5.47254 3.32466 7.21375 4.3986 8.28769L4.93068 8.81976C4.86706 8.96097 4.80755 9.10443 4.75229 9.25H4C2.48122 9.25 1.25 10.4812 1.25 12C1.25 13.5188 2.48122 14.75 4 14.75H4.75229C4.80755 14.8956 4.86706 15.039 4.93068 15.1802L4.3986 15.7123C3.32466 16.7863 3.32466 18.5275 4.3986 19.6014L4.92893 19.0711L4.3986 19.6014C5.47254 20.6753 7.21375 20.6753 8.28769 19.6014L8.81976 19.0693C8.96097 19.1329 9.10444 19.1925 9.25002 19.2477V20C9.25002 21.5188 10.4812 22.75 12 22.75C13.5188 22.75 14.75 21.5188 14.75 20V19.2477C14.8956 19.1924 15.039 19.1329 15.1802 19.0693L15.7123 19.6014C16.7863 20.6753 18.5275 20.6753 19.6014 19.6014C20.6753 18.5275 20.6753 16.7863 19.6014 15.7123L19.0693 15.1802C19.1329 15.039 19.1925 14.8956 19.2477 14.75H20C21.5188 14.75 22.75 13.5188 22.75 12C22.75 10.4812 21.5188 9.25 20 9.25H19.2477C19.1925 9.10443 19.1329 8.96096 19.0693 8.81976L19.6014 8.28769C20.6753 7.21375 20.6753 5.47254 19.6014 4.3986L19.0711 4.92893L19.6014 4.3986C18.5275 3.32466 16.7863 3.32466 15.7123 4.3986L15.1802 4.93067C15.039 4.86706 14.8956 4.80755 14.75 4.75229V4C14.75 2.48122 13.5188 1.25 12 1.25ZM10.75 4C10.75 3.30964 11.3097 2.75 12 2.75C12.6904 2.75 13.25 3.30964 13.25 4V5.28988C13.25 5.6217 13.468 5.91407 13.7861 6.00872C14.2013 6.1323 14.5985 6.29794 14.9729 6.50079C15.2647 6.65893 15.6258 6.60642 15.8605 6.37171L16.773 5.45926C17.2611 4.97111 18.0526 4.97111 18.5407 5.45926C19.0289 5.94742 19.0289 6.73887 18.5407 7.22703L17.6283 8.13947C17.3936 8.37419 17.3411 8.73528 17.4992 9.02713C17.7021 9.40148 17.8677 9.79872 17.9913 10.2139C18.0859 10.532 18.3783 10.75 18.7101 10.75H20C20.6904 10.75 21.25 11.3096 21.25 12C21.25 12.6904 20.6904 13.25 20 13.25H18.7101C18.3783 13.25 18.0859 13.468 17.9913 13.7861C17.8677 14.2013 17.7021 14.5985 17.4992 14.9729C17.3411 15.2647 17.3936 15.6258 17.6283 15.8605L18.5407 16.773C19.0289 17.2611 19.0289 18.0526 18.5407 18.5407C18.0526 19.0289 17.2611 19.0289 16.773 18.5407L15.8605 17.6283C15.6258 17.3936 15.2647 17.3411 14.9729 17.4992C14.5985 17.7021 14.2013 17.8677 13.7861 17.9913C13.4681 18.0859 13.25 18.3783 13.25 18.7101V20C13.25 20.6904 12.6904 21.25 12 21.25C11.3097 21.25 10.75 20.6904 10.75 20V18.7101C10.75 18.3783 10.532 18.0859 10.214 17.9913C9.79873 17.8677 9.40148 17.7021 9.02713 17.4992C8.73528 17.3411 8.37419 17.3936 8.13948 17.6283L7.22703 18.5407C6.73887 19.0289 5.94742 19.0289 5.45926 18.5407C4.97111 18.0526 4.97111 17.2611 5.45926 16.773L6.37171 15.8605C6.60643 15.6258 6.65894 15.2647 6.50079 14.9729C6.29794 14.5985 6.1323 14.2013 6.00872 13.7861C5.91407 13.468 5.6217 13.25 5.28988 13.25H4C3.30964 13.25 2.75 12.6904 2.75 12C2.75 11.3096 3.30964 10.75 4 10.75H5.28988C5.62169 10.75 5.91407 10.532 6.00872 10.2139C6.1323 9.79872 6.29794 9.40148 6.50079 9.02713C6.65894 8.73528 6.60643 8.37419 6.37171 8.13948L5.45926 7.22703C4.97111 6.73887 4.97111 5.94742 5.45926 5.45926C5.94742 4.97111 6.73887 4.97111 7.22703 5.45926L8.13948 6.37171C8.37419 6.60643 8.73528 6.65894 9.02713 6.50079C9.40149 6.29793 9.79873 6.13229 10.214 6.00872C10.532 5.91407 10.75 5.62169 10.75 5.28988V4ZM9.75 12C9.75 10.7574 10.7574 9.75 12 9.75C13.2426 9.75 14.25 10.7574 14.25 12C14.25 13.2426 13.2426 14.25 12 14.25C10.7574 14.25 9.75 13.2426 9.75 12ZM12 8.25C9.92893 8.25 8.25 9.92893 8.25 12C8.25 14.0711 9.92893 15.75 12 15.75C14.0711 15.75 15.75 14.0711 15.75 12C15.75 9.92893 14.0711 8.25 12 8.25Z" fill="#22282F"/>
</svg>
