<svg width="24" height="24" viewBox="0 0 24 24" fill="none" xmlns="http://www.w3.org/2000/svg">
<path fill-rule="evenodd" clip-rule="evenodd" d="M6.62404 3.58397C6.8538 3.92862 6.76067 4.39427 6.41603 4.62404L5.19722 5.43657C4.74985 5.73482 4.45704 5.93093 4.24286 6.10448C4.04074 6.26825 3.95282 6.37794 3.89791 6.48055C3.84299 6.58315 3.80049 6.71715 3.77634 6.97617C3.75075 7.25065 3.75 7.60306 3.75 8.14074V13.2596C4.49123 12.6299 5.4513 12.25 6.50009 12.25C8.59138 12.25 10.3299 13.7605 10.6841 15.75H13.316C13.6702 13.7605 15.4087 12.25 17.5 12.25C18.5488 12.25 19.5088 12.6299 20.25 13.2595V8.14074C20.25 7.60306 20.2493 7.25065 20.2237 6.97617C20.1995 6.71715 20.157 6.58315 20.1021 6.48055C20.0472 6.37794 19.9593 6.26825 19.7571 6.10448C19.543 5.93093 19.2501 5.73482 18.8028 5.43657L17.584 4.62404C17.2393 4.39427 17.1462 3.92862 17.376 3.58397C17.6057 3.23933 18.0714 3.1462 18.416 3.37596L19.6348 4.1885L19.662 4.20664C20.0748 4.48181 20.4265 4.71628 20.7015 4.93904C20.9945 5.17645 21.2429 5.43318 21.4246 5.77276C21.6063 6.11234 21.6822 6.46142 21.7172 6.83691C21.75 7.18919 21.75 7.61185 21.75 8.10789V8.10791V8.10792V8.10803V8.14074V16.5C21.75 18.8472 19.8472 20.75 17.5 20.75C15.4087 20.75 13.6702 19.2395 13.316 17.25H10.6841C10.3299 19.2395 8.59139 20.75 6.50009 20.75C4.15716 20.75 2.25703 18.8542 2.25011 16.5129L2.25 16.5V8.14074V8.10803C2.24998 7.61193 2.24997 7.18922 2.28282 6.83691C2.31783 6.46142 2.39366 6.11234 2.57539 5.77276C2.75713 5.43318 3.00553 5.17645 3.29853 4.93904C3.57345 4.71627 3.92517 4.48181 4.33796 4.20664L4.36517 4.1885L5.58397 3.37596C5.92862 3.1462 6.39427 3.23933 6.62404 3.58397ZM20.25 16.5C20.25 14.9812 19.0188 13.75 17.5 13.75C15.9812 13.75 14.75 14.9812 14.75 16.5C14.75 18.0188 15.9812 19.25 17.5 19.25C19.0188 19.25 20.25 18.0188 20.25 16.5ZM6.50009 13.75C4.98131 13.75 3.75009 14.9812 3.75009 16.5C3.75009 18.0188 4.98131 19.25 6.50009 19.25C8.01542 19.25 9.24449 18.0244 9.25007 16.5104L9.25 16.5L9.25007 16.4896C9.24448 14.9756 8.01541 13.75 6.50009 13.75Z" fill="#22282F"/>
</svg>
