<svg width="24" height="24" viewBox="0 0 24 24" fill="none" xmlns="http://www.w3.org/2000/svg">
<path fill-rule="evenodd" clip-rule="evenodd" d="M6.62404 3.58397C6.8538 3.92862 6.76067 4.39427 6.41603 4.62404L5.19722 5.43657C4.74985 5.73482 4.45704 5.93093 4.24286 6.10448C4.04074 6.26825 3.95282 6.37794 3.89791 6.48055C3.84299 6.58315 3.80049 6.71715 3.77634 6.97617C3.75075 7.25065 3.75 7.60306 3.75 8.14074V10.5364C4.38434 9.94098 5.18312 9.51844 6.07381 9.34127C6.53373 9.24979 7.06715 9.24987 7.90522 9.24999L8.00049 9.25H16.0005L16.0958 9.24999C16.9338 9.24987 17.4673 9.24979 17.9272 9.34127C18.8174 9.51835 19.6158 9.94055 20.25 10.5354V8.14074C20.25 7.60306 20.2493 7.25065 20.2237 6.97617C20.1995 6.71715 20.157 6.58315 20.1021 6.48055C20.0472 6.37794 19.9593 6.26825 19.7571 6.10448C19.543 5.93093 19.2501 5.73482 18.8028 5.43657L17.584 4.62404C17.2393 4.39427 17.1462 3.92862 17.376 3.58397C17.6057 3.23933 18.0714 3.1462 18.416 3.37596L19.6348 4.1885L19.662 4.20664C20.0748 4.48181 20.4265 4.71628 20.7015 4.93904C20.9945 5.17645 21.2429 5.43318 21.4246 5.77276C21.6063 6.11234 21.6822 6.46142 21.7172 6.83691C21.75 7.18919 21.75 7.61184 21.75 8.10788V8.10789V8.10791V8.10792V8.10803V8.14074V14.4737C21.7505 14.6078 21.7505 14.7506 21.7505 14.9035V14.9047L21.7505 15L21.7505 15.0953V15.0965C21.7505 15.2494 21.7505 15.3922 21.75 15.5263V16.5C21.75 16.6143 21.7244 16.7227 21.6787 16.8197C21.6727 16.8558 21.6662 16.8915 21.6592 16.9267C21.2844 18.811 19.8114 20.2839 17.9272 20.6587C17.4673 20.7502 16.9338 20.7501 16.0958 20.75H16.0958L16.0005 20.75H8.00049L7.90522 20.75H7.90519C7.06713 20.7501 6.53372 20.7502 6.07381 20.6587C4.18953 20.2839 2.71656 18.811 2.34176 16.9267C2.33496 16.8925 2.32867 16.8579 2.32284 16.8228C2.27614 16.7251 2.25 16.6156 2.25 16.5V8.14074V8.10803C2.24998 7.61193 2.24997 7.18922 2.28282 6.83691C2.31783 6.46142 2.39366 6.11234 2.57539 5.77276C2.75713 5.43318 3.00553 5.17645 3.29853 4.93904C3.57345 4.71627 3.92517 4.48181 4.33796 4.20664L4.36517 4.1885L5.58397 3.37596C5.92862 3.1462 6.39427 3.23933 6.62404 3.58397ZM20.25 15.4193C20.2479 16.0825 20.2375 16.3856 20.188 16.634C19.9316 17.9233 18.9238 18.9311 17.6345 19.1876C17.3388 19.2464 16.9657 19.25 16.0005 19.25H8.00049C7.03523 19.25 6.66213 19.2464 6.36644 19.1876C5.0772 18.9311 4.06938 17.9233 3.81294 16.634C3.75412 16.3384 3.75049 15.9653 3.75049 15C3.75049 14.0347 3.75412 13.6616 3.81294 13.366C4.06938 12.0767 5.0772 11.0689 6.36644 10.8124C6.66213 10.7536 7.03523 10.75 8.00049 10.75H16.0005C16.9657 10.75 17.3388 10.7536 17.6345 10.8124C18.9238 11.0689 19.9316 12.0767 20.188 13.366C20.2375 13.6144 20.2479 13.9175 20.25 14.5807V15.4193ZM10.0005 15C10.0005 15.5523 9.55277 16 9.00049 16C8.4482 16 8.00049 15.5523 8.00049 15C8.00049 14.4477 8.4482 14 9.00049 14C9.55277 14 10.0005 14.4477 10.0005 15ZM15.0005 16C15.5528 16 16.0005 15.5523 16.0005 15C16.0005 14.4477 15.5528 14 15.0005 14C14.4482 14 14.0005 14.4477 14.0005 15C14.0005 15.5523 14.4482 16 15.0005 16Z" fill="#22282F"/>
</svg>
