<svg width="24" height="24" viewBox="0 0 24 24" fill="none" xmlns="http://www.w3.org/2000/svg">
<path fill-rule="evenodd" clip-rule="evenodd" d="M10.6847 1.24999L10.6379 1.24999C9.5527 1.24997 8.67162 1.24996 7.9628 1.33472C7.22379 1.42309 6.58916 1.61119 6.03453 2.04422C5.47991 2.47726 5.14351 3.04732 4.87854 3.74283C4.6244 4.40993 4.41072 5.26471 4.14755 6.31748L4.1362 6.36287L2.75011 11.9072L2.73718 11.959L2.73718 11.959L2.73717 11.959C2.51083 12.8642 2.38116 13.3829 2.31556 13.9157C2.24996 14.4486 2.24998 14.9832 2.25 15.9163V15.9163V15.9697V18V18.052C2.24997 18.9505 2.24995 19.6997 2.32991 20.2945C2.41432 20.9223 2.59999 21.4891 3.05546 21.9445C3.51093 22.4 4.07773 22.5857 4.70552 22.6701C5.3003 22.75 6.04952 22.75 6.94801 22.75H7H17H17.052C17.9505 22.75 18.6997 22.75 19.2945 22.6701C19.9223 22.5857 20.4891 22.4 20.9445 21.9445C21.4 21.4891 21.5857 20.9223 21.6701 20.2945C21.7501 19.6997 21.75 18.9505 21.75 18.052V18V15.9697V15.9164C21.75 14.9832 21.75 14.4486 21.6844 13.9157C21.6189 13.3829 21.4892 12.8643 21.2629 11.9591L21.2628 11.959L21.2499 11.9072L19.8638 6.36287L19.8525 6.31748C19.5893 5.26471 19.3756 4.40993 19.1215 3.74283C18.8565 3.04732 18.5201 2.47726 17.9655 2.04422C17.4108 1.61119 16.7762 1.42309 16.0372 1.33472C15.3284 1.24996 14.4473 1.24997 13.3621 1.24999L13.3153 1.24999H10.6847ZM6.95765 3.22653C7.21682 3.02418 7.55154 2.89458 8.1409 2.82411C8.75029 2.75124 9.54147 2.74999 10.6847 2.74999H13.3153C14.4585 2.74999 15.2497 2.75124 15.8591 2.82411C16.4485 2.89458 16.7832 3.02418 17.0423 3.22653C17.3015 3.42888 17.5084 3.72217 17.7197 4.27685C17.9382 4.85037 18.1313 5.61762 18.4086 6.72668L19.7947 12.271C19.8971 12.6805 19.975 12.9931 20.0348 13.25H3.96519C4.02504 12.9931 4.10295 12.6805 4.20533 12.271L5.59141 6.72668C5.86868 5.61762 6.06177 4.85037 6.28027 4.27685C6.49158 3.72217 6.69849 3.42888 6.95765 3.22653ZM3.75915 14.75C3.75038 15.0504 3.75 15.4276 3.75 15.9697V18C3.75 18.964 3.75159 19.6116 3.81654 20.0946C3.87858 20.5561 3.9858 20.7536 4.11612 20.8839C4.24643 21.0142 4.44393 21.1214 4.90539 21.1835C5.38843 21.2484 6.03599 21.25 7 21.25H17C17.964 21.25 18.6116 21.2484 19.0946 21.1835C19.5561 21.1214 19.7536 21.0142 19.8839 20.8839C20.0142 20.7536 20.1214 20.5561 20.1835 20.0946C20.2484 19.6116 20.25 18.964 20.25 18V15.9697C20.25 15.4276 20.2496 15.0504 20.2409 14.75H3.75915ZM8 18C8 18.5523 7.55228 19 7 19C6.44772 19 6 18.5523 6 18C6 17.4477 6.44772 17 7 17C7.55228 17 8 17.4477 8 18ZM11 17.25C10.5858 17.25 10.25 17.5858 10.25 18C10.25 18.4142 10.5858 18.75 11 18.75H17C17.4142 18.75 17.75 18.4142 17.75 18C17.75 17.5858 17.4142 17.25 17 17.25H11Z" fill="#22282F"/>
</svg>
