<svg width="24" height="24" viewBox="0 0 24 24" fill="none" xmlns="http://www.w3.org/2000/svg">
<path fill-rule="evenodd" clip-rule="evenodd" d="M10.7454 3.08277C10.7912 2.67109 10.4945 2.30027 10.0828 2.25453C9.67114 2.20879 9.30033 2.50544 9.25459 2.91712L8.66205 8.25L3 8.25C2.58579 8.25 2.25 8.58579 2.25 9C2.25 9.41421 2.58579 9.75 3 9.75L8.49538 9.75L7.99538 14.25H2C1.58579 14.25 1.25 14.5858 1.25 15C1.25 15.4142 1.58579 15.75 2 15.75H7.82871L7.25459 20.9171C7.20885 21.3288 7.5055 21.6996 7.91718 21.7454C8.32886 21.7911 8.69967 21.4944 8.74541 21.0828L9.33794 15.75L13.8287 15.75L13.2546 20.9171C13.2088 21.3288 13.5055 21.6996 13.9172 21.7454C14.3289 21.7911 14.6997 21.4944 14.7454 21.0828L15.3379 15.75H20C20.4142 15.75 20.75 15.4142 20.75 15C20.75 14.5858 20.4142 14.25 20 14.25H15.5046L16.0046 9.75L21 9.75C21.4142 9.75 21.75 9.41421 21.75 9C21.75 8.58579 21.4142 8.25 21 8.25L16.1713 8.25L16.7454 3.08277C16.7912 2.67109 16.4945 2.30027 16.0828 2.25453C15.6711 2.20879 15.3003 2.50544 15.2546 2.91712L14.662 8.25H10.1713L10.7454 3.08277ZM13.9954 14.25L14.4954 9.75H10.0046L9.50461 14.25L13.9954 14.25Z" fill="#22282F"/>
</svg>
