<svg width="24" height="24" viewBox="0 0 24 24" fill="none" xmlns="http://www.w3.org/2000/svg">
<path fill-rule="evenodd" clip-rule="evenodd" d="M12 2.25C7.71979 2.25 4.25 5.71979 4.25 10V12.2545C4.10741 12.2575 3.97577 12.2625 3.85464 12.2708C3.53754 12.2924 3.23801 12.339 2.94762 12.4593C2.27379 12.7384 1.73844 13.2738 1.45933 13.9476C1.33905 14.238 1.29241 14.5375 1.27077 14.8546C1.24999 15.1592 1.24999 15.5303 1.25 15.9747V15.9747V16V18V18.0253V18.0253C1.24999 18.4697 1.24999 18.8408 1.27077 19.1454C1.29241 19.4625 1.33905 19.762 1.45933 20.0524C1.73844 20.7262 2.27379 21.2616 2.94762 21.5407C3.23801 21.661 3.53754 21.7076 3.85464 21.7292C4.15925 21.75 4.53028 21.75 4.97474 21.75H5H5.02526C5.46972 21.75 5.84075 21.75 6.14537 21.7292C6.46247 21.7076 6.76199 21.661 7.05238 21.5407C7.72621 21.2616 8.26156 20.7262 8.54067 20.0524C8.66095 19.762 8.7076 19.4625 8.72923 19.1454C8.75001 18.8408 8.75001 18.4697 8.75 18.0253V18V16V15.9747C8.75001 15.5303 8.75001 15.1592 8.72923 14.8546C8.7076 14.5375 8.66095 14.238 8.54067 13.9476C8.26156 13.2738 7.72621 12.7384 7.05238 12.4593C6.76199 12.339 6.46247 12.2924 6.14537 12.2708C6.02423 12.2625 5.89259 12.2575 5.75 12.2545V10C5.75 6.54822 8.54822 3.75 12 3.75C15.4518 3.75 18.25 6.54822 18.25 10V12.2545C18.1074 12.2575 17.9758 12.2625 17.8546 12.2708C17.5375 12.2924 17.238 12.339 16.9476 12.4593C16.2738 12.7384 15.7384 13.2738 15.4593 13.9476C15.339 14.238 15.2924 14.5375 15.2708 14.8546C15.25 15.1592 15.25 15.5303 15.25 15.9747V16V18V18.0253C15.25 18.4697 15.25 18.8408 15.2708 19.1454C15.2924 19.4625 15.339 19.762 15.4593 20.0524C15.7384 20.7262 16.2738 21.2616 16.9476 21.5407C17.238 21.661 17.5375 21.7076 17.8546 21.7292C18.1592 21.75 18.5303 21.75 18.9747 21.75H19H19.0253C19.4697 21.75 19.8408 21.75 20.1454 21.7292C20.4625 21.7076 20.762 21.661 21.0524 21.5407C21.7262 21.2616 22.2616 20.7262 22.5407 20.0524C22.661 19.762 22.7076 19.4625 22.7292 19.1454C22.75 18.8408 22.75 18.4698 22.75 18.0253V18.0253V18V16V15.9747V15.9747C22.75 15.5302 22.75 15.1592 22.7292 14.8546C22.7076 14.5375 22.661 14.238 22.5407 13.9476C22.2616 13.2738 21.7262 12.7384 21.0524 12.4593C20.762 12.339 20.4625 12.2924 20.1454 12.2708C20.0242 12.2625 19.8926 12.2575 19.75 12.2545V10C19.75 5.71979 16.2802 2.25 12 2.25ZM19 13.75C18.5238 13.75 18.2042 13.7504 17.9567 13.7673C17.716 13.7837 17.5988 13.8132 17.5216 13.8452C17.2154 13.972 16.972 14.2154 16.8452 14.5216C16.8132 14.5988 16.7837 14.716 16.7673 14.9567C16.7504 15.2042 16.75 15.5238 16.75 16V18C16.75 18.4762 16.7504 18.7958 16.7673 19.0433C16.7837 19.284 16.8132 19.4012 16.8452 19.4784C16.972 19.7846 17.2154 20.028 17.5216 20.1549C17.5988 20.1868 17.716 20.2163 17.9567 20.2327C18.2042 20.2496 18.5238 20.25 19 20.25C19.4762 20.25 19.7958 20.2496 20.0433 20.2327C20.284 20.2163 20.4012 20.1868 20.4784 20.1549C20.7846 20.028 21.028 19.7846 21.1549 19.4784C21.1868 19.4012 21.2163 19.284 21.2327 19.0433C21.2496 18.7958 21.25 18.4762 21.25 18V16C21.25 15.5238 21.2496 15.2042 21.2327 14.9567C21.2163 14.716 21.1868 14.5988 21.1549 14.5216C21.028 14.2154 20.7846 13.972 20.4784 13.8452C20.4012 13.8132 20.284 13.7837 20.0433 13.7673C19.7958 13.7504 19.4762 13.75 19 13.75ZM3.95674 13.7673C3.71602 13.7837 3.5988 13.8132 3.52165 13.8452C3.21536 13.972 2.97202 14.2154 2.84515 14.5216C2.81319 14.5988 2.78372 14.716 2.76729 14.9567C2.75041 15.2042 2.75 15.5238 2.75 16V18C2.75 18.4762 2.75041 18.7958 2.76729 19.0433C2.78372 19.284 2.81319 19.4012 2.84515 19.4784C2.97202 19.7846 3.21536 20.028 3.52165 20.1549C3.5988 20.1868 3.71602 20.2163 3.95674 20.2327C4.20421 20.2496 4.5238 20.25 5 20.25C5.4762 20.25 5.79579 20.2496 6.04326 20.2327C6.28399 20.2163 6.4012 20.1868 6.47835 20.1549C6.78464 20.028 7.02798 19.7846 7.15485 19.4784C7.18681 19.4012 7.21629 19.284 7.23271 19.0433C7.24959 18.7958 7.25 18.4762 7.25 18V16C7.25 15.5238 7.24959 15.2042 7.23271 14.9567C7.21629 14.716 7.18681 14.5988 7.15485 14.5216C7.02798 14.2154 6.78464 13.972 6.47835 13.8452C6.4012 13.8132 6.28399 13.7837 6.04326 13.7673C5.79579 13.7504 5.4762 13.75 5 13.75C4.5238 13.75 4.20421 13.7504 3.95674 13.7673Z" fill="#22282F"/>
</svg>
