<svg width="24" height="24" viewBox="0 0 24 24" fill="none" xmlns="http://www.w3.org/2000/svg">
<path fill-rule="evenodd" clip-rule="evenodd" d="M1.46967 1.46961C1.76256 1.17672 2.23744 1.17672 2.53033 1.46961L6.04088 4.98016L16.7287 15.668L21.5303 20.4696C21.8232 20.7625 21.8232 21.2374 21.5303 21.5303C21.2374 21.8232 20.7626 21.8232 20.4697 21.5303L16.198 17.2586L13.1962 20.2568C12.5379 20.9143 11.4621 20.9143 10.8038 20.2568L3.79733 13.2589C1.73422 11.1983 1.73422 7.89842 3.79733 5.83782C3.96319 5.67216 4.13752 5.5194 4.31896 5.37956L1.46967 2.53027C1.17678 2.23738 1.17678 1.7625 1.46967 1.46961ZM5.39196 6.45256C5.20379 6.5831 5.02476 6.73192 4.85735 6.89913C3.38089 8.37379 3.38088 10.7229 4.85734 12.1975L11.8638 19.1955C11.9365 19.2681 12.0635 19.2681 12.1362 19.1955L15.1374 16.198L5.39196 6.45256ZM19.1427 6.89913C17.6085 5.36688 15.0766 5.36688 13.5425 6.89913L12.53 7.91035C12.2372 8.20282 11.7628 8.20282 11.47 7.91035L10.4575 6.89913C10.2049 6.64681 9.92591 6.43645 9.62911 6.26758C9.36202 6.11562 9.07995 5.99695 8.78917 5.91178C8.39166 5.79535 8.16381 5.37871 8.28024 4.9812C8.39668 4.58369 8.81331 4.35583 9.21083 4.47226C9.61119 4.58954 10.0009 4.75333 10.3709 4.96383C10.7823 5.19792 11.1687 5.4894 11.5175 5.83782L12 6.31968L12.4825 5.83782C14.6022 3.72065 18.0829 3.72065 20.2027 5.83782C22.2658 7.89842 22.2658 11.1983 20.2027 13.2589L18.9294 14.5306C18.6363 14.8233 18.1614 14.823 17.8687 14.5299C17.576 14.2369 17.5763 13.762 17.8694 13.4693L19.1427 12.1976C20.6191 10.7229 20.6191 8.37379 19.1427 6.89913Z" fill="#22282F"/>
</svg>
