<svg width="24" height="24" viewBox="0 0 24 24" fill="none" xmlns="http://www.w3.org/2000/svg">
<path fill-rule="evenodd" clip-rule="evenodd" d="M10.4378 6.9751C8.8809 5.38281 6.31891 5.38281 4.76201 6.9751C3.25381 8.51758 3.25381 10.9823 4.76201 12.5248L11.8612 19.7853C11.9373 19.8631 12.0625 19.8631 12.1386 19.7853L19.2378 12.5248C20.746 10.9823 20.746 8.51758 19.2378 6.9751C17.6809 5.38281 15.1189 5.38281 13.562 6.9751L12.5362 8.02427C12.3951 8.16858 12.2017 8.24993 11.9999 8.24993C11.7981 8.24993 11.6048 8.16858 11.4636 8.02427L10.4378 6.9751ZM3.6895 5.92642C5.8348 3.73237 9.36501 3.73237 11.5103 5.92642L11.9999 6.42715L12.4895 5.92642C14.6348 3.73237 18.165 3.73237 20.3103 5.92642C22.3885 8.05184 22.3885 11.448 20.3103 13.5734L13.2111 20.8339C12.5466 21.5135 11.4532 21.5135 10.7887 20.8339L3.6895 13.5734C1.61131 11.448 1.61131 8.05184 3.6895 5.92642Z" fill="#22282F"/>
</svg>
