<svg width="24" height="24" viewBox="0 0 24 24" fill="none" xmlns="http://www.w3.org/2000/svg">
<path fill-rule="evenodd" clip-rule="evenodd" d="M12.5302 1.46967C12.2373 1.17678 11.7624 1.17678 11.4695 1.46967L8.46954 4.46967C8.17664 4.76256 8.17664 5.23744 8.46954 5.53033C8.76243 5.82322 9.2373 5.82322 9.5302 5.53033L11.2499 3.81066V12C11.2499 12.4142 11.5857 12.75 11.9999 12.75C12.4141 12.75 12.7499 12.4142 12.7499 12V3.81066L14.4695 5.53033C14.7624 5.82322 15.2373 5.82322 15.5302 5.53033C15.8231 5.23744 15.8231 4.76256 15.5302 4.46967L12.5302 1.46967ZM7.92018 7.25L7.95283 7.25H7.99987C8.41409 7.25 8.74987 7.58578 8.74987 8C8.74987 8.41421 8.41409 8.75 7.99987 8.75H7.95283C7.39803 8.75 7.03204 8.75072 6.74799 8.77673C6.47807 8.80145 6.34155 8.84506 6.24078 8.8993C6.17157 8.93655 6.10603 8.98024 6.04503 9.0298C5.95621 9.10195 5.86345 9.21119 5.73681 9.45085C5.60355 9.70304 5.46212 10.0406 5.24873 10.5527L4.74752 11.7556C4.53623 12.2627 4.44385 12.4854 4.36806 12.7078C4.30712 12.8867 4.25329 13.0675 4.20663 13.25H6.19722L6.30418 13.2499C6.91372 13.2494 7.39362 13.249 7.83697 13.404C8.10603 13.498 8.35884 13.6333 8.58633 13.805C8.9612 14.088 9.22707 14.4875 9.56476 14.995L9.62404 15.084C10.0502 15.7232 10.172 15.888 10.3173 15.9977C10.4207 16.0758 10.5356 16.1373 10.6579 16.18C10.8298 16.2401 11.0346 16.25 11.8028 16.25H12.1972C12.9654 16.25 13.1702 16.2401 13.3421 16.18C13.4644 16.1373 13.5793 16.0758 13.6827 15.9977C13.828 15.888 13.9498 15.7232 14.376 15.084L14.4352 14.9949C14.7729 14.4875 15.0388 14.088 15.4137 13.805C15.6412 13.6333 15.894 13.498 16.163 13.404C16.6064 13.249 17.0863 13.2494 17.6958 13.2499L17.8028 13.25H19.7931C19.7465 13.0675 19.6926 12.8867 19.6317 12.7078C19.5559 12.4854 19.4635 12.2627 19.2522 11.7556L18.751 10.5527C18.5376 10.0406 18.3962 9.70304 18.2629 9.45085C18.1363 9.21119 18.0435 9.10195 17.9547 9.0298C17.8937 8.98024 17.8282 8.93655 17.759 8.8993C17.6582 8.84506 17.5217 8.80145 17.2517 8.77673C16.9677 8.75072 16.6017 8.75 16.0469 8.75H15.9999C15.5857 8.75 15.2499 8.41421 15.2499 8C15.2499 7.58578 15.5857 7.25 15.9999 7.25H16.0469L16.0796 7.25C16.593 7.24998 17.028 7.24997 17.3885 7.28298C17.7708 7.31798 18.1268 7.39381 18.4699 7.57846C18.6221 7.66041 18.7663 7.75654 18.9005 7.86556C19.2029 8.11122 19.4098 8.41069 19.5892 8.75007C19.7583 9.07015 19.9256 9.47172 20.123 9.94561L20.1356 9.97581L20.6368 11.1787L20.6482 11.2059L20.6482 11.206C20.8451 11.6785 20.9578 11.9489 21.0515 12.224C21.4328 13.343 21.5834 14.5277 21.4942 15.7066C21.4723 15.9963 21.4309 16.2864 21.3585 16.7929L21.3585 16.7931L21.3543 16.8224L21.3428 16.9031C21.2396 17.6259 21.1737 18.0874 21.0416 18.4879C20.495 20.1452 19.0836 21.3693 17.3657 21.676C16.9505 21.7502 16.4844 21.7501 15.7542 21.75H15.7542L15.6727 21.75H8.32707L8.24556 21.75H8.2455C7.51536 21.7501 7.04922 21.7502 6.63409 21.676C4.91613 21.3693 3.50473 20.1452 2.95809 18.4879C2.826 18.0874 2.76014 17.6259 2.65697 16.9031L2.64545 16.8224L2.64127 16.7931C2.56889 16.2864 2.52744 15.9964 2.50551 15.7066C2.41631 14.5277 2.56691 13.343 2.94824 12.224C3.04198 11.9489 3.15468 11.6784 3.35153 11.206L3.35153 11.206L3.35154 11.206L3.3629 11.1787L3.86412 9.97581L3.87668 9.94566C4.07413 9.47174 4.24144 9.07016 4.41057 8.75007C4.58991 8.41069 4.79683 8.11122 5.09922 7.86556C5.23343 7.75654 5.37762 7.66041 5.52987 7.57846C5.87294 7.39381 6.22896 7.31798 6.61121 7.28298C6.97173 7.24997 7.40677 7.24998 7.92018 7.25ZM4.00124 15.5934C3.97996 15.3122 3.97515 15.0306 3.98663 14.75H6.19722C6.96544 14.75 7.17015 14.7599 7.34206 14.82C7.46436 14.8627 7.57927 14.9242 7.68268 15.0023C7.82803 15.112 7.94983 15.2768 8.37596 15.916L8.43524 16.005C8.77293 16.5125 9.0388 16.912 9.41367 17.195C9.64116 17.3667 9.89397 17.502 10.163 17.596C10.6064 17.751 11.0863 17.7506 11.6958 17.7501L11.8028 17.75H12.1972L12.3042 17.7501C12.9137 17.7506 13.3936 17.751 13.837 17.596C14.106 17.502 14.3588 17.3667 14.5863 17.195C14.9612 16.912 15.2271 16.5125 15.5648 16.0051L15.624 15.916C16.0502 15.2768 16.172 15.112 16.3173 15.0023C16.4207 14.9242 16.5356 14.8627 16.6579 14.82C16.8298 14.7599 17.0346 14.75 17.8028 14.75H20.0131C20.0246 15.0306 20.0198 15.3122 19.9985 15.5934C19.9808 15.8277 19.9471 16.0664 19.8694 16.6102C19.7507 17.4409 19.7022 17.7602 19.6171 18.018C19.2431 19.152 18.2774 19.9895 17.102 20.1994C16.8348 20.2471 16.5117 20.25 15.6727 20.25H8.32707C7.48799 20.25 7.16499 20.2471 6.89776 20.1994C5.72232 19.9895 4.75662 19.152 4.38261 18.018C4.29758 17.7602 4.24904 17.4409 4.13038 16.6102C4.05269 16.0664 4.01897 15.8277 4.00124 15.5934Z" fill="#22282F"/>
</svg>
