<svg width="24" height="24" viewBox="0 0 24 24" fill="none" xmlns="http://www.w3.org/2000/svg">
<path fill-rule="evenodd" clip-rule="evenodd" d="M11.8372 2.25H11.8861H12.0003H12.1145H12.1634C13.6531 2.24999 14.8391 2.24998 15.7866 2.36466C16.7648 2.48305 17.5741 2.73162 18.2707 3.28767C18.9673 3.84371 19.389 4.57779 19.7212 5.50538C20.0431 6.40394 20.3059 7.56045 20.636 9.01309L20.6469 9.06082L21.2635 11.7738L21.2711 11.8074C21.404 12.3922 21.4802 12.7272 21.5298 13.067C21.6178 13.6694 21.6427 14.2792 21.6041 14.8867C21.5823 15.2295 21.5337 15.5695 21.4489 16.1632L21.444 16.1973L21.424 16.3376L21.424 16.3376C21.2448 17.5937 21.1303 18.3971 20.8111 19.0602C20.2432 20.2399 19.2135 21.133 17.9653 21.5283C17.2638 21.7505 16.4522 21.7503 15.1834 21.75L15.0417 21.75H8.95887L8.81723 21.75C7.54839 21.7503 6.73681 21.7505 6.03526 21.5283C4.78706 21.133 3.7574 20.2399 3.18951 19.0602C2.87033 18.3971 2.75574 17.5937 2.57659 16.3376L2.55658 16.1973L2.55172 16.1633C2.46689 15.5696 2.41831 15.2295 2.39652 14.8867C2.35792 14.2792 2.38281 13.6694 2.47079 13.067C2.52044 12.7271 2.59657 12.3922 2.7295 11.8073L2.73712 11.7738L3.35371 9.06081L3.36456 9.01308C3.69469 7.56045 3.95752 6.40394 4.27935 5.50538C4.61158 4.57779 5.03332 3.84371 5.72992 3.28767C6.42652 2.73162 7.23581 2.48305 8.21396 2.36466C9.1615 2.24998 10.3475 2.24999 11.8372 2.25ZM8.3942 3.85379C7.56746 3.95386 7.0638 4.14221 6.66569 4.45998C6.26759 4.77776 5.9723 5.22716 5.69151 6.01116C5.40383 6.81436 5.15986 7.88205 4.81641 9.39325L4.19982 12.1062C4.06307 12.7079 4.00041 12.9858 3.96009 13.25H6.19752L6.30447 13.2499C6.91401 13.2494 7.39391 13.249 7.83727 13.404C8.10633 13.498 8.35913 13.6333 8.58663 13.805C8.96149 14.088 9.22736 14.4875 9.56505 14.995L9.62433 15.084C10.0505 15.7232 10.1723 15.888 10.3176 15.9977C10.421 16.0758 10.5359 16.1373 10.6582 16.18C10.8301 16.2401 11.0349 16.25 11.8031 16.25H12.1975C12.9657 16.25 13.1704 16.2401 13.3424 16.18C13.4647 16.1373 13.5796 16.0758 13.683 15.9977C13.8283 15.888 13.9501 15.7232 14.3763 15.084L14.4355 14.9949C14.7732 14.4875 15.0391 14.088 15.414 13.805C15.6415 13.6333 15.8943 13.498 16.1633 13.404C16.6067 13.249 17.0866 13.2494 17.6961 13.2499L17.8031 13.25H20.0405C20.0002 12.9858 19.9375 12.7079 19.8008 12.1062L19.1842 9.39325C18.8407 7.88205 18.5968 6.81436 18.3091 6.01116C18.0283 5.22716 17.733 4.77776 17.3349 4.45998C16.9368 4.14221 16.4331 3.95386 15.6064 3.85379C14.7594 3.75128 13.6642 3.75 12.1145 3.75H12.0003H11.8861C10.3364 3.75 9.24118 3.75128 8.3942 3.85379ZM20.1096 14.75H17.8031C17.0349 14.75 16.8301 14.7599 16.6582 14.82C16.5359 14.8627 16.421 14.9242 16.3176 15.0023C16.1723 15.112 16.0505 15.2768 15.6243 15.916L15.5651 16.0051C15.2274 16.5125 14.9615 16.912 14.5866 17.195C14.3591 17.3667 14.1063 17.502 13.8373 17.596C13.3939 17.751 12.914 17.7506 12.3045 17.7501L12.1975 17.75H11.8031L11.6961 17.7501C11.0866 17.7506 10.6067 17.751 10.1633 17.596C9.89426 17.502 9.64145 17.3667 9.41396 17.195C9.03909 16.912 8.77322 16.5125 8.43553 16.005L8.37626 15.916C7.95013 15.2768 7.82832 15.112 7.68297 15.0023C7.57957 14.9242 7.46465 14.8627 7.34235 14.82C7.17045 14.7599 6.96573 14.75 6.19752 14.75H3.89098C3.89178 14.7639 3.89262 14.7777 3.8935 14.7916C3.91112 15.0688 3.95051 15.3482 4.04151 15.9852C4.24792 17.4301 4.33563 17.9828 4.54108 18.4096C4.92963 19.2168 5.63414 19.8278 6.48817 20.0983C6.93976 20.2413 7.49932 20.25 8.95887 20.25H15.0417C16.5013 20.25 17.0608 20.2413 17.5124 20.0983C18.3665 19.8278 19.071 19.2168 19.4595 18.4096C19.665 17.9828 19.7527 17.4301 19.9591 15.9852C20.0501 15.3482 20.0895 15.0688 20.1071 14.7916C20.108 14.7777 20.1088 14.7639 20.1096 14.75ZM10.0003 6.25C9.58608 6.25 9.25029 6.58579 9.25029 7C9.25029 7.41421 9.58608 7.75 10.0003 7.75H14.0003C14.4145 7.75 14.7503 7.41421 14.7503 7C14.7503 6.58579 14.4145 6.25 14.0003 6.25H10.0003ZM8.00029 9.25C7.58608 9.25 7.25029 9.58579 7.25029 10C7.25029 10.4142 7.58608 10.75 8.00029 10.75H16.0003C16.4145 10.75 16.7503 10.4142 16.7503 10C16.7503 9.58579 16.4145 9.25 16.0003 9.25H8.00029Z" fill="#22282F"/>
</svg>
