<svg width="24" height="24" viewBox="0 0 24 24" fill="none" xmlns="http://www.w3.org/2000/svg">
<path fill-rule="evenodd" clip-rule="evenodd" d="M12.7497 2C12.7497 1.58579 12.4139 1.25 11.9997 1.25C11.5855 1.25 11.2497 1.58579 11.2497 2V10.1893L9.53003 8.46967C9.23714 8.17678 8.76227 8.17678 8.46937 8.46967C8.17648 8.76256 8.17648 9.23744 8.46937 9.53033L11.4694 12.5303C11.7623 12.8232 12.2371 12.8232 12.53 12.5303L15.53 9.53033C15.8229 9.23744 15.8229 8.76256 15.53 8.46967C15.2371 8.17678 14.7623 8.17678 14.4694 8.46967L12.7497 10.1893V2ZM8.57866 3.25L8.62281 3.25H8.7497C9.16392 3.25 9.4997 3.58579 9.4997 4C9.4997 4.41421 9.16392 4.75 8.7497 4.75H8.62281C7.8546 4.75 7.34465 4.75125 6.95665 4.79764C6.58869 4.84164 6.41552 4.91829 6.29199 5.01474C6.16846 5.11119 6.0521 5.2606 5.92017 5.60691C5.78105 5.97207 5.65617 6.46648 5.46985 7.21176L4.26095 12.0473C4.1053 12.6699 4.03753 12.9432 3.99157 13.2161L3.98595 13.25H6.19722L6.30418 13.2499C6.91372 13.2494 7.39362 13.249 7.83697 13.404C8.10603 13.498 8.35884 13.6333 8.58633 13.805C8.9612 14.088 9.22707 14.4875 9.56476 14.995L9.62404 15.084C10.0502 15.7232 10.172 15.888 10.3173 15.9977C10.4207 16.0758 10.5356 16.1373 10.6579 16.18C10.8298 16.2401 11.0346 16.25 11.8028 16.25H12.1972C12.9654 16.25 13.1702 16.2401 13.3421 16.18C13.4644 16.1373 13.5793 16.0758 13.6827 15.9977C13.828 15.888 13.9498 15.7232 14.376 15.084L14.4352 14.9949C14.7729 14.4875 15.0388 14.088 15.4137 13.805C15.6412 13.6333 15.894 13.498 16.163 13.404C16.6064 13.249 17.0863 13.2494 17.6958 13.2499L17.8028 13.25H20.0135L20.0078 13.2161C19.9619 12.9432 19.8941 12.6699 19.7385 12.0473L18.5296 7.21176C18.3432 6.46648 18.2184 5.97207 18.0792 5.60691C17.9473 5.2606 17.8309 5.11119 17.7074 5.01474C17.5839 4.91829 17.4107 4.84164 17.0428 4.79764C16.6548 4.75125 16.1448 4.75 15.3766 4.75H15.2497C14.8355 4.75 14.4997 4.41421 14.4997 4C14.4997 3.58579 14.8355 3.25 15.2497 3.25H15.3766L15.4207 3.25C16.1331 3.24997 16.7333 3.24995 17.2209 3.30825C17.7385 3.37015 18.2115 3.5053 18.6305 3.83244C19.0495 4.15957 19.2954 4.58574 19.481 5.07289C19.6558 5.53174 19.8013 6.11407 19.9741 6.80511L19.9848 6.84796L21.1937 11.6835L21.202 11.7169C21.3471 12.2971 21.4302 12.6295 21.487 12.967C21.5988 13.6309 21.6336 14.3055 21.5907 14.9774C21.5689 15.319 21.5205 15.6581 21.4358 16.2503L21.431 16.2842L21.4122 16.4161C21.2436 17.598 21.1358 18.3538 20.847 18.9825C20.2756 20.2267 19.1951 21.1637 17.8827 21.5535C17.2194 21.7504 16.456 21.7503 15.2622 21.75L15.1289 21.75H8.87053L8.73724 21.75C7.54339 21.7503 6.78002 21.7504 6.11673 21.5535C4.80428 21.1637 3.72382 20.2267 3.1524 18.9825C2.86361 18.3538 2.75581 17.598 2.58723 16.4161L2.5684 16.2842L2.56355 16.2502C2.47895 15.6581 2.4305 15.3189 2.40869 14.9774C2.36581 14.3055 2.40061 13.6309 2.5124 12.967C2.56924 12.6295 2.65233 12.2971 2.79741 11.7168L2.80574 11.6835L4.01463 6.84795L4.02534 6.80513C4.19808 6.11408 4.34364 5.53174 4.51845 5.07289C4.70403 4.58574 4.94988 4.15957 5.36887 3.83244C5.78786 3.5053 6.26094 3.37015 6.77855 3.30825C7.2661 3.24995 7.86635 3.24997 8.57866 3.25ZM3.90564 14.8818C3.90284 14.8379 3.90044 14.7939 3.89844 14.75H6.19722C6.96544 14.75 7.17015 14.7599 7.34206 14.82C7.46436 14.8627 7.57927 14.9242 7.68268 15.0023C7.82803 15.112 7.94983 15.2768 8.37596 15.916L8.43524 16.005C8.77293 16.5125 9.0388 16.912 9.41367 17.195C9.64116 17.3667 9.89397 17.502 10.163 17.596C10.6064 17.751 11.0863 17.7506 11.6958 17.7501L11.8028 17.75H12.1972L12.3042 17.7501C12.9137 17.7506 13.3936 17.751 13.837 17.596C14.106 17.502 14.3588 17.3667 14.5863 17.195C14.9612 16.912 15.2271 16.5125 15.5648 16.0051L15.624 15.916C16.0502 15.2768 16.172 15.112 16.3173 15.0023C16.4207 14.9242 16.5356 14.8627 16.6579 14.82C16.8298 14.7599 17.0346 14.75 17.8028 14.75H20.101C20.099 14.7939 20.0966 14.8379 20.0938 14.8818C20.0761 15.158 20.0368 15.4368 19.9461 16.0721C19.7519 17.4313 19.6698 17.9517 19.4839 18.3565C19.0929 19.2077 18.3537 19.8489 17.4557 20.1155C17.0287 20.2423 16.5019 20.25 15.1289 20.25H8.87053C7.49746 20.25 6.97068 20.2423 6.54372 20.1155C5.64573 19.8489 4.90647 19.2077 4.5155 18.3565C4.32961 17.9517 4.24751 17.4313 4.05333 16.0721C3.96257 15.4368 3.92327 15.158 3.90564 14.8818Z" fill="#22282F"/>
</svg>
