<svg width="24" height="24" viewBox="0 0 24 24" fill="none" xmlns="http://www.w3.org/2000/svg">
<path fill-rule="evenodd" clip-rule="evenodd" d="M2.75 11.9999C2.75 14.3471 4.65279 16.2499 7 16.2499C7.95763 16.2499 8.83933 15.9341 9.54957 15.4006C9.88076 15.1518 10.3509 15.2186 10.5997 15.5498C10.8484 15.881 10.7816 16.3512 10.4504 16.5999C9.48935 17.3218 8.29358 17.7499 7 17.7499C3.82436 17.7499 1.25 15.1755 1.25 11.9999C1.25 8.82424 3.82436 6.24988 7 6.24988C10.1756 6.24988 12.75 8.82424 12.75 11.9999C12.75 14.3471 14.6528 16.2499 17 16.2499C19.3472 16.2499 21.25 14.3471 21.25 11.9999C21.25 9.65267 19.3472 7.74988 17 7.74988C16.0422 7.74988 15.1603 8.06583 14.45 8.5995C14.1189 8.84831 13.6487 8.78155 13.3999 8.45038C13.1511 8.11922 13.2178 7.64907 13.549 7.40026C14.5102 6.67811 15.7062 6.24988 17 6.24988C20.1756 6.24988 22.75 8.82424 22.75 11.9999C22.75 15.1755 20.1756 17.7499 17 17.7499C13.8244 17.7499 11.25 15.1755 11.25 11.9999C11.25 9.65267 9.34721 7.74988 7 7.74988C4.65279 7.74988 2.75 9.65267 2.75 11.9999Z" fill="#22282F"/>
</svg>
