<svg width="24" height="24" viewBox="0 0 24 24" fill="none" xmlns="http://www.w3.org/2000/svg">
<path fill-rule="evenodd" clip-rule="evenodd" d="M3.3721 2.34882C3.13998 2.21617 2.85479 2.21713 2.62356 2.35132C2.39232 2.48551 2.25 2.73265 2.25 3V15V15.0549C2.24998 16.4225 2.24996 17.5248 2.36652 18.3918C2.48754 19.2919 2.74643 20.0497 3.34835 20.6517C3.95027 21.2536 4.70814 21.5125 5.60825 21.6335C6.47522 21.75 7.57754 21.75 8.94513 21.75H9H19C20.5188 21.75 21.75 20.5188 21.75 19V12C21.75 11.5858 21.4142 11.25 21 11.25H17.75V3C17.75 2.73265 17.6077 2.48551 17.3764 2.35132C17.1452 2.21713 16.86 2.21617 16.6279 2.34882L13.5 4.13619L10.3721 2.34882C10.1415 2.21706 9.85847 2.21706 9.6279 2.34882L6.5 4.13619L3.3721 2.34882ZM16.25 12V4.29239L13.8721 5.65118C13.6415 5.78294 13.3585 5.78294 13.1279 5.65118L10 3.86381L6.8721 5.65118C6.64153 5.78294 6.35847 5.78294 6.1279 5.65118L3.75 4.29238V15C3.75 16.4354 3.75159 17.4365 3.85315 18.1919C3.9518 18.9257 4.13225 19.3142 4.40901 19.591C4.68577 19.8678 5.07435 20.0482 5.80812 20.1469C6.56347 20.2484 7.56458 20.25 9 20.25H16.5499C16.3581 19.875 16.25 19.4501 16.25 19V12ZM19 20.25C19.6904 20.25 20.25 19.6904 20.25 19V12.75H17.75V19C17.75 19.6904 18.3096 20.25 19 20.25ZM10.75 9.25V9C10.75 8.58579 10.4142 8.25 10 8.25C9.58579 8.25 9.25 8.58579 9.25 9V9.26373C8.12501 9.38809 7.25 10.3419 7.25 11.5C7.25 12.7426 8.25736 13.75 9.5 13.75H10.5C10.9142 13.75 11.25 14.0858 11.25 14.5C11.25 14.9142 10.9142 15.25 10.5 15.25H10H8C7.58579 15.25 7.25 15.5858 7.25 16C7.25 16.4142 7.58579 16.75 8 16.75H9.25V17C9.25 17.4142 9.58579 17.75 10 17.75C10.4142 17.75 10.75 17.4142 10.75 17V16.7363C11.875 16.6119 12.75 15.6581 12.75 14.5C12.75 13.2574 11.7426 12.25 10.5 12.25H9.5C9.08579 12.25 8.75 11.9142 8.75 11.5C8.75 11.0858 9.08579 10.75 9.5 10.75H10H12C12.4142 10.75 12.75 10.4142 12.75 10C12.75 9.58579 12.4142 9.25 12 9.25H10.75Z" fill="#22282F"/>
</svg>
