<svg width="24" height="24" viewBox="0 0 24 24" fill="none" xmlns="http://www.w3.org/2000/svg">
<path fill-rule="evenodd" clip-rule="evenodd" d="M5.948 2.25H6H18H18.052C18.9505 2.24997 19.6997 2.24995 20.2945 2.32991C20.9223 2.41432 21.4891 2.59999 21.9445 3.05546C22.4 3.51093 22.5857 4.07773 22.6701 4.70552C22.7501 5.3003 22.75 6.04952 22.75 6.94801V7V11V11.052C22.75 11.9505 22.7501 12.6997 22.6701 13.2945C22.5857 13.9223 22.4 14.4891 21.9445 14.9445C21.4891 15.4 20.9223 15.5857 20.2945 15.6701C19.6997 15.7501 18.9505 15.75 18.052 15.75H18.052L18 15.75H6L5.94801 15.75H5.94797C5.04951 15.75 4.3003 15.7501 3.70552 15.6701C3.07773 15.5857 2.51093 15.4 2.05546 14.9445C1.59999 14.4891 1.41432 13.9223 1.32991 13.2945C1.24995 12.6997 1.24997 11.9505 1.25 11.052V11V7V6.948C1.24997 6.04952 1.24995 5.3003 1.32991 4.70552C1.41432 4.07773 1.59999 3.51093 2.05546 3.05546C2.51093 2.59999 3.07773 2.41432 3.70552 2.32991C4.3003 2.24995 5.04952 2.24997 5.948 2.25ZM3.90539 3.81654C3.44393 3.87858 3.24643 3.9858 3.11612 4.11612C2.9858 4.24643 2.87858 4.44393 2.81654 4.90539C2.75159 5.38843 2.75 6.03599 2.75 7V11C2.75 11.964 2.75159 12.6116 2.81654 13.0946C2.87858 13.5561 2.9858 13.7536 3.11612 13.8839C3.24643 14.0142 3.44393 14.1214 3.90539 14.1835C4.38843 14.2484 5.03599 14.25 6 14.25H18C18.964 14.25 19.6116 14.2484 20.0946 14.1835C20.5561 14.1214 20.7536 14.0142 20.8839 13.8839C21.0142 13.7536 21.1214 13.5561 21.1835 13.0946C21.2484 12.6116 21.25 11.964 21.25 11V7C21.25 6.03599 21.2484 5.38843 21.1835 4.90539C21.1214 4.44393 21.0142 4.24643 20.8839 4.11612C20.7536 3.9858 20.5561 3.87858 20.0946 3.81654C19.6116 3.75159 18.964 3.75 18 3.75H6C5.03599 3.75 4.38843 3.75159 3.90539 3.81654ZM9.25 11C9.25 10.5858 9.58579 10.25 10 10.25H14C14.4142 10.25 14.75 10.5858 14.75 11C14.75 11.4142 14.4142 11.75 14 11.75H10C9.58579 11.75 9.25 11.4142 9.25 11ZM6 12C6.55228 12 7 11.5523 7 11C7 10.4477 6.55228 10 6 10C5.44772 10 5 10.4477 5 11C5 11.5523 5.44772 12 6 12ZM19 11C19 11.5523 18.5523 12 18 12C17.4477 12 17 11.5523 17 11C17 10.4477 17.4477 10 18 10C18.5523 10 19 10.4477 19 11ZM18 8C18.5523 8 19 7.55228 19 7C19 6.44772 18.5523 6 18 6C17.4477 6 17 6.44772 17 7C17 7.55228 17.4477 8 18 8ZM7 7C7 7.55228 6.55228 8 6 8C5.44772 8 5 7.55228 5 7C5 6.44772 5.44772 6 6 6C6.55228 6 7 6.44772 7 7ZM10 8C10.5523 8 11 7.55228 11 7C11 6.44772 10.5523 6 10 6C9.44771 6 9 6.44772 9 7C9 7.55228 9.44771 8 10 8ZM15 7C15 7.55228 14.5523 8 14 8C13.4477 8 13 7.55228 13 7C13 6.44772 13.4477 6 14 6C14.5523 6 15 6.44772 15 7ZM15.5303 18.5303L12.5303 21.5303C12.2374 21.8232 11.7626 21.8232 11.4697 21.5303L8.46967 18.5303C8.17678 18.2374 8.17678 17.7626 8.46967 17.4697C8.76256 17.1768 9.23744 17.1768 9.53033 17.4697L12 19.9393L14.4697 17.4697C14.7626 17.1768 15.2374 17.1768 15.5303 17.4697C15.8232 17.7626 15.8232 18.2374 15.5303 18.5303Z" fill="#22282F"/>
</svg>
