<svg width="24" height="24" viewBox="0 0 24 24" fill="none" xmlns="http://www.w3.org/2000/svg">
<path fill-rule="evenodd" clip-rule="evenodd" d="M6 5.25H5.948C5.04952 5.24997 4.3003 5.24995 3.70552 5.32991C3.07773 5.41432 2.51093 5.59999 2.05546 6.05546C1.59999 6.51093 1.41432 7.07773 1.32991 7.70552C1.24995 8.3003 1.24997 9.04952 1.25 9.948V10V14V14.052C1.24997 14.9505 1.24995 15.6997 1.32991 16.2945C1.41432 16.9223 1.59999 17.4891 2.05546 17.9445C2.51093 18.4 3.07773 18.5857 3.70552 18.6701C4.3003 18.7501 5.04951 18.75 5.94797 18.75H5.94801L6 18.75H18L18.052 18.75H18.052C18.9505 18.75 19.6997 18.7501 20.2945 18.6701C20.9223 18.5857 21.4891 18.4 21.9445 17.9445C22.4 17.4891 22.5857 16.9223 22.6701 16.2945C22.7501 15.6997 22.75 14.9505 22.75 14.052V14V10V9.94801C22.75 9.04952 22.7501 8.3003 22.6701 7.70552C22.5857 7.07773 22.4 6.51093 21.9445 6.05546C21.4891 5.59999 20.9223 5.41432 20.2945 5.32991C19.6997 5.24995 18.9505 5.24997 18.052 5.25H18H6ZM3.11612 7.11612C3.24643 6.9858 3.44393 6.87858 3.90539 6.81654C4.38843 6.75159 5.03599 6.75 6 6.75H18C18.964 6.75 19.6116 6.75159 20.0946 6.81654C20.5561 6.87858 20.7536 6.9858 20.8839 7.11612C21.0142 7.24643 21.1214 7.44393 21.1835 7.90539C21.2484 8.38843 21.25 9.03599 21.25 10V14C21.25 14.964 21.2484 15.6116 21.1835 16.0946C21.1214 16.5561 21.0142 16.7536 20.8839 16.8839C20.7536 17.0142 20.5561 17.1214 20.0946 17.1835C19.6116 17.2484 18.964 17.25 18 17.25H6C5.03599 17.25 4.38843 17.2484 3.90539 17.1835C3.44393 17.1214 3.24643 17.0142 3.11612 16.8839C2.9858 16.7536 2.87858 16.5561 2.81654 16.0946C2.75159 15.6116 2.75 14.964 2.75 14V10C2.75 9.03599 2.75159 8.38843 2.81654 7.90539C2.87858 7.44393 2.9858 7.24643 3.11612 7.11612ZM10 13.25C9.58579 13.25 9.25 13.5858 9.25 14C9.25 14.4142 9.58579 14.75 10 14.75H14C14.4142 14.75 14.75 14.4142 14.75 14C14.75 13.5858 14.4142 13.25 14 13.25H10ZM7 14C7 14.5523 6.55228 15 6 15C5.44772 15 5 14.5523 5 14C5 13.4477 5.44772 13 6 13C6.55228 13 7 13.4477 7 14ZM18 15C18.5523 15 19 14.5523 19 14C19 13.4477 18.5523 13 18 13C17.4477 13 17 13.4477 17 14C17 14.5523 17.4477 15 18 15ZM19 10C19 10.5523 18.5523 11 18 11C17.4477 11 17 10.5523 17 10C17 9.44772 17.4477 9 18 9C18.5523 9 19 9.44772 19 10ZM6 11C6.55228 11 7 10.5523 7 10C7 9.44772 6.55228 9 6 9C5.44772 9 5 9.44772 5 10C5 10.5523 5.44772 11 6 11ZM11 10C11 10.5523 10.5523 11 10 11C9.44771 11 9 10.5523 9 10C9 9.44772 9.44771 9 10 9C10.5523 9 11 9.44772 11 10ZM14 11C14.5523 11 15 10.5523 15 10C15 9.44772 14.5523 9 14 9C13.4477 9 13 9.44772 13 10C13 10.5523 13.4477 11 14 11Z" fill="#22282F"/>
</svg>
