<svg width="24" height="24" viewBox="0 0 24 24" fill="none" xmlns="http://www.w3.org/2000/svg">
<path fill-rule="evenodd" clip-rule="evenodd" d="M7 4.25H6.948C6.04952 4.24997 5.3003 4.24995 4.70552 4.32991C4.07773 4.41432 3.51093 4.59999 3.05546 5.05546C2.59999 5.51093 2.41432 6.07773 2.32991 6.70552C2.24994 7.3003 2.24997 8.04952 2.25 8.948L2.25 9V16.25H1.33333C0.735025 16.25 0.25 16.735 0.25 17.3333C0.25 19.2203 1.77969 20.75 3.66667 20.75H20.3333C22.2203 20.75 23.75 19.2203 23.75 17.3333C23.75 16.735 23.265 16.25 22.6667 16.25H21.75V9V8.94801C21.75 8.04952 21.7501 7.3003 21.6701 6.70552C21.5857 6.07773 21.4 5.51093 20.9445 5.05546C20.4891 4.59999 19.9223 4.41432 19.2945 4.32991C18.6997 4.24995 17.9505 4.24997 17.052 4.25H17H7ZM20.25 16.25V9C20.25 8.03599 20.2484 7.38843 20.1835 6.90539C20.1214 6.44393 20.0142 6.24643 19.8839 6.11612C19.7536 5.9858 19.5561 5.87858 19.0946 5.81654C18.6116 5.75159 17.964 5.75 17 5.75H7C6.03599 5.75 5.38843 5.75159 4.90539 5.81654C4.44393 5.87858 4.24643 5.9858 4.11612 6.11612C3.9858 6.24643 3.87858 6.44393 3.81654 6.90539C3.75159 7.38843 3.75 8.03599 3.75 9V16.25H20.25ZM3 17.75H1.79542C1.98566 18.6082 2.75121 19.25 3.66667 19.25H20.3333C21.2488 19.25 22.0143 18.6082 22.2046 17.75H21H3Z" fill="#22282F"/>
</svg>
