<svg width="24" height="24" viewBox="0 0 24 24" fill="none" xmlns="http://www.w3.org/2000/svg">
<path fill-rule="evenodd" clip-rule="evenodd" d="M12 21.75C11.5858 21.75 11.25 21.4142 11.25 21V17.6569C11.25 17.2426 11.5858 16.9069 12 16.9069C12.4142 16.9069 12.75 17.2426 12.75 17.6569V21C12.75 21.4142 12.4142 21.75 12 21.75ZM12 7.09342C11.5858 7.09342 11.25 6.75763 11.25 6.34342V3C11.25 2.58579 11.5858 2.25 12 2.25C12.4142 2.25 12.75 2.58579 12.75 3V6.34342C12.75 6.75763 12.4142 7.09342 12 7.09342ZM5.1059 17.8336C4.81301 18.1265 4.81301 18.6014 5.1059 18.8943C5.39879 19.1872 5.87367 19.1872 6.16656 18.8943L8.53052 16.5303C8.82342 16.2374 8.82342 15.7626 8.53052 15.4697C8.23763 15.1768 7.76276 15.1768 7.46986 15.4697L5.1059 17.8336ZM15.4697 7.46986C15.1768 7.76275 15.1768 8.23762 15.4697 8.53052C15.7626 8.82341 16.2374 8.82341 16.5303 8.53052L18.8945 6.16637C19.1874 5.87347 19.1874 5.3986 18.8945 5.10571C18.6016 4.81281 18.1267 4.81281 17.8338 5.10571L15.4697 7.46986ZM3 11.25C2.58579 11.25 2.25 11.5858 2.25 12C2.25 12.4142 2.58579 12.75 3 12.75H6.34315C6.75736 12.75 7.09315 12.4142 7.09315 12C7.09315 11.5858 6.75736 11.25 6.34315 11.25H3ZM17.6566 11.25C17.2424 11.25 16.9066 11.5858 16.9066 12C16.9066 12.4142 17.2424 12.75 17.6566 12.75H21C21.4142 12.75 21.75 12.4142 21.75 12C21.75 11.5858 21.4142 11.25 21 11.25H17.6566ZM17.8336 18.8943C18.1265 19.1872 18.6014 19.1872 18.8943 18.8943C19.1872 18.6014 19.1872 18.1265 18.8943 17.8336L16.5303 15.4697C16.2374 15.1768 15.7626 15.1768 15.4697 15.4697C15.1768 15.7626 15.1768 16.2374 15.4697 16.5303L17.8336 18.8943ZM7.46986 8.53052C7.76275 8.82341 8.23763 8.82341 8.53052 8.53052C8.82341 8.23763 8.82341 7.76275 8.53052 7.46986L6.16637 5.10571C5.87348 4.81282 5.3986 4.81282 5.10571 5.10571C4.81282 5.3986 4.81282 5.87348 5.10571 6.16637L7.46986 8.53052Z" fill="#22282F"/>
</svg>
