<svg width="24" height="24" viewBox="0 0 24 24" fill="none" xmlns="http://www.w3.org/2000/svg">
<path fill-rule="evenodd" clip-rule="evenodd" d="M0.999908 1.25006L1.49991 1.25L1.5 2L1.50002 1.25C3.30848 1.25004 4.84643 2.56951 5.12142 4.35695L5.95856 9.79834C6.14825 11.0313 6.28126 11.8868 6.46409 12.5283C6.64115 13.1496 6.84125 13.4783 7.10871 13.7077C7.37618 13.9372 7.73147 14.085 8.37244 14.1655C8.71225 14.2082 9.1058 14.2293 9.57718 14.2398C9.44884 13.9472 9.37496 13.6295 9.32991 13.2945C9.24994 12.6997 9.24997 11.9505 9.25 11.052L9.25 11L9.25 10.948C9.24997 10.0495 9.24994 9.3003 9.32991 8.70552C9.41432 8.07773 9.59999 7.51093 10.0555 7.05546C10.5109 6.59999 11.0777 6.41432 11.7055 6.32991C12.3003 6.24995 13.0495 6.24997 13.948 6.25L14 6.25H16L16.052 6.25C16.9505 6.24997 17.6997 6.24995 18.2945 6.32991C18.9223 6.41432 19.4891 6.59999 19.9445 7.05546C20.4 7.51093 20.5857 8.07773 20.6701 8.70552C20.7501 9.3003 20.75 10.0495 20.75 10.948V10.948L20.75 11L20.75 11.052V11.052C20.75 11.9505 20.7501 12.6997 20.6701 13.2945C20.6245 13.6334 20.5494 13.9546 20.4183 14.25L22 14.25C22.4142 14.25 22.75 14.5858 22.75 15C22.75 15.4142 22.4142 15.75 22 15.75L16.052 15.75H16.052L16 15.75L13.948 15.75H13.948L11.1475 15.75H11.0976C9.91193 15.7501 8.9517 15.7501 8.18545 15.6538C7.38761 15.5536 6.70742 15.3398 6.13202 14.8462C5.55662 14.3525 5.24192 13.7128 5.02153 12.9394C4.80986 12.1967 4.66387 11.2477 4.4836 10.0758L4.48359 10.0758L4.48359 10.0758L4.476 10.0264L3.63886 4.58503C3.47645 3.52937 2.56816 2.75008 1.50009 2.75H1.50006H1.49998L1.00009 2.75006C0.585878 2.75011 0.250051 2.41437 0.25 2.00015C0.249949 1.58594 0.585695 1.25011 0.999908 1.25006ZM16 14.25C16.964 14.25 17.6116 14.2484 18.0946 14.1835C18.5561 14.1214 18.7536 14.0142 18.8839 13.8839C19.0142 13.7536 19.1214 13.5561 19.1835 13.0946C19.2484 12.6116 19.25 11.964 19.25 11C19.25 10.036 19.2484 9.38843 19.1835 8.90539C19.1214 8.44393 19.0142 8.24643 18.8839 8.11612C18.7536 7.9858 18.5561 7.87858 18.0946 7.81654C17.6116 7.75159 16.964 7.75 16 7.75H14C13.036 7.75 12.3884 7.75159 11.9054 7.81654C11.4439 7.87858 11.2464 7.9858 11.1161 8.11612C10.9858 8.24643 10.8786 8.44393 10.8165 8.90539C10.7516 9.38843 10.75 10.036 10.75 11C10.75 11.964 10.7516 12.6116 10.8165 13.0946C10.8786 13.5561 10.9858 13.7536 11.1161 13.8839C11.2464 14.0142 11.4439 14.1214 11.9054 14.1835C12.3884 14.2484 13.036 14.25 14 14.25H16ZM7.75 20C7.75 19.3096 8.30964 18.75 9 18.75C9.69036 18.75 10.25 19.3096 10.25 20C10.25 20.6904 9.69036 21.25 9 21.25C8.30964 21.25 7.75 20.6904 7.75 20ZM9 17.25C7.48122 17.25 6.25 18.4812 6.25 20C6.25 21.5188 7.48122 22.75 9 22.75C10.5188 22.75 11.75 21.5188 11.75 20C11.75 18.4812 10.5188 17.25 9 17.25ZM17.75 20C17.75 19.3096 18.3096 18.75 19 18.75C19.6904 18.75 20.25 19.3096 20.25 20C20.25 20.6904 19.6904 21.25 19 21.25C18.3096 21.25 17.75 20.6904 17.75 20ZM19 17.25C17.4812 17.25 16.25 18.4812 16.25 20C16.25 21.5188 17.4812 22.75 19 22.75C20.5188 22.75 21.75 21.5188 21.75 20C21.75 18.4812 20.5188 17.25 19 17.25Z" fill="#22282F"/>
</svg>
