<svg width="24" height="24" viewBox="0 0 24 24" fill="none" xmlns="http://www.w3.org/2000/svg">
<path fill-rule="evenodd" clip-rule="evenodd" d="M14.05 6.39981C15.4667 5.33729 16.4616 4.59355 17.238 4.17166C18.0191 3.74713 18.3492 3.77688 18.559 3.88178C18.7688 3.98668 18.9907 4.2329 19.1198 5.11255C19.248 5.98675 19.25 7.22894 19.25 8.99981L19.25 12.9998C19.25 14.7707 19.248 16.0129 19.1198 16.8871C18.9907 17.7667 18.7688 18.013 18.559 18.1178C18.3492 18.2227 18.0191 18.2525 17.238 17.828C16.4616 17.4061 15.4667 16.6623 14.05 15.5998L12.75 14.6248L12.75 7.37481L14.05 6.39981ZM20.7442 14.676C20.733 15.6366 20.7002 16.4483 20.6039 17.1049C20.4565 18.1087 20.1256 19.0116 19.2298 19.4595C18.3341 19.9074 17.4132 19.6304 16.5217 19.1459C15.637 18.6651 14.5544 17.8532 13.2035 16.8399L13.15 16.7998L11.7502 15.75L9.75 15.75L9.75 19.5001C9.75 20.7427 8.74264 21.7501 7.5 21.7501C6.25736 21.7501 5.25 20.7427 5.25 19.5001L5.25 15.6911C2.98301 15.3315 1.25 13.3681 1.25 11C1.25 8.37663 3.37665 6.24998 6 6.24998L11.7498 6.24998L13.15 5.19981L13.2035 5.15969C14.5544 4.14648 15.637 3.3345 16.5217 2.85371C17.4132 2.36922 18.3341 2.09225 19.2298 2.54014C20.1256 2.98803 20.4565 3.89088 20.6039 4.89478C20.7002 5.55139 20.733 6.36309 20.7442 7.32369C22.4588 7.66891 23.75 9.18359 23.75 10.9998C23.75 12.8161 22.4588 14.3308 20.7442 14.676ZM20.75 13.1218C21.6239 12.8129 22.25 11.9795 22.25 10.9998C22.25 10.0202 21.6239 9.18675 20.75 8.87788C20.75 8.8962 20.75 8.91456 20.75 8.93296L20.75 8.99981L20.75 12.9998L20.75 13.0667M11.25 14.25L11.25 7.74999L6 7.74999C4.20507 7.74998 2.75 9.20506 2.75 11C2.75 12.7949 4.20507 14.25 6 14.25L11.25 14.25ZM6.75 15.7501L6.75 19.5001C6.75 19.9143 7.08579 20.2501 7.5 20.2501C7.91421 20.2501 8.25 19.9143 8.25 19.5001L8.25 15.7501L6.75 15.7501Z" fill="#22282F"/>
</svg>
