<svg width="24" height="24" viewBox="0 0 24 24" fill="none" xmlns="http://www.w3.org/2000/svg">
<path fill-rule="evenodd" clip-rule="evenodd" d="M11 2.25005L10.8275 2.24998C9.52402 2.24925 8.61738 2.24874 7.82297 2.64594C7.02856 3.04315 6.48499 3.76876 5.70349 4.81198L5.70349 4.81198L5.60002 4.95005L5.53127 5.04166C5.00261 5.74597 4.63551 6.23504 4.44246 6.81419C4.24941 7.39335 4.24965 8.00486 4.24999 8.88551L4.25002 9.00005V15L4.25002 15.0549L4.25002 15.0549C4.25 16.4225 4.24998 17.5248 4.36654 18.3918C4.48756 19.2919 4.74645 20.0498 5.34837 20.6517C5.95029 21.2536 6.70816 21.5125 7.60827 21.6335C8.47524 21.7501 9.57756 21.7501 10.9452 21.75H11H13H13.0549C14.4225 21.7501 15.5248 21.7501 16.3918 21.6335C17.2919 21.5125 18.0498 21.2536 18.6517 20.6517C19.2536 20.0498 19.5125 19.2919 19.6335 18.3918C19.7501 17.5248 19.75 16.4225 19.75 15.0549V15.0549V15.0549V15.0549V15V9.00005V8.94518V8.94517V8.94516V8.94515C19.75 7.57757 19.7501 6.47526 19.6335 5.60829C19.5125 4.70819 19.2536 3.95031 18.6517 3.3484C18.0498 2.74648 17.2919 2.48759 16.3918 2.36657C15.5248 2.25001 14.4225 2.25002 13.0549 2.25005L13 2.25005H11ZM8.49379 3.98758C8.93166 3.76865 9.4526 3.75005 11 3.75005H13C14.4354 3.75005 15.4366 3.75164 16.1919 3.85319C16.9257 3.95185 17.3142 4.13229 17.591 4.40906C17.8678 4.68582 18.0482 5.07439 18.1469 5.80817C18.2484 6.56352 18.25 7.56463 18.25 9.00005V15C18.25 16.4355 18.2484 17.4366 18.1469 18.1919C18.0482 18.9257 17.8678 19.3143 17.591 19.591C17.3142 19.8678 16.9257 20.0482 16.1919 20.1469C15.4366 20.2485 14.4354 20.25 13 20.25H11C9.5646 20.25 8.56349 20.2485 7.80814 20.1469C7.07437 20.0482 6.68579 19.8678 6.40903 19.591C6.13227 19.3143 5.95182 18.9257 5.85317 18.1919C5.75161 17.4366 5.75002 16.4355 5.75002 15V9.00005C5.75002 7.9604 5.7589 7.6083 5.86548 7.28853C5.97207 6.96877 6.17623 6.68176 6.80002 5.85005C7.72848 4.61211 8.05592 4.20652 8.49379 3.98758ZM9.75 8.99994C9.75 8.58573 9.41421 8.24994 9 8.24994C8.58579 8.24994 8.25 8.58573 8.25 8.99994V10.9999C8.25 11.4142 8.58579 11.7499 9 11.7499C9.41421 11.7499 9.75 11.4142 9.75 10.9999V8.99994ZM15 6.24994C15.4142 6.24994 15.75 6.58573 15.75 6.99994V10.9999C15.75 11.4142 15.4142 11.7499 15 11.7499C14.5858 11.7499 14.25 11.4142 14.25 10.9999V6.99994C14.25 6.58573 14.5858 6.24994 15 6.24994ZM12.75 6.99994C12.75 6.58573 12.4142 6.24994 12 6.24994C11.5858 6.24994 11.25 6.58573 11.25 6.99994V10.9999C11.25 11.4142 11.5858 11.7499 12 11.7499C12.4142 11.7499 12.75 11.4142 12.75 10.9999V6.99994Z" fill="#22282F"/>
</svg>
