<svg width="24" height="24" viewBox="0 0 24 24" fill="none" xmlns="http://www.w3.org/2000/svg">
<path fill-rule="evenodd" clip-rule="evenodd" d="M8 2.25H7.94513C6.57754 2.24998 5.47522 2.24996 4.60825 2.36652C3.70814 2.48754 2.95027 2.74643 2.34835 3.34835C1.74643 3.95027 1.48754 4.70814 1.36652 5.60825C1.24996 6.47522 1.24998 7.57754 1.25 8.94513V9V11V11.0549C1.24998 12.4225 1.24996 13.5248 1.36652 14.3918C1.48754 15.2919 1.74643 16.0497 2.34835 16.6517C2.95027 17.2536 3.70814 17.5125 4.60825 17.6335C5.47522 17.75 6.57754 17.75 7.94512 17.75H7.94513H8H11.25V20.25H9C8.58579 20.25 8.25 20.5858 8.25 21C8.25 21.4142 8.58579 21.75 9 21.75H12H15C15.4142 21.75 15.75 21.4142 15.75 21C15.75 20.5858 15.4142 20.25 15 20.25H12.75V17.75H16H16.0549H16.0549C17.4225 17.75 18.5248 17.75 19.3918 17.6335C20.2919 17.5125 21.0497 17.2536 21.6517 16.6517C22.2536 16.0497 22.5125 15.2919 22.6335 14.3918C22.75 13.5248 22.75 12.4225 22.75 11.0549V11V9V8.94513C22.75 7.57754 22.75 6.47522 22.6335 5.60825C22.5125 4.70814 22.2536 3.95027 21.6517 3.34835C21.0497 2.74643 20.2919 2.48754 19.3918 2.36652C18.5248 2.24996 17.4225 2.24998 16.0549 2.25H16H8ZM12 16.25H16C17.4354 16.25 18.4365 16.2484 19.1919 16.1469C19.9257 16.0482 20.3142 15.8678 20.591 15.591C20.8678 15.3142 21.0482 14.9257 21.1469 14.1919C21.2484 13.4365 21.25 12.4354 21.25 11V9C21.25 7.56458 21.2484 6.56347 21.1469 5.80812C21.0482 5.07435 20.8678 4.68577 20.591 4.40901C20.3142 4.13225 19.9257 3.9518 19.1919 3.85315C18.4365 3.75159 17.4354 3.75 16 3.75H8C6.56458 3.75 5.56347 3.75159 4.80812 3.85315C4.07435 3.9518 3.68577 4.13225 3.40901 4.40901C3.13225 4.68577 2.9518 5.07435 2.85315 5.80812C2.75159 6.56347 2.75 7.56458 2.75 9V11C2.75 12.4354 2.75159 13.4365 2.85315 14.1919C2.9518 14.9257 3.13225 15.3142 3.40901 15.591C3.68577 15.8678 4.07435 16.0482 4.80812 16.1469C5.56347 16.2484 6.56458 16.25 8 16.25H12Z" fill="#22282F"/>
</svg>
