<svg width="24" height="24" viewBox="0 0 24 24" fill="none" xmlns="http://www.w3.org/2000/svg">
<path fill-rule="evenodd" clip-rule="evenodd" d="M2.25 12C2.25 10.4858 3.48579 9.25 5 9.25C6.51421 9.25 7.75 10.4858 7.75 12C7.75 13.5142 6.51421 14.75 5 14.75C3.48579 14.75 2.25 13.5142 2.25 12ZM5 10.75C4.31421 10.75 3.75 11.3142 3.75 12C3.75 12.6858 4.31421 13.25 5 13.25C5.68579 13.25 6.25 12.6858 6.25 12C6.25 11.3142 5.68579 10.75 5 10.75ZM16.25 12C16.25 10.4858 17.4858 9.25 19 9.25C20.5142 9.25 21.75 10.4858 21.75 12C21.75 13.5142 20.5142 14.75 19 14.75C17.4858 14.75 16.25 13.5142 16.25 12ZM19 10.75C18.3142 10.75 17.75 11.3142 17.75 12C17.75 12.6858 18.3142 13.25 19 13.25C19.6858 13.25 20.25 12.6858 20.25 12C20.25 11.3142 19.6858 10.75 19 10.75ZM9.25 12C9.25 10.4858 10.4858 9.25 12 9.25C13.5142 9.25 14.75 10.4858 14.75 12C14.75 13.5142 13.5142 14.75 12 14.75C10.4858 14.75 9.25 13.5142 9.25 12ZM12 10.75C11.3142 10.75 10.75 11.3142 10.75 12C10.75 12.6858 11.3142 13.25 12 13.25C12.6858 13.25 13.25 12.6858 13.25 12C13.25 11.3142 12.6858 10.75 12 10.75Z" fill="#22282F"/>
</svg>
