<svg width="24" height="24" viewBox="0 0 24 24" fill="none" xmlns="http://www.w3.org/2000/svg">
<path fill-rule="evenodd" clip-rule="evenodd" d="M9.25 5C9.25 3.48579 10.4858 2.25 12 2.25C13.5142 2.25 14.75 3.48579 14.75 5C14.75 6.51421 13.5142 7.75 12 7.75C10.4858 7.75 9.25 6.51421 9.25 5ZM12 3.75C11.3142 3.75 10.75 4.31421 10.75 5C10.75 5.68579 11.3142 6.25 12 6.25C12.6858 6.25 13.25 5.68579 13.25 5C13.25 4.31421 12.6858 3.75 12 3.75ZM9.25 12C9.25 10.4858 10.4858 9.25 12 9.25C13.5142 9.25 14.75 10.4858 14.75 12C14.75 13.5142 13.5142 14.75 12 14.75C10.4858 14.75 9.25 13.5142 9.25 12ZM12 10.75C11.3142 10.75 10.75 11.3142 10.75 12C10.75 12.6858 11.3142 13.25 12 13.25C12.6858 13.25 13.25 12.6858 13.25 12C13.25 11.3142 12.6858 10.75 12 10.75ZM9.25 19C9.25 17.4858 10.4858 16.25 12 16.25C13.5142 16.25 14.75 17.4858 14.75 19C14.75 20.5142 13.5142 21.75 12 21.75C10.4858 21.75 9.25 20.5142 9.25 19ZM12 17.75C11.3142 17.75 10.75 18.3142 10.75 19C10.75 19.6858 11.3142 20.25 12 20.25C12.6858 20.25 13.25 19.6858 13.25 19C13.25 18.3142 12.6858 17.75 12 17.75Z" fill="#22282F"/>
</svg>
