<svg width="24" height="24" viewBox="0 0 24 24" fill="none" xmlns="http://www.w3.org/2000/svg">
<path fill-rule="evenodd" clip-rule="evenodd" d="M12 2.25C7.71979 2.25 4.25 5.71979 4.25 10V14C4.25 18.2802 7.71979 21.75 12 21.75C16.2802 21.75 19.75 18.2802 19.75 14V10C19.75 5.71979 16.2802 2.25 12 2.25ZM5.75 10C5.75 6.54822 8.54822 3.75 12 3.75C15.4518 3.75 18.25 6.54822 18.25 10V14C18.25 17.4518 15.4518 20.25 12 20.25C8.54822 20.25 5.75 17.4518 5.75 14V10ZM12.75 8C12.75 7.58579 12.4142 7.25 12 7.25C11.5858 7.25 11.25 7.58579 11.25 8V10C11.25 10.4142 11.5858 10.75 12 10.75C12.4142 10.75 12.75 10.4142 12.75 10V8Z" fill="#22282F"/>
</svg>
