<svg width="24" height="24" viewBox="0 0 24 24" fill="none" xmlns="http://www.w3.org/2000/svg">
<path fill-rule="evenodd" clip-rule="evenodd" d="M10.4218 3.73475C10.9089 3.46412 11.2289 3.28726 11.4906 3.17305C11.7376 3.06524 11.88 3.03784 12.0001 3.03784C12.1202 3.03784 12.2626 3.06524 12.5096 3.17305C12.7713 3.28726 13.0913 3.46412 13.5784 3.73475L18.5784 6.51253C19.093 6.79841 19.4308 6.98702 19.6783 7.1588C19.912 7.32103 20.0136 7.43425 20.0774 7.54282C20.1413 7.65139 20.191 7.79512 20.2193 8.07825C20.2492 8.37804 20.2501 8.76487 20.2501 9.35354V14.6463C20.2501 15.235 20.2492 15.6218 20.2193 15.9216C20.191 16.2047 20.1413 16.3485 20.0774 16.457C20.0136 16.5656 19.912 16.6788 19.6783 16.841C19.4308 17.0128 19.093 17.2014 18.5784 17.4873L13.5784 20.2651C13.0913 20.5357 12.7713 20.7126 12.5097 20.8268C12.2626 20.9346 12.1202 20.962 12.0001 20.962C11.88 20.962 11.7376 20.9346 11.4906 20.8268C11.2289 20.7126 10.9089 20.5357 10.4218 20.2651L5.42177 17.4873C4.90718 17.2014 4.56945 17.0128 4.32193 16.841C4.08817 16.6788 3.98665 16.5656 3.92277 16.457C3.85889 16.3485 3.80921 16.2047 3.78092 15.9216C3.75097 15.6218 3.75011 15.235 3.75011 14.6463L3.75011 9.35354C3.75011 8.76487 3.75097 8.37804 3.78092 8.07825C3.80921 7.79512 3.85888 7.65139 3.92277 7.54282C3.98665 7.43425 4.08817 7.32103 4.32193 7.1588C4.56945 6.98702 4.90718 6.79841 5.42177 6.51253L10.4218 3.73475ZM12.0001 1.53784C11.602 1.53784 11.2479 1.64233 10.8905 1.79828C10.5552 1.94464 10.1724 2.15731 9.72281 2.40712L9.6933 2.42351L4.6933 5.20129L4.66234 5.21849C4.18708 5.4825 3.78305 5.70695 3.46671 5.92649C3.12977 6.16032 2.84234 6.4212 2.62996 6.78213C2.41759 7.14306 2.32913 7.52102 2.28835 7.92912C2.25007 8.31226 2.25009 8.77445 2.25011 9.31811L2.25011 9.35354L2.25011 14.6463L2.25011 14.6817C2.25009 15.2254 2.25007 15.6876 2.28836 16.0707C2.32913 16.4788 2.41759 16.8568 2.62996 17.2177C2.84234 17.5787 3.12977 17.8395 3.46671 18.0734C3.78305 18.2929 4.1871 18.5174 4.66238 18.7814L4.69331 18.7986L9.6933 21.5763L9.72288 21.5928C10.1725 21.8426 10.5552 22.0552 10.8905 22.2016C11.2479 22.3575 11.602 22.462 12.0001 22.462C12.3983 22.462 12.7523 22.3575 13.1097 22.2016C13.445 22.0552 13.8278 21.8425 14.2774 21.5927L14.3069 21.5763L19.3069 18.7986L19.3379 18.7814C19.8131 18.5173 20.2172 18.2929 20.5335 18.0734C20.8704 17.8395 21.1579 17.5787 21.3703 17.2177C21.5826 16.8568 21.6711 16.4788 21.7119 16.0707C21.7501 15.6876 21.7501 15.2254 21.7501 14.6817V14.6463V9.35354V9.31813C21.7501 8.77446 21.7501 8.31226 21.7119 7.92912C21.6711 7.52102 21.5826 7.14306 21.3703 6.78213C21.1579 6.4212 20.8704 6.16032 20.5335 5.92649C20.2172 5.70694 19.8131 5.48249 19.3378 5.21847L19.3069 5.20129L14.3069 2.42351L14.2774 2.40711C13.8278 2.15731 13.445 1.94464 13.1097 1.79828C12.7523 1.64233 12.3983 1.53784 12.0001 1.53784ZM12.0005 8.25004C9.92939 8.25004 8.25046 9.92897 8.25046 12C8.25046 14.0711 9.92939 15.75 12.0005 15.75C14.0715 15.75 15.7505 14.0711 15.7505 12C15.7505 9.92897 14.0715 8.25004 12.0005 8.25004ZM9.75046 12C9.75046 10.7574 10.7578 9.75004 12.0005 9.75004C13.2431 9.75004 14.2505 10.7574 14.2505 12C14.2505 13.2427 13.2431 14.25 12.0005 14.25C10.7578 14.25 9.75046 13.2427 9.75046 12Z" fill="#22282F"/>
</svg>
