<svg width="24" height="24" viewBox="0 0 24 24" fill="none" xmlns="http://www.w3.org/2000/svg">
<path fill-rule="evenodd" clip-rule="evenodd" d="M12.0003 4.74988C7.99622 4.74988 4.75029 7.99582 4.75029 11.9999C4.75029 12.2875 4.767 12.5709 4.79945 12.8493C5.021 14.75 5.97822 16.4263 7.37878 17.5862C9.2456 17.0296 11.413 16.0919 13.6256 14.8145C15.8384 13.5369 17.7344 12.1286 19.1498 10.79C18.8347 8.91354 17.7989 7.28148 16.3347 6.18759C15.1257 5.28439 13.6265 4.74988 12.0003 4.74988ZM19.2124 12.7456C17.8503 13.901 16.2066 15.0563 14.3756 16.1135C12.5437 17.1711 10.7206 18.0172 9.0383 18.6191C9.94268 19.0244 10.9452 19.2499 12.0003 19.2499C15.7526 19.2499 18.8391 16.3993 19.2124 12.7456ZM7.06913 19.2291C8.47317 20.1887 10.1711 20.7499 12.0003 20.7499C16.8328 20.7499 20.7503 16.8324 20.7503 11.9999C20.7503 11.7795 20.7421 11.5609 20.7261 11.3446C20.9371 11.1296 21.1368 10.9159 21.3244 10.7043C22.1143 9.81354 22.7203 8.92692 23.0512 8.09779C23.3782 7.27865 23.4827 6.38748 23.0424 5.62487C22.5305 4.73825 21.5059 4.40124 20.4509 4.33412C19.4529 4.27064 18.2469 4.43165 16.9314 4.77078C15.5272 3.81125 13.8284 3.24988 12.0003 3.24988C7.1678 3.24988 3.25029 7.16739 3.25029 11.9999C3.25029 12.2203 3.25846 12.439 3.27452 12.6556C2.32298 13.6254 1.58049 14.5894 1.13652 15.4855C0.667253 16.4326 0.446897 17.4883 0.958738 18.3749C1.39903 19.1375 2.22305 19.4926 3.09592 19.619C3.97944 19.747 5.05028 19.6655 6.21667 19.4268C6.49334 19.3702 6.77778 19.3042 7.06913 19.2291ZM5.64148 18.0105C4.71342 17.0289 4.01014 15.8325 3.61395 14.5037C3.10503 15.1021 2.72485 15.6584 2.48058 16.1514C2.08708 16.9456 2.12655 17.3976 2.25778 17.6249C2.36977 17.8188 2.65349 18.0393 3.31093 18.1345C3.90186 18.2201 4.68916 18.1851 5.64148 18.0105ZM18.3592 5.98933C19.133 5.84738 19.8059 5.79612 20.3557 5.8311C21.2404 5.88738 21.6121 6.14756 21.7433 6.37487C21.8553 6.56885 21.9044 6.92476 21.6581 7.54174C21.4369 8.0959 21.0135 8.7597 20.3868 9.49648C19.9906 8.16731 19.287 6.97072 18.3592 5.98933Z" fill="#22282F"/>
</svg>
