<svg width="24" height="24" viewBox="0 0 24 24" fill="none" xmlns="http://www.w3.org/2000/svg">
<path fill-rule="evenodd" clip-rule="evenodd" d="M9.00006 1.25C9.41427 1.25 9.75006 1.58579 9.75006 2V6.25L9.79796 6.25H14.2022L14.2501 6.25V2C14.2501 1.58579 14.5858 1.25 15.0001 1.25C15.4143 1.25 15.7501 1.58579 15.7501 2V6.25791C16.3626 6.26855 16.8986 6.29351 17.3641 6.35204C18.2055 6.45783 18.9204 6.68356 19.5078 7.21183C19.6061 7.3003 19.6998 7.39392 19.7882 7.49229C20.3165 8.07964 20.5422 8.79457 20.648 9.63599C20.7501 10.4479 20.7501 11.4741 20.7501 12.747V12.7979L20.7501 12.9434V12.9435C20.7505 14.3272 20.7507 15.2212 20.435 16.0442C20.405 16.1224 20.373 16.1998 20.3389 16.2763C19.9801 17.0815 19.3478 17.7135 18.3691 18.6917L18.2662 18.7946L17.6517 19.409L17.5623 19.4984C16.7126 20.3486 16.1641 20.8973 15.4819 21.2413C15.2716 21.3473 15.0537 21.4376 14.8299 21.5113C14.1043 21.7505 13.3285 21.7503 12.1265 21.75L12.0001 21.75L11.8736 21.75C10.6716 21.7503 9.89585 21.7505 9.17018 21.5113C8.94646 21.4376 8.72853 21.3473 8.51819 21.2413C7.83597 20.8973 7.28756 20.3486 6.43783 19.4985L6.43781 19.4984L6.34841 19.409L5.73395 18.7946L5.63101 18.6916C4.6523 17.7135 4.01999 17.0815 3.66125 16.2763C3.62715 16.1998 3.59509 16.1224 3.56508 16.0442C3.24942 15.2212 3.24966 14.3272 3.25003 12.9435L3.25006 12.7979L3.25006 12.747C3.25004 11.4741 3.25003 10.4479 3.3521 9.63599C3.45789 8.79457 3.68362 8.07964 4.21189 7.49229C4.30036 7.39392 4.39398 7.3003 4.49235 7.21183C5.07969 6.68356 5.79463 6.45783 6.63605 6.35204C7.10157 6.29351 7.63753 6.26855 8.25006 6.25791V2C8.25006 1.58579 8.58584 1.25 9.00006 1.25ZM6.82316 7.84032C6.13452 7.9269 5.7636 8.0859 5.49543 8.3271C5.43641 8.38018 5.38024 8.43635 5.32716 8.49537C5.08596 8.76355 4.92696 9.13446 4.84038 9.82311C4.75145 10.5305 4.75006 11.4621 4.75006 12.7979C4.75006 14.3787 4.76163 14.9752 4.9656 15.507C4.98613 15.5605 5.00807 15.6135 5.0314 15.6659C5.26321 16.1861 5.67684 16.6161 6.79461 17.7339L7.40907 18.3484C8.37949 19.3188 8.75273 19.6796 9.19358 19.9019C9.33749 19.9745 9.4866 20.0363 9.63968 20.0867C10.1086 20.2412 10.6277 20.25 12.0001 20.25C13.3724 20.25 13.8915 20.2412 14.3604 20.0867C14.5135 20.0363 14.6626 19.9745 14.8065 19.9019C15.2474 19.6796 15.6206 19.3188 16.591 18.3484L17.2055 17.7339C18.3233 16.6161 18.7369 16.1861 18.9687 15.6659C18.992 15.6135 19.014 15.5605 19.0345 15.507C19.2385 14.9752 19.2501 14.3787 19.2501 12.7979C19.2501 11.4621 19.2487 10.5305 19.1597 9.82311C19.0732 9.13446 18.9142 8.76355 18.673 8.49537C18.6199 8.43635 18.5637 8.38018 18.5047 8.3271C18.2365 8.0859 17.8656 7.9269 17.177 7.84032C16.4696 7.75139 15.538 7.75 14.2022 7.75H9.79796C8.46211 7.75 7.53054 7.75139 6.82316 7.84032Z" fill="#22282F"/>
</svg>
