<svg width="24" height="24" viewBox="0 0 24 24" fill="none" xmlns="http://www.w3.org/2000/svg">
<path fill-rule="evenodd" clip-rule="evenodd" d="M9.75 2V4C9.75 4.41421 9.41421 4.75 9 4.75C8.58579 4.75 8.25 4.41421 8.25 4V2C8.25 1.58579 8.58579 1.25 9 1.25C9.41421 1.25 9.75 1.58579 9.75 2ZM1.46967 1.46967C1.76256 1.17678 2.23744 1.17678 2.53033 1.46967L7.53033 6.46967L18.5303 17.4697L22.5303 21.4697C22.8232 21.7626 22.8232 22.2374 22.5303 22.5303C22.2374 22.8232 21.7626 22.8232 21.4697 22.5303L18 19.0607L17.6517 19.409L17.5622 19.4984C16.7125 20.3486 16.1641 20.8973 15.4819 21.2413C15.2715 21.3473 15.0536 21.4376 14.8299 21.5113C14.1042 21.7505 13.3284 21.7503 12.1265 21.75L12 21.75L11.8735 21.75C10.6716 21.7503 9.89579 21.7505 9.17013 21.5113C8.9464 21.4376 8.72847 21.3473 8.51814 21.2413C7.83592 20.8973 7.2875 20.3486 6.43777 19.4985L6.43775 19.4984L6.34835 19.409L5.73389 18.7945L5.63095 18.6916C4.65225 17.7135 4.01993 17.0815 3.66119 16.2763C3.62709 16.1998 3.59503 16.1224 3.56503 16.0442C3.24937 15.2212 3.2496 14.3272 3.24997 12.9435L3.25 12.7979V10C3.25 8.46189 4.17602 7.14006 5.50096 6.56162L1.46967 2.53033C1.17678 2.23744 1.17678 1.76256 1.46967 1.46967ZM6.7081 7.76876C5.60336 7.91187 4.75 8.85628 4.75 10V12.7979C4.75 14.3787 4.76157 14.9752 4.96554 15.507C4.98607 15.5605 5.00801 15.6135 5.03134 15.6659C5.26316 16.1861 5.67678 16.6161 6.79455 17.7339L7.40901 18.3483C8.37943 19.3188 8.75267 19.6796 9.19352 19.9019C9.33743 19.9745 9.48654 20.0363 9.63962 20.0867C10.1085 20.2412 10.6276 20.25 12 20.25C13.3724 20.25 13.8915 20.2412 14.3604 20.0867C14.5135 20.0363 14.6626 19.9745 14.8065 19.9019C15.2473 19.6796 15.6206 19.3188 16.591 18.3483L16.9393 18L6.7081 7.76876ZM17.1919 7.85315C16.4365 7.75159 15.4354 7.75 14 7.75H11C10.5858 7.75 10.25 7.41421 10.25 7C10.25 6.58579 10.5858 6.25 11 6.25H14L14.0549 6.25H14.0549C14.1205 6.25 14.1856 6.25 14.25 6.25001V2C14.25 1.58579 14.5858 1.25 15 1.25C15.4142 1.25 15.75 1.58579 15.75 2V6.26075C16.3712 6.2738 16.9168 6.30266 17.3918 6.36652C18.2919 6.48754 19.0497 6.74643 19.6517 7.34835C20.2536 7.95027 20.5125 8.70814 20.6335 9.60825C20.75 10.4752 20.75 11.5775 20.75 12.9451V13V15C20.75 15.4142 20.4142 15.75 20 15.75C19.5858 15.75 19.25 15.4142 19.25 15V13C19.25 11.5646 19.2484 10.5635 19.1469 9.80812C19.0482 9.07435 18.8678 8.68577 18.591 8.40901C18.3142 8.13225 17.9257 7.9518 17.1919 7.85315Z" fill="#22282F"/>
</svg>
