<svg width="24" height="24" viewBox="0 0 24 24" fill="none" xmlns="http://www.w3.org/2000/svg">
<path fill-rule="evenodd" clip-rule="evenodd" d="M12.75 2C12.75 1.58579 12.4142 1.25 12 1.25C11.5858 1.25 11.25 1.58579 11.25 2V12C11.25 12.4142 11.5858 12.75 12 12.75C12.4142 12.75 12.75 12.4142 12.75 12V2ZM6.81445 5.58303C7.13645 5.32247 7.18625 4.85021 6.92569 4.52822C6.66513 4.20622 6.19288 4.15641 5.87088 4.41697C5.46305 4.74699 5.08242 5.10922 4.73283 5.49981C3.1894 7.22428 2.25 9.50333 2.25 12C2.25 17.3848 6.61522 21.75 12 21.75C17.3848 21.75 21.75 17.3848 21.75 12C21.75 9.50333 20.8106 7.22428 19.2672 5.49981C18.9176 5.10922 18.5369 4.74699 18.1291 4.41697C17.8071 4.15641 17.3349 4.20622 17.0743 4.52822C16.8137 4.85021 16.8636 5.32247 17.1855 5.58303C17.5309 5.86251 17.8533 6.16934 18.1495 6.50019C19.4563 7.96026 20.25 9.88655 20.25 12C20.25 16.5563 16.5563 20.25 12 20.25C7.44365 20.25 3.75 16.5563 3.75 12C3.75 9.88655 4.54373 7.96026 5.85053 6.50019C6.14665 6.16933 6.46906 5.86251 6.81445 5.58303Z" fill="#22282F"/>
</svg>
