<svg width="24" height="24" viewBox="0 0 24 24" fill="none" xmlns="http://www.w3.org/2000/svg">
<path fill-rule="evenodd" clip-rule="evenodd" d="M1.25 3C1.25 2.58579 1.58579 2.25 2 2.25H4H20H22C22.4142 2.25 22.75 2.58579 22.75 3C22.75 3.41421 22.4142 3.75 22 3.75H20.75V9V9.05487C20.75 10.4225 20.75 11.5248 20.6335 12.3918C20.5125 13.2919 20.2536 14.0497 19.6516 14.6517C19.0497 15.2536 18.2919 15.5125 17.3918 15.6335C16.5248 15.75 15.4225 15.75 14.0549 15.75H14.0549H14.0549H14.0549H14H12.75V17.5754L17.3859 20.3569C17.7411 20.57 17.8562 21.0307 17.6431 21.3859C17.43 21.7411 16.9693 21.8562 16.6141 21.6431L12.75 19.3246V21C12.75 21.4142 12.4142 21.75 12 21.75C11.5858 21.75 11.25 21.4142 11.25 21V19.3246L7.38587 21.6431C7.03069 21.8562 6.56999 21.7411 6.35688 21.3859C6.14377 21.0307 6.25894 20.57 6.61413 20.3569L11.25 17.5754V15.75H10H9.94513H9.94512H9.94511H9.94511C8.57753 15.75 7.47521 15.75 6.60825 15.6335C5.70814 15.5125 4.95027 15.2536 4.34835 14.6517C3.74643 14.0497 3.48754 13.2919 3.36652 12.3918C3.24996 11.5248 3.24998 10.4225 3.25 9.05487L3.25 9V3.75H2C1.58579 3.75 1.25 3.41421 1.25 3ZM12 14.25H14C15.4354 14.25 16.4365 14.2484 17.1919 14.1469C17.9257 14.0482 18.3142 13.8678 18.591 13.591C18.8678 13.3142 19.0482 12.9257 19.1469 12.1919C19.2484 11.4365 19.25 10.4354 19.25 9V3.75H4.75V9C4.75 10.4354 4.75159 11.4365 4.85315 12.1919C4.9518 12.9257 5.13225 13.3142 5.40901 13.591C5.68577 13.8678 6.07434 14.0482 6.80812 14.1469C7.56347 14.2484 8.56458 14.25 10 14.25H12ZM16.4159 8.62406C16.7606 8.3943 16.8537 7.92865 16.624 7.584C16.3942 7.23935 15.9286 7.14621 15.5839 7.37597L13.0954 9.03491L11.5302 7.46968C11.2774 7.21688 10.8813 7.17766 10.5838 7.37596L7.58378 9.37596C7.23913 9.60572 7.146 10.0714 7.37576 10.416C7.60552 10.7607 8.07117 10.8538 8.41582 10.624L10.9043 8.9651L12.4695 10.5303C12.7223 10.7831 13.1184 10.8223 13.4158 10.624L16.4159 8.62406Z" fill="#22282F"/>
</svg>
