<svg width="24" height="24" viewBox="0 0 24 24" fill="none" xmlns="http://www.w3.org/2000/svg">
<path fill-rule="evenodd" clip-rule="evenodd" d="M8 1.25C8.41421 1.25 8.75 1.58579 8.75 2V4.27568C9.38925 4.24998 10.1188 4.24999 10.9451 4.25L11 4.25H11.25V2C11.25 1.58579 11.5858 1.25 12 1.25C12.4142 1.25 12.75 1.58579 12.75 2V4.25H13L13.0549 4.25C13.8812 4.24999 14.6107 4.24998 15.25 4.27568V2C15.25 1.58579 15.5858 1.25 16 1.25C16.4142 1.25 16.75 1.58579 16.75 2V4.42386C17.4945 4.56405 18.1313 4.82804 18.6516 5.34835C19.0514 5.74811 19.2999 6.21667 19.4571 6.75H22C22.4142 6.75 22.75 7.08579 22.75 7.5C22.75 7.91421 22.4142 8.25 22 8.25H19.6972C19.7467 8.954 19.7498 9.78362 19.75 10.75H22C22.4142 10.75 22.75 11.0858 22.75 11.5C22.75 11.9142 22.4142 12.25 22 12.25H19.75V13V13.0549C19.75 13.6732 19.75 14.2373 19.7393 14.75H22C22.4142 14.75 22.75 15.0858 22.75 15.5C22.75 15.9142 22.4142 16.25 22 16.25H19.6513C19.6457 16.2979 19.6397 16.3452 19.6335 16.3918C19.5125 17.2919 19.2536 18.0497 18.6516 18.6516C18.1313 19.172 17.4945 19.4359 16.75 19.5761V22C16.75 22.4142 16.4142 22.75 16 22.75C15.5858 22.75 15.25 22.4142 15.25 22V19.7243C14.6107 19.75 13.8812 19.75 13.0549 19.75H13H12.75V22C12.75 22.4142 12.4142 22.75 12 22.75C11.5858 22.75 11.25 22.4142 11.25 22V19.75H11H10.9451C10.1188 19.75 9.38926 19.75 8.75 19.7243V22C8.75 22.4142 8.41421 22.75 8 22.75C7.58579 22.75 7.25 22.4142 7.25 22V19.5761C6.50549 19.436 5.86865 19.172 5.34835 18.6516C4.74643 18.0497 4.48754 17.2919 4.36652 16.3918C4.36026 16.3452 4.35434 16.2979 4.34873 16.25H2C1.58579 16.25 1.25 15.9142 1.25 15.5C1.25 15.0858 1.58579 14.75 2 14.75H4.26075C4.24998 14.2374 4.24999 13.6732 4.25 13.0549V13.0549L4.25 13V12.25H2C1.58579 12.25 1.25 11.9142 1.25 11.5C1.25 11.0858 1.58579 10.75 2 10.75H4.25001C4.25019 9.78362 4.25327 8.954 4.30277 8.25H2C1.58579 8.25 1.25 7.91421 1.25 7.5C1.25 7.08579 1.58579 6.75 2 6.75H4.54288C4.70013 6.21667 4.94859 5.74811 5.34835 5.34835C5.86865 4.82804 6.50549 4.56405 7.25 4.42386V2C7.25 1.58579 7.58579 1.25 8 1.25ZM18.25 11.5V11C18.25 9.56458 18.2484 8.56347 18.1469 7.80812C18.0482 7.07434 17.8678 6.68577 17.591 6.40901C17.3142 6.13225 16.9257 5.9518 16.1919 5.85315C15.4365 5.75159 14.4354 5.75 13 5.75H12H11C9.56458 5.75 8.56347 5.75159 7.80812 5.85315C7.07434 5.9518 6.68577 6.13225 6.40901 6.40901C6.13225 6.68577 5.9518 7.07434 5.85315 7.80812C5.75159 8.56347 5.75 9.56458 5.75 11V11.5V13C5.75 14.4354 5.75159 15.4365 5.85315 16.1919C5.9518 16.9257 6.13225 17.3142 6.40901 17.591C6.68577 17.8678 7.07434 18.0482 7.80812 18.1469C8.56347 18.2484 9.56458 18.25 11 18.25H12H13C14.4354 18.25 15.4365 18.2484 16.1919 18.1469C16.9257 18.0482 17.3142 17.8678 17.591 17.591C17.8678 17.3142 18.0482 16.9257 18.1469 16.1919C18.2484 15.4365 18.25 14.4354 18.25 13V11.5ZM11 8.25L10.9553 8.25C10.5224 8.24995 10.1256 8.2499 9.80279 8.2933C9.44731 8.34109 9.07159 8.45354 8.76256 8.76256C8.45354 9.07159 8.34109 9.44731 8.2933 9.80279C8.2499 10.1256 8.24995 10.5224 8.25 10.9553L8.25 11V13L8.25 13.0447C8.24995 13.4776 8.2499 13.8744 8.2933 14.1972C8.34109 14.5527 8.45354 14.9284 8.76256 15.2374C9.07159 15.5465 9.44731 15.6589 9.80279 15.7067C10.1256 15.7501 10.5223 15.7501 10.9551 15.75H10.9551H10.9551H10.9551H10.9552H10.9552H10.9552H10.9552H10.9552H10.9552H10.9552H10.9552H10.9552H10.9553L11 15.75H13L13.0447 15.75H13.0448H13.0448H13.0448H13.0448H13.0448H13.0448H13.0448H13.0448H13.0448H13.0449H13.0449H13.0449H13.0449C13.4777 15.7501 13.8744 15.7501 14.1972 15.7067C14.5527 15.6589 14.9284 15.5465 15.2374 15.2374C15.5465 14.9284 15.6589 14.5527 15.7067 14.1972C15.7501 13.8744 15.7501 13.4777 15.75 13.0449V13.0449V13.0449V13.0449V13.0448V13.0448V13.0448V13.0448V13.0448V13.0448V13.0448V13.0448V13.0448V13.0447L15.75 13V11L15.75 10.9553V10.9552V10.9552V10.9552V10.9552V10.9552V10.9552V10.9552V10.9552V10.9552V10.9551V10.9551V10.9551V10.9551C15.7501 10.5223 15.7501 10.1256 15.7067 9.80279C15.6589 9.44731 15.5465 9.07159 15.2374 8.76256C14.9284 8.45354 14.5527 8.34109 14.1972 8.2933C13.8744 8.2499 13.4776 8.24995 13.0447 8.25L13 8.25H11ZM9.82567 9.82186L9.82324 9.82324L9.82186 9.82567C9.82085 9.8276 9.81923 9.83092 9.81716 9.83596C9.8082 9.85774 9.79291 9.90611 9.77992 10.0027C9.75159 10.2134 9.75 10.5074 9.75 11V13C9.75 13.4926 9.75159 13.7866 9.77992 13.9973C9.79291 14.0939 9.8082 14.1423 9.81716 14.164C9.81923 14.1691 9.82085 14.1724 9.82186 14.1743L9.82317 14.1767C9.82277 14.1763 9.8228 14.1763 9.82307 14.1766L9.82283 14.1765L9.82317 14.1767L9.8232 14.1768L9.8234 14.1769L9.82322 14.1768L9.82317 14.1767L9.82324 14.1768L9.82567 14.1781C9.8276 14.1791 9.83092 14.1808 9.83596 14.1828C9.85774 14.1918 9.90611 14.2071 10.0027 14.2201C10.2134 14.2484 10.5074 14.25 11 14.25H13C13.4926 14.25 13.7866 14.2484 13.9973 14.2201C14.0939 14.2071 14.1423 14.1918 14.164 14.1828C14.1691 14.1808 14.1724 14.1791 14.1743 14.1781L14.1768 14.1768L14.1781 14.1743C14.1791 14.1724 14.1808 14.1691 14.1828 14.164C14.1918 14.1423 14.2071 14.0939 14.2201 13.9973C14.2484 13.7866 14.25 13.4926 14.25 13V11C14.25 10.5074 14.2484 10.2134 14.2201 10.0027C14.2071 9.90611 14.1918 9.85774 14.1828 9.83596C14.1808 9.83092 14.1791 9.8276 14.1781 9.82567L14.1768 9.82324L14.1743 9.82186C14.1724 9.82085 14.1691 9.81923 14.164 9.81716C14.1423 9.8082 14.0939 9.79291 13.9973 9.77992C13.7866 9.75159 13.4926 9.75 13 9.75H11C10.5074 9.75 10.2134 9.75159 10.0027 9.77992C9.90611 9.79291 9.85774 9.8082 9.83596 9.81716C9.83092 9.81923 9.8276 9.82085 9.82567 9.82186Z" fill="#22282F"/>
</svg>
