<svg width="24" height="24" viewBox="0 0 24 24" fill="none" xmlns="http://www.w3.org/2000/svg">
<path fill-rule="evenodd" clip-rule="evenodd" d="M16.3413 1.24999L16.4839 1.25003L17.9986 1.25003L18.048 1.25003C18.7129 1.25 19.2857 1.24996 19.7445 1.31164C20.2361 1.37774 20.7074 1.5268 21.0896 1.90904C21.4719 2.29129 21.6209 2.76255 21.687 3.25419C21.7487 3.71293 21.7487 4.28578 21.7487 4.95063L21.7487 4.95067L21.7487 5.00003L21.7487 6.51475L21.7487 6.65736C21.7492 7.74513 21.7496 8.50108 21.4632 9.19246C21.1768 9.88383 20.642 10.4181 19.8725 11.1869L19.8725 11.1869L19.7716 11.2877L16.9778 14.0815C17.2888 14.5205 17.5485 14.8993 17.7492 15.239C18.0307 15.7155 18.2295 16.1684 18.2979 16.6757C18.3703 17.2137 18.3251 17.7611 18.1653 18.2799C18.0147 18.7691 17.7442 19.1833 17.3884 19.6071C17.0447 20.0163 16.5827 20.4783 16.0126 21.0484L16.0125 21.0485L16.0125 21.0485L16.0124 21.0486L15.9886 21.0724L15.5307 21.5303C15.3748 21.6862 15.1582 21.7656 14.9385 21.7474C14.7188 21.7293 14.5182 21.6153 14.39 21.4359L12.3734 18.6126C12.3074 18.6673 12.2424 18.7191 12.1785 18.7679C11.6749 19.1521 11.1428 19.4216 10.4987 19.4216C9.85452 19.4216 9.32244 19.1521 8.81884 18.7679C8.34172 18.4038 7.81196 17.8741 7.17667 17.2387L7.13989 17.2019L5.79675 15.8588L5.75997 15.822L5.75996 15.822L5.75993 15.822C5.12461 15.1867 4.59483 14.657 4.23081 14.1798C3.84658 13.6762 3.57708 13.1442 3.57708 12.5C3.57708 11.8559 3.84658 11.3238 4.23081 10.8202C4.27951 10.7564 4.33118 10.6916 4.38567 10.6258L1.56406 8.61026C1.38466 8.48211 1.27074 8.28153 1.25256 8.06181C1.23438 7.8421 1.31379 7.62552 1.46968 7.46963L1.92934 7.00998L1.95311 6.98621L1.95312 6.9862L1.95313 6.98619C2.52256 6.41677 2.98406 5.95526 3.39279 5.61198C3.81602 5.25653 4.22961 4.98628 4.7181 4.83554C5.23819 4.67504 5.78699 4.62969 6.32637 4.70263C6.83298 4.77113 7.28532 4.96982 7.76116 5.25097C8.1004 5.45142 8.47859 5.7107 8.91694 6.02109L11.711 3.22706L11.8118 3.1262C12.5806 2.35666 13.1149 1.82186 13.8062 1.53549C14.4976 1.24911 15.2536 1.24947 16.3413 1.24999ZM15.4683 13.4698L18.711 10.2271C19.6213 9.3167 19.9194 8.99987 20.0774 8.61843C20.2354 8.237 20.2487 7.8022 20.2487 6.51475L20.2487 5.00003C20.2486 4.27173 20.2471 3.80094 20.2004 3.45406C20.1567 3.12876 20.0861 3.0268 20.029 2.9697C19.9719 2.91261 19.8699 2.842 19.5446 2.79826C19.1977 2.75163 18.727 2.75003 17.9986 2.75003L16.4839 2.75003C15.1965 2.75003 14.7617 2.76331 14.3803 2.92131C13.9988 3.0793 13.682 3.37736 12.7716 4.28772L8.56513 8.49422L6.45146 10.609C5.9883 11.0761 5.65595 11.4252 5.42334 11.7301C5.14091 12.1003 5.07708 12.3157 5.07708 12.5C5.07708 12.6843 5.14091 12.8998 5.42334 13.27C5.71898 13.6575 6.17575 14.1165 6.85741 14.7981L6.99902 14.9397L8.46901 13.4698C8.76191 13.1769 9.23678 13.1769 9.52968 13.4698C9.82257 13.7626 9.82257 14.2375 9.52968 14.5304L8.05968 16.0004L8.20055 16.1413C8.88221 16.8229 9.34123 17.2797 9.72871 17.5753C10.0989 17.8578 10.3144 17.9216 10.4986 17.9216C10.6829 17.9216 10.8984 17.8578 11.2686 17.5753C11.6561 17.2797 12.1151 16.8229 12.7967 16.1413L15.4683 13.4698ZM5.79675 9.14128L7.50271 7.43531L7.84028 7.09756C7.51017 6.86649 7.23911 6.68479 6.99811 6.54239C6.61125 6.31381 6.35585 6.22026 6.12536 6.1891C5.80173 6.14533 5.47245 6.17255 5.1604 6.26884C4.93816 6.33742 4.70158 6.47163 4.35749 6.76062C4.03825 7.02874 3.66756 7.39379 3.15641 7.90431L5.41853 9.52018C5.52844 9.40956 5.64234 9.29567 5.75986 9.17817L5.75997 9.17805L5.79675 9.14128ZM15.096 19.8436L13.4798 17.5809L15.9014 15.1582C16.133 15.489 16.3151 15.7606 16.4578 16.002C16.6866 16.3894 16.7802 16.6451 16.8113 16.8759C16.8548 17.1987 16.8276 17.5271 16.7318 17.8385C16.6632 18.061 16.5289 18.2979 16.2396 18.6425C15.9715 18.9618 15.6064 19.3326 15.096 19.8436ZM12.752 8.99957C12.752 8.30921 13.3116 7.74957 14.002 7.74957C14.6923 7.74957 15.252 8.30921 15.252 8.99957C15.252 9.68993 14.6923 10.2496 14.002 10.2496C13.3116 10.2496 12.752 9.68993 12.752 8.99957ZM14.002 6.24957C12.4832 6.24957 11.252 7.48079 11.252 8.99957C11.252 10.5184 12.4832 11.7496 14.002 11.7496C15.5207 11.7496 16.752 10.5184 16.752 8.99957C16.752 7.48079 15.5207 6.24957 14.002 6.24957Z" fill="#22282F"/>
</svg>
