<svg width="24" height="24" viewBox="0 0 24 24" fill="none" xmlns="http://www.w3.org/2000/svg">
<g clip-path="url(#clip0)">
<path fill-rule="evenodd" clip-rule="evenodd" d="M12.0734 2.49578C12.0247 2.49099 11.9755 2.49099 11.9268 2.49578C11.8572 2.50262 11.7407 2.53392 11.4949 2.74722C11.2368 2.9712 10.929 3.31114 10.458 3.83449C9.08147 5.36398 8.51329 6.00877 8.18362 6.76888C8.12396 6.90641 8.07023 7.04645 8.02256 7.18859C7.75912 7.9741 7.7501 8.83347 7.7501 10.8912L7.7501 12.9997L7.7501 16.9999L7.7501 17.0005C7.7501 17.9642 7.75171 18.6116 7.81664 19.0945C7.87868 19.556 7.9859 19.7535 8.11622 19.8838C8.24653 20.0141 8.44403 20.1213 8.90549 20.1834C9.38853 20.2483 10.0361 20.2499 11.0001 20.2499L11.2501 20.2499L11.2501 17.9997C11.2501 17.5855 11.5859 17.2497 12.0001 17.2497C12.4143 17.2497 12.7501 17.5855 12.7501 17.9997L12.7501 20.2499L13.0001 20.2499C13.9641 20.2499 14.6117 20.2483 15.0947 20.1834C15.5562 20.1213 15.7537 20.0141 15.884 19.8838C16.0143 19.7535 16.1215 19.556 16.1836 19.0945C16.248 18.6152 16.2501 17.9739 16.2501 17.0222L16.2501 16.9999L16.2501 12.9997L16.2501 10.8912C16.2501 8.83347 16.2411 7.9741 15.9776 7.18859C15.93 7.04645 15.8762 6.90641 15.8166 6.76888C15.4869 6.00877 14.9187 5.36398 13.5422 3.83449C13.0712 3.31114 12.7634 2.9712 12.5053 2.74722C12.2595 2.53392 12.143 2.50262 12.0734 2.49578ZM17.7501 12.4147L17.7501 10.8912L17.7501 10.7507L17.7501 10.7507C17.7503 8.87667 17.7504 7.75721 17.3998 6.71164C17.3385 6.52889 17.2694 6.34885 17.1927 6.17201C16.7539 5.16028 16.0049 4.32827 14.7511 2.93545L14.6571 2.83104L14.6264 2.79688L14.6264 2.79686C14.1947 2.31722 13.8251 1.90651 13.4885 1.61435C13.1316 1.3046 12.7296 1.05304 12.2201 1.00297C12.0738 0.988594 11.9264 0.988594 11.7801 1.00297C11.2706 1.05304 10.8686 1.3046 10.5117 1.61435C10.1751 1.90651 9.80546 2.31723 9.37381 2.79688L9.34307 2.83104L9.24908 2.93545C7.99527 4.32827 7.24629 5.16027 6.80748 6.17201C6.73078 6.34885 6.66169 6.52889 6.6004 6.71164C6.24975 7.75721 6.24988 8.87668 6.25009 10.7507L6.2501 10.8912L6.2501 12.4147C5.69227 12.5563 5.21979 12.6836 4.82431 12.8218C4.2886 13.009 3.83432 13.2353 3.44681 13.5955C3.1552 13.8666 2.90863 14.1824 2.71635 14.5311C2.46084 14.9944 2.3515 15.49 2.29984 16.0551C2.25008 16.5994 2.25009 17.2664 2.2501 18.0877L2.2501 18.1228L2.2501 19.9997C2.2501 20.2306 2.3565 20.4487 2.53854 20.5908C2.72058 20.733 2.95795 20.7833 3.182 20.7273L6.45694 19.9085C6.57089 20.2929 6.75415 20.6431 7.05556 20.9445C7.51103 21.3999 8.07783 21.5856 8.70562 21.67C9.3004 21.75 10.0496 21.7499 10.9481 21.7499L11.0001 21.7499L13.0001 21.7499L13.0521 21.7499C13.9506 21.7499 14.6998 21.75 15.2946 21.67C15.9224 21.5856 16.4892 21.3999 16.9446 20.9445C17.2461 20.643 17.4293 20.2929 17.5433 19.9085L20.8182 20.7273C21.0423 20.7833 21.2796 20.733 21.4617 20.5908C21.6437 20.4487 21.7501 20.2306 21.7501 19.9997L21.7501 18.1228L21.7501 18.0877C21.7501 17.2664 21.7501 16.5994 21.7004 16.0551C21.6487 15.49 21.5394 14.9944 21.2838 14.5311C21.0916 14.1824 20.845 13.8666 20.5534 13.5955C20.1659 13.2353 19.7116 13.009 19.1759 12.8218C18.7804 12.6836 18.3079 12.5563 17.7501 12.4147ZM17.7501 13.9638L17.7501 16.9999L17.7501 17.0519L17.7501 17.052L17.7501 17.163L17.7501 18.4141L20.2501 19.0391L20.2501 18.1228C20.2501 17.258 20.2494 16.6597 20.2066 16.1916C20.165 15.7366 20.0878 15.4685 19.9703 15.2554C19.855 15.0463 19.707 14.8568 19.5321 14.6941C19.3539 14.5285 19.1125 14.3886 18.6811 14.2379C18.4244 14.1482 18.1219 14.0615 17.7501 13.9638ZM5.31907 14.2379C5.5758 14.1482 5.87827 14.0615 6.2501 13.9638L6.2501 16.9999L6.2501 17.0054L6.2501 17.0519L6.2501 17.1557L6.2501 18.4141L3.7501 19.0391L3.7501 18.1228C3.7501 17.258 3.75083 16.6597 3.79361 16.1916C3.83521 15.7366 3.91236 15.4685 4.02985 15.2554C4.14522 15.0463 4.29316 14.8568 4.46812 14.6941C4.64631 14.5285 4.88771 14.3886 5.31907 14.2379ZM10.7501 11.0002C10.7501 10.3098 11.3097 9.75016 12.0001 9.75016C12.6905 9.75016 13.2501 10.3098 13.2501 11.0002C13.2501 11.6905 12.6905 12.2502 12.0001 12.2502C11.3097 12.2502 10.7501 11.6905 10.7501 11.0002ZM12.0001 8.25016C10.4813 8.25016 9.2501 9.48138 9.2501 11.0002C9.2501 12.5189 10.4813 13.7502 12.0001 13.7502C13.5189 13.7502 14.7501 12.5189 14.7501 11.0002C14.7501 9.48138 13.5189 8.25016 12.0001 8.25016Z" fill="#22282F"/>
</g>
<defs>
<clipPath id="clip0">
<rect width="24" height="24" fill="white"/>
</clipPath>
</defs>
</svg>
