<svg width="24" height="24" viewBox="0 0 24 24" fill="none" xmlns="http://www.w3.org/2000/svg">
<path fill-rule="evenodd" clip-rule="evenodd" d="M2.45778 3.48188C2.67648 3.25301 3.01534 3.1861 3.30462 3.31467L21.3046 11.3147C21.5755 11.435 21.75 11.7036 21.75 12C21.75 12.2964 21.5755 12.565 21.3046 12.6854L3.30462 20.6854C3.01534 20.814 2.67648 20.747 2.45778 20.5182C2.23908 20.2893 2.18762 19.9478 2.3292 19.6646L6.16149 12L2.3292 4.33544C2.18762 4.05229 2.23908 3.71075 2.45778 3.48188ZM7.46354 12.75L4.60574 18.4656L19.1534 12L4.60574 5.53442L7.46354 11.25H12C12.4142 11.25 12.75 11.5858 12.75 12C12.75 12.4142 12.4142 12.75 12 12.75H7.46354Z" fill="#22282F"/>
</svg>
