<svg width="24" height="24" viewBox="0 0 24 24" fill="none" xmlns="http://www.w3.org/2000/svg">
<path fill-rule="evenodd" clip-rule="evenodd" d="M1.50007 3.75H1.49998L1.00009 3.75006C0.585878 3.75011 0.250051 3.41437 0.25 3.00015C0.249949 2.58594 0.585695 2.25011 0.999908 2.25006L1.49991 2.25L1.5 3L1.50002 2.25L1.54594 2.25L1.54594 2.25C1.88371 2.24996 2.1157 2.24993 2.33265 2.2752C3.58768 2.42142 4.68471 3.18982 5.25099 4.31934C5.34888 4.51459 5.42813 4.73264 5.54352 5.05009L5.5592 5.09323L5.61623 5.25006H17.0336L17.0773 5.25006C17.9753 5.25004 18.7102 5.25003 19.2878 5.31247C19.8799 5.37647 20.4293 5.51592 20.876 5.88872C21.2574 6.20702 21.5455 6.62268 21.7096 7.09156C21.9018 7.64073 21.8395 8.20413 21.6915 8.78103C21.5471 9.34374 21.2891 10.0318 20.9738 10.8726L20.9738 10.8726L20.9584 10.9136L20.9478 10.942C20.7035 11.5934 20.5046 12.1239 20.3055 12.5475C20.0986 12.9878 19.8706 13.36 19.5454 13.6787C19.2426 13.9754 18.8917 14.2185 18.5075 14.3979C18.095 14.5905 17.6665 14.6733 17.1815 14.7124C16.7151 14.7501 16.1485 14.7501 15.4529 14.7501H15.4529H15.4529H15.4224H12.2026H12.1594C12.0647 14.7501 11.9717 14.7501 11.8804 14.75H6C5.30964 14.75 4.75 15.3096 4.75 16C4.75 16.6904 5.30964 17.25 6 17.25H9H17H21C21.4142 17.25 21.75 17.5858 21.75 18C21.75 18.4142 21.4142 18.75 21 18.75H19.4501C19.6419 19.125 19.75 19.5499 19.75 20C19.75 21.5188 18.5188 22.75 17 22.75C15.4812 22.75 14.25 21.5188 14.25 20C14.25 19.5499 14.3581 19.125 14.5499 18.75H11.4501C11.6419 19.125 11.75 19.5499 11.75 20C11.75 21.5188 10.5188 22.75 9 22.75C7.48122 22.75 6.25 21.5188 6.25 20C6.25 19.5499 6.35814 19.125 6.54985 18.75H6C4.48122 18.75 3.25 17.5188 3.25 16C3.25 14.4812 4.48122 13.25 6 13.25H7.14691C7.00916 13.0505 6.8859 12.8335 6.76987 12.5996C6.48068 12.0166 6.20831 11.2676 5.87372 10.3474L5.85896 10.3068L4.14951 5.60585C4.01249 5.22904 3.96389 5.09895 3.91007 4.99161C3.5703 4.3139 2.91209 3.85285 2.15907 3.76513C2.03981 3.75123 1.90095 3.75001 1.50009 3.75H1.50007ZM14.0097 13.2501C14.0064 13.25 14.0032 13.25 14 13.25H11.9452C11.0494 13.2494 10.4099 13.2437 9.90375 13.1869C9.36922 13.1269 9.05809 13.0164 8.81046 12.843C8.56284 12.6695 8.35265 12.4149 8.11362 11.933C7.86618 11.4342 7.62158 10.7648 7.26865 9.79421L6.16168 6.75006H17.0336C17.986 6.75006 18.6393 6.7511 19.1266 6.80378C19.6087 6.85589 19.8051 6.94869 19.9149 7.04036C20.0883 7.18504 20.2192 7.37398 20.2938 7.58711C20.3411 7.72215 20.359 7.93863 20.2385 8.40834C20.1167 8.88312 19.8883 9.49513 19.5539 10.3869C19.2964 11.0736 19.1182 11.5472 18.948 11.9095C18.7826 12.2612 18.6461 12.4598 18.4957 12.6072C18.314 12.7852 18.1034 12.9312 17.8729 13.0388C17.6821 13.1279 17.4482 13.186 17.0608 13.2173C16.6618 13.2495 16.1558 13.2501 15.4224 13.2501H14.0097ZM9 18.75C8.30964 18.75 7.75 19.3096 7.75 20C7.75 20.6904 8.30964 21.25 9 21.25C9.69036 21.25 10.25 20.6904 10.25 20C10.25 19.3096 9.69036 18.75 9 18.75ZM17 18.75C16.3096 18.75 15.75 19.3096 15.75 20C15.75 20.6904 16.3096 21.25 17 21.25C17.6904 21.25 18.25 20.6904 18.25 20C18.25 19.3096 17.6904 18.75 17 18.75Z" fill="#22282F"/>
</svg>
