<svg width="24" height="24" viewBox="0 0 24 24" fill="none" xmlns="http://www.w3.org/2000/svg">
<path fill-rule="evenodd" clip-rule="evenodd" d="M11.9997 2.25H11.9509H11.9508C10.4154 2.24999 9.1956 2.24998 8.22523 2.36601C7.22595 2.48551 6.40087 2.73638 5.69945 3.30172C5.58046 3.39763 5.46616 3.49923 5.35696 3.60615C4.71328 4.23646 4.36741 5.02643 4.13158 6.00481C3.90258 6.95489 3.75958 8.16624 3.57957 9.69114L3.57385 9.73966L3.31005 11.9741L3.30301 12.0338C3.06291 14.0675 2.87332 15.6733 2.90059 16.9357C2.92859 18.2319 3.18516 19.2958 3.94951 20.1557C4.71387 21.0156 5.74042 21.3952 7.02434 21.5749C8.27485 21.75 9.89183 21.75 11.9397 21.75H11.9997H12.0597C14.1076 21.75 15.7246 21.75 16.9751 21.5749C18.259 21.3952 19.2855 21.0156 20.0499 20.1557C20.8143 19.2958 21.0708 18.2319 21.0988 16.9357C21.1261 15.6733 20.9365 14.0675 20.6964 12.0337L20.6894 11.9741L20.4256 9.73966L20.4199 9.69122L20.4198 9.69116C20.2398 8.16626 20.0968 6.9549 19.8678 6.00481C19.632 5.02643 19.2861 4.23646 18.6425 3.60615C18.5333 3.49923 18.419 3.39763 18.3 3.30172C17.5985 2.73638 16.7735 2.48551 15.7742 2.36601C14.8038 2.24998 13.584 2.24999 12.0486 2.25H12.0486H11.9997ZM6.64076 4.4696C7.03817 4.14929 7.55097 3.95733 8.40333 3.8554C9.27431 3.75125 10.4044 3.75 11.9997 3.75C13.5951 3.75 14.7251 3.75125 15.5961 3.8554C16.4484 3.95733 16.9612 4.14929 17.3587 4.4696C17.4401 4.53522 17.5183 4.60473 17.593 4.6779C17.9577 5.03501 18.2084 5.52177 18.4096 6.3563C18.6151 7.20906 18.7489 8.33117 18.9359 9.91552L19.1997 12.15C19.4484 14.2566 19.6239 15.7581 19.5992 16.9033C19.5749 18.0271 19.3578 18.6765 18.9288 19.1592C18.4998 19.6418 17.8803 19.9336 16.7671 20.0894C15.6327 20.2483 14.1209 20.25 11.9997 20.25C9.8785 20.25 8.36673 20.2483 7.23234 20.0894C6.11916 19.9336 5.49965 19.6418 5.07063 19.1592C4.64161 18.6765 4.42452 18.0271 4.40024 16.9033C4.3755 15.7581 4.55101 14.2566 4.79971 12.15L5.0635 9.91552C5.25054 8.33117 5.38427 7.20906 5.58982 6.3563C5.79097 5.52177 6.04173 5.03501 6.40643 4.6779C6.48114 4.60473 6.55934 4.53522 6.64076 4.4696ZM9.74981 9C9.74981 10.2426 10.7572 11.25 11.9998 11.25C13.2425 11.25 14.2498 10.2426 14.2498 9V7C14.2498 6.58579 14.5856 6.25 14.9998 6.25C15.414 6.25 15.7498 6.58579 15.7498 7V9C15.7498 11.0711 14.0709 12.75 11.9998 12.75C9.92875 12.75 8.24981 11.0711 8.24981 9V7C8.24981 6.58579 8.5856 6.25 8.99981 6.25C9.41403 6.25 9.74981 6.58579 9.74981 7V9Z" fill="#22282F"/>
</svg>
