<svg width="24" height="24" viewBox="0 0 24 24" fill="none" xmlns="http://www.w3.org/2000/svg">
<path fill-rule="evenodd" clip-rule="evenodd" d="M9.59965 3.44998C9.84818 3.11861 9.78102 2.64851 9.44965 2.39998C9.11828 2.15145 8.64818 2.21861 8.39965 2.54998L5.41465 6.52998C4.83823 6.67119 4.33063 6.88948 3.88252 7.23392C3.33189 7.65714 2.88077 8.19596 2.56093 8.81241C2.15639 9.59211 2.07704 10.4597 2.14777 11.482C2.21712 12.4843 2.44021 13.7336 2.72308 15.3176L2.73107 15.3624L2.73764 15.3992L2.73764 15.3992C2.94194 16.5433 3.10448 17.4536 3.30493 18.1775C3.51099 18.9217 3.77334 19.5344 4.21408 20.0582C4.57027 20.4815 4.99766 20.8393 5.47699 21.1155C6.07012 21.4573 6.71936 21.6079 7.48819 21.6799C8.23609 21.75 9.16072 21.75 10.3229 21.75H10.323H10.3604H13.6389H13.6763H13.6764C14.8386 21.75 15.7632 21.75 16.5111 21.6799C17.2799 21.6079 17.9292 21.4573 18.5223 21.1155C19.0016 20.8393 19.429 20.4815 19.7852 20.0582C20.226 19.5344 20.4883 18.9217 20.6944 18.1775C20.8948 17.4536 21.0574 16.5433 21.2617 15.3992L21.2682 15.3624L21.2762 15.3176L21.2762 15.3175C21.5591 13.7335 21.7822 12.4843 21.8515 11.482C21.9223 10.4597 21.8429 9.59211 21.4384 8.81241C21.1185 8.19596 20.6674 7.65714 20.1168 7.23392C19.6687 6.88948 19.1611 6.67119 18.5847 6.52998L15.5996 2.54998C15.3511 2.21861 14.881 2.15145 14.5496 2.39998C14.2183 2.64851 14.1511 3.11861 14.3996 3.44998L16.5254 6.28425C15.7219 6.24997 14.7823 6.24998 13.6843 6.24998H13.6389H10.3604H10.315C9.21703 6.24998 8.27743 6.24997 7.47395 6.28425L9.59965 3.44998ZM4.79663 8.4232C5.17818 8.12993 5.70085 7.94627 6.59909 7.84922C7.50794 7.75101 8.69585 7.74998 10.3604 7.74998H13.6389C15.3035 7.74998 16.4914 7.75101 17.4002 7.84922C18.2984 7.94627 18.8211 8.12993 19.2027 8.4232C19.5794 8.71278 19.8881 9.08144 20.1069 9.50322C20.3285 9.93038 20.4175 10.4772 20.3551 11.3785C20.292 12.2905 20.0842 13.4601 19.7916 15.0987C19.5792 16.2879 19.4283 17.1289 19.2488 17.7772C19.0727 18.4131 18.8856 18.7975 18.6375 19.0924C18.3938 19.3821 18.1013 19.6269 17.7734 19.8159C17.4394 20.0084 17.0281 20.1249 16.3712 20.1865C15.7014 20.2492 14.847 20.25 13.6389 20.25H10.3604C9.15235 20.25 8.2979 20.2492 7.6281 20.1865C6.97122 20.1249 6.55993 20.0084 6.22593 19.8159C5.89797 19.6269 5.60554 19.3821 5.36184 19.0924C5.11365 18.7975 4.9266 18.4131 4.75054 17.7772C4.57102 17.1289 4.42007 16.2879 4.20771 15.0987C3.9151 13.4601 3.70729 12.2905 3.64419 11.3785C3.58184 10.4772 3.67076 9.93038 3.89239 9.50322C4.11122 9.08144 4.41989 8.71278 4.79663 8.4232Z" fill="#22282F"/>
</svg>
