<svg width="24" height="24" viewBox="0 0 24 24" fill="none" xmlns="http://www.w3.org/2000/svg">
<path fill-rule="evenodd" clip-rule="evenodd" d="M1.49998 2.75H1.50007H1.50009C1.78478 2.75001 1.88363 2.75062 1.96779 2.7575C2.81868 2.82714 3.55687 3.37236 3.87364 4.16516C3.90498 4.24358 3.93463 4.33789 4.01838 4.61007L5.97994 10.9851L5.99316 11.0281L5.99317 11.0281C6.29595 12.0122 6.54213 12.8123 6.81597 13.4359C7.10167 14.0864 7.44679 14.6169 7.98784 15.0165C8.52889 15.4161 9.13745 15.59 9.84321 15.6717C10.5197 15.7501 11.3569 15.7501 12.3865 15.7501H12.4314H14.5358H14.581C15.6178 15.7501 16.4607 15.7501 17.1414 15.6709C17.8515 15.5883 18.4635 15.4126 19.0064 15.0087C19.5493 14.6047 19.8934 14.069 20.1766 13.4126C20.4481 12.7834 20.6902 11.9761 20.9881 10.983L21.0011 10.9397L21.1736 10.365L21.1909 10.3072L21.1909 10.3071C21.5299 9.17733 21.8081 8.24989 21.918 7.50536C22.0325 6.72982 21.9907 5.9935 21.5182 5.3585C21.0458 4.7235 20.3525 4.4719 19.5768 4.35869C18.8321 4.25 17.8638 4.25003 16.6842 4.25006L16.6239 4.25006H5.5C5.49234 4.25006 5.48471 4.25018 5.47711 4.2504L5.45205 4.16894L5.44241 4.13762L5.44241 4.13761C5.37193 3.90848 5.32359 3.7513 5.26657 3.60859C4.73861 2.28726 3.5083 1.37857 2.09014 1.2625C1.93697 1.24997 1.77251 1.24998 1.53278 1.25L1.50002 1.25L1.5 2L1.49991 1.25L0.999908 1.25006C0.585695 1.25011 0.249949 1.58594 0.25 2.00015C0.250051 2.41437 0.585878 2.75011 1.00009 2.75006L1.49998 2.75ZM7.41361 10.544L5.93855 5.75006H16.6239C17.8788 5.75006 18.7367 5.75197 19.3602 5.84297C19.9654 5.93129 20.1875 6.08276 20.3148 6.2539C20.4421 6.42504 20.5234 6.68131 20.4341 7.28634C20.3421 7.90971 20.0974 8.7319 19.7368 9.93394L19.5644 10.5086C19.2504 11.5554 19.0322 12.2787 18.7993 12.8185C18.5742 13.3402 18.3653 13.616 18.111 13.8052C17.8567 13.9944 17.5325 14.1153 16.9681 14.1809C16.3841 14.2489 15.6287 14.2501 14.5358 14.2501H12.4314C11.346 14.2501 10.596 14.2489 10.0158 14.1817C9.45511 14.1167 9.13249 13.9972 8.87899 13.8099C8.6255 13.6227 8.41633 13.3495 8.18936 12.8327C7.95451 12.298 7.73281 11.5814 7.41361 10.544ZM10 18.75C9.30964 18.75 8.75 19.3096 8.75 20C8.75 20.6904 9.30964 21.25 10 21.25C10.6904 21.25 11.25 20.6904 11.25 20C11.25 19.3096 10.6904 18.75 10 18.75ZM7.25 20C7.25 18.4812 8.48122 17.25 10 17.25C11.5188 17.25 12.75 18.4812 12.75 20C12.75 21.5188 11.5188 22.75 10 22.75C8.48122 22.75 7.25 21.5188 7.25 20ZM18 18.75C17.3096 18.75 16.75 19.3096 16.75 20C16.75 20.6904 17.3096 21.25 18 21.25C18.6904 21.25 19.25 20.6904 19.25 20C19.25 19.3096 18.6904 18.75 18 18.75ZM15.25 20C15.25 18.4812 16.4812 17.25 18 17.25C19.5188 17.25 20.75 18.4812 20.75 20C20.75 21.5188 19.5188 22.75 18 22.75C16.4812 22.75 15.25 21.5188 15.25 20Z" fill="#22282F"/>
</svg>
