<svg width="24" height="24" viewBox="0 0 24 24" fill="none" xmlns="http://www.w3.org/2000/svg">
<path fill-rule="evenodd" clip-rule="evenodd" d="M9.74994 5C9.74994 3.75736 10.7573 2.75 11.9999 2.75C13.2426 2.75 14.2499 3.75736 14.2499 5V6.25H9.74994V5ZM8.24994 7.75631V9C8.24994 9.41421 8.58573 9.75 8.99994 9.75C9.41415 9.75 9.74994 9.41421 9.74994 9V7.75H14.2499V9C14.2499 9.41421 14.5857 9.75 14.9999 9.75C15.4142 9.75 15.7499 9.41421 15.7499 9V7.75631C16.3755 7.76549 16.8805 7.78799 17.3048 7.84316C17.9885 7.93206 18.3597 8.09495 18.6323 8.34652C18.9049 8.59808 19.097 8.95504 19.2404 9.62944C19.3882 10.3249 19.464 11.2497 19.5709 12.5795L19.7316 14.5795C19.8552 16.1181 19.94 17.1944 19.8932 18.0094C19.8477 18.8029 19.682 19.2233 19.4027 19.5259C19.1234 19.8286 18.7176 20.0275 17.9304 20.1364C17.1216 20.2483 16.042 20.25 14.4985 20.25H9.50142C7.95787 20.25 6.87824 20.2483 6.06953 20.1364C5.28225 20.0275 4.87647 19.8286 4.5972 19.5259C4.31793 19.2233 4.15216 18.8029 4.10663 18.0094C4.05987 17.1944 4.14466 16.1181 4.26829 14.5795L4.42901 12.5795C4.53586 11.2497 4.61167 10.3249 4.75952 9.62943C4.9029 8.95504 5.09501 8.59808 5.3676 8.34652C5.64019 8.09495 6.01138 7.93206 6.6951 7.84316C7.11937 7.78799 7.62433 7.76549 8.24994 7.75631ZM8.24994 6.25602V5C8.24994 2.92893 9.92887 1.25 11.9999 1.25C14.071 1.25 15.7499 2.92893 15.7499 5V6.25602C16.4179 6.26565 16.9983 6.29068 17.4982 6.35568C18.3437 6.46562 19.0603 6.70041 19.6496 7.2442C20.2388 7.78799 20.5303 8.4835 20.7076 9.3175C20.8781 10.1195 20.9602 11.1419 21.0619 12.4072L21.0661 12.4593L21.2268 14.4593L21.2314 14.5165L21.2314 14.5165C21.3494 15.9845 21.4442 17.1646 21.3908 18.0954C21.3354 19.0598 21.1167 19.8804 20.505 20.5432C19.8933 21.206 19.0929 21.4898 18.136 21.6222C17.2124 21.75 16.0286 21.75 14.5558 21.75H14.4985H9.50142H9.44407C7.97131 21.75 6.78747 21.75 5.86393 21.6222C4.90698 21.4898 4.10655 21.206 3.49488 20.5432C2.88321 19.8804 2.66444 19.0598 2.6091 18.0954C2.55569 17.1646 2.65053 15.9845 2.76852 14.5165L2.77311 14.4593L2.93383 12.4593L2.93801 12.4072C3.03967 11.1419 3.12181 10.1195 3.29232 9.3175C3.46963 8.4835 3.76106 7.78799 4.3503 7.2442C4.93955 6.70041 5.65616 6.46562 6.50169 6.35568C7.00162 6.29068 7.58198 6.26565 8.24994 6.25602Z" fill="#22282F"/>
</svg>
