<svg width="24" height="24" viewBox="0 0 24 24" fill="none" xmlns="http://www.w3.org/2000/svg">
<path fill-rule="evenodd" clip-rule="evenodd" d="M6.72065 5.6601C8.15128 4.46749 9.99185 3.75 12 3.75C16.5563 3.75 20.25 7.44365 20.25 12C20.25 14.0081 19.5325 15.8487 18.3399 17.2793L6.72065 5.6601ZM5.66 6.72077C4.46745 8.15138 3.75 9.9919 3.75 12C3.75 16.5563 7.44365 20.25 12 20.25C14.0081 20.25 15.8486 19.5326 17.2792 18.34L5.66 6.72077ZM12 2.25C6.61522 2.25 2.25 6.61522 2.25 12C2.25 17.3848 6.61522 21.75 12 21.75C17.3848 21.75 21.75 17.3848 21.75 12C21.75 6.61522 17.3848 2.25 12 2.25Z" fill="#22282F"/>
</svg>
