<svg width="24" height="24" viewBox="0 0 24 24" fill="none" xmlns="http://www.w3.org/2000/svg">
<path fill-rule="evenodd" clip-rule="evenodd" d="M15 2.25C13.4812 2.25 12.25 3.48122 12.25 5C12.25 6.51879 13.4812 7.75 15 7.75C16.2588 7.75 17.32 6.90425 17.6465 5.75L21 5.75C21.4142 5.75 21.75 5.41422 21.75 5C21.75 4.58579 21.4142 4.25 21 4.25L17.6465 4.25C17.32 3.09575 16.2588 2.25 15 2.25ZM16.25 5C16.25 4.30965 15.6904 3.75 15 3.75C14.3096 3.75 13.75 4.30965 13.75 5C13.75 5.69036 14.3096 6.25 15 6.25C15.6904 6.25 16.25 5.69036 16.25 5ZM3 4.25C2.58579 4.25 2.25 4.58579 2.25 5C2.25 5.41422 2.58579 5.75 3 5.75L10 5.75C10.4142 5.75 10.75 5.41422 10.75 5C10.75 4.58579 10.4142 4.25 10 4.25L3 4.25ZM3 18.25C2.58579 18.25 2.25 18.5858 2.25 19C2.25 19.4142 2.58579 19.75 3 19.75L10 19.75C10.4142 19.75 10.75 19.4142 10.75 19C10.75 18.5858 10.4142 18.25 10 18.25L3 18.25ZM15 16.25C16.2588 16.25 17.32 17.0957 17.6465 18.25L21 18.25C21.4142 18.25 21.75 18.5858 21.75 19C21.75 19.4142 21.4142 19.75 21 19.75L17.6465 19.75C17.32 20.9043 16.2588 21.75 15 21.75C13.4812 21.75 12.25 20.5188 12.25 19C12.25 17.4812 13.4812 16.25 15 16.25ZM15 20.25C15.6904 20.25 16.25 19.6904 16.25 19C16.25 18.3096 15.6904 17.75 15 17.75C14.3096 17.75 13.75 18.3096 13.75 19C13.75 19.6904 14.3096 20.25 15 20.25ZM2.25 12C2.25 11.5858 2.58579 11.25 3 11.25L6.35352 11.25C6.67998 10.0958 7.74122 9.25 9 9.25C10.5188 9.25 11.75 10.4812 11.75 12C11.75 13.5188 10.5188 14.75 9 14.75C7.74122 14.75 6.67998 13.9043 6.35352 12.75L3 12.75C2.58579 12.75 2.25 12.4142 2.25 12ZM13.25 12C13.25 11.5858 13.5858 11.25 14 11.25L21 11.25C21.4142 11.25 21.75 11.5858 21.75 12C21.75 12.4142 21.4142 12.75 21 12.75L14 12.75C13.5858 12.75 13.25 12.4142 13.25 12ZM7.75 12C7.75 11.3096 8.30964 10.75 9 10.75C9.69036 10.75 10.25 11.3096 10.25 12C10.25 12.6904 9.69036 13.25 9 13.25C8.30964 13.25 7.75 12.6904 7.75 12Z" fill="#22282F"/>
</svg>
