<svg width="24" height="24" viewBox="0 0 24 24" fill="none" xmlns="http://www.w3.org/2000/svg">
<path fill-rule="evenodd" clip-rule="evenodd" d="M4.25 6.35352C3.09575 6.67998 2.25 7.74122 2.25 9C2.25 10.5188 3.48122 11.75 5 11.75C6.51878 11.75 7.75 10.5188 7.75 9C7.75 7.74122 6.90425 6.67998 5.75 6.35352L5.75 3C5.75 2.58579 5.41421 2.25 5 2.25C4.58579 2.25 4.25 2.58579 4.25 3L4.25 6.35352ZM5 7.75C4.30964 7.75 3.75 8.30964 3.75 9C3.75 9.69036 4.30964 10.25 5 10.25C5.69036 10.25 6.25 9.69036 6.25 9C6.25 8.30964 5.69036 7.75 5 7.75ZM5.75 14C5.75 13.5858 5.41422 13.25 5 13.25C4.58579 13.25 4.25 13.5858 4.25 14L4.25 21C4.25 21.4142 4.58579 21.75 5 21.75C5.41422 21.75 5.75 21.4142 5.75 21L5.75 14ZM19.75 3C19.75 2.58579 19.4142 2.25 19 2.25C18.5858 2.25 18.25 2.58579 18.25 3L18.25 6.35352C17.0957 6.67998 16.25 7.74122 16.25 9C16.25 10.5188 17.4812 11.75 19 11.75C20.5188 11.75 21.75 10.5188 21.75 9C21.75 7.74122 20.9043 6.67998 19.75 6.35352L19.75 3ZM19.75 14C19.75 13.5858 19.4142 13.25 19 13.25C18.5858 13.25 18.25 13.5858 18.25 14L18.25 21C18.25 21.4142 18.5858 21.75 19 21.75C19.4142 21.75 19.75 21.4142 19.75 21L19.75 14ZM12 2.25C12.4142 2.25 12.75 2.58579 12.75 3L12.75 10C12.75 10.4142 12.4142 10.75 12 10.75C11.5858 10.75 11.25 10.4142 11.25 10L11.25 3C11.25 2.58579 11.5858 2.25 12 2.25ZM11.25 17.6465L11.25 21C11.25 21.4142 11.5858 21.75 12 21.75C12.4142 21.75 12.75 21.4142 12.75 21L12.75 17.6465C13.9043 17.32 14.75 16.2588 14.75 15C14.75 13.4812 13.5188 12.25 12 12.25C10.4812 12.25 9.25 13.4812 9.25 15C9.25 16.2588 10.0957 17.32 11.25 17.6465ZM19 7.75C18.3096 7.75 17.75 8.30964 17.75 9C17.75 9.69036 18.3096 10.25 19 10.25C19.6904 10.25 20.25 9.69036 20.25 9C20.25 8.30964 19.6904 7.75 19 7.75ZM10.75 15C10.75 14.3096 11.3096 13.75 12 13.75C12.6904 13.75 13.25 14.3096 13.25 15C13.25 15.6904 12.6904 16.25 12 16.25C11.3096 16.25 10.75 15.6904 10.75 15Z" fill="#22282F"/>
</svg>
