<svg width="24" height="24" viewBox="0 0 24 24" fill="none" xmlns="http://www.w3.org/2000/svg">
<path fill-rule="evenodd" clip-rule="evenodd" d="M7.75 3C7.75 2.58579 7.41421 2.25 7 2.25C6.58579 2.25 6.25 2.58579 6.25 3V6.32501C4.53832 6.67247 3.25 8.18578 3.25 10C3.25 12.0711 4.92893 13.75 7 13.75C9.07107 13.75 10.75 12.0711 10.75 10C10.75 8.18578 9.46168 6.67247 7.75 6.32501V3ZM4.75 10C4.75 8.75736 5.75736 7.75 7 7.75C8.24264 7.75 9.25 8.75736 9.25 10C9.25 11.2426 8.24264 12.25 7 12.25C5.75736 12.25 4.75 11.2426 4.75 10ZM7.75 16C7.75 15.5858 7.41421 15.25 7 15.25C6.58579 15.25 6.25 15.5858 6.25 16V21C6.25 21.4142 6.58579 21.75 7 21.75C7.41421 21.75 7.75 21.4142 7.75 21V16ZM17.75 3C17.75 2.58579 17.4142 2.25 17 2.25C16.5858 2.25 16.25 2.58579 16.25 3V8C16.25 8.41421 16.5858 8.75 17 8.75C17.4142 8.75 17.75 8.41421 17.75 8V3ZM17 16.25C18.2426 16.25 19.25 15.2426 19.25 14C19.25 12.7574 18.2426 11.75 17 11.75C15.7574 11.75 14.75 12.7574 14.75 14C14.75 15.2426 15.7574 16.25 17 16.25ZM17.75 21V17.675C19.4617 17.3275 20.75 15.8142 20.75 14C20.75 11.9289 19.0711 10.25 17 10.25C14.9289 10.25 13.25 11.9289 13.25 14C13.25 15.8142 14.5383 17.3275 16.25 17.675V21C16.25 21.4142 16.5858 21.75 17 21.75C17.4142 21.75 17.75 21.4142 17.75 21Z" fill="#22282F"/>
</svg>
