<svg width="24" height="24" viewBox="0 0 24 24" fill="none" xmlns="http://www.w3.org/2000/svg">
<path fill-rule="evenodd" clip-rule="evenodd" d="M15 2.25C14.5858 2.25 14.25 2.58579 14.25 3V6C14.25 6.41421 14.5858 6.75 15 6.75H18.25V8.25H15C14.5858 8.25 14.25 8.58579 14.25 9C14.25 9.41421 14.5858 9.75 15 9.75H19C19.4142 9.75 19.75 9.41421 19.75 9V6V3C19.75 2.58579 19.4142 2.25 19 2.25H15ZM18.25 3.75V5.25H15.75V3.75H18.25ZM7 5.25C7.41421 5.25 7.75 5.58579 7.75 6V16.1893L9.46967 14.4697C9.76256 14.1768 10.2374 14.1768 10.5303 14.4697C10.8232 14.7626 10.8232 15.2374 10.5303 15.5303L7.53033 18.5303C7.23744 18.8232 6.76256 18.8232 6.46967 18.5303L3.46967 15.5303C3.17678 15.2374 3.17678 14.7626 3.46967 14.4697C3.76256 14.1768 4.23744 14.1768 4.53033 14.4697L6.25 16.1893V6C6.25 5.58579 6.58579 5.25 7 5.25ZM17.287 12.3071C17.5673 12.4232 17.75 12.6967 17.75 13V18.25H19C19.4142 18.25 19.75 18.5858 19.75 19C19.75 19.4142 19.4142 19.75 19 19.75H17H15C14.5858 19.75 14.25 19.4142 14.25 19C14.25 18.5858 14.5858 18.25 15 18.25H16.25V14.8107L15.5303 15.5303C15.2374 15.8232 14.7626 15.8232 14.4697 15.5303C14.1768 15.2374 14.1768 14.7626 14.4697 14.4697L16.4697 12.4697C16.6842 12.2552 17.0068 12.191 17.287 12.3071Z" fill="#22282F"/>
</svg>
