<svg width="24" height="24" viewBox="0 0 24 24" fill="none" xmlns="http://www.w3.org/2000/svg">
<path fill-rule="evenodd" clip-rule="evenodd" d="M17.287 2.30711C17.5673 2.4232 17.75 2.69668 17.75 3.00002V8.25002H19C19.4142 8.25002 19.75 8.58581 19.75 9.00002C19.75 9.41424 19.4142 9.75002 19 9.75002H17H15C14.5858 9.75002 14.25 9.41424 14.25 9.00002C14.25 8.58581 14.5858 8.25002 15 8.25002H16.25V4.81068L15.5303 5.53035C15.2374 5.82325 14.7626 5.82325 14.4697 5.53035C14.1768 5.23746 14.1768 4.76259 14.4697 4.46969L16.4697 2.46969C16.6842 2.25519 17.0068 2.19103 17.287 2.30711ZM7 5.25002C7.41421 5.25002 7.75 5.58581 7.75 6.00002V16.1894L9.46967 14.4697C9.76256 14.1768 10.2374 14.1768 10.5303 14.4697C10.8232 14.7626 10.8232 15.2375 10.5303 15.5304L7.53033 18.5304C7.23744 18.8232 6.76256 18.8232 6.46967 18.5304L3.46967 15.5304C3.17678 15.2375 3.17678 14.7626 3.46967 14.4697C3.76256 14.1768 4.23744 14.1768 4.53033 14.4697L6.25 16.1894V6.00002C6.25 5.58581 6.58579 5.25002 7 5.25002ZM19.75 13C19.75 12.5858 19.4142 12.25 19 12.25H15C14.5858 12.25 14.25 12.5858 14.25 13V16C14.25 16.4142 14.5858 16.75 15 16.75H18.25V18.25H15C14.5858 18.25 14.25 18.5858 14.25 19C14.25 19.4142 14.5858 19.75 15 19.75H19C19.4142 19.75 19.75 19.4142 19.75 19V16V13ZM18.25 13.75V15.25H15.75V13.75H18.25Z" fill="#22282F"/>
</svg>
