<svg width="24" height="24" viewBox="0 0 24 24" fill="none" xmlns="http://www.w3.org/2000/svg">
<path fill-rule="evenodd" clip-rule="evenodd" d="M14.25 3C14.25 2.58579 14.5858 2.25 15 2.25H19C19.2766 2.25 19.5307 2.40224 19.6613 2.64611C19.7918 2.88997 19.7775 3.18588 19.624 3.41603L16.4014 8.25H19C19.4142 8.25 19.75 8.58579 19.75 9C19.75 9.41421 19.4142 9.75 19 9.75H15C14.7234 9.75 14.4693 9.59776 14.3387 9.35389C14.2082 9.11003 14.2225 8.81412 14.376 8.58397L17.5986 3.75H15C14.5858 3.75 14.25 3.41421 14.25 3ZM7 5.25C7.41421 5.25 7.75 5.58579 7.75 6V16.1893L9.46967 14.4697C9.76256 14.1768 10.2374 14.1768 10.5303 14.4697C10.8232 14.7626 10.8232 15.2374 10.5303 15.5303L7.53033 18.5303C7.23744 18.8232 6.76256 18.8232 6.46967 18.5303L3.46967 15.5303C3.17678 15.2374 3.17678 14.7626 3.46967 14.4697C3.76256 14.1768 4.23744 14.1768 4.53033 14.4697L6.25 16.1893V6C6.25 5.58579 6.58579 5.25 7 5.25ZM17 12.25C15.4812 12.25 14.25 13.4812 14.25 15V16.75V19C14.25 19.4142 14.5858 19.75 15 19.75C15.4142 19.75 15.75 19.4142 15.75 19V17.5H18.25V19C18.25 19.4142 18.5858 19.75 19 19.75C19.4142 19.75 19.75 19.4142 19.75 19V16.75V15C19.75 13.4812 18.5188 12.25 17 12.25ZM18.25 15V16H15.75V15C15.75 14.3096 16.3096 13.75 17 13.75C17.6904 13.75 18.25 14.3096 18.25 15Z" fill="#22282F"/>
</svg>
