<svg width="24" height="24" viewBox="0 0 24 24" fill="none" xmlns="http://www.w3.org/2000/svg">
<path fill-rule="evenodd" clip-rule="evenodd" d="M17 2.25C15.4812 2.25 14.25 3.48122 14.25 5V6.75V9C14.25 9.41421 14.5858 9.75 15 9.75C15.4142 9.75 15.75 9.41421 15.75 9V7.5H18.25V9C18.25 9.41421 18.5858 9.75 19 9.75C19.4142 9.75 19.75 9.41421 19.75 9V6.75V5C19.75 3.48122 18.5188 2.25 17 2.25ZM18.25 5V6H15.75V5C15.75 4.30964 16.3096 3.75 17 3.75C17.6904 3.75 18.25 4.30964 18.25 5ZM7 5.25C7.41421 5.25 7.75 5.58579 7.75 6V16.1893L9.46967 14.4697C9.76256 14.1768 10.2374 14.1768 10.5303 14.4697C10.8232 14.7626 10.8232 15.2374 10.5303 15.5303L7.53033 18.5303C7.23744 18.8232 6.76256 18.8232 6.46967 18.5303L3.46967 15.5303C3.17678 15.2374 3.17678 14.7626 3.46967 14.4697C3.76256 14.1768 4.23744 14.1768 4.53033 14.4697L6.25 16.1893V6C6.25 5.58579 6.58579 5.25 7 5.25ZM14.25 13C14.25 12.5858 14.5858 12.25 15 12.25H19C19.2766 12.25 19.5307 12.4022 19.6613 12.6461C19.7918 12.89 19.7775 13.1859 19.624 13.416L16.4014 18.25H19C19.4142 18.25 19.75 18.5858 19.75 19C19.75 19.4142 19.4142 19.75 19 19.75H15C14.7234 19.75 14.4693 19.5978 14.3387 19.3539C14.2082 19.11 14.2225 18.8141 14.376 18.584L17.5986 13.75H15C14.5858 13.75 14.25 13.4142 14.25 13Z" fill="#22282F"/>
</svg>
