<svg width="24" height="24" viewBox="0 0 24 24" fill="none" xmlns="http://www.w3.org/2000/svg">
<path fill-rule="evenodd" clip-rule="evenodd" d="M12 1.25H11.9584C10.5892 1.24999 9.5043 1.24998 8.63794 1.33812C7.7503 1.42841 7.00926 1.61739 6.36104 2.05052C5.84239 2.39707 5.39707 2.84239 5.05052 3.36104C4.61739 4.00926 4.42841 4.7503 4.33812 5.63794C4.24998 6.5043 4.24999 7.5892 4.25 8.95841V9V15V15.0416C4.24999 16.4108 4.24998 17.4957 4.33812 18.3621C4.42841 19.2497 4.61739 19.9907 5.05052 20.639C5.39707 21.1576 5.84239 21.6029 6.36104 21.9495C7.00926 22.3826 7.7503 22.5716 8.63794 22.6619C9.50431 22.75 10.5892 22.75 11.9584 22.75H12H12.0416C13.4108 22.75 14.4957 22.75 15.3621 22.6619C16.2497 22.5716 16.9907 22.3826 17.639 21.9495C18.1576 21.6029 18.6029 21.1576 18.9495 20.639C19.3826 19.9907 19.5716 19.2497 19.6619 18.3621C19.75 17.4957 19.75 16.4108 19.75 15.0416V15V9V8.9584C19.75 7.5892 19.75 6.5043 19.6619 5.63794C19.5716 4.7503 19.3826 4.00926 18.9495 3.36104C18.6029 2.84239 18.1576 2.39707 17.639 2.05052C16.9907 1.61739 16.2497 1.42841 15.3621 1.33812C14.4957 1.24998 13.4108 1.24999 12.0416 1.25H12ZM7.1944 3.29772C7.55507 3.05673 8.02071 2.90865 8.78975 2.83041C9.57133 2.75091 10.5799 2.75 12 2.75C13.4201 2.75 14.4287 2.75091 15.2102 2.83041C15.9793 2.90865 16.4449 3.05673 16.8056 3.29772C17.1605 3.53484 17.4652 3.83953 17.7023 4.1944C17.9433 4.55507 18.0914 5.02071 18.1696 5.78975C18.2491 6.57133 18.25 7.57993 18.25 9V15C18.25 16.4201 18.2491 17.4287 18.1696 18.2102C18.0914 18.9793 17.9433 19.4449 17.7023 19.8056C17.4652 20.1605 17.1605 20.4652 16.8056 20.7023C16.4449 20.9433 15.9793 21.0914 15.2102 21.1696C14.4287 21.2491 13.4201 21.25 12 21.25C10.5799 21.25 9.57133 21.2491 8.78975 21.1696C8.02071 21.0914 7.55507 20.9433 7.1944 20.7023C6.83953 20.4652 6.53484 20.1605 6.29772 19.8056C6.05673 19.4449 5.90865 18.9793 5.83041 18.2102C5.75091 17.4287 5.75 16.4201 5.75 15V9C5.75 7.57993 5.75091 6.57133 5.83041 5.78975C5.90865 5.02071 6.05673 4.55507 6.29772 4.1944C6.53484 3.83953 6.83953 3.53484 7.1944 3.29772ZM9.75 9C9.75 7.75736 10.7574 6.75 12 6.75C13.2426 6.75 14.25 7.75736 14.25 9C14.25 10.2426 13.2426 11.25 12 11.25C10.7574 11.25 9.75 10.2426 9.75 9ZM12 5.25C9.92893 5.25 8.25 6.92893 8.25 9C8.25 11.0711 9.92893 12.75 12 12.75C14.0711 12.75 15.75 11.0711 15.75 9C15.75 6.92893 14.0711 5.25 12 5.25ZM11 17C11 17.5523 10.5523 18 10 18C9.44772 18 9 17.5523 9 17C9 16.4477 9.44772 16 10 16C10.5523 16 11 16.4477 11 17ZM14 18C14.5523 18 15 17.5523 15 17C15 16.4477 14.5523 16 14 16C13.4477 16 13 16.4477 13 17C13 17.5523 13.4477 18 14 18Z" fill="#22282F"/>
</svg>
