<svg width="24" height="24" viewBox="0 0 24 24" fill="none" xmlns="http://www.w3.org/2000/svg">
<path fill-rule="evenodd" clip-rule="evenodd" d="M1.46967 1.46967C1.76256 1.17678 2.23744 1.17678 2.53033 1.46967L8.76039 7.69973L17.9164 16.8557L22.5303 21.4697C22.8232 21.7626 22.8232 22.2374 22.5303 22.5303C22.2374 22.8232 21.7626 22.8232 21.4697 22.5303L18.6926 19.7533L18.7314 19.9241C18.7959 20.2085 18.6899 20.5044 18.4594 20.683C18.2289 20.8616 17.9158 20.8904 17.6566 20.7569L12 17.8436L6.3434 20.7569C6.08419 20.8904 5.7711 20.8616 5.54062 20.683C5.31014 20.5044 5.20406 20.2085 5.26861 19.9241L6.67676 13.7218L2.47066 9.53132C2.26964 9.33105 2.19886 9.03448 2.28776 8.76501C2.37667 8.49554 2.61004 8.29932 2.89077 8.258L6.64471 7.70537L1.46967 2.53033C1.17678 2.23744 1.17678 1.76256 1.46967 1.46967ZM7.96631 9.02697L4.58879 9.52419L8.02934 12.952C8.21222 13.1342 8.28854 13.3976 8.23139 13.6493L7.08782 18.6863L11.6566 16.3332C11.8721 16.2223 12.1279 16.2223 12.3434 16.3332L16.9122 18.6863L16.7026 17.7633L7.96631 9.02697ZM12 1.25C12.2862 1.25 12.5474 1.41283 12.6734 1.66974L15.4996 7.43218L21.1092 8.258C21.39 8.29932 21.6233 8.49554 21.7122 8.76501C21.8011 9.03448 21.7304 9.33105 21.5293 9.53132L17.5293 13.5165C17.2359 13.8088 16.761 13.8079 16.4687 13.5145C16.1763 13.221 16.1772 12.7462 16.4707 12.4538L19.4112 9.52419L14.8908 8.85872C14.6464 8.82275 14.4354 8.66875 14.3266 8.44698L12 3.7032L10.7115 6.33026C10.5291 6.70215 10.0798 6.85577 9.7079 6.67337C9.33601 6.49097 9.1824 6.04163 9.3648 5.66974L11.3266 1.66974C11.4526 1.41283 11.7139 1.25 12 1.25Z" fill="#22282F"/>
</svg>
