<svg width="24" height="24" viewBox="0 0 24 24" fill="none" xmlns="http://www.w3.org/2000/svg">
<path fill-rule="evenodd" clip-rule="evenodd" d="M11.6439 2.25641C11.852 2.24892 12.0539 2.32832 12.2012 2.47559L21.5244 11.7989C21.6717 11.9461 21.7511 12.148 21.7436 12.3561C21.5559 17.5762 17.2656 21.75 12 21.75C6.61522 21.75 2.25 17.3848 2.25 12C2.25 6.73446 6.4238 2.44408 11.6439 2.25641ZM10.5443 3.87797C6.68242 4.56539 3.75 7.94038 3.75 12C3.75 16.5564 7.44365 20.25 12 20.25C16.0596 20.25 19.4346 17.3176 20.122 13.4557C19.4471 13.6475 18.7351 13.75 18 13.75C13.7198 13.75 10.25 10.2802 10.25 6.00001C10.25 5.26486 10.3526 4.55286 10.5443 3.87797ZM11.9666 4.36232C11.8254 4.88381 11.75 5.43274 11.75 6.00001C11.75 9.45179 14.5482 12.25 18 12.25C18.5673 12.25 19.1162 12.1746 19.6377 12.0334L11.9666 4.36232Z" fill="#22282F"/>
</svg>
