<svg width="24" height="24" viewBox="0 0 24 24" fill="none" xmlns="http://www.w3.org/2000/svg">
<path fill-rule="evenodd" clip-rule="evenodd" d="M7 2.25H6.948C6.04952 2.24997 5.3003 2.24995 4.70552 2.32991C4.07773 2.41432 3.51093 2.59999 3.05546 3.05546C2.59999 3.51093 2.41432 4.07773 2.32991 4.70552C2.24995 5.3003 2.24997 6.04952 2.25 6.948V7V17V17.052C2.24997 17.9505 2.24995 18.6997 2.32991 19.2945C2.41432 19.9223 2.59999 20.4891 3.05546 20.9445C3.51093 21.4 4.07773 21.5857 4.70552 21.6701C5.3003 21.7501 6.04952 21.75 6.94801 21.75H6.99829H7H7.052H17L17.052 21.75H17.0521H17.0522H17.0522C17.9506 21.75 18.6997 21.7501 19.2945 21.6701C19.9223 21.5857 20.4891 21.4 20.9445 20.9445C21.4 20.4891 21.5857 19.9223 21.6701 19.2945C21.7501 18.6997 21.75 17.9506 21.75 17.0522V17.0522V17.0521V17.052L21.75 17L21.75 16.948V16.9479V16.9478V16.9478C21.75 16.0494 21.7501 15.3003 21.6701 14.7055C21.5857 14.0777 21.4 13.5109 20.9445 13.0555C20.4891 12.6 19.9223 12.4143 19.2945 12.3299C19.134 12.3083 18.9624 12.2926 18.7796 12.2811L19.2801 11.7806L19.3146 11.746L19.3147 11.746C19.9139 11.1468 20.4137 10.6471 20.7616 10.1977C21.128 9.72435 21.3926 9.22535 21.4189 8.61957C21.4224 8.5399 21.4224 8.46011 21.4189 8.38044C21.3925 7.77466 21.1279 7.27567 20.7615 6.80236C20.4135 6.35298 19.9137 5.85328 19.3145 5.25412L19.2799 5.21953L19.2453 5.18493C18.6461 4.58579 18.1464 4.08609 17.697 3.73822C17.2237 3.37183 16.7247 3.10732 16.119 3.08098C16.0393 3.07752 15.9595 3.07752 15.8798 3.08099C15.2741 3.10737 14.7751 3.37192 14.3019 3.73836C13.8525 4.08625 13.3528 4.58599 12.7537 5.18518L12.7537 5.18519L12.7191 5.21978L11.748 6.19096C11.7431 5.62035 11.7264 5.1246 11.6701 4.70552C11.5857 4.07773 11.4 3.51093 10.9445 3.05546C10.4891 2.59999 9.92227 2.41432 9.29448 2.32991C8.6997 2.24995 7.95048 2.24997 7.052 2.25H7ZM10.25 8.00005C10.25 7.99978 10.25 7.99951 10.25 7.99924V7C10.25 6.03599 10.2484 5.38843 10.1835 4.90539C10.1214 4.44393 10.0142 4.24643 9.88388 4.11612C9.75357 3.9858 9.55607 3.87858 9.09461 3.81654C8.61157 3.75159 7.96401 3.75 7 3.75C6.03599 3.75 5.38843 3.75159 4.90539 3.81654C4.44393 3.87858 4.24643 3.9858 4.11612 4.11612C3.9858 4.24643 3.87858 4.44393 3.81654 4.90539C3.75159 5.38843 3.75 6.03599 3.75 7V17C3.75 17.964 3.75159 18.6116 3.81654 19.0946C3.87858 19.5561 3.9858 19.7536 4.11612 19.8839C4.24643 20.0142 4.44393 20.1214 4.90539 20.1835C5.38843 20.2484 6.03599 20.25 7 20.25C7.96401 20.25 8.61157 20.2484 9.09461 20.1835C9.55607 20.1214 9.75357 20.0142 9.88388 19.8839C10.0142 19.7536 10.1214 19.5561 10.1835 19.0946C10.2484 18.6116 10.25 17.964 10.25 17V8.00005ZM11.75 8.31029L13.7798 6.28042C14.4225 5.63766 14.8552 5.20697 15.2201 4.92443C15.5698 4.65374 15.7737 4.58704 15.9451 4.57957C15.9813 4.57799 16.0176 4.57799 16.0538 4.57957C16.2252 4.58702 16.4292 4.65371 16.7788 4.92437C17.1438 5.20688 17.5765 5.63754 18.2193 6.28024C18.8621 6.923 19.2928 7.3557 19.5754 7.72067C19.8461 8.07031 19.9128 8.27426 19.9203 8.44569C19.9219 8.48191 19.9219 8.51818 19.9203 8.55439C19.9129 8.72583 19.8462 8.92978 19.5755 9.27944C19.2929 9.64442 18.8622 10.0771 18.2194 10.7199L11.75 17.1893C11.75 17.144 11.75 17.0982 11.75 17.052V17.052L11.75 17V8.31029ZM11.6538 19.4069C11.6071 19.7045 11.5349 19.9874 11.4183 20.25H17C17.964 20.25 18.6116 20.2484 19.0946 20.1835C19.5561 20.1214 19.7536 20.0142 19.8839 19.8839C20.0142 19.7536 20.1214 19.5561 20.1835 19.0946C20.2484 18.6116 20.25 17.964 20.25 17C20.25 16.036 20.2484 15.3884 20.1835 14.9054C20.1214 14.4439 20.0142 14.2464 19.8839 14.1161C19.7536 13.9858 19.5561 13.8786 19.0946 13.8165C18.6654 13.7588 18.1062 13.7511 17.3105 13.7501L11.6538 19.4069ZM8 17C8 17.5523 7.55229 18 7 18C6.44772 18 6 17.5523 6 17C6 16.4477 6.44772 16 7 16C7.55229 16 8 16.4477 8 17Z" fill="#22282F"/>
</svg>
