<svg width="24" height="24" viewBox="0 0 24 24" fill="none" xmlns="http://www.w3.org/2000/svg">
<path fill-rule="evenodd" clip-rule="evenodd" d="M5.13162 4.57507C5.25794 4.40741 5.4071 4.25825 5.57476 4.13194C5.82426 3.94396 6.16258 3.81805 6.77526 3.74988C7.40269 3.68008 8.22115 3.67899 9.39499 3.67899C10.7869 3.67899 11.3133 3.688 11.7882 3.84689C11.9318 3.89493 12.0719 3.95295 12.2074 4.02052C12.6556 4.244 13.0341 4.60983 14.0184 5.59405L17.5405 9.11617C18.5555 10.1312 19.2622 10.8402 19.7245 11.4461C20.1736 12.0347 20.3208 12.4371 20.3208 12.8285C20.3208 13.2199 20.1736 13.6222 19.7245 14.2109C19.2622 14.8168 18.5555 15.5258 17.5405 16.5408C16.5255 17.5558 15.8165 18.2626 15.2105 18.7249C14.6219 19.174 14.2196 19.3211 13.8282 19.3211C13.4368 19.3211 13.0344 19.174 12.4458 18.7249C11.8399 18.2626 11.1309 17.5558 10.1159 16.5408L6.59373 13.0187C5.60951 12.0344 5.24369 11.6559 5.02021 11.2077C4.95263 11.0722 4.89462 10.9321 4.84658 10.7885C4.68769 10.3136 4.67868 9.78721 4.67868 8.39531C4.67868 7.22146 4.67976 6.403 4.74957 5.77558C4.81773 5.1629 4.94365 4.82457 5.13162 4.57507ZM4.67214 2.9339C4.39271 3.14443 4.14411 3.39303 3.93359 3.67246C3.51763 4.22455 3.34158 4.86535 3.25877 5.60971C3.17865 6.32981 3.17866 7.23194 3.17868 8.35076L3.17868 8.39531L3.17866 8.52355C3.17837 9.74258 3.17818 10.5294 3.42407 11.2644C3.49428 11.4743 3.57908 11.679 3.67783 11.8771C4.02368 12.5706 4.58019 13.1269 5.44238 13.9887L5.53307 14.0793L9.0552 17.6015L9.094 17.6403C10.061 18.6073 10.8405 19.3868 11.5359 19.9174C12.258 20.4683 12.9769 20.8211 13.8282 20.8211C14.6794 20.8211 15.3984 20.4683 16.1204 19.9174C16.8159 19.3868 17.5953 18.6073 18.5623 17.6403L18.5623 17.6403L18.6011 17.6015L18.6399 17.5627L18.64 17.5626C19.607 16.5956 20.3865 15.8162 20.9171 15.1207C21.468 14.3987 21.8208 13.6797 21.8208 12.8285C21.8208 11.9772 21.468 11.2583 20.9171 10.5362C20.3865 9.84079 19.607 9.06135 18.64 8.09434L18.6399 8.09431L18.6011 8.05551L15.079 4.53339L14.9883 4.44269C14.1266 3.5805 13.5703 3.024 12.8767 2.67815C12.6787 2.57939 12.474 2.4946 12.2641 2.42438C11.5291 2.1785 10.7423 2.17868 9.52323 2.17897L9.39499 2.17899H9.35048C8.23164 2.17898 7.3295 2.17896 6.6094 2.25908C5.86503 2.3419 5.22424 2.51795 4.67214 2.9339ZM9.04248 9.29327C9.04248 8.60292 9.60212 8.04327 10.2925 8.04327C10.9828 8.04327 11.5425 8.60292 11.5425 9.29327C11.5425 9.98363 10.9828 10.5433 10.2925 10.5433C9.60212 10.5433 9.04248 9.98363 9.04248 9.29327ZM10.2925 6.54327C8.7737 6.54327 7.54248 7.77449 7.54248 9.29327C7.54248 10.8121 8.7737 12.0433 10.2925 12.0433C11.8113 12.0433 13.0425 10.8121 13.0425 9.29327C13.0425 7.77449 11.8113 6.54327 10.2925 6.54327Z" fill="#22282F"/>
</svg>
