<svg width="24" height="24" viewBox="0 0 24 24" fill="none" xmlns="http://www.w3.org/2000/svg">
<path fill-rule="evenodd" clip-rule="evenodd" d="M3.01411 12.3134C2.98488 12.1056 2.98488 11.8946 3.01411 11.6868C3.05762 11.3774 3.20782 11.0491 3.59285 10.5677C3.98714 10.0747 4.56511 9.49519 5.39515 8.66515C6.37937 7.68093 6.75794 7.31511 7.20612 7.09162C7.34163 7.02405 7.4817 6.96604 7.6253 6.918C8.10025 6.75911 8.62661 6.75009 10.0185 6.75009L14.9995 6.75009C16.435 6.75009 17.4361 6.75169 18.1914 6.85324C18.9252 6.95189 19.3138 7.13234 19.5905 7.4091C19.8673 7.68587 20.0477 8.07444 20.1464 8.80821C20.248 9.56356 20.2495 10.5647 20.2495 12.0001C20.2495 13.4355 20.248 14.4366 20.1464 15.192C20.0477 15.9257 19.8673 16.3143 19.5905 16.5911C19.3138 16.8678 18.9252 17.0483 18.1914 17.1469C17.4361 17.2485 16.435 17.2501 14.9995 17.2501L10.0185 17.2501C8.62661 17.2501 8.10025 17.2411 7.6253 17.0822C7.4817 17.0342 7.34164 16.9761 7.20612 16.9086C6.75794 16.6851 6.37937 16.3193 5.39515 15.335C4.56511 14.505 3.98714 13.9255 3.59285 13.4325C3.20782 12.951 3.05762 12.6228 3.01411 12.3134ZM1.52873 11.4779C1.48001 11.8243 1.48001 12.1759 1.52873 12.5223C1.625 13.2068 1.95362 13.7844 2.42141 14.3694C2.87394 14.9352 3.51185 15.5731 4.30299 16.3642L4.33449 16.3957L4.42516 16.4864C5.28694 17.3486 5.84318 17.9051 6.53677 18.2509C6.73482 18.3497 6.93953 18.4345 7.14941 18.5047C7.8844 18.7506 8.67123 18.7504 9.89026 18.7501L10.0185 18.7501L14.9995 18.7501L15.0544 18.7501C16.422 18.7501 17.5243 18.7501 18.3913 18.6336C19.2914 18.5126 20.0493 18.2537 20.6512 17.6517C21.2531 17.0498 21.512 16.292 21.633 15.3918C21.7496 14.5249 21.7496 13.4226 21.7495 12.055V12.0001V11.9452C21.7496 10.5776 21.7496 9.47531 21.633 8.60834C21.512 7.70823 21.2531 6.95036 20.6512 6.34844C20.0493 5.74653 19.2914 5.48763 18.3913 5.36662C17.5243 5.25006 16.422 5.25007 15.0544 5.25009L15.0544 5.25009L14.9995 5.25009L10.0185 5.25009L9.89026 5.25007C8.67123 5.24979 7.8844 5.2496 7.14941 5.49549C6.93953 5.5657 6.73482 5.6505 6.53677 5.74925C5.84318 6.0951 5.28693 6.65161 4.42515 7.5138L4.33449 7.60449L4.30301 7.63597C3.51186 8.4271 2.87394 9.065 2.42141 9.63084C1.95362 10.2157 1.625 10.7933 1.52873 11.4779ZM8.74955 12C8.74955 11.3097 9.30919 10.75 9.99955 10.75C10.6899 10.75 11.2495 11.3097 11.2495 12C11.2495 12.6904 10.6899 13.25 9.99955 13.25C9.30919 13.25 8.74955 12.6904 8.74955 12ZM9.99955 9.25003C8.48076 9.25003 7.24955 10.4813 7.24955 12C7.24955 13.5188 8.48076 14.75 9.99955 14.75C11.5183 14.75 12.7495 13.5188 12.7495 12C12.7495 10.4813 11.5183 9.25003 9.99955 9.25003Z" fill="#22282F"/>
</svg>
