<svg width="24" height="24" viewBox="0 0 24 24" fill="none" xmlns="http://www.w3.org/2000/svg">
<path fill-rule="evenodd" clip-rule="evenodd" d="M8.25003 3C8.25003 2.58579 8.58582 2.25 9.00003 2.25L11 2.25L11.0581 2.25C13.8373 2.24999 15.9998 2.24998 17.6836 2.47636C19.4007 2.70721 20.7317 3.18577 21.773 4.22703C22.8143 5.26829 23.2928 6.59938 23.5237 8.31643C23.7501 10.0002 23.75 12.1627 23.75 14.942V15H22.25C22.25 12.1504 22.2484 10.0886 22.0371 8.5163C21.8286 6.96559 21.4284 6.00379 20.7123 5.28769C19.9962 4.57159 19.0344 4.17147 17.4837 3.96298C15.9114 3.75159 13.8497 3.75 11 3.75L9.00003 3.75C8.58582 3.75 8.25003 3.41421 8.25003 3ZM2.01509 11.6868C1.98586 11.8947 1.98586 12.1056 2.01509 12.3135C2.05859 12.6228 2.20879 12.9511 2.59382 13.4325C2.98812 13.9255 3.56609 14.505 4.39612 15.3351C5.38035 16.3193 5.75891 16.6851 6.2071 16.9086C6.34261 16.9762 6.48268 17.0342 6.62628 17.0822C7.10122 17.2411 7.62758 17.2501 9.01949 17.2501L14.0005 17.2501C15.4359 17.2501 16.4371 17.2485 17.1924 17.147C17.9262 17.0483 18.3148 16.8679 18.5915 16.5911C18.8683 16.3143 19.0487 15.9258 19.1474 15.192C19.2489 14.4366 19.2505 13.4355 19.2505 12.0001C19.2505 10.5647 19.2489 9.56359 19.1474 8.80824C19.0487 8.07447 18.8683 7.68589 18.5915 7.40913C18.3148 7.13237 17.9262 6.95192 17.1924 6.85327C16.4371 6.75171 15.4359 6.75012 14.0005 6.75012H9.01949C7.62758 6.75012 7.10122 6.75913 6.62628 6.91802C6.48268 6.96606 6.34261 7.02408 6.2071 7.09165C5.75891 7.31513 5.38035 7.68096 4.39612 8.66518C3.56609 9.49521 2.98812 10.0747 2.59382 10.5677C2.20879 11.0492 2.05859 11.3774 2.01509 11.6868ZM0.529707 12.5224C0.480983 12.1759 0.480983 11.8243 0.529707 11.4779C0.625972 10.7934 0.954596 10.2158 1.42238 9.63087C1.87492 9.06503 2.51284 8.42713 3.30399 7.636L3.33546 7.60452L3.42613 7.51383C4.28791 6.65164 4.84415 6.09513 5.53774 5.74928C5.7358 5.65052 5.94051 5.56573 6.15039 5.49551C6.88538 5.24963 7.67221 5.24981 8.89124 5.2501L9.01949 5.25012L14.0005 5.25012H14.0554H14.0554C15.423 5.2501 16.5253 5.25008 17.3923 5.36664C18.2924 5.48766 19.0503 5.74655 19.6522 6.34847C20.2541 6.95039 20.513 7.70826 20.634 8.60837C20.7506 9.47534 20.7505 10.5777 20.7505 11.9453V12.0001V12.055C20.7505 13.4226 20.7506 14.5249 20.634 15.3919C20.513 16.292 20.2541 17.0499 19.6522 17.6518C19.0503 18.2537 18.2924 18.5126 17.3923 18.6336C16.5253 18.7502 15.423 18.7501 14.0554 18.7501H14.0005H9.01949L8.89124 18.7501H8.89123C7.6722 18.7504 6.88538 18.7506 6.15039 18.5047C5.94051 18.4345 5.7358 18.3497 5.53774 18.251C4.84416 17.9051 4.28791 17.3486 3.42613 16.4864L3.33546 16.3957L3.30396 16.3642C2.51282 15.5731 1.87492 14.9352 1.42238 14.3694C0.954596 13.7845 0.625972 13.2069 0.529707 12.5224ZM7.75011 12C7.75011 11.3097 8.30975 10.75 9.00011 10.75C9.69046 10.75 10.2501 11.3097 10.2501 12C10.2501 12.6904 9.69046 13.25 9.00011 13.25C8.30975 13.25 7.75011 12.6904 7.75011 12ZM9.00011 9.25001C7.48132 9.25001 6.25011 10.4812 6.25011 12C6.25011 13.5188 7.48132 14.75 9.00011 14.75C10.5189 14.75 11.7501 13.5188 11.7501 12C11.7501 10.4812 10.5189 9.25001 9.00011 9.25001Z" fill="#22282F"/>
</svg>
