<svg width="24" height="24" viewBox="0 0 24 24" fill="none" xmlns="http://www.w3.org/2000/svg">
<path fill-rule="evenodd" clip-rule="evenodd" d="M13.7619 2.27723C14.0548 1.98433 14.5297 1.98433 14.8226 2.27723L16.9291 4.38378L16.963 4.41771L16.9631 4.41773L16.9631 4.4178C18.6 6.05467 19.8739 7.32851 20.7658 8.44814C21.6734 9.58751 22.2457 10.6385 22.4011 11.8443C22.4749 12.4171 22.4749 12.997 22.4011 13.5698C22.2457 14.7756 21.6734 15.8266 20.7658 16.966C19.8738 18.0856 18.6 19.3595 16.963 20.9964L16.9291 21.0303L16.2368 21.7227C15.9439 22.0156 15.469 22.0156 15.1761 21.7227C14.8832 21.4298 14.8832 20.9549 15.1761 20.662L15.8684 19.9697C17.5465 18.2916 18.7596 17.0769 19.5926 16.0313C20.4159 14.9978 20.8073 14.2014 20.9134 13.3781C20.9708 12.9326 20.9708 12.4815 20.9134 12.036C20.8073 11.2127 20.4159 10.4163 19.5926 9.38278C18.7596 8.33723 17.5465 7.12248 15.8685 5.44444L13.7619 3.33789C13.469 3.04499 13.469 2.57012 13.7619 2.27723ZM3.57488 4.13199C3.40722 4.25831 3.25806 4.40747 3.13175 4.57513C2.94377 4.82463 2.81786 5.16295 2.74969 5.77563C2.67989 6.40306 2.6788 7.22152 2.6788 8.39536C2.6788 9.78727 2.68781 10.3136 2.8467 10.7886C2.89474 10.9322 2.95276 11.0722 3.02033 11.2077C3.24381 11.6559 3.60964 12.0345 4.59386 13.0187L8.11598 16.5409C9.13098 17.5558 9.84 18.2626 10.4459 18.7249C11.0345 19.174 11.4369 19.3212 11.8283 19.3212C12.2197 19.3212 12.6221 19.174 13.2107 18.7249C13.8166 18.2626 14.5256 17.5558 15.5406 16.5409C16.5556 15.5259 17.2624 14.8168 17.7247 14.2109C18.1738 13.6223 18.3209 13.2199 18.3209 12.8285C18.3209 12.4371 18.1738 12.0348 17.7247 11.4462C17.2624 10.8402 16.5556 10.1312 15.5406 9.11623L12.0185 5.59411C11.0343 4.60988 10.6557 4.24406 10.2075 4.02058C10.072 3.95301 9.93192 3.89499 9.78833 3.84695C9.31338 3.68806 8.78702 3.67905 7.39512 3.67905C6.22127 3.67905 5.40281 3.68013 4.77539 3.74994C4.16271 3.8181 3.82438 3.94402 3.57488 4.13199ZM1.93371 3.67251C2.14424 3.39308 2.39283 3.14448 2.67227 2.93396C3.22436 2.518 3.86515 2.34195 4.60952 2.25914C5.32962 2.17902 6.23176 2.17903 7.35061 2.17905H7.39512L7.52335 2.17903C8.74239 2.17874 9.52922 2.17855 10.2642 2.42444C10.4741 2.49465 10.6788 2.57945 10.8769 2.67821C11.5704 3.02405 12.1267 3.58055 12.9885 4.44273L12.9885 4.44274L12.9885 4.44275L13.0791 4.53345L16.6013 8.05557L16.6401 8.09437L16.6401 8.09439C17.6071 9.0614 18.3866 9.84084 18.9172 10.5363C19.4681 11.2583 19.8209 11.9773 19.8209 12.8285C19.8209 13.6798 19.4681 14.3987 18.9172 15.1208C18.3866 15.8162 17.6072 16.5956 16.6402 17.5626L16.6401 17.5627L16.6401 17.5627L16.6013 17.6015L16.5625 17.6403C15.5954 18.6074 14.816 19.3868 14.1205 19.9174C13.3985 20.4683 12.6795 20.8212 11.8283 20.8212C10.9771 20.8212 10.2581 20.4683 9.53605 19.9174C8.84061 19.3868 8.06119 18.6074 7.09421 17.6404L7.09416 17.6403L7.09413 17.6403L7.05532 17.6015L3.5332 14.0794L3.4425 13.9887C2.58031 13.1269 2.02381 12.5707 1.67796 11.8771C1.5792 11.6791 1.49441 11.4743 1.42419 11.2645C1.17831 10.5295 1.17849 9.74264 1.17878 8.52361L1.1788 8.39536L1.1788 8.35082C1.17879 7.23199 1.17877 6.32986 1.25889 5.60977C1.34171 4.8654 1.51776 4.22461 1.93371 3.67251ZM6.70134 9.47004C6.21318 8.98189 6.21318 8.19043 6.70134 7.70228C7.18949 7.21412 7.98095 7.21412 8.46911 7.70228C8.95726 8.19043 8.95726 8.98189 8.46911 9.47004C7.98095 9.9582 7.18949 9.9582 6.70134 9.47004ZM5.64068 6.64162C4.56674 7.71556 4.56674 9.45676 5.64068 10.5307C6.71462 11.6046 8.45582 11.6046 9.52977 10.5307C10.6037 9.45676 10.6037 7.71556 9.52977 6.64162C8.45582 5.56767 6.71462 5.56767 5.64068 6.64162Z" fill="#22282F"/>
</svg>
