<svg width="24" height="24" viewBox="0 0 24 24" fill="none" xmlns="http://www.w3.org/2000/svg">
<path fill-rule="evenodd" clip-rule="evenodd" d="M9.94358 2.25L10 2.25L14 2.25L14.0564 2.25L14.0564 2.25C15.8942 2.24999 17.3498 2.24997 18.489 2.40314C19.6614 2.56077 20.6104 2.89288 21.3588 3.64125C22.1071 4.38961 22.4392 5.33856 22.5969 6.51098C22.75 7.6502 22.75 9.10583 22.75 10.9436L22.75 11L22.75 13L22.75 13.0564L22.75 13.0565C22.75 14.8942 22.75 16.3498 22.5969 17.489C22.4392 18.6614 22.1071 19.6104 21.3588 20.3588C20.6104 21.1071 19.6614 21.4392 18.489 21.5969C17.3498 21.75 15.8942 21.75 14.0565 21.75L14.0564 21.75L14 21.75L10 21.75L9.94359 21.75L9.94354 21.75C8.1058 21.75 6.65018 21.75 5.51098 21.5969C4.33855 21.4392 3.38961 21.1071 2.64124 20.3588C1.89288 19.6104 1.56076 18.6614 1.40313 17.489C1.24997 16.3498 1.24998 14.8942 1.25 13.0565L1.25 13.0564L1.25 13L1.25 11L1.25 10.9436L1.25 10.9436C1.24998 9.10581 1.24997 7.65019 1.40313 6.51098C1.56076 5.33856 1.89288 4.38961 2.64124 3.64125C3.38961 2.89288 4.33856 2.56077 5.51098 2.40314C6.65019 2.24997 8.10581 2.24999 9.94355 2.25L9.94358 2.25ZM5.71085 3.88976C4.70476 4.02503 4.12511 4.2787 3.7019 4.70191C3.27869 5.12512 3.02502 5.70476 2.88976 6.71085C2.75159 7.73852 2.75 9.09318 2.75 11L2.75 13C2.75 14.9068 2.75159 16.2615 2.88976 17.2892C3.02502 18.2952 3.27869 18.8749 3.7019 19.2981C4.12511 19.7213 4.70476 19.975 5.71085 20.1102C6.73851 20.2484 8.09318 20.25 10 20.25L14 20.25C15.9068 20.25 17.2615 20.2484 18.2892 20.1102C19.2952 19.975 19.8749 19.7213 20.2981 19.2981C20.7213 18.8749 20.975 18.2952 21.1102 17.2892C21.2484 16.2615 21.25 14.9068 21.25 13L21.25 11C21.25 9.09318 21.2484 7.73852 21.1102 6.71085C20.975 5.70476 20.7213 5.12512 20.2981 4.70191C19.8749 4.2787 19.2952 4.02503 18.2892 3.88976C17.2615 3.7516 15.9068 3.75 14 3.75L10 3.75C8.09318 3.75 6.73851 3.7516 5.71085 3.88976ZM6.46967 9.46967C6.76256 9.17678 7.23744 9.17678 7.53033 9.46967L10.5304 12.4697C10.671 12.6104 10.7501 12.8012 10.7501 13.0001C10.7501 13.199 10.671 13.3897 10.5304 13.5304L7.53026 16.5305C7.23737 16.8233 6.76249 16.8233 6.4696 16.5304C6.17671 16.2376 6.17672 15.7627 6.46961 15.4698L8.9394 13.0001L6.46967 10.5303C6.17678 10.2374 6.17678 9.76256 6.46967 9.46967ZM13 15.25C12.5858 15.25 12.25 15.5858 12.25 16C12.25 16.4142 12.5858 16.75 13 16.75L17 16.75C17.4142 16.75 17.75 16.4142 17.75 16C17.75 15.5858 17.4142 15.25 17 15.25L13 15.25Z" fill="#22282F"/>
</svg>
