<svg width="24" height="24" viewBox="0 0 24 24" fill="none" xmlns="http://www.w3.org/2000/svg">
<path fill-rule="evenodd" clip-rule="evenodd" d="M8.25 5C8.25 2.92893 9.92893 1.25 12 1.25C14.0711 1.25 15.75 2.92893 15.75 5V12.641C16.9735 13.6945 17.75 15.2567 17.75 17C17.75 20.1756 15.1756 22.75 12 22.75C8.82436 22.75 6.25 20.1756 6.25 17C6.25 15.2567 7.02651 13.6945 8.25 12.641V11V8V5ZM9.43333 13.6122C8.40912 14.3896 7.75 15.6177 7.75 17C7.75 19.3472 9.65279 21.25 12 21.25C14.3472 21.25 16.25 19.3472 16.25 17C16.25 15.6177 15.5909 14.3896 14.5667 13.6122C14.3751 13.4763 14.25 13.2528 14.25 13V5C14.25 3.75736 13.2426 2.75 12 2.75C11.0203 2.75 10.1869 3.37611 9.87803 4.25H10.5C10.9142 4.25 11.25 4.58579 11.25 5C11.25 5.41421 10.9142 5.75 10.5 5.75H9.75V7.25H10.5C10.9142 7.25 11.25 7.58579 11.25 8C11.25 8.41421 10.9142 8.75 10.5 8.75H9.75V10.25H10.5C10.9142 10.25 11.25 10.5858 11.25 11C11.25 11.4142 10.9142 11.75 10.5 11.75H9.75V13C9.75 13.2528 9.62495 13.4764 9.43333 13.6122Z" fill="#22282F"/>
</svg>
