<svg width="24" height="24" viewBox="0 0 24 24" fill="none" xmlns="http://www.w3.org/2000/svg">
<path fill-rule="evenodd" clip-rule="evenodd" d="M4.5 4.25L4.42673 4.24998C4.034 4.24978 3.73101 4.24963 3.4635 4.30284C2.3726 4.51983 1.51983 5.3726 1.30284 6.4635C1.24963 6.73101 1.24978 7.034 1.24998 7.42673L1.25 7.5V9.82353C1.25 10.3352 1.6648 10.75 2.17647 10.75H3C3.69036 10.75 4.25 11.3096 4.25 12C4.25 12.6904 3.69036 13.25 3 13.25H2.17647C1.66479 13.25 1.25 13.6648 1.25 14.1765V16.5L1.24998 16.5733C1.24978 16.966 1.24963 17.269 1.30284 17.5365C1.51983 18.6274 2.3726 19.4802 3.4635 19.6972C3.73101 19.7504 4.03399 19.7502 4.42671 19.75H4.42673L4.5 19.75L9 19.75L19.5 19.75L19.5733 19.75C19.966 19.7502 20.269 19.7504 20.5365 19.6972C21.6274 19.4802 22.4802 18.6274 22.6972 17.5365C22.7504 17.269 22.7502 16.966 22.75 16.5733L22.75 16.5V14.1765C22.75 13.6648 22.3352 13.25 21.8235 13.25H21C20.3096 13.25 19.75 12.6904 19.75 12C19.75 11.3096 20.3096 10.75 21 10.75H21.8235C22.3352 10.75 22.75 10.3352 22.75 9.82353V7.5L22.75 7.42671C22.7502 7.03399 22.7504 6.731 22.6972 6.4635C22.4802 5.3726 21.6274 4.51983 20.5365 4.30284C20.269 4.24963 19.966 4.24978 19.5733 4.24998L19.5 4.25H9H4.5ZM9.75 18.25V16C9.75 15.5858 9.41421 15.25 9 15.25C8.58579 15.25 8.25 15.5858 8.25 16V18.25H4.5C3.9994 18.25 3.85862 18.2464 3.75614 18.226C3.26027 18.1273 2.87265 17.7397 2.77402 17.2439C2.75363 17.1414 2.75 17.0006 2.75 16.5V14.75H3C4.51878 14.75 5.75 13.5188 5.75 12C5.75 10.4812 4.51878 9.25 3 9.25H2.75V7.5C2.75 6.9994 2.75363 6.85862 2.77402 6.75614C2.87265 6.26027 3.26027 5.87265 3.75614 5.77402C3.85862 5.75363 3.9994 5.75 4.5 5.75H8.25V8C8.25 8.41421 8.58579 8.75 9 8.75C9.41421 8.75 9.75 8.41421 9.75 8V5.75H19.5C20.0006 5.75 20.1414 5.75363 20.2439 5.77402C20.7397 5.87265 21.1273 6.26027 21.226 6.75614C21.2464 6.85862 21.25 6.9994 21.25 7.5V9.25H21C19.4812 9.25 18.25 10.4812 18.25 12C18.25 13.5188 19.4812 14.75 21 14.75H21.25V16.5C21.25 17.0006 21.2464 17.1414 21.226 17.2439C21.1273 17.7397 20.7397 18.1273 20.2439 18.226C20.1414 18.2464 20.0006 18.25 19.5 18.25H9.75ZM9.75 11C9.75 10.5858 9.41421 10.25 9 10.25C8.58579 10.25 8.25 10.5858 8.25 11V13C8.25 13.4142 8.58579 13.75 9 13.75C9.41421 13.75 9.75 13.4142 9.75 13V11Z" fill="#22282F"/>
</svg>
