<svg width="24" height="24" viewBox="0 0 24 24" fill="none" xmlns="http://www.w3.org/2000/svg">
<path fill-rule="evenodd" clip-rule="evenodd" d="M15 2.25H14.948C14.0495 2.24997 13.3003 2.24995 12.7055 2.32991C12.0778 2.41432 11.511 2.59999 11.0555 3.05546C10.6 3.51093 10.4143 4.07773 10.3299 4.70552C10.2717 5.13899 10.2559 5.65448 10.2516 6.25H6.26479L6.23048 6.25H6.23048H6.23047C5.70661 6.24998 5.26084 6.24997 4.89046 6.28597C4.49585 6.32432 4.1298 6.40747 3.77748 6.60695C3.42516 6.80643 3.16554 7.07753 2.92962 7.39618C2.70819 7.69525 2.47886 8.07751 2.20935 8.52672L2.20934 8.52673L2.19169 8.55615L0.926934 10.6641L0.885392 10.7332C0.642247 11.1379 0.450185 11.4575 0.349809 11.8199C0.249433 12.1823 0.249678 12.5552 0.24999 13.0273L0.250025 13.1079V15L0.250025 15.0253C0.250017 15.4697 0.250011 15.8408 0.270795 16.1454C0.29243 16.4625 0.339073 16.762 0.459356 17.0524C0.738465 17.7262 1.27382 18.2616 1.94765 18.5407C2.23803 18.661 2.53756 18.7076 2.85466 18.7292C2.97838 18.7377 3.11306 18.7427 3.25917 18.7457C3.38474 20.4258 4.78774 21.75 6.50002 21.75C8.21083 21.75 9.6129 20.4281 9.74055 18.75H13.2595C13.3872 20.4281 14.7892 21.75 16.5 21.75C18.2113 21.75 19.6137 20.4273 19.7407 18.7485C20.3401 18.7443 20.8588 18.7287 21.2945 18.6701C21.9223 18.5857 22.4891 18.4 22.9446 17.9445C23.4 17.4891 23.5857 16.9223 23.6701 16.2945C23.7501 15.6997 23.7501 14.9505 23.75 14.0521V14.0521V14.052V14.052L23.75 14V7L23.75 6.94801V6.94798V6.94794V6.94791C23.7501 6.04947 23.7501 5.30028 23.6701 4.70552C23.5857 4.07773 23.4 3.51093 22.9446 3.05546C22.4891 2.59999 21.9223 2.41432 21.2945 2.32991C20.6997 2.24995 19.9505 2.24997 19.052 2.25H19H15ZM10.25 8V7.75H6.26479C5.69734 7.75 5.32485 7.75082 5.03557 7.77893C4.76247 7.80548 4.62272 7.85213 4.51653 7.91225C4.41035 7.97237 4.29844 8.0682 4.13517 8.28873C3.96223 8.52232 3.76989 8.84131 3.47793 9.32789L2.32467 11.25H7.00002C7.96404 11.25 8.6116 11.2484 9.09463 11.1835C9.55609 11.1214 9.75359 11.0142 9.88391 10.8839C10.0142 10.7536 10.1214 10.5561 10.1835 10.0946C10.2484 9.61157 10.25 8.96401 10.25 8ZM11.75 8L11.75 8.052V8.05203C11.7501 8.95049 11.7501 9.69971 11.6701 10.2945C11.5857 10.9223 11.4 11.4891 10.9446 11.9445C10.4891 12.4 9.9223 12.5857 9.2945 12.6701C8.69972 12.7501 7.9505 12.75 7.05202 12.75L7.00002 12.75H1.7515C1.75039 12.8479 1.75003 12.9652 1.75003 13.1079V15C1.75003 15.4762 1.75043 15.7958 1.76732 16.0433C1.78374 16.284 1.81322 16.4012 1.84518 16.4784C1.97204 16.7846 2.21539 17.028 2.52167 17.1549C2.59882 17.1868 2.71604 17.2163 2.95677 17.2327C3.10553 17.2429 3.28036 17.2471 3.49961 17.2488C3.98969 16.075 5.14852 15.25 6.50002 15.25C7.852 15.25 9.01116 16.0755 9.50094 17.25H13.4991C13.9889 16.0755 15.148 15.25 16.5 15.25C17.8518 15.25 19.0108 16.0753 19.5007 17.2495C20.1966 17.2473 20.7004 17.2365 21.0946 17.1835C21.5561 17.1214 21.7536 17.0142 21.8839 16.8839C22.0142 16.7536 22.1214 16.5561 22.1835 16.0946C22.2484 15.6116 22.25 14.964 22.25 14V7C22.25 6.03599 22.2484 5.38843 22.1835 4.90539C22.1214 4.44393 22.0142 4.24643 21.8839 4.11612C21.7536 3.9858 21.5561 3.87858 21.0946 3.81654C20.6116 3.75159 19.964 3.75 19 3.75H15C14.036 3.75 13.3885 3.75159 12.9054 3.81654C12.444 3.87858 12.2465 3.9858 12.1161 4.11612C11.9858 4.24643 11.8786 4.44393 11.8166 4.90539C11.7516 5.38843 11.75 6.03599 11.75 7V8ZM6.50002 16.75C5.53353 16.75 4.75002 17.5335 4.75002 18.5C4.75002 19.4665 5.53353 20.25 6.50002 20.25C7.46652 20.25 8.25002 19.4665 8.25002 18.5C8.25002 17.5335 7.46652 16.75 6.50002 16.75ZM16.5 16.75C15.5335 16.75 14.75 17.5335 14.75 18.5C14.75 19.4665 15.5335 20.25 16.5 20.25C17.4665 20.25 18.25 19.4665 18.25 18.5C18.25 17.5335 17.4665 16.75 16.5 16.75Z" fill="#22282F"/>
</svg>
