<svg width="24" height="24" viewBox="0 0 24 24" fill="none" xmlns="http://www.w3.org/2000/svg">
<path fill-rule="evenodd" clip-rule="evenodd" d="M9.07781 3.1887C6.37934 4.06922 4.82298 6.13526 3.91259 8.09106C3.52953 8.91399 3.29874 9.42009 3.21 9.8305C3.13699 10.1682 3.17039 10.3921 3.3488 10.672C3.50611 10.9187 3.70798 11.0612 4.15435 11.1483C4.65894 11.2467 5.35104 11.25 6.41985 11.25H7.25908C7.32106 8.73368 7.69638 6.424 8.36113 4.67151C8.56094 4.14473 8.79889 3.6405 9.07781 3.1887ZM11.9999 2.75C11.2652 2.75 10.437 3.42829 9.76362 5.20349C9.17935 6.74382 8.8215 8.86108 8.75955 11.25H11.9999H15.2417C15.184 8.64109 14.8239 6.51223 14.2393 5.02424C13.5843 3.35686 12.7689 2.75 11.9999 2.75ZM16.7421 11.25C16.6845 8.52458 16.3098 6.19214 15.6355 4.47576C15.4591 4.02672 15.2548 3.60407 15.0214 3.22183C17.6588 4.12019 19.1881 6.15939 20.0872 8.09106C20.4703 8.91399 20.7011 9.42009 20.7898 9.8305C20.8628 10.1682 20.8294 10.3921 20.651 10.672C20.4937 10.9187 20.2918 11.0612 19.8455 11.1483C19.3409 11.2467 18.6488 11.25 17.58 11.25H16.7421ZM15.9999 12.75H12.7499V20C12.7499 21.5188 11.5187 22.75 9.9999 22.75C8.48112 22.75 7.2499 21.5188 7.2499 20V19C7.2499 18.5858 7.58569 18.25 7.9999 18.25C8.41412 18.25 8.7499 18.5858 8.7499 19V20C8.7499 20.6904 9.30955 21.25 9.9999 21.25C10.6903 21.25 11.2499 20.6904 11.2499 20V12.75H7.9999H6.41985L6.34811 12.75C5.37167 12.7501 4.53173 12.7501 3.86719 12.6205C3.12821 12.4764 2.51629 12.1564 2.08398 11.4784C1.67277 10.8334 1.59567 10.199 1.74388 9.5135C1.87245 8.91889 2.17963 8.25923 2.52138 7.52533L2.52138 7.52533L2.5527 7.45806C3.89513 4.57409 6.63747 1.25 11.9999 1.25C17.3623 1.25 20.1047 4.57409 21.4471 7.45806L21.4784 7.52531L21.4784 7.52534C21.8202 8.25923 22.1274 8.91889 22.2559 9.5135C22.4041 10.199 22.327 10.8334 21.9158 11.4784C21.4835 12.1564 20.8716 12.4764 20.1326 12.6205C19.4681 12.7501 18.6281 12.7501 17.6517 12.75L17.58 12.75H15.9999Z" fill="#22282F"/>
</svg>
