<svg width="24" height="24" viewBox="0 0 24 24" fill="none" xmlns="http://www.w3.org/2000/svg">
<path fill-rule="evenodd" clip-rule="evenodd" d="M11.9595 1.24999L12 1.24999L12.0405 1.24999C12.6956 1.24997 13.2477 1.24995 13.6984 1.2997C14.1759 1.3524 14.6155 1.46715 15.0153 1.74698C15.0938 1.80193 15.1694 1.86095 15.2417 1.92379C15.6102 2.24381 15.8281 2.64242 15.9951 3.09284C16.1526 3.51803 16.2865 4.05366 16.4454 4.68917L16.4454 4.68921L16.4454 4.68923L16.4552 4.72852L16.7276 5.81809C16.7316 5.83425 16.7351 5.85042 16.7381 5.86658C18.5703 7.28404 19.75 9.50426 19.75 12C19.75 14.4958 18.5703 16.716 16.7381 18.1334C16.7351 18.1496 16.7316 18.1658 16.7276 18.1819L16.4552 19.2715L16.4454 19.3108C16.2865 19.9463 16.1526 20.4819 15.9951 20.9071C15.8281 21.3576 15.6102 21.7562 15.2417 22.0762C15.1694 22.139 15.0938 22.1981 15.0153 22.253C14.6155 22.5328 14.1759 22.6476 13.6984 22.7003C13.2477 22.75 12.6956 22.75 12.0405 22.75L12 22.75L11.9595 22.75C11.3044 22.75 10.7523 22.75 10.3016 22.7003C9.8241 22.6476 9.38453 22.5328 8.98471 22.253C8.90619 22.1981 8.83061 22.139 8.75825 22.0762C8.3898 21.7562 8.17187 21.3576 8.00494 20.9071C7.84736 20.4819 7.71347 19.9463 7.5546 19.3107L7.54479 19.2715L7.27239 18.1819C7.26836 18.1658 7.26488 18.1496 7.26194 18.1335C5.42972 16.716 4.25 14.4958 4.25 12C4.25 9.50426 5.42972 7.28404 7.26193 5.86658C7.26487 5.85042 7.26835 5.83425 7.27239 5.81809L7.54479 4.72851L7.5546 4.68924L7.55461 4.68923C7.71347 4.05369 7.84736 3.51805 8.00494 3.09284C8.17187 2.64242 8.3898 2.24381 8.75825 1.92379C8.83061 1.86095 8.90619 1.80193 8.98471 1.74698C9.38453 1.46715 9.8241 1.3524 10.3016 1.2997C10.7523 1.24995 11.3044 1.24997 11.9595 1.24999ZM9.06721 19.1759C9.20286 19.7149 9.30318 20.0937 9.41146 20.3859C9.53077 20.7078 9.63441 20.8504 9.74187 20.9437C9.77476 20.9723 9.80912 20.9991 9.8448 21.0241C9.96142 21.1057 10.1249 21.1717 10.4661 21.2093C10.8249 21.2489 11.2937 21.25 12 21.25C12.7063 21.25 13.1751 21.2489 13.5339 21.2093C13.8751 21.1717 14.0386 21.1057 14.1552 21.0241C14.1909 20.9991 14.2252 20.9723 14.2581 20.9437C14.3656 20.8504 14.4692 20.7078 14.5885 20.3859C14.6968 20.0937 14.7971 19.7149 14.9328 19.1759C14.0281 19.546 13.0379 19.75 12 19.75C10.9621 19.75 9.97188 19.546 9.06721 19.1759ZM14.5885 3.6141C14.6968 3.90629 14.7971 4.28507 14.9328 4.82416C14.0281 4.45404 13.0379 4.25001 12 4.25001C10.9621 4.25001 9.97187 4.45404 9.0672 4.82416C9.20285 4.28507 9.30317 3.90629 9.41146 3.6141C9.53077 3.29217 9.63441 3.1496 9.74187 3.05626C9.77476 3.0277 9.80912 3.00087 9.8448 2.97589C9.96142 2.89428 10.1249 2.82831 10.4661 2.79064C10.8249 2.75105 11.2937 2.74999 12 2.74999C12.7063 2.74999 13.1751 2.75105 13.5339 2.79064C13.8751 2.82831 14.0386 2.89428 14.1552 2.97589C14.1909 3.00087 14.2252 3.0277 14.2581 3.05626C14.3656 3.1496 14.4692 3.29217 14.5885 3.6141ZM5.75 12C5.75 8.54823 8.54822 5.75001 12 5.75001C15.4518 5.75001 18.25 8.54823 18.25 12C18.25 15.4518 15.4518 18.25 12 18.25C8.54822 18.25 5.75 15.4518 5.75 12ZM12.75 10C12.75 9.5858 12.4142 9.25001 12 9.25001C11.5858 9.25001 11.25 9.5858 11.25 10L11.25 12C11.25 12.2508 11.3753 12.485 11.584 12.6241L13.084 13.6241C13.4286 13.8538 13.8943 13.7607 14.124 13.416C14.3538 13.0714 14.2607 12.6057 13.916 12.376L12.75 11.5986L12.75 10Z" fill="#22282F"/>
</svg>
