<svg width="24" height="24" viewBox="0 0 24 24" fill="none" xmlns="http://www.w3.org/2000/svg">
<path fill-rule="evenodd" clip-rule="evenodd" d="M11.8295 1.24999L11.8731 1.24999L12.1269 1.24999L12.1705 1.24999C12.872 1.24996 13.4635 1.24994 13.9446 1.30695C14.4555 1.3675 14.9228 1.49963 15.3388 1.81927C15.7549 2.13891 16.003 2.55639 16.1931 3.03442C16.3593 3.45218 16.5025 3.97449 16.6667 4.58928C17.0146 4.69981 17.3368 4.84864 17.639 5.05051C18.1576 5.39706 18.6029 5.84238 18.9495 6.36103C19.3826 7.00925 19.5716 7.75029 19.6619 8.63793C19.75 9.50429 19.75 10.5892 19.75 11.9584L19.75 12L19.75 12.0416C19.75 13.4108 19.75 14.4957 19.6619 15.362C19.5716 16.2497 19.3826 16.9907 18.9495 17.6389C18.6029 18.1576 18.1576 18.6029 17.639 18.9495C17.3368 19.1513 17.0146 19.3002 16.6667 19.4107C16.5025 20.0255 16.3593 20.5478 16.1931 20.9656C16.003 21.4436 15.7549 21.8611 15.3388 22.1807C14.9228 22.5003 14.4555 22.6325 13.9446 22.693C13.4635 22.75 12.872 22.75 12.1705 22.75L12.1269 22.75L11.8731 22.75L11.8295 22.75C11.128 22.75 10.5365 22.75 10.0554 22.693C9.54451 22.6325 9.0772 22.5003 8.66116 22.1807C8.24511 21.8611 7.99703 21.4436 7.8069 20.9656C7.64074 20.5478 7.49753 20.0255 7.33333 19.4107C6.98544 19.3002 6.66316 19.1513 6.36104 18.9495C5.84239 18.6029 5.39707 18.1576 5.05052 17.6389C4.61739 16.9907 4.42841 16.2497 4.33811 15.362C4.24998 14.4957 4.24999 13.4108 4.25 12.0416L4.25 12.0416L4.25 12L4.25 11.9584L4.25 11.9584C4.24999 10.5892 4.24998 9.50429 4.33811 8.63793C4.42841 7.75029 4.61739 7.00925 5.05052 6.36103C5.39707 5.84238 5.84239 5.39706 6.36104 5.05051C6.66316 4.84864 6.98544 4.69981 7.33333 4.58928C7.49753 3.97449 7.64074 3.45218 7.8069 3.03442C7.99703 2.55639 8.24511 2.13891 8.66116 1.81927C9.0772 1.49963 9.54451 1.3675 10.0554 1.30695C10.5365 1.24994 11.128 1.24996 11.8295 1.24999ZM8.96521 19.6904C9.0485 19.9817 9.12283 20.2154 9.20069 20.4112C9.33562 20.7504 9.45216 20.8968 9.57501 20.9912C9.69786 21.0856 9.86936 21.1605 10.2319 21.2034C10.6143 21.2488 11.1163 21.25 11.8731 21.25L12.1269 21.25C12.8837 21.25 13.3857 21.2488 13.7681 21.2034C14.1306 21.1605 14.3021 21.0856 14.425 20.9912C14.5478 20.8968 14.6644 20.7504 14.7993 20.4112C14.8772 20.2154 14.9515 19.9817 15.0348 19.6904C14.2265 19.75 13.2436 19.75 12.0416 19.75L12 19.75L11.9584 19.75C10.7564 19.75 9.77349 19.75 8.96521 19.6904ZM14.7993 3.58879C14.8772 3.78455 14.9515 4.0183 15.0348 4.3096C14.2265 4.24998 13.2436 4.24998 12.0416 4.24999L12.0416 4.24999L12 4.24999L11.9584 4.24999L11.9584 4.24999L11.9584 4.24999C10.7564 4.24998 9.77349 4.24998 8.96521 4.3096C9.0485 4.0183 9.12283 3.78455 9.20069 3.58879C9.33562 3.24955 9.45216 3.10313 9.57501 3.00875C9.69786 2.91437 9.86936 2.83949 10.2319 2.79653C10.6143 2.75121 11.1163 2.74999 11.8731 2.74999L12.1269 2.74999C12.8837 2.74999 13.3857 2.75121 13.7681 2.79653C14.1306 2.8395 14.3021 2.91437 14.425 3.00875C14.5478 3.10313 14.6644 3.24955 14.7993 3.58879ZM7.1944 6.29771C7.55507 6.05672 8.02071 5.90864 8.78975 5.8304C9.57133 5.7509 10.5799 5.74999 12 5.74999C13.4201 5.74999 14.4287 5.7509 15.2102 5.8304C15.9793 5.90864 16.4449 6.05672 16.8056 6.29771C17.1605 6.53483 17.4652 6.83952 17.7023 7.19439C17.9433 7.55506 18.0914 8.0207 18.1696 8.78974C18.2491 9.57132 18.25 10.5799 18.25 12C18.25 13.4201 18.2491 14.4287 18.1696 15.2102C18.0914 15.9793 17.9433 16.4449 17.7023 16.8056C17.4652 17.1605 17.1605 17.4652 16.8056 17.7023C16.4449 17.9433 15.9793 18.0913 15.2102 18.1696C14.4287 18.2491 13.4201 18.25 12 18.25C10.5799 18.25 9.57133 18.2491 8.78975 18.1696C8.02071 18.0913 7.55507 17.9433 7.1944 17.7023C6.83953 17.4652 6.53484 17.1605 6.29772 16.8056C6.05673 16.4449 5.90865 15.9793 5.83041 15.2102C5.75091 14.4287 5.75 13.4201 5.75 12C5.75 10.5799 5.75091 9.57132 5.83041 8.78974C5.90865 8.0207 6.05673 7.55506 6.29772 7.19439C6.53484 6.83952 6.83953 6.53483 7.1944 6.29771ZM12.75 9.99999C12.75 9.58578 12.4142 9.24999 12 9.24999C11.5858 9.24999 11.25 9.58578 11.25 9.99999L11.25 12C11.25 12.2508 11.3753 12.4849 11.584 12.624L13.084 13.624C13.4286 13.8538 13.8943 13.7607 14.124 13.416C14.3538 13.0714 14.2607 12.6057 13.916 12.376L12.75 11.5986L12.75 9.99999Z" fill="#22282F"/>
</svg>
