<svg width="24" height="24" viewBox="0 0 24 24" fill="none" xmlns="http://www.w3.org/2000/svg">
<path fill-rule="evenodd" clip-rule="evenodd" d="M9 2.25H8.94513C7.57754 2.24998 6.47522 2.24996 5.60825 2.36652C4.70814 2.48754 3.95027 2.74643 3.34835 3.34835C2.74643 3.95027 2.48754 4.70814 2.36652 5.60825C2.24996 6.47522 2.24998 7.57754 2.25 8.94513V9V15V15.0549C2.24998 16.4225 2.24996 17.5248 2.36652 18.3918C2.48754 19.2919 2.74643 20.0497 3.34835 20.6517C3.95027 21.2536 4.70814 21.5125 5.60825 21.6335C6.47522 21.75 7.57754 21.75 8.94513 21.75H9H15H15.0549C16.4225 21.75 17.5248 21.75 18.3918 21.6335C19.2919 21.5125 20.0497 21.2536 20.6517 20.6517C21.2536 20.0497 21.5125 19.2919 21.6335 18.3918C21.75 17.5248 21.75 16.4225 21.75 15.0549V15V9V8.94513C21.75 7.57754 21.75 6.47522 21.6335 5.60825C21.5125 4.70814 21.2536 3.95027 20.6517 3.34835C20.0497 2.74643 19.2919 2.48754 18.3918 2.36652C17.5248 2.24996 16.4225 2.24998 15.0549 2.25H15H9ZM4.40901 4.40901C4.68577 4.13225 5.07435 3.9518 5.80812 3.85315C6.56347 3.75159 7.56458 3.75 9 3.75H15C16.4354 3.75 17.4365 3.75159 18.1919 3.85315C18.9257 3.9518 19.3142 4.13225 19.591 4.40901C19.8678 4.68577 20.0482 5.07435 20.1469 5.80812C20.2484 6.56347 20.25 7.56458 20.25 9V15C20.25 16.4354 20.2484 17.4365 20.1469 18.1919C20.0482 18.9257 19.8678 19.3142 19.591 19.591C19.3142 19.8678 18.9257 20.0482 18.1919 20.1469C17.4365 20.2484 16.4354 20.25 15 20.25H9C7.56458 20.25 6.56347 20.2484 5.80812 20.1469C5.07435 20.0482 4.68577 19.8678 4.40901 19.591C4.13225 19.3142 3.9518 18.9257 3.85315 18.1919C3.75159 17.4365 3.75 16.4354 3.75 15V9C3.75 7.56458 3.75159 6.56347 3.85315 5.80812C3.9518 5.07435 4.13225 4.68577 4.40901 4.40901ZM10 16.25C9.58579 16.25 9.25 16.5858 9.25 17C9.25 17.4142 9.58579 17.75 10 17.75H14C14.4142 17.75 14.75 17.4142 14.75 17C14.75 16.5858 14.4142 16.25 14 16.25H10ZM12 7.75C10.3035 7.75 9.01008 8.21709 8.11146 8.71324C7.90208 8.82884 7.81585 8.87883 7.74387 8.93656C7.68775 8.98156 7.62114 9.04756 7.51695 9.2061C7.49265 9.24309 7.43402 9.36837 7.38085 9.55356C7.32768 9.73874 7.3109 9.87604 7.31188 9.92029C7.31812 10.2016 7.38377 10.3464 7.73183 10.9729C8.09958 11.6349 8.20638 11.8076 8.33777 11.9266C8.46423 12.0411 8.6128 12.1285 8.77431 12.1834C8.94213 12.2405 9.14496 12.25 9.9022 12.25H10.5986L9.37596 10.416C9.1462 10.0714 9.23933 9.60573 9.58397 9.37596C9.92862 9.1462 10.3943 9.23933 10.624 9.58397L12.4014 12.25H14.0978C14.855 12.25 15.0579 12.2405 15.2257 12.1834C15.3872 12.1285 15.5358 12.0411 15.6622 11.9266C15.7936 11.8076 15.9004 11.6349 16.2682 10.9729C16.6162 10.3464 16.6819 10.2016 16.6881 9.92029C16.6891 9.87604 16.6723 9.73874 16.6191 9.55356C16.566 9.36837 16.5074 9.24309 16.483 9.2061C16.3789 9.04756 16.3123 8.98156 16.2561 8.93656C16.1841 8.87883 16.0979 8.82884 15.8885 8.71324C14.9899 8.21709 13.6965 7.75 12 7.75ZM12.0116 13.75H14.0978L14.2038 13.7501H14.2038C14.8038 13.7505 15.2753 13.7509 15.7087 13.6035C16.064 13.4827 16.3909 13.2904 16.6691 13.0384C17.0084 12.7312 17.237 12.3188 17.528 11.7941L17.5794 11.7014L17.6147 11.638C17.9217 11.0863 18.1726 10.6354 18.1877 9.95353C18.1936 9.68913 18.1311 9.38409 18.0609 9.13958C17.9907 8.89507 17.8818 8.60333 17.7366 8.38233C17.5691 8.12747 17.402 7.93275 17.1945 7.76635C17.0115 7.6196 16.8142 7.51077 16.6383 7.41374L16.6136 7.40009C15.5249 6.79903 13.9843 6.25 12 6.25C10.0157 6.25 8.47509 6.79903 7.38645 7.40009L7.3617 7.41374L7.36169 7.41375L7.36169 7.41375C7.18577 7.51078 6.98846 7.6196 6.80546 7.76635C6.59796 7.93275 6.43088 8.12747 6.2634 8.38233C6.11817 8.60333 6.00932 8.89507 5.93911 9.13958C5.8689 9.38409 5.80639 9.68913 5.81225 9.95353C5.82737 10.6354 6.07832 11.0863 6.38534 11.638L6.42059 11.7014L6.47201 11.7941C6.76297 12.3188 6.99164 12.7312 7.33094 13.0384C7.60915 13.2904 7.93598 13.4827 8.29132 13.6035C8.72467 13.7509 9.19621 13.7505 9.7962 13.7501H9.79622L9.9022 13.75H11.9898C11.997 13.7501 12.0043 13.7501 12.0116 13.75Z" fill="#22282F"/>
</svg>
