<svg width="24" height="24" viewBox="0 0 24 24" fill="none" xmlns="http://www.w3.org/2000/svg">
<path fill-rule="evenodd" clip-rule="evenodd" d="M11.948 1.25H12H12.052C12.9505 1.24997 13.6997 1.24995 14.2945 1.32991C14.9223 1.41432 15.4891 1.59999 15.9445 2.05546C16.4 2.51093 16.5857 3.07773 16.6701 3.70552C16.7501 4.3003 16.75 5.04951 16.75 5.94798V5.94801L16.75 6V6.65029C19.1572 8.20922 20.75 10.9186 20.75 14C20.75 18.8325 16.8325 22.75 12 22.75C7.16751 22.75 3.25 18.8325 3.25 14C3.25 10.9186 4.84281 8.20922 7.25 6.65029V6L7.25 5.948C7.24997 5.04952 7.24994 4.3003 7.32991 3.70552C7.41432 3.07773 7.59999 2.51093 8.05546 2.05546C8.51093 1.59999 9.07773 1.41432 9.70552 1.32991C10.3003 1.24995 11.0495 1.24997 11.948 1.25ZM15.1835 3.90539C15.2455 4.36698 15.2497 4.97881 15.25 5.87345C14.2452 5.47125 13.1484 5.25 12 5.25C10.8516 5.25 9.7548 5.47125 8.75001 5.87345C8.75027 4.97881 8.75448 4.36698 8.81654 3.90539C8.87858 3.44393 8.9858 3.24643 9.11612 3.11612C9.24643 2.9858 9.44393 2.87858 9.90539 2.81654C10.3884 2.75159 11.036 2.75 12 2.75C12.964 2.75 13.6116 2.75159 14.0946 2.81654C14.5561 2.87858 14.7536 2.9858 14.8839 3.11612C15.0142 3.24643 15.1214 3.44393 15.1835 3.90539ZM12 6.75C7.99594 6.75 4.75 9.99594 4.75 14C4.75 18.0041 7.99594 21.25 12 21.25C16.0041 21.25 19.25 18.0041 19.25 14C19.25 9.99594 16.0041 6.75 12 6.75ZM8.75 14C8.75 13.5858 8.41421 13.25 8 13.25C7.58579 13.25 7.25 13.5858 7.25 14C7.25 16.6234 9.37665 18.75 12 18.75C12.4142 18.75 12.75 18.4142 12.75 18C12.75 17.5858 12.4142 17.25 12 17.25C10.2051 17.25 8.75 15.7949 8.75 14Z" fill="#22282F"/>
</svg>
