<svg width="24" height="24" viewBox="0 0 24 24" fill="none" xmlns="http://www.w3.org/2000/svg">
<path fill-rule="evenodd" clip-rule="evenodd" d="M11.1231 1.25H11.064C9.93522 1.24997 9.00608 1.24994 8.28763 1.35387C7.53721 1.46243 6.86587 1.70328 6.39402 2.30762C5.94611 2.88129 5.85955 3.5499 5.91752 4.26152C5.57784 4.27579 5.2917 4.3075 5.02943 4.37778C3.73533 4.72453 2.72453 5.73533 2.37778 7.02943C2.24952 7.50809 2.24971 8.06624 2.24997 8.8842L2.25 9V15V15.0549C2.24998 16.4225 2.24996 17.5248 2.36652 18.3918C2.48754 19.2919 2.74643 20.0497 3.34835 20.6516C3.95027 21.2536 4.70814 21.5125 5.60825 21.6335C6.47522 21.75 7.57754 21.75 8.94513 21.75H9H15H15.0549C16.4225 21.75 17.5248 21.75 18.3918 21.6335C19.2919 21.5125 20.0497 21.2536 20.6517 20.6516C21.2536 20.0497 21.5125 19.2919 21.6335 18.3918C21.75 17.5248 21.75 16.4225 21.75 15.0549V15V9L21.75 8.88422V8.88416V8.88415V8.88413C21.7503 8.06621 21.7505 7.50807 21.6222 7.02943C21.2755 5.73533 20.2647 4.72453 18.9706 4.37778C18.7083 4.30751 18.4222 4.27579 18.0825 4.26152C18.1405 3.5499 18.054 2.88129 17.606 2.30762C17.1342 1.70328 16.4629 1.46243 15.7124 1.35387C14.994 1.24994 14.0648 1.24997 12.9361 1.25H12.8769H11.1231ZM17.8252 5.75498C17.732 6.16454 17.6205 6.61068 17.4994 7.09465L17.4994 7.09468L17.4851 7.15205L17.4744 7.19487L17.4744 7.1949C17.3017 7.88594 17.1561 8.46827 16.9813 8.92711C16.7957 9.41426 16.5499 9.84043 16.1309 10.1676C15.7119 10.4947 15.2388 10.6299 14.7212 10.6917C14.2337 10.75 13.6334 10.75 12.9212 10.75H12.9211L12.8769 10.75H12.0168C12.006 10.7502 11.9952 10.7502 11.9844 10.75H11.1231L11.079 10.75H11.0789C10.3666 10.75 9.7664 10.75 9.27888 10.6917C8.76126 10.6299 8.28819 10.4947 7.8692 10.1676C7.45021 9.84043 7.20436 9.41426 7.01877 8.92711C6.84396 8.46826 6.6984 7.88592 6.52566 7.19487L6.51496 7.15205L6.50061 7.09468L6.5006 7.09463L6.50057 7.09451C6.37958 6.61059 6.26804 6.1645 6.1749 5.75498C5.78937 5.76258 5.58686 5.78133 5.41766 5.82667C4.6412 6.03472 4.03472 6.6412 3.82667 7.41766C3.75644 7.67974 3.75 8.02174 3.75 9V15C3.75 16.4354 3.75159 17.4365 3.85315 18.1919C3.9518 18.9257 4.13225 19.3142 4.40901 19.591C4.68577 19.8678 5.07434 20.0482 5.80812 20.1469C6.56347 20.2484 7.56458 20.25 9 20.25H15C16.4354 20.25 17.4365 20.2484 18.1919 20.1469C18.9257 20.0482 19.3142 19.8678 19.591 19.591C19.8678 19.3142 20.0482 18.9257 20.1469 18.1919C20.2484 17.4365 20.25 16.4354 20.25 15V9C20.25 8.02174 20.2436 7.67974 20.1733 7.41766C19.9653 6.6412 19.3588 6.03472 18.5823 5.82667C18.4131 5.78133 18.2106 5.76258 17.8252 5.75498ZM14.5431 9.20236C14.1693 9.24705 13.6825 9.24985 12.9606 9.24999L13.7276 6.1819C13.8281 5.78006 13.5837 5.37285 13.1819 5.27239C12.7801 5.17193 12.3729 5.41625 12.2724 5.8181L11.4144 9.25H11.1231C10.3549 9.25 9.84498 9.24875 9.45698 9.20236C9.08901 9.15836 8.91585 9.08171 8.79232 8.98526C8.66878 8.88881 8.55243 8.7394 8.42049 8.3931C8.28138 8.02793 8.15649 7.53352 7.97017 6.78824C7.67845 5.62138 7.48147 4.82574 7.42033 4.2243C7.36117 3.64242 7.44763 3.39557 7.57632 3.23074C7.70502 3.0659 7.92353 2.92216 8.50239 2.83842C9.1007 2.75187 9.92036 2.75 11.1231 2.75H12.8769C14.0797 2.75 14.8994 2.75187 15.4977 2.83842C16.0765 2.92216 16.295 3.0659 16.4237 3.23074C16.5524 3.39557 16.6389 3.64242 16.5797 4.2243C16.5186 4.82574 16.3216 5.62138 16.0299 6.78824C15.8436 7.53352 15.7187 8.02793 15.5796 8.3931C15.4476 8.7394 15.3313 8.88881 15.2077 8.98526C15.0842 9.08171 14.911 9.15836 14.5431 9.20236ZM10 16.25C9.58579 16.25 9.25 16.5858 9.25 17C9.25 17.4142 9.58579 17.75 10 17.75H14C14.4142 17.75 14.75 17.4142 14.75 17C14.75 16.5858 14.4142 16.25 14 16.25H10Z" fill="#22282F"/>
</svg>
