<svg width="24" height="24" viewBox="0 0 24 24" fill="none" xmlns="http://www.w3.org/2000/svg">
<path fill-rule="evenodd" clip-rule="evenodd" d="M3.53033 2.46967C3.23744 2.17678 2.76256 2.17678 2.46967 2.46967C2.17678 2.76256 2.17678 3.23744 2.46967 3.53033L5.63142 6.69208C3.92106 7.51198 2.39388 8.65151 1.12696 10.0329C0.846986 10.3381 0.867486 10.8126 1.17275 11.0925C1.47801 11.3725 1.95245 11.352 2.23242 11.0467C3.48997 9.67561 5.03188 8.57045 6.76389 7.82455L8.70416 9.76483C7.16625 10.2597 5.78007 11.0912 4.63239 12.1716C4.3308 12.4556 4.31649 12.9302 4.60042 13.2318C4.88436 13.5334 5.35902 13.5477 5.6606 13.2638C6.83529 12.1579 8.29796 11.3566 9.9232 10.9839L12.192 13.2527C12.1282 13.2509 12.0641 13.25 11.9998 13.25C10.3299 13.25 8.8 13.8573 7.62173 14.8622C7.30657 15.131 7.26898 15.6044 7.53777 15.9196C7.80655 16.2347 8.27994 16.2723 8.5951 16.0035C9.51214 15.2214 10.7 14.75 11.9998 14.75C12.7661 14.75 13.4923 14.9137 14.1468 15.2075L20.4697 21.5303C20.7626 21.8232 21.2374 21.8232 21.5303 21.5303C21.8232 21.2374 21.8232 20.7626 21.5303 20.4697L15.126 14.0653C15.1178 14.0568 15.1094 14.0484 15.1008 14.0402L10.706 9.64534C10.7009 9.64014 10.6958 9.63501 10.6906 9.62996L7.48423 6.42357C7.47644 6.41542 7.46848 6.40746 7.46036 6.3997L3.53033 2.46967ZM11.9999 6.75C11.3565 6.75 10.7243 6.7958 10.1062 6.88421C9.69616 6.94286 9.31621 6.658 9.25756 6.24796C9.19891 5.83792 9.48377 5.45797 9.89381 5.39932C10.5821 5.30088 11.2853 5.25 11.9999 5.25C16.3035 5.25 20.1775 7.09407 22.8729 10.0329C23.1528 10.3381 23.1323 10.8126 22.8271 11.0925C22.5218 11.3725 22.0474 11.352 21.7674 11.0467C19.3442 8.40469 15.8658 6.75 11.9999 6.75ZM13.265 10.0509C13.3474 9.64492 13.7433 9.38265 14.1492 9.46505C16.146 9.87041 17.9409 10.8287 19.3674 12.1716C19.669 12.4556 19.6833 12.9302 19.3994 13.2318C19.1154 13.5334 18.6408 13.5477 18.3392 13.2638C17.1103 12.1069 15.5663 11.2833 13.8508 10.9351C13.4449 10.8527 13.1826 10.4568 13.265 10.0509ZM12 19C12.5523 19 13 18.5523 13 18C13 17.4477 12.5523 17 12 17C11.4477 17 11 17.4477 11 18C11 18.5523 11.4477 19 12 19Z" fill="#22282F"/>
</svg>
