<svg width="24" height="24" viewBox="0 0 24 24" fill="none" xmlns="http://www.w3.org/2000/svg">
<path fill-rule="evenodd" clip-rule="evenodd" d="M12 3.74994C9.57651 3.74994 7.75 5.50125 7.75 7.49994C7.75 9.49863 9.57651 11.2499 12 11.2499C15.0994 11.2499 17.75 13.5281 17.75 16.4999C17.75 17.0982 17.6426 17.6683 17.4457 18.1974C19.165 16.6854 20.25 14.4694 20.25 11.9999C20.25 7.44359 16.5563 3.74994 12 3.74994ZM12 21.7499C17.3848 21.7499 21.75 17.3847 21.75 11.9999C21.75 6.61516 17.3848 2.24994 12 2.24994C6.61522 2.24994 2.25 6.61516 2.25 11.9999C2.25 17.3847 6.61522 21.7499 12 21.7499ZM12 20.2499C14.4235 20.2499 16.25 18.4986 16.25 16.4999C16.25 14.5012 14.4235 12.7499 12 12.7499C8.90065 12.7499 6.25 10.4718 6.25 7.49994C6.25 6.90171 6.35741 6.33159 6.55426 5.80251C4.83498 7.31444 3.75 9.53049 3.75 11.9999C3.75 16.5563 7.44365 20.2499 12 20.2499ZM12 7.99994C12.5523 7.99994 13 7.55223 13 6.99994C13 6.44766 12.5523 5.99994 12 5.99994C11.4477 5.99994 11 6.44766 11 6.99994C11 7.55223 11.4477 7.99994 12 7.99994ZM13 16.9999C13 17.5522 12.5523 17.9999 12 17.9999C11.4477 17.9999 11 17.5522 11 16.9999C11 16.4477 11.4477 15.9999 12 15.9999C12.5523 15.9999 13 16.4477 13 16.9999Z" fill="#22282F"/>
</svg>
