<svg width="24" height="24" viewBox="0 0 24 24" fill="none" xmlns="http://www.w3.org/2000/svg">
<path fill-rule="evenodd" clip-rule="evenodd" d="M12 4.24996C12.4142 4.24996 12.75 4.58575 12.75 4.99996L12.75 17.1893L17.4697 12.4696C17.7626 12.1767 18.2374 12.1767 18.5303 12.4696C18.8232 12.7625 18.8232 13.2374 18.5303 13.5303L12.5303 19.5303C12.3897 19.6709 12.1989 19.75 12 19.75C11.8011 19.75 11.6103 19.6709 11.4697 19.5303L5.46968 13.5303C5.17679 13.2374 5.17679 12.7625 5.46968 12.4696C5.76257 12.1767 6.23745 12.1767 6.53034 12.4696L11.25 17.1893L11.25 4.99996C11.25 4.58575 11.5858 4.24996 12 4.24996Z" fill="#22282F"/>
</svg>
