<svg width="24" height="24" viewBox="0 0 24 24" fill="none" xmlns="http://www.w3.org/2000/svg">
<path fill-rule="evenodd" clip-rule="evenodd" d="M14.4697 2.46967C14.7626 2.17678 15.2374 2.17678 15.5303 2.46967L20.5303 7.46967C20.8232 7.76256 20.8232 8.23744 20.5303 8.53033L15.5303 13.5303C15.2374 13.8232 14.7626 13.8232 14.4697 13.5303C14.1768 13.2374 14.1768 12.7626 14.4697 12.4697L18.1893 8.75H18.1875H18.1719H18.1562H18.1406H18.125H18.1094H18.0938H18.0781H18.0625H18.0469H18.0312H18.0156H18H17.9844H17.9688H17.9531H17.9375H17.9219H17.9062H17.8906H17.875H17.8594H17.8438H17.8281H17.8125H17.7969H17.7812H17.7656H17.75H17.7344H17.7188H17.7031H17.6875H17.6719H17.6562H17.6406H17.625H17.6094H17.5938H17.5781H17.5625H17.5469H17.5312H17.5156H17.5H17.4844H17.4688H17.4531H17.4375H17.4219H17.4062H17.3906H17.375H17.3594H17.3438H17.3281H17.3125H17.2969H17.2812H17.2656H17.25H17.2344H17.2188H17.2031H17.1875H17.1719H17.1562H17.1406H17.125H17.1094H17.0938H17.0781H17.0625H17.0469H17.0312H17.0156H17H16.9844H16.9688H16.9531H16.9375H16.9219H16.9062H16.8906H16.875H16.8594H16.8438H16.8281H16.8125H16.7969H16.7812H16.7656H16.75H16.7344H16.7188H16.7031H16.6875H16.6719H16.6562H16.6406H16.625H16.6094H16.5938H16.5781H16.5625H16.5469H16.5312H16.5156H16.5H16.4844H16.4688H16.4531H16.4375H16.4219H16.4062H16.3906H16.375H16.3594H16.3438H16.3281H16.3125H16.2969H16.2812H16.2656H16.25H16.2344H16.2188H16.2031H16.1875H16.1719H16.1562H16.1406H16.125H16.1094H16.0938H16.0781H16.0625H16.0469H16.0312H16.0156H16H15.9844H15.9688H15.9531H15.9375H15.9219H15.9062H15.8906H15.875H15.8594H15.8438H15.8281H15.8125H15.7969H15.7812H15.7656H15.75H15.7344H15.7188H15.7031H15.6875H15.6719H15.6562H15.6406H15.625H15.6094H15.5938H15.5781H15.5625H15.5469H15.5312H15.5156H15.5H15.4844H15.4688H15.4531H15.4375H15.4219H15.4062H15.3906H15.375H15.3594H15.3438H15.3281H15.3125H15.2969H15.2812H15.2656H15.25H15.2344H15.2188H15.2031H15.1875H15.1719H15.1562H15.1406H15.125H15.1094H15.0938H15.0781H15.0625H15.0469H15.0312H15.0156H15H14.9844H14.9688H14.9531H14.9375H14.9219H14.9062H14.8906H14.875H14.8594H14.8438H14.8281H14.8125H14.7969H14.7812H14.7656H14.75H14.7344H14.7188H14.7031H14.6875H14.6719H14.6562H14.6406H14.625H14.6094H14.5938H14.5781H14.5625H14.5469H14.5312H14.5156H14.5H14.4844H14.4688H14.4531H14.4375H14.4219H14.4062H14.3906H14.375H14.3594H14.3438H14.3281H14.3125H14.2969H14.2812H14.2656H14.25H14.2344H14.2188H14.2031H14.1875H14.1719H14.1562H14.1406H14.125H14.1094H14.0938H14.0781H14.0625H14.0469H14.0312H14.0156H14H13.9844H13.9688H13.9531H13.9375H13.9219H13.9062H13.8906H13.875H13.8594H13.8438H13.8281H13.8125H13.7969H13.7812H13.7656H13.75H13.7344H13.7188H13.7031H13.6875H13.6719H13.6562H13.6406H13.625H13.6094H13.5938H13.5781H13.5625H13.5469H13.5312H13.5156H13.5H13.4844H13.4688H13.4531H13.4375H13.4219H13.4062H13.3906H13.375H13.3594H13.3438H13.3281H13.3125H13.2969H13.2812H13.2656H13.25H13.2344H13.2188H13.2031H13.1875H13.1719H13.1562H13.1406H13.125H13.1094H13.0938H13.0781H13.0625H13.0469H13.0312H13.0156H13H12.9844H12.9688H12.9531H12.9375H12.9219H12.9062H12.8906H12.875H12.8594H12.8438H12.8281H12.8125H12.7969H12.7812H12.7656H12.75H12.7344H12.7188H12.7031H12.6875H12.6719H12.6562H12.6406H12.625H12.6094H12.5938H12.5781H12.5625H12.5469H12.5312H12.5156H12.5H12.4844H12.4688H12.4531H12.4375H12.4219H12.4062H12.3906H12.375H12.3594H12.3438H12.3281H12.3125H12.2969H12.2812H12.2656H12.25H12.2344H12.2188H12.2031H12.1875H12.1719H12.1562H12.1406H12.125H12.1094H12.0938H12.0781H12.0625H12.0469H12.0312H12.0156H12C10.0932 8.75 8.73851 8.75159 7.71085 8.88976C6.70476 9.02502 6.12511 9.27869 5.7019 9.7019C5.27869 10.1251 5.02502 10.7048 4.88976 11.7108C4.75159 12.7385 4.75 14.0932 4.75 16V19C4.75 19.4142 4.41421 19.75 4 19.75C3.58579 19.75 3.25 19.4142 3.25 19V16L3.25 15.9436C3.24998 14.1058 3.24997 12.6502 3.40313 11.511C3.56076 10.3386 3.89288 9.38961 4.64124 8.64124C5.38961 7.89288 6.33856 7.56076 7.51098 7.40313C8.65019 7.24997 10.1058 7.24998 11.9436 7.25H12H12.0156H12.0312H12.0469H12.0625H12.0781H12.0938H12.1094H12.125H12.1406H12.1562H12.1719H12.1875H12.2031H12.2188H12.2344H12.25H12.2656H12.2812H12.2969H12.3125H12.3281H12.3438H12.3594H12.375H12.3906H12.4062H12.4219H12.4375H12.4531H12.4688H12.4844H12.5H12.5156H12.5312H12.5469H12.5625H12.5781H12.5938H12.6094H12.625H12.6406H12.6562H12.6719H12.6875H12.7031H12.7188H12.7344H12.75H12.7656H12.7812H12.7969H12.8125H12.8281H12.8438H12.8594H12.875H12.8906H12.9062H12.9219H12.9375H12.9531H12.9688H12.9844H13H13.0156H13.0312H13.0469H13.0625H13.0781H13.0938H13.1094H13.125H13.1406H13.1562H13.1719H13.1875H13.2031H13.2188H13.2344H13.25H13.2656H13.2812H13.2969H13.3125H13.3281H13.3438H13.3594H13.375H13.3906H13.4062H13.4219H13.4375H13.4531H13.4688H13.4844H13.5H13.5156H13.5312H13.5469H13.5625H13.5781H13.5938H13.6094H13.625H13.6406H13.6562H13.6719H13.6875H13.7031H13.7188H13.7344H13.75H13.7656H13.7812H13.7969H13.8125H13.8281H13.8438H13.8594H13.875H13.8906H13.9062H13.9219H13.9375H13.9531H13.9688H13.9844H14H14.0156H14.0312H14.0469H14.0625H14.0781H14.0938H14.1094H14.125H14.1406H14.1562H14.1719H14.1875H14.2031H14.2188H14.2344H14.25H14.2656H14.2812H14.2969H14.3125H14.3281H14.3438H14.3594H14.375H14.3906H14.4062H14.4219H14.4375H14.4531H14.4688H14.4844H14.5H14.5156H14.5312H14.5469H14.5625H14.5781H14.5938H14.6094H14.625H14.6406H14.6562H14.6719H14.6875H14.7031H14.7188H14.7344H14.75H14.7656H14.7812H14.7969H14.8125H14.8281H14.8438H14.8594H14.875H14.8906H14.9062H14.9219H14.9375H14.9531H14.9688H14.9844H15H15.0156H15.0312H15.0469H15.0625H15.0781H15.0938H15.1094H15.125H15.1406H15.1562H15.1719H15.1875H15.2031H15.2188H15.2344H15.25H15.2656H15.2812H15.2969H15.3125H15.3281H15.3438H15.3594H15.375H15.3906H15.4062H15.4219H15.4375H15.4531H15.4688H15.4844H15.5H15.5156H15.5312H15.5469H15.5625H15.5781H15.5938H15.6094H15.625H15.6406H15.6562H15.6719H15.6875H15.7031H15.7188H15.7344H15.75H15.7656H15.7812H15.7969H15.8125H15.8281H15.8438H15.8594H15.875H15.8906H15.9062H15.9219H15.9375H15.9531H15.9688H15.9844H16H16.0156H16.0312H16.0469H16.0625H16.0781H16.0938H16.1094H16.125H16.1406H16.1562H16.1719H16.1875H16.2031H16.2188H16.2344H16.25H16.2656H16.2812H16.2969H16.3125H16.3281H16.3438H16.3594H16.375H16.3906H16.4062H16.4219H16.4375H16.4531H16.4688H16.4844H16.5H16.5156H16.5312H16.5469H16.5625H16.5781H16.5938H16.6094H16.625H16.6406H16.6562H16.6719H16.6875H16.7031H16.7188H16.7344H16.75H16.7656H16.7812H16.7969H16.8125H16.8281H16.8438H16.8594H16.875H16.8906H16.9062H16.9219H16.9375H16.9531H16.9688H16.9844H17H17.0156H17.0312H17.0469H17.0625H17.0781H17.0938H17.1094H17.125H17.1406H17.1562H17.1719H17.1875H17.2031H17.2188H17.2344H17.25H17.2656H17.2812H17.2969H17.3125H17.3281H17.3438H17.3594H17.375H17.3906H17.4062H17.4219H17.4375H17.4531H17.4688H17.4844H17.5H17.5156H17.5312H17.5469H17.5625H17.5781H17.5938H17.6094H17.625H17.6406H17.6562H17.6719H17.6875H17.7031H17.7188H17.7344H17.75H17.7656H17.7812H17.7969H17.8125H17.8281H17.8438H17.8594H17.875H17.8906H17.9062H17.9219H17.9375H17.9531H17.9688H17.9844H18H18.0156H18.0312H18.0469H18.0625H18.0781H18.0938H18.1094H18.125H18.1406H18.1562H18.1719H18.1875H18.1893L14.4697 3.53033C14.1768 3.23744 14.1768 2.76256 14.4697 2.46967Z" fill="#22282F"/>
</svg>
