<svg width="24" height="24" viewBox="0 0 24 24" fill="none" xmlns="http://www.w3.org/2000/svg">
<path fill-rule="evenodd" clip-rule="evenodd" d="M20 2.25C19.5858 2.25 19.25 2.58579 19.25 3V3.0056V3.01119V3.01679V3.02239V3.02799V3.0336V3.0392V3.04481V3.05041V3.05602V3.06163V3.06725V3.07286V3.07848V3.08409V3.08971V3.09533V3.10095V3.10657V3.1122V3.11782V3.12345V3.12908V3.13471V3.14034V3.14598V3.15161V3.15725V3.16288V3.16852V3.17416V3.17981V3.18545V3.19109V3.19674V3.20239V3.20804V3.21369V3.21934V3.22499V3.23065V3.2363V3.24196V3.24762V3.25328V3.25894V3.26461V3.27027V3.27594V3.2816V3.28727V3.29294V3.29862V3.30429V3.30996V3.31564V3.32132V3.327V3.33268V3.33836V3.34404V3.34972V3.35541V3.3611V3.36678V3.37247V3.37816V3.38386V3.38955V3.39524V3.40094V3.40664V3.41234V3.41804V3.42374V3.42944V3.43515V3.44085V3.44656V3.45227V3.45798V3.46369V3.4694V3.47511V3.48083V3.48654V3.49226V3.49798V3.5037V3.50942V3.51514V3.52087V3.52659V3.53232V3.53804V3.54377V3.5495V3.55523V3.56097V3.5667V3.57243V3.57817V3.58391V3.58965V3.59539V3.60113V3.60687V3.61261V3.61836V3.6241V3.62985V3.6356V3.64135V3.6471V3.65285V3.65861V3.66436V3.67012V3.67587V3.68163V3.68739V3.69315V3.69891V3.70468V3.71044V3.7162V3.72197V3.72774V3.73351V3.73928V3.74505V3.75082V3.75659V3.76237V3.76814V3.77392V3.7797V3.78548V3.79126V3.79704V3.80282V3.8086V3.81439V3.82017V3.82596V3.83175V3.83754V3.84333V3.84912V3.85491V3.8607V3.8665V3.87229V3.87809V3.88389V3.88969V3.89549V3.90129V3.90709V3.91289V3.9187V3.9245V3.93031V3.93612V3.94192V3.94773V3.95354V3.95936V3.96517V3.97098V3.9768V3.98261V3.98843V3.99425V4.00007V4.00589V4.01171V4.01753V4.02335V4.02918V4.035V4.04083V4.04665V4.05248V4.05831V4.06414V4.06997V4.0758V4.08164V4.08747V4.0933V4.09914V4.10498V4.11081V4.11665V4.12249V4.12833V4.13417V4.14002V4.14586V4.1517V4.15755V4.1634V4.16924V4.17509V4.18094V4.18679V4.19264V4.19849V4.20435V4.2102V4.21605V4.22191V4.22777V4.23362V4.23948V4.24534V4.2512V4.25706V4.26292V4.26879V4.27465V4.28051V4.28638V4.29225V4.29811V4.30398V4.30985V4.31572V4.32159V4.32746V4.33333V4.33921V4.34508V4.35095V4.35683V4.36271V4.36858V4.37446V4.38034V4.38622V4.3921V4.39798V4.40386V4.40975V4.41563V4.42152V4.4274V4.43329V4.43918V4.44506V4.45095V4.45684V4.46273V4.46862V4.47451V4.48041V4.4863V4.49219V4.49809V4.50398V4.50988V4.51578V4.52168V4.52757V4.53347V4.53937V4.54527V4.55118V4.55708V4.56298V4.56889V4.57479V4.5807V4.5866V4.59251V4.59842V4.60432V4.61023V4.61614V4.62205V4.62796V4.63388V4.63979V4.6457V4.65161V4.65753V4.66344V4.66936V4.67528V4.68119V4.68711V4.69303V4.69895V4.70487V4.71079V4.71671V4.72263V4.72856V4.73448V4.7404V4.74633V4.75225V4.75818V4.7641V4.77003V4.77596V4.78189V4.78782V4.79375V4.79968V4.80561V4.81154V4.81747V4.8234V4.82933V4.83527V4.8412V4.84714V4.85307V4.85901V4.86495V4.87088V4.87682V4.88276V4.8887V4.89464V4.90058V4.90652V4.91246V4.9184V4.92434V4.93029V4.93623V4.94217V4.94812V4.95406V4.96001V4.96596V4.9719V4.97785V4.9838V4.98974V4.99569V5.00164V5.00759V5.01354V5.01949V5.02544V5.0314V5.03735V5.0433V5.04925V5.05521V5.06116V5.06712V5.07307V5.07903V5.08498V5.09094V5.0969V5.10285V5.10881V5.11477V5.12073V5.12669V5.13265V5.13861V5.14457V5.15053V5.15649V5.16245V5.16842V5.17438V5.18034V5.18631V5.19227V5.19824V5.2042V5.21017V5.21613V5.2221V5.22806V5.23403V5.24V5.24597V5.25193V5.2579V5.26387V5.26984V5.27581V5.28178V5.28775V5.29372V5.29969V5.30566V5.31164V5.31761V5.32358V5.32955V5.33553V5.3415V5.34747V5.35345V5.35942V5.3654V5.37137V5.37735V5.38332V5.3893V5.39528V5.40125V5.40723V5.41321V5.41918V5.42516V5.43114V5.43712V5.4431V5.44908V5.45506V5.46104V5.46702V5.473V5.47898V5.48496V5.49094V5.49692V5.5029V5.50888V5.51487V5.52085V5.52683V5.53281V5.5388V5.54478V5.55076V5.55675V5.56273V5.56872V5.5747V5.58069V5.58667V5.59266V5.59864V5.60463V5.61061V5.6166V5.62259V5.62857V5.63456V5.64054V5.64653V5.65252V5.65851V5.66449V5.67048V5.67647V5.68246V5.68845V5.69443V5.70042V5.70641V5.7124V5.71839V5.72438V5.73037V5.73636V5.74235V5.74834V5.75433V5.76032V5.76631V5.7723V5.77829V5.78428V5.79027V5.79626V5.80225V5.80824V5.81423V5.82022V5.82621V5.83221V5.8382V5.84419V5.85018V5.85617V5.86216V5.86816V5.87415V5.88014V5.88613V5.89212V5.89812V5.90411V5.9101V5.91609V5.92209V5.92808V5.93407V5.94006V5.94606V5.95205V5.95804V5.96403V5.97003V5.97602V5.98201V5.98801V5.994V5.99999C19.25 7.90681 19.2484 9.26148 19.1102 10.2891C18.975 11.2952 18.7213 11.8749 18.2981 12.2981C17.8749 12.7213 17.2952 12.975 16.2892 13.1102C15.2615 13.2484 13.9068 13.25 12 13.25H5.81066L9.53033 9.53033C9.82322 9.23744 9.82322 8.76256 9.53033 8.46967C9.23744 8.17678 8.76256 8.17678 8.46967 8.46967L3.46967 13.4697C3.17678 13.7626 3.17678 14.2374 3.46967 14.5303L8.46967 19.5303C8.76256 19.8232 9.23744 19.8232 9.53033 19.5303C9.82322 19.2374 9.82322 18.7626 9.53033 18.4697L5.81066 14.75H12H12.0564C13.8942 14.75 15.3498 14.75 16.489 14.5969C17.6614 14.4392 18.6104 14.1071 19.3588 13.3588C20.1071 12.6104 20.4392 11.6614 20.5969 10.489C20.75 9.34981 20.75 7.89417 20.75 6.05641V5.99999V5.994V5.98801V5.98201V5.97602V5.97003V5.96403V5.95804V5.95205V5.94606V5.94006V5.93407V5.92808V5.92209V5.91609V5.9101V5.90411V5.89812V5.89212V5.88613V5.88014V5.87415V5.86816V5.86216V5.85617V5.85018V5.84419V5.8382V5.83221V5.82621V5.82022V5.81423V5.80824V5.80225V5.79626V5.79027V5.78428V5.77829V5.7723V5.76631V5.76032V5.75433V5.74834V5.74235V5.73636V5.73037V5.72438V5.71839V5.7124V5.70641V5.70042V5.69443V5.68845V5.68246V5.67647V5.67048V5.66449V5.65851V5.65252V5.64653V5.64054V5.63456V5.62857V5.62259V5.6166V5.61061V5.60463V5.59864V5.59266V5.58667V5.58069V5.5747V5.56872V5.56273V5.55675V5.55076V5.54478V5.5388V5.53281V5.52683V5.52085V5.51487V5.50888V5.5029V5.49692V5.49094V5.48496V5.47898V5.473V5.46702V5.46104V5.45506V5.44908V5.4431V5.43712V5.43114V5.42516V5.41918V5.41321V5.40723V5.40125V5.39528V5.3893V5.38332V5.37735V5.37137V5.3654V5.35942V5.35345V5.34747V5.3415V5.33553V5.32955V5.32358V5.31761V5.31164V5.30566V5.29969V5.29372V5.28775V5.28178V5.27581V5.26984V5.26387V5.2579V5.25193V5.24597V5.24V5.23403V5.22806V5.2221V5.21613V5.21017V5.2042V5.19824V5.19227V5.18631V5.18034V5.17438V5.16842V5.16245V5.15649V5.15053V5.14457V5.13861V5.13265V5.12669V5.12073V5.11477V5.10881V5.10285V5.0969V5.09094V5.08498V5.07903V5.07307V5.06712V5.06116V5.05521V5.04925V5.0433V5.03735V5.0314V5.02544V5.01949V5.01354V5.00759V5.00164V4.99569V4.98974V4.9838V4.97785V4.9719V4.96596V4.96001V4.95406V4.94812V4.94217V4.93623V4.93029V4.92434V4.9184V4.91246V4.90652V4.90058V4.89464V4.8887V4.88276V4.87682V4.87088V4.86495V4.85901V4.85307V4.84714V4.8412V4.83527V4.82933V4.8234V4.81747V4.81154V4.80561V4.79968V4.79375V4.78782V4.78189V4.77596V4.77003V4.7641V4.75818V4.75225V4.74633V4.7404V4.73448V4.72856V4.72263V4.71671V4.71079V4.70487V4.69895V4.69303V4.68711V4.68119V4.67528V4.66936V4.66344V4.65753V4.65161V4.6457V4.63979V4.63388V4.62796V4.62205V4.61614V4.61023V4.60432V4.59842V4.59251V4.5866V4.5807V4.57479V4.56889V4.56298V4.55708V4.55118V4.54527V4.53937V4.53347V4.52757V4.52168V4.51578V4.50988V4.50398V4.49809V4.49219V4.4863V4.48041V4.47451V4.46862V4.46273V4.45684V4.45095V4.44506V4.43918V4.43329V4.4274V4.42152V4.41563V4.40975V4.40386V4.39798V4.3921V4.38622V4.38034V4.37446V4.36858V4.36271V4.35683V4.35095V4.34508V4.33921V4.33333V4.32746V4.32159V4.31572V4.30985V4.30398V4.29811V4.29225V4.28638V4.28051V4.27465V4.26879V4.26292V4.25706V4.2512V4.24534V4.23948V4.23362V4.22777V4.22191V4.21605V4.2102V4.20435V4.19849V4.19264V4.18679V4.18094V4.17509V4.16924V4.1634V4.15755V4.1517V4.14586V4.14002V4.13417V4.12833V4.12249V4.11665V4.11081V4.10498V4.09914V4.0933V4.08747V4.08164V4.0758V4.06997V4.06414V4.05831V4.05248V4.04665V4.04083V4.035V4.02918V4.02335V4.01753V4.01171V4.00589V4.00007V3.99425V3.98843V3.98261V3.9768V3.97098V3.96517V3.95936V3.95354V3.94773V3.94192V3.93612V3.93031V3.9245V3.9187V3.91289V3.90709V3.90129V3.89549V3.88969V3.88389V3.87809V3.87229V3.8665V3.8607V3.85491V3.84912V3.84333V3.83754V3.83175V3.82596V3.82017V3.81439V3.8086V3.80282V3.79704V3.79126V3.78548V3.7797V3.77392V3.76814V3.76237V3.75659V3.75082V3.74505V3.73928V3.73351V3.72774V3.72197V3.7162V3.71044V3.70468V3.69891V3.69315V3.68739V3.68163V3.67587V3.67012V3.66436V3.65861V3.65285V3.6471V3.64135V3.6356V3.62985V3.6241V3.61836V3.61261V3.60687V3.60113V3.59539V3.58965V3.58391V3.57817V3.57243V3.5667V3.56097V3.55523V3.5495V3.54377V3.53804V3.53232V3.52659V3.52087V3.51514V3.50942V3.5037V3.49798V3.49226V3.48654V3.48083V3.47511V3.4694V3.46369V3.45798V3.45227V3.44656V3.44085V3.43515V3.42944V3.42374V3.41804V3.41234V3.40664V3.40094V3.39524V3.38955V3.38386V3.37816V3.37247V3.36678V3.3611V3.35541V3.34972V3.34404V3.33836V3.33268V3.327V3.32132V3.31564V3.30996V3.30429V3.29862V3.29294V3.28727V3.2816V3.27594V3.27027V3.26461V3.25894V3.25328V3.24762V3.24196V3.2363V3.23065V3.22499V3.21934V3.21369V3.20804V3.20239V3.19674V3.19109V3.18545V3.17981V3.17416V3.16852V3.16288V3.15725V3.15161V3.14598V3.14034V3.13471V3.12908V3.12345V3.11782V3.1122V3.10657V3.10095V3.09533V3.08971V3.08409V3.07848V3.07286V3.06725V3.06163V3.05602V3.05041V3.04481V3.0392V3.0336V3.02799V3.02239V3.01679V3.01119V3.0056V3C20.75 2.58579 20.4142 2.25 20 2.25Z" fill="#22282F"/>
</svg>
