<svg width="24" height="24" viewBox="0 0 24 24" fill="none" xmlns="http://www.w3.org/2000/svg">
<path fill-rule="evenodd" clip-rule="evenodd" d="M2.75 12C2.75 6.89137 6.89137 2.75 12 2.75C17.1086 2.75 21.25 6.89137 21.25 12C21.25 17.1086 17.1086 21.25 12 21.25C6.89137 21.25 2.75 17.1086 2.75 12ZM12 1.25C6.06294 1.25 1.25 6.06294 1.25 12C1.25 17.9371 6.06294 22.75 12 22.75C17.9371 22.75 22.75 17.9371 22.75 12C22.75 6.06294 17.9371 1.25 12 1.25ZM13.5303 8.46967C13.2374 8.17678 12.7626 8.17678 12.4697 8.46967C12.1768 8.76256 12.1768 9.23744 12.4697 9.53033L14.1893 11.25H8C7.58579 11.25 7.25 11.5858 7.25 12C7.25 12.4142 7.58579 12.75 8 12.75H14.1893L12.4697 14.4697C12.1768 14.7626 12.1768 15.2374 12.4697 15.5303C12.7626 15.8232 13.2374 15.8232 13.5303 15.5303L16.5303 12.5303C16.8232 12.2374 16.8232 11.7626 16.5303 11.4697L13.5303 8.46967Z" fill="#22282F"/>
</svg>
