<svg width="24" height="24" viewBox="0 0 24 24" fill="none" xmlns="http://www.w3.org/2000/svg">
<path fill-rule="evenodd" clip-rule="evenodd" d="M2.75 12C2.75 6.89137 6.89137 2.75 12 2.75C17.1086 2.75 21.25 6.89137 21.25 12C21.25 17.1086 17.1086 21.25 12 21.25C6.89137 21.25 2.75 17.1086 2.75 12ZM12 1.25C6.06294 1.25 1.25 6.06294 1.25 12C1.25 17.9371 6.06294 22.75 12 22.75C17.9371 22.75 22.75 17.9371 22.75 12C22.75 6.06294 17.9371 1.25 12 1.25ZM14.5303 7.46967C14.2374 7.17678 13.7626 7.17678 13.4697 7.46967C13.1768 7.76256 13.1768 8.23744 13.4697 8.53033L14.1893 9.25H11C8.92893 9.25 7.25 10.9289 7.25 13C7.25 15.0711 8.92893 16.75 11 16.75H13C13.4142 16.75 13.75 16.4142 13.75 16C13.75 15.5858 13.4142 15.25 13 15.25H11C9.75736 15.25 8.75 14.2426 8.75 13C8.75 11.7574 9.75736 10.75 11 10.75H16C16.3033 10.75 16.5768 10.5673 16.6929 10.287C16.809 10.0068 16.7448 9.68417 16.5303 9.46967L14.5303 7.46967Z" fill="#22282F"/>
</svg>
