<svg width="24" height="24" viewBox="0 0 24 24" fill="none" xmlns="http://www.w3.org/2000/svg">
<path fill-rule="evenodd" clip-rule="evenodd" d="M14.4697 2.4697C14.7626 2.17681 15.2374 2.17681 15.5303 2.4697L20.5303 7.4697C20.8232 7.76259 20.8232 8.23747 20.5303 8.53036C20.2374 8.82325 19.7626 8.82325 19.4697 8.53036L15.75 4.81069V11.0003V11.0567C15.75 12.8944 15.75 14.35 15.5969 15.4891C15.4392 16.6615 15.1071 17.6104 14.3588 18.3588C13.6104 19.1072 12.6614 19.4393 11.489 19.5969C10.3498 19.7501 8.89417 19.75 7.05641 19.75H7H4C3.58579 19.75 3.25 19.4142 3.25 19C3.25 18.5858 3.58579 18.25 4 18.25H7C8.90682 18.25 10.2615 18.2484 11.2892 18.1103C12.2952 17.975 12.8749 17.7213 13.2981 17.2981C13.7213 16.8749 13.975 16.2953 14.1102 15.2892C14.2484 14.2616 14.25 12.907 14.25 11.0003V4.81069L10.5303 8.53036C10.2374 8.82325 9.76256 8.82325 9.46967 8.53036C9.17678 8.23747 9.17678 7.76259 9.46967 7.4697L14.4697 2.4697Z" fill="#22282F"/>
</svg>
