<svg width="24" height="24" viewBox="0 0 24 24" fill="none" xmlns="http://www.w3.org/2000/svg">
<path fill-rule="evenodd" clip-rule="evenodd" d="M9.53033 2.46967C9.82322 2.76256 9.82322 3.23744 9.53033 3.53033L5.81066 7.25L12.0024 7.25H12.0589C13.8958 7.24999 15.3508 7.24997 16.4897 7.40314C17.6618 7.56078 18.6104 7.89293 19.3588 8.64125C20.1071 9.38962 20.4392 10.3386 20.5969 11.5111C20.75 12.6504 20.75 14.1061 20.75 15.944V16.0004V16.0082V16.0159V16.0237V16.0314V16.0392V16.0469V16.0546V16.0624V16.0701V16.0778V16.0855V16.0932V16.1009V16.1086V16.1163V16.124V16.1317V16.1394V16.147V16.1547V16.1624V16.17V16.1777V16.1853V16.193V16.2006V16.2082V16.2159V16.2235V16.2311V16.2387V16.2463V16.2539V16.2615V16.2691V16.2767V16.2843V16.2919V16.2994V16.307V16.3146V16.3221V16.3297V16.3372V16.3448V16.3523V16.3598V16.3673V16.3749V16.3824V16.3899V16.3974V16.4049V16.4124V16.4199V16.4273V16.4348V16.4423V16.4497V16.4572V16.4646V16.4721V16.4795V16.487V16.4944V16.5018V16.5092V16.5166V16.5241V16.5315V16.5388V16.5462V16.5536V16.561V16.5684V16.5757V16.5831V16.5904V16.5978V16.6051V16.6125V16.6198V16.6271V16.6344V16.6417V16.6491V16.6564V16.6636V16.6709V16.6782V16.6855V16.6928V16.7V16.7073V16.7145V16.7218V16.729V16.7362V16.7435V16.7507V16.7579V16.7651V16.7723V16.7795V16.7867V16.7939V16.8011V16.8082V16.8154V16.8225V16.8297V16.8368V16.844V16.8511V16.8582V16.8653V16.8724V16.8796V16.8867V16.8937V16.9008V16.9079V16.915V16.922V16.9291V16.9361V16.9432V16.9502V16.9573V16.9643V16.9713V16.9783V16.9853V16.9923V16.9993V17.0063V17.0133V17.0202V17.0272V17.0341V17.0411V17.048V17.055V17.0619V17.0688V17.0757V17.0826V17.0895V17.0964V17.1033V17.1102V17.1171V17.1239V17.1308V17.1376V17.1445V17.1513V17.1581V17.165V17.1718V17.1786V17.1854V17.1922V17.199V17.2057V17.2125V17.2193V17.226V17.2328V17.2395V17.2463V17.253V17.2597V17.2664V17.2731V17.2798V17.2865V17.2932V17.2999V17.3065V17.3132V17.3198V17.3265V17.3331V17.3397V17.3464V17.353V17.3596V17.3662V17.3728V17.3793V17.3859V17.3925V17.399V17.4056V17.4121V17.4187V17.4252V17.4317V17.4382V17.4447V17.4512V17.4577V17.4642V17.4706V17.4771V17.4836V17.49V17.4965V17.5029V17.5093V17.5157V17.5221V17.5285V17.5349V17.5413V17.5477V17.554V17.5604V17.5667V17.5731V17.5794V17.5857V17.5921V17.5984V17.6047V17.611V17.6172V17.6235V17.6298V17.636V17.6423V17.6485V17.6548V17.661V17.6672V17.6734V17.6796V17.6858V17.692V17.6981V17.7043V17.7105V17.7166V17.7228V17.7289V17.735V17.7411V17.7472V17.7533V17.7594V17.7655V17.7715V17.7776V17.7837V17.7897V17.7957V17.8018V17.8078V17.8138V17.8198V17.8258V17.8317V17.8377V17.8437V17.8496V17.8556V17.8615V17.8674V17.8734V17.8793V17.8852V17.8911V17.8969V17.9028V17.9087V17.9145V17.9204V17.9262V17.932V17.9378V17.9436V17.9494V17.9552V17.961V17.9668V17.9725V17.9783V17.984V17.9898V17.9955V18.0012V18.0069V18.0126V18.0183V18.024V18.0296V18.0353V18.0409V18.0466V18.0522V18.0578V18.0634V18.069V18.0746V18.0802V18.0858V18.0913V18.0969V18.1024V18.108V18.1135V18.119V18.1245V18.13V18.1355V18.1409V18.1464V18.1519V18.1573V18.1627V18.1682V18.1736V18.179V18.1844V18.1898V18.1951V18.2005V18.2059V18.2112V18.2165V18.2219V18.2272V18.2325V18.2378V18.243V18.2483V18.2536V18.2588V18.2641V18.2693V18.2745V18.2797V18.285V18.2901V18.2953V18.3005V18.3057V18.3108V18.3159V18.3211V18.3262V18.3313V18.3364V18.3415V18.3466V18.3516V18.3567V18.3617V18.3668V18.3718V18.3768V18.3818V18.3868V18.3918V18.3968V18.4017V18.4067V18.4116V18.4165V18.4215V18.4264V18.4313V18.4362V18.441V18.4459V18.4507V18.4556V18.4604V18.4652V18.4701V18.4749V18.4796V18.4844V18.4892V18.4939V18.4987V18.5034V18.5082V18.5129V18.5176V18.5223V18.5269V18.5316V18.5363V18.5409V18.5455V18.5502V18.5548V18.5594V18.564V18.5685V18.5731V18.5777V18.5822V18.5867V18.5913V18.5958V18.6003V18.6048V18.6092V18.6137V18.6182V18.6226V18.627V18.6315V18.6359V18.6403V18.6446V18.649V18.6534V18.6577V18.6621V18.6664V18.6707V18.675V18.6793V18.6836V18.6879V18.6921V18.6964V18.7006V18.7048V18.709V18.7132V18.7174V18.7216V18.7258V18.7299V18.7341V18.7382V18.7423V18.7464V18.7505V18.7546V18.7587V18.7627V18.7668V18.7708V18.7748V18.7788V18.7828V18.7868V18.7908V18.7947V18.7987V18.8026V18.8065V18.8105V18.8144V18.8182V18.8221V18.826V18.8298V18.8337V18.8375V18.8413V18.8451V18.8489V18.8527V18.8565V18.8602V18.8639V18.8677V18.8714V18.8751V18.8788V18.8825V18.8861V18.8898V18.8934V18.8971V18.9007V18.9043V18.9079V18.9114V18.915V18.9186V18.9221V18.9256V18.9291V18.9326V18.9361V18.9396V18.9431V18.9465V18.95V18.9534V18.9568V18.9602V18.9636V18.967V18.9703V18.9737V18.977V18.9803V18.9836V18.9869V18.9902V18.9935V18.9968V19C20.75 19.4142 20.4142 19.75 20 19.75C19.5858 19.75 19.25 19.4142 19.25 19V18.9968V18.9935V18.9902V18.9869V18.9836V18.9803V18.977V18.9737V18.9703V18.967V18.9636V18.9602V18.9568V18.9534V18.95V18.9465V18.9431V18.9396V18.9361V18.9326V18.9291V18.9256V18.9221V18.9186V18.915V18.9114V18.9079V18.9043V18.9007V18.8971V18.8934V18.8898V18.8861V18.8825V18.8788V18.8751V18.8714V18.8677V18.8639V18.8602V18.8565V18.8527V18.8489V18.8451V18.8413V18.8375V18.8337V18.8298V18.826V18.8221V18.8182V18.8144V18.8105V18.8065V18.8026V18.7987V18.7947V18.7908V18.7868V18.7828V18.7788V18.7748V18.7708V18.7668V18.7627V18.7587V18.7546V18.7505V18.7464V18.7423V18.7382V18.7341V18.7299V18.7258V18.7216V18.7174V18.7132V18.709V18.7048V18.7006V18.6964V18.6921V18.6879V18.6836V18.6793V18.675V18.6707V18.6664V18.6621V18.6577V18.6534V18.649V18.6446V18.6403V18.6359V18.6315V18.627V18.6226V18.6182V18.6137V18.6092V18.6048V18.6003V18.5958V18.5913V18.5867V18.5822V18.5777V18.5731V18.5685V18.564V18.5594V18.5548V18.5502V18.5455V18.5409V18.5363V18.5316V18.5269V18.5223V18.5176V18.5129V18.5082V18.5034V18.4987V18.4939V18.4892V18.4844V18.4796V18.4749V18.4701V18.4652V18.4604V18.4556V18.4507V18.4459V18.441V18.4362V18.4313V18.4264V18.4215V18.4165V18.4116V18.4067V18.4017V18.3968V18.3918V18.3868V18.3818V18.3768V18.3718V18.3668V18.3617V18.3567V18.3516V18.3466V18.3415V18.3364V18.3313V18.3262V18.3211V18.3159V18.3108V18.3057V18.3005V18.2953V18.2901V18.285V18.2797V18.2745V18.2693V18.2641V18.2588V18.2536V18.2483V18.243V18.2378V18.2325V18.2272V18.2219V18.2165V18.2112V18.2059V18.2005V18.1951V18.1898V18.1844V18.179V18.1736V18.1682V18.1627V18.1573V18.1519V18.1464V18.1409V18.1355V18.13V18.1245V18.119V18.1135V18.108V18.1024V18.0969V18.0913V18.0858V18.0802V18.0746V18.069V18.0634V18.0578V18.0522V18.0466V18.0409V18.0353V18.0296V18.024V18.0183V18.0126V18.0069V18.0012V17.9955V17.9898V17.984V17.9783V17.9725V17.9668V17.961V17.9552V17.9494V17.9436V17.9378V17.932V17.9262V17.9204V17.9145V17.9087V17.9028V17.8969V17.8911V17.8852V17.8793V17.8734V17.8674V17.8615V17.8556V17.8496V17.8437V17.8377V17.8317V17.8258V17.8198V17.8138V17.8078V17.8018V17.7957V17.7897V17.7837V17.7776V17.7715V17.7655V17.7594V17.7533V17.7472V17.7411V17.735V17.7289V17.7228V17.7166V17.7105V17.7043V17.6981V17.692V17.6858V17.6796V17.6734V17.6672V17.661V17.6548V17.6485V17.6423V17.636V17.6298V17.6235V17.6172V17.611V17.6047V17.5984V17.5921V17.5857V17.5794V17.5731V17.5667V17.5604V17.554V17.5477V17.5413V17.5349V17.5285V17.5221V17.5157V17.5093V17.5029V17.4965V17.49V17.4836V17.4771V17.4706V17.4642V17.4577V17.4512V17.4447V17.4382V17.4317V17.4252V17.4187V17.4121V17.4056V17.399V17.3925V17.3859V17.3793V17.3728V17.3662V17.3596V17.353V17.3464V17.3397V17.3331V17.3265V17.3198V17.3132V17.3065V17.2999V17.2932V17.2865V17.2798V17.2731V17.2664V17.2597V17.253V17.2463V17.2395V17.2328V17.226V17.2193V17.2125V17.2057V17.199V17.1922V17.1854V17.1786V17.1718V17.165V17.1581V17.1513V17.1445V17.1376V17.1308V17.1239V17.1171V17.1102V17.1033V17.0964V17.0895V17.0826V17.0757V17.0688V17.0619V17.055V17.048V17.0411V17.0341V17.0272V17.0202V17.0133V17.0063V16.9993V16.9923V16.9853V16.9783V16.9713V16.9643V16.9573V16.9502V16.9432V16.9361V16.9291V16.922V16.915V16.9079V16.9008V16.8937V16.8867V16.8796V16.8724V16.8653V16.8582V16.8511V16.844V16.8368V16.8297V16.8225V16.8154V16.8082V16.8011V16.7939V16.7867V16.7795V16.7723V16.7651V16.7579V16.7507V16.7435V16.7362V16.729V16.7218V16.7145V16.7073V16.7V16.6928V16.6855V16.6782V16.6709V16.6636V16.6564V16.6491V16.6417V16.6344V16.6271V16.6198V16.6125V16.6051V16.5978V16.5904V16.5831V16.5757V16.5684V16.561V16.5536V16.5462V16.5388V16.5315V16.5241V16.5166V16.5092V16.5018V16.4944V16.487V16.4795V16.4721V16.4646V16.4572V16.4497V16.4423V16.4348V16.4273V16.4199V16.4124V16.4049V16.3974V16.3899V16.3824V16.3749V16.3673V16.3598V16.3523V16.3448V16.3372V16.3297V16.3221V16.3146V16.307V16.2994V16.2919V16.2843V16.2767V16.2691V16.2615V16.2539V16.2463V16.2387V16.2311V16.2235V16.2159V16.2082V16.2006V16.193V16.1853V16.1777V16.17V16.1624V16.1547V16.147V16.1394V16.1317V16.124V16.1163V16.1086V16.1009V16.0932V16.0855V16.0778V16.0701V16.0624V16.0546V16.0469V16.0392V16.0314V16.0237V16.0159V16.0082V16.0004C19.25 14.0935 19.2484 12.7387 19.1102 11.7109C18.975 10.7048 18.7213 10.1251 18.2981 9.70191C17.8748 9.27865 17.2953 9.02501 16.2897 8.88976C15.2625 8.7516 13.9084 8.75 12.0024 8.75L5.81066 8.75L9.53033 12.4697C9.82322 12.7626 9.82322 13.2374 9.53033 13.5303C9.23744 13.8232 8.76256 13.8232 8.46967 13.5303L3.46967 8.53033C3.17678 8.23744 3.17678 7.76256 3.46967 7.46967L8.46967 2.46967C8.76256 2.17678 9.23744 2.17678 9.53033 2.46967Z" fill="#22282F"/>
</svg>
