<svg width="24" height="24" viewBox="0 0 24 24" fill="none" xmlns="http://www.w3.org/2000/svg">
<path fill-rule="evenodd" clip-rule="evenodd" d="M11.2892 3.88978C10.2615 3.75162 8.90682 3.75002 7 3.75002H4C3.58579 3.75002 3.25 3.41424 3.25 3.00002C3.25 2.58581 3.58579 2.25002 4 2.25002H7L7.05642 2.25002C8.89418 2.25001 10.3498 2.24999 11.489 2.40316C12.6614 2.56079 13.6104 2.8929 14.3588 3.64127C15.1071 4.38963 15.4392 5.33858 15.5969 6.511C15.75 7.65022 15.75 9.10585 15.75 10.9436V11V17.1894L19.4697 13.4697C19.7626 13.1768 20.2374 13.1768 20.5303 13.4697C20.8232 13.7626 20.8232 14.2375 20.5303 14.5304L15.5303 19.5304C15.2374 19.8232 14.7626 19.8232 14.4697 19.5304L9.46967 14.5304C9.17678 14.2375 9.17678 13.7626 9.46967 13.4697C9.76256 13.1768 10.2374 13.1768 10.5303 13.4697L14.25 17.1894V11C14.25 9.0932 14.2484 7.73854 14.1102 6.71087C13.975 5.70478 13.7213 5.12514 13.2981 4.70193C12.8749 4.27872 12.2952 4.02505 11.2892 3.88978Z" fill="#22282F"/>
</svg>
