<svg width="24" height="24" viewBox="0 0 24 24" fill="none" xmlns="http://www.w3.org/2000/svg">
<path fill-rule="evenodd" clip-rule="evenodd" d="M16 3.25001C15.5858 3.25001 15.25 3.5858 15.25 4.00001C15.25 4.41423 15.5858 4.75001 16 4.75001H18.1893L15.4697 7.46968L13.4697 9.46968C13.1768 9.76258 13.1768 10.2375 13.4697 10.5303C13.7626 10.8232 14.2374 10.8232 14.5303 10.5303L16.5303 8.53034L19.25 5.81067V8.00001C19.25 8.41423 19.5858 8.75001 20 8.75001C20.4142 8.75001 20.75 8.41423 20.75 8.00001V4.00001C20.75 3.5858 20.4142 3.25001 20 3.25001H16ZM10.5303 14.5303C10.8232 14.2375 10.8232 13.7626 10.5303 13.4697C10.2374 13.1768 9.76256 13.1768 9.46967 13.4697L7.46967 15.4697L4.75 18.1894V16C4.75 15.5858 4.41421 15.25 4 15.25C3.58579 15.25 3.25 15.5858 3.25 16V20C3.25 20.4142 3.58579 20.75 4 20.75H8C8.41421 20.75 8.75 20.4142 8.75 20C8.75 19.5858 8.41421 19.25 8 19.25H5.81066L8.53033 16.5303L10.5303 14.5303ZM4 3.25001C3.58579 3.25001 3.25 3.5858 3.25 4.00001V8.00001C3.25 8.41423 3.58579 8.75001 4 8.75001C4.41421 8.75001 4.75 8.41423 4.75 8.00001V5.81067L7.46967 8.53034L9.46967 10.5303C9.76256 10.8232 10.2374 10.8232 10.5303 10.5303C10.8232 10.2375 10.8232 9.76258 10.5303 9.46968L8.53033 7.46968L5.81066 4.75001H8C8.41421 4.75001 8.75 4.41423 8.75 4.00001C8.75 3.5858 8.41421 3.25001 8 3.25001H4ZM14.5303 13.4697C14.2374 13.1768 13.7626 13.1768 13.4697 13.4697C13.1768 13.7626 13.1768 14.2375 13.4697 14.5303L15.4697 16.5303L18.1893 19.25H16C15.5858 19.25 15.25 19.5858 15.25 20C15.25 20.4142 15.5858 20.75 16 20.75H20C20.4142 20.75 20.75 20.4142 20.75 20V16C20.75 15.5858 20.4142 15.25 20 15.25C19.5858 15.25 19.25 15.5858 19.25 16V18.1894L16.5303 15.4697L14.5303 13.4697Z" fill="#22282F"/>
</svg>
