<svg width="24" height="24" viewBox="0 0 24 24" fill="none" xmlns="http://www.w3.org/2000/svg">
<path fill-rule="evenodd" clip-rule="evenodd" d="M7.53033 3.53033C7.82322 3.23744 7.82322 2.76256 7.53033 2.46967C7.23744 2.17678 6.76256 2.17678 6.46967 2.46967L2.46967 6.46967C2.17678 6.76256 2.17678 7.23744 2.46967 7.53033L6.46967 11.5303C6.76256 11.8232 7.23744 11.8232 7.53033 11.5303C7.82322 11.2374 7.82322 10.7626 7.53033 10.4697L4.81066 7.75H17C17.4142 7.75 17.75 7.41421 17.75 7C17.75 6.58579 17.4142 6.25 17 6.25H4.81066L7.53033 3.53033ZM16.4697 13.5303C16.1768 13.2374 16.1768 12.7626 16.4697 12.4697C16.7626 12.1768 17.2374 12.1768 17.5303 12.4697L21.5303 16.4697C21.8232 16.7626 21.8232 17.2374 21.5303 17.5303L17.5303 21.5303C17.2374 21.8232 16.7626 21.8232 16.4697 21.5303C16.1768 21.2374 16.1768 20.7626 16.4697 20.4697L19.1893 17.75H7C6.58579 17.75 6.25 17.4142 6.25 17C6.25 16.5858 6.58579 16.25 7 16.25H19.1893L16.4697 13.5303Z" fill="#22282F"/>
</svg>
