<svg width="24" height="24" viewBox="0 0 24 24" fill="none" xmlns="http://www.w3.org/2000/svg">
<path fill-rule="evenodd" clip-rule="evenodd" d="M15 3.25002C14.5858 3.25002 14.25 3.5858 14.25 4.00002C14.25 4.41423 14.5858 4.75002 15 4.75002H18.1893L12 10.9394L5.81066 4.75002H9C9.41421 4.75002 9.75 4.41423 9.75 4.00002C9.75 3.5858 9.41421 3.25002 9 3.25002H4C3.58579 3.25002 3.25 3.5858 3.25 4.00002V9.00002C3.25 9.41423 3.58579 9.75002 4 9.75002C4.41421 9.75002 4.75 9.41423 4.75 9.00002V5.81068L10.9393 12L4.75 18.1894V15C4.75 14.5858 4.41421 14.25 4 14.25C3.58579 14.25 3.25 14.5858 3.25 15V20C3.25 20.4142 3.58579 20.75 4 20.75H9C9.41421 20.75 9.75 20.4142 9.75 20C9.75 19.5858 9.41421 19.25 9 19.25H5.81066L12 13.0607L18.1893 19.25H15C14.5858 19.25 14.25 19.5858 14.25 20C14.25 20.4142 14.5858 20.75 15 20.75H20C20.4142 20.75 20.75 20.4142 20.75 20V15C20.75 14.5858 20.4142 14.25 20 14.25C19.5858 14.25 19.25 14.5858 19.25 15V18.1894L13.0607 12L19.25 5.81068V9.00002C19.25 9.41423 19.5858 9.75002 20 9.75002C20.4142 9.75002 20.75 9.41423 20.75 9.00002V4.00002C20.75 3.5858 20.4142 3.25002 20 3.25002H15Z" fill="#22282F"/>
</svg>
