<svg width="24" height="24" viewBox="0 0 24 24" fill="none" xmlns="http://www.w3.org/2000/svg">
<path fill-rule="evenodd" clip-rule="evenodd" d="M8.46961 2.46972C8.7625 2.17683 9.23738 2.17683 9.53027 2.46972L14.5302 7.46966C14.8231 7.76256 14.8231 8.23743 14.5302 8.53032C14.2373 8.82322 13.7624 8.82322 13.4695 8.53032L9.74994 4.81071V11.0001C9.74994 12.9069 9.75153 14.2615 9.8897 15.2892C10.025 16.2953 10.2786 16.8749 10.7018 17.2982C11.1251 17.7214 11.7047 17.975 12.7108 18.1103C13.7385 18.2485 15.0931 18.2501 16.9999 18.2501H19.9999C20.4142 18.2501 20.7499 18.5858 20.7499 19.0001C20.7499 19.4143 20.4142 19.7501 19.9999 19.7501H16.9999H16.9435C15.1058 19.7501 13.6501 19.7501 12.5109 19.5969C11.3385 19.4393 10.3895 19.1072 9.64118 18.3588C8.89282 17.6104 8.5607 16.6615 8.40307 15.4891C8.24991 14.3499 8.24992 12.8942 8.24994 11.0565V11.0001V4.81071L4.53033 8.53032C4.23744 8.82322 3.76256 8.82322 3.46967 8.53032C3.17678 8.23743 3.17678 7.76256 3.46967 7.46966L8.46961 2.46972Z" fill="#22282F"/>
</svg>
