<svg width="24" height="24" viewBox="0 0 24 24" fill="none" xmlns="http://www.w3.org/2000/svg">
<path fill-rule="evenodd" clip-rule="evenodd" d="M16.9436 2.25002L17 2.25002L20 2.25002C20.4142 2.25002 20.75 2.58581 20.75 3.00002C20.75 3.41424 20.4142 3.75002 20 3.75002L17 3.75002C15.0932 3.75002 13.7385 3.75162 12.7109 3.88978C11.7048 4.02505 11.1251 4.27872 10.7019 4.70192C10.2787 5.12513 10.025 5.70478 9.88978 6.71087C9.75161 7.73853 9.75002 9.09319 9.75001 11L9.75 17.1894L13.4697 13.4697C13.7626 13.1768 14.2374 13.1768 14.5303 13.4697C14.8232 13.7626 14.8232 14.2375 14.5303 14.5304L9.53033 19.5304C9.23744 19.8232 8.76256 19.8232 8.46967 19.5304L3.46967 14.5304C3.17678 14.2375 3.17678 13.7626 3.46967 13.4697C3.76256 13.1768 4.23744 13.1768 4.53033 13.4697L8.25 17.1894L8.25001 11V10.9436C8.25 9.10584 8.24999 7.65021 8.40316 6.51099C8.56079 5.33857 8.8929 4.38962 9.64127 3.64126C10.3896 2.8929 11.3386 2.56078 12.511 2.40316C13.6502 2.24999 15.1058 2.25001 16.9436 2.25002Z" fill="#22282F"/>
</svg>
