<svg width="24" height="24" viewBox="0 0 24 24" fill="none" xmlns="http://www.w3.org/2000/svg">
<path fill-rule="evenodd" clip-rule="evenodd" d="M2.75 12C2.75 6.89137 6.89137 2.75 12 2.75C17.1086 2.75 21.25 6.89137 21.25 12C21.25 17.1086 17.1086 21.25 12 21.25C6.89137 21.25 2.75 17.1086 2.75 12ZM12 1.25C6.06294 1.25 1.25 6.06294 1.25 12C1.25 17.9371 6.06294 22.75 12 22.75C17.9371 22.75 22.75 17.9371 22.75 12C22.75 6.06294 17.9371 1.25 12 1.25ZM12.75 7.99997C12.75 7.58576 12.4142 7.24997 12 7.24997C11.5858 7.24997 11.25 7.58576 11.25 7.99997V14.1893L9.53034 12.4696C9.23745 12.1767 8.76257 12.1767 8.46968 12.4696C8.17679 12.7625 8.17679 13.2374 8.46968 13.5303L11.4697 16.5303C11.7626 16.8232 12.2374 16.8232 12.5303 16.5303L15.5303 13.5303C15.8232 13.2374 15.8232 12.7625 15.5303 12.4696C15.2374 12.1767 14.7626 12.1767 14.4697 12.4696L12.75 14.1893V7.99997Z" fill="#22282F"/>
</svg>
