<svg width="24" height="24" viewBox="0 0 24 24" fill="none" xmlns="http://www.w3.org/2000/svg">
<path fill-rule="evenodd" clip-rule="evenodd" d="M2.75 12C2.75 6.89137 6.89137 2.75 12 2.75C17.1086 2.75 21.25 6.89137 21.25 12C21.25 17.1086 17.1086 21.25 12 21.25C6.89137 21.25 2.75 17.1086 2.75 12ZM12 1.25C6.06294 1.25 1.25 6.06294 1.25 12C1.25 17.9371 6.06294 22.75 12 22.75C17.9371 22.75 22.75 17.9371 22.75 12C22.75 6.06294 17.9371 1.25 12 1.25ZM9.53033 8.46969C9.23744 8.17679 8.76256 8.17679 8.46967 8.46969C8.17678 8.76258 8.17678 9.23745 8.46967 9.53034L13.1893 14.25H10.5C10.0858 14.25 9.75 14.5858 9.75 15C9.75 15.4142 10.0858 15.75 10.5 15.75H15C15.4142 15.75 15.75 15.4142 15.75 15V10.5C15.75 10.0858 15.4142 9.75002 15 9.75002C14.5858 9.75002 14.25 10.0858 14.25 10.5V13.1894L9.53033 8.46969Z" fill="#22282F"/>
</svg>
