<svg width="24" height="24" viewBox="0 0 24 24" fill="none" xmlns="http://www.w3.org/2000/svg">
<path fill-rule="evenodd" clip-rule="evenodd" d="M2.75 12C2.75 6.89137 6.89137 2.75 12 2.75C17.1086 2.75 21.25 6.89137 21.25 12C21.25 17.1086 17.1086 21.25 12 21.25C6.89137 21.25 2.75 17.1086 2.75 12ZM12 1.25C6.06294 1.25 1.25 6.06294 1.25 12C1.25 17.9371 6.06294 22.75 12 22.75C17.9371 22.75 22.75 17.9371 22.75 12C22.75 6.06294 17.9371 1.25 12 1.25ZM10.5 8.25C10.0858 8.25 9.75 8.58579 9.75 9C9.75 9.41421 10.0858 9.75 10.5 9.75H13.1893L8.46967 14.4697C8.17678 14.7626 8.17678 15.2374 8.46967 15.5303C8.76256 15.8232 9.23744 15.8232 9.53033 15.5303L14.25 10.8107V13.5C14.25 13.9142 14.5858 14.25 15 14.25C15.4142 14.25 15.75 13.9142 15.75 13.5V9C15.75 8.58579 15.4142 8.25 15 8.25H10.5Z" fill="#22282F"/>
</svg>
