<svg width="24" height="24" viewBox="0 0 24 24" fill="none" xmlns="http://www.w3.org/2000/svg">
<path fill-rule="evenodd" clip-rule="evenodd" d="M12.5303 6.53033C12.8232 6.23744 12.8232 5.76256 12.5303 5.46967C12.2374 5.17678 11.7626 5.17678 11.4697 5.46967L5.46967 11.4697C5.17678 11.7626 5.17678 12.2374 5.46967 12.5303L11.4697 18.5303C11.7626 18.8232 12.2374 18.8232 12.5303 18.5303C12.8232 18.2374 12.8232 17.7626 12.5303 17.4697L7.06066 12L12.5303 6.53033ZM16.5303 8.53033C16.8232 8.23744 16.8232 7.76256 16.5303 7.46967C16.2374 7.17678 15.7626 7.17678 15.4697 7.46967L11.4697 11.4697C11.1768 11.7626 11.1768 12.2374 11.4697 12.5303L15.4697 16.5303C15.7626 16.8232 16.2374 16.8232 16.5303 16.5303C16.8232 16.2374 16.8232 15.7626 16.5303 15.4697L13.0607 12L16.5303 8.53033Z" fill="#22282F"/>
</svg>
