<svg width="24" height="24" viewBox="0 0 24 24" fill="none" xmlns="http://www.w3.org/2000/svg">
<path fill-rule="evenodd" clip-rule="evenodd" d="M8.53033 7.46967C8.23744 7.17678 7.76256 7.17678 7.46967 7.46967C7.17678 7.76256 7.17678 8.23744 7.46967 8.53033L11.4697 12.5303C11.7626 12.8232 12.2374 12.8232 12.5303 12.5303L16.5303 8.53033C16.8232 8.23744 16.8232 7.76256 16.5303 7.46967C16.2374 7.17678 15.7626 7.17678 15.4697 7.46967L12 10.9393L8.53033 7.46967ZM6.53033 11.4697C6.23744 11.1768 5.76256 11.1768 5.46967 11.4697C5.17678 11.7626 5.17678 12.2374 5.46967 12.5303L11.1868 18.2475L11.2 18.2607C11.2531 18.314 11.337 18.3981 11.4226 18.4634C11.533 18.5477 11.7287 18.6672 12 18.6672C12.2713 18.6672 12.467 18.5477 12.5774 18.4634C12.663 18.3981 12.7469 18.314 12.8 18.2607L12.8132 18.2475L18.5303 12.5303C18.8232 12.2374 18.8232 11.7626 18.5303 11.4697C18.2374 11.1768 17.7626 11.1768 17.4697 11.4697L12 16.9393L6.53033 11.4697Z" fill="#22282F"/>
</svg>
