<svg width="24" height="24" viewBox="0 0 24 24" fill="none" xmlns="http://www.w3.org/2000/svg">
<path fill-rule="evenodd" clip-rule="evenodd" d="M12.5303 6.46967C12.2374 6.17678 11.7626 6.17678 11.4697 6.46967L5.46967 12.4697C5.17678 12.7626 5.17678 13.2374 5.46967 13.5303C5.76256 13.8232 6.23744 13.8232 6.53033 13.5303L12 8.06066L17.4697 13.5303C17.7626 13.8232 18.2374 13.8232 18.5303 13.5303C18.8232 13.2374 18.8232 12.7626 18.5303 12.4697L12.5303 6.46967ZM16.5303 16.4697L12.5303 12.4697C12.2374 12.1768 11.7626 12.1768 11.4697 12.4697L7.46967 16.4697C7.17678 16.7626 7.17678 17.2374 7.46967 17.5303C7.76256 17.8232 8.23744 17.8232 8.53033 17.5303L12 14.0607L15.4697 17.5303C15.7626 17.8232 16.2374 17.8232 16.5303 17.5303C16.8232 17.2374 16.8232 16.7626 16.5303 16.4697Z" fill="#22282F"/>
</svg>
