<svg width="24" height="24" viewBox="0 0 24 24" fill="none" xmlns="http://www.w3.org/2000/svg">
<path fill-rule="evenodd" clip-rule="evenodd" d="M12.5303 5.46967C12.2374 5.17678 11.7626 5.17678 11.4697 5.46967C11.1768 5.76256 11.1768 6.23744 11.4697 6.53033L16.9393 12L11.4697 17.4697C11.1768 17.7626 11.1768 18.2374 11.4697 18.5303C11.7626 18.8232 12.2374 18.8232 12.5303 18.5303L18.5303 12.5303C18.8232 12.2374 18.8232 11.7626 18.5303 11.4697L12.5303 5.46967ZM8.53033 7.46967C8.23744 7.17678 7.76256 7.17678 7.46967 7.46967C7.17678 7.76256 7.17678 8.23744 7.46967 8.53033L10.9393 12L7.46967 15.4697C7.17678 15.7626 7.17678 16.2374 7.46967 16.5303C7.76256 16.8232 8.23744 16.8232 8.53033 16.5303L12.5303 12.5303C12.8232 12.2374 12.8232 11.7626 12.5303 11.4697L8.53033 7.46967Z" fill="#22282F"/>
</svg>
