<svg width="24" height="24" viewBox="0 0 24 24" fill="none" xmlns="http://www.w3.org/2000/svg">
<path fill-rule="evenodd" clip-rule="evenodd" d="M9.53033 6.53033C9.82322 6.23744 9.82322 5.76256 9.53033 5.46967C9.23744 5.17678 8.76256 5.17678 8.46967 5.46967L2.46967 11.4697C2.17678 11.7626 2.17678 12.2374 2.46967 12.5303L8.46967 18.5303C8.76256 18.8232 9.23744 18.8232 9.53033 18.5303C9.82322 18.2374 9.82322 17.7626 9.53033 17.4697L4.06066 12L9.53033 6.53033ZM15.5303 5.46967C15.2374 5.17678 14.7626 5.17678 14.4697 5.46967C14.1768 5.76256 14.1768 6.23744 14.4697 6.53033L19.9393 12L14.4697 17.4697C14.1768 17.7626 14.1768 18.2374 14.4697 18.5303C14.7626 18.8232 15.2374 18.8232 15.5303 18.5303L21.5303 12.5303C21.8232 12.2374 21.8232 11.7626 21.5303 11.4697L15.5303 5.46967Z" fill="#22282F"/>
</svg>
