<svg width="24" height="24" viewBox="0 0 24 24" fill="none" xmlns="http://www.w3.org/2000/svg">
<path fill-rule="evenodd" clip-rule="evenodd" d="M21.75 14C21.75 13.5858 21.4142 13.25 21 13.25C20.5858 13.25 20.25 13.5858 20.25 14L20.25 14.5C20.25 15.6902 20.2489 16.5201 20.1772 17.1557C20.1073 17.7762 19.9781 18.1181 19.785 18.3697C19.6653 18.5257 19.5257 18.6653 19.3697 18.785C19.1181 18.9781 18.7762 19.1073 18.1557 19.1772C17.5201 19.2489 16.6902 19.25 15.5 19.25L8.5 19.25C7.30977 19.25 6.47987 19.2489 5.84426 19.1772C5.22376 19.1073 4.88193 18.9781 4.63029 18.785C4.47429 18.6653 4.33466 18.5257 4.21496 18.3697C4.02187 18.1181 3.89272 17.7762 3.82277 17.1557C3.75112 16.5201 3.75 15.6902 3.75 14.5L3.75 14C3.75 13.5858 3.41421 13.25 3 13.25C2.58579 13.25 2.25 13.5858 2.25 14L2.25 14.5L2.25 14.5452C2.24999 15.6796 2.24997 16.5943 2.33221 17.3238C2.41725 18.0781 2.59807 18.7266 3.02493 19.2829C3.22443 19.5429 3.45715 19.7756 3.71714 19.9751C4.27343 20.4019 4.92195 20.5828 5.67622 20.6678C6.40572 20.75 7.3204 20.75 8.45482 20.75L8.45483 20.75L8.5 20.75L15.5 20.75L15.5452 20.75C16.6796 20.75 17.5943 20.75 18.3238 20.6678C19.0781 20.5828 19.7266 20.4019 20.2829 19.9751C20.5429 19.7756 20.7756 19.5428 20.9751 19.2829C21.4019 18.7266 21.5828 18.0781 21.6678 17.3238C21.75 16.5943 21.75 15.6796 21.75 14.5452L21.75 14.5L21.75 14ZM12.5303 3.46965C12.2375 3.17675 11.7626 3.17675 11.4697 3.46965L7.46969 7.46965C7.17679 7.76254 7.17679 8.23741 7.46969 8.53031C7.76258 8.8232 8.23745 8.8232 8.53035 8.53031L11.25 5.81064L11.25 14C11.25 14.4142 11.5858 14.75 12 14.75C12.4142 14.75 12.75 14.4142 12.75 14L12.75 5.81064L15.4697 8.53031C15.7626 8.8232 16.2375 8.8232 16.5303 8.53031C16.8232 8.23741 16.8232 7.76254 16.5303 7.46965L12.5303 3.46965Z" fill="#22282F"/>
</svg>
