<svg width="24" height="24" viewBox="0 0 24 24" fill="none" xmlns="http://www.w3.org/2000/svg">
<path fill-rule="evenodd" clip-rule="evenodd" d="M13.5303 4.46967C13.2374 4.17678 12.7626 4.17678 12.4697 4.46967C12.1768 4.76256 12.1768 5.23744 12.4697 5.53033L16.1893 9.25H11H10.9584C9.58921 9.24999 8.5043 9.24998 7.63794 9.33812C6.7503 9.42841 6.00926 9.61739 5.36104 10.0505C4.84239 10.3971 4.39707 10.8424 4.05052 11.361C3.61739 12.0093 3.42841 12.7503 3.33812 13.6379C3.24998 14.5043 3.24999 15.5892 3.25 16.9584V17H4.75C4.75 15.5799 4.75091 14.5713 4.83041 13.7898C4.90865 13.0207 5.05673 12.5551 5.29772 12.1944C5.53484 11.8395 5.83953 11.5348 6.1944 11.2977C6.55507 11.0567 7.02071 10.9086 7.78975 10.8304C8.57133 10.7509 9.57993 10.75 11 10.75H16.1893L12.4697 14.4697C12.1768 14.7626 12.1768 15.2374 12.4697 15.5303C12.7626 15.8232 13.2374 15.8232 13.5303 15.5303L18.5303 10.5303C18.8232 10.2374 18.8232 9.76256 18.5303 9.46967L13.5303 4.46967ZM17.5303 4.46967C17.2374 4.17678 16.7626 4.17678 16.4697 4.46967C16.1768 4.76256 16.1768 5.23744 16.4697 5.53033L20.9393 10L16.4697 14.4697C16.1768 14.7626 16.1768 15.2374 16.4697 15.5303C16.7626 15.8232 17.2374 15.8232 17.5303 15.5303L22.5303 10.5303C22.671 10.3897 22.75 10.1989 22.75 10C22.75 9.80109 22.671 9.61032 22.5303 9.46967L17.5303 4.46967Z" fill="#22282F"/>
</svg>
