<svg width="24" height="24" viewBox="0 0 24 24" fill="none" xmlns="http://www.w3.org/2000/svg">
<path fill-rule="evenodd" clip-rule="evenodd" d="M12.75 4.00006C12.75 3.58584 12.4142 3.25006 12 3.25006C11.5858 3.25006 11.25 3.58584 11.25 4.00006V12.1894L8.53031 9.46973C8.23742 9.17683 7.76255 9.17683 7.46965 9.46973C7.17676 9.76262 7.17676 10.2375 7.46965 10.5304L11.4697 14.5304C11.6103 14.671 11.8011 14.7501 12 14.7501C12.1989 14.7501 12.3897 14.671 12.5303 14.5304L16.5303 10.5304C16.8232 10.2375 16.8232 9.76262 16.5303 9.46973C16.2374 9.17683 15.7625 9.17683 15.4697 9.46973L12.75 12.1894V4.00006ZM3.75 15.0001C3.75 14.5859 3.41421 14.2501 3 14.2501C2.58579 14.2501 2.25 14.5859 2.25 15.0001V15.5V15.5452C2.24998 16.6796 2.24997 17.5944 2.33222 18.3239C2.41726 19.0782 2.59809 19.7267 3.02497 20.283C3.22445 20.5429 3.45713 20.7756 3.71708 20.9751C4.27338 21.402 4.92192 21.5828 5.67621 21.6679C6.40571 21.7501 7.32041 21.7501 8.45483 21.7501H8.45486H8.50008H15.4999H15.5451C16.6796 21.7501 17.5943 21.7501 18.3238 21.6679C19.0781 21.5828 19.7266 21.402 20.2829 20.9751C20.5429 20.7756 20.7756 20.5429 20.975 20.283C21.4019 19.7267 21.5827 19.0782 21.6678 18.3239C21.75 17.5944 21.75 16.6796 21.75 15.5452V15.5V15.0001C21.75 14.5859 21.4142 14.2501 21 14.2501C20.5858 14.2501 20.25 14.5859 20.25 15.0001V15.5C20.25 16.6903 20.2489 17.5202 20.1772 18.1558C20.1073 18.7763 19.9781 19.1182 19.785 19.3698C19.6653 19.5258 19.5257 19.6654 19.3697 19.7851C19.1181 19.9782 18.7763 20.1073 18.1557 20.1773C17.5201 20.249 16.6902 20.2501 15.4999 20.2501H8.50008C7.30981 20.2501 6.47988 20.249 5.84425 20.1773C5.22374 20.1073 4.88189 19.9782 4.63025 19.7851C4.47428 19.6654 4.33467 19.5258 4.21498 19.3698C4.02188 19.1182 3.89273 18.7763 3.82278 18.1558C3.75112 17.5202 3.75 16.6903 3.75 15.5L3.75 15.0001Z" fill="#22282F"/>
</svg>
