<svg width="24" height="24" viewBox="0 0 24 24" fill="none" xmlns="http://www.w3.org/2000/svg">
<path fill-rule="evenodd" clip-rule="evenodd" d="M12.75 3.00008C12.75 2.58586 12.4142 2.25008 12 2.25008C11.5858 2.25008 11.25 2.58586 11.25 3.00008V15.1894L8.53033 12.4697C8.23744 12.1769 7.76256 12.1769 7.46967 12.4697C7.17678 12.7626 7.17678 13.2375 7.46967 13.5304L11.4697 17.5304C11.6103 17.6711 11.8011 17.7501 12 17.7501C12.1989 17.7501 12.3897 17.6711 12.5303 17.5304L16.5303 13.5304C16.8232 13.2375 16.8232 12.7626 16.5303 12.4697C16.2374 12.1769 15.7626 12.1769 15.4697 12.4697L12.75 15.1894V3.00008ZM7.5 8.25H7.45481C6.32039 8.24999 5.4057 8.24998 4.67621 8.33222C3.92193 8.41726 3.27341 8.59809 2.71713 9.02494C2.45714 9.22444 2.22443 9.45716 2.02493 9.71714C1.59808 10.2734 1.41725 10.922 1.33221 11.6762C1.24997 12.4057 1.24999 13.3204 1.25 14.4548V14.5V15V15.0549C1.24998 16.4225 1.24996 17.5248 1.36652 18.3918C1.48754 19.2919 1.74643 20.0497 2.34835 20.6517C2.95027 21.2536 3.70814 21.5125 4.60825 21.6335C5.4752 21.75 6.57751 21.75 7.94507 21.75H8H16H16.0548C17.4224 21.75 18.5248 21.7501 19.3918 21.6335C20.2919 21.5125 21.0497 21.2536 21.6516 20.6517C22.2536 20.0497 22.5125 19.2919 22.6335 18.3918C22.75 17.5248 22.75 16.4225 22.75 15.0549V15V14.5V14.4548C22.75 13.3204 22.75 12.4057 22.6678 11.6762C22.5828 10.922 22.4019 10.2734 21.9751 9.71714C21.7756 9.45716 21.5429 9.22444 21.2829 9.02495C20.7266 8.59809 20.0781 8.41726 19.3238 8.33222C18.5943 8.24998 17.6796 8.24999 16.5452 8.25H16.5452H16.5L16.5 9L16.5 8.25L16 8.25002C15.5858 8.25003 15.25 8.58582 15.25 9.00004C15.25 9.41425 15.5858 9.75003 16 9.75002L16.5 9.75H16.5C17.6902 9.75 18.5201 9.75112 19.1558 9.82278C19.7763 9.89274 20.1181 10.0219 20.3697 10.215C20.5257 10.3347 20.6653 10.4743 20.785 10.6303C20.9781 10.8819 21.1073 11.2238 21.1772 11.8443C21.2489 12.4799 21.25 13.3098 21.25 14.5V15C21.25 16.4354 21.2484 17.4365 21.1469 18.1919C21.0482 18.9257 20.8678 19.3142 20.591 19.591C20.3142 19.8678 19.9257 20.0482 19.1919 20.1469C18.4365 20.2484 17.4354 20.25 16 20.25H8C6.56458 20.25 5.56347 20.2484 4.80812 20.1469C4.07435 20.0482 3.68577 19.8678 3.40901 19.591C3.13225 19.3142 2.9518 18.9257 2.85315 18.1919C2.75159 17.4365 2.75 16.4354 2.75 15V14.5C2.75 13.3098 2.75112 12.4799 2.82277 11.8443C2.89273 11.2238 3.02187 10.8819 3.21496 10.6303C3.33466 10.4743 3.47429 10.3347 3.63028 10.215C3.88192 10.0219 4.22375 9.89273 4.84425 9.82278C5.47986 9.75112 6.30976 9.75 7.49998 9.75H7.5L7.99998 9.75002C8.41419 9.75003 8.74999 9.41425 8.75 9.00004C8.75001 8.58582 8.41424 8.25003 8.00002 8.25002L7.50002 8.25L7.5 9L7.5 8.25Z" fill="#22282F"/>
</svg>
