<svg width="24" height="24" viewBox="0 0 24 24" fill="none" xmlns="http://www.w3.org/2000/svg">
<path fill-rule="evenodd" clip-rule="evenodd" d="M10.5 2.25H10.4548C9.3204 2.24999 8.40571 2.24997 7.67622 2.33221C6.92195 2.41725 6.27343 2.59807 5.71714 3.02493C5.45715 3.22443 5.22443 3.45715 5.02493 3.71714C4.59807 4.27343 4.41725 4.92195 4.33221 5.67622C4.24997 6.40571 4.24999 7.3204 4.25 8.45481V8.5V15.5V15.5452C4.24999 16.6796 4.24997 17.5943 4.33221 18.3238C4.41725 19.0781 4.59807 19.7266 5.02493 20.2829C5.22443 20.5429 5.45715 20.7756 5.71714 20.9751C6.27343 21.4019 6.92195 21.5828 7.67622 21.6678C8.40571 21.75 9.32039 21.75 10.4548 21.75H10.5H11C11.4142 21.75 11.75 21.4142 11.75 21C11.75 20.5858 11.4142 20.25 11 20.25H10.5C9.30977 20.25 8.47987 20.2489 7.84426 20.1772C7.22376 20.1073 6.88193 19.9781 6.63029 19.785C6.47429 19.6653 6.33466 19.5257 6.21495 19.3697C6.02187 19.1181 5.89272 18.7762 5.82277 18.1557C5.75112 17.5201 5.75 16.6902 5.75 15.5V8.5C5.75 7.30977 5.75112 6.47987 5.82277 5.84426C5.89272 5.22376 6.02187 4.88193 6.21495 4.63029C6.33466 4.47429 6.47429 4.33466 6.63029 4.21495C6.88193 4.02187 7.22376 3.89272 7.84426 3.82277C8.47987 3.75112 9.30977 3.75 10.5 3.75H11C11.4142 3.75 11.75 3.41421 11.75 3C11.75 2.58579 11.4142 2.25 11 2.25H10.5ZM16.5303 7.46967C16.2374 7.17678 15.7626 7.17678 15.4697 7.46967C15.1768 7.76256 15.1768 8.23744 15.4697 8.53033L18.1893 11.25H11C10.5858 11.25 10.25 11.5858 10.25 12C10.25 12.4142 10.5858 12.75 11 12.75H18.1893L15.4697 15.4697C15.1768 15.7626 15.1768 16.2374 15.4697 16.5303C15.7626 16.8232 16.2374 16.8232 16.5303 16.5303L20.5303 12.5303C20.8232 12.2374 20.8232 11.7626 20.5303 11.4697L16.5303 7.46967Z" fill="#22282F"/>
</svg>
