<svg width="24" height="24" viewBox="0 0 24 24" fill="none" xmlns="http://www.w3.org/2000/svg">
<path fill-rule="evenodd" clip-rule="evenodd" d="M14.5 3.75C15.6902 3.75 16.5201 3.75112 17.1557 3.82277C17.7762 3.89272 18.1181 4.02187 18.3697 4.21495C18.5257 4.33466 18.6653 4.47429 18.785 4.63029C18.9781 4.88193 19.1073 5.22376 19.1772 5.84426C19.2489 6.47987 19.25 7.30977 19.25 8.5V15.5C19.25 16.6902 19.2489 17.5201 19.1772 18.1557C19.1073 18.7762 18.9781 19.1181 18.785 19.3697C18.6653 19.5257 18.5257 19.6653 18.3697 19.785C18.1181 19.9781 17.7762 20.1073 17.1557 20.1772C16.5201 20.2489 15.6902 20.25 14.5 20.25H14C13.5858 20.25 13.25 20.5858 13.25 21C13.25 21.4142 13.5858 21.75 14 21.75H14.5H14.5452C15.6796 21.75 16.5943 21.75 17.3238 21.6678C18.0781 21.5828 18.7266 21.4019 19.2829 20.9751C19.5429 20.7756 19.7756 20.5429 19.9751 20.2829C20.4019 19.7266 20.5828 19.0781 20.6678 18.3238C20.75 17.5943 20.75 16.6796 20.75 15.5452V15.5V8.5V8.45482C20.75 7.3204 20.75 6.40571 20.6678 5.67622C20.5828 4.92195 20.4019 4.27343 19.9751 3.71714C19.7756 3.45715 19.5429 3.22443 19.2829 3.02493C18.7266 2.59807 18.0781 2.41725 17.3238 2.33221C16.5943 2.24997 15.6796 2.24999 14.5452 2.25H14.5H14C13.5858 2.25 13.25 2.58579 13.25 3C13.25 3.41421 13.5858 3.75 14 3.75H14.5ZM9.53033 7.46967C9.23744 7.17678 8.76256 7.17678 8.46967 7.46967C8.17678 7.76256 8.17678 8.23744 8.46967 8.53033L11.1893 11.25H4C3.58579 11.25 3.25 11.5858 3.25 12C3.25 12.4142 3.58579 12.75 4 12.75H11.1893L8.46967 15.4697C8.17678 15.7626 8.17678 16.2374 8.46967 16.5303C8.76256 16.8232 9.23744 16.8232 9.53033 16.5303L13.5303 12.5303C13.8232 12.2374 13.8232 11.7626 13.5303 11.4697L9.53033 7.46967Z" fill="#22282F"/>
</svg>
