<svg width="24" height="24" viewBox="0 0 24 24" fill="none" xmlns="http://www.w3.org/2000/svg">
<path fill-rule="evenodd" clip-rule="evenodd" d="M12.25 5C12.25 4.58579 12.5858 4.25 13 4.25H19C19.4142 4.25 19.75 4.58579 19.75 5V11C19.75 11.4142 19.4142 11.75 19 11.75C18.5858 11.75 18.25 11.4142 18.25 11V6.81066L16.0303 9.03033L14.5303 10.5303C14.2374 10.8232 13.7626 10.8232 13.4697 10.5303C13.1768 10.2374 13.1768 9.76256 13.4697 9.46967L14.9697 7.96967L17.1893 5.75H13C12.5858 5.75 12.25 5.41421 12.25 5ZM5 12.25C5.41421 12.25 5.75 12.5858 5.75 13V17.1893L7.96967 14.9697L9.46967 13.4697C9.76256 13.1768 10.2374 13.1768 10.5303 13.4697C10.8232 13.7626 10.8232 14.2374 10.5303 14.5303L9.03033 16.0303L6.81066 18.25H11C11.4142 18.25 11.75 18.5858 11.75 19C11.75 19.4142 11.4142 19.75 11 19.75H5C4.58579 19.75 4.25 19.4142 4.25 19V13C4.25 12.5858 4.58579 12.25 5 12.25Z" fill="#22282F"/>
</svg>
