<svg width="24" height="24" viewBox="0 0 24 24" fill="none" xmlns="http://www.w3.org/2000/svg">
<path fill-rule="evenodd" clip-rule="evenodd" d="M16.4697 2.46967C16.7626 2.17678 17.2374 2.17678 17.5303 2.46967L21.5303 6.46967C21.8232 6.76256 21.8232 7.23744 21.5303 7.53033L17.5303 11.5303C17.2374 11.8232 16.7626 11.8232 16.4697 11.5303C16.1768 11.2374 16.1768 10.7626 16.4697 10.4697L19.1893 7.75H9C6.10051 7.75 3.75 10.1005 3.75 13C3.75 15.8995 6.10051 18.25 9 18.25H13C13.4142 18.25 13.75 18.5858 13.75 19C13.75 19.4142 13.4142 19.75 13 19.75H9C5.27208 19.75 2.25 16.7279 2.25 13C2.25 9.27208 5.27208 6.25 9 6.25H19.1893L16.4697 3.53033C16.1768 3.23744 16.1768 2.76256 16.4697 2.46967Z" fill="#22282F"/>
</svg>
