<svg width="24" height="24" viewBox="0 0 24 24" fill="none" xmlns="http://www.w3.org/2000/svg">
<path fill-rule="evenodd" clip-rule="evenodd" d="M3.74421 11.0945C4.97698 9.17682 7.19361 7.25002 11.0001 7.25002C13.8099 7.25002 16.4969 9.18777 18.3868 10.9517C19.1107 11.6273 19.7428 12.3015 20.2501 12.8801V8.00002C20.2501 7.58581 20.5859 7.25002 21.0001 7.25002C21.4143 7.25002 21.7501 7.58581 21.7501 8.00002V15C21.7501 15.4142 21.4143 15.75 21.0001 15.75H14.0001C13.5859 15.75 13.2501 15.4142 13.2501 15C13.2501 14.5858 13.5859 14.25 14.0001 14.25H19.4501C18.9252 13.6286 18.2087 12.8373 17.3634 12.0483C15.5033 10.3123 13.1903 8.75002 11.0001 8.75002C7.80658 8.75002 6.02321 10.3232 5.00598 11.9056C4.48977 12.7086 4.17125 13.5172 3.98218 14.128C3.88804 14.4322 3.82707 14.6838 3.79009 14.8564C3.77162 14.9426 3.7592 15.0087 3.75166 15.0515C3.74789 15.0729 3.74534 15.0885 3.74388 15.0977L3.74256 15.1061L3.74247 15.1067C3.68359 15.5164 3.30387 15.801 2.89403 15.7425C2.48398 15.6839 2.19905 15.304 2.25763 14.894L3.0001 15C2.25763 14.894 2.25769 14.8936 2.25775 14.8932L2.25788 14.8922L2.25823 14.8898L2.25923 14.8831L2.26248 14.8622C2.26522 14.8449 2.26915 14.8211 2.27441 14.7913C2.28494 14.7315 2.30084 14.6473 2.32338 14.5421C2.36844 14.3319 2.44027 14.0366 2.54926 13.6845C2.76644 12.9828 3.13542 12.0415 3.74421 11.0945Z" fill="#22282F"/>
</svg>
