<svg width="24" height="24" viewBox="0 0 24 24" fill="none" xmlns="http://www.w3.org/2000/svg">
<path fill-rule="evenodd" clip-rule="evenodd" d="M2.25 12C2.25 6.61682 6.58419 2.25 12 2.25C15.2226 2.25 17.6366 3.5959 19.2301 4.92383C19.6171 5.24627 19.9569 5.56863 20.25 5.87217V3.5C20.25 3.08579 20.5858 2.75 21 2.75C21.4142 2.75 21.75 3.08579 21.75 3.5V8C21.75 8.41421 21.4142 8.75 21 8.75H18C17.5858 8.75 17.25 8.41421 17.25 8C17.25 7.58579 17.5858 7.25 18 7.25H19.4824C19.1637 6.89199 18.7593 6.48401 18.2699 6.07617C16.8634 4.9041 14.7774 3.75 12 3.75C7.41581 3.75 3.75 7.44205 3.75 12C3.75 12.4142 3.41421 12.75 3 12.75C2.58579 12.75 2.25 12.4142 2.25 12ZM21 11.25C21.4142 11.25 21.75 11.5858 21.75 12C21.75 17.3848 17.3848 21.75 12 21.75C9.25451 21.75 7.082 20.37 5.63227 19.0556C5.30412 18.7581 5.00955 18.4609 4.75 18.1789V20.5C4.75 20.9142 4.41421 21.25 4 21.25C3.58579 21.25 3.25 20.9142 3.25 20.5V16C3.25 15.5858 3.58579 15.25 4 15.25H7.06448C7.47869 15.25 7.81448 15.5858 7.81448 16C7.81448 16.4142 7.47869 16.75 7.06448 16.75H5.48953C5.79687 17.1142 6.18242 17.5297 6.63981 17.9444C7.94744 19.13 9.77493 20.25 12 20.25C16.5563 20.25 20.25 16.5563 20.25 12C20.25 11.5858 20.5858 11.25 21 11.25ZM12 7.25C12.4142 7.25 12.75 7.58579 12.75 8V12C12.75 12.4142 12.4142 12.75 12 12.75C11.5858 12.75 11.25 12.4142 11.25 12V8C11.25 7.58579 11.5858 7.25 12 7.25ZM12 16C12.5523 16 13 15.5523 13 15C13 14.4477 12.5523 14 12 14C11.4477 14 11 14.4477 11 15C11 15.5523 11.4477 16 12 16Z" fill="#22282F"/>
</svg>
