<svg width="24" height="24" viewBox="0 0 24 24" fill="none" xmlns="http://www.w3.org/2000/svg">
<path fill-rule="evenodd" clip-rule="evenodd" d="M9.53033 5.53033C9.82322 5.23744 9.82322 4.76256 9.53033 4.46967C9.23744 4.17678 8.76256 4.17678 8.46967 4.46967L3.46967 9.46967C3.17678 9.76256 3.17678 10.2374 3.46967 10.5303L8.46967 15.5303C8.76256 15.8232 9.23744 15.8232 9.53033 15.5303C9.82322 15.2374 9.82322 14.7626 9.53033 14.4697L5.06066 10L9.53033 5.53033ZM13.5302 5.53033C13.8231 5.23744 13.8231 4.76256 13.5302 4.46967C13.2373 4.17678 12.7625 4.17678 12.4696 4.46967L7.46958 9.46967C7.17669 9.76256 7.17669 10.2374 7.46958 10.5303L12.4696 15.5303C12.7625 15.8232 13.2373 15.8232 13.5302 15.5303C13.8231 15.2374 13.8231 14.7626 13.5302 14.4697L9.81057 10.75H14.9999C16.42 10.75 17.4286 10.7509 18.2102 10.8304C18.9792 10.9086 19.4448 11.0567 19.8055 11.2977C20.1604 11.5348 20.4651 11.8395 20.7022 12.1944C20.9432 12.5551 21.0913 13.0207 21.1695 13.7898C21.249 14.5713 21.2499 15.5799 21.2499 17H22.7499V16.9584C22.7499 15.5892 22.7499 14.5043 22.6618 13.6379C22.5715 12.7503 22.3825 12.0093 21.9494 11.361C21.6028 10.8424 21.1575 10.3971 20.6389 10.0505C19.9906 9.61739 19.2496 9.42841 18.362 9.33812C17.4956 9.24998 16.4107 9.24999 15.0415 9.25H14.9999H9.81057L13.5302 5.53033Z" fill="#22282F"/>
</svg>
