<svg width="24" height="24" viewBox="0 0 24 24" fill="none" xmlns="http://www.w3.org/2000/svg">
<path fill-rule="evenodd" clip-rule="evenodd" d="M13.5302 7.46972C13.2374 7.17683 12.7625 7.17683 12.4696 7.46972C12.1767 7.76261 12.1767 8.23749 12.4696 8.53038L15.1893 11.2501L2.99991 11.2501C2.5857 11.2501 2.24991 11.5858 2.24991 12.0001C2.24991 12.4143 2.5857 12.7501 2.99991 12.7501L15.1893 12.7501L12.4696 15.4697C12.1767 15.7626 12.1767 16.2375 12.4696 16.5304C12.7625 16.8233 13.2374 16.8233 13.5302 16.5304L17.5302 12.5304C17.8231 12.2375 17.8231 11.7626 17.5302 11.4697L13.5302 7.46972ZM15 2.74997C16.4354 2.74997 17.4365 2.75156 18.1919 2.85312C18.9257 2.95177 19.3142 3.13222 19.591 3.40898C19.8678 3.68574 20.0482 4.07432 20.1469 4.80809C20.2484 5.56344 20.25 6.56456 20.25 7.99997L20.25 16C20.25 17.4354 20.2484 18.4365 20.1469 19.1918C20.0482 19.9256 19.8678 20.3142 19.591 20.591C19.3142 20.8677 18.9257 21.0482 18.1919 21.1468C17.4365 21.2484 16.4354 21.25 15 21.25L12.5 21.25C11.3098 21.25 10.4799 21.2489 9.84426 21.1772C9.22377 21.1072 8.88194 20.9781 8.6303 20.785C8.47429 20.6653 8.33465 20.5257 8.21495 20.3697C8.02186 20.118 7.89272 19.7762 7.82277 19.1557C7.75112 18.5201 7.75 17.6902 7.75 16.5L7.75 16C7.75 15.5858 7.41422 15.25 7 15.25C6.58579 15.25 6.25 15.5858 6.25 16L6.25 16.5L6.25 16.5452C6.24999 17.6796 6.24997 18.5943 6.33221 19.3237C6.41724 20.078 6.59807 20.7265 7.02491 21.2828C7.22442 21.5428 7.45716 21.7756 7.71717 21.9751C8.27345 22.4019 8.92196 22.5827 9.67622 22.6678C10.4057 22.75 11.3204 22.75 12.4548 22.75L12.5 22.75L15 22.75L15.0549 22.75C16.4225 22.75 17.5248 22.75 18.3918 22.6334C19.2919 22.5124 20.0497 22.2535 20.6516 21.6516C21.2536 21.0497 21.5125 20.2918 21.6335 19.3917C21.75 18.5248 21.75 17.4225 21.75 16.055L21.75 16.0549L21.75 16L21.75 7.99997L21.75 7.94513C21.75 6.57752 21.75 5.47519 21.6335 4.60822C21.5125 3.70811 21.2536 2.95024 20.6517 2.34832C20.0497 1.7464 19.2919 1.48751 18.3918 1.36649C17.5248 1.24993 16.4225 1.24995 15.0549 1.24997L15 1.24997L12.5 1.24997L12.4548 1.24997L12.4548 1.24997C11.3204 1.24996 10.4057 1.24994 9.67622 1.33219C8.92194 1.41722 8.27341 1.59805 7.71712 2.02491C7.45714 2.22441 7.22443 2.45711 7.02494 2.71709C6.59808 3.27338 6.41725 3.92191 6.33222 4.67619C6.24997 5.40569 6.24999 6.32038 6.25 7.45481L6.25 7.5L6.25 7.99997C6.25 8.41418 6.58579 8.74997 7 8.74997C7.41421 8.74997 7.75 8.41418 7.75 7.99997L7.75 7.5C7.75 6.30976 7.75112 5.47984 7.82277 4.84422C7.89273 4.22372 8.02187 3.88188 8.21497 3.63024C8.33466 3.47426 8.47429 3.33463 8.63027 3.21494C8.88191 3.02184 9.22375 2.8927 9.84426 2.82274C10.4799 2.75108 11.3098 2.74997 12.5 2.74997L15 2.74997Z" fill="#22282F"/>
</svg>
