<svg width="24" height="24" viewBox="0 0 24 24" fill="none" xmlns="http://www.w3.org/2000/svg">
<path fill-rule="evenodd" clip-rule="evenodd" d="M2.46967 6.4697C2.76257 6.17681 3.23744 6.17681 3.53033 6.4697L7.53029 10.4697C8.11837 11.0577 8.28895 11.2143 8.44496 11.2916C8.79468 11.4649 9.20527 11.4649 9.55499 11.2916C9.711 11.2143 9.88158 11.0577 10.4697 10.4697C10.4987 10.4406 10.5273 10.412 10.5555 10.3837C11.0156 9.92288 11.3718 9.56613 11.779 9.36433C12.5484 8.98308 13.4517 8.98308 14.221 9.36433C14.6283 9.56613 14.9844 9.92288 15.4445 10.3837C15.4727 10.412 15.5013 10.4406 15.5303 10.4697L20.25 15.1893V11C20.25 10.5858 20.5858 10.25 21 10.25C21.4142 10.25 21.75 10.5858 21.75 11V17C21.75 17.4142 21.4142 17.75 21 17.75H15C14.5858 17.75 14.25 17.4142 14.25 17C14.25 16.5858 14.5858 16.25 15 16.25H19.1893L14.4697 11.5303C13.8816 10.9422 13.711 10.7857 13.555 10.7084C13.2053 10.5351 12.7947 10.5351 12.445 10.7084C12.289 10.7857 12.1184 10.9422 11.5303 11.5303C11.5013 11.5593 11.4727 11.588 11.4445 11.6162C10.9844 12.0771 10.6282 12.4338 10.221 12.6356C9.45162 13.0169 8.54833 13.0169 7.77895 12.6356C7.37173 12.4338 7.01556 12.0771 6.55547 11.6163C6.52726 11.588 6.49866 11.5593 6.46963 11.5303L2.46967 7.53036C2.17678 7.23747 2.17678 6.76259 2.46967 6.4697Z" fill="#22282F"/>
</svg>
