<svg width="24" height="24" viewBox="0 0 24 24" fill="none" xmlns="http://www.w3.org/2000/svg">
<path fill-rule="evenodd" clip-rule="evenodd" d="M7.53033 2.46967C7.82322 2.76256 7.82322 3.23744 7.53033 3.53033L4.81066 6.25H15C18.7279 6.25 21.75 9.27208 21.75 13C21.75 16.7279 18.7279 19.75 15 19.75H11C10.5858 19.75 10.25 19.4142 10.25 19C10.25 18.5858 10.5858 18.25 11 18.25H15C17.8995 18.25 20.25 15.8995 20.25 13C20.25 10.1005 17.8995 7.75 15 7.75H4.81066L7.53033 10.4697C7.82322 10.7626 7.82322 11.2374 7.53033 11.5303C7.23744 11.8232 6.76256 11.8232 6.46967 11.5303L2.46967 7.53033C2.17678 7.23744 2.17678 6.76256 2.46967 6.46967L6.46967 2.46967C6.76256 2.17678 7.23744 2.17678 7.53033 2.46967Z" fill="#22282F"/>
</svg>
