<svg width="24" height="24" viewBox="0 0 24 24" fill="none" xmlns="http://www.w3.org/2000/svg">
<path fill-rule="evenodd" clip-rule="evenodd" d="M3 7.25002C3.41421 7.25002 3.75 7.58581 3.75 8.00002V12.8801C4.25733 12.3015 4.8894 11.6273 5.61326 10.9517C7.50321 9.18777 10.1902 7.25002 13 7.25002C16.8065 7.25002 19.0231 9.17682 20.2559 11.0945C20.8647 12.0415 21.2337 12.9828 21.4508 13.6845C21.5598 14.0366 21.6317 14.3319 21.6767 14.5421C21.6993 14.6473 21.7152 14.7315 21.7257 14.7913C21.7309 14.8211 21.7349 14.8449 21.7376 14.8622L21.7409 14.8831L21.7419 14.8898L21.7422 14.8922L21.7423 14.8932C21.7424 14.8936 21.7425 14.894 21 15L21.7425 14.894C21.801 15.304 21.5161 15.6839 21.1061 15.7425C20.6965 15.801 20.317 15.5168 20.2577 15.1076C20.2577 15.1075 20.2577 15.1075 20.2577 15.1074C20.2577 15.1072 20.2577 15.107 20.2576 15.1067L20.2575 15.1061L20.2562 15.0977C20.2548 15.0885 20.2522 15.0729 20.2484 15.0515C20.2409 15.0087 20.2285 14.9426 20.21 14.8564C20.173 14.6838 20.1121 14.4322 20.0179 14.128C19.8288 13.5172 19.5103 12.7086 18.9941 11.9056C17.9769 10.3232 16.1935 8.75002 13 8.75002C10.8098 8.75002 8.49679 10.3123 6.63674 12.0483C5.79135 12.8373 5.07487 13.6286 4.54997 14.25H10C10.4142 14.25 10.75 14.5858 10.75 15C10.75 15.4142 10.4142 15.75 10 15.75H3C2.58579 15.75 2.25 15.4142 2.25 15V8.00002C2.25 7.58581 2.58579 7.25002 3 7.25002Z" fill="#22282F"/>
</svg>
