<svg width="24" height="24" viewBox="0 0 24 24" fill="none" xmlns="http://www.w3.org/2000/svg">
<path fill-rule="evenodd" clip-rule="evenodd" d="M11.0008 4.45562C10.5148 5.06623 9.96965 6.00395 9.18743 7.35505L5.12522 14.3716C4.34019 15.7276 3.79636 16.6709 3.50776 17.3989C3.22163 18.1207 3.27114 18.425 3.38605 18.6243C3.50096 18.8236 3.73954 19.019 4.50755 19.133C5.28218 19.248 6.37105 19.25 7.93785 19.25H16.0623C17.6291 19.25 18.7179 19.248 19.4926 19.133C20.2606 19.019 20.4992 18.8236 20.6141 18.6243C20.729 18.425 20.7785 18.1207 20.4924 17.3989C20.2038 16.6709 19.6599 15.7276 18.8749 14.3716L14.8127 7.35506C14.0305 6.00395 13.4853 5.06623 12.9993 4.45562C12.5177 3.85048 12.2299 3.7417 12.0001 3.7417C11.7702 3.7417 11.4824 3.85048 11.0008 4.45562ZM9.8271 3.52157C10.4033 2.79752 11.0768 2.2417 12.0001 2.2417C12.9233 2.2417 13.5968 2.79752 14.173 3.52157C14.7366 4.22977 15.3364 5.26578 16.0781 6.547L16.1108 6.60351L20.1731 13.6201L20.2058 13.6766L20.2059 13.6767L20.2059 13.6767C20.9504 14.9627 21.5522 16.0022 21.8868 16.8461C22.2287 17.7086 22.3758 18.5718 21.9136 19.3735C21.4513 20.1753 20.6306 20.4805 19.7128 20.6167C18.8149 20.75 17.6136 20.75 16.1276 20.75H16.0623H7.93785H7.8725C6.38654 20.75 5.18527 20.75 4.28728 20.6167C3.36954 20.4805 2.54881 20.1753 2.08656 19.3735C1.62432 18.5718 1.77142 17.7086 2.11333 16.8461C2.44789 16.0022 3.04978 14.9626 3.79433 13.6766L3.79434 13.6766L3.82708 13.6201L7.88929 6.6035L7.922 6.547C8.66372 5.26578 9.26349 4.22977 9.8271 3.52157ZM12.0001 8.24997C12.4143 8.24997 12.7501 8.58576 12.7501 8.99997V13C12.7501 13.4142 12.4143 13.75 12.0001 13.75C11.5858 13.75 11.2501 13.4142 11.2501 13V8.99997C11.2501 8.58576 11.5858 8.24997 12.0001 8.24997ZM12.0001 17C12.5523 17 13.0001 16.5523 13.0001 16C13.0001 15.4477 12.5523 15 12.0001 15C11.4478 15 11.0001 15.4477 11.0001 16C11.0001 16.5523 11.4478 17 12.0001 17Z" fill="#22282F"/>
</svg>
