<svg width="24" height="24" viewBox="0 0 24 24" fill="none" xmlns="http://www.w3.org/2000/svg">
<path fill-rule="evenodd" clip-rule="evenodd" d="M4.51172 8.86064C4.98379 5.08406 8.19416 2.25 12.0001 2.25C15.8061 2.25 19.0165 5.08406 19.4886 8.86064L20.4775 16.772C20.6751 18.3533 19.4421 19.75 17.8485 19.75H16.4875L16.4352 19.8678C15.6562 21.6205 13.9181 22.75 12.0001 22.75C10.0821 22.75 8.34402 21.6205 7.56505 19.8678L7.5127 19.75H6.15174C4.55813 19.75 3.32514 18.3533 3.5228 16.772L4.51172 8.86064ZM8.0164 18.25C8.00528 18.2498 7.99415 18.2498 7.98299 18.25H6.15174C5.46038 18.25 4.92547 17.6441 5.01122 16.958L6.00014 9.04669C6.37838 6.02075 8.95065 3.75 12.0001 3.75C15.0496 3.75 17.6219 6.02075 18.0001 9.04669L18.9891 16.958C19.0748 17.6441 18.5399 18.25 17.8485 18.25H16.0172C16.0061 18.2498 15.9949 18.2498 15.9838 18.25H8.0164ZM9.20531 19.75C9.8195 20.6765 10.8641 21.25 12.0001 21.25C13.1361 21.25 14.1807 20.6765 14.7949 19.75H9.20531ZM12.0001 8.25C12.4143 8.25 12.7501 8.58579 12.7501 9V11.25H15.0001C15.4143 11.25 15.7501 11.5858 15.7501 12C15.7501 12.4142 15.4143 12.75 15.0001 12.75H12.7501V15C12.7501 15.4142 12.4143 15.75 12.0001 15.75C11.5859 15.75 11.2501 15.4142 11.2501 15V12.75H9.00012C8.58591 12.75 8.25012 12.4142 8.25012 12C8.25012 11.5858 8.58591 11.25 9.00012 11.25H11.2501V9C11.2501 8.58579 11.5859 8.25 12.0001 8.25Z" fill="#22282F"/>
</svg>
