<svg width="24" height="24" viewBox="0 0 24 24" fill="none" xmlns="http://www.w3.org/2000/svg">
<path fill-rule="evenodd" clip-rule="evenodd" d="M8.11341 3.32727C9.25357 2.64145 10.5864 2.25 12 2.25C15.806 2.25 19.0164 5.08406 19.4884 8.86064L20.2442 14.9068C20.2956 15.3178 20.004 15.6926 19.593 15.744C19.182 15.7954 18.8072 15.5038 18.7558 15.0928L18 9.04669C17.6218 6.02075 15.0495 3.75 12 3.75C10.8661 3.75 9.7996 4.06346 8.88658 4.61265C8.53164 4.82616 8.07081 4.7115 7.85731 4.35655C7.6438 4.0016 7.75847 3.54078 8.11341 3.32727ZM6.00003 9.04669C6.10153 8.23466 6.36064 7.47796 6.7442 6.80486L18.1893 18.25H16.0171C16.006 18.2498 15.9948 18.2498 15.9837 18.25H8.01629C8.00518 18.2498 7.99404 18.2498 7.98288 18.25H6.15163C5.46027 18.25 4.92536 17.6441 5.01111 16.958L6.00003 9.04669ZM7.5126 19.75H6.15163C4.55802 19.75 3.32503 18.3533 3.52269 16.772L4.51161 8.86064C4.65592 7.70613 5.05666 6.63847 5.65256 5.71322L3.46967 3.53033C3.17678 3.23744 3.17678 2.76256 3.46967 2.46967C3.76256 2.17678 4.23744 2.17678 4.53033 2.46967L22.5303 20.4697C22.8232 20.7626 22.8232 21.2374 22.5303 21.5303C22.2374 21.8232 21.7626 21.8232 21.4697 21.5303L19.6893 19.75H16.4874L16.4351 19.8678C15.6561 21.6205 13.918 22.75 12 22.75C10.082 22.75 8.34391 21.6205 7.56494 19.8678L7.5126 19.75ZM9.2052 19.75C9.81939 20.6765 10.864 21.25 12 21.25C13.136 21.25 14.1806 20.6765 14.7948 19.75H9.2052Z" fill="#22282F"/>
</svg>
