<svg width="24" height="24" viewBox="0 0 24 24" fill="none" xmlns="http://www.w3.org/2000/svg">
<path fill-rule="evenodd" clip-rule="evenodd" d="M8 2.25C7.80109 2.25 7.61032 2.32902 7.46967 2.46967L2.46967 7.46967C2.32902 7.61032 2.25 7.80109 2.25 8V16C2.25 16.1989 2.32902 16.3897 2.46967 16.5303L7.46967 21.5303C7.61032 21.671 7.80109 21.75 8 21.75H16C16.1989 21.75 16.3897 21.671 16.5303 21.5303L21.5303 16.5303C21.671 16.3897 21.75 16.1989 21.75 16V8C21.75 7.80109 21.671 7.61032 21.5303 7.46967L16.5303 2.46967C16.3897 2.32902 16.1989 2.25 16 2.25H8ZM3.75 8.31066L8.31066 3.75H15.6893L20.25 8.31066V15.6893L15.6893 20.25H8.31066L3.75 15.6893V8.31066ZM9.53033 8.46967C9.23744 8.17678 8.76256 8.17678 8.46967 8.46967C8.17678 8.76256 8.17678 9.23744 8.46967 9.53033L10.9393 12L8.46967 14.4697C8.17678 14.7626 8.17678 15.2374 8.46967 15.5303C8.76256 15.8232 9.23744 15.8232 9.53033 15.5303L12 13.0607L14.4697 15.5303C14.7626 15.8232 15.2374 15.8232 15.5303 15.5303C15.8232 15.2374 15.8232 14.7626 15.5303 14.4697L13.0607 12L15.5303 9.53033C15.8232 9.23744 15.8232 8.76256 15.5303 8.46967C15.2374 8.17678 14.7626 8.17678 14.4697 8.46967L12 10.9393L9.53033 8.46967Z" fill="#22282F"/>
</svg>
