<svg width="24" height="24" viewBox="0 0 24 24" fill="none" xmlns="http://www.w3.org/2000/svg">
<path fill-rule="evenodd" clip-rule="evenodd" d="M7.94513 3.25H8L16 3.25H16.0549C16.7174 3.24999 17.3176 3.24998 17.859 3.26323C17.9047 3.25454 17.9518 3.25 18 3.25C18.0641 3.25 18.1264 3.25805 18.1858 3.2732C18.6299 3.28974 19.0312 3.31805 19.3918 3.36652C20.2919 3.48754 21.0497 3.74643 21.6517 4.34835C22.2536 4.95027 22.5125 5.70814 22.6335 6.60825C22.682 6.9688 22.7103 7.37006 22.7268 7.81417C22.7419 7.87359 22.75 7.93586 22.75 8C22.75 8.04818 22.7455 8.09529 22.7368 8.14095C22.75 8.68228 22.75 9.28245 22.75 9.94486V9.945V9.94513V10V12V12.0549V12.055V12.0551V12.0553V12.0554V12.0555C22.75 12.7178 22.75 13.3178 22.7368 13.8591C22.7455 13.9047 22.75 13.9518 22.75 14C22.75 14.0641 22.7419 14.1264 22.7268 14.1858C22.7103 14.6299 22.682 15.0312 22.6335 15.3918C22.5125 16.2919 22.2536 17.0497 21.6517 17.6517C21.0497 18.2536 20.2919 18.5125 19.3918 18.6335C19.0312 18.682 18.6299 18.7103 18.1858 18.7268C18.1264 18.7419 18.0641 18.75 18 18.75C17.9518 18.75 17.9047 18.7455 17.8591 18.7368C17.3176 18.75 16.7174 18.75 16.0549 18.75H16.0549H16H8H7.94513H7.94512H7.94511C7.28261 18.75 6.68236 18.75 6.14096 18.7368C6.0953 18.7455 6.04818 18.75 6 18.75C5.93586 18.75 5.8736 18.7419 5.81417 18.7268C5.37006 18.7103 4.9688 18.682 4.60825 18.6335C3.70814 18.5125 2.95027 18.2536 2.34835 17.6517C1.74643 17.0497 1.48754 16.2919 1.36652 15.3918C1.31805 15.0312 1.28974 14.6299 1.2732 14.1858C1.25805 14.1264 1.25 14.0641 1.25 14C1.25 13.9518 1.25454 13.9047 1.26323 13.859C1.24998 13.3176 1.24999 12.7174 1.25 12.0549V12V10V9.94513C1.24999 9.28262 1.24998 8.68236 1.26323 8.14096C1.25454 8.0953 1.25 8.04818 1.25 8C1.25 7.93586 1.25805 7.87359 1.2732 7.81417C1.28974 7.37006 1.31805 6.9688 1.36652 6.60825C1.48754 5.70814 1.74643 4.95027 2.34835 4.34835C2.95027 3.74643 3.70814 3.48754 4.60825 3.36652C4.9688 3.31805 5.37005 3.28974 5.81417 3.2732C5.87359 3.25805 5.93586 3.25 6 3.25C6.04818 3.25 6.0953 3.25454 6.14096 3.26323C6.68236 3.24998 7.28262 3.24999 7.94513 3.25ZM21.1929 7.24536C21.1805 7.09075 21.1653 6.94538 21.1469 6.80812C21.0482 6.07435 20.8678 5.68577 20.591 5.40901C20.3142 5.13225 19.9257 4.9518 19.1919 4.85315C19.0546 4.83469 18.9093 4.81954 18.7546 4.8071C18.762 5.20436 18.7806 5.41053 18.8267 5.58234C19.0347 6.3588 19.6412 6.96528 20.4177 7.17333C20.5895 7.21937 20.7956 7.238 21.1929 7.24536ZM17.2527 4.75373C17.26 5.24426 17.2859 5.6278 17.3778 5.97057C17.7245 7.26467 18.7353 8.27547 20.0294 8.62222C20.3722 8.71407 20.7557 8.74005 21.2463 8.7473C21.2498 9.12438 21.25 9.53988 21.25 10V12C21.25 12.4601 21.2498 12.8756 21.2463 13.2527C20.7557 13.26 20.3722 13.2859 20.0294 13.3778C18.7353 13.7245 17.7245 14.7353 17.3778 16.0294C17.2859 16.3722 17.26 16.7557 17.2527 17.2463C16.8756 17.2498 16.4601 17.25 16 17.25H8C7.53988 17.25 7.12438 17.2498 6.7473 17.2463C6.74005 16.7557 6.71407 16.3722 6.62222 16.0294C6.27547 14.7353 5.26467 13.7245 3.97057 13.3778C3.6278 13.2859 3.24426 13.26 2.75373 13.2527C2.75016 12.8756 2.75 12.4601 2.75 12V10C2.75 9.53988 2.75016 9.12438 2.75373 8.7473C3.24426 8.74005 3.6278 8.71407 3.97057 8.62222C5.26467 8.27547 6.27547 7.26467 6.62222 5.97057C6.71407 5.6278 6.74005 5.24426 6.7473 4.75373C7.12438 4.75016 7.53988 4.75 8 4.75L16 4.75C16.4601 4.75 16.8756 4.75016 17.2527 4.75373ZM4.80812 4.85315C4.94538 4.83469 5.09075 4.81954 5.24536 4.8071C5.238 5.20436 5.21937 5.41053 5.17333 5.58234C4.96528 6.3588 4.3588 6.96528 3.58234 7.17333C3.41053 7.21937 3.20436 7.238 2.8071 7.24536C2.81954 7.09075 2.83469 6.94538 2.85315 6.80812C2.9518 6.07435 3.13225 5.68577 3.40901 5.40901C3.68577 5.13225 4.07435 4.9518 4.80812 4.85315ZM2.8071 14.7546C2.81954 14.9093 2.83469 15.0546 2.85315 15.1919C2.9518 15.9257 3.13225 16.3142 3.40901 16.591C3.68577 16.8678 4.07435 17.0482 4.80812 17.1469C4.94538 17.1653 5.09075 17.1805 5.24536 17.1929C5.238 16.7956 5.21937 16.5895 5.17333 16.4177C4.96528 15.6412 4.3588 15.0347 3.58234 14.8267C3.41053 14.7806 3.20436 14.762 2.8071 14.7546ZM19.1919 17.1469C19.0546 17.1653 18.9093 17.1805 18.7546 17.1929C18.762 16.7956 18.7806 16.5895 18.8267 16.4177C19.0347 15.6412 19.6412 15.0347 20.4177 14.8267C20.5895 14.7806 20.7956 14.762 21.1929 14.7546C21.1805 14.9093 21.1653 15.0546 21.1469 15.1919C21.0482 15.9257 20.8678 16.3142 20.591 16.591C20.3142 16.8678 19.9257 17.0482 19.1919 17.1469ZM12.8838 10.1163C12.3956 9.62817 11.6042 9.62817 11.116 10.1163C10.6278 10.6045 10.6278 11.3959 11.116 11.8841C11.6042 12.3722 12.3956 12.3722 12.8838 11.8841C13.3719 11.3959 13.3719 10.6045 12.8838 10.1163ZM10.0553 9.05566C11.1293 7.98172 12.8705 7.98172 13.9444 9.05566C15.0184 10.1296 15.0184 11.8708 13.9444 12.9448C12.8705 14.0187 11.1293 14.0187 10.0553 12.9448C8.9814 11.8708 8.9814 10.1296 10.0553 9.05566ZM5 20.25C4.58579 20.25 4.25 20.5858 4.25 21C4.25 21.4142 4.58579 21.75 5 21.75H19C19.4142 21.75 19.75 21.4142 19.75 21C19.75 20.5858 19.4142 20.25 19 20.25H5Z" fill="#22282F"/>
</svg>
