<svg width="24" height="24" viewBox="0 0 24 24" fill="none" xmlns="http://www.w3.org/2000/svg">
<path fill-rule="evenodd" clip-rule="evenodd" d="M1.46967 1.46979C1.76256 1.1769 2.23744 1.1769 2.53033 1.46979L4.67381 3.61327L8.53033 7.46979L20.3869 19.3263L22.5303 21.4698C22.8232 21.7627 22.8232 22.2376 22.5303 22.5305C22.2374 22.8233 21.7626 22.8233 21.4697 22.5305L19.6049 20.6657C18.9977 20.7504 18.2519 20.7503 17.3102 20.7501C17.2737 20.7501 17.237 20.7501 17.2 20.7501H6.8H6.76788C5.95505 20.7501 5.29944 20.7501 4.76853 20.7068C4.2219 20.6621 3.74175 20.5677 3.29754 20.3414C2.59193 19.9819 2.01825 19.4082 1.65873 18.7026C1.43239 18.2584 1.33803 17.7782 1.29336 17.2316C1.24999 16.7007 1.24999 16.0451 1.25 15.2322L1.25 15.2001V8.80012V8.79835C1.25 8.52888 1.25 8.27818 1.25138 8.04604C1.25047 8.03085 1.25 8.01554 1.25 8.00012C1.25 7.98115 1.2507 7.96234 1.25209 7.94373C1.26071 6.83712 1.29997 6.00176 1.65873 5.29766C1.94066 4.74433 2.35428 4.27214 2.85994 3.92072L1.46967 2.53045C1.17678 2.23756 1.17678 1.76269 1.46967 1.46979ZM3.94958 5.01037C3.53947 5.22687 3.20601 5.56497 2.99524 5.97864C2.86162 6.24087 2.79551 6.58098 2.76765 7.25012H6.18934L3.94958 5.01037ZM7.68934 8.75012H2.75C2.75 8.7667 2.75 8.78336 2.75 8.80012V15.2001C2.75 16.0526 2.75058 16.6468 2.78838 17.1094C2.82547 17.5633 2.8946 17.8241 2.99524 18.0216C3.21095 18.445 3.55516 18.7892 3.97852 19.0049C4.17604 19.1055 4.4368 19.1747 4.89068 19.2117C5.35331 19.2495 5.94755 19.2501 6.8 19.2501H17.2C17.5775 19.2501 17.9026 19.2497 18.1855 19.2463L7.68934 8.75012ZM19.1093 4.7885C18.6467 4.75071 18.0525 4.75012 17.2 4.75012H9.00024C8.58603 4.75012 8.25024 4.41434 8.25024 4.00012C8.25024 3.58591 8.58603 3.25012 9.00024 3.25012H17.2L17.2321 3.25012C18.0449 3.25011 18.7006 3.25011 19.2315 3.29349C19.7781 3.33815 20.2582 3.43251 20.7025 3.65885C21.4081 4.01837 21.9817 4.59205 22.3413 5.29766C22.7 6.00176 22.7393 6.83712 22.7479 7.94374C22.7493 7.96235 22.75 7.98116 22.75 8.00012C22.75 8.01554 22.7495 8.03084 22.7486 8.04602C22.75 8.27812 22.75 8.52878 22.75 8.7982V8.80012V17C22.75 17.4142 22.4142 17.75 22 17.75C21.5858 17.75 21.25 17.4142 21.25 17V8.80012C21.25 8.78336 21.25 8.7667 21.25 8.75012H13.0002C12.586 8.75012 12.2502 8.41434 12.2502 8.00012C12.2502 7.58591 12.586 7.25012 13.0002 7.25012H21.2323C21.2045 6.58098 21.1384 6.24087 21.0048 5.97864C20.789 5.55528 20.4448 5.21107 20.0215 4.99536C19.824 4.89472 19.5632 4.82559 19.1093 4.7885Z" fill="#22282F"/>
</svg>
