<svg width="24" height="24" viewBox="0 0 24 24" fill="none" xmlns="http://www.w3.org/2000/svg">
<path fill-rule="evenodd" clip-rule="evenodd" d="M7 2.25006H6.96421C6.05997 2.25005 5.33069 2.25004 4.7424 2.30336C4.13605 2.35832 3.60625 2.47462 3.125 2.75247C2.55493 3.0816 2.08154 3.55499 1.75241 4.12506C1.47455 4.60631 1.35826 5.13611 1.3033 5.74246C1.24998 6.33075 1.24999 7.06002 1.25 7.96426V7.96427V8.00006H2.75C2.75 7.05164 2.75072 6.39047 2.79718 5.87785C2.84271 5.37555 2.92737 5.08996 3.05144 4.87506C3.24892 4.53302 3.53296 4.24898 3.875 4.0515C4.0899 3.92743 4.37549 3.84277 4.87779 3.79724C5.39041 3.75078 6.05158 3.75006 7 3.75006V2.25006ZM17 3.75006C17.9484 3.75006 18.6096 3.75078 19.1222 3.79724C19.6245 3.84277 19.9101 3.92743 20.125 4.0515C20.467 4.24898 20.7511 4.53302 20.9486 4.87506C21.0726 5.08996 21.1573 5.37555 21.2028 5.87785C21.2493 6.39047 21.25 7.05164 21.25 8.00006H22.75V7.96425C22.75 7.06002 22.75 6.33075 22.6967 5.74246C22.6417 5.13611 22.5254 4.60631 22.2476 4.12506C21.9185 3.55499 21.4451 3.0816 20.875 2.75247C20.3937 2.47462 19.8639 2.35832 19.2576 2.30336C18.6693 2.25004 17.94 2.25005 17.0358 2.25006H17V3.75006ZM1.25 16.0001V16.0359V16.0359C1.24999 16.9401 1.24998 17.6694 1.3033 18.2577C1.35826 18.864 1.47455 19.3938 1.75241 19.8751C2.08154 20.4451 2.55493 20.9185 3.125 21.2477C3.60625 21.5255 4.13605 21.6418 4.7424 21.6968C5.33069 21.7501 6.05995 21.7501 6.96418 21.7501H7V20.2501C6.05158 20.2501 5.39041 20.2493 4.87779 20.2029C4.37549 20.1574 4.0899 20.0727 3.875 19.9486C3.53296 19.7511 3.24892 19.4671 3.05144 19.1251C2.92737 18.9102 2.84271 18.6246 2.79718 18.1223C2.75072 17.6096 2.75 16.9485 2.75 16.0001H1.25ZM21.25 16.0001C21.25 16.9485 21.2493 17.6096 21.2028 18.1223C21.1573 18.6246 21.0726 18.9102 20.9486 19.1251C20.7511 19.4671 20.467 19.7511 20.125 19.9486C19.9101 20.0727 19.6245 20.1574 19.1222 20.2029C18.6096 20.2493 17.9484 20.2501 17 20.2501V21.7501H17.0358C17.94 21.7501 18.6693 21.7501 19.2576 21.6968C19.8639 21.6418 20.3937 21.5255 20.875 21.2477C21.4451 20.9185 21.9185 20.4451 22.2476 19.8751C22.5254 19.3938 22.6417 18.864 22.6967 18.2577C22.75 17.6694 22.75 16.9401 22.75 16.0359V16.0001H21.25ZM9.948 6.25006L10 6.25006H14L14.052 6.25006C14.9505 6.25003 15.6997 6.25001 16.2945 6.32997C16.9223 6.41438 17.4891 6.60005 17.9445 7.05552C18.4 7.51099 18.5857 8.07779 18.6701 8.70558C18.7501 9.30035 18.75 10.0496 18.75 10.948V10.948V10.9481L18.75 11.0001V13.0001L18.75 13.0521V13.0521V13.0521C18.75 13.9506 18.7501 14.6998 18.6701 15.2945C18.5857 15.9223 18.4 16.4891 17.9445 16.9446C17.4891 17.4001 16.9223 17.5857 16.2945 17.6701C15.6997 17.7501 14.9505 17.7501 14.052 17.7501H14.052L14 17.7501H10L9.94801 17.7501H9.94797C9.04951 17.7501 8.3003 17.7501 7.70552 17.6701C7.07773 17.5857 6.51093 17.4001 6.05546 16.9446C5.59999 16.4891 5.41432 15.9223 5.32991 15.2945C5.24994 14.6998 5.24997 13.9505 5.25 13.0521L5.25 13.0001V11.0001L5.25 10.9481C5.24997 10.0496 5.24994 9.30036 5.32991 8.70558C5.41432 8.07779 5.59999 7.51099 6.05546 7.05552C6.51093 6.60005 7.07773 6.41438 7.70552 6.32997C8.3003 6.25001 9.04952 6.25003 9.948 6.25006ZM17.1835 8.90545C17.2299 9.25095 17.244 9.68062 17.2482 10.2501H6.75181C6.75604 9.68062 6.77008 9.25095 6.81654 8.90545C6.87858 8.44399 6.9858 8.24649 7.11612 8.11618C7.24643 7.98586 7.44393 7.87864 7.90539 7.8166C8.38843 7.75165 9.03599 7.75006 10 7.75006H14C14.964 7.75006 15.6116 7.75165 16.0946 7.8166C16.5561 7.87864 16.7536 7.98586 16.8839 8.11618C17.0142 8.24649 17.1214 8.44399 17.1835 8.90545ZM17.25 11.7501H6.75V13.0001C6.75 13.9641 6.75159 14.6116 6.81654 15.0947C6.87858 15.5561 6.9858 15.7536 7.11612 15.8839C7.24643 16.0143 7.44393 16.1215 7.90539 16.1835C8.38843 16.2485 9.03599 16.2501 10 16.2501H14C14.964 16.2501 15.6116 16.2485 16.0946 16.1835C16.5561 16.1215 16.7536 16.0143 16.8839 15.8839C17.0142 15.7536 17.1214 15.5561 17.1835 15.0947C17.2484 14.6116 17.25 13.9641 17.25 13.0001V11.7501Z" fill="#22282F"/>
</svg>
