<svg width="24" height="24" viewBox="0 0 24 24" fill="none" xmlns="http://www.w3.org/2000/svg">
<path fill-rule="evenodd" clip-rule="evenodd" d="M8 4.25H7.94513C6.57754 4.24998 5.47522 4.24996 4.60825 4.36652C3.70814 4.48754 2.95027 4.74643 2.34835 5.34835C1.74643 5.95027 1.48754 6.70814 1.36652 7.60825C1.31805 7.9688 1.28974 8.37005 1.2732 8.81417C1.25805 8.87359 1.25 8.93586 1.25 9C1.25 9.04818 1.25454 9.0953 1.26323 9.14096C1.24998 9.68236 1.24999 10.2826 1.25 10.9451V11V13V13.0549C1.24998 14.4225 1.24996 15.5248 1.36652 16.3918C1.48754 17.2919 1.74643 18.0497 2.34835 18.6517C2.95027 19.2536 3.70814 19.5125 4.60825 19.6335C5.47521 19.75 6.57753 19.75 7.94511 19.75H7.94511H7.94512H7.94513H8H14C14.4142 19.75 14.75 19.4142 14.75 19C14.75 18.5858 14.4142 18.25 14 18.25H8C6.56458 18.25 5.56347 18.2484 4.80812 18.1469C4.07435 18.0482 3.68577 17.8678 3.40901 17.591C3.13225 17.3142 2.9518 16.9257 2.85315 16.1919C2.75159 15.4365 2.75 14.4354 2.75 13V11C2.75 10.541 2.75016 10.1264 2.75371 9.75H19.2463C19.2498 10.1264 19.25 10.541 19.25 11V13C19.25 13.4142 19.5858 13.75 20 13.75C20.4142 13.75 20.75 13.4142 20.75 13V11V10.9451V10.945C20.75 10.2825 20.75 9.68232 20.7368 9.14095C20.7455 9.09529 20.75 9.04818 20.75 9C20.75 8.93586 20.7419 8.87359 20.7268 8.81417C20.7103 8.37006 20.682 7.9688 20.6335 7.60825C20.5125 6.70814 20.2536 5.95027 19.6517 5.34835C19.0497 4.74643 18.2919 4.48754 17.3918 4.36652C16.5248 4.24996 15.4225 4.24998 14.0549 4.25H14H8ZM19.1933 8.25H2.80673C2.81924 8.09365 2.83451 7.94675 2.85315 7.80812C2.9518 7.07435 3.13225 6.68577 3.40901 6.40901C3.68577 6.13225 4.07435 5.9518 4.80812 5.85315C5.56347 5.75159 6.56458 5.75 8 5.75H14C15.4354 5.75 16.4365 5.75159 17.1919 5.85315C17.9257 5.9518 18.3142 6.13225 18.591 6.40901C18.8678 6.68577 19.0482 7.07435 19.1469 7.80812C19.1655 7.94675 19.1808 8.09365 19.1933 8.25ZM20.75 16.5C20.75 16.0858 20.4142 15.75 20 15.75C19.5858 15.75 19.25 16.0858 19.25 16.5V18.25H17.5C17.0858 18.25 16.75 18.5858 16.75 19C16.75 19.4142 17.0858 19.75 17.5 19.75H19.25V21.5C19.25 21.9142 19.5858 22.25 20 22.25C20.4142 22.25 20.75 21.9142 20.75 21.5V19.75H22.5C22.9142 19.75 23.25 19.4142 23.25 19C23.25 18.5858 22.9142 18.25 22.5 18.25H20.75V16.5ZM6 12.25C5.58579 12.25 5.25 12.5858 5.25 13C5.25 13.4142 5.58579 13.75 6 13.75H9C9.41421 13.75 9.75 13.4142 9.75 13C9.75 12.5858 9.41421 12.25 9 12.25H6Z" fill="#22282F"/>
</svg>
