<svg width="24" height="24" viewBox="0 0 24 24" fill="none" xmlns="http://www.w3.org/2000/svg">
<path fill-rule="evenodd" clip-rule="evenodd" d="M9 4.25H8.94513C7.57754 4.24998 6.47522 4.24996 5.60825 4.36652C4.70814 4.48754 3.95027 4.74643 3.34835 5.34835C2.74643 5.95027 2.48754 6.70814 2.36652 7.60825C2.31805 7.9688 2.28974 8.37006 2.2732 8.81417C2.25805 8.8736 2.25 8.93586 2.25 9C2.25 9.04818 2.25454 9.0953 2.26323 9.14095C2.24998 9.68236 2.24999 10.2826 2.25 10.9451L2.25 11V13.5C2.25 13.9142 2.58579 14.25 3 14.25C3.41421 14.25 3.75 13.9142 3.75 13.5V11C3.75 10.541 3.75016 10.1264 3.75371 9.75H20.2463C20.2498 10.1264 20.25 10.541 20.25 11V13C20.25 14.4354 20.2484 15.4365 20.1469 16.1919C20.0482 16.9257 19.8678 17.3142 19.591 17.591C19.3142 17.8678 18.9257 18.0482 18.1919 18.1469C17.4365 18.2484 16.4354 18.25 15 18.25H12C11.5858 18.25 11.25 18.5858 11.25 19C11.25 19.4142 11.5858 19.75 12 19.75H15H15.0549H15.0549H15.0549H15.0549C16.4225 19.75 17.5248 19.75 18.3918 19.6335C19.2919 19.5125 20.0497 19.2536 20.6517 18.6517C21.2536 18.0497 21.5125 17.2919 21.6335 16.3918C21.75 15.5248 21.75 14.4225 21.75 13.0549V13V11V10.9451V10.945C21.75 10.2825 21.75 9.68232 21.7368 9.14095C21.7455 9.09529 21.75 9.04818 21.75 9C21.75 8.93586 21.7419 8.87359 21.7268 8.81417C21.7103 8.37006 21.682 7.9688 21.6335 7.60825C21.5125 6.70814 21.2536 5.95027 20.6517 5.34835C20.0497 4.74643 19.2919 4.48754 18.3918 4.36652C17.5248 4.24996 16.4225 4.24998 15.0549 4.25H15H9ZM20.1933 8.25H3.80673C3.81924 8.09365 3.83451 7.94675 3.85315 7.80812C3.9518 7.07435 4.13225 6.68577 4.40901 6.40901C4.68577 6.13225 5.07435 5.9518 5.80812 5.85315C6.56347 5.75159 7.56458 5.75 9 5.75H15C16.4354 5.75 17.4365 5.75159 18.1919 5.85315C18.9257 5.9518 19.3142 6.13225 19.591 6.40901C19.8678 6.68577 20.0482 7.07435 20.1469 7.80812C20.1655 7.94675 20.1808 8.09365 20.1933 8.25ZM6.53033 16.4697C6.23744 16.1768 5.76256 16.1768 5.46967 16.4697C5.17678 16.7626 5.17678 17.2374 5.46967 17.5303L6.18934 18.25H2C1.58579 18.25 1.25 18.5858 1.25 19C1.25 19.4142 1.58579 19.75 2 19.75H6.18934L5.46967 20.4697C5.17678 20.7626 5.17678 21.2374 5.46967 21.5303C5.76256 21.8232 6.23744 21.8232 6.53033 21.5303L8.53033 19.5303C8.82322 19.2374 8.82322 18.7626 8.53033 18.4697L6.53033 16.4697ZM7 12.25C6.58579 12.25 6.25 12.5858 6.25 13C6.25 13.4142 6.58579 13.75 7 13.75H10C10.4142 13.75 10.75 13.4142 10.75 13C10.75 12.5858 10.4142 12.25 10 12.25H7Z" fill="#22282F"/>
</svg>
