<svg width="24" height="24" viewBox="0 0 24 24" fill="none" xmlns="http://www.w3.org/2000/svg">
<path fill-rule="evenodd" clip-rule="evenodd" d="M9 4.25H8.94513C7.57754 4.24998 6.47522 4.24996 5.60825 4.36652C4.70814 4.48754 3.95027 4.74643 3.34835 5.34835C2.74643 5.95027 2.48754 6.70814 2.36652 7.60825C2.31805 7.9688 2.28974 8.37005 2.2732 8.81417C2.25805 8.87359 2.25 8.93586 2.25 9C2.25 9.04818 2.25454 9.0953 2.26323 9.14096C2.24998 9.68236 2.24999 10.2826 2.25 10.9451V11V13V13.0549C2.24998 14.4225 2.24996 15.5248 2.36652 16.3918C2.48754 17.2919 2.74643 18.0497 3.34835 18.6517C3.95027 19.2536 4.70814 19.5125 5.60825 19.6335C6.47521 19.75 7.57753 19.75 8.94511 19.75H8.94511H8.94512H8.94513H9H12C12.4142 19.75 12.75 19.4142 12.75 19C12.75 18.5858 12.4142 18.25 12 18.25H9C7.56458 18.25 6.56347 18.2484 5.80812 18.1469C5.07435 18.0482 4.68577 17.8678 4.40901 17.591C4.13225 17.3142 3.9518 16.9257 3.85315 16.1919C3.75159 15.4365 3.75 14.4354 3.75 13V11C3.75 10.541 3.75016 10.1264 3.75371 9.75H20.2463C20.2498 10.1264 20.25 10.541 20.25 11V13C20.25 13.4142 20.5858 13.75 21 13.75C21.4142 13.75 21.75 13.4142 21.75 13V11V10.9451V10.945C21.75 10.2825 21.75 9.68232 21.7368 9.14095C21.7455 9.09529 21.75 9.04818 21.75 9C21.75 8.93586 21.7419 8.87359 21.7268 8.81417C21.7103 8.37006 21.682 7.9688 21.6335 7.60825C21.5125 6.70814 21.2536 5.95027 20.6517 5.34835C20.0497 4.74643 19.2919 4.48754 18.3918 4.36652C17.5248 4.24996 16.4225 4.24998 15.0549 4.25H15H9ZM20.1933 8.25H3.80673C3.81924 8.09365 3.83451 7.94675 3.85315 7.80812C3.9518 7.07435 4.13225 6.68577 4.40901 6.40901C4.68577 6.13225 5.07435 5.9518 5.80812 5.85315C6.56347 5.75159 7.56458 5.75 9 5.75H15C16.4354 5.75 17.4365 5.75159 18.1919 5.85315C18.9257 5.9518 19.3142 6.13225 19.591 6.40901C19.8678 6.68577 20.0482 7.07435 20.1469 7.80812C20.1655 7.94675 20.1808 8.09365 20.1933 8.25ZM20.5303 16.4697C20.2374 16.1768 19.7626 16.1768 19.4697 16.4697C19.1768 16.7626 19.1768 17.2374 19.4697 17.5303L20.1893 18.25H16C15.5858 18.25 15.25 18.5858 15.25 19C15.25 19.4142 15.5858 19.75 16 19.75H20.1893L19.4697 20.4697C19.1768 20.7626 19.1768 21.2374 19.4697 21.5303C19.7626 21.8232 20.2374 21.8232 20.5303 21.5303L22.5303 19.5303C22.8232 19.2374 22.8232 18.7626 22.5303 18.4697L20.5303 16.4697ZM7 12.25C6.58579 12.25 6.25 12.5858 6.25 13C6.25 13.4142 6.58579 13.75 7 13.75H10C10.4142 13.75 10.75 13.4142 10.75 13C10.75 12.5858 10.4142 12.25 10 12.25H7Z" fill="#22282F"/>
</svg>
