<svg width="24" height="24" viewBox="0 0 24 24" fill="none" xmlns="http://www.w3.org/2000/svg">
<path fill-rule="evenodd" clip-rule="evenodd" d="M12.75 3.00012C12.75 2.58591 12.4142 2.25012 12 2.25012C11.5858 2.25012 11.25 2.58591 11.25 3.00012V4.25012H9.90569C7.85265 4.25012 6.25 5.98678 6.25 8.0511C6.25 9.66384 7.234 11.1266 8.73907 11.6534L11.25 12.5322V18.2501H10.3333C8.94066 18.2501 7.75 17.0538 7.75 15.5001C7.75 15.0859 7.41421 14.7501 7 14.7501C6.58579 14.7501 6.25 15.0859 6.25 15.5001C6.25 17.8124 8.04411 19.7501 10.3333 19.7501H11.25V21.0001C11.25 21.4143 11.5858 21.7501 12 21.7501C12.4142 21.7501 12.75 21.4143 12.75 21.0001V19.7501H14.0943C16.1474 19.7501 17.75 18.0135 17.75 15.9491C17.75 14.3364 16.766 12.8736 15.2609 12.3468L12.75 11.468V5.75012H13.6667C15.0593 5.75012 16.25 6.94644 16.25 8.50012C16.25 8.91434 16.5858 9.25012 17 9.25012C17.4142 9.25012 17.75 8.91434 17.75 8.50012C17.75 6.18782 15.9559 4.25012 13.6667 4.25012H12.75V3.00012ZM11.25 5.75012H9.90569C8.7492 5.75012 7.75 6.7454 7.75 8.0511C7.75 9.06483 8.36663 9.93383 9.2346 10.2376L11.25 10.943V5.75012ZM12.75 13.0572V18.2501H14.0943C15.2508 18.2501 16.25 17.2548 16.25 15.9491C16.25 14.9354 15.6334 14.0664 14.7654 13.7626L12.75 13.0572Z" fill="#22282F"/>
</svg>
