<svg width="24" height="24" viewBox="0 0 24 24" fill="none" xmlns="http://www.w3.org/2000/svg">
<path fill-rule="evenodd" clip-rule="evenodd" d="M3.75 12.0001C3.75 7.44371 7.44365 3.75006 12 3.75006C16.5563 3.75006 20.25 7.44371 20.25 12.0001C20.25 16.5564 16.5563 20.2501 12 20.2501C7.44365 20.2501 3.75 16.5564 3.75 12.0001ZM12 2.25006C6.61522 2.25006 2.25 6.61528 2.25 12.0001C2.25 17.3848 6.61522 21.7501 12 21.7501C17.3848 21.7501 21.75 17.3848 21.75 12.0001C21.75 6.61528 17.3848 2.25006 12 2.25006ZM8.75 12.0001C8.75 11.9159 8.7532 11.8326 8.75947 11.7501H12C12.4142 11.7501 12.75 11.4143 12.75 11.0001C12.75 10.5858 12.4142 10.2501 12 10.2501H9.26091C9.83844 9.34798 10.8494 8.75006 12 8.75006C12.9706 8.75006 13.8411 9.17458 14.4377 9.85054C14.7118 10.1611 15.1857 10.1906 15.4963 9.91654C15.8069 9.64244 15.8364 9.16849 15.5623 8.85794C14.693 7.87306 13.4188 7.25006 12 7.25006C9.99465 7.25006 8.27954 8.49275 7.58276 10.2501H7C6.58579 10.2501 6.25 10.5858 6.25 11.0001C6.25 11.4143 6.58579 11.7501 7 11.7501H7.25647C7.25217 11.8329 7.25 11.9162 7.25 12.0001C7.25 12.0839 7.25217 12.1673 7.25647 12.2501H7C6.58579 12.2501 6.25 12.5858 6.25 13.0001C6.25 13.4143 6.58579 13.7501 7 13.7501H7.58276C8.27954 15.5074 9.99465 16.7501 12 16.7501C13.4188 16.7501 14.693 16.1271 15.5623 15.1422C15.8364 14.8316 15.8069 14.3577 15.4963 14.0836C15.1857 13.8095 14.7118 13.839 14.4377 14.1496C13.8411 14.8255 12.9706 15.2501 12 15.2501C10.8494 15.2501 9.83844 14.6521 9.26091 13.7501H11C11.4142 13.7501 11.75 13.4143 11.75 13.0001C11.75 12.5858 11.4142 12.2501 11 12.2501H8.75947C8.7532 12.1676 8.75 12.0842 8.75 12.0001Z" fill="#22282F"/>
</svg>
