<svg width="24" height="24" viewBox="0 0 24 24" fill="none" xmlns="http://www.w3.org/2000/svg">
<path fill-rule="evenodd" clip-rule="evenodd" d="M13 4.75012C9.96932 4.75012 7.37297 6.60972 6.28973 9.25012H13C13.4142 9.25012 13.75 9.58591 13.75 10.0001C13.75 10.4143 13.4142 10.7501 13 10.7501H5.85736C5.78679 11.1562 5.75 11.5739 5.75 12.0001C5.75 12.4264 5.78679 12.844 5.85736 13.2501H11C11.4142 13.2501 11.75 13.5859 11.75 14.0001C11.75 14.4143 11.4142 14.7501 11 14.7501H6.28973C7.37297 17.3905 9.96932 19.2501 13 19.2501C15.1653 19.2501 17.1081 18.3019 18.4377 16.7955C18.7118 16.4849 19.1857 16.4554 19.4963 16.7295C19.8069 17.0036 19.8364 17.4775 19.5623 17.7881C17.9601 19.6034 15.6135 20.7501 13 20.7501C9.1282 20.7501 5.84375 18.2354 4.69088 14.7501H3C2.58579 14.7501 2.25 14.4143 2.25 14.0001C2.25 13.5859 2.58579 13.2501 3 13.2501H4.33861C4.28022 12.8419 4.25 12.4245 4.25 12.0001C4.25 11.5757 4.28022 11.1584 4.33861 10.7501H3C2.58579 10.7501 2.25 10.4143 2.25 10.0001C2.25 9.58591 2.58579 9.25012 3 9.25012H4.69088C5.84375 5.76487 9.1282 3.25012 13 3.25012C15.6135 3.25012 17.9601 4.39687 19.5623 6.21217C19.8364 6.52273 19.8069 6.99668 19.4963 7.27078C19.1857 7.54488 18.7118 7.51533 18.4377 7.20477C17.1081 5.69839 15.1653 4.75012 13 4.75012Z" fill="#22282F"/>
</svg>
