<svg width="24" height="24" viewBox="0 0 24 24" fill="none" xmlns="http://www.w3.org/2000/svg">
<path fill-rule="evenodd" clip-rule="evenodd" d="M8 2.25L7.94512 2.25L7.94511 2.25C6.57753 2.24998 5.47521 2.24996 4.60825 2.36653C3.70814 2.48754 2.95027 2.74644 2.34835 3.34835C1.74643 3.95027 1.48754 4.70814 1.36652 5.60825C1.24996 6.47522 1.24998 7.57754 1.25 8.94513L1.25 9L1.25 15L1.25 15.0549L1.25 15.0549C1.24998 16.4225 1.24996 17.5248 1.36652 18.3918C1.48754 19.2919 1.74643 20.0497 2.34835 20.6517C2.95027 21.2536 3.70814 21.5125 4.60825 21.6335C5.47522 21.75 6.57754 21.75 7.94513 21.75L8 21.75L10 21.75L10.0549 21.75C11.4225 21.75 12.5248 21.75 13.3918 21.6335C14.2919 21.5125 15.0497 21.2536 15.6517 20.6517C16.2536 20.0497 16.5125 19.2919 16.6335 18.3918C16.6605 18.1906 16.6813 17.9768 16.6972 17.75L18 17.75L18.052 17.75L18.052 17.75C18.9505 17.75 19.6997 17.7501 20.2945 17.6701C20.9223 17.5857 21.4891 17.4 21.9445 16.9445C22.4 16.4891 22.5857 15.9223 22.6701 15.2945C22.7501 14.6998 22.75 13.9506 22.75 13.0523L22.75 13.0522L22.75 13.0522L22.75 13.0522L22.75 13.0522L22.75 13.0521L22.75 13.0521L22.75 13.0521L22.75 13.052L22.75 13.052L22.75 13L22.75 11L22.75 10.948C22.75 10.0495 22.7501 9.30031 22.6701 8.70552C22.5857 8.07773 22.4 7.51093 21.9445 7.05546C21.4891 6.59999 20.9223 6.41432 20.2945 6.32991C19.6997 6.24995 18.9505 6.24997 18.052 6.25L18 6.25L16.6972 6.25C16.6813 6.02317 16.6605 5.80938 16.6335 5.60825C16.5125 4.70814 16.2536 3.95027 15.6517 3.34835C15.0497 2.74644 14.2919 2.48754 13.3918 2.36653C12.5248 2.24996 11.4225 2.24998 10.0549 2.25L10 2.25L8 2.25ZM16.7466 7.75C16.75 8.12352 16.75 8.52159 16.75 8.9451L16.75 8.94513L16.75 9L16.75 9.25L21.2178 9.25C21.209 9.12608 21.1978 9.01175 21.1835 8.90539C21.1214 8.44393 21.0142 8.24644 20.8839 8.11612C20.7536 7.9858 20.5561 7.87858 20.0946 7.81654C19.6116 7.75159 18.964 7.75 18 7.75L16.7466 7.75ZM15.25 15L15.25 10.0005L15.25 10L15.25 9.99951L15.25 9C15.25 7.56459 15.2484 6.56347 15.1469 5.80812C15.0482 5.07435 14.8678 4.68578 14.591 4.40901C14.3142 4.13225 13.9257 3.9518 13.1919 3.85315C12.4365 3.7516 11.4354 3.75 10 3.75L8 3.75C6.56458 3.75 5.56347 3.7516 4.80812 3.85315C4.07434 3.9518 3.68577 4.13225 3.40901 4.40901C3.13225 4.68578 2.9518 5.07435 2.85315 5.80812C2.75159 6.56347 2.75 7.56459 2.75 9L2.75 15C2.75 16.4354 2.75159 17.4365 2.85315 18.1919C2.9518 18.9257 3.13225 19.3142 3.40901 19.591C3.68577 19.8678 4.07434 20.0482 4.80812 20.1469C5.56347 20.2484 6.56458 20.25 8 20.25L10 20.25C11.4354 20.25 12.4365 20.2484 13.1919 20.1469C13.9257 20.0482 14.3142 19.8678 14.591 19.591C14.8678 19.3142 15.0482 18.9257 15.1469 18.1919C15.2484 17.4365 15.25 16.4354 15.25 15ZM21.2499 10.75L16.75 10.75L16.75 15L16.75 15.0549L16.75 15.0549C16.75 15.4784 16.75 15.8765 16.7466 16.25L18 16.25C18.964 16.25 19.6116 16.2484 20.0946 16.1835C20.5561 16.1214 20.7536 16.0142 20.8839 15.8839C21.0142 15.7536 21.1214 15.5561 21.1835 15.0946C21.2484 14.6116 21.25 13.964 21.25 13L21.25 11L21.2499 10.75ZM7 5.25L6.91612 5.24994C6.53533 5.24954 6.2068 5.24919 5.91766 5.32667C5.1412 5.53472 4.53472 6.1412 4.32667 6.91766C4.24919 7.20681 4.24954 7.53533 4.24994 7.91612L4.25 8L4.24994 8.08388C4.24954 8.46468 4.24919 8.7932 4.32667 9.08235C4.53472 9.8588 5.1412 10.4653 5.91766 10.6733C6.2068 10.7508 6.53532 10.7505 6.91612 10.7501L7 10.75L11 10.75L11.0839 10.7501C11.4647 10.7505 11.7932 10.7508 12.0823 10.6733C12.8588 10.4653 13.4653 9.8588 13.6733 9.08234C13.7508 8.79321 13.7505 8.46469 13.7501 8.08391L13.7501 8.08389L13.75 8L13.7501 7.91612L13.7501 7.91611C13.7505 7.53532 13.7508 7.2068 13.6733 6.91766C13.4653 6.1412 12.8588 5.53472 12.0823 5.32667C11.7932 5.24919 11.4647 5.24954 11.0839 5.24994L11 5.25L7 5.25ZM6.30589 6.77556C6.37722 6.75644 6.48673 6.75 7 6.75L11 6.75C11.5133 6.75 11.6228 6.75644 11.6941 6.77556C11.9529 6.84491 12.1551 7.04707 12.2244 7.30589C12.2436 7.37722 12.25 7.48673 12.25 8C12.25 8.51327 12.2436 8.62278 12.2244 8.69412C12.1551 8.95294 11.9529 9.1551 11.6941 9.22445C11.6228 9.24356 11.5133 9.25 11 9.25L7 9.25C6.48673 9.25 6.37722 9.24356 6.30589 9.22445C6.04707 9.1551 5.84491 8.95294 5.77555 8.69412C5.75644 8.62278 5.75 8.51327 5.75 8C5.75 7.48673 5.75644 7.37722 5.77555 7.30589C5.84491 7.04707 6.04707 6.84491 6.30589 6.77556ZM7 14C7 14.5523 6.55228 15 6 15C5.44771 15 5 14.5523 5 14C5 13.4477 5.44771 13 6 13C6.55228 13 7 13.4477 7 14ZM6 18C6.55228 18 7 17.5523 7 17C7 16.4477 6.55228 16 6 16C5.44771 16 5 16.4477 5 17C5 17.5523 5.44771 18 6 18ZM10 14C10 14.5523 9.55228 15 9 15C8.44771 15 8 14.5523 8 14C8 13.4477 8.44771 13 9 13C9.55228 13 10 13.4477 10 14ZM9 18C9.55228 18 10 17.5523 10 17C10 16.4477 9.55228 16 9 16C8.44771 16 8 16.4477 8 17C8 17.5523 8.44771 18 9 18ZM13 14C13 14.5523 12.5523 15 12 15C11.4477 15 11 14.5523 11 14C11 13.4477 11.4477 13 12 13C12.5523 13 13 13.4477 13 14ZM12 18C12.5523 18 13 17.5523 13 17C13 16.4477 12.5523 16 12 16C11.4477 16 11 16.4477 11 17C11 17.5523 11.4477 18 12 18Z" fill="#22282F"/>
</svg>
