<svg width="24" height="24" viewBox="0 0 24 24" fill="none" xmlns="http://www.w3.org/2000/svg">
<path fill-rule="evenodd" clip-rule="evenodd" d="M17.3976 3.36422C17.7489 3.58376 17.8556 4.04647 17.6361 4.39772L7.6361 20.3977C7.41657 20.749 6.95385 20.8558 6.6026 20.6362C6.25135 20.4167 6.14457 19.954 6.3641 19.6027L16.3641 3.60272C16.5836 3.25147 17.0463 3.14469 17.3976 3.36422ZM6 4.75012C4.75736 4.75012 3.75 5.75748 3.75 7.00012C3.75 8.24276 4.75736 9.25012 6 9.25012C7.24264 9.25012 8.25 8.24276 8.25 7.00012C8.25 5.75748 7.24264 4.75012 6 4.75012ZM2.25 7.00012C2.25 4.92905 3.92893 3.25012 6 3.25012C8.07107 3.25012 9.75 4.92905 9.75 7.00012C9.75 9.07119 8.07107 10.7501 6 10.7501C3.92893 10.7501 2.25 9.07119 2.25 7.00012ZM15.75 17.0001C15.75 15.7575 16.7574 14.7501 18 14.7501C19.2426 14.7501 20.25 15.7575 20.25 17.0001C20.25 18.2428 19.2426 19.2501 18 19.2501C16.7574 19.2501 15.75 18.2428 15.75 17.0001ZM18 13.2501C15.9289 13.2501 14.25 14.9291 14.25 17.0001C14.25 19.0712 15.9289 20.7501 18 20.7501C20.0711 20.7501 21.75 19.0712 21.75 17.0001C21.75 14.9291 20.0711 13.2501 18 13.2501Z" fill="#22282F"/>
</svg>
