<svg width="24" height="24" viewBox="0 0 24 24" fill="none" xmlns="http://www.w3.org/2000/svg">
<path fill-rule="evenodd" clip-rule="evenodd" d="M3.75 12.0001C3.75 7.44371 7.44365 3.75006 12 3.75006C16.5563 3.75006 20.25 7.44371 20.25 12.0001C20.25 16.5564 16.5563 20.2501 12 20.2501C7.44365 20.2501 3.75 16.5564 3.75 12.0001ZM12 2.25006C6.61522 2.25006 2.25 6.61528 2.25 12.0001C2.25 17.3848 6.61522 21.7501 12 21.7501C17.3848 21.7501 21.75 17.3848 21.75 12.0001C21.75 6.61528 17.3848 2.25006 12 2.25006ZM15.6431 7.38593C15.8562 7.03075 15.7411 6.57005 15.3859 6.35694C15.0307 6.14383 14.57 6.259 14.3569 6.61419L8.35688 16.6142C8.14377 16.9694 8.25894 17.4301 8.61413 17.6432C8.96931 17.8563 9.43001 17.7411 9.64312 17.3859L15.6431 7.38593ZM8.5 8.75006C8.08579 8.75006 7.75 9.08585 7.75 9.50006C7.75 9.91427 8.08579 10.2501 8.5 10.2501C8.91421 10.2501 9.25 9.91427 9.25 9.50006C9.25 9.08585 8.91421 8.75006 8.5 8.75006ZM6.25 9.50006C6.25 8.25742 7.25736 7.25006 8.5 7.25006C9.74264 7.25006 10.75 8.25742 10.75 9.50006C10.75 10.7427 9.74264 11.7501 8.5 11.7501C7.25736 11.7501 6.25 10.7427 6.25 9.50006ZM14.75 14.5001C14.75 14.0858 15.0858 13.7501 15.5 13.7501C15.9142 13.7501 16.25 14.0858 16.25 14.5001C16.25 14.9143 15.9142 15.2501 15.5 15.2501C15.0858 15.2501 14.75 14.9143 14.75 14.5001ZM15.5 12.2501C14.2574 12.2501 13.25 13.2574 13.25 14.5001C13.25 15.7427 14.2574 16.7501 15.5 16.7501C16.7426 16.7501 17.75 15.7427 17.75 14.5001C17.75 13.2574 16.7426 12.2501 15.5 12.2501Z" fill="#22282F"/>
</svg>
