<svg width="24" height="24" viewBox="0 0 24 24" fill="none" xmlns="http://www.w3.org/2000/svg">
<path fill-rule="evenodd" clip-rule="evenodd" d="M14 3.75C14.964 3.75 15.6116 3.75159 16.0946 3.81654C16.5561 3.87858 16.7536 3.9858 16.8839 4.11612C17.0142 4.24643 17.1214 4.44393 17.1835 4.90539C17.2299 5.25089 17.244 5.68056 17.2482 6.25H16.1619L16.0549 6.25L16 6.25H12H4C3.30964 6.25 2.75 5.69036 2.75 5C2.75 4.30964 3.30964 3.75 4 3.75H14ZM1.25 5C1.25 3.48122 2.48122 2.25 4 2.25H14H14.052C14.9505 2.24997 15.6997 2.24995 16.2945 2.32991C16.9223 2.41432 17.4891 2.59999 17.9445 3.05546C18.4 3.51093 18.5857 4.07773 18.6701 4.70552C18.7301 5.15172 18.7451 5.68484 18.7488 6.30268C18.9761 6.31864 19.1903 6.33943 19.3918 6.36652C20.2919 6.48754 21.0497 6.74643 21.6517 7.34835C22.2536 7.95027 22.5125 8.70814 22.6335 9.60825C22.7202 10.2531 22.7424 11.0281 22.7481 11.9456C22.7493 11.9635 22.75 11.9817 22.75 12V12.8504C22.75 12.8819 22.75 12.9134 22.75 12.9451V13V15V15.0549C22.75 15.0866 22.75 15.1181 22.75 15.1496V16C22.75 16.0183 22.7493 16.0365 22.7481 16.0544C22.7424 16.9719 22.7202 17.7469 22.6335 18.3918C22.5125 19.2919 22.2536 20.0497 21.6517 20.6517C21.0497 21.2536 20.2919 21.5125 19.3918 21.6335C18.5248 21.75 17.4225 21.75 16.0549 21.75H16H8H7.94513C6.57754 21.75 5.47522 21.75 4.60825 21.6335C3.70814 21.5125 2.95027 21.2536 2.34835 20.6517C1.74643 20.0497 1.48754 19.2919 1.36652 18.3918C1.24996 17.5248 1.24998 16.4225 1.25 15.0549V15V5ZM21.25 15C21.25 15.0848 21.25 15.1682 21.25 15.25H20C19.3096 15.25 18.75 14.6904 18.75 14C18.75 13.3096 19.3096 12.75 20 12.75H21.25C21.25 12.8318 21.25 12.9152 21.25 13V15ZM21.2389 11.25H20C18.4812 11.25 17.25 12.4812 17.25 14C17.25 15.5188 18.4812 16.75 20 16.75H21.2389C21.2266 17.319 21.2009 17.7902 21.1469 18.1919C21.0482 18.9257 20.8678 19.3142 20.591 19.591C20.3142 19.8678 19.9257 20.0482 19.1919 20.1469C18.4365 20.2484 17.4354 20.25 16 20.25H8C6.56458 20.25 5.56347 20.2484 4.80812 20.1469C4.07435 20.0482 3.68577 19.8678 3.40901 19.591C3.13225 19.3142 2.9518 18.9257 2.85315 18.1919C2.75159 17.4365 2.75 16.4354 2.75 15V7.45015C3.12503 7.64186 3.54989 7.75 4 7.75H12H16C17.4354 7.75 18.4365 7.75159 19.1919 7.85315C19.9257 7.9518 20.3142 8.13225 20.591 8.40901C20.8678 8.68577 21.0482 9.07435 21.1469 9.80812C21.2009 10.2098 21.2266 10.681 21.2389 11.25ZM10 10.75C10.4142 10.75 10.75 11.0858 10.75 11.5V13.25H12.5C12.9142 13.25 13.25 13.5858 13.25 14C13.25 14.4142 12.9142 14.75 12.5 14.75H10.75V16.5C10.75 16.9142 10.4142 17.25 10 17.25C9.58579 17.25 9.25 16.9142 9.25 16.5V14.75H7.5C7.08579 14.75 6.75 14.4142 6.75 14C6.75 13.5858 7.08579 13.25 7.5 13.25H9.25V11.5C9.25 11.0858 9.58579 10.75 10 10.75Z" fill="#22282F"/>
</svg>
