<svg width="24" height="24" viewBox="0 0 24 24" fill="none" xmlns="http://www.w3.org/2000/svg">
<path fill-rule="evenodd" clip-rule="evenodd" d="M8.00003 0.25C8.41425 0.25 8.75003 0.585786 8.75003 1V2.25H13L13.0564 2.25C13.8586 2.24999 14.588 2.24999 15.25 2.26272V1C15.25 0.585786 15.5858 0.25 16 0.25C16.4142 0.25 16.75 0.585786 16.75 1V2.32709C17.01 2.34691 17.2561 2.37182 17.4891 2.40313C18.6615 2.56076 19.6104 2.89288 20.3588 3.64124C21.1072 4.38961 21.4393 5.33856 21.5969 6.51098C21.7501 7.65018 21.75 9.1058 21.75 10.9435V10.9436V11V13V13.0564V13.0565C21.75 14.8942 21.7501 16.3498 21.5969 17.489C21.4393 18.6614 21.1072 19.6104 20.3588 20.3588C19.6104 21.1071 18.6615 21.4392 17.4891 21.5969C16.3499 21.75 14.8943 21.75 13.0566 21.75H13.0565H13H11H10.9436H10.9435C9.1058 21.75 7.6502 21.75 6.51101 21.5969C5.33859 21.4392 4.38964 21.1071 3.64127 20.3588C2.89291 19.6104 2.56079 18.6614 2.40317 17.489C2.25 16.3498 2.25001 14.8943 2.25003 13.0566L2.25003 13.0565L2.25003 13.0565L2.25003 13.0564L2.25003 13V8.64706L2.25001 8.48999C2.24967 7.10812 2.24946 6.22688 2.49627 5.49049C2.96965 4.07812 4.07815 2.96962 5.49052 2.49624C5.97878 2.33259 6.53071 2.27754 7.25003 2.25912V1C7.25003 0.585786 7.58582 0.25 8.00003 0.25ZM15.25 3.76309V4C15.25 4.41421 15.5858 4.75 16 4.75C16.4142 4.75 16.75 4.41421 16.75 4V3.83168C16.9394 3.8477 17.1188 3.86685 17.2892 3.88976C18.2953 4.02502 18.8749 4.27869 19.2981 4.7019C19.7213 5.12511 19.975 5.70476 20.1103 6.71085C20.2484 7.73851 20.25 9.09318 20.25 11V13C20.25 14.9068 20.2484 16.2615 20.1103 17.2892C19.975 18.2952 19.7213 18.8749 19.2981 19.2981C18.8749 19.7213 18.2953 19.975 17.2892 20.1102C16.2615 20.2484 14.9069 20.25 13 20.25H11C9.09321 20.25 7.73854 20.2484 6.71088 20.1102C5.70479 19.975 5.12514 19.7213 4.70193 19.2981C4.27872 18.8749 4.02505 18.2952 3.88979 17.2892C3.75162 16.2615 3.75003 14.9068 3.75003 13V8.64706C3.75003 7.05384 3.75983 6.44061 3.91851 5.96718C4.2424 5.00082 5.00085 4.24237 5.96721 3.91848C6.26731 3.81789 6.62358 3.77713 7.25003 3.76077V4C7.25003 4.41421 7.58582 4.75 8.00003 4.75C8.41425 4.75 8.75003 4.41421 8.75003 4V3.75H13C13.854 3.75 14.5973 3.75032 15.25 3.76309ZM14.8201 14.0433C14.8166 15.2223 13.6376 16.0994 11.997 16.0994C10.3563 16.0994 9.1738 15.2223 9.17735 14.0433C9.1738 13.1342 9.86627 12.392 10.7541 12.2464V12.1967C9.97991 12.0405 9.44369 11.38 9.44724 10.5845C9.44369 9.45881 10.5232 8.62784 11.997 8.62784C13.4671 8.62784 14.5467 9.45881 14.5502 10.5845C14.5467 11.3835 14.0033 12.0405 13.2434 12.1967V12.2464C14.117 12.392 14.8166 13.1342 14.8201 14.0433ZM10.7754 13.9226C10.7754 14.5369 11.2654 14.9702 11.997 14.9702C12.7249 14.9702 13.2185 14.5405 13.2185 13.9226C13.2185 13.294 12.7001 12.8395 11.997 12.8395C11.2903 12.8395 10.7754 13.294 10.7754 13.9226ZM10.9458 10.7443C10.9458 11.3196 11.3826 11.7209 11.997 11.7209C12.6077 11.7209 13.0481 11.3196 13.0481 10.7443C13.0481 10.1797 12.6149 9.78551 11.997 9.78551C11.3755 9.78551 10.9458 10.1761 10.9458 10.7443Z" fill="#22282F"/>
</svg>
