<svg width="24" height="24" viewBox="0 0 24 24" fill="none" xmlns="http://www.w3.org/2000/svg">
<path fill-rule="evenodd" clip-rule="evenodd" d="M8 0.25C8.41421 0.25 8.75 0.585786 8.75 1V2.25031C8.92687 2.25 9.11051 2.25 9.30128 2.25L9.33333 2.25H13L13.0564 2.25C13.8586 2.24999 14.588 2.24999 15.25 2.26272V1C15.25 0.585786 15.5858 0.25 16 0.25C16.4142 0.25 16.75 0.585786 16.75 1V2.32709C17.0099 2.34691 17.2561 2.37182 17.489 2.40313C18.6614 2.56076 19.6104 2.89288 20.3588 3.64124C21.1071 4.38961 21.4392 5.33855 21.5969 6.51098C21.75 7.65018 21.75 9.1058 21.75 10.9435V10.9436V11V13V13.0564V13.0565C21.75 14.8942 21.75 16.3498 21.5969 17.489C21.4392 18.6614 21.1071 19.6104 20.3588 20.3588C19.6104 21.1071 18.6614 21.4392 17.489 21.5969C16.3498 21.75 14.8942 21.75 13.0565 21.75H13.0564H13H11H10.9436H10.9435C9.1058 21.75 7.65018 21.75 6.51098 21.5969C5.33855 21.4392 4.38961 21.1071 3.64124 20.3588C2.89288 19.6104 2.56076 18.6614 2.40313 17.489C2.24997 16.3498 2.24998 14.8942 2.25 13.0564V13V9.33333V9.30128C2.24999 8.23977 2.24999 7.39854 2.30392 6.71986C2.35906 6.02597 2.47407 5.43809 2.73985 4.89913C3.20233 3.96133 3.96133 3.20233 4.89913 2.73985C5.43809 2.47407 6.02597 2.35906 6.71986 2.30392C6.88649 2.29068 7.06292 2.28069 7.25 2.27315V1C7.25 0.585786 7.58579 0.25 8 0.25ZM15.25 3.76309V4C15.25 4.41421 15.5858 4.75 16 4.75C16.4142 4.75 16.75 4.41421 16.75 4V3.83168C16.9394 3.8477 17.1188 3.86685 17.2892 3.88976C18.2952 4.02502 18.8749 4.27869 19.2981 4.7019C19.7213 5.12511 19.975 5.70476 20.1102 6.71085C20.2484 7.73851 20.25 9.09318 20.25 11V13C20.25 14.9068 20.2484 16.2615 20.1102 17.2892C19.975 18.2952 19.7213 18.8749 19.2981 19.2981C18.8749 19.7213 18.2952 19.975 17.2892 20.1102C16.2615 20.2484 14.9068 20.25 13 20.25H11C9.09318 20.25 7.73851 20.2484 6.71085 20.1102C5.70476 19.975 5.12511 19.7213 4.7019 19.2981C4.27869 18.8749 4.02502 18.2952 3.88976 17.2892C3.75159 16.2615 3.75 14.9068 3.75 13V9.33333C3.75 8.23265 3.75055 7.45098 3.79921 6.83868C3.84719 6.23478 3.93844 5.86008 4.08516 5.56256C4.40159 4.92091 4.92091 4.40159 5.56256 4.08516C5.86008 3.93844 6.23478 3.84719 6.83868 3.79921C6.96779 3.78895 7.10443 3.78083 7.25 3.7744V4C7.25 4.41421 7.58579 4.75 8 4.75C8.41421 4.75 8.75 4.41421 8.75 4V3.75037C8.934 3.75002 9.12812 3.75 9.33333 3.75H13C13.854 3.75 14.5973 3.75032 15.25 3.76309ZM12 7.75C11.3096 7.75 10.75 8.30964 10.75 9C10.75 9.69036 11.3096 10.25 12 10.25C12.6904 10.25 13.25 9.69036 13.25 9C13.25 8.30964 12.6904 7.75 12 7.75ZM9.25 9C9.25 7.48122 10.4812 6.25 12 6.25C13.5188 6.25 14.75 7.48122 14.75 9C14.75 10.5188 13.5188 11.75 12 11.75C10.4812 11.75 9.25 10.5188 9.25 9ZM10 13.25C8.48122 13.25 7.25 14.4812 7.25 16C7.25 16.9665 8.0335 17.75 9 17.75H15C15.9665 17.75 16.75 16.9665 16.75 16C16.75 14.4812 15.5188 13.25 14 13.25H10ZM8.75 16C8.75 15.3096 9.30964 14.75 10 14.75H14C14.6904 14.75 15.25 15.3096 15.25 16C15.25 16.1381 15.1381 16.25 15 16.25H9C8.86193 16.25 8.75 16.1381 8.75 16Z" fill="#22282F"/>
</svg>
