<svg width="24" height="24" viewBox="0 0 24 24" fill="none" xmlns="http://www.w3.org/2000/svg">
<path fill-rule="evenodd" clip-rule="evenodd" d="M8.75003 1C8.75003 0.585786 8.41425 0.25 8.00003 0.25C7.58582 0.25 7.25003 0.585786 7.25003 1V2.25912C6.53071 2.27754 5.97878 2.33259 5.49052 2.49624C4.07815 2.96962 2.96965 4.07812 2.49627 5.49049C2.24946 6.22688 2.24967 7.10812 2.25001 8.48999L2.25003 8.64706V13L2.25003 13.0564L2.25003 13.0565L2.25003 13.0565L2.25003 13.0566C2.25001 14.8943 2.25 16.3498 2.40317 17.489C2.56079 18.6614 2.89291 19.6104 3.64127 20.3588C4.38964 21.1071 5.33859 21.4392 6.51101 21.5969C7.6502 21.75 9.1058 21.75 10.9435 21.75H10.9436H11H13H13.0565H13.0566C14.8943 21.75 16.3499 21.75 17.4891 21.5969C18.6615 21.4392 19.6104 21.1071 20.3588 20.3588C21.1072 19.6104 21.4393 18.6614 21.5969 17.489C21.7501 16.3498 21.75 14.8942 21.75 13.0565V13.0564V13V11V10.9436V10.9435C21.75 9.1058 21.7501 7.65018 21.5969 6.51098C21.4393 5.33856 21.1072 4.38961 20.3588 3.64124C19.6104 2.89288 18.6615 2.56076 17.4891 2.40313C17.2561 2.37182 17.01 2.34691 16.75 2.32709V1C16.75 0.585786 16.4142 0.25 16 0.25C15.5858 0.25 15.25 0.585786 15.25 1V2.26272C14.588 2.24999 13.8586 2.24999 13.0564 2.25L13 2.25H8.75003V1ZM15.25 4V3.76309C14.5973 3.75032 13.854 3.75 13 3.75H8.75003V4C8.75003 4.41421 8.41425 4.75 8.00003 4.75C7.58582 4.75 7.25003 4.41421 7.25003 4V3.76077C6.62358 3.77713 6.26731 3.81789 5.96721 3.91848C5.00085 4.24237 4.2424 5.00082 3.91851 5.96718C3.75983 6.44061 3.75003 7.05384 3.75003 8.64706V13C3.75003 14.9068 3.75162 16.2615 3.88979 17.2892C4.02505 18.2952 4.27872 18.8749 4.70193 19.2981C5.12514 19.7213 5.70479 19.975 6.71088 20.1102C7.73854 20.2484 9.09321 20.25 11 20.25H13C14.9069 20.25 16.2615 20.2484 17.2892 20.1102C18.2953 19.975 18.8749 19.7213 19.2981 19.2981C19.7213 18.8749 19.975 18.2952 20.1103 17.2892C20.2484 16.2615 20.25 14.9068 20.25 13V11C20.25 9.09318 20.2484 7.73851 20.1103 6.71085C19.975 5.70476 19.7213 5.12511 19.2981 4.7019C18.8749 4.27869 18.2953 4.02502 17.2892 3.88976C17.1188 3.86685 16.9394 3.8477 16.75 3.83168V4C16.75 4.41421 16.4142 4.75 16 4.75C15.5858 4.75 15.25 4.41421 15.25 4ZM8 11.25C7.58579 11.25 7.25 11.5858 7.25 12C7.25 12.4142 7.58579 12.75 8 12.75H12H16C16.4142 12.75 16.75 12.4142 16.75 12C16.75 11.5858 16.4142 11.25 16 11.25H12H8Z" fill="#22282F"/>
</svg>
