<svg width="24" height="24" viewBox="0 0 24 24" fill="none" xmlns="http://www.w3.org/2000/svg">
<path fill-rule="evenodd" clip-rule="evenodd" d="M5.53033 2.53033C5.82322 2.23744 5.82322 1.76256 5.53033 1.46967C5.23744 1.17678 4.76256 1.17678 4.46967 1.46967L1.46967 4.46967C1.17678 4.76256 1.17678 5.23744 1.46967 5.53033C1.76256 5.82322 2.23744 5.82322 2.53033 5.53033L5.53033 2.53033ZM3.75 12C3.75 7.44365 7.44365 3.75 12 3.75C16.5563 3.75 20.25 7.44365 20.25 12C20.25 16.5563 16.5563 20.25 12 20.25C7.44365 20.25 3.75 16.5563 3.75 12ZM12 2.25C6.61522 2.25 2.25 6.61522 2.25 12C2.25 17.3848 6.61522 21.75 12 21.75C17.3848 21.75 21.75 17.3848 21.75 12C21.75 6.61522 17.3848 2.25 12 2.25ZM18.4697 1.46967C18.1768 1.76256 18.1768 2.23744 18.4697 2.53033L21.4697 5.53033C21.7626 5.82322 22.2374 5.82322 22.5303 5.53033C22.8232 5.23744 22.8232 4.76256 22.5303 4.46967L19.5303 1.46967C19.2374 1.17678 18.7626 1.17678 18.4697 1.46967ZM16.5303 9.53033C16.8232 9.23744 16.8232 8.76256 16.5303 8.46967C16.2374 8.17678 15.7626 8.17678 15.4697 8.46967L11 12.9393L9.53033 11.4697C9.23744 11.1768 8.76256 11.1768 8.46967 11.4697C8.17678 11.7626 8.17678 12.2374 8.46967 12.5303L10.4697 14.5303C10.6103 14.671 10.8011 14.75 11 14.75C11.1989 14.75 11.3897 14.671 11.5303 14.5303L16.5303 9.53033Z" fill="#22282F"/>
</svg>
