<svg width="24" height="24" viewBox="0 0 24 24" fill="none" xmlns="http://www.w3.org/2000/svg">
<path fill-rule="evenodd" clip-rule="evenodd" d="M5.53033 2.53033C5.82322 2.23744 5.82322 1.76256 5.53033 1.46967C5.23744 1.17678 4.76256 1.17678 4.46967 1.46967L1.46967 4.46967C1.17678 4.76256 1.17678 5.23744 1.46967 5.53033C1.76256 5.82322 2.23744 5.82322 2.53033 5.53033L5.53033 2.53033ZM3.75 12C3.75 7.44365 7.44365 3.75 12 3.75C16.5563 3.75 20.25 7.44365 20.25 12C20.25 16.5563 16.5563 20.25 12 20.25C7.44365 20.25 3.75 16.5563 3.75 12ZM12 2.25C6.61522 2.25 2.25 6.61522 2.25 12C2.25 17.3848 6.61522 21.75 12 21.75C17.3848 21.75 21.75 17.3848 21.75 12C21.75 6.61522 17.3848 2.25 12 2.25ZM18.4697 1.46967C18.1768 1.76256 18.1768 2.23744 18.4697 2.53033L21.4697 5.53033C21.7626 5.82322 22.2374 5.82322 22.5303 5.53033C22.8232 5.23744 22.8232 4.76256 22.5303 4.46967L19.5303 1.46967C19.2374 1.17678 18.7626 1.17678 18.4697 1.46967ZM12.75 8C12.75 7.58579 12.4142 7.25 12 7.25C11.5858 7.25 11.25 7.58579 11.25 8V11.25H7.99997C7.58576 11.25 7.24997 11.5858 7.24997 12C7.24997 12.4142 7.58576 12.75 7.99997 12.75H11.25V16C11.25 16.4142 11.5858 16.75 12 16.75C12.4142 16.75 12.75 16.4142 12.75 16V12.75H16C16.4142 12.75 16.75 12.4142 16.75 12C16.75 11.5858 16.4142 11.25 16 11.25H12.75V8Z" fill="#22282F"/>
</svg>
