<svg width="24" height="24" viewBox="0 0 24 24" fill="none" xmlns="http://www.w3.org/2000/svg">
<path fill-rule="evenodd" clip-rule="evenodd" d="M5.53033 2.53033C5.82322 2.23744 5.82322 1.76256 5.53033 1.46967C5.23744 1.17678 4.76256 1.17678 4.46967 1.46967L1.46967 4.46967C1.17678 4.76256 1.17678 5.23744 1.46967 5.53033C1.76256 5.82322 2.23744 5.82322 2.53033 5.53033L5.53033 2.53033ZM3.75 12C3.75 7.44365 7.44365 3.75 12 3.75C16.5563 3.75 20.25 7.44365 20.25 12C20.25 16.5563 16.5563 20.25 12 20.25C7.44365 20.25 3.75 16.5563 3.75 12ZM12 2.25C6.61522 2.25 2.25 6.61522 2.25 12C2.25 17.3848 6.61522 21.75 12 21.75C17.3848 21.75 21.75 17.3848 21.75 12C21.75 6.61522 17.3848 2.25 12 2.25ZM18.4697 1.46967C18.1768 1.76256 18.1768 2.23744 18.4697 2.53033L21.4697 5.53033C21.7626 5.82322 22.2374 5.82322 22.5303 5.53033C22.8232 5.23744 22.8232 4.76256 22.5303 4.46967L19.5303 1.46967C19.2374 1.17678 18.7626 1.17678 18.4697 1.46967ZM10 8.25C9.58579 8.25 9.25 8.58579 9.25 9C9.25 9.41421 9.58579 9.75 10 9.75H12.5986L9.37596 14.584C9.22253 14.8141 9.20823 15.11 9.33874 15.3539C9.46926 15.5978 9.7234 15.75 10 15.75H14C14.4142 15.75 14.75 15.4142 14.75 15C14.75 14.5858 14.4142 14.25 14 14.25H11.4014L14.624 9.41603C14.7775 9.18588 14.7918 8.88997 14.6613 8.64611C14.5307 8.40224 14.2766 8.25 14 8.25H10Z" fill="#22282F"/>
</svg>
