<svg width="24" height="24" viewBox="0 0 24 24" fill="none" xmlns="http://www.w3.org/2000/svg">
<path fill-rule="evenodd" clip-rule="evenodd" d="M18.4697 2.53033C18.1768 2.23744 18.1768 1.76256 18.4697 1.46967C18.7626 1.17678 19.2374 1.17678 19.5303 1.46967L22.5303 4.46967C22.8232 4.76256 22.8232 5.23744 22.5303 5.53033C22.2374 5.82322 21.7626 5.82322 21.4697 5.53033L18.4697 2.53033ZM3.53033 2.46967C3.38968 2.32902 3.19891 2.25 3 2.25C2.80109 2.25 2.61032 2.32902 2.46967 2.46967L0.96967 3.96967C0.676777 4.26256 0.676777 4.73744 0.96967 5.03033C1.26256 5.32322 1.73744 5.32322 2.03033 5.03033L3 4.06066L4.5957 5.65636C3.13402 7.36105 2.25 9.57787 2.25 12C2.25 17.3848 6.61522 21.75 12 21.75C14.4221 21.75 16.6389 20.866 18.3436 19.4043L20.4697 21.5303C20.7626 21.8232 21.2374 21.8232 21.5303 21.5303C21.8232 21.2374 21.8232 20.7626 21.5303 20.4697L18.8943 17.8336L6.16637 5.10571L3.53033 2.46967ZM3.75 12C3.75 9.99158 4.46691 8.15171 5.66002 6.72068L17.2793 18.34C15.8483 19.5331 14.0084 20.25 12 20.25C7.44365 20.25 3.75 16.5563 3.75 12ZM8.33377 4.60716C9.43734 4.05873 10.6815 3.75 12 3.75C16.5563 3.75 20.25 7.44365 20.25 12C20.25 13.3185 19.9413 14.5627 19.3928 15.6662C19.2085 16.0372 19.3598 16.4873 19.7307 16.6716C20.1016 16.856 20.5518 16.7047 20.7361 16.3338C21.3853 15.0274 21.75 13.5552 21.75 12C21.75 6.61522 17.3848 2.25 12 2.25C10.4448 2.25 8.97258 2.61468 7.66623 3.26388C7.29529 3.44822 7.14403 3.89836 7.32836 4.26929C7.5127 4.64023 7.96284 4.79149 8.33377 4.60716Z" fill="#22282F"/>
</svg>
