<svg width="24" height="24" viewBox="0 0 24 24" fill="none" xmlns="http://www.w3.org/2000/svg">
<g clip-path="url(#clip0)">
<path fill-rule="evenodd" clip-rule="evenodd" d="M9.25 1C9.25 0.585789 9.58578 0.250001 10 0.250002L14 0.250002C14.4142 0.250002 14.75 0.585789 14.75 1C14.75 1.41422 14.4142 1.75 14 1.75L10 1.75C9.58578 1.75 9.25 1.41422 9.25 1ZM3.75 13C3.75 8.44365 7.44365 4.75 12 4.75C16.5563 4.75 20.25 8.44365 20.25 13C20.25 17.5564 16.5563 21.25 12 21.25L7 21.25C6.58578 21.25 6.25 21.5858 6.25 22C6.25 22.4142 6.58578 22.75 7 22.75L12 22.75C17.3848 22.75 21.75 18.3848 21.75 13C21.75 7.61523 17.3848 3.25 12 3.25C6.61522 3.25 2.25 7.61523 2.25 13C2.25 13.4142 2.58578 13.75 3 13.75C3.41421 13.75 3.75 13.4142 3.75 13ZM1.25 16C1.25 15.5858 1.58578 15.25 2 15.25L7 15.25C7.41421 15.25 7.75 15.5858 7.75 16C7.75 16.4142 7.41421 16.75 7 16.75L2 16.75C1.58578 16.75 1.25 16.4142 1.25 16ZM3.25 19C3.25 18.5858 3.58578 18.25 4 18.25L10 18.25C10.4142 18.25 10.75 18.5858 10.75 19C10.75 19.4142 10.4142 19.75 10 19.75L4 19.75C3.58578 19.75 3.25 19.4142 3.25 19ZM12.75 10C12.75 9.58579 12.4142 9.25 12 9.25C11.5858 9.25 11.25 9.58579 11.25 10L11.25 14C11.25 14.4142 11.5858 14.75 12 14.75C12.4142 14.75 12.75 14.4142 12.75 14L12.75 10Z" fill="#22282F"/>
</g>
<defs>
<clipPath id="clip0">
<rect width="24" height="24" fill="white"/>
</clipPath>
</defs>
</svg>
