<svg width="24" height="24" viewBox="0 0 24 24" fill="none" xmlns="http://www.w3.org/2000/svg">
<path fill-rule="evenodd" clip-rule="evenodd" d="M10 0.25C9.58579 0.25 9.25 0.585786 9.25 1C9.25 1.41421 9.58579 1.75 10 1.75H14C14.4142 1.75 14.75 1.41421 14.75 1C14.75 0.585786 14.4142 0.25 14 0.25H10ZM3.53033 3.46967C3.23744 3.17678 2.76256 3.17678 2.46967 3.46967C2.17678 3.76256 2.17678 4.23744 2.46967 4.53033L4.5957 6.65636C3.13402 8.36105 2.25 10.5779 2.25 13C2.25 18.3848 6.61522 22.75 12 22.75C14.4221 22.75 16.639 21.866 18.3436 20.4043L20.4697 22.5303C20.7626 22.8232 21.2374 22.8232 21.5303 22.5303C21.8232 22.2374 21.8232 21.7626 21.5303 21.4697L18.8943 18.8336L12.5303 12.4697L6.16637 6.10571L3.53033 3.46967ZM3.75 13C3.75 10.9916 4.46691 9.15171 5.66002 7.72068L11.4697 13.5303L17.2793 19.34C15.8483 20.5331 14.0084 21.25 12 21.25C7.44365 21.25 3.75 17.5564 3.75 13ZM8.33377 5.60716C9.43734 5.05873 10.6815 4.75 12 4.75C14.2784 4.75 16.3399 5.67259 17.8336 7.16637C19.3274 8.66015 20.25 10.7216 20.25 13C20.25 14.3185 19.9413 15.5627 19.3928 16.6662C19.2085 17.0372 19.3598 17.4873 19.7307 17.6716C20.1016 17.856 20.5518 17.7047 20.7361 17.3338C21.3853 16.0274 21.75 14.5552 21.75 13C21.75 10.5779 20.866 8.36105 19.4043 6.65636L21.0303 5.03033C21.3232 4.73744 21.3232 4.26256 21.0303 3.96967C20.7374 3.67678 20.2626 3.67678 19.9697 3.96967L18.3436 5.5957C16.639 4.13402 14.4221 3.25 12 3.25C10.4448 3.25 8.97258 3.61468 7.66623 4.26388C7.29529 4.44822 7.14403 4.89836 7.32836 5.26929C7.5127 5.64023 7.96284 5.79149 8.33377 5.60716Z" fill="#22282F"/>
</svg>
