<svg width="24" height="24" viewBox="0 0 24 24" fill="none" xmlns="http://www.w3.org/2000/svg">
<path fill-rule="evenodd" clip-rule="evenodd" d="M10 0.25C9.58579 0.25 9.25 0.585786 9.25 1C9.25 1.41421 9.58579 1.75 10 1.75H14C14.4142 1.75 14.75 1.41421 14.75 1C14.75 0.585786 14.4142 0.25 14 0.25H10ZM12 4.75C7.44365 4.75 3.75 8.44365 3.75 13C3.75 17.5564 7.44365 21.25 12 21.25C16.5563 21.25 20.25 17.5564 20.25 13C20.25 10.7216 19.3274 8.66015 17.8336 7.16637C16.3399 5.67259 14.2784 4.75 12 4.75ZM2.25 13C2.25 7.61522 6.61522 3.25 12 3.25C14.4221 3.25 16.639 4.13402 18.3436 5.5957L19.9697 3.96967C20.2626 3.67678 20.7374 3.67678 21.0303 3.96967C21.3232 4.26256 21.3232 4.73744 21.0303 5.03033L19.4043 6.65636C20.866 8.36105 21.75 10.5779 21.75 13C21.75 18.3848 17.3848 22.75 12 22.75C6.61522 22.75 2.25 18.3848 2.25 13ZM12 9.25C12.4142 9.25 12.75 9.58579 12.75 10V14C12.75 14.4142 12.4142 14.75 12 14.75C11.5858 14.75 11.25 14.4142 11.25 14V10C11.25 9.58579 11.5858 9.25 12 9.25Z" fill="#22282F"/>
</svg>
