<svg width="24" height="24" viewBox="0 0 24 24" fill="none" xmlns="http://www.w3.org/2000/svg">
<path fill-rule="evenodd" clip-rule="evenodd" d="M11.25 3C11.25 2.58579 11.5858 2.25 12 2.25C17.3848 2.25 21.75 6.61522 21.75 12C21.75 17.3848 17.3848 21.75 12 21.75C6.61522 21.75 2.25 17.3848 2.25 12C2.25 9.30782 3.34213 6.86929 5.10571 5.10571C5.3986 4.81282 5.87348 4.81282 6.16637 5.10571C6.45926 5.3986 6.45926 5.87348 6.16637 6.16637C4.67259 7.66015 3.75 9.72162 3.75 12C3.75 16.5563 7.44365 20.25 12 20.25C16.5563 20.25 20.25 16.5563 20.25 12C20.25 7.69647 16.9549 4.16255 12.75 3.78363V6C12.75 6.41421 12.4142 6.75 12 6.75C11.5858 6.75 11.25 6.41421 11.25 6V3ZM8.46967 8.46967C8.76256 8.17678 9.23744 8.17678 9.53033 8.46967L12.5303 11.4697C12.8232 11.7626 12.8232 12.2374 12.5303 12.5303C12.2374 12.8232 11.7626 12.8232 11.4697 12.5303L8.46967 9.53033C8.17678 9.23744 8.17678 8.76256 8.46967 8.46967Z" fill="#22282F"/>
</svg>
