<svg width="24" height="24" viewBox="0 0 24 24" fill="none" xmlns="http://www.w3.org/2000/svg">
<path fill-rule="evenodd" clip-rule="evenodd" d="M12 2.75C8.54822 2.75 5.75 5.54822 5.75 9C5.75 9.0376 5.75033 9.0751 5.75099 9.11252C5.7571 9.45969 5.52413 9.76566 5.18784 9.85211C3.78548 10.2126 2.75 11.4863 2.75 13C2.75 14.202 3.40216 15.2526 4.37554 15.8157C4.73409 16.0231 4.85661 16.4819 4.6492 16.8404C4.4418 17.199 3.983 17.3215 3.62446 17.1141C2.20663 16.2939 1.25 14.7591 1.25 13C1.25 10.9897 2.49832 9.27243 4.26126 8.57854C4.48014 4.49432 7.8612 1.25 12 1.25C15.512 1.25 18.4768 3.58539 19.4293 6.78706C21.3898 7.70217 22.75 9.69141 22.75 12C22.75 13.8817 21.8454 15.5523 20.4504 16.6C20.1192 16.8488 19.6491 16.782 19.4003 16.4508C19.1516 16.1196 19.2184 15.6495 19.5496 15.4007C20.5835 14.624 21.25 13.39 21.25 12C21.25 10.1935 20.1226 8.64848 18.5304 8.03365C18.3014 7.94523 18.1301 7.75035 18.0719 7.51188C17.4045 4.7782 14.9382 2.75 12 2.75ZM9 12.25C9.41421 12.25 9.75 12.5858 9.75 13V15C9.75 15.4142 9.41421 15.75 9 15.75C8.58579 15.75 8.25 15.4142 8.25 15V13C8.25 12.5858 8.58579 12.25 9 12.25ZM9.75 18C9.75 17.5858 9.41421 17.25 9 17.25C8.58579 17.25 8.25 17.5858 8.25 18V20C8.25 20.4142 8.58579 20.75 9 20.75C9.41421 20.75 9.75 20.4142 9.75 20V18ZM15 12.25C15.4142 12.25 15.75 12.5858 15.75 13V15C15.75 15.4142 15.4142 15.75 15 15.75C14.5858 15.75 14.25 15.4142 14.25 15V13C14.25 12.5858 14.5858 12.25 15 12.25ZM15.75 18C15.75 17.5858 15.4142 17.25 15 17.25C14.5858 17.25 14.25 17.5858 14.25 18V20C14.25 20.4142 14.5858 20.75 15 20.75C15.4142 20.75 15.75 20.4142 15.75 20V18ZM12 13.25C12.4142 13.25 12.75 13.5858 12.75 14V16C12.75 16.4142 12.4142 16.75 12 16.75C11.5858 16.75 11.25 16.4142 11.25 16V14C11.25 13.5858 11.5858 13.25 12 13.25ZM12.75 19C12.75 18.5858 12.4142 18.25 12 18.25C11.5858 18.25 11.25 18.5858 11.25 19V21C11.25 21.4142 11.5858 21.75 12 21.75C12.4142 21.75 12.75 21.4142 12.75 21V19Z" fill="#22282F"/>
</svg>
