<svg width="24" height="24" viewBox="0 0 24 24" fill="none" xmlns="http://www.w3.org/2000/svg">
<path fill-rule="evenodd" clip-rule="evenodd" d="M5.75 11C5.75 7.54822 8.54822 4.75 12 4.75C14.9382 4.75 17.4045 6.7782 18.0719 9.51188C18.1301 9.75035 18.3014 9.94523 18.5304 10.0337C20.1226 10.6485 21.25 12.1935 21.25 14C21.25 16.3472 19.3472 18.25 17 18.25H6C4.20507 18.25 2.75 16.7949 2.75 15C2.75 13.4863 3.78548 12.2126 5.18784 11.8521C5.52413 11.7657 5.7571 11.4597 5.75099 11.1125C5.75033 11.0751 5.75 11.0376 5.75 11ZM12 3.25C7.8612 3.25 4.48014 6.49432 4.26126 10.5785C2.49832 11.2724 1.25 12.9897 1.25 15C1.25 17.6234 3.37665 19.75 6 19.75H17C20.1756 19.75 22.75 17.1756 22.75 14C22.75 11.6914 21.3898 9.70217 19.4293 8.78706C18.4768 5.58539 15.512 3.25 12 3.25ZM10.5303 10.4697C10.2374 10.1768 9.76256 10.1768 9.46967 10.4697C9.17678 10.7626 9.17678 11.2374 9.46967 11.5303L10.9393 13L9.46967 14.4697C9.17678 14.7626 9.17678 15.2374 9.46967 15.5303C9.76256 15.8232 10.2374 15.8232 10.5303 15.5303L12 14.0607L13.4697 15.5303C13.7626 15.8232 14.2374 15.8232 14.5303 15.5303C14.8232 15.2374 14.8232 14.7626 14.5303 14.4697L13.0607 13L14.5303 11.5303C14.8232 11.2374 14.8232 10.7626 14.5303 10.4697C14.2374 10.1768 13.7626 10.1768 13.4697 10.4697L12 11.9393L10.5303 10.4697Z" fill="#22282F"/>
</svg>
