<svg width="24" height="24" viewBox="0 0 24 24" fill="none" xmlns="http://www.w3.org/2000/svg">
<path fill-rule="evenodd" clip-rule="evenodd" d="M5.75 9C5.75 5.54822 8.54822 2.75 12 2.75C14.9382 2.75 17.4045 4.7782 18.0719 7.51188C18.1301 7.75035 18.3014 7.94523 18.5304 8.03365C20.1226 8.64848 21.25 10.1935 21.25 12C21.25 13.39 20.5835 14.624 19.5496 15.4007C19.2184 15.6495 19.1516 16.1196 19.4003 16.4508C19.6491 16.782 20.1192 16.8488 20.4504 16.6C21.8454 15.5523 22.75 13.8817 22.75 12C22.75 9.69141 21.3898 7.70217 19.4293 6.78706C18.4768 3.58539 15.512 1.25 12 1.25C7.8612 1.25 4.48014 4.49432 4.26126 8.57854C2.49832 9.27243 1.25 10.9897 1.25 13C1.25 14.7591 2.20663 16.2939 3.62446 17.1141C3.983 17.3215 4.4418 17.199 4.6492 16.8404C4.85661 16.4819 4.73409 16.0231 4.37554 15.8157C3.40216 15.2526 2.75 14.202 2.75 13C2.75 11.4863 3.78548 10.2126 5.18784 9.85211C5.52413 9.76566 5.7571 9.45969 5.75099 9.11252C5.75033 9.0751 5.75 9.0376 5.75 9ZM12.75 12C12.75 11.5858 12.4142 11.25 12 11.25C11.5858 11.25 11.25 11.5858 11.25 12V19.1893L9.03033 16.9697C8.73744 16.6768 8.26256 16.6768 7.96967 16.9697C7.67678 17.2626 7.67678 17.7374 7.96967 18.0303L11.4697 21.5303C11.7626 21.8232 12.2374 21.8232 12.5303 21.5303L16.0303 18.0303C16.3232 17.7374 16.3232 17.2626 16.0303 16.9697C15.7374 16.6768 15.2626 16.6768 14.9697 16.9697L12.75 19.1893V12Z" fill="#22282F"/>
</svg>
