<svg width="24" height="24" viewBox="0 0 24 24" fill="none" xmlns="http://www.w3.org/2000/svg">
<path fill-rule="evenodd" clip-rule="evenodd" d="M12 2.75C8.54822 2.75 5.75 5.54822 5.75 9C5.75 9.0376 5.75033 9.0751 5.75099 9.11252C5.7571 9.45969 5.52413 9.76566 5.18784 9.85211C3.78548 10.2126 2.75 11.4863 2.75 13C2.75 14.202 3.40216 15.2526 4.37554 15.8157C4.73409 16.0231 4.85661 16.4819 4.6492 16.8404C4.4418 17.199 3.983 17.3215 3.62446 17.1141C2.20663 16.2939 1.25 14.7591 1.25 13C1.25 10.9897 2.49832 9.27243 4.26126 8.57854C4.48014 4.49432 7.8612 1.25 12 1.25C15.512 1.25 18.4768 3.58539 19.4293 6.78706C21.3898 7.70217 22.75 9.69141 22.75 12C22.75 13.8817 21.8454 15.5523 20.4504 16.6C20.1192 16.8488 19.6491 16.782 19.4003 16.4508C19.1516 16.1196 19.2184 15.6495 19.5496 15.4007C20.5835 14.624 21.25 13.39 21.25 12C21.25 10.1935 20.1226 8.64848 18.5304 8.03365C18.3014 7.94523 18.1301 7.75035 18.0719 7.51188C17.4045 4.7782 14.9382 2.75 12 2.75ZM10 14C10 14.5523 9.55229 15 9 15C8.44772 15 8 14.5523 8 14C8 13.4477 8.44772 13 9 13C9.55229 13 10 13.4477 10 14ZM9 20C9.55229 20 10 19.5523 10 19C10 18.4477 9.55229 18 9 18C8.44772 18 8 18.4477 8 19C8 19.5523 8.44772 20 9 20ZM16 14C16 14.5523 15.5523 15 15 15C14.4477 15 14 14.5523 14 14C14 13.4477 14.4477 13 15 13C15.5523 13 16 13.4477 16 14ZM15 20C15.5523 20 16 19.5523 16 19C16 18.4477 15.5523 18 15 18C14.4477 18 14 18.4477 14 19C14 19.5523 14.4477 20 15 20ZM13 16C13 16.5523 12.5523 17 12 17C11.4477 17 11 16.5523 11 16C11 15.4477 11.4477 15 12 15C12.5523 15 13 15.4477 13 16ZM12 22C12.5523 22 13 21.5523 13 21C13 20.4477 12.5523 20 12 20C11.4477 20 11 20.4477 11 21C11 21.5523 11.4477 22 12 22Z" fill="#22282F"/>
</svg>
