<svg width="24" height="24" viewBox="0 0 24 24" fill="none" xmlns="http://www.w3.org/2000/svg">
<path fill-rule="evenodd" clip-rule="evenodd" d="M5.75 9C5.75 5.54822 8.54822 2.75 12 2.75C14.9382 2.75 17.4045 4.7782 18.0719 7.51188C18.1301 7.75035 18.3014 7.94523 18.5304 8.03365C20.1226 8.64848 21.25 10.1935 21.25 12C21.25 13.39 20.5835 14.624 19.5496 15.4007C19.2184 15.6495 19.1516 16.1196 19.4003 16.4508C19.6491 16.782 20.1192 16.8488 20.4504 16.6C21.8454 15.5523 22.75 13.8817 22.75 12C22.75 9.69141 21.3898 7.70217 19.4293 6.78706C18.4768 3.58539 15.512 1.25 12 1.25C7.8612 1.25 4.48014 4.49432 4.26126 8.57854C2.49832 9.27243 1.25 10.9897 1.25 13C1.25 14.7591 2.20663 16.2939 3.62446 17.1141C3.983 17.3215 4.4418 17.199 4.6492 16.8404C4.85661 16.4819 4.73409 16.0231 4.37554 15.8157C3.40216 15.2526 2.75 14.202 2.75 13C2.75 11.4863 3.78548 10.2126 5.18784 9.85211C5.52413 9.76566 5.7571 9.45969 5.75099 9.11252C5.75033 9.0751 5.75 9.0376 5.75 9ZM10.8107 16.25L13.5303 13.5303C13.8232 13.2374 13.8232 12.7626 13.5303 12.4697C13.2374 12.1768 12.7626 12.1768 12.4697 12.4697L8.46967 16.4697C8.25517 16.6842 8.191 17.0068 8.30709 17.287C8.42318 17.5673 8.69665 17.75 9 17.75H13.1893L10.4697 20.4697C10.1768 20.7626 10.1768 21.2374 10.4697 21.5303C10.7626 21.8232 11.2374 21.8232 11.5303 21.5303L15.5303 17.5303C15.7448 17.3158 15.809 16.9932 15.6929 16.713C15.5768 16.4327 15.3033 16.25 15 16.25H10.8107Z" fill="#22282F"/>
</svg>
