<svg width="24" height="24" viewBox="0 0 24 24" fill="none" xmlns="http://www.w3.org/2000/svg">
<path fill-rule="evenodd" clip-rule="evenodd" d="M12 4.75C8.54822 4.75 5.75 7.54822 5.75 11C5.75 11.0376 5.75033 11.0751 5.75099 11.1125C5.7571 11.4597 5.52413 11.7657 5.18784 11.8521C3.78548 12.2126 2.75 13.4863 2.75 15C2.75 16.7949 4.20507 18.25 6 18.25H17C19.3472 18.25 21.25 16.3472 21.25 14C21.25 12.1935 20.1226 10.6485 18.5304 10.0337C18.3014 9.94523 18.1301 9.75035 18.0719 9.51188C17.4045 6.7782 14.9382 4.75 12 4.75ZM4.26126 10.5785C4.48014 6.49432 7.8612 3.25 12 3.25C15.512 3.25 18.4768 5.58539 19.4293 8.78706C21.3898 9.70217 22.75 11.6914 22.75 14C22.75 17.1756 20.1756 19.75 17 19.75H6C3.37665 19.75 1.25 17.6234 1.25 15C1.25 12.9897 2.49832 11.2724 4.26126 10.5785Z" fill="#22282F"/>
</svg>
