<svg width="24" height="24" viewBox="0 0 24 24" fill="none" xmlns="http://www.w3.org/2000/svg">
<path fill-rule="evenodd" clip-rule="evenodd" d="M12 1.25C12.4142 1.25 12.75 1.58579 12.75 2V7.18934L14.4697 5.46967C14.7626 5.17678 15.2374 5.17678 15.5303 5.46967C15.8232 5.76256 15.8232 6.23744 15.5303 6.53033L12.5303 9.53033C12.2374 9.82322 11.7626 9.82322 11.4697 9.53033L8.46967 6.53033C8.17678 6.23744 8.17678 5.76256 8.46967 5.46967C8.76256 5.17678 9.23744 5.17678 9.53033 5.46967L11.25 7.18934V2C11.25 1.58579 11.5858 1.25 12 1.25ZM8.83697 16.25C9.17555 14.8166 10.4632 13.75 12 13.75C13.5368 13.75 14.8245 14.8166 15.163 16.25H12H8.83697ZM7.30888 16.25H5L2 16.25C1.58579 16.25 1.25 16.5858 1.25 17C1.25 17.4142 1.58579 17.75 2 17.75H5H8H12H16H19L22 17.75C22.4142 17.75 22.75 17.4142 22.75 17C22.75 16.5858 22.4142 16.25 22 16.25H19H16.6911C16.3315 13.983 14.3682 12.25 12 12.25C9.63185 12.25 7.66846 13.983 7.30888 16.25ZM6 20.25C5.58579 20.25 5.25 20.5858 5.25 21C5.25 21.4142 5.58579 21.75 6 21.75H18C18.4142 21.75 18.75 21.4142 18.75 21C18.75 20.5858 18.4142 20.25 18 20.25H6ZM4.39862 9.39863C4.69152 9.10573 5.16639 9.10573 5.45929 9.39863L7.58061 11.5199C7.8735 11.8128 7.8735 12.2877 7.58061 12.5806C7.28771 12.8735 6.81284 12.8735 6.51995 12.5806L4.39862 10.4593C4.10573 10.1664 4.10573 9.69152 4.39862 9.39863ZM16.4194 11.5199C16.1265 11.8128 16.1265 12.2877 16.4194 12.5806C16.7123 12.8735 17.1872 12.8735 17.4801 12.5806L19.6014 10.4592C19.8943 10.1663 19.8943 9.69147 19.6014 9.39858C19.3085 9.10569 18.8337 9.10569 18.5408 9.39858L16.4194 11.5199Z" fill="#22282F"/>
</svg>
