<svg width="24" height="24" viewBox="0 0 24 24" fill="none" xmlns="http://www.w3.org/2000/svg">
<path fill-rule="evenodd" clip-rule="evenodd" d="M8.35358 3.75004C7.72499 3.75038 7.26935 3.75336 6.90513 3.77938C6.50729 3.80781 6.2763 3.86092 6.10024 3.93773C5.57998 4.16473 5.16473 4.57997 4.93774 5.10024C4.86092 5.2763 4.80781 5.50729 4.77938 5.90513C4.75045 6.31015 4.75 6.82821 4.75 7.57143V15C4.75 16.4354 4.75159 17.4365 4.85315 18.1919C4.9518 18.9257 5.13225 19.3142 5.40901 19.591C5.68577 19.8678 6.07435 20.0482 6.80812 20.1469C7.56347 20.2484 8.56459 20.25 10 20.25H14C15.4354 20.25 16.4365 20.2484 17.1919 20.1469C17.9257 20.0482 18.3142 19.8678 18.591 19.591C18.8678 19.3142 19.0482 18.9257 19.1469 18.1919C19.2484 17.4365 19.25 16.4354 19.25 15V7.57143C19.25 6.82821 19.2496 6.31015 19.2206 5.90513C19.1922 5.50729 19.1391 5.2763 19.0623 5.10024C18.8353 4.57997 18.42 4.16473 17.8998 3.93773C17.7237 3.86092 17.4927 3.80781 17.0949 3.77938C16.7307 3.75336 16.2751 3.75038 15.6465 3.75004C15.32 4.90427 14.2588 5.75 13.0001 5.75H11.0001C9.74129 5.75 8.68006 4.90427 8.35358 3.75004ZM15.6465 2.25002C16.2684 2.25027 16.7793 2.25301 17.2018 2.2832C17.6798 2.31735 18.1019 2.38939 18.4996 2.56289C19.3667 2.94121 20.0588 3.63329 20.4371 4.50041C20.6106 4.89807 20.6827 5.32017 20.7168 5.79823C20.75 6.263 20.75 6.8347 20.75 7.54345V7.57143V15V15.0549C20.75 16.4225 20.75 17.5248 20.6335 18.3918C20.5125 19.2919 20.2536 20.0497 19.6517 20.6517C19.0497 21.2536 18.2919 21.5125 17.3918 21.6335C16.5248 21.75 15.4225 21.75 14.0549 21.75H14H10H9.94513C8.57754 21.75 7.47522 21.75 6.60825 21.6335C5.70814 21.5125 4.95027 21.2536 4.34835 20.6517C3.74643 20.0497 3.48754 19.2919 3.36652 18.3918C3.24996 17.5248 3.24998 16.4225 3.25 15.0549L3.25 15V7.57143L3.25 7.5435C3.25 6.83473 3.24999 6.26301 3.2832 5.79823C3.31735 5.32017 3.38939 4.89807 3.56289 4.50041C3.94121 3.63329 4.63329 2.94121 5.50041 2.56289C5.89807 2.38939 6.32017 2.31735 6.79823 2.2832C7.22076 2.25301 7.73166 2.25027 8.35356 2.25002C8.68002 1.09576 9.74126 0.25 11.0001 0.25H13.0001C14.2588 0.25 15.3201 1.09576 15.6465 2.25002ZM9.75005 3C9.75005 2.30964 10.3097 1.75 11.0001 1.75H13.0001C13.6904 1.75 14.2501 2.30964 14.2501 3C14.2501 3.69036 13.6904 4.25 13.0001 4.25H11.0001C10.3097 4.25 9.75005 3.69036 9.75005 3ZM8.25 10C8.25 9.58579 8.58579 9.25 9 9.25H15C15.4142 9.25 15.75 9.58579 15.75 10C15.75 10.4142 15.4142 10.75 15 10.75H9C8.58579 10.75 8.25 10.4142 8.25 10ZM9 13.25C8.58579 13.25 8.25 13.5858 8.25 14C8.25 14.4142 8.58579 14.75 9 14.75H13C13.4142 14.75 13.75 14.4142 13.75 14C13.75 13.5858 13.4142 13.25 13 13.25H9Z" fill="#22282F"/>
</svg>
