<svg width="24" height="24" viewBox="0 0 24 24" fill="none" xmlns="http://www.w3.org/2000/svg">
<path fill-rule="evenodd" clip-rule="evenodd" d="M6.90513 3.77938C7.26935 3.75336 7.72499 3.75038 8.35358 3.75004C8.68006 4.90427 9.74129 5.75 11.0001 5.75H13.0001C14.2588 5.75 15.32 4.90427 15.6465 3.75004C16.2751 3.75038 16.7307 3.75336 17.0949 3.77938C17.4927 3.80781 17.7237 3.86092 17.8998 3.93773C18.42 4.16473 18.8353 4.57997 19.0623 5.10024C19.1391 5.2763 19.1922 5.50729 19.2206 5.90513C19.2496 6.31015 19.25 6.82821 19.25 7.57143V15C19.25 16.4354 19.2484 17.4365 19.1469 18.1919C19.0482 18.9257 18.8678 19.3142 18.591 19.591C18.3142 19.8678 17.9257 20.0482 17.1919 20.1469C16.4365 20.2484 15.4354 20.25 14 20.25H10C8.56459 20.25 7.56347 20.2484 6.80812 20.1469C6.07435 20.0482 5.68577 19.8678 5.40901 19.591C5.13225 19.3142 4.9518 18.9257 4.85315 18.1919C4.75159 17.4365 4.75 16.4354 4.75 15V7.57143C4.75 6.82821 4.75045 6.31015 4.77938 5.90513C4.80781 5.50729 4.86092 5.2763 4.93774 5.10024C5.16473 4.57997 5.57998 4.16473 6.10024 3.93773C6.2763 3.86092 6.50729 3.80781 6.90513 3.77938ZM17.2018 2.2832C16.7793 2.25301 16.2684 2.25027 15.6465 2.25002C15.3201 1.09576 14.2588 0.25 13.0001 0.25H11.0001C9.74126 0.25 8.68002 1.09576 8.35356 2.25002C7.73166 2.25027 7.22076 2.25301 6.79823 2.2832C6.32017 2.31735 5.89807 2.38939 5.50041 2.56289C4.63329 2.94121 3.94121 3.63329 3.56289 4.50041C3.38939 4.89807 3.31735 5.32017 3.2832 5.79823C3.24999 6.26301 3.25 6.83473 3.25 7.5435L3.25 7.57143V15L3.25 15.0549C3.24998 16.4225 3.24996 17.5248 3.36652 18.3918C3.48754 19.2919 3.74643 20.0497 4.34835 20.6517C4.95027 21.2536 5.70814 21.5125 6.60825 21.6335C7.47522 21.75 8.57754 21.75 9.94513 21.75H10H14H14.0549C15.4225 21.75 16.5248 21.75 17.3918 21.6335C18.2919 21.5125 19.0497 21.2536 19.6517 20.6517C20.2536 20.0497 20.5125 19.2919 20.6335 18.3918C20.75 17.5248 20.75 16.4225 20.75 15.0549V15V7.57143V7.54345C20.75 6.8347 20.75 6.263 20.7168 5.79823C20.6827 5.32017 20.6106 4.89807 20.4371 4.50041C20.0588 3.63329 19.3667 2.94121 18.4996 2.56289C18.1019 2.38939 17.6798 2.31735 17.2018 2.2832ZM11.0001 1.75C10.3097 1.75 9.75005 2.30964 9.75005 3C9.75005 3.69036 10.3097 4.25 11.0001 4.25H13.0001C13.6904 4.25 14.2501 3.69036 14.2501 3C14.2501 2.30964 13.6904 1.75 13.0001 1.75H11.0001ZM10.5303 9.46967C10.2374 9.17678 9.76256 9.17678 9.46967 9.46967C9.17678 9.76256 9.17678 10.2374 9.46967 10.5303L10.9393 12L9.46967 13.4697C9.17678 13.7626 9.17678 14.2374 9.46967 14.5303C9.76256 14.8232 10.2374 14.8232 10.5303 14.5303L12 13.0607L13.4697 14.5303C13.7626 14.8232 14.2374 14.8232 14.5303 14.5303C14.8232 14.2374 14.8232 13.7626 14.5303 13.4697L13.0607 12L14.5303 10.5303C14.8232 10.2374 14.8232 9.76256 14.5303 9.46967C14.2374 9.17678 13.7626 9.17678 13.4697 9.46967L12 10.9393L10.5303 9.46967Z" fill="#22282F"/>
</svg>
