<svg width="24" height="24" viewBox="0 0 24 24" fill="none" xmlns="http://www.w3.org/2000/svg">
<path fill-rule="evenodd" clip-rule="evenodd" d="M8.35355 3.75012C7.95976 3.75072 7.78235 3.75396 7.63612 3.77044C7.48267 3.78772 7.33277 3.81553 7.18708 3.85305C6.78596 3.95638 6.37703 3.71496 6.27371 3.31384C6.17039 2.91272 6.4118 2.50379 6.81292 2.40047C7.02605 2.34557 7.24485 2.30503 7.46817 2.27987C7.70229 2.25349 7.9665 2.25037 8.35351 2.25003C8.67996 1.09576 9.74121 0.25 11 0.25H13C14.2588 0.25 15.32 1.09576 15.6465 2.25003C16.0335 2.25037 16.2977 2.25349 16.5318 2.27987C18.734 2.52799 20.472 4.26597 20.7201 6.46817C20.7501 6.73386 20.75 7.0383 20.75 7.51697V7.51702L20.75 7.57143V13C20.75 13.2448 20.751 13.4861 20.752 13.7219L20.752 13.723C20.7539 14.1814 20.7557 14.6188 20.7499 15.0195C20.7439 15.4337 20.4033 15.7646 19.9892 15.7586C19.575 15.7526 19.2441 15.412 19.2501 14.9978C19.2557 14.6104 19.2539 14.1976 19.2521 13.7494V13.7493C19.251 13.5101 19.25 13.2609 19.25 13V7.57143C19.25 7.02031 19.2488 6.80693 19.2296 6.63612C19.0598 5.12935 17.8706 3.94021 16.3639 3.77044C16.2177 3.75396 16.0402 3.75072 15.6464 3.75012C15.3199 4.90431 14.2587 5.75 13 5.75H11C9.74127 5.75 8.68006 4.90431 8.35355 3.75012ZM9.75 3C9.75 2.30964 10.3096 1.75 11 1.75H13C13.6904 1.75 14.25 2.30964 14.25 3C14.25 3.69036 13.6904 4.25 13 4.25H11C10.3096 4.25 9.75 3.69036 9.75 3ZM2.53033 1.46967C2.23744 1.17678 1.76256 1.17678 1.46967 1.46967C1.17678 1.76256 1.17678 2.23744 1.46967 2.53033L3.77256 4.83322C3.51625 5.33301 3.34563 5.88454 3.27987 6.46817C3.24993 6.73386 3.24996 7.03831 3.25 7.517V7.51701L3.25 7.57143V13L3.25 13.0564C3.24998 14.8942 3.24997 16.3498 3.40313 17.489C3.56076 18.6614 3.89288 19.6104 4.64124 20.3588C5.38961 21.1071 6.33855 21.4392 7.51098 21.5969C8.65018 21.75 10.1058 21.75 11.9435 21.75H11.9436H12H12.0564H12.0565C13.8942 21.75 15.3498 21.75 16.489 21.5969C17.6456 21.4414 18.5847 21.1161 19.3283 20.3889L21.4697 22.5303C21.7626 22.8232 22.2374 22.8232 22.5303 22.5303C22.8232 22.2374 22.8232 21.7626 22.5303 21.4697L19.799 18.7383L5.24632 4.18566L2.53033 1.46967ZM4.77044 6.63612C4.79616 6.40779 4.84522 6.18692 4.91519 5.97585L18.2675 19.3281C17.8469 19.7334 17.2712 19.9782 16.2892 20.1102C15.2615 20.2484 13.9068 20.25 12 20.25C10.0932 20.25 8.73851 20.2484 7.71085 20.1102C6.70476 19.975 6.12511 19.7213 5.7019 19.2981C5.27869 18.8749 5.02502 18.2952 4.88976 17.2892C4.75159 16.2615 4.75 14.9068 4.75 13V7.57143C4.75 7.02031 4.75119 6.80693 4.77044 6.63612Z" fill="#22282F"/>
</svg>
