<svg width="24" height="24" viewBox="0 0 24 24" fill="none" xmlns="http://www.w3.org/2000/svg">
<path fill-rule="evenodd" clip-rule="evenodd" d="M13.25 3.75331C13.0406 3.75062 12.7983 3.74997 12.5147 3.74997H11C9.56458 3.74997 8.56347 3.75156 7.80812 3.85312C7.07435 3.95177 6.68577 4.13222 6.40901 4.40898C6.13225 4.68574 5.9518 5.07432 5.85315 5.80809C5.75159 6.56344 5.75 7.56455 5.75 8.99997V12C5.75 12.4142 5.41421 12.75 5 12.75C4.58579 12.75 4.25 12.4142 4.25 12V8.99997V8.9451C4.24998 7.57751 4.24996 6.47519 4.36652 5.60822C4.48754 4.70811 4.74643 3.95024 5.34835 3.34832C5.95027 2.7464 6.70814 2.48751 7.60825 2.36649C8.47522 2.24993 9.57754 2.24995 10.9451 2.24997L11 2.24997H12.5147L12.6573 2.24993C13.7451 2.24941 14.501 2.24905 15.1924 2.53542C15.8838 2.8218 16.4181 3.35659 17.1869 4.12613L17.2877 4.227L17.773 4.71228L17.8738 4.81308C18.6434 5.58189 19.1782 6.11617 19.4645 6.80755C19.7509 7.49892 19.7506 8.25487 19.75 9.34264V9.34265L19.75 9.48525V12C19.75 12.4142 19.4142 12.75 19 12.75C18.5858 12.75 18.25 12.4142 18.25 12V9.48525C18.25 9.20166 18.2494 8.95944 18.2467 8.75005H18L17.948 8.75006C17.0495 8.75008 16.3003 8.75011 15.7055 8.67014C15.0777 8.58574 14.5109 8.40007 14.0555 7.9446C13.6 7.48913 13.4143 6.92233 13.3299 6.29453C13.2499 5.69975 13.25 4.95053 13.25 4.05205L13.25 4.00006V3.75331ZM18.0172 7.25005C17.8431 6.9184 17.5168 6.57741 16.7123 5.77294L16.227 5.28766C15.4226 4.48326 15.0816 4.15692 14.75 3.98285V4.00006C14.75 4.96407 14.7516 5.61163 14.8165 6.09466C14.8786 6.55612 14.9858 6.75362 15.1161 6.88394C15.2464 7.01425 15.4439 7.12148 15.9054 7.18352C16.3884 7.24846 17.036 7.25005 18 7.25005H18.0172ZM5.75 15.0001C5.75 14.5859 5.41421 14.2501 5 14.2501C4.58579 14.2501 4.25 14.5859 4.25 15.0001V16.0001V16.0359C4.24999 16.9401 4.24998 17.6693 4.3033 18.2576C4.35824 18.8639 4.47453 19.3936 4.75235 19.8749C5.0815 20.445 5.55495 20.9185 6.1251 21.2476C6.60633 21.5254 7.1361 21.6417 7.74241 21.6967C8.33067 21.75 9.05989 21.75 9.96406 21.75H9.99988H10.5C10.9142 21.75 11.25 21.4142 11.25 21C11.25 20.5858 10.9142 20.25 10.5 20.25H9.99988C9.05152 20.25 8.39039 20.2493 7.8778 20.2028C7.37552 20.1573 7.08995 20.0726 6.87506 19.9486C6.53297 19.7511 6.2489 19.467 6.05141 19.1249C5.92735 18.91 5.84269 18.6244 5.79717 18.1222C5.75072 17.6096 5.75 16.9485 5.75 16.0001V15.0001ZM19.75 15.0001C19.75 14.5859 19.4142 14.2501 19 14.2501C18.5858 14.2501 18.25 14.5859 18.25 15.0001V16.0001C18.25 16.9485 18.2493 17.6096 18.2028 18.1222C18.1573 18.6244 18.0727 18.91 17.9486 19.1249C17.7511 19.467 17.467 19.7511 17.1249 19.9486C16.91 20.0726 16.6245 20.1573 16.1222 20.2028C15.6096 20.2493 14.9485 20.25 14.0001 20.25H13.5C13.0858 20.25 12.75 20.5858 12.75 21C12.75 21.4142 13.0858 21.75 13.5 21.75H14.0001H14.0359C14.9401 21.75 15.6693 21.75 16.2576 21.6967C16.8639 21.6417 17.3937 21.5254 17.8749 21.2476C18.445 20.9185 18.9185 20.445 19.2477 19.8749C19.5255 19.3936 19.6418 18.8639 19.6967 18.2576C19.75 17.6693 19.75 16.9401 19.75 16.0359V16.0001V15.0001Z" fill="#22282F"/>
</svg>
