<svg width="24" height="24" viewBox="0 0 24 24" fill="none" xmlns="http://www.w3.org/2000/svg">
<path fill-rule="evenodd" clip-rule="evenodd" d="M12.5147 3.74997C12.7983 3.74997 13.0406 3.75062 13.25 3.75331V4.00006L13.25 4.05205C13.25 4.95053 13.2499 5.69975 13.3299 6.29453C13.4143 6.92233 13.6 7.48913 14.0555 7.9446C14.5109 8.40007 15.0777 8.58574 15.7055 8.67014C16.3003 8.75011 17.0495 8.75008 17.948 8.75006L18 8.75005H18.2467C18.2494 8.95944 18.25 9.20166 18.25 9.48525V15C18.25 16.4354 18.2484 17.4365 18.1469 18.1919C18.0482 18.9256 17.8678 19.3142 17.591 19.591C17.3142 19.8677 16.9257 20.0482 16.1919 20.1468C15.4365 20.2484 14.4354 20.25 13 20.25H11C9.56458 20.25 8.56347 20.2484 7.80812 20.1468C7.07435 20.0482 6.68577 19.8677 6.40901 19.591C6.13225 19.3142 5.9518 18.9256 5.85315 18.1919C5.75159 17.4365 5.75 16.4354 5.75 15V8.99997C5.75 7.56455 5.75159 6.56344 5.85315 5.80809C5.9518 5.07432 6.13225 4.68574 6.40901 4.40898C6.68577 4.13222 7.07435 3.95177 7.80812 3.85312C8.56347 3.75156 9.56458 3.74997 11 3.74997H12.5147ZM16.7123 5.77294C17.5168 6.57741 17.8431 6.9184 18.0172 7.25005H18C17.036 7.25005 16.3884 7.24846 15.9054 7.18352C15.4439 7.12148 15.2464 7.01425 15.1161 6.88394C14.9858 6.75362 14.8786 6.55612 14.8165 6.09466C14.7516 5.61163 14.75 4.96407 14.75 4.00006V3.98285C15.0816 4.15692 15.4226 4.48326 16.227 5.28766L16.7123 5.77294ZM12.6573 2.24993C13.7451 2.24941 14.501 2.24905 15.1924 2.53542C15.8838 2.8218 16.4181 3.35659 17.1869 4.12613L17.2877 4.227L17.773 4.71228L17.8738 4.81308C18.6434 5.58189 19.1782 6.11617 19.4645 6.80755C19.7509 7.49892 19.7506 8.25487 19.75 9.34264V9.34265L19.75 9.48525V15V15.0548V15.0548V15.0549C19.75 16.4224 19.75 17.5248 19.6335 18.3917C19.5125 19.2918 19.2536 20.0497 18.6517 20.6516C18.0497 21.2535 17.2919 21.5124 16.3918 21.6334C15.5248 21.75 14.4225 21.75 13.0549 21.75H13H11H10.9451C9.57754 21.75 8.47522 21.75 7.60825 21.6334C6.70814 21.5124 5.95027 21.2535 5.34835 20.6516C4.74643 20.0497 4.48754 19.2918 4.36652 18.3917C4.24996 17.5248 4.24998 16.4224 4.25 15.0548V15V8.99997V8.9451C4.24998 7.57751 4.24996 6.47519 4.36652 5.60822C4.48754 4.70811 4.74643 3.95024 5.34835 3.34832C5.95027 2.7464 6.70814 2.48751 7.60825 2.36649C8.47522 2.24993 9.57754 2.24995 10.9451 2.24997L11 2.24997H12.5147L12.6573 2.24993ZM10.5303 11.4697C10.2374 11.1768 9.76256 11.1768 9.46967 11.4697C9.17678 11.7626 9.17678 12.2375 9.46967 12.5304L10.9393 14.0001L9.46967 15.4697C9.17678 15.7626 9.17678 16.2375 9.46967 16.5304C9.76256 16.8233 10.2374 16.8233 10.5303 16.5304L12 15.0607L13.4697 16.5304C13.7626 16.8233 14.2374 16.8233 14.5303 16.5304C14.8232 16.2375 14.8232 15.7626 14.5303 15.4697L13.0607 14.0001L14.5303 12.5304C14.8232 12.2375 14.8232 11.7626 14.5303 11.4697C14.2374 11.1768 13.7626 11.1768 13.4697 11.4697L12 12.9394L10.5303 11.4697Z" fill="#22282F"/>
</svg>
