<svg width="24" height="24" viewBox="0 0 24 24" fill="none" xmlns="http://www.w3.org/2000/svg">
<path fill-rule="evenodd" clip-rule="evenodd" d="M13.25 3.75331C13.0406 3.75062 12.7983 3.74997 12.5147 3.74997H11C9.56458 3.74997 8.56347 3.75156 7.80812 3.85312C7.07435 3.95177 6.68577 4.13222 6.40901 4.40898C6.13225 4.68574 5.9518 5.07432 5.85315 5.80809C5.75159 6.56344 5.75 7.56455 5.75 8.99997V15C5.75 16.4354 5.75159 17.4365 5.85315 18.1919C5.9518 18.9256 6.13225 19.3142 6.40901 19.591C6.68577 19.8677 7.07435 20.0482 7.80812 20.1468C8.56347 20.2484 9.56458 20.25 11 20.25H13C14.4354 20.25 15.4365 20.2484 16.1919 20.1468C16.9257 20.0482 17.3142 19.8677 17.591 19.591C17.8678 19.3142 18.0482 18.9256 18.1469 18.1919C18.2484 17.4365 18.25 16.4354 18.25 15V9.48525C18.25 9.20166 18.2494 8.95944 18.2467 8.75005H18L17.948 8.75006C17.0495 8.75008 16.3003 8.75011 15.7055 8.67014C15.0777 8.58574 14.5109 8.40007 14.0555 7.9446C13.6 7.48913 13.4143 6.92233 13.3299 6.29453C13.2499 5.69975 13.25 4.95053 13.25 4.05205L13.25 4.00006V3.75331ZM18.0172 7.25005C17.8431 6.9184 17.5168 6.57741 16.7123 5.77294L16.227 5.28766C15.4226 4.48326 15.0816 4.15692 14.75 3.98285V4.00006C14.75 4.96407 14.7516 5.61163 14.8165 6.09466C14.8786 6.55612 14.9858 6.75362 15.1161 6.88394C15.2464 7.01425 15.4439 7.12148 15.9054 7.18352C16.3884 7.24846 17.036 7.25005 18 7.25005H18.0172ZM15.1924 2.53542C14.501 2.24905 13.7451 2.24941 12.6573 2.24993L12.5147 2.24997H11L10.9451 2.24997C9.57754 2.24995 8.47522 2.24993 7.60825 2.36649C6.70814 2.48751 5.95027 2.7464 5.34835 3.34832C4.74643 3.95024 4.48754 4.70811 4.36652 5.60822C4.24996 6.47519 4.24998 7.57751 4.25 8.9451V8.99997V15V15.0548C4.24998 16.4224 4.24996 17.5248 4.36652 18.3917C4.48754 19.2918 4.74643 20.0497 5.34835 20.6516C5.95027 21.2535 6.70814 21.5124 7.60825 21.6334C8.47522 21.75 9.57754 21.75 10.9451 21.75H11H13H13.0549C14.4225 21.75 15.5248 21.75 16.3918 21.6334C17.2919 21.5124 18.0497 21.2535 18.6517 20.6516C19.2536 20.0497 19.5125 19.2918 19.6335 18.3917C19.75 17.5248 19.75 16.4224 19.75 15.0549V15.0549V15.0548V15.0548V15V9.48525L19.75 9.34265V9.34264C19.7506 8.25487 19.7509 7.49892 19.4645 6.80755C19.1782 6.11617 18.6434 5.58189 17.8738 4.81308L17.773 4.71228L17.2877 4.227L17.1869 4.12613C16.4181 3.35659 15.8838 2.8218 15.1924 2.53542ZM12.75 10.2501V10.0001C12.75 9.58585 12.4142 9.25006 12 9.25006C11.5858 9.25006 11.25 9.58585 11.25 10.0001V10.2638C10.125 10.3882 9.25 11.3419 9.25 12.5001C9.25 13.7427 10.2574 14.7501 11.5 14.7501H12.5C12.9142 14.7501 13.25 15.0858 13.25 15.5001C13.25 15.9143 12.9142 16.2501 12.5 16.2501H12H10C9.58579 16.2501 9.25 16.5858 9.25 17.0001C9.25 17.4143 9.58579 17.7501 10 17.7501H11.25V18.0001C11.25 18.4143 11.5858 18.7501 12 18.7501C12.4142 18.7501 12.75 18.4143 12.75 18.0001V17.7363C13.875 17.612 14.75 16.6582 14.75 15.5001C14.75 14.2574 13.7426 13.2501 12.5 13.2501H11.5C11.0858 13.2501 10.75 12.9143 10.75 12.5001C10.75 12.0858 11.0858 11.7501 11.5 11.7501H12H14C14.4142 11.7501 14.75 11.4143 14.75 11.0001C14.75 10.5858 14.4142 10.2501 14 10.2501H12.75Z" fill="#22282F"/>
</svg>
