<svg width="24" height="24" viewBox="0 0 24 24" fill="none" xmlns="http://www.w3.org/2000/svg">
<path fill-rule="evenodd" clip-rule="evenodd" d="M2.53033 1.46964C2.23744 1.17675 1.76256 1.17675 1.46967 1.46964C1.17678 1.76253 1.17678 2.23741 1.46967 2.5303L4.46967 5.5303L18.4697 19.5303L21.4697 22.5303C21.7626 22.8232 22.2374 22.8232 22.5303 22.5303C22.8232 22.2374 22.8232 21.7625 22.5303 21.4696L19.75 18.6893V9.48525L19.75 9.34265C19.7506 8.25487 19.7509 7.49892 19.4645 6.80755C19.1782 6.11617 18.6434 5.58189 17.8738 4.81309L17.8738 4.81308L17.773 4.71228L17.2877 4.227L17.1869 4.12613C16.4181 3.35659 15.8838 2.8218 15.1924 2.53542C14.501 2.24904 13.7451 2.24941 12.6573 2.24992L12.5147 2.24997H7C5.9998 2.24997 5.12431 2.78394 4.64306 3.58237L2.53033 1.46964ZM18.25 9.48525V17.1893L5.78133 4.72064C5.90822 4.16475 6.40567 3.74997 7 3.74997H12.5147C12.7983 3.74997 13.0406 3.75061 13.25 3.75331V4.00005L13.25 4.05205C13.25 4.95053 13.2499 5.69975 13.3299 6.29453C13.4143 6.92233 13.6 7.48913 14.0555 7.9446C14.5109 8.40007 15.0777 8.58574 15.7055 8.67014C16.3003 8.75011 17.0495 8.75008 17.948 8.75005L18 8.75005H18.2467C18.2494 8.95944 18.25 9.20166 18.25 9.48525ZM18.0172 7.25005C17.8431 6.9184 17.5168 6.57741 16.7123 5.77294L16.227 5.28766C15.4226 4.48326 15.0816 4.15692 14.75 3.98285V4.00005C14.75 4.96406 14.7516 5.61162 14.8165 6.09466C14.8786 6.55612 14.9858 6.75362 15.1161 6.88394C15.2464 7.01425 15.4439 7.12148 15.9054 7.18352C16.3884 7.24846 17.036 7.25005 18 7.25005H18.0172ZM5.75 15V9.00009C5.75 8.58588 5.41421 8.25009 5 8.25009C4.58579 8.25009 4.25 8.58588 4.25 9.00009V15L4.25 15.0548C4.24998 16.4224 4.24996 17.5248 4.36652 18.3917C4.48754 19.2918 4.74643 20.0497 5.34835 20.6516C5.95027 21.2535 6.70814 21.5124 7.60825 21.6334C8.47522 21.75 9.57754 21.75 10.9451 21.75H11H16C16.4142 21.75 16.75 21.4142 16.75 21C16.75 20.5858 16.4142 20.25 16 20.25H11C9.56458 20.25 8.56347 20.2484 7.80812 20.1468C7.07434 20.0482 6.68577 19.8677 6.40901 19.591C6.13225 19.3142 5.9518 18.9256 5.85315 18.1918C5.75159 17.4365 5.75 16.4354 5.75 15Z" fill="#22282F"/>
</svg>
