<svg width="24" height="24" viewBox="0 0 24 24" fill="none" xmlns="http://www.w3.org/2000/svg">
<path fill-rule="evenodd" clip-rule="evenodd" d="M13.25 3.75331C13.0406 3.75062 12.7983 3.74997 12.5147 3.74997H11C9.56458 3.74997 8.56347 3.75156 7.80812 3.85312C7.07435 3.95177 6.68577 4.13222 6.40901 4.40898C6.13225 4.68574 5.9518 5.07432 5.85315 5.80809C5.75159 6.56344 5.75 7.56455 5.75 8.99997V12.2501H18.25V9.48525C18.25 9.20166 18.2494 8.95944 18.2467 8.75005H18L17.948 8.75006C17.0495 8.75008 16.3003 8.75011 15.7055 8.67014C15.0777 8.58574 14.5109 8.40007 14.0555 7.9446C13.6 7.48913 13.4143 6.92233 13.3299 6.29453C13.2499 5.69975 13.25 4.95053 13.25 4.05205L13.25 4.00006V3.75331ZM18.0172 7.25005C17.8431 6.9184 17.5168 6.57741 16.7123 5.77294L16.227 5.28766C15.4226 4.48326 15.0816 4.15692 14.75 3.98285V4.00006C14.75 4.96407 14.7516 5.61163 14.8165 6.09466C14.8786 6.55612 14.9858 6.75362 15.1161 6.88394C15.2464 7.01425 15.4439 7.12148 15.9054 7.18352C16.3884 7.24846 17.036 7.25005 18 7.25005H18.0172ZM19.75 9.48525V12.2501H21C21.4142 12.2501 21.75 12.5859 21.75 13.0001C21.75 13.4143 21.4142 13.7501 21 13.7501H19H5H3C2.58579 13.7501 2.25 13.4143 2.25 13.0001C2.25 12.5859 2.58579 12.2501 3 12.2501H4.25V8.99997L4.25 8.9451C4.24998 7.57751 4.24996 6.47519 4.36652 5.60822C4.48754 4.70811 4.74643 3.95024 5.34835 3.34832C5.95027 2.7464 6.70814 2.48751 7.60825 2.36649C8.47522 2.24993 9.57754 2.24995 10.9451 2.24997L11 2.24997H12.5147L12.6573 2.24993C13.7451 2.24941 14.501 2.24905 15.1924 2.53542C15.8838 2.8218 16.4181 3.35659 17.1869 4.12613L17.2877 4.227L17.773 4.71228L17.8738 4.81308L17.8738 4.8131C18.6434 5.5819 19.1782 6.11618 19.4645 6.80755C19.7509 7.49892 19.7506 8.25488 19.75 9.34265L19.75 9.48525ZM6 15.2499C6.41421 15.2499 6.75 15.5857 6.75 15.9999V18.9999C6.75 19.4142 6.41421 19.7499 6 19.7499C5.58579 19.7499 5.25 19.4142 5.25 18.9999V15.9999C5.25 15.5857 5.58579 15.2499 6 15.2499ZM10.75 15.9999C10.75 15.5857 10.4142 15.2499 10 15.2499C9.58579 15.2499 9.25 15.5857 9.25 15.9999V20.9999C9.25 21.4142 9.58579 21.7499 10 21.7499C10.4142 21.7499 10.75 21.4142 10.75 20.9999V15.9999ZM14 15.2499C14.4142 15.2499 14.75 15.5857 14.75 15.9999V20.9999C14.75 21.4142 14.4142 21.7499 14 21.7499C13.5858 21.7499 13.25 21.4142 13.25 20.9999V15.9999C13.25 15.5857 13.5858 15.2499 14 15.2499ZM18.75 15.9999C18.75 15.5857 18.4142 15.2499 18 15.2499C17.5858 15.2499 17.25 15.5857 17.25 15.9999V18.9999C17.25 19.4142 17.5858 19.7499 18 19.7499C18.4142 19.7499 18.75 19.4142 18.75 18.9999V15.9999Z" fill="#22282F"/>
</svg>
