<svg width="24" height="24" viewBox="0 0 24 24" fill="none" xmlns="http://www.w3.org/2000/svg">
<path fill-rule="evenodd" clip-rule="evenodd" d="M13.25 3.75331C13.0406 3.75062 12.7983 3.74997 12.5147 3.74997H11C9.56458 3.74997 8.56347 3.75156 7.80812 3.85312C7.07435 3.95177 6.68577 4.13222 6.40901 4.40898C6.13225 4.68574 5.9518 5.07432 5.85315 5.80809C5.75159 6.56344 5.75 7.56455 5.75 8.99997V12.2501H18.25V9.48525C18.25 9.20166 18.2494 8.95944 18.2467 8.75005H18L17.948 8.75006C17.0495 8.75008 16.3003 8.75011 15.7055 8.67014C15.0777 8.58574 14.5109 8.40007 14.0555 7.9446C13.6 7.48913 13.4143 6.92233 13.3299 6.29453C13.2499 5.69975 13.25 4.95053 13.25 4.05205L13.25 4.00006V3.75331ZM18.0172 7.25005C17.8431 6.9184 17.5168 6.57741 16.7123 5.77294L16.227 5.28766C15.4226 4.48326 15.0816 4.15692 14.75 3.98285V4.00006C14.75 4.96407 14.7516 5.61163 14.8165 6.09466C14.8786 6.55612 14.9858 6.75362 15.1161 6.88394C15.2464 7.01425 15.4439 7.12148 15.9054 7.18352C16.3884 7.24846 17.036 7.25005 18 7.25005H18.0172ZM19.75 9.48525V12.2501H21C21.4142 12.2501 21.75 12.5859 21.75 13.0001C21.75 13.4143 21.4142 13.7501 21 13.7501H19H5H3C2.58579 13.7501 2.25 13.4143 2.25 13.0001C2.25 12.5859 2.58579 12.2501 3 12.2501H4.25V8.99997L4.25 8.9451C4.24998 7.57751 4.24996 6.47519 4.36652 5.60822C4.48754 4.70811 4.74643 3.95024 5.34835 3.34832C5.95027 2.7464 6.70814 2.48751 7.60825 2.36649C8.47522 2.24993 9.57754 2.24995 10.9451 2.24997L11 2.24997H12.5147L12.6573 2.24993C13.7451 2.24941 14.501 2.24905 15.1924 2.53542C15.8838 2.8218 16.4181 3.35659 17.1869 4.12613L17.2877 4.227L17.773 4.71228L17.8738 4.81308L17.8738 4.8131C18.6434 5.5819 19.1782 6.11618 19.4645 6.80755C19.7509 7.49892 19.7506 8.25488 19.75 9.34265L19.75 9.48525ZM5.75 16C5.75 15.5858 5.41421 15.25 5 15.25C4.58579 15.25 4.25 15.5858 4.25 16V16.5L4.25 16.5266V16.5266C4.24999 17.2029 4.24999 17.7485 4.28028 18.1925C4.31143 18.649 4.3771 19.0527 4.53544 19.435C4.91604 20.3539 5.64609 21.0839 6.56496 21.4645C6.94723 21.6229 7.35094 21.6885 7.80748 21.7197C8.25148 21.75 8.79702 21.75 9.47333 21.75H9.49997H14.5H14.5267C15.203 21.75 15.7485 21.75 16.1925 21.7197C16.6491 21.6885 17.0528 21.6229 17.435 21.4645C18.3539 21.0839 19.084 20.3539 19.4646 19.435C19.6229 19.0527 19.6886 18.649 19.7197 18.1925C19.75 17.7485 19.75 17.2029 19.75 16.5266V16.5V16C19.75 15.5858 19.4142 15.25 19 15.25C18.5858 15.25 18.25 15.5858 18.25 16V16.5C18.25 17.2092 18.2496 17.7035 18.2232 18.0904C18.1973 18.4706 18.1488 18.692 18.0787 18.861C17.8504 19.4123 17.4123 19.8503 16.861 20.0787C16.692 20.1487 16.4706 20.1972 16.0904 20.2232C15.7035 20.2496 15.2092 20.25 14.5 20.25H9.49997C8.79081 20.25 8.2965 20.2496 7.90959 20.2232C7.52941 20.1972 7.30801 20.1487 7.13898 20.0787C6.58765 19.8503 6.14963 19.4123 5.92126 18.861C5.85125 18.692 5.80274 18.4706 5.7768 18.0904C5.75041 17.7035 5.75 17.2092 5.75 16.5V16Z" fill="#22282F"/>
</svg>
