<svg width="24" height="24" viewBox="0 0 24 24" fill="none" xmlns="http://www.w3.org/2000/svg">
<path fill-rule="evenodd" clip-rule="evenodd" d="M5.88425 2.24991C5.92229 2.24992 5.96088 2.24993 6.00005 2.24993H7.87873C7.91276 2.24993 7.94634 2.24992 7.97947 2.24991C8.74763 2.24965 9.2798 2.24946 9.78538 2.39358C10.0622 2.47249 10.329 2.58301 10.5806 2.72297C11.04 2.97857 11.4162 3.355 11.9592 3.89835C11.9826 3.92179 12.0063 3.94554 12.0304 3.9696C12.6721 4.61137 12.8953 4.8251 13.1488 4.96611C13.2997 5.05008 13.4598 5.11639 13.6259 5.16374C13.9048 5.24325 14.2138 5.24993 15.1214 5.24993H16L16.0549 5.24993C17.4225 5.24991 18.5248 5.24989 19.3918 5.36645C20.2919 5.48747 21.0498 5.74636 21.6517 6.34828C22.2536 6.9502 22.5125 7.70807 22.6335 8.60818C22.7501 9.47515 22.7501 10.5775 22.75 11.9451V11.9999V13.9999V14.0548C22.7501 15.4224 22.7501 16.5247 22.6335 17.3917C22.5125 18.2918 22.2536 19.0497 21.6517 19.6516C21.0498 20.2535 20.2919 20.5124 19.3918 20.6334C18.5248 20.75 17.4225 20.75 16.0549 20.7499H16H8.00005H7.94518C6.57759 20.75 5.47527 20.75 4.6083 20.6334C3.70819 20.5124 2.95032 20.2535 2.3484 19.6516C1.74648 19.0497 1.48759 18.2918 1.36657 17.3917C1.25001 16.5247 1.25003 15.4224 1.25005 14.0548L1.25005 13.9999V6.99993C1.25005 6.96076 1.25004 6.92217 1.25002 6.88413C1.24975 6.06617 1.24957 5.50802 1.37783 5.02936C1.72458 3.73526 2.73538 2.72446 4.02948 2.37771C4.50814 2.24945 5.06629 2.24964 5.88425 2.24991ZM6.00005 3.74993C5.02179 3.74993 4.67979 3.75637 4.41771 3.8266C3.64125 4.03465 3.03477 4.64113 2.82672 5.41759C2.75649 5.67967 2.75005 6.02167 2.75005 6.99993V13.9999C2.75005 15.4353 2.75164 16.4365 2.8532 17.1918C2.95185 17.9256 3.1323 18.3142 3.40906 18.5909C3.68582 18.8677 4.07439 19.0481 4.80817 19.1468C5.56352 19.2483 6.56463 19.2499 8.00005 19.2499H16C17.4355 19.2499 18.4366 19.2483 19.1919 19.1468C19.9257 19.0481 20.3143 18.8677 20.591 18.5909C20.8678 18.3142 21.0482 17.9256 21.1469 17.1918C21.2485 16.4365 21.25 15.4353 21.25 13.9999V11.9999C21.25 10.5645 21.2485 9.5634 21.1469 8.80805C21.0482 8.07428 20.8678 7.6857 20.591 7.40894C20.3143 7.13218 19.9257 6.95173 19.1919 6.85308C18.4366 6.75152 17.4355 6.74993 16 6.74993H15.1214C15.0873 6.74993 15.0538 6.74994 15.0206 6.74995C14.2525 6.75021 13.7203 6.7504 13.2147 6.60628C12.9379 6.52737 12.6711 6.41685 12.4195 6.27689C11.9601 6.02129 11.5839 5.64486 11.0409 5.10151C11.0175 5.07807 10.9938 5.05432 10.9697 5.03026C10.328 4.38849 10.1048 4.17477 9.85132 4.03375C9.70039 3.94978 9.54029 3.88347 9.37419 3.83612C9.09526 3.75661 8.78633 3.74993 7.87873 3.74993H6.00005Z" fill="#22282F"/>
</svg>
