<svg width="24" height="24" viewBox="0 0 24 24" fill="none" xmlns="http://www.w3.org/2000/svg">
<path fill-rule="evenodd" clip-rule="evenodd" d="M6.00005 2.24987L5.88425 2.24984C5.06629 2.24957 4.50814 2.24939 4.02948 2.37764C2.73538 2.7244 1.72458 3.7352 1.37783 5.02929C1.24957 5.50796 1.24975 6.06611 1.25002 6.88407L1.25005 6.99987V13.9999L1.25005 14.0547C1.25003 15.4223 1.25001 16.5247 1.36657 17.3916C1.48759 18.2917 1.74648 19.0496 2.3484 19.6515C2.95032 20.2534 3.70819 20.5123 4.6083 20.6333C5.47527 20.7499 6.57759 20.7499 7.94518 20.7499H8.00005H15H16H16.0549C17.4225 20.7499 18.5248 20.7499 19.3918 20.6333C20.2919 20.5123 21.0498 20.2534 21.6517 19.6515C22.2536 19.0496 22.5125 18.2917 22.6335 17.3916C22.7501 16.5246 22.7501 15.4223 22.75 14.0547V13.9999V11.9999V11.945C22.7501 10.5774 22.7501 9.47508 22.6335 8.60812C22.5125 7.70801 22.2536 6.95013 21.6517 6.34822C21.0498 5.7463 20.2919 5.48741 19.3918 5.36639C19.0311 5.3179 18.6298 5.28959 18.1855 5.27305C18.1262 5.25796 18.064 5.24994 18 5.24994H16.4085L16.0549 5.24987L16 5.24987H15.1214C14.2138 5.24987 13.9048 5.24318 13.6259 5.16368C13.4598 5.11633 13.2997 5.05002 13.1488 4.96604C12.8953 4.82503 12.6721 4.6113 12.0304 3.96954L11.9592 3.89829L11.9592 3.89828C11.4162 3.35493 11.04 2.9785 10.5806 2.72291C10.329 2.58295 10.0622 2.47242 9.78538 2.39351C9.2798 2.2494 8.74763 2.24958 7.97947 2.24984L7.87873 2.24987H6.00005ZM13.25 6.61603L13.2147 6.60622C12.9379 6.52731 12.6711 6.41678 12.4195 6.27683C11.9601 6.02123 11.5839 5.64481 11.041 5.10146L11.0409 5.10145L11.0409 5.10144L10.9697 5.0302C10.328 4.38843 10.1048 4.1747 9.85132 4.03369C9.70039 3.94972 9.54029 3.8834 9.37419 3.83605C9.09526 3.75655 8.78633 3.74987 7.87873 3.74987H6.00005C5.02179 3.74987 4.67979 3.75631 4.41771 3.82653C3.64125 4.03458 3.03477 4.64107 2.82672 5.41752C2.75649 5.67961 2.75005 6.02161 2.75005 6.99987V13.9999C2.75005 15.4353 2.75164 16.4364 2.8532 17.1917C2.95185 17.9255 3.1323 18.3141 3.40906 18.5909C3.68582 18.8676 4.07439 19.0481 4.80817 19.1467C5.56352 19.2483 6.56463 19.2499 8.00005 19.2499H15H16C17.4355 19.2499 18.4366 19.2483 19.1919 19.1467C19.9257 19.0481 20.3143 18.8676 20.591 18.5909C20.8678 18.3141 21.0482 17.9255 21.1469 17.1917C21.2485 16.4364 21.25 15.4353 21.25 13.9999V11.9999C21.25 10.5645 21.2485 9.56334 21.1469 8.80799C21.0482 8.07421 20.8678 7.68564 20.591 7.40888C20.3143 7.13211 19.9257 6.95167 19.1919 6.85301C19.0533 6.83437 18.9064 6.8191 18.75 6.80659V6.99994C18.75 8.51872 17.5188 9.74994 16 9.74994C14.4812 9.74994 13.25 8.51872 13.25 6.99994V6.61603ZM16.3227 6.74994C16.6557 6.75014 16.9639 6.75088 17.25 6.75357V6.99994C17.25 7.6903 16.6904 8.24994 16 8.24994C15.3096 8.24994 14.75 7.69029 14.75 6.99994V6.74994H16.3227ZM16 11.2499C16.4142 11.2499 16.75 11.5857 16.75 11.9999V12.9999C16.75 13.4142 16.4142 13.7499 16 13.7499C15.5858 13.7499 15.25 13.4142 15.25 12.9999V11.9999C15.25 11.5857 15.5858 11.2499 16 11.2499ZM16.75 15.9999C16.75 15.5857 16.4142 15.2499 16 15.2499C15.5858 15.2499 15.25 15.5857 15.25 15.9999V16.9999C15.25 17.4142 15.5858 17.7499 16 17.7499C16.4142 17.7499 16.75 17.4142 16.75 16.9999V15.9999Z" fill="#22282F"/>
</svg>
