<svg width="24" height="24" viewBox="0 0 24 24" fill="none" xmlns="http://www.w3.org/2000/svg">
<path fill-rule="evenodd" clip-rule="evenodd" d="M6.00005 2.24993L5.88426 2.2499C5.06629 2.24963 4.50814 2.24945 4.02948 2.37771C2.73538 2.72446 1.72458 3.73526 1.37783 5.02936C1.24957 5.50802 1.24976 6.06617 1.25003 6.88413L1.25005 6.99993V13.9999L1.25005 14.0548C1.25003 15.4224 1.25001 16.5247 1.36657 17.3917C1.48759 18.2918 1.74648 19.0497 2.3484 19.6516C2.95032 20.2535 3.70819 20.5124 4.6083 20.6334C5.47527 20.75 6.57759 20.7499 7.94518 20.7499H8.00005H16.0001H16.0549C17.4225 20.7499 18.5248 20.75 19.3918 20.6334C20.2919 20.5124 21.0498 20.2535 21.6517 19.6516C22.2536 19.0497 22.5125 18.2918 22.6335 17.3917C22.7501 16.5247 22.7501 15.4224 22.75 14.0548V13.9999V11.9999V11.9451C22.7501 10.5775 22.7501 9.47514 22.6335 8.60818C22.5125 7.70807 22.2536 6.95019 21.6517 6.34828C21.0498 5.74636 20.2919 5.48747 19.3918 5.36645C18.5248 5.24989 17.4225 5.24991 16.0549 5.24993L16.0001 5.24993H15.1214C14.2138 5.24993 13.9048 5.24325 13.6259 5.16374C13.4598 5.11639 13.2997 5.05008 13.1488 4.9661C12.8953 4.82509 12.6721 4.61136 12.0304 3.9696L11.9592 3.89835L11.9592 3.89835C11.4162 3.35499 11.04 2.97856 10.5806 2.72297C10.329 2.58301 10.0622 2.47249 9.78538 2.39357C9.2798 2.24946 8.74763 2.24964 7.97948 2.2499L7.87873 2.24993H6.00005ZM4.41771 3.82659C4.67979 3.75637 5.02179 3.74993 6.00005 3.74993H7.87873C8.78633 3.74993 9.09526 3.75661 9.37419 3.83612C9.54029 3.88346 9.70039 3.94978 9.85133 4.03375C10.1048 4.17476 10.328 4.38849 10.9697 5.03026L11.0409 5.1015L11.0409 5.10151C11.5839 5.64486 11.9601 6.02129 12.4195 6.27689C12.6711 6.41684 12.9379 6.52737 13.2147 6.60628C13.7203 6.75039 14.2525 6.75021 15.0206 6.74995L15.1214 6.74993H16.0001C17.4355 6.74993 18.4366 6.75152 19.1919 6.85307C19.9257 6.95173 20.3143 7.13217 20.591 7.40894C20.8678 7.6857 21.0482 8.07427 21.1469 8.80805C21.2485 9.5634 21.25 10.5645 21.25 11.9999V13.9999C21.25 15.4353 21.2485 16.4365 21.1469 17.1918C21.0482 17.9256 20.8678 18.3142 20.591 18.5909C20.3143 18.8677 19.9257 19.0481 19.1919 19.1468C18.4366 19.2483 17.4355 19.2499 16.0001 19.2499H8.00005C6.56463 19.2499 5.56352 19.2483 4.80817 19.1468C4.0744 19.0481 3.68582 18.8677 3.40906 18.5909C3.1323 18.3142 2.95185 17.9256 2.8532 17.1918C2.75164 16.4365 2.75005 15.4353 2.75005 13.9999V6.99993C2.75005 6.02167 2.75649 5.67967 2.82672 5.41758C3.03477 4.64113 3.64125 4.03465 4.41771 3.82659ZM16.0304 11.0304C16.3233 10.7375 16.3233 10.2626 16.0304 9.96972C15.7375 9.67683 15.2626 9.67683 14.9697 9.96972L11.0001 13.9394L9.53038 12.4697C9.23749 12.1768 8.76261 12.1768 8.46972 12.4697C8.17683 12.7626 8.17683 13.2375 8.46972 13.5304L10.4697 15.5304C10.7626 15.8233 11.2375 15.8233 11.5304 15.5304L16.0304 11.0304Z" fill="#22282F"/>
</svg>
