<svg width="24" height="24" viewBox="0 0 24 24" fill="none" xmlns="http://www.w3.org/2000/svg">
<path fill-rule="evenodd" clip-rule="evenodd" d="M6 2.24994L5.8842 2.24991C5.06624 2.24964 4.50809 2.24946 4.02943 2.37772C2.73533 2.72447 1.72453 3.73527 1.37778 5.02937C1.24952 5.50803 1.24971 6.06618 1.24997 6.88414L1.25 6.99994V13.9999V14.0548C1.24998 15.4224 1.24996 16.5247 1.36652 17.3917C1.48754 18.2918 1.74643 19.0497 2.34835 19.6516C2.95027 20.2535 3.70814 20.5124 4.60825 20.6334C5.47522 20.75 6.57754 20.75 7.94513 20.7499H8H16H16.0549C17.4225 20.75 18.5248 20.75 19.3918 20.6334C20.2919 20.5124 21.0497 20.2535 21.6517 19.6516C22.2536 19.0497 22.5125 18.2918 22.6335 17.3917C22.75 16.5247 22.75 15.4224 22.75 14.0548V13.9999V11.9999V11.9451C22.75 10.5775 22.75 9.47516 22.6335 8.60819C22.5125 7.70808 22.2536 6.9502 21.6517 6.34829C21.0497 5.74637 20.2919 5.48748 19.3918 5.36646C18.5248 5.2499 17.4225 5.24992 16.0549 5.24994L16 5.24994H15.1213C14.2137 5.24994 13.9048 5.24326 13.6259 5.16375C13.4598 5.1164 13.2997 5.05009 13.1487 4.96612C12.8953 4.8251 12.6721 4.61138 12.0303 3.96961L11.9591 3.89836L11.9591 3.89836C11.4161 3.35501 11.04 2.97857 10.5806 2.72298C10.329 2.58302 10.0622 2.4725 9.78533 2.39359C9.27975 2.24947 8.74758 2.24965 7.97942 2.24992L7.87868 2.24994H6ZM4.41766 3.82661C4.67974 3.75638 5.02174 3.74994 6 3.74994H7.87868C8.78628 3.74994 9.09521 3.75662 9.37414 3.83613C9.54024 3.88347 9.70034 3.94979 9.85127 4.03376C10.1047 4.17477 10.3279 4.3885 10.9697 5.03027L11.0409 5.10151L11.0409 5.10153C11.5839 5.64487 11.96 6.0213 12.4194 6.2769C12.671 6.41685 12.9378 6.52738 13.2147 6.60629C13.7203 6.7504 14.2524 6.75022 15.0206 6.74996L15.1213 6.74994H16C17.4354 6.74994 18.4365 6.75153 19.1919 6.85309C19.9257 6.95174 20.3142 7.13219 20.591 7.40895C20.8678 7.68571 21.0482 8.07428 21.1469 8.80806C21.2484 9.56341 21.25 10.5645 21.25 11.9999V13.9999C21.25 15.4354 21.2484 16.4365 21.1469 17.1918C21.0482 17.9256 20.8678 18.3142 20.591 18.5909C20.3142 18.8677 19.9257 19.0481 19.1919 19.1468C18.4365 19.2483 17.4354 19.2499 16 19.2499H8C6.56458 19.2499 5.56347 19.2483 4.80812 19.1468C4.07434 19.0481 3.68577 18.8677 3.40901 18.5909C3.13225 18.3142 2.9518 17.9256 2.85315 17.1918C2.75159 16.4365 2.75 15.4354 2.75 13.9999V6.99994C2.75 6.02168 2.75644 5.67968 2.82667 5.4176C3.03472 4.64114 3.6412 4.03466 4.41766 3.82661ZM12.75 10.0001C12.75 9.58585 12.4142 9.25006 12 9.25006C11.5858 9.25006 11.25 9.58585 11.25 10.0001V14.1894L10.0303 12.9697C9.73744 12.6768 9.26256 12.6768 8.96967 12.9697C8.67678 13.2626 8.67678 13.7375 8.96967 14.0304L11.4697 16.5304C11.7626 16.8233 12.2374 16.8233 12.5303 16.5304L15.0303 14.0304C15.3232 13.7375 15.3232 13.2626 15.0303 12.9697C14.7374 12.6768 14.2626 12.6768 13.9697 12.9697L12.75 14.1894V10.0001Z" fill="#22282F"/>
</svg>
