<svg width="24" height="24" viewBox="0 0 24 24" fill="none" xmlns="http://www.w3.org/2000/svg">
<path fill-rule="evenodd" clip-rule="evenodd" d="M6.00005 2.24987L5.88425 2.24984C5.06629 2.24957 4.50814 2.24939 4.02948 2.37764C2.73538 2.7244 1.72458 3.7352 1.37783 5.02929C1.24957 5.50796 1.24975 6.06611 1.25002 6.88407L1.25005 6.99987V13.9999L1.25005 14.0547C1.25003 15.4223 1.25001 16.5247 1.36657 17.3916C1.48759 18.2917 1.74648 19.0496 2.3484 19.6515C2.95032 20.2534 3.70819 20.5123 4.6083 20.6333C5.47527 20.7499 6.57759 20.7499 7.94518 20.7499H8.00005H15H16H16.0549C17.4225 20.7499 18.5248 20.7499 19.3918 20.6333C20.2919 20.5123 21.0498 20.2534 21.6517 19.6515C22.2536 19.0496 22.5125 18.2917 22.6335 17.3916C22.7501 16.5246 22.7501 15.4223 22.75 14.0547V13.9999V11.9999V11.945C22.7501 10.5774 22.7501 9.47508 22.6335 8.60812C22.5125 7.70801 22.2536 6.95013 21.6517 6.34822C21.0498 5.7463 20.2919 5.48741 19.3918 5.36639C18.5248 5.24983 17.4225 5.24985 16.0549 5.24987L16 5.24987H15.1214C14.2138 5.24987 13.9048 5.24318 13.6259 5.16368C13.4598 5.11633 13.2997 5.05002 13.1488 4.96604C12.8953 4.82503 12.6721 4.6113 12.0304 3.96954L11.9592 3.89829L11.9592 3.89828C11.4162 3.35493 11.04 2.9785 10.5806 2.72291C10.329 2.58295 10.0622 2.47242 9.78538 2.39351C9.2798 2.2494 8.74763 2.24958 7.97947 2.24984L7.87873 2.24987H6.00005ZM4.41771 3.82653C4.67979 3.75631 5.02179 3.74987 6.00005 3.74987H7.87873C8.78633 3.74987 9.09526 3.75655 9.37419 3.83605C9.54029 3.8834 9.70039 3.94972 9.85132 4.03369C10.1048 4.1747 10.328 4.38843 10.9697 5.0302L11.0409 5.10144L11.0409 5.10145C11.5839 5.6448 11.9601 6.02123 12.4195 6.27683C12.6711 6.41678 12.9379 6.52731 13.2147 6.60622C13.7203 6.75033 14.2525 6.75015 15.0206 6.74989L15.1214 6.74987H16C17.4355 6.74987 18.4366 6.75146 19.1919 6.85301C19.9257 6.95167 20.3143 7.13211 20.591 7.40888C20.8678 7.68564 21.0482 8.07421 21.1469 8.80799C21.2485 9.56334 21.25 10.5645 21.25 11.9999V13.9999C21.25 15.4353 21.2485 16.4364 21.1469 17.1917C21.0482 17.9255 20.8678 18.3141 20.591 18.5909C20.3143 18.8676 19.9257 19.0481 19.1919 19.1467C18.4366 19.2483 17.4355 19.2499 16 19.2499H15H8.00005C6.56463 19.2499 5.56352 19.2483 4.80817 19.1467C4.07439 19.0481 3.68582 18.8676 3.40906 18.5909C3.1323 18.3141 2.95185 17.9255 2.8532 17.1917C2.75164 16.4364 2.75005 15.4353 2.75005 13.9999V6.99987C2.75005 6.02161 2.75649 5.67961 2.82672 5.41752C3.03477 4.64107 3.64125 4.03458 4.41771 3.82653ZM13.0303 11.0303C13.5659 10.4947 14.4341 10.4947 14.9697 11.0303C15.5052 11.5658 15.5052 12.4341 14.9697 12.9696L12 15.9393L9.03033 12.9696C8.4948 12.4341 8.4948 11.5658 9.03033 11.0303C9.56586 10.4947 10.4341 10.4947 10.9697 11.0303L11.4697 11.5303C11.7626 11.8232 12.2374 11.8232 12.5303 11.5303L13.0303 11.0303ZM16.0303 9.96961C14.9191 8.85834 13.1235 8.84838 12 9.93972C10.8765 8.84838 9.08094 8.85834 7.96967 9.96961C6.84835 11.0909 6.84835 12.9089 7.96967 14.0303L11.1756 17.2362C11.6309 17.6915 12.3691 17.6915 12.8244 17.2362L16.0303 14.0303C17.1517 12.9089 17.1517 11.0909 16.0303 9.96961Z" fill="#22282F"/>
</svg>
