<svg width="24" height="24" viewBox="0 0 24 24" fill="none" xmlns="http://www.w3.org/2000/svg">
<path fill-rule="evenodd" clip-rule="evenodd" d="M6.00005 2.24977L5.88425 2.24975C5.06629 2.24948 4.50814 2.2493 4.02948 2.37755C2.73538 2.7243 1.72458 3.73511 1.37783 5.0292C1.24957 5.50786 1.24975 6.06602 1.25002 6.88398L1.25005 6.99977V13.9998L1.25005 14.0547C1.25003 15.4222 1.25001 16.5246 1.36657 17.3915C1.48759 18.2916 1.74648 19.0495 2.3484 19.6514C2.95032 20.2533 3.70819 20.5122 4.6083 20.6333C4.96882 20.6817 5.37003 20.71 5.8141 20.7266C5.87425 20.742 5.93665 20.75 6 20.75H16.0812H16.1296C16.278 20.75 16.4227 20.75 16.5638 20.7498H18C18.0745 20.7498 18.1464 20.7389 18.2143 20.7187C18.4682 20.7054 18.7048 20.6864 18.9252 20.6594C19.6943 20.565 20.3523 20.3638 20.918 19.9C21.4838 19.4362 21.8101 18.8304 22.0535 18.0948C22.2871 17.3888 22.4678 16.4854 22.6906 15.3712L22.7001 15.3238L22.7785 14.9315L22.7899 14.8748L22.7899 14.8747C23.0016 13.8163 23.1764 12.9426 23.215 12.244C23.2555 11.5125 23.1575 10.8303 22.6871 10.2565C22.2167 9.68273 21.567 9.45284 20.8417 9.34904C20.811 9.34465 20.7799 9.34045 20.7485 9.33644C20.743 8.80208 20.7197 8.39259 20.6222 8.02897C20.2754 6.73506 19.2648 5.72441 17.9709 5.37761C17.4921 5.2493 16.9338 5.24948 16.1156 5.24975L15.9998 5.24977H13.1214C12.2138 5.24977 11.9048 5.24309 11.6259 5.16359C11.4598 5.11624 11.2997 5.04992 11.1488 4.96595C10.8953 4.82494 10.6721 4.61121 10.0304 3.96944L9.77302 3.71209L9.73132 3.67037L9.73131 3.67036C9.41348 3.3524 9.19372 3.13256 8.94464 2.95371C8.47542 2.61679 7.93472 2.39282 7.3647 2.29928C7.0621 2.24961 6.75126 2.24968 6.30167 2.24977L6.24269 2.24977H6.00005ZM19.2464 9.25424C19.2398 8.81622 19.2217 8.59781 19.1733 8.41729C18.9653 7.64095 18.3589 7.03455 17.5825 6.82648C17.3204 6.75622 16.9783 6.74977 15.9998 6.74977H13.1214L13.0206 6.7498C12.2525 6.75006 11.7203 6.75024 11.2147 6.60613C10.9379 6.52722 10.6711 6.41669 10.4195 6.27674C9.96009 6.02114 9.58392 5.64471 9.04094 5.10135L8.96972 5.0301L8.71236 4.77275C8.33716 4.39755 8.20717 4.27081 8.06975 4.17213C7.78822 3.96998 7.4638 3.8356 7.12179 3.77948C6.95484 3.75208 6.7733 3.74977 6.24269 3.74977H6.00005C5.02179 3.74977 4.67979 3.75622 4.41771 3.82644C3.64125 4.03449 3.03477 4.64097 2.82672 5.41743C2.75649 5.67952 2.75005 6.02152 2.75005 6.99977V13.9998C2.75005 15.4352 2.75164 16.4363 2.8532 17.1917C2.95185 17.9254 3.1323 18.314 3.40906 18.5908C3.68582 18.8675 4.07439 19.048 4.80817 19.1466C4.98869 19.1709 5.18324 19.1895 5.39441 19.2037L6.2999 14.6762L6.3094 14.6287L6.3094 14.6287C6.5322 13.5146 6.71287 12.6112 6.94649 11.9052C7.1899 11.1695 7.5162 10.5637 8.08195 10.0999C8.64771 9.63613 9.30571 9.43497 10.0748 9.34056C10.8129 9.24994 11.7342 9.24995 12.8704 9.24997L12.9188 9.24997H18.1208L18.1786 9.24997C18.558 9.24996 18.9141 9.24995 19.2464 9.25424ZM16.5019 19.2498H15H8.00005C7.60725 19.2498 7.24698 19.2497 6.91537 19.2474L7.77077 14.9704C8.00536 13.7974 8.16923 12.9848 8.37055 12.3764C8.56539 11.7876 8.76926 11.4761 9.03294 11.2599C9.29662 11.0438 9.64199 10.905 10.2576 10.8294C10.8937 10.7513 11.7226 10.75 12.9188 10.75H18.1208C19.2727 10.75 20.0554 10.7518 20.6292 10.8339C21.1826 10.9131 21.3973 11.0492 21.5271 11.2075C21.6568 11.3657 21.7482 11.603 21.7173 12.1612C21.6853 12.7399 21.5336 13.5078 21.3077 14.6373L21.2292 15.0296C20.9946 16.2025 20.8308 17.0152 20.6294 17.6236C20.4346 18.2124 20.2307 18.5238 19.9671 18.74C19.7034 18.9562 19.358 19.095 18.7424 19.1706C18.1838 19.2391 17.4763 19.2485 16.5019 19.2498Z" fill="#22282F"/>
</svg>
