<svg width="24" height="24" viewBox="0 0 24 24" fill="none" xmlns="http://www.w3.org/2000/svg">
<path fill-rule="evenodd" clip-rule="evenodd" d="M5.8842 2.24991L6 2.24994H7.87868L7.97942 2.24992C8.74758 2.24965 9.27975 2.24947 9.78533 2.39359C10.0622 2.4725 10.329 2.58302 10.5806 2.72298C11.04 2.97857 11.4161 3.35501 11.9591 3.89836L11.9591 3.89836L12.0303 3.96961C12.6721 4.61138 12.8953 4.8251 13.1487 4.96612C13.2997 5.05009 13.4598 5.1164 13.6259 5.16375C13.9048 5.24326 14.2137 5.24994 15.1213 5.24994H16L16.0549 5.24994C17.4225 5.24992 18.5248 5.2499 19.3918 5.36646C20.2919 5.48748 21.0497 5.74637 21.6517 6.34829C22.2536 6.9502 22.5125 7.70808 22.6335 8.60819C22.75 9.47516 22.75 10.5775 22.75 11.9451V11.9999V13.9999V14.0548C22.75 15.4224 22.75 16.5247 22.6335 17.3917C22.5125 18.2918 22.2536 19.0497 21.6517 19.6516C21.0497 20.2535 20.2919 20.5124 19.3918 20.6334C18.5248 20.75 17.4225 20.75 16.0549 20.7499H16H8H7.94513C6.57754 20.75 5.47522 20.75 4.60825 20.6334C3.70814 20.5124 2.95027 20.2535 2.34835 19.6516C1.74643 19.0497 1.48754 18.2918 1.36652 17.3917C1.24996 16.5247 1.24998 15.4224 1.25 14.0548V13.9999V6.99994L1.24997 6.88414C1.24971 6.06618 1.24952 5.50803 1.37778 5.02937C1.72453 3.73527 2.73533 2.72447 4.02943 2.37772C4.50809 2.24946 5.06624 2.24964 5.8842 2.24991ZM6 3.74994C5.02174 3.74994 4.67974 3.75638 4.41766 3.82661C3.6412 4.03466 3.03472 4.64114 2.82667 5.4176C2.75644 5.67968 2.75 6.02168 2.75 6.99994V13.9999C2.75 15.4354 2.75159 16.4365 2.85315 17.1918C2.9518 17.9256 3.13225 18.3142 3.40901 18.5909C3.68577 18.8677 4.07434 19.0481 4.80812 19.1468C5.56347 19.2483 6.56458 19.2499 8 19.2499H16C17.4354 19.2499 18.4365 19.2483 19.1919 19.1468C19.9257 19.0481 20.3142 18.8677 20.591 18.5909C20.8678 18.3142 21.0482 17.9256 21.1469 17.1918C21.2484 16.4365 21.25 15.4354 21.25 13.9999V11.9999C21.25 10.5645 21.2484 9.56341 21.1469 8.80806C21.0482 8.07428 20.8678 7.68571 20.591 7.40895C20.3142 7.13219 19.9257 6.95174 19.1919 6.85309C18.4365 6.75153 17.4354 6.74994 16 6.74994H15.1213L15.0206 6.74996C14.2524 6.75022 13.7203 6.7504 13.2147 6.60629C12.9378 6.52738 12.671 6.41685 12.4194 6.2769C11.96 6.0213 11.5839 5.64488 11.0409 5.10153L11.0409 5.10153L11.0409 5.10151L10.9697 5.03027C10.3279 4.3885 10.1047 4.17477 9.85127 4.03376C9.70034 3.94979 9.54024 3.88347 9.37414 3.83613C9.09521 3.75662 8.78628 3.74994 7.87868 3.74994H6ZM12 10.7501C10.7574 10.7501 9.75 11.7574 9.75 13.0001C9.75 14.2427 10.7574 15.2501 12 15.2501C13.2426 15.2501 14.25 14.2427 14.25 13.0001C14.25 11.7574 13.2426 10.7501 12 10.7501ZM8.25 13.0001C8.25 10.929 9.92893 9.25006 12 9.25006C14.0711 9.25006 15.75 10.929 15.75 13.0001C15.75 15.0711 14.0711 16.7501 12 16.7501C9.92893 16.7501 8.25 15.0711 8.25 13.0001ZM18 11.0001C18.5523 11.0001 19 10.5523 19 10.0001C19 9.44778 18.5523 9.00006 18 9.00006C17.4477 9.00006 17 9.44778 17 10.0001C17 10.5523 17.4477 11.0001 18 11.0001Z" fill="#22282F"/>
</svg>
