<svg width="24" height="24" viewBox="0 0 24 24" fill="none" xmlns="http://www.w3.org/2000/svg">
<path fill-rule="evenodd" clip-rule="evenodd" d="M22.5304 1.46973C22.8233 1.76262 22.8233 2.2375 22.5304 2.53039L19.735 5.32576C19.816 5.34018 19.8942 5.35734 19.9704 5.37775C21.2646 5.72446 22.2756 6.73534 22.6223 8.02956C22.7505 8.50817 22.7503 9.06626 22.7501 9.88415C22.7501 9.92218 22.75 9.96077 22.75 9.99994V13.9999V14.0548C22.7501 15.4224 22.7501 16.5247 22.6335 17.3917C22.5125 18.2918 22.2536 19.0497 21.6517 19.6516C21.0498 20.2535 20.2919 20.5124 19.3918 20.6334C18.5248 20.75 17.4225 20.75 16.0549 20.7499H16H4.31083L2.53038 22.5304C2.23749 22.8233 1.76261 22.8233 1.46972 22.5304C1.17683 22.2375 1.17683 21.7626 1.46972 21.4697L21.4697 1.46973C21.7626 1.17684 22.2375 1.17684 22.5304 1.46973ZM5.81083 19.2499H16C17.4355 19.2499 18.4366 19.2483 19.1919 19.1468C19.9257 19.0481 20.3143 18.8677 20.591 18.5909C20.8678 18.3142 21.0482 17.9256 21.1469 17.1918C21.2485 16.4365 21.25 15.4354 21.25 13.9999V9.99994C21.25 9.02177 21.2436 8.6798 21.1734 8.41775C20.9654 7.64122 20.3588 7.03469 19.5823 6.82666C19.3501 6.76446 19.0551 6.75232 18.3104 6.75039L5.81083 19.2499ZM9.52424 3.88464C9.18146 3.76038 8.79559 3.74994 7.6569 3.74994H6.00005C5.02179 3.74994 4.67979 3.75638 4.41771 3.82661C3.64125 4.03466 3.03477 4.64114 2.82672 5.4176C2.75649 5.67968 2.75005 6.02168 2.75005 6.99994V17.0001C2.75005 17.4143 2.41426 17.7501 2.00005 17.7501C1.58584 17.7501 1.25005 17.4143 1.25005 17.0001V6.99994C1.25005 6.96077 1.25004 6.92217 1.25002 6.88414C1.24975 6.06618 1.24957 5.50803 1.37783 5.02937C1.72458 3.73527 2.73538 2.72447 4.02948 2.37772C4.50814 2.24946 5.06629 2.24964 5.88425 2.24991C5.92228 2.24993 5.96088 2.24994 6.00005 2.24994H7.6569C7.69955 2.24994 7.74162 2.24992 7.78315 2.2499C8.74595 2.24949 9.41415 2.24921 10.0355 2.47445C10.141 2.51272 10.2449 2.55573 10.3466 2.60332C10.9452 2.88339 11.4175 3.35608 12.098 4.03717C12.1273 4.06655 12.1571 4.09631 12.1872 4.12646L13.5304 5.46961C13.8233 5.7625 13.8233 6.23738 13.5304 6.53027C13.2375 6.82316 12.7626 6.82316 12.4697 6.53027L11.1266 5.18712C10.3214 4.38195 10.0412 4.11648 9.71092 3.96197C9.64988 3.93341 9.58759 3.90761 9.52424 3.88464Z" fill="#22282F"/>
</svg>
