<svg width="24" height="24" viewBox="0 0 24 24" fill="none" xmlns="http://www.w3.org/2000/svg">
<path fill-rule="evenodd" clip-rule="evenodd" d="M8.75 1C8.75 0.585786 8.41421 0.25 8 0.25C7.58579 0.25 7.25 0.585786 7.25 1V2.32709C6.99006 2.34691 6.7439 2.37182 6.51098 2.40313C5.33855 2.56076 4.38961 2.89288 3.64124 3.64124C2.89288 4.38961 2.56076 5.33855 2.40313 6.51098C2.24997 7.65019 2.24998 9.10582 2.25 10.9436V11V13V13.0564C2.24998 14.8942 2.24997 16.3498 2.40313 17.489C2.56076 18.6614 2.89288 19.6104 3.64124 20.3588C4.38961 21.1071 5.33855 21.4392 6.51098 21.5969C7.65018 21.75 9.1058 21.75 10.9435 21.75H10.9436H11H13H13.0564H13.0565C14.8942 21.75 16.3498 21.75 17.489 21.5969C18.6614 21.4392 19.6104 21.1071 20.3588 20.3588C21.1071 19.6104 21.4392 18.6614 21.5969 17.489C21.75 16.3498 21.75 14.8942 21.75 13.0565V13.0564V13V11V10.9436V10.9435C21.75 9.1058 21.75 7.65018 21.5969 6.51098C21.4392 5.33855 21.1071 4.38961 20.3588 3.64124C19.6104 2.89288 18.6614 2.56076 17.489 2.40313C17.2561 2.37182 17.0099 2.34691 16.75 2.32709V1C16.75 0.585786 16.4142 0.25 16 0.25C15.5858 0.25 15.25 0.585786 15.25 1V2.26272C14.588 2.24999 13.8586 2.24999 13.0564 2.25L13 2.25H12.75V1C12.75 0.585786 12.4142 0.25 12 0.25C11.5858 0.25 11.25 0.585786 11.25 1V2.25H11L10.9436 2.25C10.1414 2.24999 9.41203 2.24999 8.75 2.26272V1ZM15.25 3.76309C14.5973 3.75032 13.854 3.75 13 3.75H12.75V5C12.75 5.41421 12.4142 5.75 12 5.75C11.5858 5.75 11.25 5.41421 11.25 5V3.75H11C10.146 3.75 9.40273 3.75032 8.75 3.76309V5C8.75 5.41421 8.41421 5.75 8 5.75C7.58579 5.75 7.25 5.41421 7.25 5V3.83168C7.06061 3.8477 6.88123 3.86685 6.71085 3.88976C5.70476 4.02502 5.12511 4.27869 4.7019 4.7019C4.27869 5.12511 4.02502 5.70476 3.88976 6.71085C3.75159 7.73851 3.75 9.09318 3.75 11V13C3.75 14.9068 3.75159 16.2615 3.88976 17.2892C4.02502 18.2952 4.27869 18.8749 4.7019 19.2981C5.12511 19.7213 5.70476 19.975 6.71085 20.1102C7.73851 20.2484 9.09318 20.25 11 20.25H13C14.9068 20.25 16.2615 20.2484 17.2892 20.1102C18.2952 19.975 18.8749 19.7213 19.2981 19.2981C19.7213 18.8749 19.975 18.2952 20.1102 17.2892C20.2484 16.2615 20.25 14.9068 20.25 13V11C20.25 9.09318 20.2484 7.73851 20.1102 6.71085C19.975 5.70476 19.7213 5.12511 19.2981 4.7019C18.8749 4.27869 18.2952 4.02502 17.2892 3.88976C17.1188 3.86685 16.9394 3.8477 16.75 3.83168V5C16.75 5.41421 16.4142 5.75 16 5.75C15.5858 5.75 15.25 5.41421 15.25 5V3.76309ZM6.25 9C6.25 8.58579 6.58579 8.25 7 8.25H17C17.4142 8.25 17.75 8.58579 17.75 9C17.75 9.41421 17.4142 9.75 17 9.75H7C6.58579 9.75 6.25 9.41421 6.25 9ZM7 12.25C6.58579 12.25 6.25 12.5858 6.25 13C6.25 13.4142 6.58579 13.75 7 13.75H13C13.4142 13.75 13.75 13.4142 13.75 13C13.75 12.5858 13.4142 12.25 13 12.25H7ZM6.25 17C6.25 16.5858 6.58579 16.25 7 16.25H9C9.41421 16.25 9.75 16.5858 9.75 17C9.75 17.4142 9.41421 17.75 9 17.75H7C6.58579 17.75 6.25 17.4142 6.25 17Z" fill="#22282F"/>
</svg>
