<svg width="24" height="24" viewBox="0 0 24 24" fill="none" xmlns="http://www.w3.org/2000/svg">
<path fill-rule="evenodd" clip-rule="evenodd" d="M11 2.25H10.9436C9.10582 2.24998 7.65019 2.24997 6.51098 2.40313C5.33856 2.56076 4.38961 2.89288 3.64124 3.64124C2.89288 4.38961 2.56076 5.33856 2.40313 6.51098C2.24997 7.65019 2.24998 9.10582 2.25 10.9436V11V13V13.0564C2.24998 14.8942 2.24997 16.3498 2.40313 17.489C2.56076 18.6614 2.89288 19.6104 3.64124 20.3588C4.38961 21.1071 5.33856 21.4392 6.51098 21.5969C7.65018 21.75 9.1058 21.75 10.9435 21.75H10.9436H11H14.1716L14.2818 21.75C15.3298 21.7502 16.0056 21.7504 16.6452 21.568C16.9959 21.4681 17.3339 21.3281 17.6525 21.1508C18.2337 20.8275 18.7115 20.3495 19.4524 19.6083L19.5303 19.5303L19.6083 19.4524C20.3495 18.7115 20.8275 18.2337 21.1508 17.6525C21.3281 17.3339 21.4681 16.9959 21.568 16.6452C21.7504 16.0056 21.7502 15.3298 21.75 14.2818L21.75 14.1716V11V10.9436V10.9435C21.75 9.1058 21.75 7.65018 21.5969 6.51098C21.4392 5.33856 21.1071 4.38961 20.3588 3.64124C19.6104 2.89288 18.6614 2.56076 17.489 2.40313C16.3498 2.24997 14.8942 2.24998 13.0564 2.25H13H11ZM4.7019 4.7019C5.12511 4.27869 5.70476 4.02502 6.71085 3.88976C7.73851 3.75159 9.09318 3.75 11 3.75H13C14.9068 3.75 16.2615 3.75159 17.2892 3.88976C18.2952 4.02502 18.8749 4.27869 19.2981 4.7019C19.7213 5.12511 19.975 5.70476 20.1102 6.71085C20.2484 7.73851 20.25 9.09318 20.25 11V14.1716C20.25 14.6251 20.249 14.9718 20.2414 15.25H20L19.948 15.25C19.0495 15.2499 18.3003 15.2499 17.7055 15.3299C17.0777 15.4143 16.5109 15.6 16.0555 16.0554C15.6 16.5109 15.4143 17.0777 15.3299 17.7055C15.2499 18.3003 15.25 19.0495 15.25 19.948L15.25 20V20.2414C14.9718 20.249 14.6251 20.25 14.1716 20.25H11C9.09318 20.25 7.73851 20.2484 6.71085 20.1102C5.70476 19.975 5.12511 19.7213 4.7019 19.2981C4.27869 18.8749 4.02502 18.2952 3.88976 17.2892C3.75159 16.2615 3.75 14.9068 3.75 13V11C3.75 9.09318 3.75159 7.73851 3.88976 6.71085C4.02502 5.70476 4.27869 5.12511 4.7019 4.7019ZM16.75 19.9297C16.8086 19.9016 16.8664 19.8717 16.9232 19.84C17.2988 19.6311 17.624 19.3154 18.4697 18.4697C19.3154 17.624 19.6311 17.2988 19.84 16.9232C19.8717 16.8664 19.9016 16.8086 19.9297 16.75C19.0044 16.7501 18.3766 16.7532 17.9054 16.8165C17.4439 16.8785 17.2464 16.9858 17.1161 17.1161C16.9858 17.2464 16.8786 17.4439 16.8165 17.9054C16.7532 18.3766 16.7501 19.0043 16.75 19.9297Z" fill="#22282F"/>
</svg>
