<svg width="24" height="24" viewBox="0 0 24 24" fill="none" xmlns="http://www.w3.org/2000/svg">
<path fill-rule="evenodd" clip-rule="evenodd" d="M11.9584 2.25H12H12.0416C13.4108 2.24999 14.4957 2.24998 15.3621 2.33812C16.2497 2.42841 16.9907 2.61739 17.639 3.05052C18.1576 3.39707 18.6029 3.84239 18.9495 4.36104C19.3826 5.00926 19.5716 5.7503 19.6619 6.63794C19.75 7.5043 19.75 8.5892 19.75 9.9584V10V14V14.0416C19.75 15.4108 19.75 16.4957 19.6619 17.3621C19.5716 18.2497 19.3826 18.9907 18.9495 19.639C18.6029 20.1576 18.1576 20.6029 17.639 20.9495C16.9907 21.3826 16.2497 21.5716 15.3621 21.6619C14.4957 21.75 13.4108 21.75 12.0416 21.75H12H11.9584C10.5892 21.75 9.50431 21.75 8.63794 21.6619C7.7503 21.5716 7.00926 21.3826 6.36104 20.9495C5.84239 20.6029 5.39707 20.1576 5.05052 19.639C4.61739 18.9907 4.42841 18.2497 4.33812 17.3621C4.31849 17.1691 4.30323 16.9653 4.29138 16.75H3C2.58579 16.75 2.25 16.4142 2.25 16C2.25 15.5858 2.58579 15.25 3 15.25H4.25273C4.24999 14.8739 4.25 14.4718 4.25 14.0416V14.0416L4.25 14V12.75H3C2.58579 12.75 2.25 12.4142 2.25 12C2.25 11.5858 2.58579 11.25 3 11.25H4.25V10L4.25 9.95841V9.95841C4.25 9.52822 4.24999 9.1261 4.25273 8.75H3C2.58579 8.75 2.25 8.41421 2.25 8C2.25 7.58579 2.58579 7.25 3 7.25H4.29138C4.30323 7.03466 4.31849 6.83088 4.33812 6.63794C4.42841 5.7503 4.61739 5.00926 5.05052 4.36104C5.39707 3.84239 5.84239 3.39707 6.36104 3.05052C7.00926 2.61739 7.7503 2.42841 8.63794 2.33812C9.5043 2.24998 10.5892 2.24999 11.9584 2.25ZM5.75288 8.75H7C7.41421 8.75 7.75 8.41421 7.75 8C7.75 7.58579 7.41421 7.25 7 7.25H5.79374C5.80359 7.08796 5.81564 6.93494 5.83041 6.78975C5.90865 6.02071 6.05673 5.55507 6.29772 5.1944C6.53484 4.83953 6.83953 4.53484 7.1944 4.29772C7.55507 4.05673 8.02071 3.90865 8.78975 3.83041C9.57133 3.75091 10.5799 3.75 12 3.75C13.4201 3.75 14.4287 3.75091 15.2102 3.83041C15.9793 3.90865 16.4449 4.05673 16.8056 4.29772C17.1605 4.53484 17.4652 4.83953 17.7023 5.1944C17.9433 5.55507 18.0914 6.02071 18.1696 6.78975C18.2491 7.57133 18.25 8.57993 18.25 10V14C18.25 15.4201 18.2491 16.4287 18.1696 17.2102C18.0914 17.9793 17.9433 18.4449 17.7023 18.8056C17.4652 19.1605 17.1605 19.4652 16.8056 19.7023C16.4449 19.9433 15.9793 20.0914 15.2102 20.1696C14.4287 20.2491 13.4201 20.25 12 20.25C10.5799 20.25 9.57133 20.2491 8.78975 20.1696C8.02071 20.0914 7.55507 19.9433 7.1944 19.7023C6.83953 19.4652 6.53484 19.1605 6.29772 18.8056C6.05673 18.4449 5.90865 17.9793 5.83041 17.2102C5.81564 17.0651 5.80359 16.912 5.79374 16.75H7C7.41421 16.75 7.75 16.4142 7.75 16C7.75 15.5858 7.41421 15.25 7 15.25H5.75288C5.75009 14.8719 5.75 14.4573 5.75 14V12.75H7C7.41421 12.75 7.75 12.4142 7.75 12C7.75 11.5858 7.41421 11.25 7 11.25H5.75V10C5.75 9.54272 5.75009 9.12811 5.75288 8.75ZM15 6.25C15.4142 6.25 15.75 6.58579 15.75 7V11C15.75 11.4142 15.4142 11.75 15 11.75C14.5858 11.75 14.25 11.4142 14.25 11V7C14.25 6.58579 14.5858 6.25 15 6.25Z" fill="#22282F"/>
</svg>
