<svg width="24" height="24" viewBox="0 0 24 24" fill="none" xmlns="http://www.w3.org/2000/svg">
<path fill-rule="evenodd" clip-rule="evenodd" d="M7.948 2.25L8 2.25L14 2.25L14.052 2.25C14.9505 2.24997 15.6997 2.24995 16.2945 2.32991C16.9223 2.41432 17.4891 2.59999 17.9445 3.05546C18.4 3.51093 18.5857 4.07773 18.6701 4.70552C18.7284 5.13901 18.7442 5.65453 18.7484 6.25008C19.0584 6.251 19.3102 6.25782 19.5365 6.30284C20.6274 6.51983 21.4802 7.3726 21.6972 8.4635C21.7504 8.731 21.7502 9.034 21.75 9.42672L21.75 9.5L21.75 9.57327C21.7502 9.966 21.7504 10.269 21.6972 10.5365C21.4802 11.6274 20.6274 12.4802 19.5365 12.6972C19.3006 12.7441 19.037 12.7495 18.7086 12.75C18.6968 12.9653 18.6815 13.1691 18.6619 13.3621C18.5716 14.2497 18.3826 14.9907 17.9495 15.639C17.6029 16.1576 17.1576 16.6029 16.639 16.9495C15.9907 17.3826 15.2497 17.5716 14.3621 17.6619C13.4957 17.75 12.4108 17.75 11.0416 17.75L11 17.75L10.9584 17.75C9.5892 17.75 8.5043 17.75 7.63794 17.6619C6.7503 17.5716 6.00926 17.3826 5.36104 16.9495C4.84239 16.6029 4.39707 16.1576 4.05052 15.639C3.61739 14.9907 3.42841 14.2497 3.33812 13.3621C3.24998 12.4957 3.24999 11.4108 3.25 10.0416L3.25 10.0416L3.25 10L3.25 7L3.25 6.948C3.24997 6.04952 3.24994 5.3003 3.32991 4.70552C3.41432 4.07773 3.59999 3.51093 4.05546 3.05546C4.51093 2.59999 5.07773 2.41432 5.70552 2.32991C6.3003 2.24995 7.04951 2.24997 7.94798 2.25L7.948 2.25ZM18.7473 11.2495C19.0524 11.248 19.1607 11.2425 19.2439 11.226C19.7397 11.1273 20.1273 10.7397 20.226 10.2439C20.2464 10.1414 20.25 10.0006 20.25 9.5C20.25 8.99939 20.2464 8.85862 20.226 8.75613C20.1273 8.26027 19.7397 7.87265 19.2439 7.77402C19.161 7.75753 19.053 7.752 18.75 7.75049L18.75 10L18.75 10.0416C18.75 10.4716 18.75 10.8736 18.7473 11.2495ZM17.25 6.9979C17.25 6.9986 17.25 6.9993 17.25 7C17.25 7.00069 17.25 7.00139 17.25 7.00209L17.25 10C17.25 11.4201 17.2491 12.4287 17.1696 13.2103C17.0914 13.9793 16.9433 14.4449 16.7023 14.8056C16.4652 15.1605 16.1605 15.4652 15.8056 15.7023C15.4449 15.9433 14.9793 16.0914 14.2102 16.1696C13.4287 16.2491 12.4201 16.25 11 16.25C9.57993 16.25 8.57133 16.2491 7.78975 16.1696C7.02071 16.0914 6.55507 15.9433 6.1944 15.7023C5.83953 15.4652 5.53484 15.1605 5.29772 14.8056C5.05673 14.4449 4.90865 13.9793 4.83041 13.2103C4.75091 12.4287 4.75 11.4201 4.75 10L4.75 7C4.75 6.03599 4.75159 5.38843 4.81654 4.9054C4.87858 4.44393 4.9858 4.24644 5.11612 4.11612C5.24643 3.9858 5.44393 3.87858 5.90539 3.81654C6.38843 3.7516 7.03599 3.75 8 3.75L14 3.75C14.964 3.75 15.6116 3.7516 16.0946 3.81654C16.5561 3.87858 16.7536 3.9858 16.8839 4.11612C17.0142 4.24644 17.1214 4.44393 17.1835 4.9054C17.2484 5.38808 17.25 6.03505 17.25 6.9979ZM2.25 21C2.25 20.5858 2.58578 20.25 3 20.25L21 20.25C21.4142 20.25 21.75 20.5858 21.75 21C21.75 21.4142 21.4142 21.75 21 21.75L3 21.75C2.58578 21.75 2.25 21.4142 2.25 21Z" fill="#22282F"/>
</svg>
