<svg width="24" height="24" viewBox="0 0 24 24" fill="none" xmlns="http://www.w3.org/2000/svg">
<path fill-rule="evenodd" clip-rule="evenodd" d="M4.00009 2.25C4.4143 2.25 4.75009 2.58579 4.75009 3V7.85926C4.75009 8.39694 4.75084 8.74935 4.77643 9.02383C4.80058 9.28285 4.84308 9.41685 4.898 9.51945C4.95291 9.62206 5.04082 9.73175 5.24295 9.89552C5.45713 10.0691 5.74994 10.2652 6.19731 10.5634L6.25009 10.5986V3C6.25009 2.58579 6.58588 2.25 7.00009 2.25C7.4143 2.25 7.75009 2.58579 7.75009 3V10.5986L7.80287 10.5634C8.25024 10.2652 8.54305 10.0691 8.75723 9.89552C8.95935 9.73175 9.04727 9.62206 9.10218 9.51945C9.15709 9.41685 9.1996 9.28285 9.22375 9.02383C9.24934 8.74935 9.25009 8.39694 9.25009 7.85926V3C9.25009 2.58579 9.58588 2.25 10.0001 2.25C10.4143 2.25 10.7501 2.58579 10.7501 3V7.85926L10.7501 7.89196C10.7501 8.38807 10.7501 8.81077 10.7173 9.16309C10.6823 9.53858 10.6064 9.88766 10.4247 10.2272C10.243 10.5668 9.99456 10.8235 9.70156 11.061C9.42666 11.2837 9.07497 11.5182 8.66222 11.7933L8.66216 11.7933L8.66215 11.7933L8.63492 11.8115L7.75009 12.4014V21C7.75009 21.4142 7.4143 21.75 7.00009 21.75C6.58588 21.75 6.25009 21.4142 6.25009 21V12.4014L5.36526 11.8115L5.33802 11.7933C4.92524 11.5182 4.57354 11.2837 4.29862 11.061C4.00561 10.8235 3.75722 10.5668 3.57548 10.2272C3.39375 9.88766 3.31792 9.53858 3.28291 9.16309C3.25006 8.81078 3.25007 8.38807 3.25009 7.89197L3.25009 7.85926V3C3.25009 2.58579 3.58588 2.25 4.00009 2.25ZM17.0001 2.25C17.4143 2.25 17.7501 2.58579 17.7501 3V12.3392C18.5663 12.5317 19.3305 13.0212 19.9226 13.663C20.7027 14.5084 21.2501 15.6851 21.2501 17C21.2501 18.3149 20.7027 19.4916 19.9226 20.337C19.1518 21.1725 18.0892 21.75 17.0001 21.75C15.9109 21.75 14.8484 21.1725 14.0776 20.337C13.2975 19.4916 12.7501 18.3149 12.7501 17C12.7501 15.6851 13.2975 14.5084 14.0776 13.663C14.6697 13.0212 15.4339 12.5317 16.2501 12.3392V3C16.2501 2.58579 16.5859 2.25 17.0001 2.25ZM17.0001 13.75C16.4324 13.75 15.7449 14.0679 15.18 14.6802C14.6243 15.2824 14.2501 16.1058 14.2501 17C14.2501 17.8942 14.6243 18.7176 15.18 19.3198C15.7449 19.9321 16.4324 20.25 17.0001 20.25C17.5678 20.25 18.2553 19.9321 18.8202 19.3198C19.3759 18.7176 19.7501 17.8942 19.7501 17C19.7501 16.1058 19.3759 15.2824 18.8202 14.6802C18.2553 14.0679 17.5678 13.75 17.0001 13.75Z" fill="#22282F"/>
</svg>
