<svg width="24" height="24" viewBox="0 0 24 24" fill="none" xmlns="http://www.w3.org/2000/svg">
<path fill-rule="evenodd" clip-rule="evenodd" d="M15.182 2.2724C14.9579 2.21639 14.7206 2.26672 14.5385 2.40885C14.3565 2.55098 14.2501 2.76906 14.2501 3.00001V15V21C14.2501 21.4142 14.5859 21.75 15.0001 21.75C15.4143 21.75 15.7501 21.4142 15.7501 21V15.4635L17.1244 14.7764L17.1573 14.7599C17.6672 14.505 18.1 14.2886 18.4392 14.0728C18.8004 13.843 19.1096 13.5815 19.3394 13.2097C19.5691 12.8379 19.6647 12.4444 19.7088 12.0186C19.7501 11.6187 19.7501 11.1347 19.7501 10.5648L19.7501 10.5279V7.12311L19.7501 7.07896C19.7501 6.36665 19.7501 5.7664 19.6918 5.27886C19.6299 4.76124 19.4948 4.28817 19.1677 3.86918C18.8405 3.45019 18.4143 3.20434 17.9272 3.01875C17.4683 2.84394 16.886 2.69838 16.195 2.52564L16.1521 2.51494L15.182 2.2724ZM16.4535 13.4348L15.7501 13.7865V3.96059L15.7883 3.97015C16.5336 4.15647 17.028 4.28136 17.3932 4.42047C17.7395 4.5524 17.8889 4.66876 17.9853 4.79229C18.0818 4.91583 18.1584 5.08899 18.2024 5.45696C18.2488 5.84495 18.2501 6.3549 18.2501 7.12311V10.5279C18.2501 11.1447 18.2492 11.5506 18.2167 11.8643C18.1861 12.1607 18.1323 12.3096 18.0634 12.4211C17.9945 12.5326 17.8854 12.6473 17.634 12.8072C17.3679 12.9765 17.0052 13.1589 16.4535 13.4348ZM4.75009 3.00001C4.75009 2.58579 4.4143 2.25001 4.00009 2.25001C3.58588 2.25001 3.25009 2.58579 3.25009 3.00001V7.85927L3.25009 7.89198C3.25007 8.38808 3.25006 8.81078 3.28291 9.1631C3.31792 9.53859 3.39375 9.88767 3.57548 10.2272C3.75722 10.5668 4.00561 10.8236 4.29862 11.061C4.57354 11.2837 4.92524 11.5182 5.33802 11.7934L5.36526 11.8115L6.25009 12.4014V21C6.25009 21.4142 6.58588 21.75 7.00009 21.75C7.4143 21.75 7.75009 21.4142 7.75009 21V12.4014L8.63492 11.8115L8.66215 11.7934L8.66216 11.7933C9.07494 11.5182 9.42664 11.2837 9.70156 11.061C9.99456 10.8236 10.243 10.5668 10.4247 10.2272C10.6064 9.88767 10.6823 9.53859 10.7173 9.1631C10.7501 8.81078 10.7501 8.38808 10.7501 7.89197L10.7501 7.85927V3.00001C10.7501 2.58579 10.4143 2.25001 10.0001 2.25001C9.58588 2.25001 9.25009 2.58579 9.25009 3.00001V7.85927C9.25009 8.39695 9.24934 8.74936 9.22375 9.02384C9.1996 9.28286 9.15709 9.41686 9.10218 9.51946C9.04727 9.62207 8.95935 9.73176 8.75723 9.89553C8.54305 10.0691 8.25024 10.2652 7.80287 10.5634L7.75009 10.5986V3.00001C7.75009 2.58579 7.4143 2.25001 7.00009 2.25001C6.58588 2.25001 6.25009 2.58579 6.25009 3.00001V10.5986L6.19731 10.5634C5.74994 10.2652 5.45713 10.0691 5.24295 9.89553C5.04082 9.73176 4.95291 9.62207 4.898 9.51946C4.84308 9.41686 4.80058 9.28286 4.77643 9.02384C4.75084 8.74936 4.75009 8.39695 4.75009 7.85927V3.00001Z" fill="#22282F"/>
</svg>
