<svg width="24" height="24" viewBox="0 0 24 24" fill="none" xmlns="http://www.w3.org/2000/svg">
<path fill-rule="evenodd" clip-rule="evenodd" d="M6.53033 2.46967C6.23744 2.17678 5.76256 2.17678 5.46967 2.46967C5.17678 2.76256 5.17678 3.23744 5.46967 3.53033L8.05546 6.11612C8.80266 6.86333 8.98437 7.07134 9.06453 7.31182C9.14469 7.5523 9.12414 7.82774 8.9747 8.87383L8.96967 8.90901L4.03033 3.96967C3.73744 3.67678 3.26256 3.67678 2.96967 3.96967C2.67678 4.26256 2.67678 4.73744 2.96967 5.03033L7.90901 9.96967L7.87383 9.9747C6.82774 10.1241 6.5523 10.1447 6.31182 10.0645C6.07134 9.98437 5.86333 9.80266 5.11612 9.05546L2.53033 6.46967C2.23744 6.17678 1.76256 6.17678 1.46967 6.46967C1.17678 6.76256 1.17678 7.23744 1.46967 7.53033L4.05546 10.1161L4.15866 10.2195L4.15867 10.2195C4.74955 10.8117 5.21778 11.281 5.83748 11.4876C6.45718 11.6941 7.11335 11.5996 7.94139 11.4804L8.08596 11.4596L9.23484 11.2955L9.93934 12L8.46967 13.4697L2.46967 19.4697C2.17678 19.7626 2.17678 20.2374 2.46967 20.5303C2.76256 20.8232 3.23744 20.8232 3.53033 20.5303L9.53033 14.5303L11 13.0607L15.4697 17.5303L18.4697 20.5303C18.7626 20.8232 19.2374 20.8232 19.5303 20.5303C19.8232 20.2374 19.8232 19.7626 19.5303 19.4697L16.5303 16.4697L11.5303 11.4697L10.2955 10.2348L10.4596 9.08596L10.4804 8.94139C10.5996 8.11335 10.6941 7.45718 10.4876 6.83748C10.281 6.21778 9.8117 5.74955 9.21948 5.15867L9.21948 5.15866L9.11612 5.05546L6.53033 2.46967ZM20.5303 2.46967C20.2374 2.17678 19.7626 2.17678 19.4697 2.46967L12.4697 9.46967C12.1768 9.76256 12.1768 10.2374 12.4697 10.5303C12.7626 10.8232 13.2374 10.8232 13.5303 10.5303L19.9996 4.06106C20.4877 4.5523 20.8348 4.91485 21.0753 5.23006C21.3577 5.60023 21.4216 5.8157 21.4216 6C21.4216 6.1843 21.3577 6.39977 21.0753 6.76994C20.7797 7.15742 20.3229 7.61644 19.6412 8.2981L15.4697 12.4697C15.1768 12.7626 15.1768 13.2374 15.4697 13.5303C15.7626 13.8232 16.2374 13.8232 16.5303 13.5303L20.7019 9.35876L20.7387 9.32194C21.374 8.68666 21.9038 8.15692 22.2678 7.67981C22.6521 7.17621 22.9216 6.64413 22.9216 6C22.9216 5.35587 22.6521 4.82379 22.2678 4.32019C21.9038 3.84307 21.374 3.31331 20.7387 2.67801L20.7019 2.64124L20.5303 2.46967Z" fill="#22282F"/>
</svg>
