<svg width="24" height="24" viewBox="0 0 24 24" fill="none" xmlns="http://www.w3.org/2000/svg">
<path fill-rule="evenodd" clip-rule="evenodd" d="M3.56066 4.56063C4.22142 3.89987 4.9593 3.68293 5.69211 3.76736C6.44938 3.8546 7.26436 4.2739 7.99524 5.00478C8.72612 5.73566 9.14542 6.55064 9.23267 7.30792C9.3171 8.04073 9.10016 8.77861 8.4394 9.43938C7.77864 10.1001 7.04075 10.3171 6.30791 10.2326C5.55062 10.1454 4.73562 9.72609 4.00474 8.99521C3.27387 8.26434 2.85458 7.44936 2.76735 6.69209C2.68294 5.95929 2.89989 5.2214 3.56066 4.56063ZM9.0559 3.94412C8.14666 3.03488 7.03408 2.41204 5.86379 2.27721C4.66903 2.13957 3.47935 2.52061 2.5 3.49997C1.52064 4.47932 1.13958 5.669 1.27721 6.86375C1.41202 8.03404 2.03484 9.14662 2.94408 10.0559C3.85333 10.9651 4.96593 11.588 6.13623 11.7228C7.10684 11.8346 8.07411 11.6041 8.92798 10.9886L9.93937 12L8.4697 13.4697L2.4697 19.4697C2.1768 19.7626 2.1768 20.2374 2.4697 20.5303C2.76259 20.8232 3.23746 20.8232 3.53036 20.5303L9.53036 14.5303L11 13.0607L15.4697 17.5303L18.4697 20.5303C18.7626 20.8232 19.2375 20.8232 19.5304 20.5303C19.8233 20.2374 19.8233 19.7626 19.5304 19.4697L16.5304 16.4697L11.5304 11.4697L9.98864 9.92795C10.6041 9.07409 10.8346 8.10684 10.7228 7.13624C10.588 5.96595 9.96514 4.85336 9.0559 3.94412ZM19.4697 2.46967C19.7626 2.17678 20.2375 2.17678 20.5304 2.46967L20.7019 2.64124L20.7387 2.67801C21.374 3.31331 21.9038 3.84307 22.2679 4.32019C22.6521 4.82379 22.9216 5.35587 22.9216 6C22.9216 6.64413 22.6521 7.17621 22.2679 7.67981C21.9038 8.15692 21.3741 8.68666 20.7387 9.32194L20.7019 9.35876L16.5304 13.5303C16.2375 13.8232 15.7626 13.8232 15.4697 13.5303C15.1768 13.2374 15.1768 12.7626 15.4697 12.4697L19.6413 8.2981C20.3229 7.61644 20.7797 7.15742 21.0753 6.76994C21.3578 6.39977 21.4216 6.1843 21.4216 6C21.4216 5.81571 21.3578 5.60024 21.0753 5.23006C20.8348 4.91485 20.4877 4.5523 19.9996 4.06106L13.5304 10.5303C13.2375 10.8232 12.7626 10.8232 12.4697 10.5303C12.1768 10.2374 12.1768 9.76256 12.4697 9.46967L19.4697 2.46967Z" fill="#22282F"/>
</svg>
