<svg width="24" height="24" viewBox="0 0 24 24" fill="none" xmlns="http://www.w3.org/2000/svg">
<path fill-rule="evenodd" clip-rule="evenodd" d="M6.93987 2.25L7.00025 2.25L17.0002 2.25L17.0606 2.25C17.8817 2.24995 18.5816 2.24992 19.1072 2.32705C19.6402 2.40526 20.2558 2.59799 20.5655 3.21738C20.8752 3.83677 20.66 4.44487 20.4028 4.9182C20.1491 5.38498 19.7292 5.94484 19.2365 6.60164L19.2365 6.60166L19.2002 6.65L17.1054 9.44308C17.1023 9.44742 17.099 9.45173 17.0957 9.456L12.7502 15.25L12.7502 20.25L16.0002 20.25C16.4145 20.25 16.7502 20.5858 16.7502 21C16.7502 21.4142 16.4145 21.75 16.0002 21.75L12.0002 21.75L8.00025 21.75C7.58603 21.75 7.25025 21.4142 7.25025 21C7.25025 20.5858 7.58603 20.25 8.00025 20.25L11.2502 20.25L11.2502 15.25L6.90483 9.45611C6.9015 9.45177 6.89821 9.44739 6.89497 9.44297L4.80025 6.65L4.76402 6.6017C4.27134 5.94487 3.85138 5.38499 3.5977 4.9182C3.34047 4.44487 3.12531 3.83677 3.435 3.21738C3.74469 2.59799 4.36028 2.40526 4.89328 2.32705C5.41892 2.24992 6.1188 2.24995 6.93987 2.25ZM9.00025 9.75L12.0002 13.75L15.0002 9.75L9.00025 9.75ZM16.1252 8.25L7.87525 8.25L6.00025 5.75C5.46133 5.03144 5.11029 4.56012 4.91566 4.20196C4.82357 4.03251 4.79442 3.93838 4.78613 3.89294C4.82745 3.87232 4.92025 3.83915 5.11106 3.81115C5.51437 3.75197 6.10205 3.75 7.00025 3.75L17.0002 3.75C17.8984 3.75 18.4861 3.75197 18.8894 3.81115C19.0802 3.83915 19.173 3.87231 19.2144 3.89294C19.2061 3.93838 19.1769 4.03251 19.0848 4.20196C18.8902 4.56012 18.5392 5.03144 18.0002 5.75L16.1252 8.25ZM4.75699 3.91271C4.75626 3.91243 4.75881 3.9092 4.76687 3.90385C4.76176 3.91032 4.75773 3.91299 4.75699 3.91271ZM19.2435 3.91271C19.2428 3.91299 19.2387 3.91032 19.2336 3.90385C19.2417 3.9092 19.2442 3.91243 19.2435 3.91271ZM19.2172 3.871C19.2151 3.86302 19.2154 3.85819 19.216 3.85777C19.2167 3.85735 19.2178 3.86134 19.2172 3.871ZM4.7833 3.871C4.78274 3.86134 4.7838 3.85735 4.78446 3.85777C4.78513 3.85819 4.78541 3.86302 4.7833 3.871Z" fill="#22282F"/>
</svg>
