<svg id="Layer_1" data-name="Layer 1" xmlns="http://www.w3.org/2000/svg" viewBox="0 0 19.99136 23.33214"><defs><style>.cls-1{fill:#22292f;}</style></defs><path class="cls-1" d="M14.06569,11.4511l-1.74-9.3a1.7565,1.7565,0,0,0-1.72-1.42h-1.22a1.75649,1.75649,0,0,0-1.72,1.42l-1.74,9.3a5.58461,5.58461,0,0,0,.47,11.15h7.2a5.58467,5.58467,0,0,0,.47-11.15Zm2.42,8.45a4.02958,4.02958,0,0,1-2.89,1.2h-7.2a4.075,4.075,0,0,1-2.88-6.96,4.2676,4.2676,0,0,1,3.05005-1.21h.19a.50471.50471,0,0,0,.5-.41l1.88995-10.08a.24641.24641,0,0,1,.24005-.21h1.22a.24633.24633,0,0,1,.24.21l1.89,10.08a.50466.50466,0,0,0,.5.41h.19a4.26736,4.26736,0,0,1,3.05,1.21A4.04373,4.04373,0,0,1,16.48567,19.90106Z"/></svg>