<svg width="24" height="24" viewBox="0 0 24 24" fill="none" xmlns="http://www.w3.org/2000/svg">
<path fill-rule="evenodd" clip-rule="evenodd" d="M4 3.25C3.58579 3.25 3.25 3.58579 3.25 4C3.25 4.41422 3.58579 4.75 4 4.75L20 4.75C20.4142 4.75 20.75 4.41422 20.75 4C20.75 3.58579 20.4142 3.25 20 3.25L4 3.25ZM3.25 9C3.25 8.58579 3.58579 8.25 4 8.25L16 8.25C16.4142 8.25 16.75 8.58579 16.75 9C16.75 9.41422 16.4142 9.75 16 9.75L4 9.75C3.58579 9.75 3.25 9.41422 3.25 9ZM4 13.25C3.58579 13.25 3.25 13.5858 3.25 14C3.25 14.4142 3.58579 14.75 4 14.75L18 14.75C18.4142 14.75 18.75 14.4142 18.75 14C18.75 13.5858 18.4142 13.25 18 13.25L4 13.25ZM4 18.25C3.58579 18.25 3.25 18.5858 3.25 19C3.25 19.4142 3.58579 19.75 4 19.75L12 19.75C12.4142 19.75 12.75 19.4142 12.75 19C12.75 18.5858 12.4142 18.25 12 18.25L4 18.25Z" fill="#22282F"/>
</svg>
