<svg width="24" height="24" viewBox="0 0 24 24" fill="none" xmlns="http://www.w3.org/2000/svg">
<path fill-rule="evenodd" clip-rule="evenodd" d="M12.75 3C12.75 2.58579 12.4142 2.25 12 2.25C11.5858 2.25 11.25 2.58579 11.25 3V14.1893L8.53033 11.4697C8.23744 11.1768 7.76256 11.1768 7.46967 11.4697C7.17678 11.7626 7.17678 12.2374 7.46967 12.5303L11.4697 16.5303C11.7626 16.8232 12.2374 16.8232 12.5303 16.5303L16.5303 12.5303C16.8232 12.2374 16.8232 11.7626 16.5303 11.4697C16.2374 11.1768 15.7626 11.1768 15.4697 11.4697L12.75 14.1893V3ZM4 20.25C3.58579 20.25 3.25 20.5858 3.25 21C3.25 21.4142 3.58579 21.75 4 21.75H20C20.4142 21.75 20.75 21.4142 20.75 21C20.75 20.5858 20.4142 20.25 20 20.25H4Z" fill="#22282F"/>
</svg>
