<svg width="24" height="24" viewBox="0 0 24 24" fill="none" xmlns="http://www.w3.org/2000/svg">
<path fill-rule="evenodd" clip-rule="evenodd" d="M4 2.25C3.58579 2.25 3.25 2.58579 3.25 3C3.25 3.41421 3.58579 3.75 4 3.75H20C20.4142 3.75 20.75 3.41421 20.75 3C20.75 2.58579 20.4142 2.25 20 2.25H4ZM12.5303 7.46967C12.2374 7.17678 11.7626 7.17678 11.4697 7.46967L7.46967 11.4697C7.17678 11.7626 7.17678 12.2374 7.46967 12.5303C7.76256 12.8232 8.23744 12.8232 8.53033 12.5303L11.25 9.81066V21C11.25 21.4142 11.5858 21.75 12 21.75C12.4142 21.75 12.75 21.4142 12.75 21V9.81066L15.4697 12.5303C15.7626 12.8232 16.2374 12.8232 16.5303 12.5303C16.8232 12.2374 16.8232 11.7626 16.5303 11.4697L12.5303 7.46967Z" fill="#22282F"/>
</svg>
