<svg width="24" height="24" viewBox="0 0 24 24" fill="none" xmlns="http://www.w3.org/2000/svg">
<path fill-rule="evenodd" clip-rule="evenodd" d="M12.5303 9.53033L15.5303 6.53033C15.8232 6.23744 15.8232 5.76256 15.5303 5.46967C15.2374 5.17678 14.7626 5.17678 14.4697 5.46967L12.75 7.18934V2C12.75 1.58579 12.4142 1.25 12 1.25C11.5858 1.25 11.25 1.58579 11.25 2V7.18934L9.53033 5.46967C9.23744 5.17678 8.76256 5.17678 8.46967 5.46967C8.17678 5.76256 8.17678 6.23744 8.46967 6.53033L11.4697 9.53033C11.7626 9.82322 12.2374 9.82322 12.5303 9.53033ZM12 22.75C12.4142 22.75 12.75 22.4142 12.75 22V16.8107L14.4697 18.5303C14.7626 18.8232 15.2374 18.8232 15.5303 18.5303C15.8232 18.2374 15.8232 17.7626 15.5303 17.4697L12.5303 14.4697C12.2374 14.1768 11.7626 14.1768 11.4697 14.4697L8.46967 17.4697C8.17678 17.7626 8.17678 18.2374 8.46967 18.5303C8.76256 18.8232 9.23744 18.8232 9.53033 18.5303L11.25 16.8107V22C11.25 22.4142 11.5858 22.75 12 22.75ZM4 11.25C3.58579 11.25 3.25 11.5858 3.25 12C3.25 12.4142 3.58579 12.75 4 12.75H20C20.4142 12.75 20.75 12.4142 20.75 12C20.75 11.5858 20.4142 11.25 20 11.25H4Z" fill="#22282F"/>
</svg>
