<svg width="24" height="24" viewBox="0 0 24 24" fill="none" xmlns="http://www.w3.org/2000/svg">
<path fill-rule="evenodd" clip-rule="evenodd" d="M4 3.25C3.58579 3.25 3.25 3.58579 3.25 4V12V20C3.25 20.4142 3.58579 20.75 4 20.75H12H20C20.4142 20.75 20.75 20.4142 20.75 20V12V4C20.75 3.58579 20.4142 3.25 20 3.25H12H4ZM4.75 12V4.75H12H19.25V12V19.25H12H4.75V12ZM13 8C13 8.55228 12.5523 9 12 9C11.4477 9 11 8.55228 11 8C11 7.44772 11.4477 7 12 7C12.5523 7 13 7.44772 13 8ZM8 13C8.55228 13 9 12.5523 9 12C9 11.4477 8.55228 11 8 11C7.44772 11 7 11.4477 7 12C7 12.5523 7.44772 13 8 13ZM16 13C16.5523 13 17 12.5523 17 12C17 11.4477 16.5523 11 16 11C15.4477 11 15 11.4477 15 12C15 12.5523 15.4477 13 16 13ZM12 17C12.5523 17 13 16.5523 13 16C13 15.4477 12.5523 15 12 15C11.4477 15 11 15.4477 11 16C11 16.5523 11.4477 17 12 17ZM13 12C13 12.5523 12.5523 13 12 13C11.4477 13 11 12.5523 11 12C11 11.4477 11.4477 11 12 11C12.5523 11 13 11.4477 13 12Z" fill="#22282F"/>
</svg>
