<svg width="24" height="24" viewBox="0 0 24 24" fill="none" xmlns="http://www.w3.org/2000/svg">
<path fill-rule="evenodd" clip-rule="evenodd" d="M9 2.25H8.94513H8.94512C7.57753 2.24998 6.47522 2.24996 5.60825 2.36652C4.70814 2.48754 3.95027 2.74643 3.34835 3.34835C2.74643 3.95027 2.48754 4.70814 2.36652 5.60825C2.24996 6.47522 2.24998 7.57753 2.25 8.94512V8.94513V9V15V15.0549C2.24998 16.4225 2.24996 17.5248 2.36652 18.3918C2.48754 19.2919 2.74643 20.0497 3.34835 20.6517C3.95027 21.2536 4.70814 21.5125 5.60825 21.6335C6.47522 21.75 7.57754 21.75 8.94513 21.75H9H15H15.0549C16.4225 21.75 17.5248 21.75 18.3918 21.6335C19.2919 21.5125 20.0497 21.2536 20.6517 20.6517C21.2536 20.0497 21.5125 19.2919 21.6335 18.3918C21.75 17.5248 21.75 16.4225 21.75 15.0549V15V9V8.94513C21.75 7.57754 21.75 6.47522 21.6335 5.60825C21.5125 4.70814 21.2536 3.95027 20.6517 3.34835C20.0497 2.74643 19.2919 2.48754 18.3918 2.36652C17.5248 2.24996 16.4225 2.24998 15.0549 2.25H15H9ZM4.40901 4.40901C4.68577 4.13225 5.07435 3.9518 5.80812 3.85315C6.56347 3.75159 7.56459 3.75 9 3.75H15C16.4354 3.75 17.4365 3.75159 18.1919 3.85315C18.9257 3.9518 19.3142 4.13225 19.591 4.40901C19.8678 4.68577 20.0482 5.07435 20.1469 5.80812C20.2484 6.56347 20.25 7.56459 20.25 9V15C20.25 16.4354 20.2484 17.4365 20.1469 18.1919C20.0482 18.9257 19.8678 19.3142 19.591 19.591C19.3142 19.8678 18.9257 20.0482 18.1919 20.1469C17.4365 20.2484 16.4354 20.25 15 20.25H9C7.56458 20.25 6.56347 20.2484 5.80812 20.1469C5.07435 20.0482 4.68577 19.8678 4.40901 19.591C4.13225 19.3142 3.9518 18.9257 3.85315 18.1919C3.75159 17.4365 3.75 16.4354 3.75 15V9C3.75 7.56458 3.75159 6.56347 3.85315 5.80812C3.9518 5.07435 4.13225 4.68577 4.40901 4.40901ZM7.9999 7.25002C7.58569 7.25002 7.2499 7.5858 7.2499 8.00002C7.2499 8.41423 7.58569 8.75002 7.9999 8.75002H13.9999C14.4141 8.75002 14.7499 8.41423 14.7499 8.00002C14.7499 7.5858 14.4141 7.25002 13.9999 7.25002H7.9999ZM7.2499 12C7.2499 11.5858 7.58569 11.25 7.9999 11.25H15.9999C16.4141 11.25 16.7499 11.5858 16.7499 12C16.7499 12.4142 16.4141 12.75 15.9999 12.75H7.9999C7.58569 12.75 7.2499 12.4142 7.2499 12ZM7.9999 15.25C7.58569 15.25 7.2499 15.5858 7.2499 16C7.2499 16.4142 7.58569 16.75 7.9999 16.75H11.9999C12.4141 16.75 12.7499 16.4142 12.7499 16C12.7499 15.5858 12.4141 15.25 11.9999 15.25H7.9999Z" fill="#22282F"/>
</svg>
