<svg width="24" height="24" viewBox="0 0 24 24" fill="none" xmlns="http://www.w3.org/2000/svg">
<path fill-rule="evenodd" clip-rule="evenodd" d="M2 3.25C2.41421 3.25 2.75 3.58579 2.75 4V20C2.75 20.4142 2.41421 20.75 2 20.75C1.58579 20.75 1.25 20.4142 1.25 20V4C1.25 3.58579 1.58579 3.25 2 3.25ZM22 3.25C22.4142 3.25 22.75 3.58579 22.75 4V12V20C22.75 20.4142 22.4142 20.75 22 20.75C21.5858 20.75 21.25 20.4142 21.25 20V12V4C21.25 3.58579 21.5858 3.25 22 3.25ZM18.5303 12.5303C18.671 12.3897 18.75 12.1989 18.75 12C18.75 11.8011 18.671 11.6103 18.5303 11.4697L16.0303 8.96967C15.7374 8.67678 15.2626 8.67678 14.9697 8.96967C14.6768 9.26256 14.6768 9.73744 14.9697 10.0303L16.1893 11.25H7.81066L9.03033 10.0303C9.32322 9.73744 9.32322 9.26256 9.03033 8.96967C8.73744 8.67678 8.26256 8.67678 7.96967 8.96967L5.46967 11.4697C5.17678 11.7626 5.17678 12.2374 5.46967 12.5303L7.96967 15.0303C8.26256 15.3232 8.73744 15.3232 9.03033 15.0303C9.32322 14.7374 9.32322 14.2626 9.03033 13.9697L7.81066 12.75H16.1893L14.9697 13.9697C14.6768 14.2626 14.6768 14.7374 14.9697 15.0303C15.2626 15.3232 15.7374 15.3232 16.0303 15.0303L18.5303 12.5303Z" fill="#22282F"/>
</svg>
