<svg width="24" height="24" viewBox="0 0 24 24" fill="none" xmlns="http://www.w3.org/2000/svg">
<path fill-rule="evenodd" clip-rule="evenodd" d="M1.46967 1.46967C1.76256 1.17678 2.23744 1.17678 2.53033 1.46967L7.29229 6.23163L19.1743 18.1137L22.5303 21.4697C22.8232 21.7626 22.8232 22.2374 22.5303 22.5303C22.2374 22.8232 21.7626 22.8232 21.4697 22.5303L18.7205 19.7811C16.4933 22.3934 12.8471 23.2592 9.69085 22.466C6.20595 21.5902 3.25 18.6816 3.25 13.8518C3.25 11.1432 4.38044 8.75208 5.77087 6.83153L1.46967 2.53033C1.17678 2.23744 1.17678 1.76256 1.46967 1.46967ZM6.84632 7.90698C5.63905 9.62941 4.75 11.6487 4.75 13.8518C4.75 17.9404 7.18492 20.2896 10.0564 21.0112C12.7876 21.6976 15.8559 20.9021 17.6554 18.7161L6.84632 7.90698ZM11.9996 3.16743C11.5975 3.16746 11.3849 3.30413 10.4909 4.04205C10.296 4.20287 10.0923 4.37628 9.88274 4.56173C9.57252 4.83621 9.09853 4.80723 8.82406 4.49701C8.54958 4.18679 8.57856 3.7128 8.88878 3.43833C9.11198 3.24085 9.32874 3.0563 9.536 2.88523C9.56944 2.85762 9.60259 2.83019 9.6355 2.80296C10.3857 2.18214 11.0077 1.66751 11.9995 1.66743C12.9913 1.66736 13.6126 2.18131 14.3621 2.80126C14.3949 2.82839 14.4279 2.85573 14.4612 2.88324C15.6777 3.88698 17.2385 5.36857 18.4999 7.2167C19.761 9.06439 20.75 11.3191 20.75 13.8519C20.75 14.276 20.7272 14.6866 20.6827 15.0835C20.6367 15.4951 20.2656 15.7915 19.8539 15.7454C19.4423 15.6993 19.146 15.3282 19.192 14.9166C19.2301 14.577 19.25 14.2222 19.25 13.8519C19.25 11.7168 18.4156 9.75399 17.261 8.06231C16.1066 6.37108 14.6594 4.99149 13.5066 4.04021C12.614 3.3037 12.4018 3.1674 11.9996 3.16743Z" fill="#22282F"/>
</svg>
