<svg width="24" height="24" viewBox="0 0 24 24" fill="none" xmlns="http://www.w3.org/2000/svg">
<path fill-rule="evenodd" clip-rule="evenodd" d="M11.9998 3.16745C11.5976 3.16746 11.3855 3.30375 10.493 4.04019C9.34026 4.99148 7.89313 6.37106 6.73889 8.06229C5.58435 9.75395 4.75 11.7168 4.75 13.8518C4.75 16.3691 5.66985 18.1996 7.00337 19.4069C8.34965 20.6258 10.1636 21.25 12 21.25C13.8364 21.25 15.6504 20.6258 16.9966 19.407C18.3301 18.1997 19.25 16.3691 19.25 13.8518C19.25 11.7167 18.4156 9.75393 17.261 8.06226C16.1066 6.37102 14.6594 4.99143 13.5066 4.04015C12.6141 3.30373 12.4019 3.16744 11.9998 3.16745ZM9.63749 2.80128C10.3868 2.18138 11.008 1.66746 11.9998 1.66745C12.9915 1.66743 13.6127 2.18133 14.3621 2.80121C14.3949 2.82834 14.4279 2.85568 14.4612 2.88318C15.6777 3.88692 17.2385 5.36852 18.4999 7.21665C19.761 9.06434 20.75 11.3191 20.75 13.8518C20.75 16.7666 19.6699 19.0102 18.0034 20.5189C16.3496 22.0161 14.1636 22.75 12 22.75C9.83643 22.75 7.65035 22.0161 5.99663 20.5189C4.33015 19.0101 3.25 16.7666 3.25 13.8518C3.25 11.3191 4.23892 9.0644 5.49993 7.21672C6.76125 5.3686 8.32196 3.88701 9.53832 2.88325C9.57165 2.85575 9.60469 2.82841 9.63749 2.80128Z" fill="#22282F"/>
</svg>
