<svg width="24" height="24" viewBox="0 0 24 24" fill="none" xmlns="http://www.w3.org/2000/svg">
<path fill-rule="evenodd" clip-rule="evenodd" d="M18.8407 3.90349C18.3639 3.47009 17.6358 3.47008 17.1591 3.90346C17.1404 3.92046 17.116 3.94456 17.0302 4.0303L16.7233 4.3372C16.699 5.41336 17.5863 6.30079 18.6624 6.27666L18.9695 5.96959C19.0552 5.88385 19.0793 5.85945 19.0963 5.84075C19.5297 5.36399 19.5297 4.63594 19.0964 4.15917C19.0794 4.14047 19.0553 4.11607 18.9695 4.03033C18.8838 3.94459 18.8594 3.92048 18.8407 3.90349ZM17.3916 7.54753C16.5063 7.20184 15.798 6.49351 15.4524 5.60816L10.097 10.9634C9.29022 11.7702 8.98963 12.0796 8.78348 12.4437C8.57734 12.8078 8.46667 13.2247 8.18995 14.3316L8.03055 14.9692L8.66816 14.8098C9.77503 14.5331 10.192 14.4224 10.556 14.2163C10.9201 14.0101 11.2295 13.7096 12.0363 12.9028L17.3916 7.54753ZM16.1501 2.7935C17.199 1.84005 18.8008 1.84008 19.8497 2.79355C19.8985 2.83792 19.9503 2.88977 20.0176 2.9571L20.0176 2.95712L20.0302 2.96969L20.0427 2.98222L20.0428 2.98223C20.1101 3.04957 20.162 3.10142 20.2063 3.15023C21.1597 4.19912 21.1597 5.80085 20.2063 6.84971C20.162 6.89848 20.1102 6.95028 20.0429 7.01752L20.0428 7.01761L20.0427 7.01773L20.0302 7.03025L13.097 13.9635L13.0234 14.037C12.3154 14.7453 11.8581 15.2028 11.2951 15.5216C10.7321 15.8403 10.1046 15.9971 9.13287 16.2398L9.13286 16.2398L9.03197 16.265L7.18168 16.7276C6.9261 16.7915 6.65573 16.7166 6.46945 16.5303C6.28316 16.344 6.20827 16.0737 6.27217 15.8181L6.73474 13.9678L6.75995 13.8669C7.00267 12.8952 7.15943 12.2676 7.47819 11.7047C7.79694 11.1417 8.25442 10.6844 8.96278 9.97632L8.96279 9.97631L9.03634 9.90278L15.9696 2.96963L15.9821 2.95706C16.0495 2.88972 16.1013 2.83787 16.1501 2.7935ZM3.25 21C3.25 20.5858 3.58579 20.25 4 20.25H20C20.4142 20.25 20.75 20.5858 20.75 21C20.75 21.4142 20.4142 21.75 20 21.75H4C3.58579 21.75 3.25 21.4142 3.25 21Z" fill="#22282F"/>
</svg>
