<svg width="24" height="24" viewBox="0 0 24 24" fill="none" xmlns="http://www.w3.org/2000/svg">
<path fill-rule="evenodd" clip-rule="evenodd" d="M19.8499 3.79356C18.801 2.84007 17.1993 2.84005 16.1504 3.79351C16.1016 3.83787 16.0497 3.88973 15.9824 3.95708L15.9824 3.95709L15.9698 3.96963L12.4698 7.46965L13.0001 7.99998L12.4698 7.46965L11.9697 7.96973C11.6768 8.26262 11.6768 8.7375 11.9697 9.03039C12.2626 9.32328 12.7375 9.32328 13.0303 9.03039L13.5304 8.53031L14.9524 7.10832C15.2981 7.99364 16.0064 8.70195 16.8917 9.04759L15.4697 10.4696L14.9697 10.9696C14.6768 11.2625 14.6768 11.7374 14.9697 12.0303C15.2626 12.3232 15.7375 12.3232 16.0303 12.0303L16.5303 11.5303L20.0304 8.03024L20.043 8.0177L20.0431 8.0176C20.1104 7.95032 20.1622 7.8985 20.2065 7.84971C21.16 6.80085 21.16 5.19912 20.2066 4.15023C20.1622 4.10143 20.1104 4.04959 20.043 3.98228L20.0305 3.96969L20.0179 3.95713C19.9506 3.88979 19.8987 3.83792 19.8499 3.79356ZM18.1627 7.77665L18.9698 6.96958C19.0555 6.88385 19.0796 6.85945 19.0966 6.84075C19.53 6.36399 19.53 5.63593 19.0966 5.15917C19.0796 5.14047 19.0555 5.11606 18.9698 5.03033C18.884 4.94459 18.8596 4.92048 18.8409 4.90349C18.3642 4.47009 17.6361 4.47008 17.1593 4.90346C17.1406 4.92046 17.1162 4.94456 17.0305 5.0303L16.2233 5.83742C16.1991 6.91356 17.0865 7.80091 18.1627 7.77665ZM4.53035 3.46965C4.23745 3.17676 3.76258 3.17676 3.46969 3.46965C3.17679 3.76254 3.17679 4.23742 3.46969 4.53031L9.43938 10.5L6.03657 13.9028L5.96302 13.9763C5.25466 14.6844 4.79718 15.1417 4.47843 15.7047C4.15967 16.2676 4.00291 16.8952 3.76019 17.8669L3.73498 17.9678L3.27241 19.8181C3.20851 20.0737 3.2834 20.344 3.46969 20.5303C3.65597 20.7166 3.92634 20.7915 4.18192 20.7276L6.03221 20.265L6.1331 20.2398C7.1048 19.9971 7.73236 19.8403 8.29534 19.5216C8.85831 19.2028 9.31561 18.7453 10.0237 18.037L10.0972 17.9635L13.5 14.5606L19.4697 20.5303C19.7626 20.8232 20.2375 20.8232 20.5303 20.5303C20.8232 20.2374 20.8232 19.7625 20.5303 19.4696L14.0303 12.9696L12.5304 11.4697L11.0304 9.96968L4.53035 3.46965ZM7.09722 14.9634L10.5 11.5607L11.4697 12.5303L12.4394 13.5L9.03654 16.9028C8.22978 17.7095 7.92038 18.0101 7.55629 18.2163C7.1922 18.4224 6.77527 18.5331 5.6684 18.8098L5.03079 18.9692L5.19019 18.3316C5.46691 17.2247 5.57758 16.8078 5.78372 16.4437C5.98987 16.0796 6.29045 15.7702 7.09722 14.9634Z" fill="#22282F"/>
</svg>
