<svg width="24" height="24" viewBox="0 0 24 24" fill="none" xmlns="http://www.w3.org/2000/svg">
<path fill-rule="evenodd" clip-rule="evenodd" d="M12.2499 4C12.2499 3.58579 12.5857 3.25 12.9999 3.25L19.9999 3.25C20.4141 3.25 20.7499 3.58579 20.7499 4C20.7499 4.41422 20.4141 4.75 19.9999 4.75L12.9999 4.75C12.5857 4.75 12.2499 4.41422 12.2499 4ZM3.25 19C3.25 18.5858 3.58578 18.25 4 18.25L20 18.25C20.4142 18.25 20.75 18.5858 20.75 19C20.75 19.4142 20.4142 19.75 20 19.75L4 19.75C3.58578 19.75 3.25 19.4142 3.25 19ZM12.9999 8.25C12.5857 8.25 12.2499 8.58579 12.2499 9C12.2499 9.41422 12.5857 9.75 12.9999 9.75L19.9999 9.75C20.4141 9.75 20.7499 9.41422 20.7499 9C20.7499 8.58579 20.4141 8.25 19.9999 8.25L12.9999 8.25ZM3.25 14C3.25 13.5857 3.58578 13.25 4 13.25L20 13.25C20.4142 13.25 20.75 13.5857 20.75 14C20.75 14.4142 20.4142 14.75 20 14.75L4 14.75C3.58578 14.75 3.25 14.4142 3.25 14ZM4.00011 3.25C3.5859 3.25 3.25011 3.58579 3.25011 4C3.25011 4.41421 3.5859 4.75 4.00011 4.75L5.75011 4.75L5.75011 9C5.75011 9.41421 6.0859 9.75 6.50011 9.75C6.91433 9.75 7.25011 9.41421 7.25011 9L7.25011 4.75L9.00011 4.75C9.41433 4.75 9.75011 4.41421 9.75011 4C9.75011 3.58579 9.41433 3.25 9.00011 3.25L6.50011 3.25L4.00011 3.25Z" fill="#22282F"/>
</svg>
