<svg width="24" height="24" viewBox="0 0 24 24" fill="none" xmlns="http://www.w3.org/2000/svg">
<path fill-rule="evenodd" clip-rule="evenodd" d="M12.25 4C12.25 3.58579 12.5858 3.25 13 3.25L20 3.25C20.4142 3.25 20.75 3.58579 20.75 4C20.75 4.41421 20.4142 4.75 20 4.75L13 4.75C12.5858 4.75 12.25 4.41421 12.25 4ZM3.25 19C3.25 18.5858 3.58579 18.25 4 18.25L20 18.25C20.4142 18.25 20.75 18.5858 20.75 19C20.75 19.4142 20.4142 19.75 20 19.75L4 19.75C3.58579 19.75 3.25 19.4142 3.25 19ZM13 8.25C12.5858 8.25 12.25 8.58579 12.25 9C12.25 9.41421 12.5858 9.75 13 9.75L20 9.75C20.4142 9.75 20.75 9.41421 20.75 9C20.75 8.58579 20.4142 8.25 20 8.25L13 8.25ZM3.25 13.9999C3.25 13.5857 3.58579 13.2499 4 13.2499L20 13.2499C20.4142 13.2499 20.75 13.5857 20.75 13.9999C20.75 14.4142 20.4142 14.7499 20 14.7499L4 14.7499C3.58579 14.7499 3.25 14.4142 3.25 13.9999ZM4.75 6.5C4.75 5.5335 5.5335 4.75 6.5 4.75C7.4665 4.75 8.25 5.5335 8.25 6.5C8.25 7.4665 7.4665 8.25 6.5 8.25C5.5335 8.25 4.75 7.4665 4.75 6.5ZM6.5 3.25C4.70507 3.25 3.25 4.70507 3.25 6.5C3.25 8.29493 4.70507 9.75 6.5 9.75C8.29493 9.75 9.75 8.29493 9.75 6.5C9.75 4.70507 8.29493 3.25 6.5 3.25Z" fill="#22282F"/>
</svg>
