<svg width="24" height="24" viewBox="0 0 24 24" fill="none" xmlns="http://www.w3.org/2000/svg">
<path fill-rule="evenodd" clip-rule="evenodd" d="M5.30965 3.70699C5.42724 3.42993 5.69907 3.25 6.00005 3.25H18C18.4143 3.25 18.75 3.58579 18.75 4C18.75 4.41421 18.4143 4.75 18 4.75H7.76722L14.2668 11.4789C14.5475 11.7696 14.5475 12.2304 14.2668 12.5211L7.76722 19.25H18C18.4143 19.25 18.75 19.5858 18.75 20C18.75 20.4142 18.4143 20.75 18 20.75H6.00005C5.69907 20.75 5.42724 20.5701 5.30965 20.293C5.19207 20.0159 5.2515 19.6954 5.4606 19.4789L12.6846 12L5.4606 4.52106C5.2515 4.30457 5.19207 3.98405 5.30965 3.70699Z" fill="#22282F"/>
</svg>
