<svg width="24" height="24" viewBox="0 0 24 24" fill="none" xmlns="http://www.w3.org/2000/svg">
<path fill-rule="evenodd" clip-rule="evenodd" d="M3.25011 4C3.25011 3.58579 3.5859 3.25 4.00011 3.25L20.0001 3.25C20.4143 3.25 20.7501 3.58579 20.7501 4C20.7501 4.41422 20.4143 4.75 20.0001 4.75L4.00011 4.75C3.5859 4.75 3.25011 4.41422 3.25011 4ZM10.25 9C10.25 8.58579 10.5858 8.25 11 8.25L20 8.25C20.4142 8.25 20.75 8.58579 20.75 9C20.75 9.41421 20.4142 9.75 20 9.75L11 9.75C10.5858 9.75 10.25 9.41421 10.25 9ZM3.25011 19C3.25011 18.5858 3.5859 18.25 4.00011 18.25L20.0001 18.25C20.4143 18.25 20.7501 18.5858 20.7501 19C20.7501 19.4142 20.4143 19.75 20.0001 19.75L4.00011 19.75C3.5859 19.75 3.25011 19.4142 3.25011 19ZM11 13.25C10.5858 13.25 10.25 13.5858 10.25 14C10.25 14.4142 10.5858 14.75 11 14.75L20 14.75C20.4142 14.75 20.75 14.4142 20.75 14C20.75 13.5858 20.4142 13.25 20 13.25L11 13.25ZM7.03033 9.53027C7.32322 9.23738 7.32322 8.7625 7.03033 8.46961C6.73744 8.17672 6.26256 8.17672 5.96967 8.46961L3.46967 10.9696C3.17678 11.2625 3.17678 11.7374 3.46967 12.0303L5.96967 14.5303C6.26256 14.8232 6.73744 14.8232 7.03033 14.5303C7.32322 14.2374 7.32322 13.7625 7.03033 13.4696L5.06066 11.4999L7.03033 9.53027Z" fill="#22282F"/>
</svg>
