<svg width="24" height="24" viewBox="0 0 24 24" fill="none" xmlns="http://www.w3.org/2000/svg">
<path fill-rule="evenodd" clip-rule="evenodd" d="M3.25 4C3.25 3.58579 3.58579 3.25 4 3.25L20 3.25C20.4142 3.25 20.75 3.58579 20.75 4C20.75 4.41422 20.4142 4.75 20 4.75L4 4.75C3.58579 4.75 3.25 4.41422 3.25 4ZM9.25 9C9.25 8.58579 9.58579 8.25 10 8.25L20 8.25C20.4142 8.25 20.75 8.58579 20.75 9C20.75 9.41422 20.4142 9.75 20 9.75L10 9.75C9.58579 9.75 9.25 9.41422 9.25 9ZM3.25 19C3.25 18.5858 3.58579 18.25 4 18.25L20 18.25C20.4142 18.25 20.75 18.5858 20.75 19C20.75 19.4142 20.4142 19.75 20 19.75L4 19.75C3.58579 19.75 3.25 19.4142 3.25 19ZM10 13.25C9.58579 13.25 9.25 13.5858 9.25 14C9.25 14.4142 9.58579 14.75 10 14.75L20 14.75C20.4142 14.75 20.75 14.4142 20.75 14C20.75 13.5858 20.4142 13.25 20 13.25L10 13.25ZM4.53033 8.46967C4.23744 8.17678 3.76256 8.17678 3.46967 8.46967C3.17678 8.76256 3.17678 9.23744 3.46967 9.53033L5.43934 11.5L3.46967 13.4697C3.17678 13.7626 3.17678 14.2374 3.46967 14.5303C3.76256 14.8232 4.23744 14.8232 4.53033 14.5303L7.03033 12.0303C7.32322 11.7374 7.32322 11.2626 7.03033 10.9697L4.53033 8.46967Z" fill="#22282F"/>
</svg>
