<svg width="24" height="24" viewBox="0 0 24 24" fill="none" xmlns="http://www.w3.org/2000/svg">
<path fill-rule="evenodd" clip-rule="evenodd" d="M11.25 4C11.25 3.58579 11.5858 3.25 12 3.25L20 3.25C20.4142 3.25 20.75 3.58579 20.75 4C20.75 4.41421 20.4142 4.75 20 4.75L12 4.75C11.5858 4.75 11.25 4.41421 11.25 4ZM3.25 19C3.25 18.5858 3.58578 18.25 4 18.25L20 18.25C20.4142 18.25 20.75 18.5858 20.75 19C20.75 19.4142 20.4142 19.75 20 19.75L4 19.75C3.58578 19.75 3.25 19.4142 3.25 19ZM12 8.25C11.5858 8.25 11.25 8.58579 11.25 9C11.25 9.41421 11.5858 9.75 12 9.75L20 9.75C20.4142 9.75 20.75 9.41421 20.75 9C20.75 8.58579 20.4142 8.25 20 8.25L12 8.25ZM4.46967 3.46967C4.76256 3.17678 5.23744 3.17678 5.53033 3.46967L8.03033 5.96967C8.32322 6.26256 8.32322 6.73744 8.03033 7.03033L5.53033 9.53033C5.23744 9.82322 4.76256 9.82322 4.46967 9.53033C4.17678 9.23744 4.17678 8.76256 4.46967 8.46967L6.43934 6.5L4.46967 4.53033C4.17678 4.23744 4.17678 3.76256 4.46967 3.46967ZM4 13.25C3.58578 13.25 3.25 13.5857 3.25 14C3.25 14.4142 3.58578 14.75 4 14.75L20 14.75C20.4142 14.75 20.75 14.4142 20.75 14C20.75 13.5857 20.4142 13.25 20 13.25L4 13.25Z" fill="#22282F"/>
</svg>
