<svg width="24" height="24" viewBox="0 0 24 24" fill="none" xmlns="http://www.w3.org/2000/svg">
<path fill-rule="evenodd" clip-rule="evenodd" d="M8 3.25C7.58579 3.25 7.25 3.58579 7.25 4C7.25 4.41421 7.58579 4.75 8 4.75H11.25V12C11.25 12.4142 11.5858 12.75 12 12.75C12.4142 12.75 12.75 12.4142 12.75 12V4.75H16C16.4142 4.75 16.75 4.41421 16.75 4C16.75 3.58579 16.4142 3.25 16 3.25H12H8ZM21.5303 18.5303C21.8232 18.2374 21.8232 17.7626 21.5303 17.4697L19.0303 14.9697C18.7374 14.6768 18.2626 14.6768 17.9697 14.9697C17.6768 15.2626 17.6768 15.7374 17.9697 16.0303L19.1893 17.25L4.81066 17.25L6.03033 16.0303C6.32322 15.7374 6.32322 15.2626 6.03033 14.9697C5.73744 14.6768 5.26256 14.6768 4.96967 14.9697L2.46967 17.4697C2.17678 17.7626 2.17678 18.2374 2.46967 18.5303L4.96967 21.0303C5.26256 21.3232 5.73744 21.3232 6.03033 21.0303C6.32322 20.7374 6.32322 20.2626 6.03033 19.9697L4.81066 18.75L19.1893 18.75L17.9697 19.9697C17.6768 20.2626 17.6768 20.7374 17.9697 21.0303C18.2626 21.3232 18.7374 21.3232 19.0303 21.0303L21.5303 18.5303Z" fill="#22282F"/>
</svg>
