<svg width="24" height="24" viewBox="0 0 24 24" fill="none" xmlns="http://www.w3.org/2000/svg">
<path fill-rule="evenodd" clip-rule="evenodd" d="M6.53033 3.46967C6.23744 3.17678 5.76256 3.17678 5.46967 3.46967L2.46967 6.46967C2.17678 6.76256 2.17678 7.23744 2.46967 7.53033C2.76256 7.82322 3.23744 7.82322 3.53033 7.53033L5.25 5.81066L5.25 18.1893L3.53033 16.4697C3.23744 16.1768 2.76256 16.1768 2.46967 16.4697C2.17678 16.7626 2.17678 17.2374 2.46967 17.5303L5.46967 20.5303C5.76256 20.8232 6.23744 20.8232 6.53033 20.5303L9.53033 17.5303C9.82322 17.2374 9.82322 16.7626 9.53033 16.4697C9.23744 16.1768 8.76256 16.1768 8.46967 16.4697L6.75 18.1893L6.75 5.81066L8.46967 7.53033C8.76256 7.82322 9.23744 7.82322 9.53033 7.53033C9.82322 7.23744 9.82322 6.76256 9.53033 6.46967L6.53033 3.46967ZM11.25 4.99997C11.25 4.58576 11.5858 4.24997 12 4.24997L22 4.24997C22.4142 4.24997 22.75 4.58576 22.75 4.99997C22.75 5.41418 22.4142 5.74997 22 5.74997L12 5.74997C11.5858 5.74997 11.25 5.41418 11.25 4.99997ZM12 11.25C11.5858 11.25 11.25 11.5858 11.25 12C11.25 12.4142 11.5858 12.75 12 12.75L22 12.75C22.4142 12.75 22.75 12.4142 22.75 12C22.75 11.5858 22.4142 11.25 22 11.25L12 11.25ZM12 18.25C11.5858 18.25 11.25 18.5858 11.25 19C11.25 19.4142 11.5858 19.75 12 19.75L22 19.75C22.4142 19.75 22.75 19.4142 22.75 19C22.75 18.5858 22.4142 18.25 22 18.25L12 18.25Z" fill="#22282F"/>
</svg>
