<svg width="24" height="24" viewBox="0 0 24 24" fill="none" xmlns="http://www.w3.org/2000/svg">
<path fill-rule="evenodd" clip-rule="evenodd" d="M3.25 3C3.25 2.58579 3.58579 2.25 4 2.25H20C20.4142 2.25 20.75 2.58579 20.75 3C20.75 3.41421 20.4142 3.75 20 3.75H4C3.58579 3.75 3.25 3.41421 3.25 3ZM3.25 21C3.25 20.5858 3.58579 20.25 4 20.25H20C20.4142 20.25 20.75 20.5858 20.75 21C20.75 21.4142 20.4142 21.75 20 21.75H4C3.58579 21.75 3.25 21.4142 3.25 21ZM12.6708 7.66459C12.5438 7.4105 12.2841 7.25 12 7.25C11.7159 7.25 11.4562 7.4105 11.3292 7.66459L8.82918 12.6646L7.32918 15.6646C7.14394 16.0351 7.29411 16.4856 7.66459 16.6708C8.03507 16.8561 8.48558 16.7059 8.67082 16.3354L9.96353 13.75H14.0365L15.3292 16.3354C15.5144 16.7059 15.9649 16.8561 16.3354 16.6708C16.7059 16.4856 16.8561 16.0351 16.6708 15.6646L15.1708 12.6646L12.6708 7.66459ZM12 9.67705L13.2865 12.25H10.7135L12 9.67705Z" fill="#22282F"/>
</svg>
