<svg width="24" height="24" viewBox="0 0 24 24" fill="none" xmlns="http://www.w3.org/2000/svg">
<path fill-rule="evenodd" clip-rule="evenodd" d="M2.75 12C2.75 9.65279 4.65279 7.75 7 7.75H9C9.41421 7.75 9.75 7.41421 9.75 7C9.75 6.58579 9.41421 6.25 9 6.25H7C3.82436 6.25 1.25 8.82436 1.25 12C1.25 15.1756 3.82436 17.75 7 17.75H9C9.41421 17.75 9.75 17.4142 9.75 17C9.75 16.5858 9.41421 16.25 9 16.25H7C4.65279 16.25 2.75 14.3472 2.75 12ZM15 6.25C14.5858 6.25 14.25 6.58579 14.25 7C14.25 7.41421 14.5858 7.75 15 7.75H17C19.3472 7.75 21.25 9.65279 21.25 12C21.25 14.3472 19.3472 16.25 17 16.25H15C14.5858 16.25 14.25 16.5858 14.25 17C14.25 17.4142 14.5858 17.75 15 17.75H17C20.1756 17.75 22.75 15.1756 22.75 12C22.75 8.82436 20.1756 6.25 17 6.25H15ZM8 11.25C7.58579 11.25 7.25 11.5858 7.25 12C7.25 12.4142 7.58579 12.75 8 12.75H16C16.4142 12.75 16.75 12.4142 16.75 12C16.75 11.5858 16.4142 11.25 16 11.25H8Z" fill="#22282F"/>
</svg>
