<svg width="24" height="24" viewBox="0 0 24 24" fill="none" xmlns="http://www.w3.org/2000/svg">
<path fill-rule="evenodd" clip-rule="evenodd" d="M19.6017 4.39861C17.3561 2.1531 13.7154 2.1531 11.4699 4.39861L10.7628 5.10572C10.4699 5.39861 10.4699 5.87349 10.7628 6.16638C11.0557 6.45927 11.5306 6.45927 11.8235 6.16638L12.5306 5.45927C14.1903 3.79955 16.8813 3.79955 18.541 5.45927C20.2007 7.119 20.2007 9.80995 18.541 11.4697L16.8548 13.1559C15.3453 14.6654 12.8979 14.6654 11.3883 13.1559L11.1164 12.8839C10.8235 12.591 10.3486 12.591 10.0557 12.8839C9.76283 13.1768 9.76282 13.6517 10.0557 13.9446L10.3277 14.2165C12.423 16.3118 15.8202 16.3118 17.9155 14.2165L19.6017 12.5303C21.8472 10.2848 21.8472 6.64413 19.6017 4.39861ZM7.14582 10.8442C8.65534 9.33464 11.1028 9.33464 12.6123 10.8442L12.8843 11.1161C13.1772 11.409 13.652 11.409 13.9449 11.1161C14.2378 10.8232 14.2378 10.3484 13.9449 10.0555L13.673 9.78351C11.5776 7.6882 8.18047 7.6882 6.08516 9.78351L4.39898 11.4697C2.15346 13.7152 2.15346 17.3559 4.39898 19.6014C6.64449 21.8469 10.2852 21.8469 12.5307 19.6014L13.2378 18.8943C13.5307 18.6014 13.5307 18.1265 13.2378 17.8336C12.9449 17.5408 12.47 17.5408 12.1772 17.8336L11.47 18.5408C9.81032 20.2005 7.11937 20.2005 5.45964 18.5408C3.79991 16.881 3.79991 14.1901 5.45964 12.5303L7.14582 10.8442Z" fill="#22282F"/>
</svg>
