<svg width="24" height="24" viewBox="0 0 24 24" fill="none" xmlns="http://www.w3.org/2000/svg">
<path fill-rule="evenodd" clip-rule="evenodd" d="M4 2.24997L3.96555 2.24996L3.96555 2.24996C3.76044 2.24988 3.53865 2.24979 3.35143 2.27496C3.13211 2.30445 2.85192 2.38029 2.61612 2.61609C2.38032 2.85189 2.30448 3.13207 2.27499 3.3514C2.24982 3.53861 2.24991 3.76041 2.24999 3.96552L2.24999 3.96552L2.25 3.99997L2.25 5.99997L2.24999 6.03442C2.24991 6.23953 2.24982 6.46132 2.27499 6.64854C2.30448 6.86786 2.38032 7.14805 2.61612 7.38385C2.85192 7.61965 3.13211 7.69549 3.35143 7.72498C3.53864 7.75015 3.76043 7.75006 3.96554 7.74998L3.96556 7.74998L4 7.74997L6 7.74997L6.03444 7.74998C6.23956 7.75006 6.46135 7.75015 6.64857 7.72498C6.86789 7.69549 7.14808 7.61965 7.38388 7.38385C7.61968 7.14805 7.69552 6.86786 7.72501 6.64854C7.75018 6.46133 7.75009 6.23954 7.75001 6.03443L7.75001 6.03441L7.75 5.99997L7.75 3.99997L7.75001 3.96553C7.75009 3.76041 7.75018 3.53862 7.72501 3.3514C7.69552 3.13207 7.61968 2.85189 7.38388 2.61609C7.14808 2.38029 6.86789 2.30445 6.64857 2.27496C6.46135 2.24979 6.23956 2.24988 6.03445 2.24996L6 2.24997L4 2.24997ZM3.75 3.99997C3.75 3.90089 3.75003 3.82058 3.75115 3.75112C3.82061 3.75 3.90092 3.74997 4 3.74997L6 3.74997C6.09908 3.74997 6.17939 3.75 6.24885 3.75112C6.24997 3.82058 6.25 3.90089 6.25 3.99997L6.25 5.99997C6.25 6.09905 6.24997 6.17936 6.24885 6.24882C6.17939 6.24994 6.09908 6.24997 6 6.24997L4 6.24997C3.90092 6.24997 3.82061 6.24994 3.75115 6.24882C3.75003 6.17936 3.75 6.09905 3.75 5.99997L3.75 3.99997ZM10.25 4.99997C10.25 4.58576 10.5858 4.24997 11 4.24997L21 4.24997C21.4142 4.24997 21.75 4.58576 21.75 4.99997C21.75 5.41419 21.4142 5.74997 21 5.74997L11 5.74997C10.5858 5.74997 10.25 5.41419 10.25 4.99997ZM11 11.25C10.5858 11.25 10.25 11.5858 10.25 12C10.25 12.4142 10.5858 12.75 11 12.75L21 12.75C21.4142 12.75 21.75 12.4142 21.75 12C21.75 11.5858 21.4142 11.25 21 11.25L11 11.25ZM11 18.25C10.5858 18.25 10.25 18.5858 10.25 19C10.25 19.4142 10.5858 19.75 11 19.75L21 19.75C21.4142 19.75 21.75 19.4142 21.75 19C21.75 18.5858 21.4142 18.25 21 18.25L11 18.25ZM3.96555 9.24996L4 9.24997L6 9.24997L6.03445 9.24996C6.23956 9.24988 6.46135 9.24979 6.64857 9.27496C6.86789 9.30445 7.14808 9.38029 7.38388 9.61609C7.61968 9.85189 7.69552 10.1321 7.72501 10.3514C7.75018 10.5386 7.75009 10.7604 7.75001 10.9655L7.75 11L7.75 13L7.75001 13.0344C7.75009 13.2395 7.75018 13.4613 7.72501 13.6485C7.69552 13.8679 7.61968 14.1481 7.38388 14.3839C7.14808 14.6197 6.86789 14.6955 6.64857 14.725C6.46136 14.7501 6.23958 14.7501 6.03447 14.75L6.03444 14.75L6 14.75L4 14.75L3.96556 14.75C3.76044 14.7501 3.53865 14.7501 3.35143 14.725C3.13211 14.6955 2.85192 14.6197 2.61612 14.3839C2.38032 14.1481 2.30448 13.8679 2.27499 13.6485C2.24982 13.4613 2.24991 13.2395 2.24999 13.0344L2.25 13L2.25 11L2.24999 10.9655C2.24991 10.7604 2.24982 10.5386 2.27499 10.3514C2.30448 10.1321 2.38032 9.85189 2.61612 9.61609C2.85192 9.38029 3.13211 9.30445 3.35143 9.27496C3.53865 9.24979 3.76044 9.24988 3.96555 9.24996ZM3.75115 10.7511C3.75003 10.8206 3.75 10.9009 3.75 11L3.75 13C3.75 13.099 3.75003 13.1794 3.75115 13.2488C3.82061 13.2499 3.90092 13.25 4 13.25L6 13.25C6.09908 13.25 6.17939 13.2499 6.24885 13.2488C6.24997 13.1794 6.25 13.099 6.25 13L6.25 11C6.25 10.9009 6.24997 10.8206 6.24885 10.7511C6.17939 10.75 6.09908 10.75 6 10.75L4 10.75C3.90092 10.75 3.82061 10.75 3.75115 10.7511ZM4 16.25L3.96555 16.25L3.96553 16.25C3.76042 16.2499 3.53864 16.2498 3.35143 16.275C3.13211 16.3045 2.85192 16.3803 2.61612 16.6161C2.38032 16.8519 2.30448 17.1321 2.27499 17.3514C2.24982 17.5386 2.24991 17.7604 2.24999 17.9655L2.25 18L2.25 20L2.24999 20.0344C2.24991 20.2395 2.24982 20.4613 2.27499 20.6485C2.30448 20.8679 2.38032 21.1481 2.61612 21.3839C2.85192 21.6197 3.13211 21.6955 3.35143 21.725C3.53864 21.7501 3.76042 21.7501 3.96553 21.75L3.96556 21.75L4 21.75L6 21.75L6.03444 21.75C6.23956 21.7501 6.46135 21.7501 6.64857 21.725C6.8679 21.6955 7.14808 21.6197 7.38388 21.3839C7.61968 21.1481 7.69552 20.8679 7.72501 20.6485C7.75018 20.4613 7.75009 20.2395 7.75001 20.0344L7.75 20L7.75 18L7.75001 17.9655C7.75009 17.7604 7.75018 17.5386 7.72501 17.3514C7.69552 17.1321 7.61968 16.8519 7.38388 16.6161C7.14808 16.3803 6.8679 16.3045 6.64857 16.275C6.46135 16.2498 6.23956 16.2499 6.03445 16.25L6 16.25L4 16.25ZM3.75 18C3.75 17.9009 3.75003 17.8206 3.75115 17.7511C3.82061 17.75 3.90092 17.75 4 17.75L6 17.75C6.09908 17.75 6.17939 17.75 6.24885 17.7511C6.24997 17.8206 6.25 17.9009 6.25 18L6.25 20C6.25 20.099 6.24997 20.1794 6.24885 20.2488C6.17939 20.2499 6.09908 20.25 6 20.25L4 20.25C3.90092 20.25 3.82061 20.2499 3.75115 20.2488C3.75003 20.1794 3.75 20.099 3.75 20L3.75 18Z" fill="#22282F"/>
</svg>
