<svg width="24" height="24" viewBox="0 0 24 24" fill="none" xmlns="http://www.w3.org/2000/svg">
<path fill-rule="evenodd" clip-rule="evenodd" d="M5.85398 4.33872C6.09785 4.46924 6.25008 4.72338 6.25008 4.99997L6.25008 9.24994L7.00005 9.24991C7.41426 9.24989 7.75006 9.58567 7.75008 9.99988C7.7501 10.4141 7.41432 10.7499 7.00011 10.7499L5.50011 10.75L5.50008 10.75L4.00008 10.75C3.58587 10.75 3.25008 10.4142 3.25008 9.99997C3.25008 9.58576 3.58587 9.24997 4.00008 9.24997L4.75008 9.24997L4.75008 6.40131L4.41609 6.62396C4.07143 6.85371 3.60578 6.76057 3.37603 6.41592C3.14628 6.07126 3.23942 5.60562 3.58407 5.37586L5.08407 4.37592C5.31422 4.2225 5.61012 4.2082 5.85398 4.33872ZM11.0001 4.24998C10.5859 4.24998 10.2501 4.58576 10.2501 4.99998C10.2501 5.41419 10.5859 5.74998 11.0001 5.74998L21.0001 5.74998C21.4143 5.74998 21.7501 5.41419 21.7501 4.99998C21.7501 4.58576 21.4143 4.24998 21.0001 4.24998L11.0001 4.24998ZM10.2501 12C10.2501 11.5858 10.5859 11.25 11.0001 11.25L21.0001 11.25C21.4143 11.25 21.7501 11.5858 21.7501 12C21.7501 12.4142 21.4143 12.75 21.0001 12.75L11.0001 12.75C10.5859 12.75 10.2501 12.4142 10.2501 12ZM10.2501 19C10.2501 18.5858 10.5859 18.25 11.0001 18.25L21.0001 18.25C21.4143 18.25 21.7501 18.5858 21.7501 19C21.7501 19.4142 21.4143 19.75 21.0001 19.75L11.0001 19.75C10.5859 19.75 10.2501 19.4142 10.2501 19ZM4.00057 13.2499C3.58635 13.2499 3.25057 13.5857 3.25057 13.9999C3.25057 14.4141 3.58635 14.7499 4.00057 14.7499L6.25049 14.7499L6.2504 15.7499L4.00032 15.7499C3.58611 15.7499 3.25032 16.0857 3.25032 16.4999L3.25032 18.9999C3.25032 19.4141 3.58611 19.7499 4.00032 19.7499L7.00057 19.7499C7.41478 19.7499 7.75057 19.4141 7.75057 18.9999C7.75057 18.5857 7.41478 18.2499 7.00057 18.2499L4.75032 18.2499L4.75032 17.2499L7.00032 17.2499C7.41451 17.2499 7.75028 16.9142 7.75032 16.5L7.75057 14C7.75059 13.8011 7.67158 13.6103 7.53092 13.4696C7.39027 13.3289 7.19949 13.2499 7.00057 13.2499L4.00057 13.2499Z" fill="#22282F"/>
</svg>
