<svg width="24" height="24" viewBox="0 0 24 24" fill="none" xmlns="http://www.w3.org/2000/svg">
<path fill-rule="evenodd" clip-rule="evenodd" d="M7.53033 3.5303C7.82322 3.23741 7.82322 2.76253 7.53033 2.46964C7.23744 2.17675 6.76256 2.17675 6.46967 2.46964L4 4.93931L3.53033 4.46964C3.23744 4.17675 2.76256 4.17675 2.46967 4.46964C2.17678 4.76253 2.17678 5.23741 2.46967 5.5303L3.46967 6.5303C3.76256 6.82319 4.23744 6.82319 4.53033 6.5303L7.53033 3.5303ZM10.25 4.99997C10.25 4.58576 10.5858 4.24997 11 4.24997L21 4.24997C21.4142 4.24997 21.75 4.58576 21.75 4.99997C21.75 5.41418 21.4142 5.74997 21 5.74997L11 5.74997C10.5858 5.74997 10.25 5.41418 10.25 4.99997ZM11 11.25C10.5858 11.25 10.25 11.5858 10.25 12C10.25 12.4142 10.5858 12.75 11 12.75L21 12.75C21.4142 12.75 21.75 12.4142 21.75 12C21.75 11.5858 21.4142 11.25 21 11.25L11 11.25ZM11 18.25C10.5858 18.25 10.25 18.5858 10.25 19C10.25 19.4142 10.5858 19.75 11 19.75L21 19.75C21.4142 19.75 21.75 19.4142 21.75 19C21.75 18.5858 21.4142 18.25 21 18.25L11 18.25ZM7.53033 9.46964C7.82322 9.76253 7.82322 10.2374 7.53033 10.5303L4.53033 13.5303C4.23744 13.8232 3.76256 13.8232 3.46967 13.5303L2.46967 12.5303C2.17678 12.2374 2.17678 11.7625 2.46967 11.4696C2.76256 11.1767 3.23744 11.1767 3.53033 11.4696L4 11.9393L6.46967 9.46964C6.76256 9.17675 7.23744 9.17675 7.53033 9.46964ZM7.53033 17.5303C7.82322 17.2374 7.82322 16.7625 7.53033 16.4696C7.23744 16.1767 6.76256 16.1767 6.46967 16.4696L4 18.9393L3.53033 18.4696C3.23744 18.1767 2.76256 18.1767 2.46967 18.4696C2.17678 18.7625 2.17678 19.2374 2.46967 19.5303L3.46967 20.5303C3.76256 20.8232 4.23744 20.8232 4.53033 20.5303L7.53033 17.5303Z" fill="#22282F"/>
</svg>
