<svg width="24" height="24" viewBox="0 0 24 24" fill="none" xmlns="http://www.w3.org/2000/svg">
<path fill-rule="evenodd" clip-rule="evenodd" d="M5.00005 2.24991C4.58583 2.24988 4.25003 2.58565 4.25 2.99986C4.24997 3.41408 4.58574 3.74988 4.99995 3.74991L5.25 3.74992L5.25 6.24997L5 6.24997C4.58579 6.24997 4.25 6.58576 4.25 6.99997C4.25 7.41418 4.58579 7.74997 5 7.74997L6 7.74997L7 7.74997C7.41421 7.74997 7.75 7.41418 7.75 6.99997C7.75 6.58576 7.41421 6.24997 7 6.24997L6.75 6.24997L6.75 2.99997C6.75 2.58577 6.41424 2.24999 6.00005 2.24997L5.00005 2.24991ZM10.25 4.99998C10.25 4.58576 10.5858 4.24998 11 4.24998L21 4.24998C21.4143 4.24998 21.75 4.58576 21.75 4.99998C21.75 5.41419 21.4143 5.74998 21 5.74998L11 5.74998C10.5858 5.74998 10.25 5.41419 10.25 4.99998ZM11 11.25C10.5858 11.25 10.25 11.5858 10.25 12C10.25 12.4142 10.5858 12.75 11 12.75L21 12.75C21.4143 12.75 21.75 12.4142 21.75 12C21.75 11.5858 21.4143 11.25 21 11.25L11 11.25ZM11 18.25C10.5858 18.25 10.25 18.5858 10.25 19C10.25 19.4142 10.5858 19.75 11 19.75L21 19.75C21.4143 19.75 21.75 19.4142 21.75 19C21.75 18.5858 21.4143 18.25 21 18.25L11 18.25ZM4.25 9.99997C4.25 9.58576 4.58579 9.24997 5 9.24997L7 9.24997C7.25993 9.24997 7.50133 9.38456 7.63799 9.60567C7.77464 9.82678 7.78707 10.1029 7.67082 10.3354L6.21353 13.25L7 13.25C7.41421 13.25 7.75 13.5858 7.75 14C7.75 14.4142 7.41421 14.75 7 14.75L5 14.75C4.74007 14.75 4.49867 14.6154 4.36201 14.3943C4.22536 14.1732 4.21293 13.8971 4.32918 13.6646L5.78647 10.75L5 10.75C4.58579 10.75 4.25 10.4142 4.25 9.99997ZM5 16.25C4.58579 16.25 4.25 16.5858 4.25 17C4.25 17.4142 4.58579 17.75 5 17.75L6.25 17.75L6.25 18.25L5 18.25C4.58579 18.25 4.25 18.5858 4.25 19C4.25 19.4142 4.58579 19.75 5 19.75L6.25 19.75L6.25 20.25L5 20.25C4.58579 20.25 4.25 20.5858 4.25 21C4.25 21.4142 4.58579 21.75 5 21.75L7 21.75C7.41421 21.75 7.75 21.4142 7.75 21L7.75 19L7.75 17C7.75 16.5858 7.41421 16.25 7 16.25L5 16.25Z" fill="#22282F"/>
</svg>
