<svg width="24" height="24" viewBox="0 0 24 24" fill="none" xmlns="http://www.w3.org/2000/svg">
<path fill-rule="evenodd" clip-rule="evenodd" d="M3.75 4.99997C3.75 4.30961 4.30964 3.74997 5 3.74997C5.69036 3.74997 6.25 4.30961 6.25 4.99997C6.25 5.69033 5.69036 6.24997 5 6.24997C4.30964 6.24997 3.75 5.69033 3.75 4.99997ZM5 2.24997C3.48122 2.24997 2.25 3.48119 2.25 4.99997C2.25 6.51875 3.48122 7.74997 5 7.74997C6.51878 7.74997 7.75 6.51875 7.75 4.99997C7.75 3.48119 6.51878 2.24997 5 2.24997ZM10.25 4.99997C10.25 4.58576 10.5858 4.24997 11 4.24997L21 4.24997C21.4142 4.24997 21.75 4.58576 21.75 4.99997C21.75 5.41418 21.4142 5.74997 21 5.74997L11 5.74997C10.5858 5.74997 10.25 5.41418 10.25 4.99997ZM11 11.25C10.5858 11.25 10.25 11.5858 10.25 12C10.25 12.4142 10.5858 12.75 11 12.75L21 12.75C21.4142 12.75 21.75 12.4142 21.75 12C21.75 11.5858 21.4142 11.25 21 11.25L11 11.25ZM11 18.25C10.5858 18.25 10.25 18.5858 10.25 19C10.25 19.4142 10.5858 19.75 11 19.75L21 19.75C21.4142 19.75 21.75 19.4142 21.75 19C21.75 18.5858 21.4142 18.25 21 18.25L11 18.25ZM5 10.75C4.30964 10.75 3.75 11.3096 3.75 12C3.75 12.6903 4.30964 13.25 5 13.25C5.69036 13.25 6.25 12.6903 6.25 12C6.25 11.3096 5.69036 10.75 5 10.75ZM2.25 12C2.25 10.4812 3.48122 9.24997 5 9.24997C6.51878 9.24997 7.75 10.4812 7.75 12C7.75 13.5188 6.51878 14.75 5 14.75C3.48122 14.75 2.25 13.5188 2.25 12ZM3.75 19C3.75 18.3096 4.30964 17.75 5 17.75C5.69036 17.75 6.25 18.3096 6.25 19C6.25 19.6903 5.69036 20.25 5 20.25C4.30964 20.25 3.75 19.6903 3.75 19ZM5 16.25C3.48122 16.25 2.25 17.4812 2.25 19C2.25 20.5188 3.48122 21.75 5 21.75C6.51878 21.75 7.75 20.5188 7.75 19C7.75 17.4812 6.51878 16.25 5 16.25Z" fill="#22282F"/>
</svg>
