<svg width="24" height="24" viewBox="0 0 24 24" fill="none" xmlns="http://www.w3.org/2000/svg">
<path fill-rule="evenodd" clip-rule="evenodd" d="M4.03034 2.96964C3.73745 2.67675 3.26257 2.67675 2.96968 2.96964C2.67679 3.26253 2.67679 3.73741 2.96968 4.0303L3.93935 4.99997L2.96968 5.96964C2.67679 6.26253 2.67679 6.73741 2.96968 7.0303C3.26257 7.32319 3.73745 7.32319 4.03034 7.0303L5.00001 6.06063L5.96968 7.0303C6.26257 7.32319 6.73745 7.32319 7.03034 7.0303C7.32323 6.73741 7.32323 6.26253 7.03034 5.96964L6.06067 4.99997L7.03034 4.0303C7.32323 3.73741 7.32323 3.26253 7.03034 2.96964C6.73745 2.67675 6.26257 2.67675 5.96968 2.96964L5.00001 3.93931L4.03034 2.96964ZM10.25 4.99997C10.25 4.58576 10.5858 4.24997 11 4.24997L21 4.24997C21.4142 4.24997 21.75 4.58576 21.75 4.99997C21.75 5.41419 21.4142 5.74997 21 5.74997L11 5.74997C10.5858 5.74997 10.25 5.41419 10.25 4.99997ZM11 11.25C10.5858 11.25 10.25 11.5858 10.25 12C10.25 12.4142 10.5858 12.75 11 12.75L21 12.75C21.4142 12.75 21.75 12.4142 21.75 12C21.75 11.5858 21.4142 11.25 21 11.25L11 11.25ZM11 18.25C10.5858 18.25 10.25 18.5858 10.25 19C10.25 19.4142 10.5858 19.75 11 19.75L21 19.75C21.4142 19.75 21.75 19.4142 21.75 19C21.75 18.5858 21.4142 18.25 21 18.25L11 18.25ZM2.96968 9.96964C3.26257 9.67675 3.73745 9.67675 4.03034 9.96964L5.00001 10.9393L5.96968 9.96964C6.26257 9.67675 6.73745 9.67675 7.03034 9.96964C7.32323 10.2625 7.32323 10.7374 7.03034 11.0303L6.06067 12L7.03034 12.9696C7.32323 13.2625 7.32323 13.7374 7.03034 14.0303C6.73745 14.3232 6.26257 14.3232 5.96968 14.0303L5.00001 13.0606L4.03034 14.0303C3.73745 14.3232 3.26257 14.3232 2.96968 14.0303C2.67679 13.7374 2.67679 13.2625 2.96968 12.9696L3.93935 12L2.96968 11.0303C2.67679 10.7374 2.67679 10.2625 2.96968 9.96964ZM4.03034 16.9696C3.73745 16.6767 3.26257 16.6767 2.96968 16.9696C2.67679 17.2625 2.67679 17.7374 2.96968 18.0303L3.93935 19L2.96968 19.9696C2.67679 20.2625 2.67679 20.7374 2.96968 21.0303C3.26257 21.3232 3.73745 21.3232 4.03034 21.0303L5.00001 20.0606L5.96968 21.0303C6.26257 21.3232 6.73745 21.3232 7.03034 21.0303C7.32323 20.7374 7.32323 20.2625 7.03034 19.9696L6.06067 19L7.03034 18.0303C7.32323 17.7374 7.32323 17.2625 7.03034 16.9696C6.73745 16.6767 6.26257 16.6767 5.96968 16.9696L5.00001 17.9393L4.03034 16.9696Z" fill="#22282F"/>
</svg>
