<svg width="24" height="24" viewBox="0 0 24 24" fill="none" xmlns="http://www.w3.org/2000/svg">
<path fill-rule="evenodd" clip-rule="evenodd" d="M3.85349 4.33878C4.09736 4.4693 4.24959 4.72344 4.24959 5.00003L4.24959 9.25L4.99956 9.24997C5.41377 9.24995 5.74957 9.58573 5.74959 9.99994C5.74961 10.4142 5.41384 10.75 4.99962 10.75L3.49962 10.75L3.49959 10.75L1.99959 10.75C1.58538 10.75 1.24959 10.4142 1.24959 10C1.24959 9.58582 1.58538 9.25003 1.99959 9.25003L2.74959 9.25003L2.74959 6.40137L2.4156 6.62402C2.07095 6.85378 1.6053 6.76063 1.37554 6.41598C1.14579 6.07133 1.23893 5.60568 1.58358 5.37592L3.08358 4.37598C3.31373 4.22256 3.60963 4.20827 3.85349 4.33878ZM7.99983 5.24998C7.58561 5.24998 7.24983 5.58577 7.24983 5.99998C7.24983 6.41419 7.58561 6.74998 7.99983 6.74998L19.9998 6.74998C20.414 6.74998 20.7498 6.41419 20.7498 5.99998C20.7498 5.58577 20.414 5.24998 19.9998 5.24998L7.99983 5.24998ZM7.24983 12C7.24983 11.5858 7.58561 11.25 7.99983 11.25L19.9998 11.25C20.414 11.25 20.7498 11.5858 20.7498 12C20.7498 12.4142 20.414 12.75 19.9998 12.75L7.99983 12.75C7.58561 12.75 7.24983 12.4142 7.24983 12ZM7.24983 18C7.24983 17.5858 7.58561 17.25 7.99983 17.25L19.9998 17.25C20.414 17.25 20.7498 17.5858 20.7498 18C20.7498 18.4142 20.414 18.75 19.9998 18.75L7.99983 18.75C7.58561 18.75 7.24983 18.4142 7.24983 18ZM2 13.25C1.58579 13.25 1.25 13.5858 1.25 14C1.25 14.4142 1.58579 14.75 2 14.75L4.24993 14.75L4.24983 15.75L1.99976 15.75C1.58554 15.75 1.24976 16.0858 1.24976 16.5L1.24976 19C1.24976 19.4142 1.58554 19.75 1.99976 19.75L5 19.75C5.41421 19.75 5.75 19.4142 5.75 19C5.75 18.5858 5.41421 18.25 5 18.25L2.74976 18.25L2.74976 17.25L4.99976 17.25C5.41394 17.25 5.74972 16.9142 5.74976 16.5L5.75 14C5.75002 13.8011 5.67101 13.6103 5.53036 13.4697C5.3897 13.329 5.19893 13.25 5 13.25L2 13.25Z" fill="#22282F"/>
</svg>
