<svg width="24" height="24" viewBox="0 0 24 24" fill="none" xmlns="http://www.w3.org/2000/svg">
<path fill-rule="evenodd" clip-rule="evenodd" d="M4 2.25C4.41421 2.25 4.75 2.58579 4.75 3V4C4.75 4.96401 4.75159 5.61157 4.81654 6.09461C4.87858 6.55607 4.9858 6.75357 5.11612 6.88388C5.24643 7.0142 5.44393 7.12142 5.90539 7.18346C6.38843 7.24841 7.03599 7.25 8 7.25H16C16.964 7.25 17.6116 7.24841 18.0946 7.18346C18.5561 7.12142 18.7536 7.0142 18.8839 6.88388C19.0142 6.75357 19.1214 6.55607 19.1835 6.09461C19.2484 5.61157 19.25 4.96401 19.25 4V3C19.25 2.58579 19.5858 2.25 20 2.25C20.4142 2.25 20.75 2.58579 20.75 3V4V4.052C20.75 4.95048 20.7501 5.6997 20.6701 6.29448C20.5857 6.92227 20.4 7.48907 19.9445 7.94454C19.4891 8.40001 18.9223 8.58568 18.2945 8.67009C17.6997 8.75005 16.9505 8.75003 16.052 8.75L16 8.75H8L7.94801 8.75C7.04952 8.75003 6.3003 8.75005 5.70552 8.67009C5.07773 8.58568 4.51093 8.40001 4.05546 7.94454C3.59999 7.48907 3.41432 6.92227 3.32991 6.29448C3.24994 5.6997 3.24997 4.95048 3.25 4.052L3.25 4V3C3.25 2.58579 3.58579 2.25 4 2.25ZM7.948 15.25L8 15.25H16L16.052 15.25C16.9505 15.25 17.6997 15.2499 18.2945 15.3299C18.9223 15.4143 19.4891 15.6 19.9445 16.0555C20.4 16.5109 20.5857 17.0777 20.6701 17.7055C20.7501 18.3003 20.75 19.0495 20.75 19.948V20V21C20.75 21.4142 20.4142 21.75 20 21.75C19.5858 21.75 19.25 21.4142 19.25 21V20C19.25 19.036 19.2484 18.3884 19.1835 17.9054C19.1214 17.4439 19.0142 17.2464 18.8839 17.1161C18.7536 16.9858 18.5561 16.8786 18.0946 16.8165C17.6116 16.7516 16.964 16.75 16 16.75H8C7.03599 16.75 6.38843 16.7516 5.90539 16.8165C5.44393 16.8786 5.24643 16.9858 5.11612 17.1161C4.9858 17.2464 4.87858 17.4439 4.81654 17.9054C4.75159 18.3884 4.75 19.036 4.75 20V21C4.75 21.4142 4.41421 21.75 4 21.75C3.58579 21.75 3.25 21.4142 3.25 21V20L3.25 19.948C3.24997 19.0495 3.24994 18.3003 3.32991 17.7055C3.41432 17.0777 3.59999 16.5109 4.05546 16.0555C4.51093 15.6 5.07773 15.4143 5.70552 15.3299C6.3003 15.2499 7.04952 15.25 7.948 15.25ZM20 13C20.5523 13 21 12.5523 21 12C21 11.4477 20.5523 11 20 11C19.4477 11 19 11.4477 19 12C19 12.5523 19.4477 13 20 13ZM17 12C17 12.5523 16.5523 13 16 13C15.4477 13 15 12.5523 15 12C15 11.4477 15.4477 11 16 11C16.5523 11 17 11.4477 17 12ZM12 13C12.5523 13 13 12.5523 13 12C13 11.4477 12.5523 11 12 11C11.4477 11 11 11.4477 11 12C11 12.5523 11.4477 13 12 13ZM9 12C9 12.5523 8.55228 13 8 13C7.44772 13 7 12.5523 7 12C7 11.4477 7.44772 11 8 11C8.55228 11 9 11.4477 9 12ZM4 13C4.55228 13 5 12.5523 5 12C5 11.4477 4.55228 11 4 11C3.44772 11 3 11.4477 3 12C3 12.5523 3.44772 13 4 13Z" fill="#22282F"/>
</svg>
