<svg width="24" height="24" viewBox="0 0 24 24" fill="none" xmlns="http://www.w3.org/2000/svg">
<path fill-rule="evenodd" clip-rule="evenodd" d="M7.97475 1.25H8H14H14.0253H14.0253C14.4697 1.24999 14.8408 1.24999 15.1454 1.27077C15.4625 1.29241 15.762 1.33905 16.0524 1.45933C16.7262 1.73844 17.2616 2.27379 17.5407 2.94762C17.661 3.23801 17.7076 3.53754 17.7292 3.85464C17.7375 3.97579 17.7425 4.10744 17.7455 4.25005C18.324 4.25049 18.8141 4.2548 19.219 4.29598C19.6925 4.34415 20.1318 4.44886 20.5278 4.71346C20.8281 4.91409 21.0859 5.17191 21.2865 5.47218C21.5511 5.86818 21.6559 6.30755 21.704 6.78102C21.75 7.23334 21.75 7.79205 21.75 8.4616V8.46164V8.5V8.53836V8.5384C21.75 9.20795 21.75 9.76666 21.704 10.219C21.6559 10.6925 21.5511 11.1318 21.2865 11.5278C21.0859 11.8281 20.8281 12.0859 20.5278 12.2865C20.1318 12.5511 19.6925 12.6559 19.219 12.704C18.7667 12.75 18.208 12.75 17.5384 12.75H17.5383L17.5 12.75H15C14.036 12.75 13.3884 12.7516 12.9054 12.8165C12.4439 12.8786 12.2464 12.9858 12.1161 13.1161C11.9858 13.2464 11.8786 13.4439 11.8165 13.9054C11.7673 14.2716 11.7545 14.7323 11.7512 15.3538C12.9048 15.6807 13.75 16.7416 13.75 18V20C13.75 21.5188 12.5188 22.75 11 22.75C9.48122 22.75 8.25 21.5188 8.25 20V18C8.25 16.7409 9.09621 15.6794 10.2509 15.3532C10.2542 14.7139 10.2683 14.1638 10.3299 13.7055C10.4143 13.0777 10.6 12.5109 11.0555 12.0555C11.5109 11.6 12.0777 11.4143 12.7055 11.3299C13.3003 11.2499 14.0495 11.25 14.948 11.25H15H17.5C18.2178 11.25 18.6998 11.2491 19.0672 11.2117C19.422 11.1756 19.586 11.1118 19.6945 11.0393C19.831 10.9481 19.9481 10.831 20.0393 10.6945C20.1118 10.586 20.1756 10.422 20.2117 10.0672C20.2491 9.69977 20.25 9.21784 20.25 8.5C20.25 7.78216 20.2491 7.30023 20.2117 6.93283C20.1756 6.57796 20.1118 6.41399 20.0393 6.30554C19.9481 6.16905 19.831 6.05186 19.6945 5.96066C19.586 5.8882 19.422 5.82438 19.0672 5.78828C18.7433 5.75534 18.3305 5.75073 17.7455 5.7501C17.7425 5.89265 17.7375 6.02426 17.7292 6.14537C17.7076 6.46247 17.661 6.76199 17.5407 7.05238C17.2616 7.72621 16.7262 8.26156 16.0524 8.54067C15.762 8.66095 15.4625 8.7076 15.1454 8.72923C14.8408 8.75001 14.4697 8.75001 14.0253 8.75H14H8H7.97474C7.53028 8.75001 7.15925 8.75001 6.85464 8.72923C6.53754 8.7076 6.23801 8.66095 5.94762 8.54067C5.27379 8.26156 4.73844 7.72621 4.45933 7.05238C4.33905 6.76199 4.29241 6.46247 4.27077 6.14537C4.24999 5.84075 4.24999 5.46971 4.25 5.02525V5V4.97475C4.24999 4.53029 4.24999 4.15925 4.27077 3.85464C4.29241 3.53754 4.33905 3.23801 4.45933 2.94762C4.73844 2.27379 5.27379 1.73844 5.94762 1.45933C6.23801 1.33905 6.53754 1.29241 6.85464 1.27077C7.15925 1.24999 7.53028 1.24999 7.97474 1.25H7.97475ZM16.25 5C16.25 4.5238 16.2496 4.20421 16.2327 3.95674C16.2163 3.71602 16.1868 3.5988 16.1548 3.52165C16.028 3.21536 15.7846 2.97202 15.4784 2.84515C15.4012 2.81319 15.284 2.78372 15.0433 2.76729C14.7958 2.75041 14.4762 2.75 14 2.75H8C7.5238 2.75 7.20421 2.75041 6.95674 2.76729C6.71602 2.78372 6.5988 2.81319 6.52165 2.84515C6.21536 2.97202 5.97202 3.21536 5.84515 3.52165C5.81319 3.5988 5.78372 3.71602 5.76729 3.95674C5.75041 4.20421 5.75 4.5238 5.75 5C5.75 5.4762 5.75041 5.79579 5.76729 6.04326C5.78372 6.28399 5.81319 6.4012 5.84515 6.47835C5.97202 6.78464 6.21536 7.02798 6.52165 7.15485C6.5988 7.18681 6.71602 7.21629 6.95674 7.23271C7.20421 7.24959 7.5238 7.25 8 7.25H14C14.4762 7.25 14.7958 7.24959 15.0433 7.23271C15.284 7.21629 15.4012 7.18681 15.4784 7.15485C15.7846 7.02798 16.028 6.78464 16.1548 6.47835C16.1868 6.4012 16.2163 6.28399 16.2327 6.04326C16.2496 5.79579 16.25 5.4762 16.25 5ZM11 16.75C10.3096 16.75 9.75 17.3096 9.75 18V20C9.75 20.6904 10.3096 21.25 11 21.25C11.6904 21.25 12.25 20.6904 12.25 20V18C12.25 17.3096 11.6904 16.75 11 16.75Z" fill="#22282F"/>
</svg>
