<svg width="24" height="24" viewBox="0 0 24 24" fill="none" xmlns="http://www.w3.org/2000/svg">
<path fill-rule="evenodd" clip-rule="evenodd" d="M11.2302 3.9247C10.8428 4.22033 10.3837 4.6771 9.70209 5.35876L4.35894 10.7019C4.03593 11.0249 3.76341 11.2979 3.53461 11.537C4.49801 11.3004 5.47515 11.2918 6.43696 11.4121C7.926 11.5982 9.43278 12.102 10.8301 12.5692L11.1124 12.6635C12.6291 13.1691 13.9994 13.6 15.253 13.657C16.399 13.7091 17.4142 13.4468 18.3258 12.6079C18.6476 12.2773 18.8924 12.0099 19.0755 11.7699C19.3579 11.3998 19.4218 11.1843 19.4218 11C19.4218 10.8157 19.3579 10.6002 19.0755 10.2301C18.7799 9.84259 18.3231 9.38357 17.6414 8.70191L14.2983 5.35876C13.6166 4.6771 13.1576 4.22033 12.7701 3.9247C12.4 3.64226 12.1845 3.57843 12.0002 3.57843C11.8159 3.57843 11.6004 3.64226 11.2302 3.9247ZM2.92488 13.7699C2.83208 13.6483 2.76288 13.5434 2.71179 13.4508C3.8097 12.8548 4.98617 12.7424 6.25091 12.9005C7.58594 13.0674 8.95886 13.5258 10.395 14.0054L10.395 14.0054L10.638 14.0865C12.1213 14.5809 13.6885 15.0875 15.1849 15.1555C15.3844 15.1646 15.5833 15.1659 15.7811 15.1585L12.2983 18.6412C11.6166 19.3229 11.1576 19.7797 10.7701 20.0753C10.4 20.3577 10.1845 20.4216 10.0002 20.4216C9.81589 20.4216 9.60042 20.3577 9.23025 20.0753C8.84277 19.7797 8.38375 19.3229 7.70209 18.6412L4.35894 15.2981C3.67728 14.6164 3.22052 14.1574 2.92488 13.7699ZM18.7391 14.3217C18.9658 14.0951 19.179 13.8819 19.3761 13.6797C19.4278 13.6313 19.4793 13.5815 19.5305 13.5303C19.5604 13.5005 19.5871 13.4688 19.6109 13.4356C19.8659 13.1664 20.0874 12.9166 20.268 12.6798C20.6523 12.1762 20.9218 11.6441 20.9218 11C20.9218 10.3559 20.6523 9.82379 20.268 9.32019C19.904 8.84308 19.3742 8.31333 18.7389 7.67804L18.7021 7.64125L15.3589 4.2981L15.3222 4.26133L15.3222 4.26131C14.6869 3.62598 14.1571 3.09619 13.68 2.73216C13.1764 2.34793 12.6443 2.07843 12.0002 2.07843C11.3561 2.07843 10.824 2.34793 10.3204 2.73216C9.84326 3.09619 9.31352 3.62597 8.67823 4.2613L8.6782 4.26133L8.6782 4.26133L8.64143 4.2981L3.29828 9.64125L3.26151 9.67802C2.62617 10.3133 2.09638 10.8431 1.73235 11.3202C1.34811 11.8238 1.07861 12.3559 1.07861 13C1.07861 13.6441 1.34811 14.1762 1.73235 14.6798C2.09638 15.1569 2.62617 15.6867 3.26152 16.322L3.29828 16.3588L6.64143 19.7019L6.6782 19.7387L6.67822 19.7387L6.67829 19.7388C7.31355 20.3741 7.84328 20.9038 8.32038 21.2678C8.82398 21.6521 9.35605 21.9216 10.0002 21.9216C10.6443 21.9216 11.1764 21.6521 11.68 21.2678C12.1571 20.9038 12.6869 20.374 13.3222 19.7387L13.3589 19.7019L18.7021 14.3588L18.7389 14.322L18.7391 14.3217ZM19.5531 17.5101C19.6481 17.3878 19.7156 17.3013 19.7767 17.2305C19.8365 17.1613 19.8719 17.1289 19.8927 17.1129C19.9019 17.1058 19.9069 17.103 19.9084 17.1022C19.9096 17.1015 19.9105 17.1011 19.9123 17.1005C19.9151 17.0996 19.9384 17.0923 20.0001 17.0923C20.0617 17.0923 20.0851 17.0996 20.0879 17.1005C20.0897 17.1011 20.0906 17.1015 20.0918 17.1022C20.0933 17.103 20.0983 17.1058 20.1075 17.1129C20.1283 17.1289 20.1637 17.1613 20.2234 17.2305C20.2846 17.3013 20.3521 17.3878 20.4471 17.5101C20.8828 18.0709 21.2501 18.7802 21.2501 19.5556C21.2501 20.2136 21.0511 20.6335 20.8233 20.881C20.5929 21.1313 20.2942 21.25 20.0001 21.25C19.706 21.25 19.4074 21.1313 19.177 20.881C18.9492 20.6335 18.7501 20.2136 18.7501 19.5556C18.7501 18.7802 19.1174 18.0709 19.5531 17.5101ZM20.0001 15.5923C19.6087 15.5923 19.2746 15.6951 18.9761 15.9255C18.7456 16.1034 18.5548 16.3497 18.3978 16.5522L18.3686 16.5898C17.8311 17.2816 17.2501 18.3112 17.2501 19.5556C17.2501 20.5271 17.5511 21.3294 18.0733 21.8968C18.5929 22.4613 19.2942 22.75 20.0001 22.75C20.706 22.75 21.4074 22.4613 21.927 21.8968C22.4492 21.3295 22.7501 20.5271 22.7501 19.5556C22.7501 18.3111 22.1691 17.2816 21.6316 16.5898L21.6024 16.5521C21.4454 16.3496 21.2545 16.1034 21.024 15.9255C20.7255 15.6951 20.3915 15.5923 20.0001 15.5923Z" fill="#22282F"/>
</svg>
