<svg width="24" height="24" viewBox="0 0 24 24" fill="none" xmlns="http://www.w3.org/2000/svg">
<path fill-rule="evenodd" clip-rule="evenodd" d="M11.4699 2.98438C13.3248 1.12939 16.3324 1.12939 18.1874 2.98438C20.0424 4.83937 20.0424 7.84691 18.1874 9.7019L16.4446 11.4447C16.1517 11.7376 15.6768 11.7376 15.3839 11.4447C15.091 11.1518 15.091 10.6769 15.3839 10.384L17.1267 8.64124C18.3959 7.37203 18.3959 5.31425 17.1267 4.04504C15.8575 2.77584 13.7997 2.77584 12.5305 4.04504L10.7877 5.78784C10.4948 6.08073 10.02 6.08073 9.72706 5.78784C9.43417 5.49494 9.43417 5.02007 9.72706 4.72717L11.4699 2.98438ZM21.7229 10.7626C22.0158 11.0554 22.0158 11.5303 21.7229 11.8232L19.248 14.2981C18.9551 14.591 18.4802 14.591 18.1873 14.2981C17.8944 14.0052 17.8944 13.5304 18.1873 13.2375L20.6622 10.7626C20.9551 10.4697 21.43 10.4697 21.7229 10.7626ZM15.3589 5.81281C15.6518 6.1057 15.6518 6.58058 15.3589 6.87347L13.6161 8.61626C13.3233 8.90916 12.8484 8.90915 12.5555 8.61626C12.2626 8.32337 12.2626 7.8485 12.5555 7.5556L14.2983 5.81281C14.5912 5.51992 15.0661 5.51992 15.3589 5.81281ZM2.46967 2.46966C2.76256 2.17677 3.23744 2.17677 3.53033 2.46966L8.28778 7.22711L11.1162 10.0555L13.9446 12.884L16.7731 15.7124L21.5303 20.4697C21.8232 20.7626 21.8232 21.2374 21.5303 21.5303C21.2374 21.8232 20.7626 21.8232 20.4697 21.5303L16.2427 17.3034L13.9447 19.6014C11.3087 22.2374 7.03483 22.2374 4.39879 19.6014C1.76275 16.9654 1.76275 12.6915 4.39879 10.0555L6.69679 7.75744L2.46967 3.53032C2.17678 3.23743 2.17678 2.76255 2.46967 2.46966ZM7.75745 8.8181L5.45945 11.1161C3.4092 13.1664 3.4092 16.4905 5.45945 18.5407C7.5097 20.591 10.8338 20.591 12.8841 18.5407L15.1821 16.2427L13.4143 14.475L11.1163 16.773C10.0424 17.8469 8.30116 17.8469 7.22722 16.773C6.15327 15.699 6.15327 13.9578 7.22722 12.8839L9.52522 10.5859L7.75745 8.8181ZM10.5859 11.6465L8.28788 13.9445C7.79972 14.4327 7.79972 15.2241 8.28788 15.7123C8.77603 16.2005 9.56749 16.2005 10.0556 15.7123L12.3536 13.4143L10.5859 11.6465Z" fill="#22282F"/>
</svg>
