<svg width="24" height="24" viewBox="0 0 24 24" fill="none" xmlns="http://www.w3.org/2000/svg">
<path fill-rule="evenodd" clip-rule="evenodd" d="M10 2.75C9.17525 2.75 8.42385 3.05623 7.85048 3.5623C7.53992 3.8364 7.06597 3.80685 6.79187 3.4963C6.51777 3.18575 6.54732 2.71179 6.85788 2.4377C7.69477 1.69904 8.79586 1.25 10 1.25C12.6234 1.25 14.75 3.37665 14.75 6V10C14.75 10.4142 14.4142 10.75 14 10.75C13.5858 10.75 13.25 10.4142 13.25 10V6C13.25 4.20507 11.7949 2.75 10 2.75ZM2.46967 2.46967C2.76256 2.17678 3.23744 2.17678 3.53033 2.46967L6.53033 5.46967L10.5303 9.46967L14.5303 13.4697L18.2733 17.2126L21.5303 20.4697C21.8232 20.7626 21.8232 21.2374 21.5303 21.5303C21.2374 21.8232 20.7626 21.8232 20.4697 21.5303L18.0116 19.0723C16.8939 21.2552 14.6222 22.75 12 22.75C8.27208 22.75 5.25 19.7279 5.25 16V6.31066L2.46967 3.53033C2.17678 3.23744 2.17678 2.76256 2.46967 2.46967ZM6.75 7.81066V16C6.75 18.8995 9.10051 21.25 12 21.25C14.2131 21.25 16.108 19.8801 16.8799 17.9406L14.75 15.8107V16C14.75 17.5188 13.5188 18.75 12 18.75C10.4812 18.75 9.25 17.5188 9.25 16V10.3107L6.75 7.81066ZM10.75 11.8107V16C10.75 16.6904 11.3096 17.25 12 17.25C12.6904 17.25 13.25 16.6904 13.25 16V14.3107L10.75 11.8107ZM18 4.25C18.4142 4.25 18.75 4.58579 18.75 5V14C18.75 14.4142 18.4142 14.75 18 14.75C17.5858 14.75 17.25 14.4142 17.25 14V5C17.25 4.58579 17.5858 4.25 18 4.25ZM9.25 6C9.25 5.58579 9.58579 5.25 10 5.25C10.4142 5.25 10.75 5.58579 10.75 6V6.5C10.75 6.91421 10.4142 7.25 10 7.25C9.58579 7.25 9.25 6.91421 9.25 6.5V6Z" fill="#22282F"/>
</svg>
