<svg width="24" height="24" viewBox="0 0 24 24" fill="none" xmlns="http://www.w3.org/2000/svg">
<path fill-rule="evenodd" clip-rule="evenodd" d="M17.1268 4.04504C15.8576 2.77584 13.7998 2.77584 12.5306 4.04504L5.45956 11.1161C3.40931 13.1664 3.40931 16.4905 5.45956 18.5407C7.50982 20.591 10.8339 20.591 12.8842 18.5407L20.6624 10.7626C20.9553 10.4697 21.4301 10.4697 21.723 10.7626C22.0159 11.0554 22.0159 11.5303 21.723 11.8232L13.9448 19.6014C11.3088 22.2374 7.03494 22.2374 4.3989 19.6014C1.76287 16.9654 1.76286 12.6915 4.3989 10.0555L11.47 2.98438C13.325 1.12939 16.3325 1.12939 18.1875 2.98438C20.0425 4.83937 20.0425 7.84691 18.1875 9.7019L11.1164 16.773C10.0425 17.8469 8.30127 17.8469 7.22733 16.773C6.15339 15.699 6.15339 13.9578 7.22733 12.8839L14.2984 5.81281C14.5913 5.51992 15.0662 5.51992 15.3591 5.81281C15.652 6.1057 15.652 6.58058 15.3591 6.87347L8.28799 13.9445C7.79984 14.4327 7.79984 15.2241 8.28799 15.7123C8.77615 16.2005 9.5676 16.2005 10.0558 15.7123L17.1268 8.64124C18.396 7.37203 18.396 5.31425 17.1268 4.04504Z" fill="#22282F"/>
</svg>
