<svg width="24" height="24" viewBox="0 0 24 24" fill="none" xmlns="http://www.w3.org/2000/svg">
<path fill-rule="evenodd" clip-rule="evenodd" d="M10 2.75C8.20507 2.75 6.75 4.20507 6.75 6V16C6.75 18.8995 9.10051 21.25 12 21.25C14.8995 21.25 17.25 18.8995 17.25 16V5C17.25 4.58579 17.5858 4.25 18 4.25C18.4142 4.25 18.75 4.58579 18.75 5V16C18.75 19.7279 15.7279 22.75 12 22.75C8.27208 22.75 5.25 19.7279 5.25 16V6C5.25 3.37665 7.37665 1.25 10 1.25C12.6234 1.25 14.75 3.37665 14.75 6V16C14.75 17.5188 13.5188 18.75 12 18.75C10.4812 18.75 9.25 17.5188 9.25 16V6C9.25 5.58579 9.58579 5.25 10 5.25C10.4142 5.25 10.75 5.58579 10.75 6V16C10.75 16.6904 11.3096 17.25 12 17.25C12.6904 17.25 13.25 16.6904 13.25 16V6C13.25 4.20507 11.7949 2.75 10 2.75Z" fill="#22282F"/>
</svg>
