<svg width="24" height="24" viewBox="0 0 24 24" fill="none" xmlns="http://www.w3.org/2000/svg">
<path fill-rule="evenodd" clip-rule="evenodd" d="M12.6387 0.606927C12.5022 0.385116 12.2604 0.25 12 0.25C11.7396 0.25 11.4978 0.385116 11.3613 0.606927L3.36126 13.6069C3.19534 13.8765 3.21658 14.2213 3.41435 14.4685L6.59209 18.4407C5.80166 18.7897 5.25 19.5804 5.25 20.5C5.25 21.7426 6.25736 22.75 7.5 22.75H16.5C17.7426 22.75 18.75 21.7426 18.75 20.5C18.75 19.5804 18.1983 18.7897 17.4079 18.4407L20.5857 14.4685C20.7834 14.2213 20.8047 13.8765 20.6387 13.6069L12.6387 0.606927ZM15.9931 19.75H16.0059H16.5C16.9142 19.75 17.25 20.0858 17.25 20.5C17.25 20.9142 16.9142 21.25 16.5 21.25H7.5C7.08579 21.25 6.75 20.9142 6.75 20.5C6.75 20.0858 7.08579 19.75 7.5 19.75H7.99408H8.00688H15.9931ZM15.6395 18.25L19.0847 13.9436L12.75 3.64978V9.35352C13.9043 9.67998 14.75 10.7412 14.75 12C14.75 13.5188 13.5188 14.75 12 14.75C10.4812 14.75 9.25 13.5188 9.25 12C9.25 10.7412 10.0958 9.67998 11.25 9.35352V3.64978L4.91535 13.9436L8.36047 18.25H15.6395ZM12 10.75C11.3096 10.75 10.75 11.3096 10.75 12C10.75 12.6904 11.3096 13.25 12 13.25C12.6904 13.25 13.25 12.6904 13.25 12C13.25 11.3096 12.6904 10.75 12 10.75Z" fill="#22282F"/>
</svg>
