<svg width="24" height="24" viewBox="0 0 24 24" fill="none" xmlns="http://www.w3.org/2000/svg">
<g clip-path="url(#clip0)">
<path fill-rule="evenodd" clip-rule="evenodd" d="M4.15617 2.26665C3.90741 2.21334 3.64859 2.28978 3.46869 2.46967C3.2888 2.64956 3.21237 2.90839 3.26567 3.15715L6.26567 17.1571C6.33151 17.4644 6.58189 17.698 6.89296 17.7425L12.41 18.5306C11.624 19.3795 11.6435 20.7052 12.4687 21.5303C13.3139 22.3755 14.6842 22.3755 15.5294 21.5303L22.0294 15.0303C22.8745 14.1852 22.8745 12.8148 22.0294 11.9697C21.3587 11.299 20.3573 11.1605 19.5501 11.5543L18.7415 5.89393C18.697 5.58287 18.4634 5.33249 18.1562 5.26665L4.15617 2.26665ZM18.2035 12.7348L17.3305 6.62378L6.32533 4.26552L10.6589 8.59863C11.0556 8.37658 11.513 8.25 12 8.25C13.5188 8.25 14.75 9.48122 14.75 11C14.75 12.5188 13.5188 13.75 12 13.75C10.4812 13.75 9.25 12.5188 9.25 11C9.25 10.5132 9.37646 10.056 9.59832 9.65942L5.26448 5.32599L7.6228 16.3315L13.7339 17.2045L18.2035 12.7348ZM14.5294 18.5303L13.5294 19.5303C13.27 19.7897 13.27 20.2103 13.5294 20.4697C13.7887 20.7291 14.2093 20.7291 14.4687 20.4697L20.9687 13.9697C21.2281 13.7103 21.2281 13.2897 20.9687 13.0303C20.7093 12.7709 20.2887 12.7709 20.0294 13.0303L19.5294 13.5303L14.5294 18.5303ZM12 9.75C11.3096 9.75 10.75 10.3096 10.75 11C10.75 11.6904 11.3096 12.25 12 12.25C12.6904 12.25 13.25 11.6904 13.25 11C13.25 10.3096 12.6904 9.75 12 9.75Z" fill="#22282F"/>
</g>
<defs>
<clipPath id="clip0">
<rect width="24" height="24" fill="white"/>
</clipPath>
</defs>
</svg>
