<svg width="24" height="24" viewBox="0 0 24 24" fill="none" xmlns="http://www.w3.org/2000/svg">
<path fill-rule="evenodd" clip-rule="evenodd" d="M3.25 3C3.25 2.58579 3.58579 2.25 4 2.25H20C20.4142 2.25 20.75 2.58579 20.75 3C20.75 3.41421 20.4142 3.75 20 3.75H4C3.58579 3.75 3.25 3.41421 3.25 3ZM11.4697 6.46967C11.7626 6.17678 12.2374 6.17678 12.5303 6.46967L15.0303 8.96967C15.3232 9.26256 15.3232 9.73744 15.0303 10.0303C14.7374 10.3232 14.2626 10.3232 13.9697 10.0303L12.75 8.81066V15.1893L13.9697 13.9697C14.2626 13.6768 14.7374 13.6768 15.0303 13.9697C15.3232 14.2626 15.3232 14.7374 15.0303 15.0303L12.5303 17.5303C12.2374 17.8232 11.7626 17.8232 11.4697 17.5303L8.96967 15.0303C8.67678 14.7374 8.67678 14.2626 8.96967 13.9697C9.26256 13.6768 9.73744 13.6768 10.0303 13.9697L11.25 15.1893V8.81066L10.0303 10.0303C9.73744 10.3232 9.26256 10.3232 8.96967 10.0303C8.67678 9.73744 8.67678 9.26256 8.96967 8.96967L11.4697 6.46967ZM4 20.25C3.58579 20.25 3.25 20.5858 3.25 21C3.25 21.4142 3.58579 21.75 4 21.75H20C20.4142 21.75 20.75 21.4142 20.75 21C20.75 20.5858 20.4142 20.25 20 20.25H4Z" fill="#22282F"/>
</svg>
