<svg width="24" height="24" viewBox="0 0 24 24" fill="none" xmlns="http://www.w3.org/2000/svg">
<path fill-rule="evenodd" clip-rule="evenodd" d="M10 2.25H9.948C9.04952 2.24997 8.3003 2.24995 7.70552 2.32991C7.07773 2.41432 6.51093 2.59999 6.05546 3.05546C5.59999 3.51093 5.41432 4.07773 5.32991 4.70552C5.24995 5.3003 5.24997 6.04952 5.25 6.948L5.25 7V7.36617C4.84289 7.43614 4.47137 7.55243 4.125 7.75241C3.55493 8.08154 3.08154 8.55493 2.75241 9.125C2.47455 9.60625 2.35826 10.1361 2.3033 10.7424C2.24998 11.3307 2.24999 12.06 2.25 12.9642V13V15C2.25 16.8153 3.5399 18.3294 5.25316 18.6756C5.25592 18.8471 5.26109 19.0034 5.27077 19.1454C5.29241 19.4625 5.33905 19.762 5.45933 20.0524C5.73844 20.7262 6.27379 21.2616 6.94762 21.5407C7.23801 21.661 7.53754 21.7076 7.85464 21.7292C8.15923 21.75 8.53024 21.75 8.97466 21.75H8.97474H9H15H15.0253H15.0253C15.4698 21.75 15.8408 21.75 16.1454 21.7292C16.4625 21.7076 16.762 21.661 17.0524 21.5407C17.7262 21.2616 18.2616 20.7262 18.5407 20.0524C18.661 19.762 18.7076 19.4625 18.7292 19.1454C18.7389 19.0034 18.7441 18.8471 18.7468 18.6756C20.4601 18.3294 21.75 16.8153 21.75 15V13V12.9642C21.75 12.06 21.75 11.3307 21.6967 10.7424C21.6417 10.1361 21.5254 9.60625 21.2476 9.125C20.9185 8.55493 20.4451 8.08154 19.875 7.75241C19.5286 7.55243 19.1571 7.43614 18.75 7.36617V7L18.75 6.94801V6.94798C18.75 6.04951 18.7501 5.3003 18.6701 4.70552C18.5857 4.07773 18.4 3.51093 17.9445 3.05546C17.4891 2.59999 16.9223 2.41432 16.2945 2.32991C15.6997 2.24995 14.9505 2.24997 14.052 2.25H14H10ZM17.25 7.25638V7C17.25 6.03599 17.2484 5.38843 17.1835 4.90539C17.1214 4.44393 17.0142 4.24643 16.8839 4.11612C16.7536 3.9858 16.5561 3.87858 16.0946 3.81654C15.6116 3.75159 14.964 3.75 14 3.75H10C9.03599 3.75 8.38843 3.75159 7.90539 3.81654C7.44393 3.87858 7.24643 3.9858 7.11612 4.11612C6.9858 4.24643 6.87858 4.44393 6.81654 4.90539C6.75159 5.38843 6.75 6.03599 6.75 7V7.25638C7.1149 7.24999 7.51828 7.25 7.96421 7.25H8H16H16.0358C16.4817 7.25 16.8851 7.24999 17.25 7.25638ZM18.7422 17.1247C19.6202 16.818 20.25 15.9826 20.25 15V13C20.25 12.0516 20.2493 11.3904 20.2028 10.8778C20.1573 10.3755 20.0726 10.0899 19.9486 9.875C19.7511 9.53296 19.467 9.24892 19.125 9.05144C18.9101 8.92737 18.6245 8.84271 18.1222 8.79718C17.6096 8.75072 16.9484 8.75 16 8.75H8C7.05158 8.75 6.39041 8.75072 5.87779 8.79718C5.37549 8.84271 5.0899 8.92737 4.875 9.05144C4.53296 9.24892 4.24892 9.53296 4.05144 9.875C3.92737 10.0899 3.84271 10.3755 3.79718 10.8778C3.75072 11.3904 3.75 12.0516 3.75 13V15C3.75 15.9826 4.37983 16.818 5.2578 17.1247C5.26081 17.0294 5.26498 16.9395 5.27077 16.8546C5.29241 16.5375 5.33905 16.238 5.45933 15.9476C5.73844 15.2738 6.27379 14.7384 6.94762 14.4593C7.23801 14.339 7.53754 14.2924 7.85464 14.2708C8.15925 14.25 8.53029 14.25 8.97475 14.25H9H15H15.0253C15.4697 14.25 15.8408 14.25 16.1454 14.2708C16.4625 14.2924 16.762 14.339 17.0524 14.4593C17.7262 14.7384 18.2616 15.2738 18.5407 15.9476C18.661 16.238 18.7076 16.5375 18.7292 16.8546C18.735 16.9395 18.7392 17.0294 18.7422 17.1247ZM7.52165 15.8452C7.5988 15.8132 7.71602 15.7837 7.95674 15.7673C8.20421 15.7504 8.5238 15.75 9 15.75H15C15.4762 15.75 15.7958 15.7504 16.0433 15.7673C16.284 15.7837 16.4012 15.8132 16.4784 15.8452C16.7846 15.972 17.028 16.2154 17.1549 16.5216C17.1868 16.5988 17.2163 16.716 17.2327 16.9567C17.2496 17.2042 17.25 17.5238 17.25 18C17.25 18.4762 17.2496 18.7958 17.2327 19.0433C17.2163 19.284 17.1868 19.4012 17.1549 19.4784C17.028 19.7846 16.7846 20.028 16.4784 20.1549C16.4012 20.1868 16.284 20.2163 16.0433 20.2327C15.7958 20.2496 15.4762 20.25 15 20.25H9C8.5238 20.25 8.20421 20.2496 7.95674 20.2327C7.71602 20.2163 7.5988 20.1868 7.52165 20.1549C7.21536 20.028 6.97202 19.7846 6.84515 19.4784C6.81319 19.4012 6.78372 19.284 6.76729 19.0433C6.75041 18.7958 6.75 18.4762 6.75 18C6.75 17.5238 6.75041 17.2042 6.76729 16.9567C6.78372 16.716 6.81319 16.5988 6.84515 16.5216C6.97202 16.2154 7.21536 15.972 7.52165 15.8452ZM5.25 11C5.25 10.5858 5.58579 10.25 6 10.25H7C7.41421 10.25 7.75 10.5858 7.75 11C7.75 11.4142 7.41421 11.75 7 11.75H6C5.58579 11.75 5.25 11.4142 5.25 11Z" fill="#22282F"/>
</svg>
