<svg width="24" height="24" viewBox="0 0 24 24" fill="none" xmlns="http://www.w3.org/2000/svg">
<path fill-rule="evenodd" clip-rule="evenodd" d="M2.53033 1.46967C2.23744 1.17678 1.76256 1.17678 1.46967 1.46967C1.17678 1.76256 1.17678 2.23744 1.46967 2.53033L6.21176 7.27242C6.0461 7.27993 5.88982 7.28994 5.7424 7.3033C5.13605 7.35826 4.60625 7.47455 4.125 7.7524C3.55493 8.08154 3.08154 8.55493 2.7524 9.125C2.47455 9.60625 2.35826 10.1361 2.3033 10.7424C2.24998 11.3307 2.24999 12.06 2.25 12.9642L2.25 13V15C2.25 16.8153 3.5399 18.3294 5.25316 18.6756C5.25592 18.8471 5.26109 19.0034 5.27077 19.1454C5.29241 19.4625 5.33905 19.762 5.45933 20.0524C5.73844 20.7262 6.27379 21.2616 6.94762 21.5407C7.23801 21.661 7.53754 21.7076 7.85464 21.7292C8.15925 21.75 8.53028 21.75 8.97474 21.75H9H15H15.0253C15.4697 21.75 15.8408 21.75 16.1454 21.7292C16.4625 21.7076 16.762 21.661 17.0524 21.5407C17.7262 21.2616 18.2616 20.7262 18.5407 20.0524C18.5872 19.94 18.6227 19.8263 18.65 19.7107L21.4697 22.5303C21.7626 22.8232 22.2374 22.8232 22.5303 22.5303C22.8232 22.2374 22.8232 21.7626 22.5303 21.4697L8.53033 7.46967L2.53033 1.46967ZM17.2497 18.3104L14.6893 15.75H9C8.5238 15.75 8.20421 15.7504 7.95674 15.7673C7.71601 15.7837 7.5988 15.8132 7.52165 15.8452C7.21536 15.972 6.97202 16.2154 6.84515 16.5216C6.81319 16.5988 6.78372 16.716 6.76729 16.9567C6.75041 17.2042 6.75 17.5238 6.75 18C6.75 18.4762 6.75041 18.7958 6.76729 19.0433C6.78372 19.284 6.81319 19.4012 6.84515 19.4784C6.97202 19.7846 7.21536 20.028 7.52165 20.1549C7.5988 20.1868 7.71601 20.2163 7.95674 20.2327C8.20421 20.2496 8.5238 20.25 9 20.25H15C15.4762 20.25 15.7958 20.2496 16.0433 20.2327C16.284 20.2163 16.4012 20.1868 16.4784 20.1549C16.7846 20.028 17.028 19.7846 17.1548 19.4784C17.1868 19.4012 17.2163 19.284 17.2327 19.0433C17.2456 18.8539 17.2489 18.6222 17.2497 18.3104ZM13.1893 14.25L7.68943 8.75009C6.90412 8.75075 6.33251 8.75597 5.87779 8.79718C5.37548 8.8427 5.0899 8.92737 4.875 9.05144C4.53296 9.24892 4.24892 9.53296 4.05144 9.875C3.92737 10.0899 3.8427 10.3755 3.79718 10.8778C3.75072 11.3904 3.75 12.0516 3.75 13V15C3.75 15.9826 4.37983 16.818 5.2578 17.1247C5.26081 17.0294 5.26498 16.9395 5.27077 16.8546C5.29241 16.5375 5.33905 16.238 5.45933 15.9476C5.73844 15.2738 6.27379 14.7384 6.94762 14.4593C7.23801 14.339 7.53754 14.2924 7.85464 14.2708C8.15925 14.25 8.53029 14.25 8.97475 14.25H9H13.1893ZM16 8.75C16.9484 8.75 17.6096 8.75072 18.1222 8.79718C18.6245 8.8427 18.9101 8.92737 19.125 9.05144C19.467 9.24892 19.7511 9.53296 19.9486 9.875C20.0726 10.0899 20.1573 10.3755 20.2028 10.8778C20.2493 11.3904 20.25 12.0516 20.25 13V16C20.25 16.4142 20.5858 16.75 21 16.75C21.4142 16.75 21.75 16.4142 21.75 16V13V12.9642C21.75 12.06 21.75 11.3307 21.6967 10.7424C21.6417 10.1361 21.5254 9.60625 21.2476 9.125C20.9185 8.55493 20.4451 8.08154 19.875 7.7524C19.5286 7.55243 19.1571 7.43614 18.75 7.36617V7L18.75 6.94801V6.94797C18.75 6.04951 18.7501 5.3003 18.6701 4.70552C18.5857 4.07773 18.4 3.51093 17.9445 3.05546C17.4891 2.59999 16.9223 2.41432 16.2945 2.32991C15.6997 2.24994 14.9505 2.24997 14.052 2.25L14 2.25H8C7.58579 2.25 7.25 2.58579 7.25 3C7.25 3.41421 7.58579 3.75 8 3.75H14C14.964 3.75 15.6116 3.75159 16.0946 3.81654C16.5561 3.87858 16.7536 3.9858 16.8839 4.11612C17.0142 4.24643 17.1214 4.44393 17.1835 4.90539C17.2484 5.38843 17.25 6.03599 17.25 7V7.25638C16.8851 7.24999 16.4817 7.25 16.0358 7.25H16H12C11.5858 7.25 11.25 7.58579 11.25 8C11.25 8.41421 11.5858 8.75 12 8.75H16ZM5.25 11C5.25 10.5858 5.58579 10.25 6 10.25H7C7.41421 10.25 7.75 10.5858 7.75 11C7.75 11.4142 7.41421 11.75 7 11.75H6C5.58579 11.75 5.25 11.4142 5.25 11Z" fill="#22282F"/>
</svg>
