<svg width="24" height="24" viewBox="0 0 24 24" fill="none" xmlns="http://www.w3.org/2000/svg">
<path fill-rule="evenodd" clip-rule="evenodd" d="M17 4.25H16.9747C16.5303 4.24999 16.1592 4.24999 15.8546 4.27077C15.5375 4.29241 15.238 4.33905 14.9476 4.45933C14.2738 4.73844 13.7384 5.27379 13.4593 5.94762C13.339 6.23801 13.2924 6.53754 13.2708 6.85464C13.25 7.15925 13.25 7.53029 13.25 7.97475V8V8.02525C13.25 8.46971 13.25 8.84075 13.2708 9.14536C13.2924 9.46246 13.339 9.76199 13.4593 10.0524C13.7384 10.7262 14.2738 11.2616 14.9476 11.5407C15.238 11.661 15.5375 11.7076 15.8546 11.7292C16.1592 11.75 16.5303 11.75 16.9747 11.75H17H17.0253C17.4697 11.75 17.8408 11.75 18.1454 11.7292C18.4625 11.7076 18.762 11.661 19.0524 11.5407C19.1197 11.5128 19.1856 11.4824 19.25 11.4495V13C19.25 14.6525 18.472 16.2085 17.15 17.2L15.55 18.4C15.2186 18.6485 15.1515 19.1186 15.4 19.45C15.6485 19.7814 16.1186 19.8485 16.45 19.6L18.05 18.4C19.7497 17.1252 20.75 15.1246 20.75 13V8.5C20.75 8.48776 20.7497 8.47559 20.7491 8.4635C20.75 8.32614 20.75 8.18016 20.75 8.02526V8V7.97474C20.75 7.53028 20.75 7.15925 20.7292 6.85464C20.7076 6.53754 20.661 6.23801 20.5407 5.94762C20.2616 5.27379 19.7262 4.73844 19.0524 4.45933C18.762 4.33905 18.4625 4.29241 18.1454 4.27077C17.8408 4.24999 17.4697 4.24999 17.0253 4.25H17ZM15.5216 5.84515C15.5988 5.81319 15.716 5.78372 15.9567 5.76729C16.2042 5.75041 16.5238 5.75 17 5.75C17.4762 5.75 17.7958 5.75041 18.0433 5.76729C18.284 5.78372 18.4012 5.81319 18.4784 5.84515C18.7846 5.97202 19.028 6.21536 19.1549 6.52165C19.1868 6.5988 19.2163 6.71602 19.2327 6.95674C19.2496 7.20421 19.25 7.5238 19.25 8C19.25 8.4762 19.2496 8.79579 19.2327 9.04326C19.2163 9.28399 19.1868 9.4012 19.1549 9.47835C19.028 9.78464 18.7846 10.028 18.4784 10.1548C18.4012 10.1868 18.284 10.2163 18.0433 10.2327C17.7958 10.2496 17.4762 10.25 17 10.25C16.5238 10.25 16.2042 10.2496 15.9567 10.2327C15.716 10.2163 15.5988 10.1868 15.5216 10.1548C15.2154 10.028 14.972 9.78464 14.8452 9.47835C14.8132 9.4012 14.7837 9.28399 14.7673 9.04326C14.7504 8.79579 14.75 8.4762 14.75 8C14.75 7.5238 14.7504 7.20421 14.7673 6.95674C14.7837 6.71602 14.8132 6.5988 14.8452 6.52165C14.972 6.21536 15.2154 5.97202 15.5216 5.84515ZM7 4.25H6.97475H6.97474C6.53028 4.24999 6.15925 4.24999 5.85464 4.27077C5.53754 4.29241 5.23801 4.33905 4.94762 4.45933C4.27379 4.73844 3.73844 5.27379 3.45933 5.94762C3.33905 6.23801 3.29241 6.53754 3.27077 6.85464C3.24999 7.15925 3.24999 7.53028 3.25 7.97474V7.97475V8V8.02525V8.02527C3.24999 8.46972 3.24999 8.84076 3.27077 9.14537C3.29241 9.46247 3.33905 9.76199 3.45933 10.0524C3.73844 10.7262 4.27379 11.2616 4.94762 11.5407C5.23801 11.661 5.53754 11.7076 5.85464 11.7292C6.15925 11.75 6.53028 11.75 6.97474 11.75H7H7.02526C7.46972 11.75 7.84075 11.75 8.14537 11.7292C8.46247 11.7076 8.76199 11.661 9.05238 11.5407C9.11967 11.5128 9.18559 11.4824 9.25 11.4495V13C9.25 14.6525 8.47198 16.2085 7.15 17.2L5.55 18.4C5.21863 18.6485 5.15147 19.1186 5.4 19.45C5.64853 19.7814 6.11863 19.8485 6.45 19.6L8.05 18.4C9.74969 17.1252 10.75 15.1246 10.75 13V8.5C10.75 8.48777 10.7497 8.4756 10.7491 8.46351C10.75 8.32615 10.75 8.18016 10.75 8.02526V8V7.97474C10.75 7.53028 10.75 7.15925 10.7292 6.85464C10.7076 6.53754 10.661 6.23801 10.5407 5.94762C10.2616 5.27379 9.72621 4.73844 9.05238 4.45933C8.76199 4.33905 8.46247 4.29241 8.14537 4.27077C7.84075 4.24999 7.46972 4.24999 7.02526 4.25H7.02525H7ZM5.52165 5.84515C5.5988 5.81319 5.71602 5.78372 5.95674 5.76729C6.20421 5.75041 6.5238 5.75 7 5.75C7.4762 5.75 7.79579 5.75041 8.04326 5.76729C8.28399 5.78372 8.4012 5.81319 8.47835 5.84515C8.78464 5.97202 9.02798 6.21536 9.15485 6.52165C9.18681 6.5988 9.21629 6.71602 9.23271 6.95674C9.24959 7.20421 9.25 7.5238 9.25 8C9.25 8.4762 9.24959 8.79579 9.23271 9.04326C9.21629 9.28399 9.18681 9.4012 9.15485 9.47835C9.02798 9.78464 8.78464 10.028 8.47835 10.1549C8.4012 10.1868 8.28399 10.2163 8.04326 10.2327C7.79579 10.2496 7.4762 10.25 7 10.25C6.5238 10.25 6.20421 10.2496 5.95674 10.2327C5.71602 10.2163 5.5988 10.1868 5.52165 10.1549C5.21536 10.028 4.97202 9.78464 4.84515 9.47835C4.81319 9.4012 4.78372 9.28399 4.76729 9.04326C4.75041 8.79579 4.75 8.4762 4.75 8C4.75 7.5238 4.75041 7.20421 4.76729 6.95674C4.78372 6.71602 4.81319 6.5988 4.84515 6.52165C4.97202 6.21536 5.21536 5.97202 5.52165 5.84515Z" fill="#22282F"/>
</svg>
