<svg width="24" height="24" viewBox="0 0 24 24" fill="none" xmlns="http://www.w3.org/2000/svg">
<path fill-rule="evenodd" clip-rule="evenodd" d="M14.7303 3.4247C14.3428 3.72033 13.8838 4.1771 13.2021 4.85875L4.85898 13.2019C4.1773 13.8835 3.72053 14.3426 3.42488 14.73C3.14245 15.1002 3.07861 15.3157 3.07861 15.5C3.07861 15.6843 3.14245 15.8998 3.4249 16.2699C3.72054 16.6574 4.17733 17.1164 4.85901 17.7981L6.20228 19.1413C6.88394 19.823 7.34296 20.2797 7.73045 20.5753C8.10062 20.8578 8.31609 20.9216 8.50038 20.9216C8.68468 20.9216 8.90015 20.8578 9.27031 20.5753C9.46648 20.4256 9.68099 20.2347 9.93345 19.9941L8.46967 18.5303C8.17678 18.2374 8.17678 17.7626 8.46967 17.4697C8.76256 17.1768 9.23744 17.1768 9.53033 17.4697L11.0002 18.9395L12.9395 17.0002L9.96967 14.0303C9.67678 13.7374 9.67678 13.2626 9.96967 12.9697C10.2626 12.6768 10.7374 12.6768 11.0303 12.9697L14.0002 15.9395L15.9395 14.0002L14.4697 12.5303C14.1768 12.2374 14.1768 11.7626 14.4697 11.4697C14.7626 11.1768 15.2374 11.1768 15.5303 11.4697L17.0001 12.9395L18.9395 11.0001L15.9697 8.03033C15.6768 7.73744 15.6768 7.26257 15.9697 6.96967C16.2626 6.67678 16.7374 6.67678 17.0303 6.96967L19.9941 9.9334C20.2347 9.68081 20.4258 9.4662 20.5755 9.26994C20.858 8.89977 20.9218 8.6843 20.9218 8.50001C20.9218 8.31571 20.858 8.10024 20.5755 7.73007C20.2799 7.3426 19.8231 6.88358 19.1415 6.20193L17.7983 4.85876C17.1167 4.1771 16.6576 3.72033 16.2702 3.4247C15.9 3.14226 15.6845 3.07843 15.5002 3.07843C15.3159 3.07843 15.1005 3.14226 14.7303 3.4247ZM20.239 11.8219C20.3359 11.7251 20.4302 11.6307 20.522 11.5386L20.5303 11.5303L20.541 11.5194C21.0426 11.0153 21.4634 10.5791 21.7681 10.1798C22.1523 9.67621 22.4218 9.14413 22.4218 8.5C22.4218 7.85588 22.1523 7.3238 21.7681 6.8202C21.4041 6.3431 20.8743 5.81337 20.239 5.1781L20.2389 5.17803L20.2389 5.17802L20.2021 5.14127L18.859 3.7981L18.8222 3.76129L18.8221 3.76124C18.1869 3.12594 17.6571 2.59618 17.18 2.23216C16.6764 1.84793 16.1444 1.57843 15.5002 1.57843C14.8561 1.57843 14.324 1.84793 13.8204 2.23216C13.3433 2.59618 12.8136 3.12597 12.1783 3.76129L12.1782 3.76131L12.1782 3.76133L12.1415 3.79809L3.79832 12.1412L3.76154 12.178L3.76153 12.178C3.12618 12.8133 2.59638 13.3431 2.23235 13.8202C1.84811 14.3238 1.57861 14.8559 1.57861 15.5C1.57862 16.1441 1.84813 16.6762 2.23238 17.1798C2.59642 17.6569 3.12622 18.1867 3.76158 18.822L3.79837 18.8588L5.14164 20.202L5.17838 20.2387C5.81369 20.8741 6.34347 21.4039 6.82059 21.7679C7.3242 22.1521 7.85627 22.4216 8.5004 22.4216C9.14453 22.4216 9.6766 22.1521 10.1802 21.7679C10.5806 21.4624 11.018 21.0401 11.5238 20.5368L11.5303 20.5303L11.5343 20.5264C11.6278 20.4332 11.7237 20.3373 11.8222 20.2388L11.8223 20.2387L11.8591 20.2019L20.2022 11.8588L20.2389 11.822L20.2389 11.822L20.239 11.8219Z" fill="#22282F"/>
</svg>
