<svg width="24" height="24" viewBox="0 0 24 24" fill="none" xmlns="http://www.w3.org/2000/svg">
<path fill-rule="evenodd" clip-rule="evenodd" d="M4 3.25L3.95525 3.25C3.52244 3.24995 3.1256 3.2499 2.80279 3.2933C2.44731 3.34109 2.07159 3.45354 1.76256 3.76256C1.45354 4.07159 1.34109 4.44731 1.2933 4.80279C1.2499 5.1256 1.24995 5.52244 1.25 5.95525L1.25 6H2.75C2.75 5.50739 2.75159 5.21339 2.77992 5.00266C2.79291 4.90611 2.8082 4.85774 2.81716 4.83596C2.81923 4.83092 2.82085 4.8276 2.82186 4.82567L2.82324 4.82324L2.82567 4.82186C2.8276 4.82085 2.83092 4.81923 2.83596 4.81716C2.85774 4.8082 2.90611 4.79291 3.00266 4.77992C3.21339 4.75159 3.50739 4.75 4 4.75H8.25V19.25H7C6.58579 19.25 6.25 19.5858 6.25 20C6.25 20.4142 6.58579 20.75 7 20.75H9H11C11.4142 20.75 11.75 20.4142 11.75 20C11.75 19.5858 11.4142 19.25 11 19.25H9.75V4.75H14C14.4926 4.75 14.7866 4.75159 14.9973 4.77992C15.0939 4.79291 15.1423 4.8082 15.164 4.81716C15.1691 4.81923 15.1724 4.82085 15.1743 4.82186L15.1768 4.82324L15.1781 4.82567C15.1791 4.8276 15.1808 4.83092 15.1828 4.83596C15.1918 4.85774 15.2071 4.90611 15.2201 5.00266C15.2484 5.21339 15.25 5.50739 15.25 6H16.75L16.75 5.95526V5.95524C16.7501 5.52243 16.7501 5.1256 16.7067 4.80279C16.6589 4.44731 16.5465 4.07159 16.2374 3.76256C15.9284 3.45354 15.5527 3.34109 15.1972 3.2933C14.8744 3.2499 14.4776 3.24995 14.0447 3.25L14 3.25H9H4ZM15 11.25L14.9656 11.25C14.7604 11.2499 14.5386 11.2498 14.3514 11.275C14.1321 11.3045 13.8519 11.3803 13.6161 11.6161C13.3803 11.8519 13.3045 12.1321 13.275 12.3514C13.2498 12.5386 13.2499 12.7604 13.25 12.9655V12.9656L13.25 13V13.5C13.25 13.9142 13.5858 14.25 14 14.25C14.4142 14.25 14.75 13.9142 14.75 13.5V13C14.75 12.9009 14.75 12.8206 14.7512 12.7512C14.8206 12.75 14.9009 12.75 15 12.75H17.25V19.25H16.5C16.0858 19.25 15.75 19.5858 15.75 20C15.75 20.4142 16.0858 20.75 16.5 20.75H18H19.5C19.9142 20.75 20.25 20.4142 20.25 20C20.25 19.5858 19.9142 19.25 19.5 19.25H18.75V12.75H21C21.0991 12.75 21.1794 12.75 21.2488 12.7512C21.25 12.8206 21.25 12.9009 21.25 13V13.5C21.25 13.9142 21.5858 14.25 22 14.25C22.4142 14.25 22.75 13.9142 22.75 13.5V13L22.75 12.9656V12.9655C22.7501 12.7604 22.7502 12.5386 22.725 12.3514C22.6955 12.1321 22.6197 11.8519 22.3839 11.6161C22.1481 11.3803 21.8679 11.3045 21.6486 11.275C21.4614 11.2498 21.2396 11.2499 21.0344 11.25L21 11.25H18H15Z" fill="#22282F"/>
</svg>
