<svg width="24" height="24" viewBox="0 0 24 24" fill="none" xmlns="http://www.w3.org/2000/svg">
<path fill-rule="evenodd" clip-rule="evenodd" d="M12 3.75C7.44365 3.75 3.75 7.44365 3.75 12C3.75 15.1916 5.56218 17.9612 8.21721 19.3338C8.52452 19.4926 8.68331 19.8411 8.60156 20.1772C8.51981 20.5134 8.21875 20.75 7.8728 20.75H3C2.58579 20.75 2.25 20.4142 2.25 20C2.25 19.5858 2.58579 19.25 3 19.25H5.48084C3.49794 17.4658 2.25 14.879 2.25 12C2.25 6.61522 6.61522 2.25 12 2.25C17.3848 2.25 21.75 6.61522 21.75 12C21.75 14.879 20.5021 17.4658 18.5192 19.25H21C21.4142 19.25 21.75 19.5858 21.75 20C21.75 20.4142 21.4142 20.75 21 20.75H16.1272C15.7813 20.75 15.4802 20.5134 15.3984 20.1772C15.3167 19.8411 15.4755 19.4926 15.7828 19.3338C18.4378 17.9612 20.25 15.1916 20.25 12C20.25 7.44365 16.5563 3.75 12 3.75Z" fill="#22282F"/>
</svg>
