<svg width="24" height="24" viewBox="0 0 24 24" fill="none" xmlns="http://www.w3.org/2000/svg">
<path fill-rule="evenodd" clip-rule="evenodd" d="M6.24975 8C6.24975 5.37665 8.3764 3.25 10.9998 3.25L12.9998 3.25C15.6231 3.25 17.7498 5.37665 17.7498 8C17.7498 8.41422 17.414 8.75 16.9998 8.75C16.5855 8.75 16.2498 8.41422 16.2498 8C16.2498 6.20508 14.7947 4.75 12.9998 4.75L10.9998 4.75C9.20483 4.75 7.74975 6.20508 7.74975 8C7.74975 8.28171 7.78542 8.554 7.8521 8.81306C7.95535 9.2142 7.71386 9.62308 7.31272 9.72633C6.91158 9.82958 6.50269 9.58809 6.39944 9.18695C6.30159 8.80677 6.24975 8.40889 6.24975 8ZM2.25 12C2.25 11.5858 2.58578 11.25 3 11.25L10.9998 11.25L12.9998 11.25L21 11.25C21.4142 11.25 21.75 11.5858 21.75 12C21.75 12.4142 21.4142 12.75 21 12.75L16.4639 12.75C17.2613 13.5997 17.7498 14.7428 17.7498 16C17.7498 18.6234 15.6231 20.75 12.9998 20.75L10.9998 20.75C8.3764 20.75 6.24975 18.6234 6.24975 16C6.24975 15.5858 6.58554 15.25 6.99975 15.25C7.41397 15.25 7.74975 15.5858 7.74975 16C7.74975 17.7949 9.20483 19.25 10.9998 19.25L12.9998 19.25C14.7947 19.25 16.2498 17.7949 16.2498 16C16.2498 14.2051 14.7947 12.75 12.9998 12.75L10.9998 12.75L3 12.75C2.58578 12.75 2.25 12.4142 2.25 12Z" fill="#22282F"/>
</svg>
