<svg width="24" height="24" viewBox="0 0 24 24" fill="none" xmlns="http://www.w3.org/2000/svg">
<path fill-rule="evenodd" clip-rule="evenodd" d="M14.0161 3.25001L19 3.25001C19.4142 3.25001 19.75 3.58579 19.75 4.00001C19.75 4.41422 19.4142 4.75001 19 4.75001L14.5855 4.75001L10.9605 19.25L15 19.25C15.4142 19.25 15.75 19.5858 15.75 20C15.75 20.4142 15.4142 20.75 15 20.75L10.0161 20.75C10.0057 20.7502 9.99525 20.7502 9.98476 20.75L5 20.75C4.58578 20.75 4.25 20.4142 4.25 20C4.25 19.5858 4.58578 19.25 5 19.25L9.4143 19.25L13.0393 4.75001L9 4.75001C8.58578 4.75001 8.25 4.41422 8.25 4.00001C8.25 3.58579 8.58578 3.25001 9 3.25001L13.9825 3.25001C13.9937 3.24976 14.0049 3.24975 14.0161 3.25001Z" fill="#22282F"/>
</svg>
