<svg width="24" height="24" viewBox="0 0 24 24" fill="none" xmlns="http://www.w3.org/2000/svg">
<path fill-rule="evenodd" clip-rule="evenodd" d="M7.11111 3.25C6.08325 3.25 5.25 4.08325 5.25 5.11111L5.25 12L5.25 18.6667C5.25 19.8173 6.18274 20.75 7.33333 20.75L14 20.75C16.6234 20.75 18.75 18.6234 18.75 16C18.75 13.8234 17.2861 11.9888 15.2891 11.427C16.1895 10.5626 16.75 9.34676 16.75 8C16.75 5.37665 14.6234 3.25 12 3.25L7.11111 3.25ZM12 12.75L6.75 12.75L6.75 18.6667C6.75 18.9888 7.01117 19.25 7.33333 19.25L14 19.25C15.7949 19.25 17.25 17.7949 17.25 16C17.25 14.2051 15.7949 12.75 14 12.75L12 12.75ZM12 11.25C13.7949 11.25 15.25 9.79493 15.25 8C15.25 6.20508 13.7949 4.75 12 4.75L7.11111 4.75C6.91167 4.75 6.75 4.91168 6.75 5.11111L6.75 11.25L12 11.25Z" fill="#22282F"/>
</svg>
