<svg width="24" height="24" viewBox="0 0 24 24" fill="none" xmlns="http://www.w3.org/2000/svg">
<path fill-rule="evenodd" clip-rule="evenodd" d="M17 4.75C17.4926 4.75 17.7866 4.75159 17.9973 4.77992C18.0939 4.79291 18.1423 4.8082 18.164 4.81716C18.1691 4.81923 18.1724 4.82085 18.1743 4.82186L18.1768 4.82324L18.1781 4.82567C18.1791 4.8276 18.1808 4.83092 18.1828 4.83596C18.1918 4.85774 18.2071 4.90611 18.2201 5.00266C18.2484 5.21339 18.25 5.50739 18.25 6H19.75L19.75 5.95526V5.95519C19.7501 5.5224 19.7501 5.12559 19.7067 4.80279C19.6589 4.44731 19.5465 4.07159 19.2374 3.76256C18.9284 3.45354 18.5527 3.34109 18.1972 3.2933C17.8744 3.2499 17.4776 3.24995 17.0447 3.25L17 3.25H12H8.5C8.08579 3.25 7.75 3.58579 7.75 4C7.75 4.41421 8.08579 4.75 8.5 4.75H11.25V8C11.25 8.41421 11.5858 8.75 12 8.75C12.4142 8.75 12.75 8.41421 12.75 8V4.75H17ZM12.75 13.8107V19.25H16C16.4142 19.25 16.75 19.5858 16.75 20C16.75 20.4142 16.4142 20.75 16 20.75H12H8C7.58579 20.75 7.25 20.4142 7.25 20C7.25 19.5858 7.58579 19.25 8 19.25H11.25V12.3107L3.46967 4.53033C3.17678 4.23744 3.17678 3.76256 3.46967 3.46967C3.76256 3.17678 4.23744 3.17678 4.53033 3.46967L20.5303 19.4697C20.8232 19.7626 20.8232 20.2374 20.5303 20.5303C20.2374 20.8232 19.7626 20.8232 19.4697 20.5303L12.75 13.8107Z" fill="#22282F"/>
</svg>
