<svg width="24" height="24" viewBox="0 0 24 24" fill="none" xmlns="http://www.w3.org/2000/svg">
<path fill-rule="evenodd" clip-rule="evenodd" d="M6.95525 3.25C6.97013 3.25 6.98504 3.25 7 3.25H12H17L17.0447 3.25C17.4776 3.24995 17.8744 3.2499 18.1972 3.2933C18.5527 3.34109 18.9284 3.45354 19.2374 3.76256C19.5465 4.07159 19.6589 4.44731 19.7067 4.80279C19.7501 5.1256 19.7501 5.52244 19.75 5.95526L19.75 6H18.25C18.25 5.50739 18.2484 5.21339 18.2201 5.00266C18.2071 4.90611 18.1918 4.85774 18.1828 4.83596C18.1808 4.83092 18.1791 4.8276 18.1781 4.82567L18.1768 4.82324L18.1743 4.82186C18.1724 4.82085 18.1691 4.81923 18.164 4.81716C18.1423 4.8082 18.0939 4.79291 17.9973 4.77992C17.7866 4.75159 17.4926 4.75 17 4.75H12.75V19.25H16C16.4142 19.25 16.75 19.5858 16.75 20C16.75 20.4142 16.4142 20.75 16 20.75H12H8C7.58579 20.75 7.25 20.4142 7.25 20C7.25 19.5858 7.58579 19.25 8 19.25H11.25V4.75H7C6.50739 4.75 6.21339 4.75159 6.00266 4.77992C5.90611 4.79291 5.85774 4.8082 5.83596 4.81716C5.83092 4.81923 5.8276 4.82085 5.82567 4.82186L5.82324 4.82324L5.82186 4.82567C5.82085 4.8276 5.81923 4.83092 5.81716 4.83596C5.8082 4.85774 5.79291 4.90611 5.77992 5.00266C5.75159 5.21339 5.75 5.50739 5.75 6H4.25C4.25 5.98504 4.25 5.97013 4.25 5.95525C4.24995 5.52244 4.2499 5.1256 4.2933 4.80279C4.34109 4.44731 4.45354 4.07159 4.76256 3.76256C5.07159 3.45354 5.44731 3.34109 5.80279 3.2933C6.1256 3.2499 6.52244 3.24995 6.95525 3.25Z" fill="#22282F"/>
</svg>
