<svg width="24" height="24" viewBox="0 0 24 24" fill="none" xmlns="http://www.w3.org/2000/svg">
<path fill-rule="evenodd" clip-rule="evenodd" d="M18 3.75C16.7574 3.75 15.75 4.75736 15.75 6C15.75 7.24264 16.7574 8.25 18 8.25C19.2426 8.25 20.25 7.24264 20.25 6C20.25 4.75736 19.2426 3.75 18 3.75ZM6.77626 14.3304C7.09523 10.2834 10.2834 7.09523 14.3304 6.77626C14.688 8.47484 16.1951 9.75 18 9.75C20.0711 9.75 21.75 8.07107 21.75 6C21.75 3.92893 20.0711 2.25 18 2.25C16.1777 2.25 14.659 3.54984 14.3204 5.27293C9.45193 5.60273 5.60272 9.45194 5.27292 14.3204C3.54983 14.659 2.25 16.1777 2.25 18C2.25 20.0711 3.92893 21.75 6 21.75C8.07107 21.75 9.75 20.0711 9.75 18C9.75 16.1951 8.47484 14.688 6.77626 14.3304ZM3.75 18C3.75 16.7574 4.75736 15.75 6 15.75C7.24264 15.75 8.25 16.7574 8.25 18C8.25 19.2426 7.24264 20.25 6 20.25C4.75736 20.25 3.75 19.2426 3.75 18Z" fill="#22282F"/>
</svg>
