<svg width="24" height="24" viewBox="0 0 24 24" fill="none" xmlns="http://www.w3.org/2000/svg">
<path fill-rule="evenodd" clip-rule="evenodd" d="M4 3.25C3.58579 3.25 3.25 3.58579 3.25 4C3.25 4.41422 3.58579 4.75 4 4.75L20 4.75C20.4142 4.75 20.75 4.41422 20.75 4C20.75 3.58579 20.4142 3.25 20 3.25L4 3.25ZM17.5 11.75L4 11.75C3.58579 11.75 3.25 11.4142 3.25 11C3.25 10.5858 3.58579 10.25 4 10.25L17.5 10.25C19.8472 10.25 21.75 12.1528 21.75 14.5C21.75 16.8472 19.8472 18.75 17.5 18.75L13.8107 18.75L15.5303 20.4697C15.8232 20.7626 15.8232 21.2374 15.5303 21.5303C15.2374 21.8232 14.7626 21.8232 14.4697 21.5303L11.4697 18.5303C11.1768 18.2374 11.1768 17.7626 11.4697 17.4697L14.4697 14.4697C14.7626 14.1768 15.2374 14.1768 15.5303 14.4697C15.8232 14.7626 15.8232 15.2374 15.5303 15.5303L13.8107 17.25L17.5 17.25C19.0188 17.25 20.25 16.0188 20.25 14.5C20.25 12.9812 19.0188 11.75 17.5 11.75ZM3.25 18C3.25 17.5858 3.58579 17.25 4 17.25L8 17.25C8.41421 17.25 8.75 17.5858 8.75 18C8.75 18.4142 8.41421 18.75 8 18.75L4 18.75C3.58579 18.75 3.25 18.4142 3.25 18Z" fill="#22282F"/>
</svg>
