<svg width="24" height="24" viewBox="0 0 24 24" fill="none" xmlns="http://www.w3.org/2000/svg">
<path fill-rule="evenodd" clip-rule="evenodd" d="M3 2.25C2.58579 2.25 2.25 2.58579 2.25 3C2.25 3.41421 2.58579 3.75 3 3.75H21C21.4142 3.75 21.75 3.41421 21.75 3C21.75 2.58579 21.4142 2.25 21 2.25H3ZM12 6.25L11.948 6.25C11.0495 6.24997 10.3003 6.24995 9.70552 6.32991C9.07773 6.41432 8.51093 6.59999 8.05546 7.05546C7.59999 7.51093 7.41432 8.07773 7.32991 8.70552C7.24995 9.3003 7.24997 10.0495 7.25 10.948L7.25 11V17L7.25 17.052C7.24997 17.9505 7.24995 18.6997 7.32991 19.2945C7.41432 19.9223 7.59999 20.4891 8.05546 20.9445C8.51093 21.4 9.07773 21.5857 9.70552 21.6701C10.3003 21.7501 11.0494 21.75 11.9479 21.75H11.948L12 21.75L12.052 21.75H12.0521C12.9506 21.75 13.6997 21.7501 14.2945 21.6701C14.9223 21.5857 15.4891 21.4 15.9445 20.9445C16.4 20.4891 16.5857 19.9223 16.6701 19.2945C16.7501 18.6997 16.75 17.9505 16.75 17.052V17.052L16.75 17V11L16.75 10.948V10.948C16.75 10.0495 16.7501 9.3003 16.6701 8.70552C16.5857 8.07773 16.4 7.51093 15.9445 7.05546C15.4891 6.59999 14.9223 6.41432 14.2945 6.32991C13.6997 6.24995 12.9505 6.24997 12.052 6.25L12 6.25ZM9.11612 8.11612C9.24643 7.9858 9.44393 7.87858 9.90539 7.81654C10.3884 7.75159 11.036 7.75 12 7.75C12.964 7.75 13.6116 7.75159 14.0946 7.81654C14.5561 7.87858 14.7536 7.9858 14.8839 8.11612C15.0142 8.24643 15.1214 8.44393 15.1835 8.90539C15.2484 9.38843 15.25 10.036 15.25 11V17C15.25 17.964 15.2484 18.6116 15.1835 19.0946C15.1214 19.5561 15.0142 19.7536 14.8839 19.8839C14.7536 20.0142 14.5561 20.1214 14.0946 20.1835C13.6116 20.2484 12.964 20.25 12 20.25C11.036 20.25 10.3884 20.2484 9.90539 20.1835C9.44393 20.1214 9.24643 20.0142 9.11612 19.8839C8.9858 19.7536 8.87858 19.5561 8.81654 19.0946C8.75159 18.6116 8.75 17.964 8.75 17V11C8.75 10.036 8.75159 9.38843 8.81654 8.90539C8.87858 8.44393 8.9858 8.24643 9.11612 8.11612Z" fill="#22282F"/>
</svg>
