<svg width="24" height="24" viewBox="0 0 24 24" fill="none" xmlns="http://www.w3.org/2000/svg">
<path fill-rule="evenodd" clip-rule="evenodd" d="M12 2.25H11.948C11.0495 2.24997 10.3003 2.24995 9.70552 2.32991C9.07773 2.41432 8.51093 2.59999 8.05546 3.05546C7.59999 3.51093 7.41432 4.07773 7.32991 4.70552C7.24995 5.3003 7.24997 6.04952 7.25 6.948L7.25 7V13L7.25 13.052C7.24997 13.9505 7.24995 14.6997 7.32991 15.2945C7.41432 15.9223 7.59999 16.4891 8.05546 16.9445C8.51093 17.4 9.07773 17.5857 9.70552 17.6701C10.3003 17.7501 11.0495 17.75 11.948 17.75H11.948L12 17.75L12.052 17.75H12.052C12.9505 17.75 13.6997 17.7501 14.2945 17.6701C14.9223 17.5857 15.4891 17.4 15.9445 16.9445C16.4 16.4891 16.5857 15.9223 16.6701 15.2945C16.7501 14.6997 16.75 13.9505 16.75 13.052V13.052L16.75 13V7L16.75 6.94801V6.94798C16.75 6.04951 16.7501 5.3003 16.6701 4.70552C16.5857 4.07773 16.4 3.51093 15.9445 3.05546C15.4891 2.59999 14.9223 2.41432 14.2945 2.32991C13.6997 2.24995 12.9505 2.24997 12.052 2.25H12ZM9.11612 4.11612C9.24643 3.9858 9.44393 3.87858 9.90539 3.81654C10.3884 3.75159 11.036 3.75 12 3.75C12.964 3.75 13.6116 3.75159 14.0946 3.81654C14.5561 3.87858 14.7536 3.9858 14.8839 4.11612C15.0142 4.24643 15.1214 4.44393 15.1835 4.90539C15.2484 5.38843 15.25 6.03599 15.25 7V13C15.25 13.964 15.2484 14.6116 15.1835 15.0946C15.1214 15.5561 15.0142 15.7536 14.8839 15.8839C14.7536 16.0142 14.5561 16.1214 14.0946 16.1835C13.6116 16.2484 12.964 16.25 12 16.25C11.036 16.25 10.3884 16.2484 9.90539 16.1835C9.44393 16.1214 9.24643 16.0142 9.11612 15.8839C8.9858 15.7536 8.87858 15.5561 8.81654 15.0946C8.75159 14.6116 8.75 13.964 8.75 13V7C8.75 6.03599 8.75159 5.38843 8.81654 4.90539C8.87858 4.44393 8.9858 4.24643 9.11612 4.11612ZM3 20.25C2.58579 20.25 2.25 20.5858 2.25 21C2.25 21.4142 2.58579 21.75 3 21.75H21C21.4142 21.75 21.75 21.4142 21.75 21C21.75 20.5858 21.4142 20.25 21 20.25H3Z" fill="#22282F"/>
</svg>
