<svg width="24" height="24" viewBox="0 0 24 24" fill="none" xmlns="http://www.w3.org/2000/svg">
<path fill-rule="evenodd" clip-rule="evenodd" d="M3.75 3C3.75 2.58579 3.41421 2.25 3 2.25C2.58579 2.25 2.25 2.58579 2.25 3V21C2.25 21.4142 2.58579 21.75 3 21.75C3.41421 21.75 3.75 21.4142 3.75 21L3.75 3ZM11 7.25L10.948 7.25C10.0495 7.24997 9.3003 7.24995 8.70552 7.32991C8.07773 7.41432 7.51093 7.59999 7.05546 8.05546C6.59999 8.51093 6.41432 9.07773 6.32991 9.70552C6.24994 10.3003 6.24997 11.0495 6.25 11.948L6.25 12L6.25 12.052C6.24997 12.9505 6.24994 13.6997 6.32991 14.2945C6.41432 14.9223 6.59999 15.4891 7.05546 15.9445C7.51093 16.4 8.07773 16.5857 8.70552 16.6701C9.3003 16.7501 10.0495 16.75 10.948 16.75H10.948L11 16.75H17L17.052 16.75H17.052C17.9505 16.75 18.6997 16.7501 19.2945 16.6701C19.9223 16.5857 20.4891 16.4 20.9445 15.9445C21.4 15.4891 21.5857 14.9223 21.6701 14.2945C21.7501 13.6997 21.75 12.9505 21.75 12.052V12.052L21.75 12L21.75 11.948V11.948C21.75 11.0495 21.7501 10.3003 21.6701 9.70552C21.5857 9.07773 21.4 8.51093 20.9445 8.05546C20.4891 7.59999 19.9223 7.41432 19.2945 7.32991C18.6997 7.24995 17.9505 7.24997 17.052 7.25L17 7.25H11ZM8.11612 9.11612C8.24643 8.9858 8.44393 8.87858 8.90539 8.81654C9.38843 8.75159 10.036 8.75 11 8.75H17C17.964 8.75 18.6116 8.75159 19.0946 8.81654C19.5561 8.87858 19.7536 8.9858 19.8839 9.11612C20.0142 9.24643 20.1214 9.44393 20.1835 9.90539C20.2484 10.3884 20.25 11.036 20.25 12C20.25 12.964 20.2484 13.6116 20.1835 14.0946C20.1214 14.5561 20.0142 14.7536 19.8839 14.8839C19.7536 15.0142 19.5561 15.1214 19.0946 15.1835C18.6116 15.2484 17.964 15.25 17 15.25H11C10.036 15.25 9.38843 15.2484 8.90539 15.1835C8.44393 15.1214 8.24643 15.0142 8.11612 14.8839C7.9858 14.7536 7.87858 14.5561 7.81654 14.0946C7.75159 13.6116 7.75 12.964 7.75 12C7.75 11.036 7.75159 10.3884 7.81654 9.90539C7.87858 9.44393 7.9858 9.24643 8.11612 9.11612Z" fill="#22282F"/>
</svg>
