<svg width="24" height="24" viewBox="0 0 24 24" fill="none" xmlns="http://www.w3.org/2000/svg">
<path fill-rule="evenodd" clip-rule="evenodd" d="M12 3.25H11.948C11.0495 3.24997 10.3003 3.24995 9.70552 3.32991C9.07773 3.41432 8.51093 3.59999 8.05546 4.05546C7.59999 4.51093 7.41432 5.07773 7.32991 5.70552C7.24995 6.3003 7.24997 7.04952 7.25 7.948L7.25 8V11.25H3C2.58579 11.25 2.25 11.5858 2.25 12C2.25 12.4142 2.58579 12.75 3 12.75H7.25V16L7.25 16.052C7.24997 16.9505 7.24995 17.6997 7.32991 18.2945C7.41432 18.9223 7.59999 19.4891 8.05546 19.9445C8.51093 20.4 9.07773 20.5857 9.70552 20.6701C10.3003 20.7501 11.0495 20.75 11.948 20.75H12H12.052C12.9505 20.75 13.6997 20.7501 14.2945 20.6701C14.9223 20.5857 15.4891 20.4 15.9445 19.9445C16.4 19.4891 16.5857 18.9223 16.6701 18.2945C16.7501 17.6997 16.75 16.9505 16.75 16.052V16.052L16.75 16V12.75H21C21.4142 12.75 21.75 12.4142 21.75 12C21.75 11.5858 21.4142 11.25 21 11.25H16.75V8L16.75 7.94801V7.94798C16.75 7.04951 16.7501 6.3003 16.6701 5.70552C16.5857 5.07773 16.4 4.51093 15.9445 4.05546C15.4891 3.59999 14.9223 3.41432 14.2945 3.32991C13.6997 3.24995 12.9505 3.24997 12.052 3.25H12ZM15.25 12V8C15.25 7.03599 15.2484 6.38843 15.1835 5.90539C15.1214 5.44393 15.0142 5.24643 14.8839 5.11612C14.7536 4.9858 14.5561 4.87858 14.0946 4.81654C13.6116 4.75159 12.964 4.75 12 4.75C11.036 4.75 10.3884 4.75159 9.90539 4.81654C9.44393 4.87858 9.24643 4.9858 9.11612 5.11612C8.9858 5.24643 8.87858 5.44393 8.81654 5.90539C8.75159 6.38843 8.75 7.03599 8.75 8V12V16C8.75 16.964 8.75159 17.6116 8.81654 18.0946C8.87858 18.5561 8.9858 18.7536 9.11612 18.8839C9.24643 19.0142 9.44393 19.1214 9.90539 19.1835C10.3884 19.2484 11.036 19.25 12 19.25C12.964 19.25 13.6116 19.2484 14.0946 19.1835C14.5561 19.1214 14.7536 19.0142 14.8839 18.8839C15.0142 18.7536 15.1214 18.5561 15.1835 18.0946C15.2484 17.6116 15.25 16.964 15.25 16V12Z" fill="#22282F"/>
</svg>
