<svg width="24" height="24" viewBox="0 0 24 24" fill="none" xmlns="http://www.w3.org/2000/svg">
<path fill-rule="evenodd" clip-rule="evenodd" d="M21.75 3C21.75 2.58579 21.4142 2.25 21 2.25C20.5858 2.25 20.25 2.58579 20.25 3V21C20.25 21.4142 20.5858 21.75 21 21.75C21.4142 21.75 21.75 21.4142 21.75 21V3ZM7 7.25L6.948 7.25C6.04952 7.24997 5.3003 7.24995 4.70552 7.32991C4.07773 7.41432 3.51093 7.59999 3.05546 8.05546C2.59999 8.51093 2.41432 9.07773 2.32991 9.70552C2.24994 10.3003 2.24997 11.0495 2.25 11.948V12V12.052C2.24997 12.9505 2.24994 13.6997 2.32991 14.2945C2.41432 14.9223 2.59999 15.4891 3.05546 15.9445C3.51093 16.4 4.07773 16.5857 4.70552 16.6701C5.3003 16.7501 6.04951 16.75 6.94797 16.75H6.94801L7 16.75H13L13.052 16.75H13.052C13.9505 16.75 14.6997 16.7501 15.2945 16.6701C15.9223 16.5857 16.4891 16.4 16.9445 15.9445C17.4 15.4891 17.5857 14.9223 17.6701 14.2945C17.7501 13.6997 17.75 12.9505 17.75 12.052V12.052L17.75 12L17.75 11.948V11.948C17.75 11.0495 17.7501 10.3003 17.6701 9.70552C17.5857 9.07773 17.4 8.51093 16.9445 8.05546C16.4891 7.59999 15.9223 7.41432 15.2945 7.32991C14.6997 7.24995 13.9505 7.24997 13.052 7.25L13 7.25H7ZM4.11612 9.11612C4.24643 8.9858 4.44393 8.87858 4.90539 8.81654C5.38843 8.75159 6.03599 8.75 7 8.75H13C13.964 8.75 14.6116 8.75159 15.0946 8.81654C15.5561 8.87858 15.7536 8.9858 15.8839 9.11612C16.0142 9.24643 16.1214 9.44393 16.1835 9.90539C16.2484 10.3884 16.25 11.036 16.25 12C16.25 12.964 16.2484 13.6116 16.1835 14.0946C16.1214 14.5561 16.0142 14.7536 15.8839 14.8839C15.7536 15.0142 15.5561 15.1214 15.0946 15.1835C14.6116 15.2484 13.964 15.25 13 15.25H7C6.03599 15.25 5.38843 15.2484 4.90539 15.1835C4.44393 15.1214 4.24643 15.0142 4.11612 14.8839C3.9858 14.7536 3.87858 14.5561 3.81654 14.0946C3.75159 13.6116 3.75 12.964 3.75 12C3.75 11.036 3.75159 10.3884 3.81654 9.90539C3.87858 9.44393 3.9858 9.24643 4.11612 9.11612Z" fill="#22282F"/>
</svg>
