<svg width="24" height="24" viewBox="0 0 24 24" fill="none" xmlns="http://www.w3.org/2000/svg">
<path fill-rule="evenodd" clip-rule="evenodd" d="M5.75 2C5.75 1.58579 5.41421 1.25 5 1.25C4.58579 1.25 4.25 1.58579 4.25 2V4.25H2C1.58579 4.25 1.25 4.58579 1.25 5C1.25 5.41421 1.58579 5.75 2 5.75H4.25V15L4.25 15.052C4.24997 15.9505 4.24994 16.6997 4.32991 17.2945C4.41432 17.9223 4.59999 18.4891 5.05546 18.9445C5.51093 19.4 6.07773 19.5857 6.70552 19.6701C7.3003 19.7501 8.04952 19.75 8.94801 19.75H9H18.25V22C18.25 22.4142 18.5858 22.75 19 22.75C19.4142 22.75 19.75 22.4142 19.75 22V19.75H22C22.4142 19.75 22.75 19.4142 22.75 19C22.75 18.5858 22.4142 18.25 22 18.25H19H9C8.03599 18.25 7.38843 18.2484 6.90539 18.1835C6.44393 18.1214 6.24643 18.0142 6.11612 17.8839C5.9858 17.7536 5.87858 17.5561 5.81654 17.0946C5.75159 16.6116 5.75 15.964 5.75 15V5V2ZM15 5.75C15.964 5.75 16.6116 5.75159 17.0946 5.81654C17.5561 5.87858 17.7536 5.9858 17.8839 6.11612C18.0142 6.24643 18.1214 6.44393 18.1835 6.90539C18.2484 7.38843 18.25 8.03599 18.25 9V16C18.25 16.4142 18.5858 16.75 19 16.75C19.4142 16.75 19.75 16.4142 19.75 16V9L19.75 8.94801V8.94797C19.75 8.04951 19.7501 7.3003 19.6701 6.70552C19.5857 6.07773 19.4 5.51093 18.9445 5.05546C18.4891 4.59999 17.9223 4.41432 17.2945 4.32991C16.6997 4.24994 15.9505 4.24997 15.052 4.25L15 4.25H8C7.58579 4.25 7.25 4.58579 7.25 5C7.25 5.41421 7.58579 5.75 8 5.75H15Z" fill="#22282F"/>
</svg>
