<svg width="24" height="24" viewBox="0 0 24 24" fill="none" xmlns="http://www.w3.org/2000/svg">
<path fill-rule="evenodd" clip-rule="evenodd" d="M11.3474 1.63048C11.4805 1.39534 11.7298 1.25 12 1.25C17.9371 1.25 22.75 6.06294 22.75 12C22.75 12.4142 22.4142 12.75 22 12.75C21.5858 12.75 21.25 12.4142 21.25 12C21.25 7.36262 17.8374 3.52229 13.3866 2.85323L14.1431 4.11413C14.3562 4.46931 14.2411 4.93001 13.8859 5.14312C13.5307 5.35623 13.07 5.24106 12.8569 4.88587L11.3569 2.38587C11.2179 2.15417 11.2142 1.86561 11.3474 1.63048ZM2 11.25C2.41421 11.25 2.75 11.5858 2.75 12C2.75 16.6374 6.16255 20.4777 10.6134 21.1468L9.85688 19.8859C9.64377 19.5307 9.75894 19.07 10.1141 18.8569C10.4693 18.6438 10.93 18.7589 11.1431 19.1141L12.6431 21.6141C12.7821 21.8458 12.7858 22.1344 12.6526 22.3695C12.5195 22.6047 12.2702 22.75 12 22.75C6.06294 22.75 1.25 17.9371 1.25 12C1.25 11.5858 1.58579 11.25 2 11.25ZM8 5.25C8.41421 5.25 8.75 5.58579 8.75 6V8V12C8.75 12.964 8.75159 13.6116 8.81654 14.0946C8.87858 14.5561 8.9858 14.7536 9.11612 14.8839C9.24643 15.0142 9.44393 15.1214 9.90539 15.1835C10.3884 15.2484 11.036 15.25 12 15.25H16H18C18.4142 15.25 18.75 15.5858 18.75 16C18.75 16.4142 18.4142 16.75 18 16.75H16.75V18C16.75 18.4142 16.4142 18.75 16 18.75C15.5858 18.75 15.25 18.4142 15.25 18V16.75H12L11.948 16.75H11.948C11.0495 16.75 10.3003 16.7501 9.70552 16.6701C9.07773 16.5857 8.51093 16.4 8.05546 15.9445C7.59999 15.4891 7.41432 14.9223 7.32991 14.2945C7.24994 13.6997 7.24997 12.9505 7.25 12.052L7.25 12V8.75H6C5.58579 8.75 5.25 8.41421 5.25 8C5.25 7.58579 5.58579 7.25 6 7.25H7.25V6C7.25 5.58579 7.58579 5.25 8 5.25ZM12 8.75C12.964 8.75 13.6116 8.75159 14.0946 8.81654C14.5561 8.87858 14.7536 8.9858 14.8839 9.11612C15.0142 9.24643 15.1214 9.44393 15.1835 9.90539C15.2484 10.3884 15.25 11.036 15.25 12V13.5C15.25 13.9142 15.5858 14.25 16 14.25C16.4142 14.25 16.75 13.9142 16.75 13.5V12L16.75 11.948C16.75 11.0495 16.7501 10.3003 16.6701 9.70552C16.5857 9.07773 16.4 8.51093 15.9445 8.05546C15.4891 7.59999 14.9223 7.41432 14.2945 7.32991C13.6997 7.24995 12.9505 7.24997 12.052 7.25L12 7.25H10.5C10.0858 7.25 9.75 7.58579 9.75 8C9.75 8.41421 10.0858 8.75 10.5 8.75H12Z" fill="#22282F"/>
</svg>
