<svg width="24" height="24" viewBox="0 0 24 24" fill="none" xmlns="http://www.w3.org/2000/svg">
<path fill-rule="evenodd" clip-rule="evenodd" d="M2.99992 3.75004L20.9999 3.75004C21.4141 3.75004 21.7499 3.41426 21.7499 3.00004C21.7499 2.58583 21.4141 2.25004 20.9999 2.25004L2.99992 2.25004C2.58571 2.25004 2.24992 2.58583 2.24992 3.00004C2.24992 3.41426 2.58571 3.75004 2.99992 3.75004ZM8.948 7.25L9 7.25H15L15.052 7.25C15.9505 7.24997 16.6997 7.24995 17.2945 7.32991C17.9223 7.41432 18.4891 7.59999 18.9445 8.05546C19.4 8.51093 19.5857 9.07773 19.6701 9.70552C19.7501 10.3003 19.75 11.0495 19.75 11.9479V11.948V11.948L19.75 12L19.75 12.052V12.052V12.0521C19.75 12.9505 19.7501 13.6997 19.6701 14.2945C19.5857 14.9223 19.4 15.4891 18.9445 15.9445C18.4891 16.4 17.9223 16.5857 17.2945 16.6701C16.6997 16.7501 15.9505 16.75 15.052 16.75H15.052L15 16.75H9L8.94801 16.75H8.94797C8.04951 16.75 7.3003 16.7501 6.70552 16.6701C6.07773 16.5857 5.51093 16.4 5.05546 15.9445C4.59999 15.4891 4.41432 14.9223 4.32991 14.2945C4.24994 13.6997 4.24997 12.9505 4.25 12.052L4.25 12L4.25 11.948C4.24997 11.0495 4.24994 10.3003 4.32991 9.70552C4.41432 9.07773 4.59999 8.51093 5.05546 8.05546C5.51093 7.59999 6.07773 7.41432 6.70552 7.32991C7.3003 7.24995 8.04952 7.24997 8.948 7.25ZM6.90539 8.81654C6.44393 8.87858 6.24643 8.9858 6.11612 9.11612C5.9858 9.24643 5.87858 9.44393 5.81654 9.90539C5.75159 10.3884 5.75 11.036 5.75 12C5.75 12.964 5.75159 13.6116 5.81654 14.0946C5.87858 14.5561 5.9858 14.7536 6.11612 14.8839C6.24643 15.0142 6.44393 15.1214 6.90539 15.1835C7.38843 15.2484 8.03599 15.25 9 15.25H15C15.964 15.25 16.6116 15.2484 17.0946 15.1835C17.5561 15.1214 17.7536 15.0142 17.8839 14.8839C18.0142 14.7536 18.1214 14.5561 18.1835 14.0946C18.2484 13.6116 18.25 12.964 18.25 12C18.25 11.036 18.2484 10.3884 18.1835 9.90539C18.1214 9.44393 18.0142 9.24643 17.8839 9.11612C17.7536 8.9858 17.5561 8.87858 17.0946 8.81654C16.6116 8.75159 15.964 8.75 15 8.75H9C8.03599 8.75 7.38843 8.75159 6.90539 8.81654ZM20.9999 21.75L2.99992 21.75C2.58571 21.75 2.24992 21.4143 2.24992 21C2.24992 20.5858 2.58571 20.25 2.99992 20.25L20.9999 20.25C21.4141 20.25 21.7499 20.5858 21.7499 21C21.7499 21.4143 21.4141 21.75 20.9999 21.75Z" fill="#22282F"/>
</svg>
