<svg width="24" height="24" viewBox="0 0 24 24" fill="none" xmlns="http://www.w3.org/2000/svg">
<path fill-rule="evenodd" clip-rule="evenodd" d="M3 2.25C3.41421 2.25 3.75 2.58579 3.75 3L3.75 21C3.75 21.4142 3.41421 21.75 3 21.75C2.58579 21.75 2.25 21.4142 2.25 21V3C2.25 2.58579 2.58579 2.25 3 2.25ZM11.948 4.25L12 4.25L12.052 4.25C12.9505 4.24997 13.6997 4.24994 14.2945 4.32991C14.9223 4.41432 15.4891 4.59999 15.9445 5.05546C16.4 5.51093 16.5857 6.07773 16.6701 6.70552C16.7501 7.3003 16.75 8.04951 16.75 8.94797V8.94801L16.75 9V15L16.75 15.052V15.052C16.75 15.9505 16.7501 16.6997 16.6701 17.2945C16.5857 17.9223 16.4 18.4891 15.9445 18.9445C15.4891 19.4 14.9223 19.5857 14.2945 19.6701C13.6997 19.7501 12.9505 19.75 12.0521 19.75H12.052H12.052L12 19.75L11.948 19.75H11.948H11.9479C11.0495 19.75 10.3003 19.7501 9.70552 19.6701C9.07773 19.5857 8.51093 19.4 8.05546 18.9445C7.59999 18.4891 7.41432 17.9223 7.32991 17.2945C7.24995 16.6997 7.24997 15.9505 7.25 15.052L7.25 15V9L7.25 8.948C7.24997 8.04952 7.24995 7.3003 7.32991 6.70552C7.41432 6.07773 7.59999 5.51093 8.05546 5.05546C8.51093 4.59999 9.07773 4.41432 9.70552 4.32991C10.3003 4.24994 11.0495 4.24997 11.948 4.25ZM9.90539 5.81654C9.44393 5.87858 9.24643 5.9858 9.11612 6.11612C8.9858 6.24643 8.87858 6.44393 8.81654 6.90539C8.75159 7.38843 8.75 8.03599 8.75 9V15C8.75 15.964 8.75159 16.6116 8.81654 17.0946C8.87858 17.5561 8.9858 17.7536 9.11612 17.8839C9.24643 18.0142 9.44393 18.1214 9.90539 18.1835C10.3884 18.2484 11.036 18.25 12 18.25C12.964 18.25 13.6116 18.2484 14.0946 18.1835C14.5561 18.1214 14.7536 18.0142 14.8839 17.8839C15.0142 17.7536 15.1214 17.5561 15.1835 17.0946C15.2484 16.6116 15.25 15.964 15.25 15V9C15.25 8.03599 15.2484 7.38843 15.1835 6.90539C15.1214 6.44393 15.0142 6.24643 14.8839 6.11612C14.7536 5.9858 14.5561 5.87858 14.0946 5.81654C13.6116 5.75159 12.964 5.75 12 5.75C11.036 5.75 10.3884 5.75159 9.90539 5.81654ZM21.75 3C21.75 2.58579 21.4142 2.25 21 2.25C20.5858 2.25 20.25 2.58579 20.25 3V21C20.25 21.4142 20.5858 21.75 21 21.75C21.4142 21.75 21.75 21.4142 21.75 21V3Z" fill="#22282F"/>
</svg>
