<svg width="24" height="24" viewBox="0 0 24 24" fill="none" xmlns="http://www.w3.org/2000/svg">
<path fill-rule="evenodd" clip-rule="evenodd" d="M6.5 2.25H6.46166H6.46165C5.79207 2.24998 5.23335 2.24997 4.78102 2.29598C4.30755 2.34415 3.86818 2.44886 3.47218 2.71346C3.17191 2.9141 2.9141 3.17191 2.71346 3.47218C2.44886 3.86818 2.34415 4.30755 2.29598 4.78102C2.24997 5.23335 2.24998 5.79207 2.25 6.46165V6.46166V6.5V6.53835V6.53835C2.24998 7.20793 2.24997 7.76665 2.29598 8.21898C2.34415 8.69245 2.44886 9.13182 2.71346 9.52782C2.9141 9.82809 3.17191 10.0859 3.47218 10.2865C3.86818 10.5511 4.30755 10.6559 4.78102 10.704C5.23335 10.75 5.79208 10.75 6.46166 10.75L6.5 10.75L6.53834 10.75C7.20792 10.75 7.76665 10.75 8.21898 10.704C8.69245 10.6559 9.13182 10.5511 9.52782 10.2865C9.82809 10.0859 10.0859 9.82809 10.2865 9.52782C10.5511 9.13182 10.6559 8.69245 10.704 8.21898C10.75 7.76665 10.75 7.20792 10.75 6.53834L10.75 6.5L10.75 6.46166C10.75 5.79208 10.75 5.23335 10.704 4.78102C10.6559 4.30755 10.5511 3.86818 10.2865 3.47218C10.0859 3.17191 9.82809 2.9141 9.52782 2.71346C9.13182 2.44886 8.69245 2.34415 8.21898 2.29598C7.76665 2.24997 7.20793 2.24998 6.53835 2.25H6.53835H6.5ZM4.30554 3.96066C4.41399 3.8882 4.57796 3.82438 4.93283 3.78828C5.30023 3.75091 5.78216 3.75 6.5 3.75C7.21784 3.75 7.69977 3.75091 8.06717 3.78828C8.42204 3.82438 8.58601 3.8882 8.69446 3.96066C8.83095 4.05186 8.94814 4.16905 9.03934 4.30554C9.1118 4.41399 9.17562 4.57796 9.21172 4.93283C9.24909 5.30023 9.25 5.78216 9.25 6.5C9.25 7.21784 9.24909 7.69977 9.21172 8.06717C9.17562 8.42204 9.1118 8.58601 9.03934 8.69446C8.94814 8.83095 8.83095 8.94814 8.69446 9.03934C8.58601 9.1118 8.42204 9.17562 8.06717 9.21172C7.69977 9.24909 7.21784 9.25 6.5 9.25C5.78216 9.25 5.30023 9.24909 4.93283 9.21172C4.57796 9.17562 4.41399 9.1118 4.30554 9.03934C4.16905 8.94814 4.05186 8.83095 3.96066 8.69446C3.8882 8.58601 3.82438 8.42204 3.78828 8.06717C3.75091 7.69977 3.75 7.21784 3.75 6.5C3.75 5.78216 3.75091 5.30023 3.78828 4.93283C3.82438 4.57796 3.8882 4.41399 3.96066 4.30554C4.05186 4.16905 4.16905 4.05186 4.30554 3.96066ZM6.5 13.25L6.46165 13.25C5.79208 13.25 5.23335 13.25 4.78102 13.296C4.30755 13.3441 3.86818 13.4489 3.47218 13.7135C3.17191 13.9141 2.91409 14.1719 2.71346 14.4722C2.44886 14.8682 2.34415 15.3075 2.29598 15.781C2.24997 16.2334 2.24998 16.7921 2.25 17.4617V17.5V17.5383C2.24998 18.2079 2.24997 18.7666 2.29598 19.219C2.34415 19.6925 2.44886 20.1318 2.71346 20.5278C2.91409 20.8281 3.17191 21.0859 3.47218 21.2865C3.86818 21.5511 4.30755 21.6559 4.78102 21.704C5.23335 21.75 5.79208 21.75 6.46166 21.75H6.5H6.53834C7.20792 21.75 7.76665 21.75 8.21898 21.704C8.69245 21.6559 9.13182 21.5511 9.52782 21.2865C9.82809 21.0859 10.0859 20.8281 10.2865 20.5278C10.5511 20.1318 10.6559 19.6925 10.704 19.219C10.75 18.7666 10.75 18.2079 10.75 17.5383L10.75 17.5L10.75 17.4617C10.75 16.7921 10.75 16.2334 10.704 15.781C10.6559 15.3075 10.5511 14.8682 10.2865 14.4722C10.0859 14.1719 9.82809 13.9141 9.52782 13.7135C9.13182 13.4489 8.69245 13.3441 8.21898 13.296C7.76665 13.25 7.20792 13.25 6.53835 13.25L6.5 13.25ZM4.30554 14.9607C4.41399 14.8882 4.57796 14.8244 4.93283 14.7883C5.30023 14.7509 5.78216 14.75 6.5 14.75C7.21784 14.75 7.69977 14.7509 8.06717 14.7883C8.42204 14.8244 8.58601 14.8882 8.69446 14.9607C8.83095 15.0519 8.94814 15.169 9.03934 15.3055C9.1118 15.414 9.17562 15.578 9.21172 15.9328C9.24909 16.3002 9.25 16.7822 9.25 17.5C9.25 18.2178 9.24909 18.6998 9.21172 19.0672C9.17562 19.422 9.1118 19.586 9.03934 19.6945C8.94814 19.8309 8.83095 19.9481 8.69446 20.0393C8.58601 20.1118 8.42204 20.1756 8.06717 20.2117C7.69977 20.2491 7.21784 20.25 6.5 20.25C5.78216 20.25 5.30023 20.2491 4.93283 20.2117C4.57796 20.1756 4.41399 20.1118 4.30554 20.0393C4.16905 19.9481 4.05186 19.8309 3.96066 19.6945C3.8882 19.586 3.82438 19.422 3.78828 19.0672C3.75091 18.6998 3.75 18.2178 3.75 17.5C3.75 16.7822 3.75091 16.3002 3.78828 15.9328C3.82438 15.578 3.8882 15.414 3.96066 15.3055C4.05186 15.169 4.16905 15.0519 4.30554 14.9607ZM17.4617 13.25L17.5 13.25L17.5383 13.25H17.5384C18.2079 13.25 18.7667 13.25 19.219 13.296C19.6925 13.3441 20.1318 13.4489 20.5278 13.7135C20.8281 13.9141 21.0859 14.1719 21.2865 14.4722C21.5511 14.8682 21.6559 15.3075 21.704 15.781C21.75 16.2334 21.75 16.7921 21.75 17.4617L21.75 17.5L21.75 17.5383C21.75 18.2079 21.75 18.7666 21.704 19.219C21.6559 19.6925 21.5511 20.1318 21.2865 20.5278C21.0859 20.8281 20.8281 21.0859 20.5278 21.2865C20.1318 21.5511 19.6925 21.6559 19.219 21.704C18.7666 21.75 18.2079 21.75 17.5383 21.75L17.5 21.75L17.4617 21.75C16.7921 21.75 16.2334 21.75 15.781 21.704C15.3075 21.6559 14.8682 21.5511 14.4722 21.2865C14.1719 21.0859 13.9141 20.8281 13.7135 20.5278C13.4489 20.1318 13.3441 19.6925 13.296 19.219C13.25 18.7667 13.25 18.2079 13.25 17.5384V17.5383L13.25 17.5L13.25 17.4617V17.4616C13.25 16.7921 13.25 16.2333 13.296 15.781C13.3441 15.3075 13.4489 14.8682 13.7135 14.4722C13.9141 14.1719 14.1719 13.9141 14.4722 13.7135C14.8682 13.4489 15.3075 13.3441 15.781 13.296C16.2333 13.25 16.7921 13.25 17.4616 13.25H17.4617ZM15.9328 14.7883C15.578 14.8244 15.414 14.8882 15.3055 14.9607C15.1691 15.0519 15.0519 15.1691 14.9607 15.3055C14.8882 15.414 14.8244 15.578 14.7883 15.9328C14.7509 16.3002 14.75 16.7822 14.75 17.5C14.75 18.2178 14.7509 18.6998 14.7883 19.0672C14.8244 19.422 14.8882 19.586 14.9607 19.6945C15.0519 19.831 15.1691 19.9481 15.3055 20.0393C15.414 20.1118 15.578 20.1756 15.9328 20.2117C16.3002 20.2491 16.7822 20.25 17.5 20.25C18.2178 20.25 18.6998 20.2491 19.0672 20.2117C19.422 20.1756 19.586 20.1118 19.6945 20.0393C19.831 19.9481 19.9481 19.831 20.0393 19.6945C20.1118 19.586 20.1756 19.422 20.2117 19.0672C20.2491 18.6998 20.25 18.2178 20.25 17.5C20.25 16.7822 20.2491 16.3002 20.2117 15.9328C20.1756 15.578 20.1118 15.414 20.0393 15.3055C19.9481 15.1691 19.831 15.0519 19.6945 14.9607C19.586 14.8882 19.422 14.8244 19.0672 14.7883C18.6998 14.7509 18.2178 14.75 17.5 14.75C16.7822 14.75 16.3002 14.7509 15.9328 14.7883ZM18.25 3C18.25 2.58579 17.9142 2.25 17.5 2.25C17.0858 2.25 16.75 2.58579 16.75 3V5.75H14C13.5858 5.75 13.25 6.08579 13.25 6.5C13.25 6.91421 13.5858 7.25 14 7.25H16.75V10C16.75 10.4142 17.0858 10.75 17.5 10.75C17.9142 10.75 18.25 10.4142 18.25 10V7.25H21C21.4142 7.25 21.75 6.91421 21.75 6.5C21.75 6.08579 21.4142 5.75 21 5.75H18.25V3Z" fill="#22282F"/>
</svg>
