<svg width="24" height="24" viewBox="0 0 24 24" fill="none" xmlns="http://www.w3.org/2000/svg">
<path fill-rule="evenodd" clip-rule="evenodd" d="M17.5 2.25H17.4617C16.7921 2.24998 16.2334 2.24997 15.781 2.29598C15.3075 2.34415 14.8682 2.44886 14.4722 2.71346C14.1719 2.91409 13.9141 3.17191 13.7135 3.47218C13.4489 3.86818 13.3441 4.30755 13.296 4.78102C13.25 5.23335 13.25 5.79207 13.25 6.46165L13.25 6.5L13.25 6.53835C13.25 7.20792 13.25 7.76665 13.296 8.21898C13.3441 8.69245 13.4489 9.13182 13.7135 9.52782C13.9141 9.82809 14.1719 10.0859 14.4722 10.2865C14.8682 10.5511 15.3075 10.6559 15.781 10.704C16.2334 10.75 16.7921 10.75 17.4617 10.75L17.5 10.75L17.5383 10.75C18.2079 10.75 18.7666 10.75 19.219 10.704C19.6925 10.6559 20.1318 10.5511 20.5278 10.2865C20.8281 10.0859 21.0859 9.82809 21.2865 9.52782C21.5511 9.13182 21.6559 8.69245 21.704 8.21898C21.75 7.76665 21.75 7.20792 21.75 6.53834V6.5V6.46166C21.75 5.79208 21.75 5.23335 21.704 4.78102C21.6559 4.30755 21.5511 3.86818 21.2865 3.47218C21.0859 3.17191 20.8281 2.91409 20.5278 2.71346C20.1318 2.44886 19.6925 2.34415 19.219 2.29598C18.7666 2.24997 18.2079 2.24998 17.5383 2.25H17.5ZM15.3055 3.96066C15.414 3.8882 15.578 3.82438 15.9328 3.78828C16.3002 3.75091 16.7822 3.75 17.5 3.75C18.2178 3.75 18.6998 3.75091 19.0672 3.78828C19.422 3.82438 19.586 3.8882 19.6945 3.96066C19.8309 4.05186 19.9481 4.16905 20.0393 4.30554C20.1118 4.41399 20.1756 4.57796 20.2117 4.93283C20.2491 5.30023 20.25 5.78216 20.25 6.5C20.25 7.21784 20.2491 7.69977 20.2117 8.06717C20.1756 8.42204 20.1118 8.58601 20.0393 8.69446C19.9481 8.83095 19.8309 8.94814 19.6945 9.03934C19.586 9.1118 19.422 9.17562 19.0672 9.21172C18.6998 9.24909 18.2178 9.25 17.5 9.25C16.7822 9.25 16.3002 9.24909 15.9328 9.21172C15.578 9.17562 15.414 9.1118 15.3055 9.03934C15.169 8.94814 15.0519 8.83095 14.9607 8.69446C14.8882 8.58601 14.8244 8.42204 14.7883 8.06717C14.7509 7.69977 14.75 7.21784 14.75 6.5C14.75 5.78216 14.7509 5.30023 14.7883 4.93283C14.8244 4.57796 14.8882 4.41399 14.9607 4.30554C15.0519 4.16905 15.169 4.05186 15.3055 3.96066ZM6.5 2.25H6.46166H6.46165C5.79207 2.24998 5.23335 2.24997 4.78102 2.29598C4.30755 2.34415 3.86818 2.44886 3.47218 2.71346C3.17191 2.9141 2.9141 3.17191 2.71346 3.47218C2.44886 3.86818 2.34415 4.30755 2.29598 4.78102C2.24997 5.23335 2.24998 5.79207 2.25 6.46165V6.46166V6.5V6.53835V6.53835C2.24998 7.20793 2.24997 7.76665 2.29598 8.21898C2.34415 8.69245 2.44886 9.13182 2.71346 9.52782C2.9141 9.82809 3.17191 10.0859 3.47218 10.2865C3.86818 10.5511 4.30755 10.6559 4.78102 10.704C5.23335 10.75 5.79208 10.75 6.46166 10.75L6.5 10.75L6.53834 10.75C7.20792 10.75 7.76665 10.75 8.21898 10.704C8.69245 10.6559 9.13182 10.5511 9.52782 10.2865C9.82809 10.0859 10.0859 9.82809 10.2865 9.52782C10.5511 9.13182 10.6559 8.69245 10.704 8.21898C10.75 7.76665 10.75 7.20792 10.75 6.53834L10.75 6.5L10.75 6.46166C10.75 5.79208 10.75 5.23335 10.704 4.78102C10.6559 4.30755 10.5511 3.86818 10.2865 3.47218C10.0859 3.17191 9.82809 2.9141 9.52782 2.71346C9.13182 2.44886 8.69245 2.34415 8.21898 2.29598C7.76665 2.24997 7.20793 2.24998 6.53835 2.25H6.53835H6.5ZM4.30554 3.96066C4.41399 3.8882 4.57796 3.82438 4.93283 3.78828C5.30023 3.75091 5.78216 3.75 6.5 3.75C7.21784 3.75 7.69977 3.75091 8.06717 3.78828C8.42204 3.82438 8.58601 3.8882 8.69446 3.96066C8.83095 4.05186 8.94814 4.16905 9.03934 4.30554C9.1118 4.41399 9.17562 4.57796 9.21172 4.93283C9.24909 5.30023 9.25 5.78216 9.25 6.5C9.25 7.21784 9.24909 7.69977 9.21172 8.06717C9.17562 8.42204 9.1118 8.58601 9.03934 8.69446C8.94814 8.83095 8.83095 8.94814 8.69446 9.03934C8.58601 9.1118 8.42204 9.17562 8.06717 9.21172C7.69977 9.24909 7.21784 9.25 6.5 9.25C5.78216 9.25 5.30023 9.24909 4.93283 9.21172C4.57796 9.17562 4.41399 9.1118 4.30554 9.03934C4.16905 8.94814 4.05186 8.83095 3.96066 8.69446C3.8882 8.58601 3.82438 8.42204 3.78828 8.06717C3.75091 7.69977 3.75 7.21784 3.75 6.5C3.75 5.78216 3.75091 5.30023 3.78828 4.93283C3.82438 4.57796 3.8882 4.41399 3.96066 4.30554C4.05186 4.16905 4.16905 4.05186 4.30554 3.96066ZM6.46165 13.25L6.5 13.25L6.53835 13.25C7.20792 13.25 7.76665 13.25 8.21898 13.296C8.69245 13.3441 9.13182 13.4489 9.52782 13.7135C9.82809 13.9141 10.0859 14.1719 10.2865 14.4722C10.5511 14.8682 10.6559 15.3075 10.704 15.781C10.75 16.2334 10.75 16.7921 10.75 17.4617L10.75 17.5L10.75 17.5383C10.75 18.2079 10.75 18.7666 10.704 19.219C10.6559 19.6925 10.5511 20.1318 10.2865 20.5278C10.0859 20.8281 9.82809 21.0859 9.52782 21.2865C9.13182 21.5511 8.69245 21.6559 8.21898 21.704C7.76665 21.75 7.20792 21.75 6.53834 21.75H6.5H6.46166C5.79208 21.75 5.23335 21.75 4.78102 21.704C4.30755 21.6559 3.86818 21.5511 3.47218 21.2865C3.17191 21.0859 2.91409 20.8281 2.71346 20.5278C2.44886 20.1318 2.34415 19.6925 2.29598 19.219C2.24997 18.7666 2.24998 18.2079 2.25 17.5383V17.5V17.4617C2.24998 16.7921 2.24997 16.2334 2.29598 15.781C2.34415 15.3075 2.44886 14.8682 2.71346 14.4722C2.91409 14.1719 3.17191 13.9141 3.47218 13.7135C3.86818 13.4489 4.30755 13.3441 4.78102 13.296C5.23335 13.25 5.79208 13.25 6.46165 13.25ZM4.93283 14.7883C4.57796 14.8244 4.41399 14.8882 4.30554 14.9607C4.16905 15.0519 4.05186 15.169 3.96066 15.3055C3.8882 15.414 3.82438 15.578 3.78828 15.9328C3.75091 16.3002 3.75 16.7822 3.75 17.5C3.75 18.2178 3.75091 18.6998 3.78828 19.0672C3.82438 19.422 3.8882 19.586 3.96066 19.6945C4.05186 19.8309 4.16905 19.9481 4.30554 20.0393C4.41399 20.1118 4.57796 20.1756 4.93283 20.2117C5.30023 20.2491 5.78216 20.25 6.5 20.25C7.21784 20.25 7.69977 20.2491 8.06717 20.2117C8.42204 20.1756 8.58601 20.1118 8.69446 20.0393C8.83095 19.9481 8.94814 19.8309 9.03934 19.6945C9.1118 19.586 9.17562 19.422 9.21172 19.0672C9.24909 18.6998 9.25 18.2178 9.25 17.5C9.25 16.7822 9.24909 16.3002 9.21172 15.9328C9.17562 15.578 9.1118 15.414 9.03934 15.3055C8.94814 15.169 8.83095 15.0519 8.69446 14.9607C8.58601 14.8882 8.42204 14.8244 8.06717 14.7883C7.69977 14.7509 7.21784 14.75 6.5 14.75C5.78216 14.75 5.30023 14.7509 4.93283 14.7883ZM17.5 13.25L17.4617 13.25H17.4616C16.7921 13.25 16.2333 13.25 15.781 13.296C15.3075 13.3441 14.8682 13.4489 14.4722 13.7135C14.1719 13.9141 13.9141 14.1719 13.7135 14.4722C13.4489 14.8682 13.3441 15.3075 13.296 15.781C13.25 16.2333 13.25 16.7921 13.25 17.4616V17.4617L13.25 17.5L13.25 17.5383V17.5384C13.25 18.2079 13.25 18.7667 13.296 19.219C13.3441 19.6925 13.4489 20.1318 13.7135 20.5278C13.9141 20.8281 14.1719 21.0859 14.4722 21.2865C14.8682 21.5511 15.3075 21.6559 15.781 21.704C16.2334 21.75 16.7921 21.75 17.4617 21.75L17.5 21.75L17.5383 21.75C18.2079 21.75 18.7666 21.75 19.219 21.704C19.6925 21.6559 20.1318 21.5511 20.5278 21.2865C20.8281 21.0859 21.0859 20.8281 21.2865 20.5278C21.5511 20.1318 21.6559 19.6925 21.704 19.219C21.75 18.7666 21.75 18.2079 21.75 17.5383L21.75 17.5L21.75 17.4617C21.75 16.7921 21.75 16.2334 21.704 15.781C21.6559 15.3075 21.5511 14.8682 21.2865 14.4722C21.0859 14.1719 20.8281 13.9141 20.5278 13.7135C20.1318 13.4489 19.6925 13.3441 19.219 13.296C18.7667 13.25 18.2079 13.25 17.5384 13.25H17.5383L17.5 13.25ZM15.3055 14.9607C15.414 14.8882 15.578 14.8244 15.9328 14.7883C16.3002 14.7509 16.7822 14.75 17.5 14.75C18.2178 14.75 18.6998 14.7509 19.0672 14.7883C19.422 14.8244 19.586 14.8882 19.6945 14.9607C19.831 15.0519 19.9481 15.1691 20.0393 15.3055C20.1118 15.414 20.1756 15.578 20.2117 15.9328C20.2491 16.3002 20.25 16.7822 20.25 17.5C20.25 18.2178 20.2491 18.6998 20.2117 19.0672C20.1756 19.422 20.1118 19.586 20.0393 19.6945C19.9481 19.831 19.831 19.9481 19.6945 20.0393C19.586 20.1118 19.422 20.1756 19.0672 20.2117C18.6998 20.2491 18.2178 20.25 17.5 20.25C16.7822 20.25 16.3002 20.2491 15.9328 20.2117C15.578 20.1756 15.414 20.1118 15.3055 20.0393C15.1691 19.9481 15.0519 19.831 14.9607 19.6945C14.8882 19.586 14.8244 19.422 14.7883 19.0672C14.7509 18.6998 14.75 18.2178 14.75 17.5C14.75 16.7822 14.7509 16.3002 14.7883 15.9328C14.8244 15.578 14.8882 15.414 14.9607 15.3055C15.0519 15.1691 15.1691 15.0519 15.3055 14.9607Z" fill="#22282F"/>
</svg>
