<svg width="24" height="24" viewBox="0 0 24 24" fill="none" xmlns="http://www.w3.org/2000/svg">
<path fill-rule="evenodd" clip-rule="evenodd" d="M3.75 6.5C3.75 4.98122 4.98122 3.75 6.5 3.75C8.01878 3.75 9.25 4.98122 9.25 6.5C9.25 8.01878 8.01878 9.25 6.5 9.25C4.98122 9.25 3.75 8.01878 3.75 6.5ZM6.5 2.25C4.15279 2.25 2.25 4.15279 2.25 6.5C2.25 8.84721 4.15279 10.75 6.5 10.75C8.84721 10.75 10.75 8.84721 10.75 6.5C10.75 4.15279 8.84721 2.25 6.5 2.25ZM14.75 6.5C14.75 4.98122 15.9812 3.75 17.5 3.75C19.0188 3.75 20.25 4.98122 20.25 6.5C20.25 8.01878 19.0188 9.25 17.5 9.25C15.9812 9.25 14.75 8.01878 14.75 6.5ZM17.5 2.25C15.1528 2.25 13.25 4.15279 13.25 6.5C13.25 8.84721 15.1528 10.75 17.5 10.75C19.8472 10.75 21.75 8.84721 21.75 6.5C21.75 4.15279 19.8472 2.25 17.5 2.25ZM17.5 14.75C15.9812 14.75 14.75 15.9812 14.75 17.5C14.75 19.0188 15.9812 20.25 17.5 20.25C19.0188 20.25 20.25 19.0188 20.25 17.5C20.25 15.9812 19.0188 14.75 17.5 14.75ZM13.25 17.5C13.25 15.1528 15.1528 13.25 17.5 13.25C19.8472 13.25 21.75 15.1528 21.75 17.5C21.75 19.8472 19.8472 21.75 17.5 21.75C15.1528 21.75 13.25 19.8472 13.25 17.5ZM3.75 17.5C3.75 15.9812 4.98122 14.75 6.5 14.75C8.01878 14.75 9.25 15.9812 9.25 17.5C9.25 19.0188 8.01878 20.25 6.5 20.25C4.98122 20.25 3.75 19.0188 3.75 17.5ZM6.5 13.25C4.15279 13.25 2.25 15.1528 2.25 17.5C2.25 19.8472 4.15279 21.75 6.5 21.75C8.84721 21.75 10.75 19.8472 10.75 17.5C10.75 15.1528 8.84721 13.25 6.5 13.25Z" fill="#22282F"/>
</svg>
