<svg width="24" height="24" viewBox="0 0 24 24" fill="none" xmlns="http://www.w3.org/2000/svg">
<path fill-rule="evenodd" clip-rule="evenodd" d="M17.4617 2.25H17.5H17.5383C18.2079 2.24998 18.7666 2.24997 19.219 2.29598C19.6925 2.34415 20.1318 2.44886 20.5278 2.71346C20.8281 2.91409 21.0859 3.17191 21.2865 3.47218C21.5511 3.86818 21.6559 4.30755 21.704 4.78102C21.75 5.23335 21.75 5.79208 21.75 6.46166V6.5V6.53834C21.75 7.20792 21.75 7.76665 21.704 8.21898C21.6559 8.69245 21.5511 9.13182 21.2865 9.52782C21.0859 9.82809 20.8281 10.0859 20.5278 10.2865C20.1318 10.5511 19.6925 10.6559 19.219 10.704C18.7666 10.75 18.2079 10.75 17.5383 10.75L17.5 10.75L17.4617 10.75C16.7921 10.75 16.2334 10.75 15.781 10.704C15.3075 10.6559 14.8682 10.5511 14.4722 10.2865C14.1719 10.0859 13.9141 9.82809 13.7135 9.52782C13.4489 9.13182 13.3441 8.69245 13.296 8.21898C13.25 7.76665 13.25 7.20792 13.25 6.53835L13.25 6.5L13.25 6.46165C13.25 5.79207 13.25 5.23335 13.296 4.78102C13.3441 4.30755 13.4489 3.86818 13.7135 3.47218C13.9141 3.17191 14.1719 2.91409 14.4722 2.71346C14.8682 2.44886 15.3075 2.34415 15.781 2.29598C16.2334 2.24997 16.7921 2.24998 17.4617 2.25ZM15.9328 3.78828C15.578 3.82438 15.414 3.8882 15.3055 3.96066C15.169 4.05186 15.0519 4.16905 14.9607 4.30554C14.8882 4.41399 14.8244 4.57796 14.7883 4.93283C14.7509 5.30023 14.75 5.78216 14.75 6.5C14.75 7.21784 14.7509 7.69977 14.7883 8.06717C14.8244 8.42204 14.8882 8.58601 14.9607 8.69446C15.0519 8.83095 15.169 8.94814 15.3055 9.03934C15.414 9.1118 15.578 9.17562 15.9328 9.21172C16.3002 9.24909 16.7822 9.25 17.5 9.25C18.2178 9.25 18.6998 9.24909 19.0672 9.21172C19.422 9.17562 19.586 9.1118 19.6945 9.03934C19.8309 8.94814 19.9481 8.83095 20.0393 8.69446C20.1118 8.58601 20.1756 8.42204 20.2117 8.06717C20.2491 7.69977 20.25 7.21784 20.25 6.5C20.25 5.78216 20.2491 5.30023 20.2117 4.93283C20.1756 4.57796 20.1118 4.41399 20.0393 4.30554C19.9481 4.16905 19.8309 4.05186 19.6945 3.96066C19.586 3.8882 19.422 3.82438 19.0672 3.78828C18.6998 3.75091 18.2178 3.75 17.5 3.75C16.7822 3.75 16.3002 3.75091 15.9328 3.78828ZM6.46165 2.25H6.5H6.53835C7.20793 2.24998 7.76665 2.24997 8.21898 2.29598C8.69245 2.34415 9.13182 2.44886 9.52782 2.71346C9.82809 2.91409 10.0859 3.17191 10.2865 3.47218C10.5511 3.86818 10.6559 4.30755 10.704 4.78102C10.75 5.23335 10.75 5.79208 10.75 6.46166L10.75 6.5V17.5L10.75 17.5383C10.75 18.2079 10.75 18.7666 10.704 19.219C10.6559 19.6925 10.5511 20.1318 10.2865 20.5278C10.0859 20.8281 9.82809 21.0859 9.52782 21.2865C9.13182 21.5511 8.69245 21.6559 8.21898 21.704C7.76664 21.75 7.20791 21.75 6.53832 21.75H6.5H6.46168C5.79209 21.75 5.23336 21.75 4.78102 21.704C4.30755 21.6559 3.86818 21.5511 3.47218 21.2865C3.17191 21.0859 2.9141 20.8281 2.71346 20.5278C2.44886 20.1318 2.34415 19.6925 2.29598 19.219C2.24997 18.7666 2.24998 18.2079 2.25 17.5383V17.5V6.5V6.46165C2.24998 5.79208 2.24997 5.23335 2.29598 4.78102C2.34415 4.30755 2.44886 3.86818 2.71346 3.47218C2.9141 3.17191 3.17191 2.91409 3.47218 2.71346C3.86818 2.44886 4.30755 2.34415 4.78102 2.29598C5.23335 2.24997 5.79208 2.24998 6.46165 2.25ZM4.93283 3.78828C4.57796 3.82438 4.41399 3.8882 4.30554 3.96066C4.16905 4.05186 4.05186 4.16905 3.96066 4.30554C3.8882 4.41399 3.82438 4.57796 3.78828 4.93283C3.75091 5.30023 3.75 5.78216 3.75 6.5V17.5C3.75 18.2178 3.75091 18.6998 3.78828 19.0672C3.82438 19.422 3.8882 19.586 3.96066 19.6945C4.05186 19.8309 4.16905 19.9481 4.30554 20.0393C4.41399 20.1118 4.57796 20.1756 4.93283 20.2117C5.30023 20.2491 5.78216 20.25 6.5 20.25C7.21784 20.25 7.69977 20.2491 8.06717 20.2117C8.42204 20.1756 8.58601 20.1118 8.69446 20.0393C8.83095 19.9481 8.94814 19.8309 9.03934 19.6945C9.1118 19.586 9.17562 19.422 9.21172 19.0672C9.24909 18.6998 9.25 18.2178 9.25 17.5V6.5C9.25 5.78216 9.24909 5.30023 9.21172 4.93283C9.17562 4.57796 9.1118 4.41399 9.03934 4.30554C8.94814 4.16905 8.83095 4.05186 8.69446 3.96066C8.58601 3.8882 8.42204 3.82438 8.06717 3.78828C7.69977 3.75091 7.21784 3.75 6.5 3.75C5.78216 3.75 5.30023 3.75091 4.93283 3.78828ZM17.5 13.25L17.4617 13.25C16.7921 13.25 16.2334 13.25 15.781 13.296C15.3075 13.3441 14.8682 13.4489 14.4722 13.7135C14.1719 13.9141 13.9141 14.1719 13.7135 14.4722C13.4489 14.8682 13.3441 15.3075 13.296 15.781C13.25 16.2334 13.25 16.7921 13.25 17.4617L13.25 17.5L13.25 17.5383C13.25 18.2079 13.25 18.7666 13.296 19.219C13.3441 19.6925 13.4489 20.1318 13.7135 20.5278C13.9141 20.8281 14.1719 21.0859 14.4722 21.2865C14.8682 21.5511 15.3075 21.6559 15.781 21.704C16.2334 21.75 16.7921 21.75 17.4617 21.75H17.5H17.5383C18.2079 21.75 18.7666 21.75 19.219 21.704C19.6925 21.6559 20.1318 21.5511 20.5278 21.2865C20.8281 21.0859 21.0859 20.8281 21.2865 20.5278C21.5511 20.1318 21.6559 19.6925 21.704 19.219C21.75 18.7666 21.75 18.2079 21.75 17.5383V17.5V17.4617C21.75 16.7921 21.75 16.2334 21.704 15.781C21.6559 15.3075 21.5511 14.8682 21.2865 14.4722C21.0859 14.1719 20.8281 13.9141 20.5278 13.7135C20.1318 13.4489 19.6925 13.3441 19.219 13.296C18.7666 13.25 18.2079 13.25 17.5383 13.25L17.5 13.25ZM15.3055 14.9607C15.414 14.8882 15.578 14.8244 15.9328 14.7883C16.3002 14.7509 16.7822 14.75 17.5 14.75C18.2178 14.75 18.6998 14.7509 19.0672 14.7883C19.422 14.8244 19.586 14.8882 19.6945 14.9607C19.8309 15.0519 19.9481 15.169 20.0393 15.3055C20.1118 15.414 20.1756 15.578 20.2117 15.9328C20.2491 16.3002 20.25 16.7822 20.25 17.5C20.25 18.2178 20.2491 18.6998 20.2117 19.0672C20.1756 19.422 20.1118 19.586 20.0393 19.6945C19.9481 19.8309 19.8309 19.9481 19.6945 20.0393C19.586 20.1118 19.422 20.1756 19.0672 20.2117C18.6998 20.2491 18.2178 20.25 17.5 20.25C16.7822 20.25 16.3002 20.2491 15.9328 20.2117C15.578 20.1756 15.414 20.1118 15.3055 20.0393C15.169 19.9481 15.0519 19.8309 14.9607 19.6945C14.8882 19.586 14.8244 19.422 14.7883 19.0672C14.7509 18.6998 14.75 18.2178 14.75 17.5C14.75 16.7822 14.7509 16.3002 14.7883 15.9328C14.8244 15.578 14.8882 15.414 14.9607 15.3055C15.0519 15.169 15.169 15.0519 15.3055 14.9607Z" fill="#22282F"/>
</svg>
