<svg width="24" height="24" viewBox="0 0 24 24" fill="none" xmlns="http://www.w3.org/2000/svg">
<path fill-rule="evenodd" clip-rule="evenodd" d="M6.5 2.25H6.46165H6.46165C5.79207 2.24998 5.23335 2.24997 4.78102 2.29598C4.30755 2.34415 3.86818 2.44886 3.47218 2.71346C3.17191 2.9141 2.91409 3.17191 2.71346 3.47218C2.44886 3.86818 2.34415 4.30755 2.29598 4.78102C2.24997 5.23335 2.24998 5.79208 2.25 6.46166V6.5V6.53835C2.24998 7.20793 2.24997 7.76665 2.29598 8.21898C2.34415 8.69245 2.44886 9.13182 2.71346 9.52782C2.91409 9.82809 3.17191 10.0859 3.47218 10.2865C3.86818 10.5511 4.30755 10.6559 4.78102 10.704C5.23335 10.75 5.79208 10.75 6.46166 10.75L6.5 10.75H17.5L17.5383 10.75C18.2079 10.75 18.7666 10.75 19.219 10.704C19.6925 10.6559 20.1318 10.5511 20.5278 10.2865C20.8281 10.0859 21.0859 9.82809 21.2865 9.52782C21.5511 9.13182 21.6559 8.69245 21.704 8.21898C21.75 7.76664 21.75 7.20791 21.75 6.53832V6.5V6.46168C21.75 5.79209 21.75 5.23336 21.704 4.78102C21.6559 4.30755 21.5511 3.86818 21.2865 3.47218C21.0859 3.17191 20.8281 2.9141 20.5278 2.71346C20.1318 2.44886 19.6925 2.34415 19.219 2.29598C18.7666 2.24997 18.2079 2.24998 17.5383 2.25H17.5H6.5ZM4.30554 3.96066C4.41399 3.8882 4.57796 3.82438 4.93283 3.78828C5.30023 3.75091 5.78216 3.75 6.5 3.75H17.5C18.2178 3.75 18.6998 3.75091 19.0672 3.78828C19.422 3.82438 19.586 3.8882 19.6945 3.96066C19.8309 4.05186 19.9481 4.16905 20.0393 4.30554C20.1118 4.41399 20.1756 4.57796 20.2117 4.93283C20.2491 5.30023 20.25 5.78216 20.25 6.5C20.25 7.21784 20.2491 7.69977 20.2117 8.06717C20.1756 8.42204 20.1118 8.58601 20.0393 8.69446C19.9481 8.83095 19.8309 8.94814 19.6945 9.03934C19.586 9.1118 19.422 9.17562 19.0672 9.21172C18.6998 9.24909 18.2178 9.25 17.5 9.25H6.5C5.78216 9.25 5.30023 9.24909 4.93283 9.21172C4.57796 9.17562 4.41399 9.1118 4.30554 9.03934C4.16905 8.94814 4.05186 8.83095 3.96066 8.69446C3.8882 8.58601 3.82438 8.42204 3.78828 8.06717C3.75091 7.69977 3.75 7.21784 3.75 6.5C3.75 5.78216 3.75091 5.30023 3.78828 4.93283C3.82438 4.57796 3.8882 4.41399 3.96066 4.30554C4.05186 4.16905 4.16905 4.05186 4.30554 3.96066ZM6.5 13.25L6.46165 13.25H6.46162C5.79206 13.25 5.23334 13.25 4.78102 13.296C4.30755 13.3441 3.86818 13.4489 3.47218 13.7135C3.17191 13.9141 2.91409 14.1719 2.71346 14.4722C2.44886 14.8682 2.34415 15.3075 2.29598 15.781C2.24997 16.2334 2.24998 16.7921 2.25 17.4617V17.5V17.5383C2.24998 18.2079 2.24997 18.7667 2.29598 19.219C2.34415 19.6925 2.44886 20.1318 2.71346 20.5278C2.91409 20.8281 3.17191 21.0859 3.47218 21.2865C3.86818 21.5511 4.30755 21.6559 4.78102 21.704C5.23335 21.75 5.79208 21.75 6.46166 21.75L6.5 21.75H11.5L11.5383 21.75C12.2079 21.75 12.7666 21.75 13.219 21.704C13.6925 21.6559 14.1318 21.5511 14.5278 21.2865C14.8281 21.0859 15.0859 20.8281 15.2865 20.5278C15.5511 20.1318 15.6559 19.6925 15.704 19.219C15.75 18.7667 15.75 18.2079 15.75 17.5384V17.5V17.4616C15.75 16.7921 15.75 16.2333 15.704 15.781C15.6559 15.3075 15.5511 14.8682 15.2865 14.4722C15.0859 14.1719 14.8281 13.9141 14.5278 13.7135C14.1318 13.4489 13.6925 13.3441 13.219 13.296C12.7667 13.25 12.2079 13.25 11.5384 13.25H11.5383L11.5 13.25H6.5ZM4.30554 14.9607C4.41399 14.8882 4.57796 14.8244 4.93283 14.7883C5.30023 14.7509 5.78216 14.75 6.5 14.75H11.5C12.2178 14.75 12.6998 14.7509 13.0672 14.7883C13.422 14.8244 13.586 14.8882 13.6945 14.9607C13.831 15.0519 13.9481 15.1691 14.0393 15.3055C14.1118 15.414 14.1756 15.578 14.2117 15.9328C14.2491 16.3002 14.25 16.7822 14.25 17.5C14.25 18.2178 14.2491 18.6998 14.2117 19.0672C14.1756 19.422 14.1118 19.586 14.0393 19.6945C13.9481 19.831 13.831 19.9481 13.6945 20.0393C13.586 20.1118 13.422 20.1756 13.0672 20.2117C12.6998 20.2491 12.2178 20.25 11.5 20.25H6.5C5.78216 20.25 5.30023 20.2491 4.93283 20.2117C4.57796 20.1756 4.41399 20.1118 4.30554 20.0393C4.16905 19.9481 4.05186 19.831 3.96066 19.6945C3.8882 19.586 3.82438 19.422 3.78828 19.0672C3.75091 18.6998 3.75 18.2178 3.75 17.5C3.75 16.7822 3.75091 16.3002 3.78828 15.9328C3.82438 15.578 3.8882 15.414 3.96066 15.3055C4.05186 15.1691 4.16905 15.0519 4.30554 14.9607Z" fill="#22282F"/>
</svg>
