<svg width="24" height="24" viewBox="0 0 24 24" fill="none" xmlns="http://www.w3.org/2000/svg">
<path fill-rule="evenodd" clip-rule="evenodd" d="M5.75 2C5.75 1.58579 5.41421 1.25 5 1.25C4.58579 1.25 4.25 1.58579 4.25 2V4.25H2C1.58579 4.25 1.25 4.58579 1.25 5C1.25 5.41421 1.58579 5.75 2 5.75H4.25L4.25 18.25H2C1.58579 18.25 1.25 18.5858 1.25 19C1.25 19.4142 1.58579 19.75 2 19.75H4.25V22C4.25 22.4142 4.58579 22.75 5 22.75C5.41421 22.75 5.75 22.4142 5.75 22V19.75H18.25V22C18.25 22.4142 18.5858 22.75 19 22.75C19.4142 22.75 19.75 22.4142 19.75 22V19.75H22C22.4142 19.75 22.75 19.4142 22.75 19C22.75 18.5858 22.4142 18.25 22 18.25H19.75V5.75H22C22.4142 5.75 22.75 5.41421 22.75 5C22.75 4.58579 22.4142 4.25 22 4.25H19.75V2C19.75 1.58579 19.4142 1.25 19 1.25C18.5858 1.25 18.25 1.58579 18.25 2V4.25H5.75V2ZM18.25 18.25V5.75H5.75L5.75 18.25H18.25Z" fill="#22282F"/>
</svg>
