<svg width="24" height="24" viewBox="0 0 24 24" fill="none" xmlns="http://www.w3.org/2000/svg">
<path fill-rule="evenodd" clip-rule="evenodd" d="M11 2.25H10.9436C9.10582 2.24998 7.65019 2.24997 6.51098 2.40313C5.33856 2.56076 4.38961 2.89288 3.64124 3.64124C2.89288 4.38961 2.56076 5.33856 2.40314 6.51098C2.24997 7.65019 2.24998 9.10582 2.25 10.9436V10.9436V11V13V13.0564V13.0564C2.24998 14.8942 2.24997 16.3498 2.40314 17.489C2.56076 18.6614 2.89288 19.6104 3.64124 20.3588C4.38961 21.1071 5.33856 21.4392 6.51098 21.5969C7.65018 21.75 9.1058 21.75 10.9435 21.75H10.9436H11H13H13.0564H13.0565C14.8942 21.75 16.3498 21.75 17.489 21.5969C18.6614 21.4392 19.6104 21.1071 20.3588 20.3588C21.1071 19.6104 21.4392 18.6614 21.5969 17.489C21.75 16.3498 21.75 14.8942 21.75 13.0565V13.0564V13V11V10.9436V10.9435C21.75 9.1058 21.75 7.65018 21.5969 6.51098C21.4392 5.33856 21.1071 4.38961 20.3588 3.64124C19.6104 2.89288 18.6614 2.56076 17.489 2.40313C16.3498 2.24997 14.8942 2.24998 13.0564 2.25H13H11ZM4.7019 4.7019C5.12511 4.27869 5.70476 4.02502 6.71085 3.88976C7.73851 3.75159 9.09318 3.75 11 3.75H13C14.9068 3.75 16.2615 3.75159 17.2892 3.88976C18.2952 4.02502 18.8749 4.27869 19.2981 4.7019C19.7213 5.12511 19.975 5.70476 20.1102 6.71085C20.2484 7.73851 20.25 9.09318 20.25 11V13C20.25 14.9068 20.2484 16.2615 20.1102 17.2892C19.975 18.2952 19.7213 18.8749 19.2981 19.2981C18.8749 19.7213 18.2952 19.975 17.2892 20.1102C16.2615 20.2484 14.9068 20.25 13 20.25H11C9.09318 20.25 7.73851 20.2484 6.71085 20.1102C5.70476 19.975 5.12511 19.7213 4.7019 19.2981C4.27869 18.8749 4.02502 18.2952 3.88976 17.2892C3.75159 16.2615 3.75 14.9068 3.75 13V11C3.75 9.09318 3.75159 7.73851 3.88976 6.71085C4.02502 5.70476 4.27869 5.12511 4.7019 4.7019ZM10 5.25L9.948 5.25C9.04952 5.24997 8.3003 5.24994 7.70552 5.32991C7.07773 5.41432 6.51093 5.59999 6.05546 6.05546C5.59999 6.51093 5.41432 7.07773 5.32991 7.70552C5.24994 8.3003 5.24997 9.04952 5.25 9.948L5.25 10V14L5.25 14.052C5.24997 14.9505 5.24994 15.6997 5.32991 16.2945C5.41432 16.9223 5.59999 17.4891 6.05546 17.9445C6.51093 18.4 7.07773 18.5857 7.70552 18.6701C8.3003 18.7501 9.04951 18.75 9.94797 18.75H9.948L10 18.75H14L14.052 18.75H14.052C14.9505 18.75 15.6997 18.7501 16.2945 18.6701C16.9223 18.5857 17.4891 18.4 17.9445 17.9445C18.4 17.4891 18.5857 16.9223 18.6701 16.2945C18.7501 15.6997 18.75 14.9505 18.75 14.052V14.052L18.75 14V10L18.75 9.94801V9.94797C18.75 9.04951 18.7501 8.3003 18.6701 7.70552C18.5857 7.07773 18.4 6.51093 17.9445 6.05546C17.4891 5.59999 16.9223 5.41432 16.2945 5.32991C15.6997 5.24994 14.9505 5.24997 14.052 5.25L14 5.25H10ZM7.11612 7.11612C7.24643 6.9858 7.44393 6.87858 7.90539 6.81653C8.38843 6.75159 9.03599 6.75 10 6.75H14C14.964 6.75 15.6116 6.75159 16.0946 6.81653C16.5561 6.87858 16.7536 6.9858 16.8839 7.11612C17.0142 7.24643 17.1214 7.44393 17.1835 7.90539C17.2484 8.38843 17.25 9.03599 17.25 10V14C17.25 14.964 17.2484 15.6116 17.1835 16.0946C17.1214 16.5561 17.0142 16.7536 16.8839 16.8839C16.7536 17.0142 16.5561 17.1214 16.0946 17.1835C15.6116 17.2484 14.964 17.25 14 17.25H10C9.03599 17.25 8.38843 17.2484 7.90539 17.1835C7.44393 17.1214 7.24643 17.0142 7.11612 16.8839C6.9858 16.7536 6.87858 16.5561 6.81653 16.0946C6.75159 15.6116 6.75 14.964 6.75 14V10C6.75 9.03599 6.75159 8.38843 6.81653 7.90539C6.87858 7.44393 6.9858 7.24643 7.11612 7.11612Z" fill="#22282F"/>
</svg>
