<svg width="24" height="24" viewBox="0 0 24 24" fill="none" xmlns="http://www.w3.org/2000/svg">
<path fill-rule="evenodd" clip-rule="evenodd" d="M6.948 2.25H7H9H15H17H17.052C17.9505 2.24997 18.6997 2.24995 19.2945 2.32991C19.9223 2.41432 20.4891 2.59999 20.9445 3.05546C21.4 3.51093 21.5857 4.07773 21.6701 4.70552C21.7501 5.3003 21.75 6.04952 21.75 6.94801V7V17V17.052C21.75 17.9505 21.7501 18.6997 21.6701 19.2945C21.5857 19.9223 21.4 20.4891 20.9445 20.9445C20.4891 21.4 19.9223 21.5857 19.2945 21.6701C18.6997 21.7501 17.9505 21.75 17.052 21.75H17H15H9H7H6.94801C6.04952 21.75 5.3003 21.7501 4.70552 21.6701C4.07773 21.5857 3.51093 21.4 3.05546 20.9445C2.59999 20.4891 2.41432 19.9223 2.32991 19.2945C2.24995 18.6997 2.24997 17.9505 2.25 17.052V17V7V6.948C2.24997 6.04952 2.24995 5.3003 2.32991 4.70552C2.41432 4.07773 2.59999 3.51093 3.05546 3.05546C3.51093 2.59999 4.07773 2.41432 4.70552 2.32991C5.3003 2.24995 6.04952 2.24997 6.948 2.25ZM15.75 20.25H17C17.964 20.25 18.6116 20.2484 19.0946 20.1835C19.5561 20.1214 19.7536 20.0142 19.8839 19.8839C20.0142 19.7536 20.1214 19.5561 20.1835 19.0946C20.2484 18.6116 20.25 17.964 20.25 17V7C20.25 6.03599 20.2484 5.38843 20.1835 4.90539C20.1214 4.44393 20.0142 4.24643 19.8839 4.11612C19.7536 3.9858 19.5561 3.87858 19.0946 3.81654C18.6116 3.75159 17.964 3.75 17 3.75H15.75L15.75 20.25ZM14.25 3.75L14.25 20.25H9.75L9.75 3.75H14.25ZM7 3.75H8.25L8.25 20.25H7C6.03599 20.25 5.38843 20.2484 4.90539 20.1835C4.44393 20.1214 4.24643 20.0142 4.11612 19.8839C3.9858 19.7536 3.87858 19.5561 3.81654 19.0946C3.75159 18.6116 3.75 17.964 3.75 17V7C3.75 6.03599 3.75159 5.38843 3.81654 4.90539C3.87858 4.44393 3.9858 4.24643 4.11612 4.11612C4.24643 3.9858 4.44393 3.87858 4.90539 3.81654C5.38843 3.75159 6.03599 3.75 7 3.75Z" fill="#22282F"/>
</svg>
