<svg width="24" height="24" viewBox="0 0 24 24" fill="none" xmlns="http://www.w3.org/2000/svg">
<path fill-rule="evenodd" clip-rule="evenodd" d="M7.00008 2.25H6.94808H6.94806C6.04959 2.24997 5.30038 2.24995 4.7056 2.32991C4.07781 2.41432 3.51101 2.59999 3.05554 3.05546C2.60007 3.51093 2.4144 4.07773 2.32999 4.70552C2.25002 5.3003 2.25005 6.04952 2.25008 6.948L2.25008 7V8.98898L2.25 9L2.25008 9.01102V17L2.25008 17.052C2.25005 17.9505 2.25002 18.6997 2.32999 19.2945C2.4144 19.9223 2.60007 20.4891 3.05554 20.9445C3.51101 21.4 4.07781 21.5857 4.7056 21.6701C5.30038 21.7501 6.0496 21.75 6.94808 21.75H7.00008L12.0001 21.75L17.0001 21.75H17.0521C17.9506 21.75 18.6998 21.7501 19.2946 21.6701C19.9224 21.5857 20.4892 21.4 20.9446 20.9445C21.4001 20.4891 21.5858 19.9223 21.6702 19.2945C21.7501 18.6997 21.7501 17.9505 21.7501 17.052V17V7V6.94801C21.7501 6.04953 21.7501 5.3003 21.6702 4.70552C21.5858 4.07773 21.4001 3.51093 20.9446 3.05546C20.4892 2.59999 19.9224 2.41432 19.2946 2.32991C18.6998 2.24995 17.9506 2.24997 17.0521 2.25H17.0521H17.0001H12.0001H7.00008ZM3.75008 17V9.75H11.2501V14.989C11.25 14.9926 11.25 14.9963 11.25 15C11.25 15.0037 11.25 15.0074 11.2501 15.011V20.25H7.00008C6.03607 20.25 5.38851 20.2484 4.90547 20.1835C4.44401 20.1214 4.24651 20.0142 4.1162 19.8839C3.98588 19.7536 3.87866 19.5561 3.81661 19.0946C3.75167 18.6116 3.75008 17.964 3.75008 17ZM12.7501 15.75V20.25H17.0001C17.9641 20.25 18.6117 20.2484 19.0947 20.1835C19.5562 20.1214 19.7536 20.0142 19.884 19.8839C20.0143 19.7536 20.1215 19.5561 20.1835 19.0946C20.2485 18.6116 20.2501 17.964 20.2501 17V15.75H12.7501ZM20.2501 14.25V7C20.2501 6.03599 20.2485 5.38843 20.1835 4.90539C20.1215 4.44393 20.0143 4.24643 19.884 4.11612C19.7536 3.9858 19.5562 3.87858 19.0947 3.81654C18.6117 3.75159 17.9641 3.75 17.0001 3.75H12.7501L12.7501 14.25H20.2501ZM3.75008 8.25H11.2501V3.75H7.00008C6.03607 3.75 5.38851 3.75159 4.90547 3.81654C4.44401 3.87858 4.24651 3.9858 4.1162 4.11612C3.98588 4.24643 3.87866 4.44393 3.81661 4.90539C3.75167 5.38843 3.75008 6.03599 3.75008 7V8.25Z" fill="#22282F"/>
</svg>
