<svg width="24" height="24" viewBox="0 0 24 24" fill="none" xmlns="http://www.w3.org/2000/svg">
<path fill-rule="evenodd" clip-rule="evenodd" d="M7 2.25H6.948C6.04952 2.24997 5.3003 2.24995 4.70552 2.32991C4.07773 2.41432 3.51093 2.59999 3.05546 3.05546C2.59999 3.51093 2.41432 4.07773 2.32991 4.70552C2.24995 5.3003 2.24997 6.04952 2.25 6.948V7V12V17V17.052C2.24997 17.9505 2.24995 18.6997 2.32991 19.2945C2.41432 19.9223 2.59999 20.4891 3.05546 20.9445C3.51093 21.4 4.07773 21.5857 4.70552 21.6701C5.3003 21.7501 6.04952 21.75 6.94801 21.75H7H9H15H17H17.052C17.9505 21.75 18.6997 21.7501 19.2945 21.6701C19.9223 21.5857 20.4891 21.4 20.9445 20.9445C21.4 20.4891 21.5857 19.9223 21.6701 19.2945C21.7501 18.6997 21.75 17.9505 21.75 17.052V17V12V7V6.94801C21.75 6.04952 21.7501 5.3003 21.6701 4.70552C21.5857 4.07773 21.4 3.51093 20.9445 3.05546C20.4891 2.59999 19.9223 2.41432 19.2945 2.32991C18.6997 2.24995 17.9505 2.24997 17.052 2.25H17H15H9H7ZM14.25 3.75H9.75V11.25H14.25V3.75ZM15.75 11.25V3.75H17C17.964 3.75 18.6116 3.75159 19.0946 3.81654C19.5561 3.87858 19.7536 3.9858 19.8839 4.11612C20.0142 4.24643 20.1214 4.44393 20.1835 4.90539C20.2484 5.38843 20.25 6.03599 20.25 7V11.25H15.75ZM14.25 12.75H9.75V20.25H14.25V12.75ZM15.75 20.25V12.75H20.25V17C20.25 17.964 20.2484 18.6116 20.1835 19.0946C20.1214 19.5561 20.0142 19.7536 19.8839 19.8839C19.7536 20.0142 19.5561 20.1214 19.0946 20.1835C18.6116 20.2484 17.964 20.25 17 20.25H15.75ZM3.75 17V12.75H8.25V20.25H7C6.03599 20.25 5.38843 20.2484 4.90539 20.1835C4.44393 20.1214 4.24643 20.0142 4.11612 19.8839C3.9858 19.7536 3.87858 19.5561 3.81654 19.0946C3.75159 18.6116 3.75 17.964 3.75 17ZM3.75 11.25H8.25V3.75H7C6.03599 3.75 5.38843 3.75159 4.90539 3.81654C4.44393 3.87858 4.24643 3.9858 4.11612 4.11612C3.9858 4.24643 3.87858 4.44393 3.81654 4.90539C3.75159 5.38843 3.75 6.03599 3.75 7V11.25Z" fill="#22282F"/>
</svg>
