<svg width="24" height="24" viewBox="0 0 24 24" fill="none" xmlns="http://www.w3.org/2000/svg">
<path fill-rule="evenodd" clip-rule="evenodd" d="M7.00001 2.25H6.94801H6.948C6.04953 2.24997 5.30031 2.24995 4.70553 2.32991C4.07774 2.41432 3.51094 2.59999 3.05547 3.05546C2.6 3.51093 2.41433 4.07773 2.32992 4.70552C2.24996 5.3003 2.24998 6.04952 2.25001 6.948L2.25001 7V16.8374C2.25001 16.874 2.25001 16.9109 2.25001 16.948L2.25001 17L2.25001 17.052C2.25001 17.1319 2.25001 17.2106 2.25006 17.2881C2.25046 17.8645 2.25397 18.3755 2.2837 18.8195C2.29494 18.9874 2.30993 19.1458 2.32992 19.2945C2.41433 19.9223 2.6 20.4891 3.05547 20.9445C3.51094 21.4 4.07774 21.5857 4.70553 21.6701C5.30031 21.7501 6.04952 21.75 6.94799 21.75C6.948 21.75 6.948 21.75 6.94802 21.75H7.00001H7.05201H7.05204C7.08141 21.75 7.11061 21.75 7.13966 21.75H17H17.052C17.9505 21.75 18.6997 21.7501 19.2945 21.6701C19.9223 21.5857 20.4891 21.4 20.9446 20.9445C21.4 20.4891 21.5857 19.9223 21.6701 19.2945C21.7501 18.6997 21.75 17.9505 21.75 17.052V17V7V6.94801C21.75 6.04953 21.7501 5.3003 21.6701 4.70552C21.5857 4.07773 21.4 3.51093 20.9446 3.05546C20.4891 2.59999 19.9223 2.41432 19.2945 2.32991C18.6997 2.24995 17.9505 2.24997 17.052 2.25H17.052H17H7.00001ZM11.4183 20.25H17C17.964 20.25 18.6116 20.2484 19.0946 20.1835C19.5561 20.1214 19.7536 20.0142 19.8839 19.8839C20.0142 19.7536 20.1214 19.5561 20.1835 19.0946C20.2484 18.6116 20.25 17.964 20.25 17V7C20.25 6.03599 20.2484 5.38843 20.1835 4.90539C20.1214 4.44393 20.0142 4.24643 19.8839 4.11612C19.7536 3.9858 19.5561 3.87858 19.0946 3.81654C18.6116 3.75159 17.964 3.75 17 3.75H7.00001C6.036 3.75 5.38844 3.75159 4.90541 3.81654C4.44394 3.87858 4.24645 3.9858 4.11613 4.11612C3.98581 4.24643 3.87859 4.44393 3.81655 4.90539C3.75161 5.38843 3.75001 6.03599 3.75001 7V12.5817C4.04546 12.4506 4.36661 12.3755 4.70553 12.3299C5.30031 12.2499 6.04953 12.25 6.94801 12.25L7.00001 12.25L7.05201 12.25C7.95049 12.25 8.69971 12.2499 9.29449 12.3299C9.92229 12.4143 10.4891 12.6 10.9446 13.0555C11.4 13.5109 11.5857 14.0777 11.6701 14.7055C11.7501 15.3003 11.75 16.0495 11.75 16.948V16.948L11.75 17L11.75 17.052V17.052C11.75 17.9505 11.7501 18.6997 11.6701 19.2945C11.6245 19.6334 11.5495 19.9546 11.4183 20.25ZM3.75001 16.9646C3.75001 16.9764 3.75001 16.9882 3.75001 17C3.75001 17.8435 3.75123 18.4447 3.79504 18.9055C3.8013 18.9713 3.80843 19.0342 3.81655 19.0946C3.86308 19.4407 3.93503 19.6383 4.02307 19.7705C4.05242 19.8145 4.08355 19.8513 4.11613 19.8839C4.2383 20.0061 4.41952 20.1079 4.82193 20.1713C4.84875 20.1755 4.87656 20.1796 4.90541 20.1835C5.35825 20.2444 5.9557 20.2496 6.82293 20.25C6.88075 20.25 6.93976 20.25 7.00001 20.25C7.96402 20.25 8.61158 20.2484 9.09462 20.1835C9.55608 20.1214 9.75358 20.0142 9.8839 19.8839C10.0142 19.7536 10.1214 19.5561 10.1835 19.0946C10.2484 18.6116 10.25 17.964 10.25 17C10.25 16.036 10.2484 15.3884 10.1835 14.9054C10.1214 14.4439 10.0142 14.2464 9.8839 14.1161C9.75358 13.9858 9.55608 13.8786 9.09462 13.8165C8.61158 13.7516 7.96402 13.75 7.00001 13.75C6.036 13.75 5.38844 13.7516 4.9054 13.8165C4.44394 13.8786 4.24645 13.9858 4.11613 14.1161C3.98581 14.2464 3.87859 14.4439 3.81655 14.9054C3.7524 15.3825 3.75006 16.0201 3.75001 16.9646Z" fill="#22282F"/>
</svg>
