<svg width="24" height="24" viewBox="0 0 24 24" fill="none" xmlns="http://www.w3.org/2000/svg">
<path fill-rule="evenodd" clip-rule="evenodd" d="M6.5 2.25H6.46165C5.79208 2.24998 5.23335 2.24997 4.78102 2.29598C4.30755 2.34415 3.86818 2.44886 3.47218 2.71346C3.17191 2.91409 2.9141 3.17191 2.71346 3.47218C2.44886 3.86818 2.34415 4.30755 2.29598 4.78102C2.24997 5.23335 2.24998 5.79208 2.25 6.46165V6.5V17.5V17.5383C2.24998 18.2079 2.24997 18.7666 2.29598 19.219C2.34415 19.6925 2.44886 20.1318 2.71346 20.5278C2.9141 20.8281 3.17191 21.0859 3.47218 21.2865C3.86818 21.5511 4.30755 21.6559 4.78102 21.704C5.23336 21.75 5.79209 21.75 6.46168 21.75H6.5H6.53832C7.20791 21.75 7.76664 21.75 8.21898 21.704C8.69245 21.6559 9.13182 21.5511 9.52782 21.2865C9.82809 21.0859 10.0859 20.8281 10.2865 20.5278C10.5511 20.1318 10.6559 19.6925 10.704 19.219C10.75 18.7666 10.75 18.2079 10.75 17.5383L10.75 17.5V6.5L10.75 6.46166C10.75 5.79208 10.75 5.23335 10.704 4.78102C10.6559 4.30755 10.5511 3.86818 10.2865 3.47218C10.0859 3.17191 9.82809 2.91409 9.52782 2.71346C9.13182 2.44886 8.69245 2.34415 8.21898 2.29598C7.76665 2.24997 7.20793 2.24998 6.53835 2.25H6.5ZM4.30554 3.96066C4.41399 3.8882 4.57796 3.82438 4.93283 3.78828C5.30023 3.75091 5.78216 3.75 6.5 3.75C7.21784 3.75 7.69977 3.75091 8.06717 3.78828C8.42204 3.82438 8.58601 3.8882 8.69446 3.96066C8.83095 4.05186 8.94814 4.16905 9.03934 4.30554C9.1118 4.41399 9.17562 4.57796 9.21172 4.93283C9.24909 5.30023 9.25 5.78216 9.25 6.5V17.5C9.25 18.2178 9.24909 18.6998 9.21172 19.0672C9.17562 19.422 9.1118 19.586 9.03934 19.6945C8.94814 19.8309 8.83095 19.9481 8.69446 20.0393C8.58601 20.1118 8.42204 20.1756 8.06717 20.2117C7.69977 20.2491 7.21784 20.25 6.5 20.25C5.78216 20.25 5.30023 20.2491 4.93283 20.2117C4.57796 20.1756 4.41399 20.1118 4.30554 20.0393C4.16905 19.9481 4.05186 19.8309 3.96066 19.6945C3.8882 19.586 3.82438 19.422 3.78828 19.0672C3.75091 18.6998 3.75 18.2178 3.75 17.5V6.5C3.75 5.78216 3.75091 5.30023 3.78828 4.93283C3.82438 4.57796 3.8882 4.41399 3.96066 4.30554C4.05186 4.16905 4.16905 4.05186 4.30554 3.96066ZM17.5 2.25H17.4617C16.7921 2.24998 16.2334 2.24997 15.781 2.29598C15.3075 2.34415 14.8682 2.44886 14.4722 2.71346C14.1719 2.91409 13.9141 3.17191 13.7135 3.47218C13.4489 3.86818 13.3441 4.30755 13.296 4.78102C13.25 5.23334 13.25 5.79206 13.25 6.46162V6.46165L13.25 6.5V11.5L13.25 11.5383V11.5384C13.25 12.2079 13.25 12.7667 13.296 13.219C13.3441 13.6925 13.4489 14.1318 13.7135 14.5278C13.9141 14.8281 14.1719 15.0859 14.4722 15.2865C14.8682 15.5511 15.3075 15.6559 15.781 15.704C16.2333 15.75 16.7921 15.75 17.4616 15.75H17.5H17.5384C18.2079 15.75 18.7667 15.75 19.219 15.704C19.6925 15.6559 20.1318 15.5511 20.5278 15.2865C20.8281 15.0859 21.0859 14.8281 21.2865 14.5278C21.5511 14.1318 21.6559 13.6925 21.704 13.219C21.75 12.7666 21.75 12.2079 21.75 11.5383L21.75 11.5V6.5L21.75 6.46166C21.75 5.79208 21.75 5.23335 21.704 4.78102C21.6559 4.30755 21.5511 3.86818 21.2865 3.47218C21.0859 3.17191 20.8281 2.91409 20.5278 2.71346C20.1318 2.44886 19.6925 2.34415 19.219 2.29598C18.7667 2.24997 18.2079 2.24998 17.5383 2.25H17.5ZM15.3055 3.96066C15.414 3.8882 15.578 3.82438 15.9328 3.78828C16.3002 3.75091 16.7822 3.75 17.5 3.75C18.2178 3.75 18.6998 3.75091 19.0672 3.78828C19.422 3.82438 19.586 3.8882 19.6945 3.96066C19.831 4.05186 19.9481 4.16905 20.0393 4.30554C20.1118 4.41399 20.1756 4.57796 20.2117 4.93283C20.2491 5.30023 20.25 5.78216 20.25 6.5V11.5C20.25 12.2178 20.2491 12.6998 20.2117 13.0672C20.1756 13.422 20.1118 13.586 20.0393 13.6945C19.9481 13.831 19.831 13.9481 19.6945 14.0393C19.586 14.1118 19.422 14.1756 19.0672 14.2117C18.6998 14.2491 18.2178 14.25 17.5 14.25C16.7822 14.25 16.3002 14.2491 15.9328 14.2117C15.578 14.1756 15.414 14.1118 15.3055 14.0393C15.1691 13.9481 15.0519 13.831 14.9607 13.6945C14.8882 13.586 14.8244 13.422 14.7883 13.0672C14.7509 12.6998 14.75 12.2178 14.75 11.5V6.5C14.75 5.78216 14.7509 5.30023 14.7883 4.93283C14.8244 4.57796 14.8882 4.41399 14.9607 4.30554C15.0519 4.16905 15.1691 4.05186 15.3055 3.96066Z" fill="#22282F"/>
</svg>
