<svg width="24" height="24" viewBox="0 0 24 24" fill="none" xmlns="http://www.w3.org/2000/svg">
<path fill-rule="evenodd" clip-rule="evenodd" d="M6.94801 2.25H7.00001H17H17.052H17.052C17.9505 2.24997 18.6997 2.24995 19.2945 2.32991C19.9223 2.41432 20.4891 2.59999 20.9446 3.05546C21.4 3.51093 21.5857 4.07773 21.6701 4.70552C21.7501 5.3003 21.75 6.04953 21.75 6.94801V7V17V17.052C21.75 17.9505 21.7501 18.6997 21.6701 19.2945C21.5857 19.9223 21.4 20.4891 20.9446 20.9445C20.4891 21.4 19.9223 21.5857 19.2945 21.6701C18.6997 21.7501 17.9505 21.75 17.052 21.75H17H7.00001H6.94802C6.04954 21.75 5.30032 21.7501 4.70553 21.6701C4.07774 21.5857 3.51094 21.4 3.05547 20.9445C2.6 20.4891 2.41433 19.9223 2.32992 19.2945C2.24996 18.6997 2.24998 17.9505 2.25001 17.052L2.25001 17V7L2.25001 6.948C2.24998 6.04952 2.24996 5.3003 2.32992 4.70552C2.41433 4.07773 2.6 3.51093 3.05547 3.05546C3.51094 2.59999 4.07774 2.41432 4.70553 2.32991C5.30031 2.24995 6.04953 2.24997 6.948 2.25H6.94801ZM4.90541 3.81654C4.44394 3.87858 4.24645 3.9858 4.11613 4.11612C3.98581 4.24643 3.87859 4.44393 3.81655 4.90539C3.75161 5.38843 3.75001 6.03599 3.75001 7V17C3.75001 17.964 3.75161 18.6116 3.81655 19.0946C3.87859 19.5561 3.98581 19.7536 4.11613 19.8839C4.24645 20.0142 4.44394 20.1214 4.90541 20.1835C5.38844 20.2484 6.036 20.25 7.00001 20.25H17C17.964 20.25 18.6116 20.2484 19.0946 20.1835C19.5561 20.1214 19.7536 20.0142 19.8839 19.8839C20.0142 19.7536 20.1214 19.5561 20.1835 19.0946C20.2484 18.6116 20.25 17.964 20.25 17V7C20.25 6.03599 20.2484 5.38843 20.1835 4.90539C20.1214 4.44393 20.0142 4.24643 19.8839 4.11612C19.7536 3.9858 19.5561 3.87858 19.0946 3.81654C18.6116 3.75159 17.964 3.75 17 3.75H7.00001C6.036 3.75 5.38844 3.75159 4.90541 3.81654ZM6 9.25C6.41421 9.25 6.75 9.58579 6.75 10V11.25H11.25V6.75H9.99999C9.58577 6.75 9.24999 6.41421 9.24999 6C9.24999 5.58578 9.58577 5.25 9.99999 5.25H12H14C14.4142 5.25 14.75 5.58578 14.75 6C14.75 6.41421 14.4142 6.75 14 6.75H12.75V11.25H17.25V10C17.25 9.58579 17.5858 9.25 18 9.25C18.4142 9.25 18.75 9.58579 18.75 10V12V14C18.75 14.4142 18.4142 14.75 18 14.75C17.5858 14.75 17.25 14.4142 17.25 14V12.75H12.75V17.25H14C14.4142 17.25 14.75 17.5858 14.75 18C14.75 18.4142 14.4142 18.75 14 18.75H12H9.99999C9.58577 18.75 9.24999 18.4142 9.24999 18C9.24999 17.5858 9.58577 17.25 9.99999 17.25H11.25V12.75H6.75V14C6.75 14.4142 6.41421 14.75 6 14.75C5.58579 14.75 5.25 14.4142 5.25 14V12V10C5.25 9.58579 5.58579 9.25 6 9.25Z" fill="#22282F"/>
</svg>
