<svg width="24" height="24" viewBox="0 0 24 24" fill="none" xmlns="http://www.w3.org/2000/svg">
<path fill-rule="evenodd" clip-rule="evenodd" d="M6.46167 2.25L6.50001 2.25V3.75C5.78217 3.75 5.30025 3.75091 4.93284 3.78828C4.57797 3.82438 4.414 3.8882 4.30555 3.96066C4.16906 4.05186 4.05187 4.16905 3.96068 4.30554C3.88821 4.41399 3.8244 4.57796 3.7883 4.93283C3.75092 5.30023 3.75001 5.78216 3.75001 6.5H2.25001L2.25001 6.46166C2.25 5.79208 2.24998 5.23335 2.296 4.78102C2.34416 4.30755 2.44888 3.86818 2.71347 3.47218C2.91411 3.17191 3.17192 2.9141 3.4722 2.71346C3.86819 2.44886 4.30756 2.34415 4.78103 2.29599C5.23336 2.24997 5.79209 2.24998 6.46167 2.25ZM19.0672 3.78828C18.6998 3.75091 18.2179 3.75 17.5 3.75V2.25L17.5384 2.25C18.2079 2.24998 18.7667 2.24997 19.219 2.29599C19.6925 2.34415 20.1318 2.44886 20.5278 2.71346C20.8281 2.9141 21.0859 3.17191 21.2866 3.47218C21.5512 3.86818 21.6559 4.30755 21.704 4.78102C21.75 5.23336 21.75 5.79209 21.75 6.46168V6.5H20.25C20.25 5.78216 20.2491 5.30023 20.2117 4.93283C20.1756 4.57796 20.1118 4.41399 20.0394 4.30554C19.9482 4.16905 19.831 4.05186 19.6945 3.96066C19.586 3.8882 19.4221 3.82438 19.0672 3.78828ZM9.25001 3C9.25001 2.58579 9.5858 2.25 10 2.25H12H14C14.4142 2.25 14.75 2.58579 14.75 3C14.75 3.41422 14.4142 3.75 14 3.75H12H10C9.5858 3.75 9.25001 3.41422 9.25001 3ZM3.00001 9.25C3.41423 9.25 3.75001 9.58579 3.75001 10V12V14C3.75001 14.4142 3.41423 14.75 3.00001 14.75C2.5858 14.75 2.25001 14.4142 2.25001 14V12V10C2.25001 9.58579 2.5858 9.25 3.00001 9.25ZM21 9.25C21.4142 9.25 21.75 9.58579 21.75 10V12V14C21.75 14.4142 21.4142 14.75 21 14.75C20.5858 14.75 20.25 14.4142 20.25 14V12V10C20.25 9.58579 20.5858 9.25 21 9.25ZM2.25001 17.5383L2.25001 17.5H3.75001C3.75001 18.2178 3.75092 18.6998 3.7883 19.0672C3.8244 19.422 3.88821 19.586 3.96068 19.6945C4.05187 19.831 4.16906 19.9481 4.30555 20.0393C4.414 20.1118 4.57797 20.1756 4.93284 20.2117C5.30025 20.2491 5.78217 20.25 6.50001 20.25V21.75H6.46169C5.7921 21.75 5.23337 21.75 4.78103 21.704C4.30756 21.6559 3.86819 21.5511 3.4722 21.2865C3.17192 21.0859 2.91411 20.8281 2.71347 20.5278C2.44888 20.1318 2.34416 19.6925 2.296 19.219C2.24998 18.7667 2.25 18.2079 2.25001 17.5383ZM20.2117 19.0672C20.2491 18.6998 20.25 18.2178 20.25 17.5H21.75V17.5383C21.75 18.2079 21.75 18.7666 21.704 19.219C21.6559 19.6925 21.5512 20.1318 21.2866 20.5278C21.0859 20.8281 20.8281 21.0859 20.5278 21.2865C20.1318 21.5511 19.6925 21.6559 19.219 21.704C18.7667 21.75 18.2079 21.75 17.5383 21.75H17.5V20.25C18.2179 20.25 18.6998 20.2491 19.0672 20.2117C19.4221 20.1756 19.586 20.1118 19.6945 20.0393C19.831 19.9481 19.9482 19.831 20.0394 19.6945C20.1118 19.586 20.1756 19.422 20.2117 19.0672ZM9.25001 21C9.25001 20.5858 9.5858 20.25 10 20.25H12H14C14.4142 20.25 14.75 20.5858 14.75 21C14.75 21.4142 14.4142 21.75 14 21.75H12H10C9.5858 21.75 9.25001 21.4142 9.25001 21Z" fill="#22282F"/>
</svg>
