<svg width="24" height="24" viewBox="0 0 24 24" fill="none" xmlns="http://www.w3.org/2000/svg">
<path fill-rule="evenodd" clip-rule="evenodd" d="M6.948 3.25H7H9H9.052C9.95048 3.24997 10.6997 3.24995 11.2945 3.32991C11.9223 3.41432 12.4891 3.59999 12.9445 4.05546C13.4 4.51093 13.5857 5.07773 13.6701 5.70552C13.7501 6.3003 13.75 7.04951 13.75 7.94797V7.94801L13.75 8V16L13.75 16.052V16.052C13.75 16.9505 13.7501 17.6997 13.6701 18.2945C13.5857 18.9223 13.4 19.4891 12.9445 19.9445C12.4891 20.4 11.9223 20.5857 11.2945 20.6701C10.6997 20.7501 9.95048 20.75 9.052 20.75H9H7H6.94801C6.04952 20.75 5.3003 20.7501 4.70552 20.6701C4.07773 20.5857 3.51093 20.4 3.05546 19.9445C2.59999 19.4891 2.41432 18.9223 2.32991 18.2945C2.24995 17.6997 2.24997 16.9505 2.25 16.052V16V8V7.948C2.24997 7.04952 2.24995 6.3003 2.32991 5.70552C2.41432 5.07773 2.59999 4.51093 3.05546 4.05546C3.51093 3.59999 4.07773 3.41432 4.70552 3.32991C5.3003 3.24995 6.04952 3.24997 6.948 3.25ZM4.90539 4.81654C4.44393 4.87858 4.24643 4.9858 4.11612 5.11612C3.9858 5.24643 3.87858 5.44393 3.81654 5.90539C3.75159 6.38843 3.75 7.03599 3.75 8V16C3.75 16.964 3.75159 17.6116 3.81654 18.0946C3.87858 18.5561 3.9858 18.7536 4.11612 18.8839C4.24643 19.0142 4.44393 19.1214 4.90539 19.1835C5.38843 19.2484 6.03599 19.25 7 19.25H9C9.96401 19.25 10.6116 19.2484 11.0946 19.1835C11.5561 19.1214 11.7536 19.0142 11.8839 18.8839C12.0142 18.7536 12.1214 18.5561 12.1835 18.0946C12.2484 17.6116 12.25 16.964 12.25 16V8C12.25 7.03599 12.2484 6.38843 12.1835 5.90539C12.1214 5.44393 12.0142 5.24643 11.8839 5.11612C11.7536 4.9858 11.5561 4.87858 11.0946 4.81654C10.6116 4.75159 9.96401 4.75 9 4.75H7C6.03599 4.75 5.38843 4.75159 4.90539 4.81654ZM17 5.25C17.4142 5.25 17.75 5.58579 17.75 6L17.75 18C17.75 18.4142 17.4142 18.75 17 18.75C16.5858 18.75 16.25 18.4142 16.25 18L16.25 6C16.25 5.58579 16.5858 5.25 17 5.25ZM21.75 9C21.75 8.58579 21.4142 8.25 21 8.25C20.5858 8.25 20.25 8.58579 20.25 9V15C20.25 15.4142 20.5858 15.75 21 15.75C21.4142 15.75 21.75 15.4142 21.75 15V9Z" fill="#22282F"/>
</svg>
