<svg width="24" height="24" viewBox="0 0 24 24" fill="none" xmlns="http://www.w3.org/2000/svg">
<path fill-rule="evenodd" clip-rule="evenodd" d="M9.948 3.25H10H14H14.052C14.9505 3.24997 15.6997 3.24995 16.2945 3.32991C16.9223 3.41432 17.4891 3.59999 17.9445 4.05546C18.4 4.51093 18.5857 5.07773 18.6701 5.70552C18.7501 6.30029 18.75 7.04949 18.75 7.94794V7.94798V7.94801L18.75 8V16L18.75 16.052V16.052V16.0521C18.75 16.9505 18.7501 17.6997 18.6701 18.2945C18.5857 18.9223 18.4 19.4891 17.9445 19.9445C17.4891 20.4 16.9223 20.5857 16.2945 20.6701C15.6997 20.7501 14.9505 20.75 14.052 20.75H14H10H9.948C9.04952 20.75 8.3003 20.7501 7.70552 20.6701C7.07773 20.5857 6.51093 20.4 6.05546 19.9445C5.59999 19.4891 5.41432 18.9223 5.32991 18.2945C5.24994 17.6997 5.24997 16.9505 5.25 16.052L5.25 16V8L5.25 7.948C5.24997 7.04952 5.24994 6.3003 5.32991 5.70552C5.41432 5.07773 5.59999 4.51093 6.05546 4.05546C6.51093 3.59999 7.07773 3.41432 7.70552 3.32991C8.3003 3.24995 9.04952 3.24997 9.948 3.25ZM7.90539 4.81654C7.44393 4.87858 7.24643 4.9858 7.11612 5.11612C6.9858 5.24643 6.87858 5.44393 6.81654 5.90539C6.75159 6.38843 6.75 7.03599 6.75 8V16C6.75 16.964 6.75159 17.6116 6.81654 18.0946C6.87858 18.5561 6.9858 18.7536 7.11612 18.8839C7.24643 19.0142 7.44393 19.1214 7.90539 19.1835C8.38843 19.2484 9.03599 19.25 10 19.25H14C14.964 19.25 15.6116 19.2484 16.0946 19.1835C16.5561 19.1214 16.7536 19.0142 16.8839 18.8839C17.0142 18.7536 17.1214 18.5561 17.1835 18.0946C17.2484 17.6116 17.25 16.964 17.25 16V8C17.25 7.03599 17.2484 6.38843 17.1835 5.90539C17.1214 5.44393 17.0142 5.24643 16.8839 5.11612C16.7536 4.9858 16.5561 4.87858 16.0946 4.81654C15.6116 4.75159 14.964 4.75 14 4.75H10C9.03599 4.75 8.38843 4.75159 7.90539 4.81654ZM2 4.25C2.41421 4.25 2.75 4.58579 2.75 5L2.75 19C2.75 19.4142 2.41421 19.75 2 19.75C1.58579 19.75 1.25 19.4142 1.25 19V5C1.25 4.58579 1.58579 4.25 2 4.25ZM22.75 5C22.75 4.58579 22.4142 4.25 22 4.25C21.5858 4.25 21.25 4.58579 21.25 5V19C21.25 19.4142 21.5858 19.75 22 19.75C22.4142 19.75 22.75 19.4142 22.75 19V5Z" fill="#22282F"/>
</svg>
