<svg width="24" height="24" viewBox="0 0 24 24" fill="none" xmlns="http://www.w3.org/2000/svg">
<path fill-rule="evenodd" clip-rule="evenodd" d="M7.948 2.25H8H16H16.052C16.9505 2.24997 17.6997 2.24995 18.2945 2.32991C18.9223 2.41432 19.4891 2.59999 19.9445 3.05546C20.4 3.51093 20.5857 4.07773 20.6701 4.70552C20.7501 5.3003 20.75 6.04952 20.75 6.94801V7V9V9.052C20.75 9.95048 20.7501 10.6997 20.6701 11.2945C20.5857 11.9223 20.4 12.4891 19.9445 12.9445C19.4891 13.4 18.9223 13.5857 18.2945 13.6701C17.6997 13.7501 16.9505 13.75 16.052 13.75H16.052L16 13.75H8L7.94801 13.75H7.94797C7.04951 13.75 6.3003 13.7501 5.70552 13.6701C5.07773 13.5857 4.51093 13.4 4.05546 12.9445C3.59999 12.4891 3.41432 11.9223 3.32991 11.2945C3.24995 10.6997 3.24997 9.95048 3.25 9.052V9V7V6.948C3.24997 6.04952 3.24995 5.3003 3.32991 4.70552C3.41432 4.07773 3.59999 3.51093 4.05546 3.05546C4.51093 2.59999 5.07773 2.41432 5.70552 2.32991C6.3003 2.24995 7.04952 2.24997 7.948 2.25ZM5.90539 3.81654C5.44393 3.87858 5.24643 3.9858 5.11612 4.11612C4.9858 4.24643 4.87858 4.44393 4.81654 4.90539C4.75159 5.38843 4.75 6.03599 4.75 7V9C4.75 9.96401 4.75159 10.6116 4.81654 11.0946C4.87858 11.5561 4.9858 11.7536 5.11612 11.8839C5.24643 12.0142 5.44393 12.1214 5.90539 12.1835C6.38843 12.2484 7.03599 12.25 8 12.25H16C16.964 12.25 17.6116 12.2484 18.0946 12.1835C18.5561 12.1214 18.7536 12.0142 18.8839 11.8839C19.0142 11.7536 19.1214 11.5561 19.1835 11.0946C19.2484 10.6116 19.25 9.96401 19.25 9V7C19.25 6.03599 19.2484 5.38843 19.1835 4.90539C19.1214 4.44393 19.0142 4.24643 18.8839 4.11612C18.7536 3.9858 18.5561 3.87858 18.0946 3.81654C17.6116 3.75159 16.964 3.75 16 3.75H8C7.03599 3.75 6.38843 3.75159 5.90539 3.81654ZM5.25 17C5.25 16.5858 5.58579 16.25 6 16.25H18C18.4142 16.25 18.75 16.5858 18.75 17C18.75 17.4142 18.4142 17.75 18 17.75H6C5.58579 17.75 5.25 17.4142 5.25 17ZM9 20.25C8.58579 20.25 8.25 20.5858 8.25 21C8.25 21.4142 8.58579 21.75 9 21.75H15C15.4142 21.75 15.75 21.4142 15.75 21C15.75 20.5858 15.4142 20.25 15 20.25H9Z" fill="#22282F"/>
</svg>
