<svg width="24" height="24" viewBox="0 0 24 24" fill="none" xmlns="http://www.w3.org/2000/svg">
<path fill-rule="evenodd" clip-rule="evenodd" d="M19.0946 3.81654C18.6116 3.75159 17.964 3.75 17 3.75H12C11.5238 3.75 11.2042 3.75041 10.9567 3.76729C10.716 3.78372 10.5988 3.81319 10.5216 3.84515C10.2154 3.97202 9.97202 4.21536 9.84515 4.52165C9.81319 4.5988 9.78372 4.71602 9.76729 4.95674C9.76132 5.04423 9.75741 5.14074 9.75485 5.25H14L14.052 5.25C14.9505 5.24997 15.6997 5.24995 16.2945 5.32991C16.9223 5.41432 17.4891 5.59999 17.9445 6.05546C18.4 6.51093 18.5857 7.07773 18.6701 7.70552C18.7501 8.30027 18.75 9.04943 18.75 9.94784V9.94786V9.94801L18.75 10V14.2451C18.8593 14.2426 18.9558 14.2387 19.0433 14.2327C19.284 14.2163 19.4012 14.1868 19.4784 14.1549C19.7846 14.028 20.028 13.7846 20.1549 13.4784C20.1868 13.4012 20.2163 13.284 20.2327 13.0433C20.2496 12.7958 20.25 12.4762 20.25 12V7C20.25 6.03599 20.2484 5.38843 20.1835 4.90539C20.1214 4.44393 20.0142 4.24643 19.8839 4.11612C19.7536 3.9858 19.5561 3.87858 19.0946 3.81654ZM8.27077 4.85464C8.26242 4.97703 8.25742 5.11015 8.25444 5.25444C8.11014 5.25743 7.97703 5.26242 7.85464 5.27077C7.53754 5.29241 7.23801 5.33905 6.94762 5.45933C6.27379 5.73844 5.73844 6.27379 5.45933 6.94762C5.33905 7.23801 5.29241 7.53754 5.27077 7.85464C5.26195 7.98396 5.25687 8.12525 5.25395 8.27904C5.05858 8.2907 4.87573 8.30703 4.70552 8.32991C4.07773 8.41432 3.51093 8.59999 3.05546 9.05546C2.59999 9.51093 2.41432 10.0777 2.32991 10.7055C2.24995 11.3003 2.24997 12.0495 2.25 12.948V12.948L2.25 13V17L2.25 17.052V17.052C2.24997 17.9505 2.24995 18.6997 2.32991 19.2945C2.41432 19.9223 2.59999 20.4891 3.05546 20.9445C3.51093 21.4 4.07773 21.5857 4.70552 21.6701C5.3003 21.7501 6.04951 21.75 6.94798 21.75H6.94801L7 21.75H11L11.052 21.75H11.052C11.9505 21.75 12.6997 21.7501 13.2945 21.6701C13.9223 21.5857 14.4891 21.4 14.9445 20.9445C15.4 20.4891 15.5857 19.9223 15.6701 19.2945C15.693 19.1243 15.7093 18.9414 15.721 18.7461C15.8748 18.7431 16.016 18.7381 16.1454 18.7292C16.4625 18.7076 16.762 18.661 17.0524 18.5407C17.7262 18.2616 18.2616 17.7262 18.5407 17.0524C18.661 16.762 18.7076 16.4625 18.7292 16.1454C18.7376 16.023 18.7426 15.8899 18.7456 15.7456C18.8899 15.7426 19.023 15.7376 19.1454 15.7292C19.4625 15.7076 19.762 15.661 20.0524 15.5407C20.7262 15.2616 21.2616 14.7262 21.5407 14.0524C21.661 13.762 21.7076 13.4625 21.7292 13.1454C21.75 12.8408 21.75 12.4697 21.75 12.0253V12V7L21.75 6.94801V6.94797V6.94794C21.75 6.04949 21.7501 5.30029 21.6701 4.70552C21.5857 4.07773 21.4 3.51093 20.9445 3.05546C20.4891 2.59999 19.9223 2.41432 19.2945 2.32991C18.6997 2.24995 17.9505 2.24997 17.052 2.25H17H12H11.9747H11.9747C11.5303 2.24999 11.1592 2.24999 10.8546 2.27077C10.5375 2.29241 10.238 2.33905 9.94762 2.45933C9.27379 2.73844 8.73844 3.27379 8.45933 3.94762C8.33905 4.23801 8.29241 4.53754 8.27077 4.85464ZM15.75 17.2452C15.8592 17.2426 15.9558 17.2387 16.0433 17.2327C16.284 17.2163 16.4012 17.1868 16.4784 17.1549C16.7846 17.028 17.028 16.7846 17.1549 16.4784C17.1868 16.4012 17.2163 16.284 17.2327 16.0433C17.2496 15.7958 17.25 15.4762 17.25 15V10C17.25 9.03599 17.2484 8.38843 17.1835 7.90539C17.1214 7.44393 17.0142 7.24643 16.8839 7.11612C16.7536 6.9858 16.5561 6.87858 16.0946 6.81654C15.6116 6.75159 14.964 6.75 14 6.75H9C8.5238 6.75 8.20421 6.75041 7.95674 6.76729C7.71602 6.78372 7.5988 6.81319 7.52165 6.84515C7.21536 6.97202 6.97202 7.21536 6.84515 7.52165C6.81319 7.5988 6.78372 7.71602 6.76729 7.95674C6.76132 8.04424 6.75741 8.14076 6.75485 8.25003C6.81845 8.25 6.88283 8.25 6.948 8.25L7 8.25H11L11.052 8.25C11.9505 8.24997 12.6997 8.24995 13.2945 8.32991C13.9223 8.41432 14.4891 8.59999 14.9445 9.05546C15.4 9.51093 15.5857 10.0777 15.6701 10.7055C15.7501 11.3003 15.75 12.0495 15.75 12.948V12.948L15.75 13V17L15.75 17.052V17.052C15.75 17.1172 15.75 17.1816 15.75 17.2452ZM4.11612 10.1161C4.24644 9.9858 4.44393 9.87858 4.90539 9.81654C5.38843 9.7516 6.03599 9.75 7 9.75H11C11.964 9.75 12.6116 9.7516 13.0946 9.81654C13.5561 9.87858 13.7536 9.9858 13.8839 10.1161C14.0142 10.2464 14.1214 10.4439 14.1835 10.9054C14.2484 11.3884 14.25 12.036 14.25 13V17C14.25 17.964 14.2484 18.6116 14.1835 19.0946C14.1214 19.5561 14.0142 19.7536 13.8839 19.8839C13.7536 20.0142 13.5561 20.1214 13.0946 20.1835C12.6116 20.2484 11.964 20.25 11 20.25H7C6.03599 20.25 5.38843 20.2484 4.90539 20.1835C4.44393 20.1214 4.24644 20.0142 4.11612 19.8839C3.9858 19.7536 3.87858 19.5561 3.81654 19.0946C3.7516 18.6116 3.75 17.964 3.75 17V13C3.75 12.036 3.7516 11.3884 3.81654 10.9054C3.87858 10.4439 3.9858 10.2464 4.11612 10.1161Z" fill="#22282F"/>
</svg>
