<svg width="24" height="24" viewBox="0 0 24 24" fill="none" xmlns="http://www.w3.org/2000/svg">
<path fill-rule="evenodd" clip-rule="evenodd" d="M17.75 5C17.75 4.30965 18.3096 3.75 19 3.75C19.6904 3.75 20.25 4.30965 20.25 5C20.25 5.69036 19.6904 6.25 19 6.25C18.3097 6.25 17.7502 5.69052 17.75 5.00029L17.75 5ZM16.3535 4.25C16.68 3.09575 17.7412 2.25 19 2.25C20.5188 2.25 21.75 3.48122 21.75 5C21.75 6.25878 20.9043 7.32002 19.75 7.64649L19.75 16.3535C20.9043 16.68 21.75 17.7412 21.75 19C21.75 20.5188 20.5188 21.75 19 21.75C17.7412 21.75 16.68 20.9043 16.3535 19.75L7.64648 19.75C7.32002 20.9043 6.25878 21.75 5 21.75C3.48122 21.75 2.25 20.5188 2.25 19C2.25 17.7412 3.09575 16.68 4.25 16.3535L4.25 7.64649C3.09575 7.32002 2.25 6.25878 2.25 5C2.25 3.48122 3.48122 2.25 5 2.25C6.25878 2.25 7.32002 3.09575 7.64648 4.25L16.3535 4.25ZM5.75 16.3535C6.66584 16.6126 7.38745 17.3342 7.64648 18.25L16.3535 18.25C16.6125 17.3342 17.3342 16.6126 18.25 16.3535L18.25 7.64649C17.3342 7.38745 16.6125 6.66584 16.3535 5.75L7.64648 5.75C7.38745 6.66584 6.66584 7.38745 5.75 7.64649L5.75 16.3535ZM18.9997 17.75L19 17.75C19.6904 17.75 20.25 18.3096 20.25 19C20.25 19.6904 19.6904 20.25 19 20.25C18.3096 20.25 17.75 19.6904 17.75 19C17.75 18.3097 18.3095 17.7502 18.9997 17.75ZM5 3.75C4.30964 3.75 3.75 4.30965 3.75 5C3.75 5.69036 4.30964 6.25 5 6.25L5.00015 6.25C5.69044 6.24992 6.25 5.69031 6.25 5C6.25 4.30965 5.69036 3.75 5 3.75ZM3.75 19C3.75 18.3096 4.30964 17.75 5 17.75C5.69036 17.75 6.25 18.3096 6.25 19C6.25 19.6904 5.69036 20.25 5 20.25C4.30964 20.25 3.75 19.6904 3.75 19Z" fill="#22282F"/>
</svg>
