<svg width="24" height="24" viewBox="0 0 24 24" fill="none" xmlns="http://www.w3.org/2000/svg">
<path fill-rule="evenodd" clip-rule="evenodd" d="M4.15114 9.45153C3.89073 10.2541 3.75 11.1106 3.75 12C3.75 13.154 3.98694 14.2527 4.41482 15.25L8.5 15.25L6.4103 12.4637C6.40314 12.4546 6.3962 12.4454 6.3895 12.436L4.15114 9.45153ZM10.375 15.25L7.92747 11.9866L10.2121 8.75L13.625 8.75L16.0862 12.0316L14.0037 15.25L14 15.25L10.375 15.25ZM14.0075 7.25C14.0021 7.24994 13.9967 7.24994 13.9913 7.25L11.271 7.25L13.6127 3.93251C13.6179 3.92525 13.6228 3.91792 13.6277 3.91053C15.7343 4.33208 17.5512 5.55597 18.7462 7.25L14.0075 7.25ZM15.5 8.75L17.5895 11.536C17.5967 11.5452 17.6037 11.5544 17.6104 11.5639L19.8489 14.5485C20.1093 13.7459 20.25 12.8894 20.25 12C20.25 10.846 20.0131 9.74733 19.5852 8.75L15.5 8.75ZM4.84937 7.8825C6.26 5.43802 8.88808 3.78453 11.9051 3.75054L6.98162 10.7255L4.84937 7.8825ZM17.0454 13.3105L12.5675 20.2308C15.385 20.0394 17.8142 18.4334 19.1506 16.1175L17.0454 13.3105ZM10.8277 20.1674C10.8403 20.1419 10.8545 20.117 10.8703 20.0926L13.0332 16.75L10.0088 16.75L9.99232 16.75L5.25379 16.75C6.53404 18.5649 8.52819 19.8402 10.8277 20.1674ZM2.25 12C2.25 6.61523 6.61522 2.25 12 2.25C17.3848 2.25 21.75 6.61523 21.75 12C21.75 17.3848 17.3848 21.75 12 21.75C6.61522 21.75 2.25 17.3848 2.25 12Z" fill="#22282F"/>
</svg>
