<svg width="24" height="24" viewBox="0 0 24 24" fill="none" xmlns="http://www.w3.org/2000/svg">
<path fill-rule="evenodd" clip-rule="evenodd" d="M11.999 1.24999L11.8726 1.24997C10.6706 1.24969 9.89481 1.24951 9.16915 1.48866C8.94542 1.56239 8.72749 1.65266 8.51716 1.75872C7.83493 2.10274 7.28651 2.65142 6.43678 3.50155L6.34737 3.59099L5.7341 4.20426C5.70481 4.23354 5.66509 4.24999 5.62368 4.24999C5.52203 4.24999 5.42109 4.25347 5.32099 4.26033L2.53033 1.46966C2.23744 1.17677 1.76256 1.17677 1.46967 1.46966C1.17678 1.76256 1.17678 2.23743 1.46967 2.53032L4.51548 5.57614L19.7379 20.7986L21.4697 22.5303C21.7626 22.8232 22.2374 22.8232 22.5303 22.5303C22.8232 22.2375 22.8232 21.7626 22.5303 21.4697L21.3884 20.3278C22.1152 19.5842 22.4404 18.6453 22.5959 17.489C22.7491 16.3498 22.749 14.8942 22.749 13.0564L22.749 13L22.749 8.62465C22.749 6.20859 20.7904 4.24999 18.3744 4.24999C18.333 4.24999 18.2932 4.23354 18.2639 4.20426L17.6507 3.59099L17.5613 3.50156C16.7115 2.65142 16.1631 2.10275 15.4809 1.75872C15.2706 1.65266 15.0526 1.56239 14.8289 1.48866C14.1032 1.24951 13.3275 1.24969 12.1255 1.24997L11.999 1.24999ZM9.21352 8.15286L6.53644 5.47578C6.62874 5.41481 6.71537 5.34431 6.79476 5.26492L7.40803 4.65165C8.37845 3.68123 8.7517 3.32037 9.19254 3.09807C9.33645 3.0255 9.48556 2.96374 9.63864 2.91329C10.1076 2.75876 10.6266 2.74999 11.999 2.74999C13.3714 2.74999 13.8905 2.75876 14.3594 2.91329C14.5125 2.96374 14.6616 3.0255 14.8055 3.09807C15.2463 3.32037 15.6196 3.68123 16.59 4.65165L17.2033 5.26492C17.5139 5.57551 17.9351 5.74999 18.3744 5.74999C19.962 5.74999 21.249 7.03702 21.249 8.62465L21.249 13C21.249 14.9068 21.2474 16.2615 21.1093 17.2891C20.9773 18.2708 20.7326 18.8465 20.3276 19.267L15.8472 14.7865C16.4148 14.0039 16.75 13.0404 16.75 12C16.75 9.37665 14.6234 7.25 12 7.25C10.9596 7.25 9.99612 7.58523 9.21352 8.15286ZM10.2938 9.23319L14.7668 13.7062C15.0734 13.2103 15.25 12.6263 15.25 12C15.25 10.2051 13.7949 8.75 12 8.75C11.3737 8.75 10.7897 8.9266 10.2938 9.23319ZM3.05285 7.33661C3.23876 6.96646 3.0894 6.51569 2.71926 6.32978C2.34911 6.14387 1.89833 6.29323 1.71242 6.66337C1.52405 7.03843 1.38791 7.44447 1.31371 7.87164C1.27113 8.11677 1.24902 8.36843 1.24902 8.62465L1.24902 13L1.24902 13.0564L1.24902 13.0564C1.24901 14.8942 1.24899 16.3498 1.40216 17.489C1.55978 18.6614 1.8919 19.6104 2.64026 20.3588C3.38863 21.1071 4.33758 21.4392 5.51 21.5969C6.64921 21.75 8.10485 21.75 9.94261 21.75L9.99902 21.75L13.999 21.75L14.0011 21.75C14.353 21.75 15.6833 21.75 16.0022 21.7491C16.4164 21.7478 16.7512 21.4111 16.75 20.9969C16.7488 20.5827 16.412 20.2479 15.9978 20.2491C15.6812 20.25 14.3495 20.25 13.999 20.25L9.99902 20.25C8.0922 20.25 6.73753 20.2484 5.70987 20.1102C4.70378 19.975 4.12413 19.7213 3.70093 19.2981C3.27772 18.8749 3.02405 18.2952 2.88878 17.2891C2.75061 16.2615 2.74902 14.9068 2.74902 13L2.74902 8.62465C2.74902 8.45485 2.76366 8.28907 2.79158 8.12835C2.84021 7.84842 2.92935 7.58251 3.05285 7.33661ZM8.75002 12C8.75002 11.5858 8.41424 11.25 8.00002 11.25C7.58581 11.25 7.25002 11.5858 7.25002 12C7.25002 14.6234 9.37667 16.75 12 16.75C12.4142 16.75 12.75 16.4142 12.75 16C12.75 15.5858 12.4142 15.25 12 15.25C10.2051 15.25 8.75002 13.7949 8.75002 12Z" fill="#22282F"/>
</svg>
