<svg width="24" height="24" viewBox="0 0 24 24" fill="none" xmlns="http://www.w3.org/2000/svg">
<path fill-rule="evenodd" clip-rule="evenodd" d="M12 1.24999L11.8735 1.24997L11.8735 1.24997C10.6715 1.24969 9.89579 1.24951 9.17012 1.48866C8.9464 1.56239 8.72847 1.65266 8.51813 1.75872C7.83591 2.10274 7.28749 2.65142 6.43775 3.50155L6.43775 3.50155L6.34835 3.59098L5.73508 4.20425C5.70579 4.23354 5.66607 4.24999 5.62465 4.24999C3.2086 4.24999 1.25 6.20859 1.25 8.62465L1.25 13L1.25 13.0564L1.25 13.0564C1.24998 14.8942 1.24997 16.3498 1.40313 17.489C1.56076 18.6614 1.89288 19.6104 2.64124 20.3587C3.3896 21.1071 4.33855 21.4392 5.51098 21.5969C6.65019 21.75 8.10583 21.75 9.94359 21.75L10 21.75L14 21.75L14.0564 21.75L14.0565 21.75C15.8942 21.75 17.3498 21.75 18.489 21.5969C19.6614 21.4392 20.6104 21.1071 21.3588 20.3587C22.1071 19.6104 22.4392 18.6614 22.5969 17.489C22.75 16.3498 22.75 14.8942 22.75 13.0564L22.75 13L22.75 8.62465C22.75 6.20859 20.7914 4.24999 18.3753 4.24999C18.3339 4.24999 18.2942 4.23354 18.2649 4.20425L17.6516 3.59098L17.5622 3.50155C16.7125 2.65142 16.1641 2.10274 15.4819 1.75872C15.2715 1.65266 15.0536 1.56239 14.8299 1.48866C14.1042 1.24951 13.3285 1.24969 12.1265 1.24997L12.1265 1.24997L12 1.24999ZM9.63962 2.91329C10.1085 2.75876 10.6276 2.74999 12 2.74999C13.3724 2.74999 13.8915 2.75876 14.3604 2.91329C14.5135 2.96374 14.6626 3.0255 14.8065 3.09807C15.2473 3.32037 15.6206 3.68122 16.591 4.65164L17.2043 5.26491C17.5148 5.5755 17.9361 5.74999 18.3753 5.74999C19.963 5.74999 21.25 7.03702 21.25 8.62465L21.25 13C21.25 14.9068 21.2484 16.2615 21.1102 17.2891C20.975 18.2952 20.7213 18.8749 20.2981 19.2981C19.8749 19.7213 19.2952 19.975 18.2892 20.1102C17.2615 20.2484 15.9068 20.25 14 20.25L10 20.25C8.09318 20.25 6.73851 20.2484 5.71085 20.1102C4.70476 19.975 4.12511 19.7213 3.7019 19.2981C3.27869 18.8749 3.02502 18.2952 2.88976 17.2891C2.75159 16.2615 2.75 14.9068 2.75 13L2.75 8.62465C2.75 7.03702 4.03703 5.74999 5.62465 5.74999C6.0639 5.74999 6.48515 5.5755 6.79574 5.26491L7.40901 4.65164C8.37943 3.68122 8.75267 3.32037 9.19352 3.09807C9.33743 3.0255 9.48654 2.96374 9.63962 2.91329ZM8.75 12C8.75 10.2051 10.2051 8.74999 12 8.74999C13.7949 8.74999 15.25 10.2051 15.25 12C15.25 13.7949 13.7949 15.25 12 15.25C10.2051 15.25 8.75 13.7949 8.75 12ZM12 7.24999C9.37665 7.24999 7.25 9.37664 7.25 12C7.25 14.6233 9.37665 16.75 12 16.75C14.6234 16.75 16.75 14.6233 16.75 12C16.75 9.37664 14.6234 7.24999 12 7.24999Z" fill="#22282F"/>
</svg>
