<svg width="24" height="24" viewBox="0 0 24 24" fill="none" xmlns="http://www.w3.org/2000/svg">
<path fill-rule="evenodd" clip-rule="evenodd" d="M7.75 8C7.75 5.65279 9.65279 3.75 12 3.75C14.3472 3.75 16.25 5.65279 16.25 8C16.25 10.3472 14.3472 12.25 12 12.25C9.65279 12.25 7.75 10.3472 7.75 8ZM12 2.25C8.82436 2.25 6.25 4.82436 6.25 8C6.25 8.50621 6.31541 8.99713 6.43824 9.46479C4.02159 10.1455 2.25 12.3651 2.25 15C2.25 18.1756 4.82436 20.75 8 20.75C9.55457 20.75 10.965 20.133 12 19.1307C13.0343 20.1323 14.445 20.75 15.9999 20.75C19.1755 20.75 21.7499 18.1756 21.7499 15C21.7499 12.3651 19.9783 10.1456 17.5617 9.46482C17.6846 8.99716 17.75 8.50622 17.75 8C17.75 4.82436 15.1756 2.25 12 2.25ZM16.9866 10.8649C16.2458 12.1515 15.0214 13.1244 13.5616 13.5354C13.6846 14.0035 13.75 14.4945 13.75 15C13.75 16.0774 13.4537 17.0856 12.9381 17.9475C13.7119 18.7513 14.7976 19.25 15.9999 19.25C18.3471 19.25 20.2499 17.3472 20.2499 15C20.2499 12.993 18.858 11.3095 16.9866 10.8649ZM12.0633 13.7497C12.0422 13.7499 12.0211 13.75 12 13.75C9.86751 13.75 8.00616 12.5891 7.01341 10.8649C5.14188 11.3095 3.75 12.993 3.75 15C3.75 17.3472 5.65279 19.25 8 19.25C9.37869 19.25 10.6041 18.5935 11.3805 17.5761C11.3927 17.5583 11.4057 17.5409 11.4196 17.5241C11.9414 16.8183 12.25 15.9452 12.25 15C12.25 14.564 12.1846 14.1443 12.0633 13.7497Z" fill="#22282F"/>
</svg>
