<svg width="24" height="24" viewBox="0 0 24 24" fill="none" xmlns="http://www.w3.org/2000/svg">
<path fill-rule="evenodd" clip-rule="evenodd" d="M14.7503 5.5C14.7503 4.5335 15.5338 3.75 16.5003 3.75C17.4668 3.75 18.2503 4.5335 18.2503 5.5C18.2503 6.4665 17.4668 7.25 16.5003 7.25C15.5338 7.25 14.7503 6.4665 14.7503 5.5ZM16.5003 2.25C14.7054 2.25 13.2503 3.70507 13.2503 5.5C13.2503 7.29493 14.7054 8.75 16.5003 8.75C18.2953 8.75 19.7503 7.29493 19.7503 5.5C19.7503 3.70507 18.2953 2.25 16.5003 2.25ZM6.26652 12.6396C7.0376 11.4401 7.57132 10.6135 8.04131 10.0761C8.50265 9.54854 8.77621 9.44851 9.00035 9.44851C9.22449 9.44851 9.49804 9.54854 9.95939 10.0761C10.4294 10.6135 10.9631 11.4401 11.7342 12.6396L13.8695 15.9611L16.6266 20.25H9.00035H7.32701C5.68486 20.25 4.53953 20.248 3.72821 20.1279C2.91942 20.0081 2.67782 19.8028 2.56654 19.599C2.45525 19.3952 2.41319 19.0809 2.74982 18.3358C3.08751 17.5884 3.70518 16.6239 4.59318 15.2425L6.26652 12.6396ZM20.2825 20.1974C19.8239 20.242 19.2267 20.2488 18.4097 20.2498L15.3921 15.5558C15.8524 14.8428 16.1949 14.3271 16.4985 13.9568C16.855 13.5218 17.0672 13.4043 17.2208 13.3691C17.4048 13.3269 17.5959 13.3269 17.7799 13.3691C17.9347 13.4046 18.1458 13.5215 18.4989 13.9515C18.8544 14.3845 19.2631 15.018 19.8545 15.9379L20.1249 16.3585C20.6828 17.2264 21.0706 17.8312 21.3148 18.3066C21.5618 18.7878 21.5934 19.0128 21.5792 19.1395C21.5427 19.4648 21.38 19.7628 21.1261 19.9695C21.0272 20.0499 20.8208 20.1451 20.2825 20.1974ZM12.9959 11.8284L14.5029 14.1726C14.8065 13.7132 15.0798 13.3213 15.3384 13.0059C15.7665 12.4836 16.2446 12.0541 16.8854 11.907C17.2901 11.8142 17.7106 11.8142 18.1153 11.907C18.7549 12.0538 19.2315 12.48 19.6582 12.9996C20.0759 13.5083 20.5313 14.2167 21.0902 15.0862L21.1163 15.1268L21.3867 15.5474L21.4088 15.5818L21.4089 15.5819C21.9394 16.4071 22.3676 17.0733 22.6491 17.6214C22.9316 18.1715 23.135 18.727 23.0698 19.3069C22.9895 20.0226 22.6315 20.6782 22.073 21.1328C21.6204 21.5012 21.0431 21.6305 20.4277 21.6904C19.8144 21.75 19.0225 21.75 18.0414 21.75H18.0413H18.0003H9.00035H7.32701H7.26097H7.26092C5.7003 21.75 4.4429 21.75 3.50852 21.6117C2.55845 21.471 1.70736 21.1556 1.24997 20.3178C0.792575 19.48 0.987423 18.5935 1.38286 17.7182C1.77177 16.8574 2.45175 15.7997 3.2957 14.487L3.33141 14.4314L5.00475 11.8284L5.0391 11.775C5.76747 10.6419 6.36021 9.71983 6.91215 9.08867C7.48139 8.43774 8.13258 7.94851 9.00035 7.94851C9.86811 7.94851 10.5193 8.43774 11.0885 9.08867C11.6405 9.71983 12.2332 10.6419 12.9616 11.775L12.9959 11.8284Z" fill="#22282F"/>
</svg>
