<svg width="24" height="24" viewBox="0 0 24 24" fill="none" xmlns="http://www.w3.org/2000/svg">
<path fill-rule="evenodd" clip-rule="evenodd" d="M12 3.75C7.44365 3.75 3.75 7.44365 3.75 12C3.75 13.2278 4.01821 14.393 4.49925 15.4401L6.14124 13.7981L6.17801 13.7613C6.81331 13.126 7.34307 12.5962 7.82019 12.2322C8.32379 11.8479 8.85587 11.5784 9.5 11.5784C10.1441 11.5784 10.6762 11.8479 11.1798 12.2322C11.6569 12.5962 12.1867 13.126 12.822 13.7613L12.822 13.7613L12.8588 13.7981L14.0003 14.9396C14.496 14.4467 14.9261 14.0329 15.3202 13.7322C15.8238 13.3479 16.3559 13.0784 17 13.0784C17.6441 13.0784 18.1762 13.3479 18.6798 13.7322C19.0166 13.9892 19.3797 14.3288 19.7877 14.7298C20.0872 13.8754 20.25 12.9567 20.25 12C20.25 7.44365 16.5563 3.75 12 3.75ZM12 20.25C9.22676 20.25 6.77311 18.8816 5.27739 16.7833L5.53033 16.5303L7.2019 14.8588C7.88356 14.1771 8.34258 13.7203 8.73006 13.4247C9.10023 13.1423 9.3157 13.0784 9.5 13.0784C9.6843 13.0784 9.89977 13.1423 10.2699 13.4247C10.6574 13.7203 11.1164 14.1771 11.7981 14.8588L13.4697 16.5303L16.1 19.1607C14.8922 19.8537 13.4924 20.25 12 20.25ZM19.1161 16.1768C18.6465 16.9751 18.0464 17.6875 17.3451 18.2845L15.0611 16.0004C15.5523 15.5123 15.9149 15.1652 16.2301 14.9247C16.6002 14.6423 16.8157 14.5784 17 14.5784C17.1843 14.5784 17.3998 14.6423 17.7699 14.9247C18.1219 15.1932 18.5329 15.5947 19.1161 16.1768ZM2.25 12C2.25 6.61522 6.61522 2.25 12 2.25C17.3848 2.25 21.75 6.61522 21.75 12C21.75 17.3848 17.3848 21.75 12 21.75C6.61522 21.75 2.25 17.3848 2.25 12ZM12.75 9C12.75 8.30964 13.3096 7.75 14 7.75C14.6904 7.75 15.25 8.30964 15.25 9C15.25 9.69036 14.6904 10.25 14 10.25C13.3096 10.25 12.75 9.69036 12.75 9ZM14 6.25C12.4812 6.25 11.25 7.48122 11.25 9C11.25 10.5188 12.4812 11.75 14 11.75C15.5188 11.75 16.75 10.5188 16.75 9C16.75 7.48122 15.5188 6.25 14 6.25Z" fill="#22282F"/>
</svg>
