<svg width="24" height="24" viewBox="0 0 24 24" fill="none" xmlns="http://www.w3.org/2000/svg">
<path fill-rule="evenodd" clip-rule="evenodd" d="M10.9436 2.25H11H12C12.4142 2.25 12.75 2.58579 12.75 3C12.75 3.41421 12.4142 3.75 12 3.75H11C9.09318 3.75 7.73851 3.75159 6.71085 3.88976C5.70476 4.02502 5.12511 4.27869 4.7019 4.7019C4.27869 5.12511 4.02502 5.70476 3.88976 6.71085C3.75159 7.73851 3.75 9.09318 3.75 11V13C3.75 14.7777 3.75138 16.0755 3.86353 17.0758L4.46967 16.4697L6.14124 14.7981L6.17801 14.7613C6.81331 14.126 7.34307 13.5962 7.82019 13.2322C8.32379 12.8479 8.85587 12.5784 9.5 12.5784C10.1441 12.5784 10.6762 12.8479 11.1798 13.2322C11.6569 13.5962 12.1867 14.126 12.822 14.7613L12.822 14.7613L12.8588 14.7981L14.0003 15.9396C14.496 15.4467 14.9261 15.0329 15.3202 14.7322C15.8238 14.3479 16.3559 14.0784 17 14.0784C17.6441 14.0784 18.1762 14.3479 18.6798 14.7322C19.128 15.0741 19.6227 15.5624 20.2077 16.1471C20.2493 15.2994 20.25 14.2727 20.25 13V12C20.25 11.5858 20.5858 11.25 21 11.25C21.4142 11.25 21.75 11.5858 21.75 12V13V13.0564V13.0565C21.75 14.8942 21.75 16.3498 21.5969 17.489C21.4392 18.6614 21.1071 19.6104 20.3588 20.3588C19.6104 21.1071 18.6614 21.4392 17.489 21.5969C16.3498 21.75 14.8942 21.75 13.0565 21.75H13.0564H13H11H10.9436H10.9435C9.1058 21.75 7.65018 21.75 6.51098 21.5969C5.33856 21.4392 4.38961 21.1071 3.64124 20.3588C2.89288 19.6104 2.56076 18.6614 2.40313 17.489C2.24997 16.3498 2.24998 14.8942 2.25 13.0564V13V11V10.9436C2.24998 9.10582 2.24997 7.65019 2.40313 6.51098C2.56076 5.33855 2.89288 4.38961 3.64124 3.64124C4.38961 2.89288 5.33856 2.56076 6.51098 2.40313C7.65019 2.24997 9.10582 2.24998 10.9436 2.25ZM4.7019 19.2981C4.54709 19.1433 4.41496 18.9675 4.30302 18.7576L5.53033 17.5303L7.2019 15.8588C7.88356 15.1771 8.34258 14.7203 8.73006 14.4247C9.10023 14.1423 9.3157 14.0784 9.5 14.0784C9.6843 14.0784 9.89977 14.1423 10.2699 14.4247C10.6574 14.7203 11.1164 15.1771 11.7981 15.8588L13.4697 17.5303L16.1471 20.2077C15.2994 20.2493 14.2727 20.25 13 20.25H11C9.09318 20.25 7.73851 20.2484 6.71085 20.1102C5.70476 19.975 5.12511 19.7213 4.7019 19.2981ZM19.2981 19.2981C18.9917 19.6045 18.6034 19.822 18.0307 19.97L18.0303 19.9697L15.0611 17.0004C15.5523 16.5123 15.9149 16.1652 16.2301 15.9247C16.6002 15.6423 16.8157 15.5784 17 15.5784C17.1843 15.5784 17.3998 15.6423 17.7699 15.9247C18.1574 16.2203 18.6164 16.6771 19.2981 17.3588L19.9697 18.0303L19.97 18.0307C19.822 18.6034 19.6045 18.9917 19.2981 19.2981ZM18.75 3C18.75 2.58579 18.4142 2.25 18 2.25C17.5858 2.25 17.25 2.58579 17.25 3V5.25H15C14.5858 5.25 14.25 5.58579 14.25 6C14.25 6.41421 14.5858 6.75 15 6.75H17.25V9C17.25 9.41421 17.5858 9.75 18 9.75C18.4142 9.75 18.75 9.41421 18.75 9V6.75H21C21.4142 6.75 21.75 6.41421 21.75 6C21.75 5.58579 21.4142 5.25 21 5.25H18.75V3Z" fill="#22282F"/>
</svg>
