<svg width="24" height="24" viewBox="0 0 24 24" fill="none" xmlns="http://www.w3.org/2000/svg">
<path fill-rule="evenodd" clip-rule="evenodd" d="M1.46967 1.46967C1.76256 1.17678 2.23744 1.17678 2.53033 1.46967L4.7019 3.64124L20.3588 19.2981L22.5303 21.4697C22.8232 21.7626 22.8232 22.2374 22.5303 22.5303C22.2374 22.8232 21.7626 22.8232 21.4697 22.5303L19.7863 20.847C19.5876 20.9909 19.3771 21.1199 19.1565 21.2323C18.6053 21.5131 18.0017 21.6347 17.2883 21.693C16.5906 21.75 15.7252 21.75 14.633 21.75H14.6H9.4H9.36698C8.27484 21.75 7.40935 21.75 6.71173 21.693C5.99834 21.6347 5.39472 21.5131 4.84354 21.2323C3.94978 20.7769 3.22312 20.0502 2.76772 19.1565C2.48688 18.6053 2.36527 18.0017 2.30699 17.2883C2.24999 16.5906 2.24999 15.7251 2.25 14.633L2.25 14.6V9.4L2.25 9.367C2.24999 8.27485 2.24999 7.40936 2.30699 6.71173C2.36527 5.99834 2.48688 5.39472 2.76772 4.84354C2.88015 4.62289 3.00911 4.41242 3.15304 4.2137L1.46967 2.53033C1.17678 2.23744 1.17678 1.76256 1.46967 1.46967ZM4.2336 5.29426C4.1875 5.36902 4.14433 5.44583 4.10423 5.52453C3.94909 5.829 3.85271 6.21325 3.80201 6.83388C3.75058 7.46326 3.75 8.26752 3.75 9.4V14.6C3.75 15.7166 3.75057 16.5141 3.79987 17.1395L4.46967 16.4697L5.14124 15.7981L5.17801 15.7613L5.17802 15.7613C5.81331 15.126 6.34307 14.5962 6.82019 14.2322C7.32379 13.8479 7.85587 13.5784 8.5 13.5784C9.14413 13.5784 9.67621 13.8479 10.1798 14.2322C10.6569 14.5962 11.1867 15.126 11.822 15.7613L11.822 15.7613L11.8588 15.7981L13.5303 17.4697L16.0303 19.9697C16.1098 20.0491 16.1677 20.142 16.204 20.241C16.5688 20.2338 16.8849 20.221 17.1661 20.198C17.7867 20.1473 18.171 20.0509 18.4755 19.8958C18.5542 19.8557 18.631 19.8125 18.7057 19.7664L4.2336 5.29426ZM14.1893 20.25L12.4697 18.5303L10.7981 16.8588C10.1164 16.1771 9.65742 15.7203 9.26994 15.4247C8.89977 15.1423 8.6843 15.0784 8.5 15.0784C8.3157 15.0784 8.10023 15.1423 7.73006 15.4247C7.34258 15.7203 6.88356 16.1771 6.2019 16.8588L5.53033 17.5303L4.28074 18.7799C4.58988 19.2522 5.01798 19.6377 5.52453 19.8958C5.829 20.0509 6.21325 20.1473 6.83388 20.198C7.46326 20.2494 8.26752 20.25 9.4 20.25H14.1893ZM17.1661 3.80201C16.5367 3.75058 15.7325 3.75 14.6 3.75H8C7.58579 3.75 7.25 3.41421 7.25 3C7.25 2.58579 7.58579 2.25 8 2.25H14.6L14.633 2.25C15.7251 2.24999 16.5906 2.24999 17.2883 2.30699C18.0017 2.36527 18.6053 2.48688 19.1565 2.76772C20.0502 3.22312 20.7769 3.94978 21.2323 4.84354C21.5131 5.39472 21.6347 5.99834 21.693 6.71173C21.75 7.40935 21.75 8.27484 21.75 9.36698V9.4V16C21.75 16.4142 21.4142 16.75 21 16.75C20.5858 16.75 20.25 16.4142 20.25 16V9.4C20.25 8.26752 20.2494 7.46326 20.198 6.83388C20.1473 6.21325 20.0509 5.829 19.8958 5.52453C19.5842 4.913 19.087 4.41582 18.4755 4.10423C18.171 3.94909 17.7867 3.85271 17.1661 3.80201ZM16 6.75C15.3096 6.75 14.75 7.30964 14.75 8C14.75 8.69036 15.3096 9.25 16 9.25C16.6904 9.25 17.25 8.69036 17.25 8C17.25 7.30964 16.6904 6.75 16 6.75ZM13.25 8C13.25 6.48122 14.4812 5.25 16 5.25C17.5188 5.25 18.75 6.48122 18.75 8C18.75 9.51878 17.5188 10.75 16 10.75C14.4812 10.75 13.25 9.51878 13.25 8Z" fill="#22282F"/>
</svg>
