<svg width="24" height="24" viewBox="0 0 24 24" fill="none" xmlns="http://www.w3.org/2000/svg">
<path fill-rule="evenodd" clip-rule="evenodd" d="M14.2173 1.28218C14.5337 1.37795 14.75 1.6695 14.75 2V9.25H19C19.2766 9.25 19.5307 9.40224 19.6613 9.6461C19.7918 9.88997 19.7775 10.1859 19.624 10.416L17.624 13.416C17.3943 13.7607 16.9286 13.8538 16.584 13.624C16.2393 13.3943 16.1462 12.9286 16.376 12.584L17.5986 10.75H14C13.5858 10.75 13.25 10.4142 13.25 10V4.47708L11.2907 7.41602C11.0609 7.76067 10.5953 7.8538 10.2506 7.62403C9.90599 7.39427 9.81286 6.92862 10.0426 6.58397L13.376 1.58397C13.5593 1.30898 13.901 1.1864 14.2173 1.28218ZM2.46967 2.46967C2.76256 2.17677 3.23744 2.17677 3.53033 2.46967L9.73033 8.66967L15.9303 14.8697L21.5303 20.4697C21.8232 20.7626 21.8232 21.2374 21.5303 21.5303C21.2374 21.8232 20.7626 21.8232 20.4697 21.5303L15.5166 16.5772L11.624 22.416C11.4407 22.691 11.099 22.8136 10.7827 22.7178C10.4663 22.622 10.25 22.3305 10.25 22V14.75H6C5.7234 14.75 5.46926 14.5978 5.33874 14.3539C5.20823 14.11 5.22253 13.8141 5.37596 13.584L8.2349 9.29556L2.46967 3.53033C2.17678 3.23743 2.17678 2.76256 2.46967 2.46967ZM9.31657 10.3772L7.40139 13.25H11C11.4142 13.25 11.75 13.5858 11.75 14V19.5229L14.4349 15.4956L9.31657 10.3772Z" fill="#22282F"/>
</svg>
